<svg width="80" height="80" viewBox="0 0 80 80" fill="none" xmlns="http://www.w3.org/2000/svg">
<path d="M37.7821 38.98C37.7821 45.5578 36.591 50.5711 34.2088 54.02C31.8265 57.4333 28.431 59.14 24.0221 59.14C19.6132 59.14 16.1999 57.4333 13.7821 54.02C11.3999 50.5711 10.2088 45.5578 10.2088 38.98C10.2088 32.3667 11.3999 27.3356 13.7821 23.8867C16.1999 20.4378 19.6132 18.7133 24.0221 18.7133C28.431 18.7133 31.8265 20.4378 34.2088 23.8867C36.591 27.3356 37.7821 32.3667 37.7821 38.98ZM18.4221 38.98C18.4221 43.3889 18.8665 46.6778 19.7554 48.8467C20.6799 50.98 22.1021 52.0467 24.0221 52.0467C25.9421 52.0467 27.3465 50.98 28.2354 48.8467C29.1243 46.6778 29.5688 43.3889 29.5688 38.98C29.5688 34.5356 29.1243 31.2289 28.2354 29.06C27.3465 26.8911 25.9421 25.8067 24.0221 25.8067C22.1021 25.8067 20.6799 26.8911 19.7554 29.06C18.8665 31.1933 18.4221 34.5 18.4221 38.98ZM44.6933 33.5933V26.18L56.64 19.4067H62.6667V58.5H54.8267V27.94L44.6933 33.5933Z" fill="#00B12C"/>
</svg>
