<svg width="81" height="80" viewBox="0 0 81 80" fill="none" xmlns="http://www.w3.org/2000/svg">
<path d="M38.4481 38.48C38.4481 45.0578 37.257 50.0711 34.8748 53.52C32.4925 56.9333 29.097 58.64 24.6881 58.64C20.2792 58.64 16.8659 56.9333 14.4481 53.52C12.0659 50.0711 10.8748 45.0578 10.8748 38.48C10.8748 31.8667 12.0659 26.8356 14.4481 23.3867C16.8659 19.9378 20.2792 18.2133 24.6881 18.2133C29.097 18.2133 32.4925 19.9378 34.8748 23.3867C37.257 26.8356 38.4481 31.8667 38.4481 38.48ZM19.0881 38.48C19.0881 42.8889 19.5325 46.1778 20.4214 48.3467C21.3459 50.48 22.7681 51.5467 24.6881 51.5467C26.6081 51.5467 28.0125 50.48 28.9014 48.3467C29.7903 46.1778 30.2348 42.8889 30.2348 38.48C30.2348 34.0356 29.7903 30.7289 28.9014 28.56C28.0125 26.3911 26.6081 25.3067 24.6881 25.3067C22.7681 25.3067 21.3459 26.3911 20.4214 28.56C19.5325 30.6933 19.0881 34 19.0881 38.48ZM54.586 51.2267H70.2127V58H43.2793V52.9867L55.066 39.76C57.0927 37.4844 58.4971 35.7067 59.2793 34.4267C60.0971 33.1111 60.506 31.76 60.506 30.3733C60.506 28.8444 60.0793 27.6178 59.226 26.6933C58.3727 25.7689 57.2171 25.3067 55.7593 25.3067C54.266 25.3067 52.9505 25.8578 51.8127 26.96C50.6749 28.0267 49.8038 29.5556 49.1993 31.5467L43.1193 28.0267C44.0438 24.8622 45.7149 22.4444 48.1327 20.7733C50.5505 19.0667 53.3416 18.2133 56.506 18.2133C58.9949 18.2133 61.146 18.7289 62.9593 19.76C64.8082 20.7556 66.2127 22.1422 67.1727 23.92C68.1682 25.6978 68.666 27.7244 68.666 30C68.666 32.24 68.1149 34.3378 67.0127 36.2933C65.946 38.2133 64.026 40.72 61.2527 43.8133L54.586 51.2267Z" fill="#00B12C"/>
</svg>
