<svg width="81" height="80" viewBox="0 0 81 80" fill="none" xmlns="http://www.w3.org/2000/svg">
<path d="M38.1141 38.48C38.1141 45.0578 36.923 50.0711 34.5408 53.52C32.1586 56.9333 28.763 58.64 24.3541 58.64C19.9452 58.64 16.5319 56.9333 14.1141 53.52C11.7319 50.0711 10.5408 45.0578 10.5408 38.48C10.5408 31.8667 11.7319 26.8356 14.1141 23.3867C16.5319 19.9378 19.9452 18.2133 24.3541 18.2133C28.763 18.2133 32.1586 19.9378 34.5408 23.3867C36.923 26.8356 38.1141 31.8667 38.1141 38.48ZM18.7541 38.48C18.7541 42.8889 19.1986 46.1778 20.0874 48.3467C21.0119 50.48 22.4341 51.5467 24.3541 51.5467C26.2741 51.5467 27.6786 50.48 28.5674 48.3467C29.4563 46.1778 29.9008 42.8889 29.9008 38.48C29.9008 34.0356 29.4563 30.7289 28.5674 28.56C27.6786 26.3911 26.2741 25.3067 24.3541 25.3067C22.4341 25.3067 21.0119 26.3911 20.0874 28.56C19.1986 30.6933 18.7541 34 18.7541 38.48ZM62.892 37.6267C65.0609 38.4444 66.7143 39.6533 67.852 41.2533C68.9898 42.8178 69.5587 44.7733 69.5587 47.12C69.5587 49.5378 68.9365 51.6178 67.692 53.36C66.4831 55.0667 64.8298 56.3822 62.732 57.3067C60.6698 58.1956 58.3765 58.64 55.852 58.64C52.6165 58.64 49.7898 57.8756 47.372 56.3467C44.9898 54.8178 43.3009 52.5956 42.3054 49.68L48.4387 46.16C49.0076 48.0089 49.9498 49.4133 51.2654 50.3733C52.5809 51.2978 54.0565 51.76 55.692 51.76C57.292 51.76 58.6254 51.2978 59.692 50.3733C60.7943 49.4489 61.3454 48.1689 61.3454 46.5333C61.3454 42.9422 58.6076 41.1467 53.132 41.1467H51.692V34.7467H53.772C55.7987 34.7467 57.3454 34.2667 58.412 33.3067C59.5143 32.3111 60.0654 31.0844 60.0654 29.6267C60.0654 28.2756 59.6209 27.1911 58.732 26.3733C57.8431 25.5556 56.6876 25.1467 55.2654 25.1467C53.7365 25.1467 52.4031 25.6444 51.2654 26.64C50.1631 27.6 49.3098 28.9867 48.7054 30.8L42.8387 27.44C43.7631 24.4533 45.3809 22.1778 47.692 20.6133C50.0031 19.0133 52.7409 18.2133 55.9054 18.2133C58.3587 18.2133 60.5098 18.6756 62.3587 19.6C64.2431 20.4889 65.7009 21.7511 66.732 23.3867C67.7631 25.0222 68.2787 26.9067 68.2787 29.04C68.2787 31.0311 67.8165 32.7556 66.892 34.2133C66.0031 35.6711 64.6698 36.8089 62.892 37.6267Z" fill="#00B12C"/>
</svg>
