<svg width="81" height="80" viewBox="0 0 81 80" fill="none" xmlns="http://www.w3.org/2000/svg">
<path d="M38.4481 38.48C38.4481 45.0578 37.257 50.0711 34.8748 53.52C32.4925 56.9333 29.097 58.64 24.6881 58.64C20.2792 58.64 16.8659 56.9333 14.4481 53.52C12.0659 50.0711 10.8748 45.0578 10.8748 38.48C10.8748 31.8667 12.0659 26.8356 14.4481 23.3867C16.8659 19.9378 20.2792 18.2133 24.6881 18.2133C29.097 18.2133 32.4925 19.9378 34.8748 23.3867C37.257 26.8356 38.4481 31.8667 38.4481 38.48ZM19.0881 38.48C19.0881 42.8889 19.5325 46.1778 20.4214 48.3467C21.3459 50.48 22.7681 51.5467 24.6881 51.5467C26.6081 51.5467 28.0125 50.48 28.9014 48.3467C29.7903 46.1778 30.2348 42.8889 30.2348 38.48C30.2348 34.0356 29.7903 30.7289 28.9014 28.56C28.0125 26.3911 26.6081 25.3067 24.6881 25.3067C22.7681 25.3067 21.3459 26.3911 20.4214 28.56C19.5325 30.6933 19.0881 34 19.0881 38.48ZM57.786 32.6133C60.026 32.6133 62.0705 33.1467 63.9193 34.2133C65.7682 35.2444 67.226 36.7378 68.2927 38.6933C69.3593 40.6133 69.8927 42.8356 69.8927 45.36C69.8927 48.0978 69.2882 50.48 68.0793 52.5067C66.906 54.4978 65.2882 56.0267 63.226 57.0933C61.1638 58.1244 58.8882 58.64 56.3993 58.64C53.4482 58.64 50.8882 57.9644 48.7193 56.6133C46.586 55.2622 45.0749 53.2178 44.186 50.48L50.426 46.9067C50.8882 48.5067 51.6349 49.7156 52.666 50.5333C53.6971 51.3511 54.906 51.76 56.2927 51.76C58.0349 51.76 59.3682 51.1911 60.2927 50.0533C61.2527 48.88 61.7327 47.4044 61.7327 45.6267C61.7327 43.8489 61.2349 42.3733 60.2393 41.2C59.2793 39.9911 57.8927 39.3867 56.0793 39.3867C53.7327 39.3867 51.866 40.5422 50.4793 42.8533L44.9327 40.1333L47.5993 18.9067H68.0793V25.52H54.106L53.0393 33.5733C54.5682 32.9333 56.1505 32.6133 57.786 32.6133Z" fill="#00B12C"/>
</svg>
