<svg width="81" height="80" viewBox="0 0 81 80" fill="none" xmlns="http://www.w3.org/2000/svg">
<path d="M38.1141 38.48C38.1141 45.0578 36.923 50.0711 34.5408 53.52C32.1586 56.9333 28.763 58.64 24.3541 58.64C19.9452 58.64 16.5319 56.9333 14.1141 53.52C11.7319 50.0711 10.5408 45.0578 10.5408 38.48C10.5408 31.8667 11.7319 26.8356 14.1141 23.3867C16.5319 19.9378 19.9452 18.2133 24.3541 18.2133C28.763 18.2133 32.1586 19.9378 34.5408 23.3867C36.923 26.8356 38.1141 31.8667 38.1141 38.48ZM18.7541 38.48C18.7541 42.8889 19.1986 46.1778 20.0874 48.3467C21.0119 50.48 22.4341 51.5467 24.3541 51.5467C26.2741 51.5467 27.6786 50.48 28.5674 48.3467C29.4563 46.1778 29.9008 42.8889 29.9008 38.48C29.9008 34.0356 29.4563 30.7289 28.5674 28.56C27.6786 26.3911 26.2741 25.3067 24.3541 25.3067C22.4341 25.3067 21.0119 26.3911 20.0874 28.56C19.1986 30.6933 18.7541 34 18.7541 38.48ZM58.0387 33.1467C60.4565 33.1467 62.6076 33.68 64.492 34.7467C66.3765 35.7778 67.8343 37.2356 68.8654 39.12C69.8965 41.0044 70.412 43.1556 70.412 45.5733C70.412 48.0978 69.7898 50.3556 68.5454 52.3467C67.3365 54.3378 65.6654 55.8844 63.532 56.9867C61.4343 58.0889 59.1409 58.64 56.652 58.64C54.092 58.64 51.7631 58.0889 49.6654 56.9867C47.5676 55.8489 45.9143 54.2667 44.7054 52.24C43.4965 50.2133 42.892 47.8667 42.892 45.2C42.892 43.2089 43.2654 41.3067 44.012 39.4933C44.7587 37.6444 46.0743 35.2267 47.9587 32.24L56.3854 18.9067H64.7587L57.132 30.64C56.5276 31.6 55.8698 32.56 55.1587 33.52C56.012 33.2711 56.972 33.1467 58.0387 33.1467ZM56.5987 51.7067C58.2698 51.7067 59.6209 51.1556 60.652 50.0533C61.6831 48.9156 62.1987 47.4578 62.1987 45.68C62.1987 43.9022 61.6831 42.4622 60.652 41.36C59.6209 40.2222 58.2698 39.6533 56.5987 39.6533C54.892 39.6533 53.5231 40.2222 52.492 41.36C51.4609 42.4622 50.9454 43.9022 50.9454 45.68C50.9454 47.4933 51.4609 48.9511 52.492 50.0533C53.5587 51.1556 54.9276 51.7067 56.5987 51.7067Z" fill="#00B12C"/>
</svg>
