<svg width="80" height="80" viewBox="0 0 80 80" fill="none" xmlns="http://www.w3.org/2000/svg">
<path d="M37.7821 38.48C37.7821 45.0578 36.591 50.0711 34.2088 53.52C31.8265 56.9333 28.431 58.64 24.0221 58.64C19.6132 58.64 16.1999 56.9333 13.7821 53.52C11.3999 50.0711 10.2088 45.0578 10.2088 38.48C10.2088 31.8667 11.3999 26.8356 13.7821 23.3867C16.1999 19.9378 19.6132 18.2133 24.0221 18.2133C28.431 18.2133 31.8265 19.9378 34.2088 23.3867C36.591 26.8356 37.7821 31.8667 37.7821 38.48ZM18.4221 38.48C18.4221 42.8889 18.8665 46.1778 19.7554 48.3467C20.6799 50.48 22.1021 51.5467 24.0221 51.5467C25.9421 51.5467 27.3465 50.48 28.2354 48.3467C29.1243 46.1778 29.5688 42.8889 29.5688 38.48C29.5688 34.0356 29.1243 30.7289 28.2354 28.56C27.3465 26.3911 25.9421 25.3067 24.0221 25.3067C22.1021 25.3067 20.6799 26.3911 19.7554 28.56C18.8665 30.6933 18.4221 34 18.4221 38.48ZM60.3733 25.68H42.88V18.9067H69.0667V23.7067L55.5733 58H47.1467L60.3733 25.68Z" fill="#00B12C"/>
</svg>
