<svg width="81" height="80" viewBox="0 0 81 80" fill="none" xmlns="http://www.w3.org/2000/svg">
<path d="M38.4481 38.48C38.4481 45.0578 37.257 50.0711 34.8748 53.52C32.4925 56.9333 29.097 58.64 24.6881 58.64C20.2792 58.64 16.8659 56.9333 14.4481 53.52C12.0659 50.0711 10.8748 45.0578 10.8748 38.48C10.8748 31.8667 12.0659 26.8356 14.4481 23.3867C16.8659 19.9378 20.2792 18.2133 24.6881 18.2133C29.097 18.2133 32.4925 19.9378 34.8748 23.3867C37.257 26.8356 38.4481 31.8667 38.4481 38.48ZM19.0881 38.48C19.0881 42.8889 19.5325 46.1778 20.4214 48.3467C21.3459 50.48 22.7681 51.5467 24.6881 51.5467C26.6081 51.5467 28.0125 50.48 28.9014 48.3467C29.7903 46.1778 30.2348 42.8889 30.2348 38.48C30.2348 34.0356 29.7903 30.7289 28.9014 28.56C28.0125 26.3911 26.6081 25.3067 24.6881 25.3067C22.7681 25.3067 21.3459 26.3911 20.4214 28.56C19.5325 30.6933 19.0881 34 19.0881 38.48ZM64.2394 36.7733C66.1949 37.7333 67.7238 39.0667 68.826 40.7733C69.9638 42.4444 70.5327 44.4533 70.5327 46.8C70.5327 49.1111 69.9638 51.1733 68.826 52.9867C67.7238 54.7644 66.1238 56.1511 64.026 57.1467C61.9638 58.1422 59.5638 58.64 56.826 58.64C54.0171 58.64 51.546 58.1422 49.4127 57.1467C47.3149 56.1511 45.6971 54.7644 44.5593 52.9867C43.4216 51.1733 42.8527 49.1111 42.8527 46.8C42.8527 44.4533 43.4216 42.4444 44.5593 40.7733C45.6971 39.0667 47.2616 37.7511 49.2527 36.8267C47.6527 35.9733 46.4082 34.8711 45.5193 33.52C44.6305 32.1333 44.186 30.5511 44.186 28.7733C44.186 26.8533 44.6838 25.0933 45.6793 23.4933C46.6749 21.8578 48.1327 20.5778 50.0527 19.6533C51.9727 18.6933 54.2305 18.2133 56.826 18.2133C59.4216 18.2133 61.626 18.6933 63.4393 19.6533C65.2882 20.5778 66.6749 21.84 67.5993 23.44C68.5593 25.0044 69.0393 26.7822 69.0393 28.7733C69.0393 30.5511 68.6127 32.1333 67.7593 33.52C66.906 34.8711 65.7327 35.9556 64.2394 36.7733ZM56.826 24.6667C55.4393 24.6667 54.3193 25.0933 53.466 25.9467C52.6482 26.8 52.2393 27.8667 52.2393 29.1467C52.2393 30.4267 52.6482 31.4933 53.466 32.3467C54.3193 33.2 55.4393 33.6267 56.826 33.6267C58.1771 33.6267 59.2793 33.2 60.1327 32.3467C60.986 31.4933 61.4127 30.4267 61.4127 29.1467C61.4127 27.9022 60.986 26.8533 60.1327 26C59.2793 25.1111 58.1771 24.6667 56.826 24.6667ZM56.826 51.76C58.4616 51.76 59.7949 51.2622 60.826 50.2667C61.8571 49.2356 62.3727 47.8489 62.3727 46.1067C62.3727 44.3289 61.8571 42.9067 60.826 41.84C59.8305 40.7733 58.4971 40.24 56.826 40.24C55.0838 40.24 53.6971 40.7733 52.666 41.84C51.6349 42.9067 51.1193 44.3289 51.1193 46.1067C51.1193 47.8489 51.6349 49.2356 52.666 50.2667C53.7327 51.2622 55.1193 51.76 56.826 51.76Z" fill="#00B12C"/>
</svg>
