<svg width="81" height="80" viewBox="0 0 81 80" fill="none" xmlns="http://www.w3.org/2000/svg">
<path d="M38.1141 38.48C38.1141 45.0578 36.923 50.0711 34.5408 53.52C32.1586 56.9333 28.763 58.64 24.3541 58.64C19.9452 58.64 16.5319 56.9333 14.1141 53.52C11.7319 50.0711 10.5408 45.0578 10.5408 38.48C10.5408 31.8667 11.7319 26.8356 14.1141 23.3867C16.5319 19.9378 19.9452 18.2133 24.3541 18.2133C28.763 18.2133 32.1586 19.9378 34.5408 23.3867C36.923 26.8356 38.1141 31.8667 38.1141 38.48ZM18.7541 38.48C18.7541 42.8889 19.1986 46.1778 20.0874 48.3467C21.0119 50.48 22.4341 51.5467 24.3541 51.5467C26.2741 51.5467 27.6786 50.48 28.5674 48.3467C29.4563 46.1778 29.9008 42.8889 29.9008 38.48C29.9008 34.0356 29.4563 30.7289 28.5674 28.56C27.6786 26.3911 26.2741 25.3067 24.3541 25.3067C22.4341 25.3067 21.0119 26.3911 20.0874 28.56C19.1986 30.6933 18.7541 34 18.7541 38.48ZM56.1187 18.2133C58.6787 18.2133 61.0076 18.7822 63.1054 19.92C65.2031 21.0222 66.8565 22.5867 68.0654 24.6133C69.2743 26.64 69.8787 28.9867 69.8787 31.6533C69.8787 33.6444 69.5054 35.5644 68.7587 37.4133C68.012 39.2267 66.6965 41.6267 64.812 44.6133L56.3854 57.9467H48.012L55.6387 46.2133C56.2431 45.2533 56.9009 44.2933 57.612 43.3333C56.7587 43.5822 55.7987 43.7067 54.732 43.7067C52.3143 43.7067 50.1631 43.1911 48.2787 42.16C46.3943 41.0933 44.9187 39.6178 43.852 37.7333C42.8209 35.8489 42.3054 33.6978 42.3054 31.28C42.3054 28.7556 42.9276 26.4978 44.172 24.5067C45.4165 22.5156 47.0876 20.9689 49.1854 19.8667C51.3187 18.7644 53.6298 18.2133 56.1187 18.2133ZM56.172 37.2C57.8787 37.2 59.2476 36.6489 60.2787 35.5467C61.3098 34.4089 61.8254 32.9511 61.8254 31.1733C61.8254 29.36 61.292 27.9022 60.2254 26.8C59.1943 25.6978 57.8431 25.1467 56.172 25.1467C54.5009 25.1467 53.1498 25.7156 52.1187 26.8533C51.0876 27.9556 50.572 29.3956 50.572 31.1733C50.572 32.9511 51.0876 34.4089 52.1187 35.5467C53.1498 36.6489 54.5009 37.2 56.172 37.2Z" fill="#00B12C"/>
</svg>
