<svg width="80" height="80" viewBox="0 0 80 80" fill="none" xmlns="http://www.w3.org/2000/svg">
<path d="M12.6621 33.0933V25.68L24.6087 18.9067H30.6354V58H22.7954V27.44L12.6621 33.0933ZM69.8133 38.48C69.8133 45.0578 68.6222 50.0711 66.24 53.52C63.8578 56.9333 60.4622 58.64 56.0533 58.64C51.6444 58.64 48.2311 56.9333 45.8133 53.52C43.4311 50.0711 42.24 45.0578 42.24 38.48C42.24 31.8667 43.4311 26.8356 45.8133 23.3867C48.2311 19.9378 51.6444 18.2133 56.0533 18.2133C60.4622 18.2133 63.8578 19.9378 66.24 23.3867C68.6222 26.8356 69.8133 31.8667 69.8133 38.48ZM50.4533 38.48C50.4533 42.8889 50.8978 46.1778 51.7867 48.3467C52.7111 50.48 54.1333 51.5467 56.0533 51.5467C57.9733 51.5467 59.3778 50.48 60.2667 48.3467C61.1556 46.1778 61.6 42.8889 61.6 38.48C61.6 34.0356 61.1556 30.7289 60.2667 28.56C59.3778 26.3911 57.9733 25.3067 56.0533 25.3067C54.1333 25.3067 52.7111 26.3911 51.7867 28.56C50.8978 30.6933 50.4533 34 50.4533 38.48Z" fill="#00B12C"/>
</svg>
