<svg width="81" height="80" viewBox="0 0 81 80" fill="none" xmlns="http://www.w3.org/2000/svg">
<path d="M12.9941 33.0933V25.68L24.9408 18.9067H30.9674V58H23.1274V27.44L12.9941 33.0933ZM54.252 51.2267H69.8787V58H42.9454V52.9867L54.732 39.76C56.7587 37.4844 58.1631 35.7067 58.9454 34.4267C59.7631 33.1111 60.172 31.76 60.172 30.3733C60.172 28.8444 59.7454 27.6178 58.892 26.6933C58.0387 25.7689 56.8831 25.3067 55.4254 25.3067C53.932 25.3067 52.6165 25.8578 51.4787 26.96C50.3409 28.0267 49.4698 29.5556 48.8654 31.5467L42.7854 28.0267C43.7098 24.8622 45.3809 22.4444 47.7987 20.7733C50.2165 19.0667 53.0076 18.2133 56.172 18.2133C58.6609 18.2133 60.812 18.7289 62.6254 19.76C64.4743 20.7556 65.8787 22.1422 66.8387 23.92C67.8343 25.6978 68.332 27.7244 68.332 30C68.332 32.24 67.7809 34.3378 66.6787 36.2933C65.612 38.2133 63.692 40.72 60.9187 43.8133L54.252 51.2267Z" fill="#00B12C"/>
</svg>
