<svg width="80" height="80" viewBox="0 0 80 80" fill="none" xmlns="http://www.w3.org/2000/svg">
<path d="M12.6621 33.0933V25.68L24.6087 18.9067H30.6354V58H22.7954V27.44L12.6621 33.0933ZM62.56 37.6267C64.7289 38.4444 66.3822 39.6533 67.52 41.2533C68.6578 42.8178 69.2267 44.7733 69.2267 47.12C69.2267 49.5378 68.6044 51.6178 67.36 53.36C66.1511 55.0667 64.4978 56.3822 62.4 57.3067C60.3378 58.1956 58.0444 58.64 55.52 58.64C52.2844 58.64 49.4578 57.8756 47.04 56.3467C44.6578 54.8178 42.9689 52.5956 41.9733 49.68L48.1067 46.16C48.6756 48.0089 49.6178 49.4133 50.9333 50.3733C52.2489 51.2978 53.7244 51.76 55.36 51.76C56.96 51.76 58.2933 51.2978 59.36 50.3733C60.4622 49.4489 61.0133 48.1689 61.0133 46.5333C61.0133 42.9422 58.2756 41.1467 52.8 41.1467H51.36V34.7467H53.44C55.4667 34.7467 57.0133 34.2667 58.08 33.3067C59.1822 32.3111 59.7333 31.0844 59.7333 29.6267C59.7333 28.2756 59.2889 27.1911 58.4 26.3733C57.5111 25.5556 56.3556 25.1467 54.9333 25.1467C53.4044 25.1467 52.0711 25.6444 50.9333 26.64C49.8311 27.6 48.9778 28.9867 48.3733 30.8L42.5067 27.44C43.4311 24.4533 45.0489 22.1778 47.36 20.6133C49.6711 19.0133 52.4089 18.2133 55.5733 18.2133C58.0267 18.2133 60.1778 18.6756 62.0267 19.6C63.9111 20.4889 65.3689 21.7511 66.4 23.3867C67.4311 25.0222 67.9467 26.9067 67.9467 29.04C67.9467 31.0311 67.4844 32.7556 66.56 34.2133C65.6711 35.6711 64.3378 36.8089 62.56 37.6267Z" fill="#00B12C"/>
</svg>
