<svg width="81" height="80" viewBox="0 0 81 80" fill="none" xmlns="http://www.w3.org/2000/svg">
<path d="M12.9941 33.0933V25.68L24.9408 18.9067H30.9674V58H23.1274V27.44L12.9941 33.0933ZM57.452 32.6133C59.692 32.6133 61.7365 33.1467 63.5854 34.2133C65.4343 35.2444 66.892 36.7378 67.9587 38.6933C69.0254 40.6133 69.5587 42.8356 69.5587 45.36C69.5587 48.0978 68.9543 50.48 67.7454 52.5067C66.572 54.4978 64.9543 56.0267 62.892 57.0933C60.8298 58.1244 58.5543 58.64 56.0654 58.64C53.1143 58.64 50.5543 57.9644 48.3854 56.6133C46.252 55.2622 44.7409 53.2178 43.852 50.48L50.092 46.9067C50.5543 48.5067 51.3009 49.7156 52.332 50.5333C53.3631 51.3511 54.572 51.76 55.9587 51.76C57.7009 51.76 59.0343 51.1911 59.9587 50.0533C60.9187 48.88 61.3987 47.4044 61.3987 45.6267C61.3987 43.8489 60.9009 42.3733 59.9054 41.2C58.9454 39.9911 57.5587 39.3867 55.7454 39.3867C53.3987 39.3867 51.532 40.5422 50.1454 42.8533L44.5987 40.1333L47.2654 18.9067H67.7454V25.52H53.772L52.7054 33.5733C54.2343 32.9333 55.8165 32.6133 57.452 32.6133Z" fill="#00B12C"/>
</svg>
