<svg width="80" height="80" viewBox="0 0 80 80" fill="none" xmlns="http://www.w3.org/2000/svg">
<path d="M12.6621 33.0933V25.68L24.6087 18.9067H30.6354V58H22.7954V27.44L12.6621 33.0933ZM57.7067 33.1467C60.1244 33.1467 62.2756 33.68 64.16 34.7467C66.0444 35.7778 67.5022 37.2356 68.5333 39.12C69.5644 41.0044 70.08 43.1556 70.08 45.5733C70.08 48.0978 69.4578 50.3556 68.2133 52.3467C67.0044 54.3378 65.3333 55.8844 63.2 56.9867C61.1022 58.0889 58.8089 58.64 56.32 58.64C53.76 58.64 51.4311 58.0889 49.3333 56.9867C47.2356 55.8489 45.5822 54.2667 44.3733 52.24C43.1644 50.2133 42.56 47.8667 42.56 45.2C42.56 43.2089 42.9333 41.3067 43.68 39.4933C44.4267 37.6444 45.7422 35.2267 47.6267 32.24L56.0533 18.9067H64.4267L56.8 30.64C56.1956 31.6 55.5378 32.56 54.8267 33.52C55.68 33.2711 56.64 33.1467 57.7067 33.1467ZM56.2667 51.7067C57.9378 51.7067 59.2889 51.1556 60.32 50.0533C61.3511 48.9156 61.8667 47.4578 61.8667 45.68C61.8667 43.9022 61.3511 42.4622 60.32 41.36C59.2889 40.2222 57.9378 39.6533 56.2667 39.6533C54.56 39.6533 53.1911 40.2222 52.16 41.36C51.1289 42.4622 50.6133 43.9022 50.6133 45.68C50.6133 47.4933 51.1289 48.9511 52.16 50.0533C53.2267 51.1556 54.5956 51.7067 56.2667 51.7067Z" fill="#00B12C"/>
</svg>
