<svg width="81" height="80" viewBox="0 0 81 80" fill="none" xmlns="http://www.w3.org/2000/svg">
<path d="M12.9941 33.0933V25.68L24.9408 18.9067H30.9674V58H23.1274V27.44L12.9941 33.0933ZM63.9054 36.7733C65.8609 37.7333 67.3898 39.0667 68.492 40.7733C69.6298 42.4444 70.1987 44.4533 70.1987 46.8C70.1987 49.1111 69.6298 51.1733 68.492 52.9867C67.3898 54.7644 65.7898 56.1511 63.692 57.1467C61.6298 58.1422 59.2298 58.64 56.492 58.64C53.6831 58.64 51.212 58.1422 49.0787 57.1467C46.9809 56.1511 45.3631 54.7644 44.2254 52.9867C43.0876 51.1733 42.5187 49.1111 42.5187 46.8C42.5187 44.4533 43.0876 42.4444 44.2254 40.7733C45.3631 39.0667 46.9276 37.7511 48.9187 36.8267C47.3187 35.9733 46.0743 34.8711 45.1854 33.52C44.2965 32.1333 43.852 30.5511 43.852 28.7733C43.852 26.8533 44.3498 25.0933 45.3454 23.4933C46.3409 21.8578 47.7987 20.5778 49.7187 19.6533C51.6387 18.6933 53.8965 18.2133 56.492 18.2133C59.0876 18.2133 61.292 18.6933 63.1054 19.6533C64.9543 20.5778 66.3409 21.84 67.2654 23.44C68.2254 25.0044 68.7054 26.7822 68.7054 28.7733C68.7054 30.5511 68.2787 32.1333 67.4254 33.52C66.572 34.8711 65.3987 35.9556 63.9054 36.7733ZM56.492 24.6667C55.1054 24.6667 53.9854 25.0933 53.132 25.9467C52.3143 26.8 51.9054 27.8667 51.9054 29.1467C51.9054 30.4267 52.3143 31.4933 53.132 32.3467C53.9854 33.2 55.1054 33.6267 56.492 33.6267C57.8431 33.6267 58.9454 33.2 59.7987 32.3467C60.652 31.4933 61.0787 30.4267 61.0787 29.1467C61.0787 27.9022 60.652 26.8533 59.7987 26C58.9454 25.1111 57.8431 24.6667 56.492 24.6667ZM56.492 51.76C58.1276 51.76 59.4609 51.2622 60.492 50.2667C61.5231 49.2356 62.0387 47.8489 62.0387 46.1067C62.0387 44.3289 61.5231 42.9067 60.492 41.84C59.4965 40.7733 58.1631 40.24 56.492 40.24C54.7498 40.24 53.3631 40.7733 52.332 41.84C51.3009 42.9067 50.7854 44.3289 50.7854 46.1067C50.7854 47.8489 51.3009 49.2356 52.332 50.2667C53.3987 51.2622 54.7854 51.76 56.492 51.76Z" fill="#00B12C"/>
</svg>
