<svg width="80" height="80" viewBox="0 0 80 80" fill="none" xmlns="http://www.w3.org/2000/svg">
<path d="M12.6621 33.0933V25.68L24.6087 18.9067H30.6354V58H22.7954V27.44L12.6621 33.0933ZM55.7867 18.2133C58.3467 18.2133 60.6756 18.7822 62.7733 19.92C64.8711 21.0222 66.5244 22.5867 67.7333 24.6133C68.9422 26.64 69.5467 28.9867 69.5467 31.6533C69.5467 33.6444 69.1733 35.5644 68.4267 37.4133C67.68 39.2267 66.3644 41.6267 64.48 44.6133L56.0533 57.9467H47.68L55.3067 46.2133C55.9111 45.2533 56.5689 44.2933 57.28 43.3333C56.4267 43.5822 55.4667 43.7067 54.4 43.7067C51.9822 43.7067 49.8311 43.1911 47.9467 42.16C46.0622 41.0933 44.5867 39.6178 43.52 37.7333C42.4889 35.8489 41.9733 33.6978 41.9733 31.28C41.9733 28.7556 42.5956 26.4978 43.84 24.5067C45.0844 22.5156 46.7556 20.9689 48.8533 19.8667C50.9867 18.7644 53.2978 18.2133 55.7867 18.2133ZM55.84 37.2C57.5467 37.2 58.9156 36.6489 59.9467 35.5467C60.9778 34.4089 61.4933 32.9511 61.4933 31.1733C61.4933 29.36 60.96 27.9022 59.8933 26.8C58.8622 25.6978 57.5111 25.1467 55.84 25.1467C54.1689 25.1467 52.8178 25.7156 51.7867 26.8533C50.7556 27.9556 50.24 29.3956 50.24 31.1733C50.24 32.9511 50.7556 34.4089 51.7867 35.5467C52.8178 36.6489 54.1689 37.2 55.84 37.2Z" fill="#00B12C"/>
</svg>
