<svg width="81" height="80" viewBox="0 0 81 80" fill="none" xmlns="http://www.w3.org/2000/svg">
<path d="M22.5548 51.2267H38.1814V58H11.2481V52.9867L23.0348 39.76C25.0614 37.4844 26.4659 35.7067 27.2481 34.4267C28.0659 33.1111 28.4748 31.76 28.4748 30.3733C28.4748 28.8444 28.0481 27.6178 27.1948 26.6933C26.3414 25.7689 25.1859 25.3067 23.7281 25.3067C22.2348 25.3067 20.9192 25.8578 19.7814 26.96C18.6437 28.0267 17.7725 29.5556 17.1681 31.5467L11.0881 28.0267C12.0125 24.8622 13.6837 22.4444 16.1014 20.7733C18.5192 19.0667 21.3103 18.2133 24.4748 18.2133C26.9637 18.2133 29.1148 18.7289 30.9281 19.76C32.777 20.7556 34.1814 22.1422 35.1414 23.92C36.137 25.6978 36.6348 27.7244 36.6348 30C36.6348 32.24 36.0837 34.3378 34.9814 36.2933C33.9148 38.2133 31.9948 40.72 29.2214 43.8133L22.5548 51.2267ZM70.4793 38.48C70.4793 45.0578 69.2882 50.0711 66.906 53.52C64.5238 56.9333 61.1282 58.64 56.7194 58.64C52.3105 58.64 48.8971 56.9333 46.4793 53.52C44.0971 50.0711 42.906 45.0578 42.906 38.48C42.906 31.8667 44.0971 26.8356 46.4793 23.3867C48.8971 19.9378 52.3105 18.2133 56.7194 18.2133C61.1282 18.2133 64.5238 19.9378 66.906 23.3867C69.2882 26.8356 70.4793 31.8667 70.4793 38.48ZM51.1193 38.48C51.1193 42.8889 51.5638 46.1778 52.4527 48.3467C53.3771 50.48 54.7993 51.5467 56.7194 51.5467C58.6393 51.5467 60.0438 50.48 60.9327 48.3467C61.8216 46.1778 62.266 42.8889 62.266 38.48C62.266 34.0356 61.8216 30.7289 60.9327 28.56C60.0438 26.3911 58.6393 25.3067 56.7194 25.3067C54.7993 25.3067 53.3771 26.3911 52.4527 28.56C51.5638 30.6933 51.1193 34 51.1193 38.48Z" fill="#00B12C"/>
</svg>
