<svg width="81" height="80" viewBox="0 0 81 80" fill="none" xmlns="http://www.w3.org/2000/svg">
<path d="M22.2208 51.2267H37.8474V58H10.9141V52.9867L22.7008 39.76C24.7274 37.4844 26.1319 35.7067 26.9141 34.4267C27.7319 33.1111 28.1408 31.76 28.1408 30.3733C28.1408 28.8444 27.7141 27.6178 26.8608 26.6933C26.0074 25.7689 24.8519 25.3067 23.3941 25.3067C21.9008 25.3067 20.5852 25.8578 19.4474 26.96C18.3097 28.0267 17.4386 29.5556 16.8341 31.5467L10.7541 28.0267C11.6786 24.8622 13.3497 22.4444 15.7674 20.7733C18.1852 19.0667 20.9763 18.2133 24.1408 18.2133C26.6297 18.2133 28.7808 18.7289 30.5941 19.76C32.443 20.7556 33.8474 22.1422 34.8074 23.92C35.803 25.6978 36.3008 27.7244 36.3008 30C36.3008 32.24 35.7497 34.3378 34.6474 36.2933C33.5808 38.2133 31.6608 40.72 28.8874 43.8133L22.2208 51.2267ZM45.0254 33.0933V25.68L56.972 18.9067H62.9987V58H55.1587V27.44L45.0254 33.0933Z" fill="#00B12C"/>
</svg>
