<svg width="80" height="80" viewBox="0 0 80 80" fill="none" xmlns="http://www.w3.org/2000/svg">
<path d="M21.8888 51.2267H37.5154V58H10.5821V52.9867L22.3688 39.76C24.3954 37.4844 25.7999 35.7067 26.5821 34.4267C27.3999 33.1111 27.8087 31.76 27.8087 30.3733C27.8087 28.8444 27.3821 27.6178 26.5288 26.6933C25.6754 25.7689 24.5199 25.3067 23.0621 25.3067C21.5688 25.3067 20.2532 25.8578 19.1154 26.96C17.9776 28.0267 17.1065 29.5556 16.5021 31.5467L10.4221 28.0267C11.3465 24.8622 13.0176 22.4444 15.4354 20.7733C17.8532 19.0667 20.6443 18.2133 23.8088 18.2133C26.2976 18.2133 28.4488 18.7289 30.2621 19.76C32.111 20.7556 33.5154 22.1422 34.4754 23.92C35.471 25.6978 35.9688 27.7244 35.9688 30C35.9688 32.24 35.4176 34.3378 34.3154 36.2933C33.2488 38.2133 31.3288 40.72 28.5554 43.8133L21.8888 51.2267ZM53.92 51.2267H69.5467V58H42.6133V52.9867L54.4 39.76C56.4267 37.4844 57.8311 35.7067 58.6133 34.4267C59.4311 33.1111 59.84 31.76 59.84 30.3733C59.84 28.8444 59.4133 27.6178 58.56 26.6933C57.7067 25.7689 56.5511 25.3067 55.0933 25.3067C53.6 25.3067 52.2844 25.8578 51.1467 26.96C50.0089 28.0267 49.1378 29.5556 48.5333 31.5467L42.4533 28.0267C43.3778 24.8622 45.0489 22.4444 47.4667 20.7733C49.8844 19.0667 52.6756 18.2133 55.84 18.2133C58.3289 18.2133 60.48 18.7289 62.2933 19.76C64.1422 20.7556 65.5467 22.1422 66.5067 23.92C67.5022 25.6978 68 27.7244 68 30C68 32.24 67.4489 34.3378 66.3467 36.2933C65.28 38.2133 63.36 40.72 60.5867 43.8133L53.92 51.2267Z" fill="#00B12C"/>
</svg>
