<svg width="81" height="80" viewBox="0 0 81 80" fill="none" xmlns="http://www.w3.org/2000/svg">
<path d="M22.5548 51.2267H38.1814V58H11.2481V52.9867L23.0348 39.76C25.0614 37.4844 26.4659 35.7067 27.2481 34.4267C28.0659 33.1111 28.4748 31.76 28.4748 30.3733C28.4748 28.8444 28.0481 27.6178 27.1948 26.6933C26.3414 25.7689 25.1859 25.3067 23.7281 25.3067C22.2348 25.3067 20.9192 25.8578 19.7814 26.96C18.6437 28.0267 17.7725 29.5556 17.1681 31.5467L11.0881 28.0267C12.0125 24.8622 13.6837 22.4444 16.1014 20.7733C18.5192 19.0667 21.3103 18.2133 24.4748 18.2133C26.9637 18.2133 29.1148 18.7289 30.9281 19.76C32.777 20.7556 34.1814 22.1422 35.1414 23.92C36.137 25.6978 36.6348 27.7244 36.6348 30C36.6348 32.24 36.0837 34.3378 34.9814 36.2933C33.9148 38.2133 31.9948 40.72 29.2214 43.8133L22.5548 51.2267ZM63.226 37.6267C65.3949 38.4444 67.0482 39.6533 68.186 41.2533C69.3238 42.8178 69.8927 44.7733 69.8927 47.12C69.8927 49.5378 69.2705 51.6178 68.026 53.36C66.8171 55.0667 65.1638 56.3822 63.066 57.3067C61.0038 58.1956 58.7105 58.64 56.186 58.64C52.9505 58.64 50.1238 57.8756 47.706 56.3467C45.3238 54.8178 43.6349 52.5956 42.6393 49.68L48.7727 46.16C49.3416 48.0089 50.2838 49.4133 51.5993 50.3733C52.9149 51.2978 54.3905 51.76 56.026 51.76C57.626 51.76 58.9593 51.2978 60.026 50.3733C61.1282 49.4489 61.6793 48.1689 61.6793 46.5333C61.6793 42.9422 58.9416 41.1467 53.466 41.1467H52.026V34.7467H54.106C56.1327 34.7467 57.6793 34.2667 58.746 33.3067C59.8482 32.3111 60.3993 31.0844 60.3993 29.6267C60.3993 28.2756 59.9549 27.1911 59.066 26.3733C58.1771 25.5556 57.0216 25.1467 55.5993 25.1467C54.0705 25.1467 52.7371 25.6444 51.5993 26.64C50.4971 27.6 49.6438 28.9867 49.0393 30.8L43.1727 27.44C44.0971 24.4533 45.7149 22.1778 48.026 20.6133C50.3371 19.0133 53.0749 18.2133 56.2393 18.2133C58.6927 18.2133 60.8438 18.6756 62.6927 19.6C64.5771 20.4889 66.0349 21.7511 67.066 23.3867C68.0971 25.0222 68.6127 26.9067 68.6127 29.04C68.6127 31.0311 68.1505 32.7556 67.226 34.2133C66.3371 35.6711 65.0038 36.8089 63.226 37.6267Z" fill="#00B12C"/>
</svg>
