<svg width="80" height="80" viewBox="0 0 80 80" fill="none" xmlns="http://www.w3.org/2000/svg">
<path d="M21.8888 51.2267H37.5154V58H10.5821V52.9867L22.3688 39.76C24.3954 37.4844 25.7999 35.7067 26.5821 34.4267C27.3999 33.1111 27.8087 31.76 27.8087 30.3733C27.8087 28.8444 27.3821 27.6178 26.5288 26.6933C25.6754 25.7689 24.5199 25.3067 23.0621 25.3067C21.5688 25.3067 20.2532 25.8578 19.1154 26.96C17.9776 28.0267 17.1065 29.5556 16.5021 31.5467L10.4221 28.0267C11.3465 24.8622 13.0176 22.4444 15.4354 20.7733C17.8532 19.0667 20.6443 18.2133 23.8088 18.2133C26.2976 18.2133 28.4488 18.7289 30.2621 19.76C32.111 20.7556 33.5154 22.1422 34.4754 23.92C35.471 25.6978 35.9688 27.7244 35.9688 30C35.9688 32.24 35.4176 34.3378 34.3154 36.2933C33.2488 38.2133 31.3288 40.72 28.5554 43.8133L21.8888 51.2267ZM57.12 32.6133C59.36 32.6133 61.4044 33.1467 63.2533 34.2133C65.1022 35.2444 66.56 36.7378 67.6267 38.6933C68.6933 40.6133 69.2267 42.8356 69.2267 45.36C69.2267 48.0978 68.6222 50.48 67.4133 52.5067C66.24 54.4978 64.6222 56.0267 62.56 57.0933C60.4978 58.1244 58.2222 58.64 55.7333 58.64C52.7822 58.64 50.2222 57.9644 48.0533 56.6133C45.92 55.2622 44.4089 53.2178 43.52 50.48L49.76 46.9067C50.2222 48.5067 50.9689 49.7156 52 50.5333C53.0311 51.3511 54.24 51.76 55.6267 51.76C57.3689 51.76 58.7022 51.1911 59.6267 50.0533C60.5867 48.88 61.0667 47.4044 61.0667 45.6267C61.0667 43.8489 60.5689 42.3733 59.5733 41.2C58.6133 39.9911 57.2267 39.3867 55.4133 39.3867C53.0667 39.3867 51.2 40.5422 49.8133 42.8533L44.2667 40.1333L46.9333 18.9067H67.4133V25.52H53.44L52.3733 33.5733C53.9022 32.9333 55.4844 32.6133 57.12 32.6133Z" fill="#00B12C"/>
</svg>
