<svg width="81" height="80" viewBox="0 0 81 80" fill="none" xmlns="http://www.w3.org/2000/svg">
<path d="M22.5548 51.2267H38.1814V58H11.2481V52.9867L23.0348 39.76C25.0614 37.4844 26.4659 35.7067 27.2481 34.4267C28.0659 33.1111 28.4748 31.76 28.4748 30.3733C28.4748 28.8444 28.0481 27.6178 27.1948 26.6933C26.3414 25.7689 25.1859 25.3067 23.7281 25.3067C22.2348 25.3067 20.9192 25.8578 19.7814 26.96C18.6437 28.0267 17.7725 29.5556 17.1681 31.5467L11.0881 28.0267C12.0125 24.8622 13.6837 22.4444 16.1014 20.7733C18.5192 19.0667 21.3103 18.2133 24.4748 18.2133C26.9637 18.2133 29.1148 18.7289 30.9281 19.76C32.777 20.7556 34.1814 22.1422 35.1414 23.92C36.137 25.6978 36.6348 27.7244 36.6348 30C36.6348 32.24 36.0837 34.3378 34.9814 36.2933C33.9148 38.2133 31.9948 40.72 29.2214 43.8133L22.5548 51.2267ZM58.3727 33.1467C60.7905 33.1467 62.9416 33.68 64.826 34.7467C66.7105 35.7778 68.1682 37.2356 69.1993 39.12C70.2305 41.0044 70.746 43.1556 70.746 45.5733C70.746 48.0978 70.1238 50.3556 68.8794 52.3467C67.6705 54.3378 65.9994 55.8844 63.866 56.9867C61.7682 58.0889 59.4749 58.64 56.986 58.64C54.426 58.64 52.0971 58.0889 49.9993 56.9867C47.9016 55.8489 46.2482 54.2667 45.0393 52.24C43.8305 50.2133 43.226 47.8667 43.226 45.2C43.226 43.2089 43.5993 41.3067 44.346 39.4933C45.0927 37.6444 46.4082 35.2267 48.2927 32.24L56.7194 18.9067H65.0927L57.466 30.64C56.8616 31.6 56.2038 32.56 55.4927 33.52C56.346 33.2711 57.306 33.1467 58.3727 33.1467ZM56.9327 51.7067C58.6038 51.7067 59.9549 51.1556 60.986 50.0533C62.0171 48.9156 62.5327 47.4578 62.5327 45.68C62.5327 43.9022 62.0171 42.4622 60.986 41.36C59.9549 40.2222 58.6038 39.6533 56.9327 39.6533C55.226 39.6533 53.8571 40.2222 52.826 41.36C51.7949 42.4622 51.2793 43.9022 51.2793 45.68C51.2793 47.4933 51.7949 48.9511 52.826 50.0533C53.8927 51.1556 55.2616 51.7067 56.9327 51.7067Z" fill="#00B12C"/>
</svg>
