<svg width="80" height="80" viewBox="0 0 80 80" fill="none" xmlns="http://www.w3.org/2000/svg">
<path d="M21.8888 51.2267H37.5154V58H10.5821V52.9867L22.3688 39.76C24.3954 37.4844 25.7999 35.7067 26.5821 34.4267C27.3999 33.1111 27.8087 31.76 27.8087 30.3733C27.8087 28.8444 27.3821 27.6178 26.5288 26.6933C25.6754 25.7689 24.5199 25.3067 23.0621 25.3067C21.5688 25.3067 20.2532 25.8578 19.1154 26.96C17.9776 28.0267 17.1065 29.5556 16.5021 31.5467L10.4221 28.0267C11.3465 24.8622 13.0176 22.4444 15.4354 20.7733C17.8532 19.0667 20.6443 18.2133 23.8088 18.2133C26.2976 18.2133 28.4488 18.7289 30.2621 19.76C32.111 20.7556 33.5154 22.1422 34.4754 23.92C35.471 25.6978 35.9688 27.7244 35.9688 30C35.9688 32.24 35.4176 34.3378 34.3154 36.2933C33.2488 38.2133 31.3288 40.72 28.5554 43.8133L21.8888 51.2267ZM63.5733 36.7733C65.5289 37.7333 67.0578 39.0667 68.16 40.7733C69.2978 42.4444 69.8667 44.4533 69.8667 46.8C69.8667 49.1111 69.2978 51.1733 68.16 52.9867C67.0578 54.7644 65.4578 56.1511 63.36 57.1467C61.2978 58.1422 58.8978 58.64 56.16 58.64C53.3511 58.64 50.88 58.1422 48.7467 57.1467C46.6489 56.1511 45.0311 54.7644 43.8933 52.9867C42.7556 51.1733 42.1867 49.1111 42.1867 46.8C42.1867 44.4533 42.7556 42.4444 43.8933 40.7733C45.0311 39.0667 46.5956 37.7511 48.5867 36.8267C46.9867 35.9733 45.7422 34.8711 44.8533 33.52C43.9644 32.1333 43.52 30.5511 43.52 28.7733C43.52 26.8533 44.0178 25.0933 45.0133 23.4933C46.0089 21.8578 47.4667 20.5778 49.3867 19.6533C51.3067 18.6933 53.5644 18.2133 56.16 18.2133C58.7556 18.2133 60.96 18.6933 62.7733 19.6533C64.6222 20.5778 66.0089 21.84 66.9333 23.44C67.8933 25.0044 68.3733 26.7822 68.3733 28.7733C68.3733 30.5511 67.9467 32.1333 67.0933 33.52C66.24 34.8711 65.0667 35.9556 63.5733 36.7733ZM56.16 24.6667C54.7733 24.6667 53.6533 25.0933 52.8 25.9467C51.9822 26.8 51.5733 27.8667 51.5733 29.1467C51.5733 30.4267 51.9822 31.4933 52.8 32.3467C53.6533 33.2 54.7733 33.6267 56.16 33.6267C57.5111 33.6267 58.6133 33.2 59.4667 32.3467C60.32 31.4933 60.7467 30.4267 60.7467 29.1467C60.7467 27.9022 60.32 26.8533 59.4667 26C58.6133 25.1111 57.5111 24.6667 56.16 24.6667ZM56.16 51.76C57.7956 51.76 59.1289 51.2622 60.16 50.2667C61.1911 49.2356 61.7067 47.8489 61.7067 46.1067C61.7067 44.3289 61.1911 42.9067 60.16 41.84C59.1644 40.7733 57.8311 40.24 56.16 40.24C54.4178 40.24 53.0311 40.7733 52 41.84C50.9689 42.9067 50.4533 44.3289 50.4533 46.1067C50.4533 47.8489 50.9689 49.2356 52 50.2667C53.0667 51.2622 54.4533 51.76 56.16 51.76Z" fill="#00B12C"/>
</svg>
