<svg width="81" height="80" viewBox="0 0 81 80" fill="none" xmlns="http://www.w3.org/2000/svg">
<path d="M22.5548 51.2267H38.1814V58H11.2481V52.9867L23.0348 39.76C25.0614 37.4844 26.4659 35.7067 27.2481 34.4267C28.0659 33.1111 28.4748 31.76 28.4748 30.3733C28.4748 28.8444 28.0481 27.6178 27.1948 26.6933C26.3414 25.7689 25.1859 25.3067 23.7281 25.3067C22.2348 25.3067 20.9192 25.8578 19.7814 26.96C18.6437 28.0267 17.7725 29.5556 17.1681 31.5467L11.0881 28.0267C12.0125 24.8622 13.6837 22.4444 16.1014 20.7733C18.5192 19.0667 21.3103 18.2133 24.4748 18.2133C26.9637 18.2133 29.1148 18.7289 30.9281 19.76C32.777 20.7556 34.1814 22.1422 35.1414 23.92C36.137 25.6978 36.6348 27.7244 36.6348 30C36.6348 32.24 36.0837 34.3378 34.9814 36.2933C33.9148 38.2133 31.9948 40.72 29.2214 43.8133L22.5548 51.2267ZM56.4527 18.2133C59.0127 18.2133 61.3416 18.7822 63.4393 19.92C65.5371 21.0222 67.1905 22.5867 68.3994 24.6133C69.6082 26.64 70.2127 28.9867 70.2127 31.6533C70.2127 33.6444 69.8393 35.5644 69.0927 37.4133C68.346 39.2267 67.0305 41.6267 65.146 44.6133L56.7194 57.9467H48.346L55.9727 46.2133C56.5771 45.2533 57.2349 44.2933 57.946 43.3333C57.0927 43.5822 56.1327 43.7067 55.066 43.7067C52.6482 43.7067 50.4971 43.1911 48.6127 42.16C46.7282 41.0933 45.2527 39.6178 44.186 37.7333C43.1549 35.8489 42.6393 33.6978 42.6393 31.28C42.6393 28.7556 43.2616 26.4978 44.506 24.5067C45.7505 22.5156 47.4216 20.9689 49.5193 19.8667C51.6527 18.7644 53.9638 18.2133 56.4527 18.2133ZM56.506 37.2C58.2127 37.2 59.5816 36.6489 60.6127 35.5467C61.6438 34.4089 62.1593 32.9511 62.1593 31.1733C62.1593 29.36 61.626 27.9022 60.5593 26.8C59.5282 25.6978 58.1771 25.1467 56.506 25.1467C54.8349 25.1467 53.4838 25.7156 52.4527 26.8533C51.4216 27.9556 50.906 29.3956 50.906 31.1733C50.906 32.9511 51.4216 34.4089 52.4527 35.5467C53.4838 36.6489 54.8349 37.2 56.506 37.2Z" fill="#00B12C"/>
</svg>
