<svg width="81" height="80" viewBox="0 0 81 80" fill="none" xmlns="http://www.w3.org/2000/svg">
<path d="M30.8608 37.6267C33.0297 38.4444 34.683 39.6533 35.8208 41.2533C36.9586 42.8178 37.5274 44.7733 37.5274 47.12C37.5274 49.5378 36.9052 51.6178 35.6608 53.36C34.4519 55.0667 32.7986 56.3822 30.7008 57.3067C28.6386 58.1956 26.3452 58.64 23.8208 58.64C20.5852 58.64 17.7586 57.8756 15.3408 56.3467C12.9586 54.8178 11.2697 52.5956 10.2741 49.68L16.4074 46.16C16.9763 48.0089 17.9186 49.4133 19.2341 50.3733C20.5497 51.2978 22.0252 51.76 23.6608 51.76C25.2608 51.76 26.5941 51.2978 27.6608 50.3733C28.763 49.4489 29.3141 48.1689 29.3141 46.5333C29.3141 42.9422 26.5763 41.1467 21.1008 41.1467H19.6608V34.7467H21.7408C23.7674 34.7467 25.3141 34.2667 26.3808 33.3067C27.483 32.3111 28.0341 31.0844 28.0341 29.6267C28.0341 28.2756 27.5897 27.1911 26.7008 26.3733C25.8119 25.5556 24.6563 25.1467 23.2341 25.1467C21.7052 25.1467 20.3719 25.6444 19.2341 26.64C18.1319 27.6 17.2786 28.9867 16.6741 30.8L10.8074 27.44C11.7319 24.4533 13.3497 22.1778 15.6608 20.6133C17.9719 19.0133 20.7097 18.2133 23.8741 18.2133C26.3274 18.2133 28.4786 18.6756 30.3274 19.6C32.2119 20.4889 33.6697 21.7511 34.7008 23.3867C35.7319 25.0222 36.2474 26.9067 36.2474 29.04C36.2474 31.0311 35.7852 32.7556 34.8608 34.2133C33.9719 35.6711 32.6386 36.8089 30.8608 37.6267ZM70.1454 38.48C70.1454 45.0578 68.9543 50.0711 66.572 53.52C64.1898 56.9333 60.7943 58.64 56.3854 58.64C51.9765 58.64 48.5631 56.9333 46.1454 53.52C43.7631 50.0711 42.572 45.0578 42.572 38.48C42.572 31.8667 43.7631 26.8356 46.1454 23.3867C48.5631 19.9378 51.9765 18.2133 56.3854 18.2133C60.7943 18.2133 64.1898 19.9378 66.572 23.3867C68.9543 26.8356 70.1454 31.8667 70.1454 38.48ZM50.7854 38.48C50.7854 42.8889 51.2298 46.1778 52.1187 48.3467C53.0431 50.48 54.4654 51.5467 56.3854 51.5467C58.3054 51.5467 59.7098 50.48 60.5987 48.3467C61.4876 46.1778 61.932 42.8889 61.932 38.48C61.932 34.0356 61.4876 30.7289 60.5987 28.56C59.7098 26.3911 58.3054 25.3067 56.3854 25.3067C54.4654 25.3067 53.0431 26.3911 52.1187 28.56C51.2298 30.6933 50.7854 34 50.7854 38.48Z" fill="#00B12C"/>
</svg>
