<svg width="81" height="80" viewBox="0 0 81 80" fill="none" xmlns="http://www.w3.org/2000/svg">
<path d="M31.1948 37.6267C33.3637 38.4444 35.017 39.6533 36.1548 41.2533C37.2925 42.8178 37.8614 44.7733 37.8614 47.12C37.8614 49.5378 37.2392 51.6178 35.9948 53.36C34.7859 55.0667 33.1325 56.3822 31.0348 57.3067C28.9725 58.1956 26.6792 58.64 24.1548 58.64C20.9192 58.64 18.0925 57.8756 15.6748 56.3467C13.2925 54.8178 11.6037 52.5956 10.6081 49.68L16.7414 46.16C17.3103 48.0089 18.2525 49.4133 19.5681 50.3733C20.8837 51.2978 22.3592 51.76 23.9948 51.76C25.5948 51.76 26.9281 51.2978 27.9948 50.3733C29.097 49.4489 29.6481 48.1689 29.6481 46.5333C29.6481 42.9422 26.9103 41.1467 21.4348 41.1467H19.9948V34.7467H22.0748C24.1014 34.7467 25.6481 34.2667 26.7148 33.3067C27.817 32.3111 28.3681 31.0844 28.3681 29.6267C28.3681 28.2756 27.9237 27.1911 27.0348 26.3733C26.1459 25.5556 24.9903 25.1467 23.5681 25.1467C22.0392 25.1467 20.7059 25.6444 19.5681 26.64C18.4659 27.6 17.6125 28.9867 17.0081 30.8L11.1414 27.44C12.0659 24.4533 13.6837 22.1778 15.9948 20.6133C18.3059 19.0133 21.0437 18.2133 24.2081 18.2133C26.6614 18.2133 28.8125 18.6756 30.6614 19.6C32.5459 20.4889 34.0037 21.7511 35.0348 23.3867C36.0659 25.0222 36.5814 26.9067 36.5814 29.04C36.5814 31.0311 36.1192 32.7556 35.1948 34.2133C34.3059 35.6711 32.9725 36.8089 31.1948 37.6267ZM54.586 51.2267H70.2127V58H43.2793V52.9867L55.066 39.76C57.0927 37.4844 58.4971 35.7067 59.2793 34.4267C60.0971 33.1111 60.506 31.76 60.506 30.3733C60.506 28.8444 60.0793 27.6178 59.226 26.6933C58.3727 25.7689 57.2171 25.3067 55.7593 25.3067C54.266 25.3067 52.9505 25.8578 51.8127 26.96C50.6749 28.0267 49.8038 29.5556 49.1993 31.5467L43.1193 28.0267C44.0438 24.8622 45.7149 22.4444 48.1327 20.7733C50.5505 19.0667 53.3416 18.2133 56.506 18.2133C58.9949 18.2133 61.146 18.7289 62.9593 19.76C64.8082 20.7556 66.2127 22.1422 67.1727 23.92C68.1682 25.6978 68.666 27.7244 68.666 30C68.666 32.24 68.1149 34.3378 67.0127 36.2933C65.946 38.2133 64.026 40.72 61.2527 43.8133L54.586 51.2267Z" fill="#00B12C"/>
</svg>
