<svg width="81" height="80" viewBox="0 0 81 80" fill="none" xmlns="http://www.w3.org/2000/svg">
<path d="M30.8608 37.6267C33.0297 38.4444 34.683 39.6533 35.8208 41.2533C36.9586 42.8178 37.5274 44.7733 37.5274 47.12C37.5274 49.5378 36.9052 51.6178 35.6608 53.36C34.4519 55.0667 32.7986 56.3822 30.7008 57.3067C28.6386 58.1956 26.3452 58.64 23.8208 58.64C20.5852 58.64 17.7586 57.8756 15.3408 56.3467C12.9586 54.8178 11.2697 52.5956 10.2741 49.68L16.4074 46.16C16.9763 48.0089 17.9186 49.4133 19.2341 50.3733C20.5497 51.2978 22.0252 51.76 23.6608 51.76C25.2608 51.76 26.5941 51.2978 27.6608 50.3733C28.763 49.4489 29.3141 48.1689 29.3141 46.5333C29.3141 42.9422 26.5763 41.1467 21.1008 41.1467H19.6608V34.7467H21.7408C23.7674 34.7467 25.3141 34.2667 26.3808 33.3067C27.483 32.3111 28.0341 31.0844 28.0341 29.6267C28.0341 28.2756 27.5897 27.1911 26.7008 26.3733C25.8119 25.5556 24.6563 25.1467 23.2341 25.1467C21.7052 25.1467 20.3719 25.6444 19.2341 26.64C18.1319 27.6 17.2786 28.9867 16.6741 30.8L10.8074 27.44C11.7319 24.4533 13.3497 22.1778 15.6608 20.6133C17.9719 19.0133 20.7097 18.2133 23.8741 18.2133C26.3274 18.2133 28.4786 18.6756 30.3274 19.6C32.2119 20.4889 33.6697 21.7511 34.7008 23.3867C35.7319 25.0222 36.2474 26.9067 36.2474 29.04C36.2474 31.0311 35.7852 32.7556 34.8608 34.2133C33.9719 35.6711 32.6386 36.8089 30.8608 37.6267ZM62.892 37.6267C65.0609 38.4444 66.7143 39.6533 67.852 41.2533C68.9898 42.8178 69.5587 44.7733 69.5587 47.12C69.5587 49.5378 68.9365 51.6178 67.692 53.36C66.4831 55.0667 64.8298 56.3822 62.732 57.3067C60.6698 58.1956 58.3765 58.64 55.852 58.64C52.6165 58.64 49.7898 57.8756 47.372 56.3467C44.9898 54.8178 43.3009 52.5956 42.3054 49.68L48.4387 46.16C49.0076 48.0089 49.9498 49.4133 51.2654 50.3733C52.5809 51.2978 54.0565 51.76 55.692 51.76C57.292 51.76 58.6254 51.2978 59.692 50.3733C60.7943 49.4489 61.3454 48.1689 61.3454 46.5333C61.3454 42.9422 58.6076 41.1467 53.132 41.1467H51.692V34.7467H53.772C55.7987 34.7467 57.3454 34.2667 58.412 33.3067C59.5143 32.3111 60.0654 31.0844 60.0654 29.6267C60.0654 28.2756 59.6209 27.1911 58.732 26.3733C57.8431 25.5556 56.6876 25.1467 55.2654 25.1467C53.7365 25.1467 52.4031 25.6444 51.2654 26.64C50.1631 27.6 49.3098 28.9867 48.7054 30.8L42.8387 27.44C43.7631 24.4533 45.3809 22.1778 47.692 20.6133C50.0031 19.0133 52.7409 18.2133 55.9054 18.2133C58.3587 18.2133 60.5098 18.6756 62.3587 19.6C64.2431 20.4889 65.7009 21.7511 66.732 23.3867C67.7631 25.0222 68.2787 26.9067 68.2787 29.04C68.2787 31.0311 67.8165 32.7556 66.892 34.2133C66.0031 35.6711 64.6698 36.8089 62.892 37.6267Z" fill="#00B12C"/>
</svg>
