<svg width="80" height="80" viewBox="0 0 80 80" fill="none" xmlns="http://www.w3.org/2000/svg">
<path d="M30.5287 37.6267C32.6976 38.4444 34.351 39.6533 35.4888 41.2533C36.6265 42.8178 37.1954 44.7733 37.1954 47.12C37.1954 49.5378 36.5732 51.6178 35.3287 53.36C34.1199 55.0667 32.4665 56.3822 30.3688 57.3067C28.3065 58.1956 26.0132 58.64 23.4888 58.64C20.2532 58.64 17.4265 57.8756 15.0087 56.3467C12.6265 54.8178 10.9376 52.5956 9.94208 49.68L16.0754 46.16C16.6443 48.0089 17.5865 49.4133 18.9021 50.3733C20.2176 51.2978 21.6932 51.76 23.3288 51.76C24.9288 51.76 26.2621 51.2978 27.3287 50.3733C28.431 49.4489 28.9821 48.1689 28.9821 46.5333C28.9821 42.9422 26.2443 41.1467 20.7688 41.1467H19.3288V34.7467H21.4087C23.4354 34.7467 24.9821 34.2667 26.0488 33.3067C27.151 32.3111 27.7021 31.0844 27.7021 29.6267C27.7021 28.2756 27.2576 27.1911 26.3688 26.3733C25.4799 25.5556 24.3243 25.1467 22.9021 25.1467C21.3732 25.1467 20.0399 25.6444 18.9021 26.64C17.7999 27.6 16.9465 28.9867 16.3421 30.8L10.4754 27.44C11.3999 24.4533 13.0176 22.1778 15.3288 20.6133C17.6399 19.0133 20.3776 18.2133 23.5421 18.2133C25.9954 18.2133 28.1465 18.6756 29.9954 19.6C31.8799 20.4889 33.3376 21.7511 34.3688 23.3867C35.3999 25.0222 35.9154 26.9067 35.9154 29.04C35.9154 31.0311 35.4532 32.7556 34.5288 34.2133C33.6399 35.6711 32.3065 36.8089 30.5287 37.6267ZM66.1867 34.32V43.44H71.4667V50.0533H66.1867V58H58.6133V50.0533H41.8667V44.7733L55.3067 18.9067H63.4133L50.56 43.44H58.6133V34.32H66.1867Z" fill="#00B12C"/>
</svg>
