<svg width="81" height="80" viewBox="0 0 81 80" fill="none" xmlns="http://www.w3.org/2000/svg">
<path d="M31.1948 37.6267C33.3637 38.4444 35.017 39.6533 36.1548 41.2533C37.2925 42.8178 37.8614 44.7733 37.8614 47.12C37.8614 49.5378 37.2392 51.6178 35.9948 53.36C34.7859 55.0667 33.1325 56.3822 31.0348 57.3067C28.9725 58.1956 26.6792 58.64 24.1548 58.64C20.9192 58.64 18.0925 57.8756 15.6748 56.3467C13.2925 54.8178 11.6037 52.5956 10.6081 49.68L16.7414 46.16C17.3103 48.0089 18.2525 49.4133 19.5681 50.3733C20.8837 51.2978 22.3592 51.76 23.9948 51.76C25.5948 51.76 26.9281 51.2978 27.9948 50.3733C29.097 49.4489 29.6481 48.1689 29.6481 46.5333C29.6481 42.9422 26.9103 41.1467 21.4348 41.1467H19.9948V34.7467H22.0748C24.1014 34.7467 25.6481 34.2667 26.7148 33.3067C27.817 32.3111 28.3681 31.0844 28.3681 29.6267C28.3681 28.2756 27.9237 27.1911 27.0348 26.3733C26.1459 25.5556 24.9903 25.1467 23.5681 25.1467C22.0392 25.1467 20.7059 25.6444 19.5681 26.64C18.4659 27.6 17.6125 28.9867 17.0081 30.8L11.1414 27.44C12.0659 24.4533 13.6837 22.1778 15.9948 20.6133C18.3059 19.0133 21.0437 18.2133 24.2081 18.2133C26.6614 18.2133 28.8125 18.6756 30.6614 19.6C32.5459 20.4889 34.0037 21.7511 35.0348 23.3867C36.0659 25.0222 36.5814 26.9067 36.5814 29.04C36.5814 31.0311 36.1192 32.7556 35.1948 34.2133C34.3059 35.6711 32.9725 36.8089 31.1948 37.6267ZM57.786 32.6133C60.026 32.6133 62.0705 33.1467 63.9193 34.2133C65.7682 35.2444 67.226 36.7378 68.2927 38.6933C69.3593 40.6133 69.8927 42.8356 69.8927 45.36C69.8927 48.0978 69.2882 50.48 68.0793 52.5067C66.906 54.4978 65.2882 56.0267 63.226 57.0933C61.1638 58.1244 58.8882 58.64 56.3993 58.64C53.4482 58.64 50.8882 57.9644 48.7193 56.6133C46.586 55.2622 45.0749 53.2178 44.186 50.48L50.426 46.9067C50.8882 48.5067 51.6349 49.7156 52.666 50.5333C53.6971 51.3511 54.906 51.76 56.2927 51.76C58.0349 51.76 59.3682 51.1911 60.2927 50.0533C61.2527 48.88 61.7327 47.4044 61.7327 45.6267C61.7327 43.8489 61.2349 42.3733 60.2393 41.2C59.2793 39.9911 57.8927 39.3867 56.0793 39.3867C53.7327 39.3867 51.866 40.5422 50.4793 42.8533L44.9327 40.1333L47.5993 18.9067H68.0793V25.52H54.106L53.0393 33.5733C54.5682 32.9333 56.1505 32.6133 57.786 32.6133Z" fill="#00B12C"/>
</svg>
