<svg width="81" height="80" viewBox="0 0 81 80" fill="none" xmlns="http://www.w3.org/2000/svg">
<path d="M30.8608 37.6267C33.0297 38.4444 34.683 39.6533 35.8208 41.2533C36.9586 42.8178 37.5274 44.7733 37.5274 47.12C37.5274 49.5378 36.9052 51.6178 35.6608 53.36C34.4519 55.0667 32.7986 56.3822 30.7008 57.3067C28.6386 58.1956 26.3452 58.64 23.8208 58.64C20.5852 58.64 17.7586 57.8756 15.3408 56.3467C12.9586 54.8178 11.2697 52.5956 10.2741 49.68L16.4074 46.16C16.9763 48.0089 17.9186 49.4133 19.2341 50.3733C20.5497 51.2978 22.0252 51.76 23.6608 51.76C25.2608 51.76 26.5941 51.2978 27.6608 50.3733C28.763 49.4489 29.3141 48.1689 29.3141 46.5333C29.3141 42.9422 26.5763 41.1467 21.1008 41.1467H19.6608V34.7467H21.7408C23.7674 34.7467 25.3141 34.2667 26.3808 33.3067C27.483 32.3111 28.0341 31.0844 28.0341 29.6267C28.0341 28.2756 27.5897 27.1911 26.7008 26.3733C25.8119 25.5556 24.6563 25.1467 23.2341 25.1467C21.7052 25.1467 20.3719 25.6444 19.2341 26.64C18.1319 27.6 17.2786 28.9867 16.6741 30.8L10.8074 27.44C11.7319 24.4533 13.3497 22.1778 15.6608 20.6133C17.9719 19.0133 20.7097 18.2133 23.8741 18.2133C26.3274 18.2133 28.4786 18.6756 30.3274 19.6C32.2119 20.4889 33.6697 21.7511 34.7008 23.3867C35.7319 25.0222 36.2474 26.9067 36.2474 29.04C36.2474 31.0311 35.7852 32.7556 34.8608 34.2133C33.9719 35.6711 32.6386 36.8089 30.8608 37.6267ZM58.0387 33.1467C60.4565 33.1467 62.6076 33.68 64.492 34.7467C66.3765 35.7778 67.8343 37.2356 68.8654 39.12C69.8965 41.0044 70.412 43.1556 70.412 45.5733C70.412 48.0978 69.7898 50.3556 68.5454 52.3467C67.3365 54.3378 65.6654 55.8844 63.532 56.9867C61.4343 58.0889 59.1409 58.64 56.652 58.64C54.092 58.64 51.7631 58.0889 49.6654 56.9867C47.5676 55.8489 45.9143 54.2667 44.7054 52.24C43.4965 50.2133 42.892 47.8667 42.892 45.2C42.892 43.2089 43.2654 41.3067 44.012 39.4933C44.7587 37.6444 46.0743 35.2267 47.9587 32.24L56.3854 18.9067H64.7587L57.132 30.64C56.5276 31.6 55.8698 32.56 55.1587 33.52C56.012 33.2711 56.972 33.1467 58.0387 33.1467ZM56.5987 51.7067C58.2698 51.7067 59.6209 51.1556 60.652 50.0533C61.6831 48.9156 62.1987 47.4578 62.1987 45.68C62.1987 43.9022 61.6831 42.4622 60.652 41.36C59.6209 40.2222 58.2698 39.6533 56.5987 39.6533C54.892 39.6533 53.5231 40.2222 52.492 41.36C51.4609 42.4622 50.9454 43.9022 50.9454 45.68C50.9454 47.4933 51.4609 48.9511 52.492 50.0533C53.5587 51.1556 54.9276 51.7067 56.5987 51.7067Z" fill="#00B12C"/>
</svg>
