<svg width="20" height="20" viewBox="0 0 20 20" fill="none" xmlns="http://www.w3.org/2000/svg">
<path d="M13.9146 14.2915C14.3056 14.2915 14.6233 14.6085 14.6235 14.9995C14.6235 15.3907 14.3058 15.7085 13.9146 15.7085H2.49951C2.1085 15.7083 1.7915 15.3906 1.7915 14.9995C1.79172 14.6086 2.10863 14.2917 2.49951 14.2915H13.9146ZM7.9165 9.2915C8.30757 9.2915 8.6243 9.60849 8.62451 9.99951C8.62451 10.3907 8.30771 10.7085 7.9165 10.7085H2.49951C2.1085 10.7083 1.7915 10.3906 1.7915 9.99951C1.79172 9.60863 2.10863 9.29172 2.49951 9.2915H7.9165ZM17.4995 4.2915C17.8906 4.2915 18.2083 4.60849 18.2085 4.99951C18.2085 5.39071 17.8907 5.7085 17.4995 5.7085H2.49951C2.1085 5.70828 1.7915 5.39058 1.7915 4.99951C1.79172 4.60863 2.10863 4.29172 2.49951 4.2915H17.4995Z" fill="#00AE42"/>
</svg>
