<svg width="36" height="36" viewBox="0 0 36 36" fill="none" xmlns="http://www.w3.org/2000/svg">
<rect width="36" height="36" rx="4" fill="#F4F4F4"/>
<path d="M10.6611 9.89136C11.0522 9.89153 11.3691 10.2092 11.3691 10.6003V25.4001C11.3691 25.7912 11.0522 26.109 10.6611 26.1091C10.2699 26.1091 9.95215 25.7913 9.95215 25.4001V10.6003C9.95215 10.2091 10.2699 9.89136 10.6611 9.89136ZM25.2139 18.9626C25.674 18.9627 26.0467 19.3356 26.0469 19.7957V24.5671C26.0468 25.0273 25.674 25.4001 25.2139 25.4001H14.0205C13.5603 25.4001 13.1876 25.0273 13.1875 24.5671V19.7957C13.1876 19.3355 13.5604 18.9626 14.0205 18.9626H25.2139ZM14.6035 23.9832H24.6309V20.3796H14.6035V23.9832ZM19.4678 10.6003C19.928 10.6003 20.3018 10.9731 20.3018 11.4333V15.9617C20.3018 16.4219 19.928 16.7947 19.4678 16.7947H14.0205C13.5603 16.7947 13.1875 16.4219 13.1875 15.9617V11.4333C13.1875 10.9731 13.5603 10.6003 14.0205 10.6003H19.4678ZM14.6035 15.3787H18.8848V12.0164H14.6035V15.3787Z" fill="#808080"/>
</svg>
