<svg width="36" height="36" viewBox="0 0 36 36" fill="none" xmlns="http://www.w3.org/2000/svg">
<rect width="36" height="36" rx="4" fill="#3E3E46"/>
<path d="M24.9834 20.6997C24.9877 20.7019 24.9918 20.7053 24.9961 20.7075C25.0219 20.7211 25.0462 20.7377 25.0703 20.7544C25.0843 20.7641 25.0992 20.7731 25.1123 20.7837C25.1334 20.8008 25.1526 20.8206 25.1719 20.8403C25.1856 20.8544 25.1996 20.8683 25.2119 20.8833C25.2277 20.9025 25.241 20.9238 25.2549 20.9448C25.2662 20.962 25.2784 20.9786 25.2881 20.9966C25.2918 21.0033 25.2973 21.0092 25.3008 21.0161C25.3085 21.0317 25.3128 21.0491 25.3193 21.0649C25.328 21.0861 25.3362 21.1075 25.3428 21.1294C25.3498 21.1527 25.3548 21.1762 25.3594 21.1997C25.3634 21.2204 25.367 21.2412 25.3691 21.2622C25.3715 21.2857 25.3721 21.3091 25.3721 21.3325C25.3721 21.356 25.3715 21.3793 25.3691 21.4028C25.367 21.4242 25.3634 21.4452 25.3594 21.4663C25.3548 21.4902 25.3499 21.514 25.3428 21.5376C25.3363 21.5589 25.3278 21.5795 25.3193 21.6001C25.3127 21.6163 25.3087 21.634 25.3008 21.6499C25.2979 21.6557 25.2931 21.6608 25.29 21.6665C25.2787 21.6877 25.2644 21.7071 25.251 21.7271C25.2385 21.7456 25.2268 21.7647 25.2129 21.7817C25.1984 21.7995 25.1814 21.8152 25.165 21.8315C25.1487 21.8479 25.1329 21.8649 25.1152 21.8794C25.0962 21.895 25.0746 21.9077 25.0537 21.9214C25.0366 21.9326 25.0199 21.9449 25.002 21.9546C24.9956 21.958 24.9899 21.9639 24.9834 21.9673L18.6895 25.1138C18.2557 25.3305 17.7443 25.3304 17.3105 25.1138L11.0166 21.9673C11.0108 21.9644 11.0056 21.9596 11 21.9565C10.977 21.9443 10.9552 21.9294 10.9336 21.9146C10.9178 21.9037 10.9014 21.8933 10.8867 21.8813C10.8656 21.8642 10.8463 21.8445 10.8271 21.8247C10.8134 21.8105 10.7986 21.7969 10.7861 21.7817C10.7722 21.7647 10.7605 21.7456 10.748 21.7271C10.7346 21.7071 10.7203 21.6876 10.709 21.6665C10.706 21.6609 10.7021 21.6556 10.6992 21.6499C10.6912 21.6339 10.6863 21.6164 10.6797 21.6001C10.6713 21.5795 10.6627 21.5589 10.6562 21.5376C10.6491 21.514 10.6442 21.4901 10.6396 21.4663C10.6356 21.4453 10.632 21.4242 10.6299 21.4028C10.6276 21.3793 10.6269 21.356 10.627 21.3325C10.6269 21.3091 10.6275 21.2857 10.6299 21.2622C10.632 21.2411 10.6356 21.2204 10.6396 21.1997C10.6442 21.1762 10.6492 21.1527 10.6562 21.1294C10.6629 21.1075 10.671 21.0861 10.6797 21.0649C10.6862 21.049 10.6914 21.0318 10.6992 21.0161C10.7026 21.0094 10.7074 21.0032 10.7109 20.9966C10.7207 20.9786 10.7329 20.962 10.7441 20.9448C10.7579 20.9239 10.7705 20.9023 10.7861 20.8833C10.789 20.8798 10.792 20.876 10.7949 20.8726L10.873 20.7944C10.8765 20.7915 10.8803 20.7885 10.8838 20.7856C10.901 20.7716 10.9207 20.7601 10.9395 20.7476C10.9596 20.734 10.9796 20.7198 11.001 20.7085C11.0061 20.7057 11.0114 20.7023 11.0166 20.6997L15.4629 18.4761L16.5186 19.5317L12.918 21.3325L17.9443 23.8472C17.9794 23.8644 18.0217 23.8646 18.0566 23.8472L23.0811 21.3325L19.4795 19.5317L20.5361 18.4761L24.9834 20.6997Z" fill="#E9E9E9"/>
<path d="M18 10.6255C18.3912 10.6255 18.708 10.9423 18.708 11.3335V17.1226L19.166 16.6655C19.4426 16.3892 19.8914 16.3892 20.168 16.6655C20.4444 16.9421 20.4443 17.3909 20.168 17.6675L18.6191 19.2163C18.2775 19.5578 17.7235 19.5578 17.3818 19.2163L15.833 17.6675C15.5564 17.3909 15.5564 16.9421 15.833 16.6655C16.1097 16.3892 16.5584 16.389 16.835 16.6655L17.292 17.1226V11.3335C17.292 10.9424 17.6089 10.6256 18 10.6255Z" fill="#E9E9E9"/>
</svg>
