<svg width="36" height="36" viewBox="0 0 36 36" fill="none" xmlns="http://www.w3.org/2000/svg">
<path d="M0 8C0 3.58172 3.58172 0 8 0H32C34.2091 0 36 1.79086 36 4V32C36 34.2091 34.2091 36 32 36H8C3.58172 36 0 32.4183 0 28V8Z" fill="#3E3E46"/>
<path d="M10.6611 9.89111C11.0522 9.89129 11.3691 10.209 11.3691 10.6001V25.3999C11.3691 25.791 11.0522 26.1087 10.6611 26.1089C10.2699 26.1089 9.95215 25.7911 9.95215 25.3999V10.6001C9.95215 10.2089 10.2699 9.89111 10.6611 9.89111ZM25.2139 18.9624C25.674 18.9624 26.0467 19.3353 26.0469 19.7954V24.5669C26.0468 25.027 25.674 25.3999 25.2139 25.3999H14.0205C13.5603 25.3999 13.1876 25.0271 13.1875 24.5669V19.7954C13.1876 19.3353 13.5604 18.9624 14.0205 18.9624H25.2139ZM14.6035 23.9829H24.6309V20.3794H14.6035V23.9829ZM19.4678 10.6001C19.928 10.6001 20.3018 10.9729 20.3018 11.4331V15.9614C20.3018 16.4217 19.928 16.7944 19.4678 16.7944H14.0205C13.5603 16.7944 13.1875 16.4217 13.1875 15.9614V11.4331C13.1875 10.9729 13.5603 10.6001 14.0205 10.6001H19.4678ZM14.6035 15.3784H18.8848V12.0161H14.6035V15.3784Z" fill="#E9E9E9"/>
</svg>
