<svg width="36" height="36" viewBox="0 0 36 36" fill="none" xmlns="http://www.w3.org/2000/svg">
<rect width="36" height="36" rx="4" fill="#F4F4F4"/>
<path d="M18 8.47925C18.391 8.47942 18.7079 8.79624 18.708 9.18726V10.9539H22.1826C22.6427 10.9539 23.0164 11.3268 23.0166 11.7869V16.3152C23.0166 16.7754 22.6429 17.1492 22.1826 17.1492H18.708V19.3162H24.459C24.9192 19.3162 25.293 19.6899 25.293 20.1501V24.9207C25.293 25.3809 24.9192 25.7537 24.459 25.7537H18.708V26.8123C18.708 27.2033 18.3911 27.5211 18 27.5212C17.6088 27.5212 17.291 27.2035 17.291 26.8123V25.7537H11.541C11.0808 25.7537 10.707 25.3809 10.707 24.9207V20.1501C10.707 19.6899 11.0808 19.3162 11.541 19.3162H17.291V17.1492H14.041C13.5809 17.1491 13.208 16.7754 13.208 16.3152V11.7869C13.2082 11.3268 13.581 10.954 14.041 10.9539H17.291V9.18726C17.2911 8.79613 17.6089 8.47925 18 8.47925ZM12.124 24.3376H23.876V20.7332H12.124V24.3376ZM14.625 15.7322H21.5996V12.3708H14.625V15.7322Z" fill="#808080"/>
</svg>
