<svg width="36" height="36" viewBox="0 0 36 36" fill="none" xmlns="http://www.w3.org/2000/svg">
<rect width="36" height="36" rx="4" fill="#F4F4F4"/>
<path d="M26.1094 10.6614C26.1094 11.0525 25.7924 11.3692 25.4014 11.3694L10.6006 11.3694C10.2094 11.3694 9.89258 11.0526 9.89258 10.6614C9.89258 10.2702 10.2094 9.95337 10.6006 9.95337L25.4014 9.95337C25.7924 9.95355 26.1094 10.2703 26.1094 10.6614ZM17.0381 25.2151C17.0378 25.6751 16.6652 26.0481 16.2051 26.0481L11.4336 26.0481C10.9737 26.0479 10.6008 25.675 10.6006 25.2151L10.6006 14.0217C10.6006 13.5616 10.9735 13.188 11.4336 13.1877L16.2051 13.1877C16.6653 13.1877 17.0381 13.5615 17.0381 14.0217L17.0381 25.2151ZM12.0176 14.6047L12.0176 24.6311L15.6221 24.6311L15.6221 14.6047L12.0176 14.6047ZM25.4014 19.469C25.4014 19.9292 25.0276 20.302 24.5674 20.302L20.0391 20.302C19.5789 20.3019 19.2061 19.9291 19.2061 19.469L19.2061 14.0217C19.2061 13.5616 19.5789 13.1879 20.0391 13.1877L24.5674 13.1877C25.0276 13.1877 25.4014 13.5615 25.4014 14.0217L25.4014 19.469ZM20.623 14.6047L20.623 18.886L23.9844 18.886L23.9844 14.6047L20.623 14.6047Z" fill="#808080"/>
</svg>
