<svg width="36" height="36" viewBox="0 0 36 36" fill="none" xmlns="http://www.w3.org/2000/svg">
<rect width="36" height="36" rx="4" fill="#3E3E46"/>
<path d="M18 18.2617C17.6088 18.2617 17.292 17.9449 17.292 17.5537L17.292 13.1465L16.834 13.6035C16.5574 13.8801 16.1087 13.8799 15.832 13.6035C15.5554 13.3269 15.5554 12.8782 15.832 12.6016L17.3809 11.0527C17.7226 10.7116 18.2767 10.7112 18.6182 11.0527L20.167 12.6016C20.4434 12.878 20.4432 13.3269 20.167 13.6035C19.8904 13.8801 19.4417 13.8801 19.165 13.6035L18.708 13.1465L18.708 17.5537C18.708 17.9448 18.391 18.2616 18 18.2617Z" fill="#E9E9E9"/>
<path d="M24.9834 17.1431C24.9873 17.1451 24.9912 17.1488 24.9951 17.1509C25.0233 17.1656 25.0501 17.1831 25.0762 17.2017C25.0878 17.2099 25.1003 17.2172 25.1113 17.2261C25.1349 17.2451 25.1556 17.2674 25.1768 17.2896C25.1879 17.3012 25.1997 17.3123 25.21 17.3247C25.2294 17.3481 25.2461 17.3736 25.2627 17.3999C25.2708 17.4127 25.2799 17.4247 25.2871 17.438C25.2911 17.4454 25.297 17.4519 25.3008 17.4595C25.31 17.478 25.3148 17.4982 25.3223 17.5171C25.3292 17.5345 25.3363 17.5519 25.3418 17.5698C25.3494 17.5947 25.3546 17.6199 25.3594 17.645C25.3631 17.6648 25.367 17.6845 25.3691 17.7046C25.3715 17.7284 25.3721 17.7522 25.3721 17.7759C25.3721 17.7996 25.3715 17.8234 25.3691 17.8472C25.3671 17.8675 25.3632 17.8877 25.3594 17.9077C25.3548 17.9318 25.3499 17.9562 25.3428 17.98C25.3354 18.0043 25.3254 18.0279 25.3154 18.0513C25.3097 18.0648 25.3064 18.0799 25.2998 18.0933C25.2974 18.098 25.2926 18.1023 25.29 18.1069C25.2786 18.1286 25.2647 18.149 25.251 18.1694C25.2384 18.1882 25.2269 18.2079 25.2129 18.2251C25.1997 18.2411 25.1836 18.2551 25.1689 18.27C25.1503 18.289 25.1317 18.3081 25.1113 18.3247C25.0986 18.335 25.0839 18.3436 25.0703 18.353C25.0464 18.3698 25.0227 18.3873 24.9971 18.4009C24.9925 18.4033 24.988 18.4072 24.9834 18.4097L18.6895 21.5571C18.2557 21.7739 17.7444 21.7738 17.3105 21.5571L11.0166 18.4097C11.0123 18.4075 11.0081 18.4041 11.0039 18.4019C10.9755 18.387 10.9491 18.3688 10.9229 18.3501C10.911 18.3417 10.8989 18.3337 10.8877 18.3247C10.8672 18.3081 10.8488 18.2891 10.8301 18.27C10.8153 18.255 10.7994 18.2413 10.7861 18.2251C10.7705 18.206 10.7579 18.1846 10.7441 18.1636C10.7328 18.1463 10.7207 18.1299 10.7109 18.1118C10.7076 18.1056 10.7024 18.0997 10.6992 18.0933C10.6909 18.0766 10.6866 18.0584 10.6797 18.0415C10.6715 18.0214 10.6625 18.0017 10.6562 17.981C10.6489 17.9568 10.6443 17.9322 10.6396 17.9077C10.6358 17.8877 10.632 17.8675 10.6299 17.8472C10.6275 17.8234 10.6269 17.7996 10.627 17.7759C10.627 17.7522 10.6275 17.7283 10.6299 17.7046C10.632 17.6846 10.6359 17.6647 10.6396 17.645C10.6443 17.6204 10.6488 17.5952 10.6562 17.5708C10.6631 17.5485 10.6727 17.5269 10.6816 17.5054C10.6878 17.4904 10.6928 17.4742 10.7002 17.4595C10.7027 17.4545 10.7064 17.4497 10.709 17.4448C10.7199 17.4243 10.7331 17.4047 10.7461 17.3853C10.7599 17.3645 10.7735 17.3435 10.7891 17.3247C10.7993 17.3125 10.8112 17.3011 10.8223 17.2896C10.8431 17.2676 10.8645 17.2459 10.8877 17.2271C10.9005 17.2168 10.9151 17.2082 10.9287 17.1987C10.9525 17.1821 10.9765 17.1653 11.002 17.1519C11.0068 17.1492 11.0117 17.1455 11.0166 17.1431L16.0635 14.6187C16.1939 14.6416 16.3263 14.6499 16.458 14.6392V16.0054L12.916 17.7759L17.9443 20.2896C17.9794 20.3069 18.0216 20.3071 18.0566 20.2896L23.083 17.7759L19.54 16.0044V14.6401C19.6724 14.6508 19.8055 14.6421 19.9365 14.6187L24.9834 17.1431Z" fill="#E9E9E9"/>
<path d="M18.708 24.7808C18.7078 25.1718 18.3911 25.4888 18 25.4888C17.6089 25.4888 17.2922 25.1718 17.292 24.7808V22.4438C17.7529 22.5877 18.247 22.5878 18.708 22.4438V24.7808Z" fill="#E9E9E9"/>
</svg>
