<svg width="36" height="36" viewBox="0 0 36 36" fill="none" xmlns="http://www.w3.org/2000/svg">
<rect width="36" height="36" rx="4" fill="#3E3E46"/>
<path d="M27.5205 18.0005C27.5203 18.3914 27.2035 18.7084 26.8125 18.7085L25.0459 18.7085L25.0459 22.1831C25.0458 22.6432 24.6729 23.0159 24.2129 23.0161L19.6846 23.0161C19.2244 23.0161 18.8507 22.6433 18.8506 22.1831L18.8506 18.7085L16.6836 18.7085L16.6836 24.4595C16.6835 24.9196 16.3098 25.2925 15.8496 25.2925L11.0791 25.2925C10.6189 25.2925 10.2462 24.9196 10.2461 24.4595L10.2461 18.7085L9.1875 18.7085C8.79651 18.7084 8.47971 18.3914 8.47949 18.0005C8.47949 17.6093 8.79637 17.2916 9.1875 17.2915L10.2461 17.2915L10.2461 11.5405C10.2463 11.0804 10.619 10.7075 11.0791 10.7075L15.8496 10.7075C16.3097 10.7075 16.6834 11.0804 16.6836 11.5405L16.6836 17.2915L18.8506 17.2915L18.8506 14.0415C18.8506 13.5813 19.2243 13.2075 19.6846 13.2075L24.2129 13.2075C24.673 13.2077 25.0459 13.5814 25.0459 14.0415L25.0459 17.2915L26.8125 17.2915C27.2036 17.2916 27.5205 17.6093 27.5205 18.0005ZM11.6621 12.1245L11.6621 23.8765L15.2666 23.8765L15.2666 12.1245L11.6621 12.1245ZM20.2676 14.6245L20.2676 21.6001L23.6289 21.6001L23.6289 14.6245L20.2676 14.6245Z" fill="#E9E9E9"/>
</svg>
