<svg width="36" height="36" viewBox="0 0 36 36" fill="none" xmlns="http://www.w3.org/2000/svg">
<rect width="36" height="36" rx="4" fill="#3E3E46"/>
<path d="M26.1094 25.3389C26.1094 24.9478 25.7924 24.631 25.4014 24.6309L10.6006 24.6309C10.2094 24.6309 9.89258 24.9477 9.89258 25.3389C9.89258 25.7301 10.2094 26.0469 10.6006 26.0469L25.4014 26.0469C25.7924 26.0467 26.1094 25.73 26.1094 25.3389ZM17.0381 10.7852C17.0378 10.3251 16.6652 9.95215 16.2051 9.95215L11.4336 9.95215C10.9737 9.95237 10.6008 10.3253 10.6006 10.7852L10.6006 21.9785C10.6006 22.4386 10.9735 22.8123 11.4336 22.8125L16.2051 22.8125C16.6653 22.8125 17.0381 22.4388 17.0381 21.9785L17.0381 10.7852ZM12.0176 21.3955L12.0176 11.3691L15.6221 11.3691L15.6221 21.3955L12.0176 21.3955ZM25.4014 16.5313C25.4014 16.071 25.0276 15.6982 24.5674 15.6982L20.0391 15.6982C19.5789 15.6984 19.2061 16.0711 19.2061 16.5313L19.2061 21.9785C19.2061 22.4387 19.5789 22.8124 20.0391 22.8125L24.5674 22.8125C25.0276 22.8125 25.4014 22.4388 25.4014 21.9785L25.4014 16.5313ZM20.623 21.3955L20.623 17.1143L23.9844 17.1143L23.9844 21.3955L20.623 21.3955Z" fill="#E9E9E9"/>
</svg>
