<svg width="36" height="36" viewBox="0 0 36 36" fill="none" xmlns="http://www.w3.org/2000/svg">
<rect width="36" height="36" rx="4" fill="#F4F4F4"/>
<path d="M25.3389 9.89136C24.9478 9.89153 24.6309 10.2092 24.6309 10.6003V25.4001C24.6309 25.7912 24.9478 26.109 25.3389 26.1091C25.7301 26.1091 26.0479 25.7913 26.0479 25.4001V10.6003C26.0479 10.2091 25.7301 9.89136 25.3389 9.89136ZM10.7861 18.9626C10.326 18.9627 9.95326 19.3356 9.95312 19.7957V24.5671C9.95322 25.0273 10.326 25.4001 10.7861 25.4001H21.9795C22.4397 25.4001 22.8124 25.0273 22.8125 24.5671V19.7957C22.8124 19.3355 22.4396 18.9626 21.9795 18.9626H10.7861ZM21.3965 23.9832H11.3691V20.3796H21.3965V23.9832ZM16.5322 10.6003C16.072 10.6003 15.6982 10.9731 15.6982 11.4333V15.9617C15.6982 16.4219 16.072 16.7947 16.5322 16.7947H21.9795C22.4397 16.7947 22.8125 16.4219 22.8125 15.9617V11.4333C22.8125 10.9731 22.4397 10.6003 21.9795 10.6003H16.5322ZM21.3965 15.3787H17.1152V12.0164H21.3965V15.3787Z" fill="#808080"/>
</svg>
