<svg width="36" height="36" viewBox="0 0 36 36" fill="none" xmlns="http://www.w3.org/2000/svg">
<path d="M0 8C0 3.58172 3.58172 0 8 0H32C34.2091 0 36 1.79086 36 4V32C36 34.2091 34.2091 36 32 36H8C3.58172 36 0 32.4183 0 28V8Z" fill="#3E3E46"/>
<path d="M26.1094 10.6611C26.1094 11.0522 25.7924 11.369 25.4014 11.3691L10.6006 11.3691C10.2094 11.3691 9.89258 11.0523 9.89258 10.6611C9.89258 10.2699 10.2094 9.95312 10.6006 9.95312L25.4014 9.95312C25.7924 9.9533 26.1094 10.27 26.1094 10.6611ZM17.0381 25.2148C17.0378 25.6749 16.6652 26.0479 16.2051 26.0479L11.4336 26.0479C10.9737 26.0476 10.6008 25.6747 10.6006 25.2148L10.6006 14.0215C10.6006 13.5614 10.9735 13.1877 11.4336 13.1875L16.2051 13.1875C16.6653 13.1875 17.0381 13.5612 17.0381 14.0215L17.0381 25.2148ZM12.0176 14.6045L12.0176 24.6309L15.6221 24.6309L15.6221 14.6045L12.0176 14.6045ZM25.4014 19.4687C25.4014 19.929 25.0276 20.3018 24.5674 20.3018L20.0391 20.3018C19.5789 20.3016 19.2061 19.9289 19.2061 19.4687L19.2061 14.0215C19.2061 13.5613 19.5789 13.1876 20.0391 13.1875L24.5674 13.1875C25.0276 13.1875 25.4014 13.5612 25.4014 14.0215L25.4014 19.4687ZM20.623 14.6045L20.623 18.8857L23.9844 18.8857L23.9844 14.6045L20.623 14.6045Z" fill="#E9E9E9"/>
</svg>
