<svg width="36" height="36" viewBox="0 0 36 36" fill="none" xmlns="http://www.w3.org/2000/svg">
<rect width="36" height="36" rx="4" fill="#F4F4F4"/>
<path d="M18 18.2617C17.6088 18.2617 17.292 17.9449 17.292 17.5537L17.292 13.1465L16.834 13.6035C16.5574 13.8801 16.1087 13.8799 15.832 13.6035C15.5554 13.3269 15.5554 12.8782 15.832 12.6016L17.3809 11.0527C17.7226 10.7116 18.2767 10.7112 18.6182 11.0527L20.167 12.6016C20.4434 12.878 20.4432 13.3269 20.167 13.6035C19.8904 13.8801 19.4417 13.8801 19.165 13.6035L18.708 13.1465L18.708 17.5537C18.708 17.9448 18.391 18.2616 18 18.2617Z" fill="#808080"/>
<path d="M24.9834 17.1433C24.9873 17.1454 24.9912 17.1491 24.9951 17.1511C25.0233 17.1659 25.0501 17.1834 25.0762 17.2019C25.0878 17.2102 25.1003 17.2174 25.1113 17.2263C25.1349 17.2453 25.1556 17.2676 25.1768 17.2898C25.1879 17.3015 25.1997 17.3126 25.21 17.325C25.2294 17.3484 25.2461 17.3739 25.2627 17.4001C25.2708 17.4129 25.2799 17.425 25.2871 17.4382C25.2911 17.4456 25.297 17.4522 25.3008 17.4597C25.31 17.4782 25.3148 17.4985 25.3223 17.5173C25.3292 17.5348 25.3363 17.5521 25.3418 17.5701C25.3494 17.5949 25.3546 17.6201 25.3594 17.6453C25.3631 17.665 25.367 17.6848 25.3691 17.7048C25.3715 17.7286 25.3721 17.7524 25.3721 17.7761C25.3721 17.7998 25.3715 17.8237 25.3691 17.8474C25.3671 17.8677 25.3632 17.8879 25.3594 17.908C25.3548 17.932 25.3499 17.9564 25.3428 17.9802C25.3354 18.0045 25.3254 18.0281 25.3154 18.0515C25.3097 18.065 25.3064 18.0802 25.2998 18.0935C25.2974 18.0983 25.2926 18.1025 25.29 18.1072C25.2786 18.1288 25.2647 18.1493 25.251 18.1697C25.2384 18.1884 25.2269 18.2081 25.2129 18.2253C25.1997 18.2414 25.1836 18.2554 25.1689 18.2703C25.1503 18.2892 25.1317 18.3084 25.1113 18.325C25.0986 18.3353 25.0839 18.3438 25.0703 18.3533C25.0464 18.37 25.0227 18.3875 24.9971 18.4011C24.9925 18.4036 24.988 18.4075 24.9834 18.4099L18.6895 21.5574C18.2557 21.7742 17.7444 21.7741 17.3105 21.5574L11.0166 18.4099C11.0123 18.4078 11.0081 18.4044 11.0039 18.4021C10.9755 18.3872 10.9491 18.3691 10.9229 18.3503C10.911 18.3419 10.8989 18.334 10.8877 18.325C10.8672 18.3083 10.8488 18.2893 10.8301 18.2703C10.8153 18.2552 10.7994 18.2415 10.7861 18.2253C10.7705 18.2062 10.7579 18.1848 10.7441 18.1638C10.7328 18.1466 10.7207 18.1301 10.7109 18.1121C10.7076 18.1058 10.7024 18.0999 10.6992 18.0935C10.6909 18.0769 10.6866 18.0587 10.6797 18.0417C10.6715 18.0217 10.6625 18.0019 10.6562 17.9812C10.6489 17.957 10.6443 17.9324 10.6396 17.908C10.6358 17.8879 10.632 17.8678 10.6299 17.8474C10.6275 17.8236 10.6269 17.7998 10.627 17.7761C10.627 17.7525 10.6275 17.7286 10.6299 17.7048C10.632 17.6849 10.6359 17.6649 10.6396 17.6453C10.6443 17.6206 10.6488 17.5954 10.6562 17.571C10.6631 17.5488 10.6727 17.5271 10.6816 17.5056C10.6878 17.4907 10.6928 17.4744 10.7002 17.4597C10.7027 17.4548 10.7064 17.4499 10.709 17.4451C10.7199 17.4246 10.7331 17.4049 10.7461 17.3855C10.7599 17.3648 10.7735 17.3438 10.7891 17.325C10.7993 17.3127 10.8112 17.3014 10.8223 17.2898C10.8431 17.2679 10.8645 17.2461 10.8877 17.2273C10.9005 17.217 10.9151 17.2084 10.9287 17.199C10.9525 17.1824 10.9765 17.1656 11.002 17.1521C11.0068 17.1495 11.0117 17.1458 11.0166 17.1433L16.0635 14.6189C16.1939 14.6418 16.3263 14.6501 16.458 14.6394V16.0056L12.916 17.7761L17.9443 20.2898C17.9794 20.3071 18.0216 20.3073 18.0566 20.2898L23.083 17.7761L19.54 16.0046V14.6404C19.6724 14.6511 19.8055 14.6423 19.9365 14.6189L24.9834 17.1433Z" fill="#808080"/>
<path d="M18.708 24.7808C18.7078 25.1718 18.3911 25.4888 18 25.4888C17.6089 25.4888 17.2922 25.1718 17.292 24.7808V22.4438C17.7529 22.5877 18.247 22.5878 18.708 22.4438V24.7808Z" fill="#808080"/>
</svg>
