<svg width="36" height="36" viewBox="0 0 36 36" fill="none" xmlns="http://www.w3.org/2000/svg">
<path d="M0 8C0 3.58172 3.58172 0 8 0H32C34.2091 0 36 1.79086 36 4V32C36 34.2091 34.2091 36 32 36H8C3.58172 36 0 32.4183 0 28V8Z" fill="#3E3E46"/>
<path d="M24.6663 14.6668L18.3724 11.5198C18.1377 11.4025 17.8616 11.4025 17.627 11.5198L11.333 14.6668" stroke="#E9E9E9" stroke-width="1.41667" stroke-linecap="round"/>
<path d="M11.3337 14.6667L17.6276 17.8137C17.8623 17.931 18.1384 17.931 18.373 17.8137L24.667 14.6667" stroke="#E9E9E9" stroke-width="1.41667" stroke-linecap="round"/>
<path d="M18 26.2075C17.6088 26.2075 17.292 25.8907 17.292 25.4995L17.292 21.48L16.834 21.937C16.5574 22.2135 16.1086 22.2134 15.832 21.937C15.5557 21.6604 15.5556 21.2116 15.832 20.9351L17.3809 19.3862C17.7225 19.0448 18.2765 19.0449 18.6182 19.3862L20.167 20.9351C20.4436 21.2117 20.4436 21.6604 20.167 21.937C19.8904 22.2136 19.4416 22.2136 19.165 21.937L18.708 21.48L18.708 25.4995C18.708 25.8906 18.3911 26.2074 18 26.2075Z" fill="#E9E9E9"/>
</svg>
