<svg width="36" height="36" viewBox="0 0 36 36" fill="none" xmlns="http://www.w3.org/2000/svg">
<rect width="36" height="36" rx="4" fill="#3E3E46"/>
<path d="M25.3389 9.89111C24.9478 9.89129 24.6309 10.209 24.6309 10.6001V25.3999C24.6309 25.791 24.9478 26.1087 25.3389 26.1089C25.7301 26.1089 26.0479 25.7911 26.0479 25.3999V10.6001C26.0479 10.2089 25.7301 9.89111 25.3389 9.89111ZM10.7861 18.9624C10.326 18.9624 9.95326 19.3353 9.95312 19.7954V24.5669C9.95322 25.027 10.326 25.3999 10.7861 25.3999H21.9795C22.4397 25.3999 22.8124 25.0271 22.8125 24.5669V19.7954C22.8124 19.3353 22.4396 18.9624 21.9795 18.9624H10.7861ZM21.3965 23.9829H11.3691V20.3794H21.3965V23.9829ZM16.5322 10.6001C16.072 10.6001 15.6982 10.9729 15.6982 11.4331V15.9614C15.6982 16.4217 16.072 16.7944 16.5322 16.7944H21.9795C22.4397 16.7944 22.8125 16.4217 22.8125 15.9614V11.4331C22.8125 10.9729 22.4397 10.6001 21.9795 10.6001H16.5322ZM21.3965 15.3784H17.1152V12.0161H21.3965V15.3784Z" fill="#E9E9E9"/>
</svg>
