<svg width="36" height="36" viewBox="0 0 36 36" fill="none" xmlns="http://www.w3.org/2000/svg">
<rect width="36" height="36" rx="4" fill="#3E3E46"/>
<path d="M18 8.47949C18.391 8.47967 18.7079 8.79648 18.708 9.1875V10.9541H22.1826C22.6427 10.9541 23.0164 11.327 23.0166 11.7871V16.3154C23.0166 16.7757 22.6429 17.1494 22.1826 17.1494H18.708V19.3164H24.459C24.9192 19.3164 25.293 19.6902 25.293 20.1504V24.9209C25.293 25.3811 24.9192 25.7539 24.459 25.7539H18.708V26.8125C18.708 27.2036 18.3911 27.5213 18 27.5215C17.6088 27.5215 17.291 27.2037 17.291 26.8125V25.7539H11.541C11.0808 25.7539 10.707 25.3811 10.707 24.9209V20.1504C10.707 19.6902 11.0808 19.3164 11.541 19.3164H17.291V17.1494H14.041C13.5809 17.1493 13.208 16.7756 13.208 16.3154V11.7871C13.2082 11.3271 13.581 10.9542 14.041 10.9541H17.291V9.1875C17.2911 8.79637 17.6089 8.47949 18 8.47949ZM12.124 24.3379H23.876V20.7334H12.124V24.3379ZM14.625 15.7324H21.5996V12.3711H14.625V15.7324Z" fill="#E9E9E9"/>
</svg>
