<svg width="17" height="17" viewBox="0 0 17 17" fill="none" xmlns="http://www.w3.org/2000/svg">
<circle cx="8.33333" cy="8.33333" r="8.33333" fill="#93939A"/>
<path d="M8.33399 5.83301C7.64363 5.83301 7.08399 5.27336 7.08399 4.58301C7.08399 3.89265 7.64363 3.33301 8.33399 3.33301C9.02434 3.33301 9.58399 3.89265 9.58399 4.58301C9.58399 5.27336 9.02434 5.83301 8.33399 5.83301ZM8.33398 13.75C7.64363 13.75 7.08398 13.1904 7.08398 12.5L7.08398 8.33301C7.08416 7.6428 7.64374 7.08301 8.33398 7.08301C9.02423 7.08301 9.58381 7.6428 9.58398 8.33301L9.58398 12.5C9.58398 13.1904 9.02434 13.75 8.33398 13.75Z" fill="white"/>
</svg>
