<svg width="6" height="5" viewBox="0 0 6 5" fill="none" xmlns="http://www.w3.org/2000/svg">
<path d="M2.66644 0.45C2.06273 0.45 1.56644 0.7275 1.18588 1.08469C0.829398 1.42031 0.583102 1.81875 0.457176 2.1C0.583102 2.38125 0.829398 2.77969 1.18495 3.11531C1.56644 3.4725 2.06273 3.75 2.66644 3.75C3.27014 3.75 3.76644 3.4725 4.14699 3.11531C4.50347 2.77969 4.74977 2.38125 4.87569 2.1C4.74977 1.81875 4.50347 1.42031 4.14792 1.08469C3.76644 0.7275 3.27014 0.45 2.66644 0.45ZM0.883102 0.755625C1.31921 0.345 1.91829 0 2.66644 0C3.41458 0 4.01366 0.345 4.44977 0.755625C4.8831 1.16344 5.17292 1.65 5.31088 1.98469C5.34144 2.05875 5.34144 2.14125 5.31088 2.21531C5.17292 2.55 4.8831 3.0375 4.44977 3.44438C4.01366 3.855 3.41458 4.2 2.66644 4.2C1.91829 4.2 1.31921 3.855 0.883102 3.44438C0.449769 3.0375 0.159954 2.55 0.0229167 2.21531C-0.00763889 2.14125 -0.00763889 2.05875 0.0229167 1.98469C0.159954 1.65 0.449769 1.1625 0.883102 0.755625ZM2.66644 2.85C3.07569 2.85 3.40718 2.51438 3.40718 2.1C3.40718 1.68563 3.07569 1.35 2.66644 1.35C2.65995 1.35 2.6544 1.35 2.64792 1.35C2.65995 1.39781 2.66644 1.44844 2.66644 1.5C2.66644 1.83094 2.40069 2.1 2.07384 2.1C2.02292 2.1 1.97292 2.09344 1.92569 2.08125C1.92569 2.08781 1.92569 2.09344 1.92569 2.1C1.92569 2.51438 2.25718 2.85 2.66644 2.85ZM2.66644 0.9C2.98077 0.9 3.28222 1.02643 3.50449 1.25147C3.72675 1.47652 3.85162 1.78174 3.85162 2.1C3.85162 2.41826 3.72675 2.72348 3.50449 2.94853C3.28222 3.17357 2.98077 3.3 2.66644 3.3C2.3521 3.3 2.05065 3.17357 1.82838 2.94853C1.60612 2.72348 1.48125 2.41826 1.48125 2.1C1.48125 1.78174 1.60612 1.47652 1.82838 1.25147C2.05065 1.02643 2.3521 0.9 2.66644 0.9Z" fill="#5C5C5C"/>
</svg>
