<svg width="26" height="22" xmlns="http://www.w3.org/2000/svg" style="vector-effect: non-scaling-stroke;" stroke="null" fill="none">

 <g stroke="null">
  <title style="vector-effect: non-scaling-stroke;" stroke="null">background</title>
  <rect stroke="null" fill="none" id="canvas_background" height="811" width="1662" y="-1" x="-1"/>
 </g>
 <g stroke="null">
  <title style="vector-effect: non-scaling-stroke;" stroke="null">Layer 1</title>
  <path style="vector-effect: non-scaling-stroke;" stroke="null" id="svg_2" fill="#6B6B6B" d="m21.5466,10.9597c0.1434,0 0.2599,-0.1162 0.2565,-0.2596c-0.0492,-2.06562 -0.6845,-4.07681 -1.8344,-5.79779c-1.198,-1.79301 -2.9009,-3.19049 -4.8932,-4.01572c-1.9922,-0.82523 -4.1845,-1.041148 -6.29948,-0.620449c-2.115,0.420699 -4.05775,1.459119 -5.58257,2.983949c-1.52483,1.52482 -2.563251,3.46757 -2.98395,5.58257c-0.420699,2.11504 -0.204781,4.30724 0.62045,6.29954c0.82523,1.9923 2.22271,3.6951 4.01572,4.8932c1.72098,1.1499 3.73217,1.7852 5.79783,1.8344c0.1433,0.0034 0.2596,-0.1132 0.2596,-0.2565l0,-1.1656c0,-0.1433 -0.1163,-0.2592 -0.2596,-0.2632c-1.73239,-0.0488 -3.41794,-0.5851 -4.86186,-1.5499c-1.51596,-1.013 -2.69751,-2.4527 -3.39522,-4.1371c-0.69772,-1.6845 -0.88028,-3.538 -0.52458,-5.32617c0.35569,-1.7882 1.23366,-3.43076 2.52287,-4.71998c1.28922,-1.28921 2.93178,-2.16718 4.71998,-2.52287c1.78821,-0.3557 3.64171,-0.17314 5.32611,0.52458c1.6845,0.69772 3.1242,1.87926 4.1371,3.39522c0.9648,1.44393 1.5012,3.12947 1.55,4.86192c0.004,0.1433 0.1198,0.2595 0.2632,0.2595l1.1655,0z"/>
  <path style="vector-effect: non-scaling-stroke;" stroke="null" id="svg_3" fill="#6B6B6B" d="m21.1685,14.9086c-0.1038,0.127 -0.298,0.127 -0.4019,0l-3.5682,-4.3626c-0.1386,-0.1695 -0.018,-0.4239 0.201,-0.4239l7.1364,0c0.219,0 0.3396,0.2544 0.2009,0.4239l-3.5682,4.3626z"/>
 </g>
</svg>