<svg width="20" height="20" viewBox="0 0 20 20" fill="none" xmlns="http://www.w3.org/2000/svg">
<path d="M16.4466 10.6318C16.5865 10.4929 16.6668 10.2985 16.6668 10.0947C16.6668 9.89102 16.5865 9.69965 16.4466 9.55767L11.2085 4.37215C10.9228 4.08818 10.4704 4.10053 10.1996 4.39685C9.92873 4.69316 9.93766 5.16233 10.2234 5.44321L14.1698 9.35395H4.04778C3.65195 9.35395 3.3335 9.68422 3.3335 10.0947C3.3335 10.5053 3.65195 10.8355 4.04778 10.8355H14.1698L10.2204 14.7432C9.93469 15.0271 9.92576 15.4932 10.1966 15.7895C10.4674 16.0859 10.9198 16.0951 11.2055 15.8142L16.4436 10.6287L16.4466 10.6318Z" fill="#909090"/>
</svg>
