<svg width="28" height="29" viewBox="0 0 28 29" fill="none" xmlns="http://www.w3.org/2000/svg">
<path d="M24.0566 14.4524C24.5304 14.3499 24.6189 14.0066 24.2554 13.6866L14.4198 5.08433C14.0548 4.7659 13.4583 4.76434 13.0933 5.08277L3.225 13.6866C2.85997 14.0051 2.94851 14.3484 3.42227 14.4509L4.6059 14.7056C5.07967 14.8081 5.46645 15.2881 5.46645 15.7727L5.46645 23.7817C5.46645 24.2663 5.86254 24.6624 6.34718 24.6624H10.5132C10.9978 24.6624 11.3939 24.2663 11.3939 23.7817L11.3939 19.9388C11.3939 19.4541 11.79 19.058 12.2747 19.058H15.0846C15.5693 19.058 15.9654 19.4541 15.9654 19.9388L15.9654 23.7817C15.9654 24.2663 16.3615 24.6624 16.8461 24.6624H21.1333C21.6179 24.6624 22.014 24.2663 22.014 23.7817L22.014 15.7727C22.014 15.2881 22.4008 14.8081 22.8745 14.7072L24.0566 14.4524Z" stroke="#352F2D" stroke-miterlimit="10" stroke-linecap="round"/>
</svg>
