<svg width="22" height="22" viewBox="0 0 22 22" fill="none" xmlns="http://www.w3.org/2000/svg">
<rect width="22" height="22" rx="4" fill="#49494E"/>
<path d="M12.5286 10.4693C12.5986 10.539 12.654 10.6218 12.6919 10.713C12.7297 10.8041 12.7492 10.9019 12.7492 11.0006C12.7492 11.0993 12.7297 11.197 12.6919 11.2882C12.654 11.3794 12.5986 11.4622 12.5286 11.5318L7.52864 16.5318C7.38775 16.6727 7.19665 16.7519 6.99739 16.7519C6.79814 16.7519 6.60704 16.6727 6.46614 16.5318C6.32525 16.391 6.24609 16.1999 6.24609 16.0006C6.24609 15.8013 6.32525 15.6102 6.46614 15.4693L10.9355 11L6.46739 6.5306C6.39763 6.46083 6.34229 6.37801 6.30453 6.28686C6.26678 6.19571 6.24734 6.09801 6.24734 5.99935C6.24734 5.80009 6.3265 5.60899 6.46739 5.4681C6.60829 5.3272 6.79939 5.24805 6.99864 5.24805C7.09731 5.24805 7.195 5.26748 7.28616 5.30524C7.37731 5.34299 7.46013 5.39833 7.52989 5.4681L12.5286 10.4693ZM14.498 5.24997C14.2991 5.24997 14.1083 5.32899 13.9677 5.46964C13.827 5.61029 13.748 5.80106 13.748 5.99997V16C13.748 16.1989 13.827 16.3896 13.9677 16.5303C14.1083 16.671 14.2991 16.75 14.498 16.75C14.6969 16.75 14.8877 16.671 15.0283 16.5303C15.169 16.3896 15.248 16.1989 15.248 16V5.99997C15.248 5.80106 15.169 5.61029 15.0283 5.46964C14.8877 5.32899 14.6969 5.24997 14.498 5.24997Z" fill="#D1D1D1"/>
</svg>
