<svg width="31" height="733" viewBox="0 0 31 733" fill="none" xmlns="http://www.w3.org/2000/svg">
<g clip-path="url(#clip0_19344_56964)">
<g clip-path="url(#clip1_19344_56964)">
<path d="M30.4282 0.898438V18.8232C30.4282 20.4774 29.0898 21.8458 27.4056 21.8458H20.4733L20.338 21.9811C19.7816 22.718 18.8943 23.109 17.9771 23.109H10.0673C8.38307 23.109 7.01465 21.7405 7.01465 20.0864V0.898438H30.4282ZM17.0297 17.4248V5.75558H10.4282V17.4248C10.4282 17.921 10.8192 18.2969 11.3004 18.2969H16.1876C16.6387 18.2969 17.0297 17.906 17.0297 17.4248ZM20.3981 16.1616C20.3981 16.6127 20.7891 17.0338 21.2703 17.0338H26.1575C26.6537 17.0338 27.0297 16.6127 27.0297 16.1616V5.75558H20.3831V16.1616H20.3981Z" fill="#B3B3B3"/>
<path d="M15.1349 25.9355C16.8643 25.9355 18.2628 27.3491 18.2628 29.0634V40.0709H22.2026V27.4543H25.2252V40.6423C25.2252 43.0333 23.6763 44.9731 21.7816 44.9731H7.01465V29.0784C7.01465 27.3491 8.42818 25.9506 10.1425 25.9506H15.1349V25.9355ZM15.1951 40.0709V30.8228H10.0222V40.0709H15.1951Z" fill="#B3B3B3"/>
<path d="M22.0974 73.6047H7.01465V68.6874H22.2026V63.1385H7.01465V58.2513H22.1725V52.7025H7.01465V47.7852H25.2252V70.4919C25.2252 72.2212 23.8116 73.6197 22.0974 73.6197V73.6047Z" fill="#B3B3B3"/>
<path d="M30.774 76.0717V80.989H25.2252V91.9514C25.2252 93.7108 23.8116 95.1093 22.0974 95.1093H10.1425C8.41314 95.1093 7.01465 93.7108 7.01465 91.9514V76.0566H30.774V76.0717ZM22.2026 90.207V81.004H10.0673V90.207H22.1876H22.2026Z" fill="#B3B3B3"/>
<path d="M25.2252 116.011H7.01465V100.642C7.01465 98.9583 8.38307 97.5898 10.0673 97.5898H25.2252V102.342H9.93194V111.304H25.2252V116.011Z" fill="#B3B3B3"/>
<path d="M9.61615 129.012H27.6162C29.0598 129.012 30.2177 130.17 30.2177 131.613V146.455H27.7966V134.395C27.7966 133.583 27.1349 132.921 26.3229 132.921H10.8793C10.0673 132.921 9.4357 133.583 9.4357 134.395V146.455H7.01465V131.613C7.01465 130.17 8.17254 129.012 9.61615 129.012Z" fill="#B3B3B3"/>
<path d="M22.0522 149.268C23.4658 149.268 24.6237 150.425 24.6237 151.839V164.531C24.6237 165.974 23.4658 167.132 22.0522 167.132H9.58608C8.17254 167.132 7.01465 165.974 7.01465 164.531V151.839C7.01465 150.425 8.17254 149.268 9.58608 149.268H22.0673H22.0522ZM22.6989 153.027H8.9545V163.328H22.6989V153.027Z" fill="#B3B3B3"/>
<path d="M22.0522 169.93C23.4658 169.93 24.6237 171.088 24.6237 172.501V185.193C24.6237 186.636 23.4658 187.794 22.0522 187.794H9.58608C8.17254 187.794 7.01465 186.636 7.01465 185.193V172.501C7.01465 171.088 8.17254 169.93 9.58608 169.93H22.0673H22.0522ZM22.6989 173.704H8.9545V184.005H22.6989V173.704Z" fill="#B3B3B3"/>
<path d="M9.72142 190.605H30.4583V194.545H9.05976V199.613H7.01465V193.282C7.01465 191.808 8.24773 190.605 9.72142 190.605Z" fill="#B3B3B3"/>
<path d="M30.2177 212.967V232.26C30.2177 233.704 29.0598 234.862 27.6162 234.862H17.4507C16.0071 234.862 14.8492 233.704 14.8492 232.26V216.831H7.01465V212.967H30.2177ZM18.7139 230.967L26.338 230.937C27.15 230.937 27.7816 230.305 27.7816 229.493V216.831H17.2402V229.493C17.2402 230.305 17.9019 230.967 18.7139 230.967Z" fill="#B3B3B3"/>
<path d="M9.72142 237.688H30.4583V241.627H9.05976V246.695H7.01465V240.364C7.01465 238.891 8.24773 237.688 9.72142 237.688Z" fill="#B3B3B3"/>
<path d="M14.8192 249.507C16.2928 249.507 17.4959 250.695 17.4959 252.139V264.018H22.6237V251.041H24.6237V264.049C24.6237 266.199 23.2853 267.943 21.6312 267.943H7.01465V252.124C7.01465 250.68 8.20262 249.492 9.69134 249.492H14.8192V249.507ZM15.4507 253.402H9.01465V264.018H15.4507V253.402Z" fill="#B3B3B3"/>
<path d="M8.98457 279.328V281.479H7.01465V276.351C7.01465 274.877 8.17254 273.674 9.64623 273.674H22.4733V269.779H24.4733V273.674H30.2026V277.569H24.4733V281.464H22.4733V277.569H10.774C9.7966 277.569 8.98457 278.381 8.98457 279.328Z" fill="#B3B3B3"/>
<path d="M21.962 283.584C23.4357 283.584 24.6387 284.772 24.6387 286.261V299.404C24.6387 300.877 23.4507 302.08 21.962 302.08H14.2628V287.524H8.98457V301.764H7.01465V286.261C7.01465 284.787 8.20262 283.584 9.69134 283.584H21.962ZM22.6989 287.509H16.3079V298.125H22.6989V287.509Z" fill="#B3B3B3"/>
</g>
</g>
<defs>
<clipPath id="clip0_19344_56964">
<rect width="31" height="732" fill="white" transform="translate(0 0.898438)"/>
</clipPath>
<clipPath id="clip1_19344_56964">
<rect width="31" height="301.18" fill="white" transform="translate(0 0.898438)"/>
</clipPath>
</defs>
</svg>
