<svg width="32" height="733" viewBox="0 0 32 733" fill="none" xmlns="http://www.w3.org/2000/svg">
<g clip-path="url(#clip0_19344_56982)">
<g clip-path="url(#clip1_19344_56982)">
<path d="M28.3068 128.43H10.8206C9.13125 128.43 7.73828 129.793 7.73828 131.453V146.39H11.2059V134.15C11.2059 133.646 11.5912 133.29 12.0654 133.29H27.0324C27.5066 133.29 27.8919 133.676 27.8919 134.15V146.39H31.3299V131.453C31.3299 129.763 29.9665 128.43 28.3068 128.43Z" fill="#B3B3B3"/>
<path d="M25.8169 164.498V152.198C25.8169 150.509 24.4832 149.205 22.8235 149.205H10.7906C9.10127 149.205 7.76758 150.539 7.76758 152.198V164.498C7.76758 166.128 9.13091 167.492 10.7906 167.492H22.8235C24.5129 167.492 25.8169 166.128 25.8169 164.498ZM10.6721 162.779V153.888H22.9124V162.779H10.6721Z" fill="#B3B3B3"/>
<path d="M25.8169 185.215V172.915C25.8169 171.226 24.4832 169.922 22.8235 169.922H10.7906C9.10127 169.922 7.76758 171.256 7.76758 172.915V185.215C7.76758 186.845 9.13091 188.208 10.7906 188.208H22.8235C24.5129 188.208 25.8169 186.845 25.8169 185.215ZM10.6721 183.526V174.634H22.9124V183.526H10.6721Z" fill="#B3B3B3"/>
<path d="M31.3299 195.529V190.668H10.8799C9.13125 190.668 7.73828 192.061 7.73828 193.78V200.419H10.7613V195.529H31.3299Z" fill="#B3B3B3"/>
<path d="M31.3299 232.28V212.986H7.73828V217.847H15.3848V232.31C15.3848 233.999 16.7481 235.363 18.4078 235.363H28.3068C29.9962 235.363 31.3299 233.999 31.3299 232.31V232.28ZM19.623 230.473C19.1192 230.473 18.7635 230.087 18.7635 229.613V217.847H27.9512V229.583C27.9512 230.058 27.5659 230.502 27.0917 230.502H19.623V230.473Z" fill="#B3B3B3"/>
<path d="M31.3299 242.98V238.119H10.8799C9.13125 238.119 7.73828 239.512 7.73828 241.231V247.87H10.7613V242.98H31.3299Z" fill="#B3B3B3"/>
<path d="M25.8173 264.555V251.455H22.8239V263.992H18.9117V253.055C18.9117 251.336 17.5187 249.943 15.7997 249.943H10.8502C9.13125 249.943 7.73828 251.336 7.73828 253.055V268.852H22.3793C24.2761 268.852 25.7876 266.926 25.7876 264.555H25.8173ZM10.7317 263.992V254.804H15.859V263.992H10.7317Z" fill="#B3B3B3"/>
<path d="M31.3299 280.293V275.432H25.7876V271.639H22.7942V275.432H10.8502C9.13125 275.432 7.73828 276.825 7.73828 278.544V284.057H10.7613V281.478C10.7613 280.856 11.2948 280.293 11.9172 280.293H22.7646V284.057H25.758V280.293H31.3299Z" fill="#B3B3B3"/>
<path d="M25.6991 302.196V289.6C25.6991 287.881 24.3061 286.518 22.5871 286.518H10.8209C9.10196 286.518 7.70898 287.881 7.70898 289.6V305.011H10.6728V291.349H14.6738V305.308H22.5575C24.2764 305.308 25.6694 303.915 25.6694 302.196H25.6991ZM17.7265 300.447V291.319H22.7946V300.447H17.7265Z" fill="#B3B3B3"/>
<path d="M20.9275 21.7041H27.8034C29.4928 21.7041 30.7968 20.3408 30.7968 18.7107V0.898438H7.53125V19.9555C7.53125 21.5855 8.89458 22.9489 10.5543 22.9489H18.4083C19.327 22.9489 20.1865 22.5636 20.7497 21.8226L20.8978 21.6745L20.9275 21.7041ZM27.4478 5.72938V16.0729C27.4478 16.5175 27.0625 16.9324 26.5883 16.9324H21.7277C21.2535 16.9324 20.8682 16.5175 20.8682 16.0729V5.72938H27.4478ZM11.7991 18.1772C11.2952 18.1772 10.9396 17.7919 10.9396 17.3177V5.72938H17.4895V17.3177C17.4895 17.8216 17.1042 18.1772 16.6597 18.1772H11.7991Z" fill="#B3B3B3"/>
<path d="M25.6395 40.3458V27.2459H22.6461V39.7826H18.734V28.8463C18.734 27.1273 17.341 25.7344 15.622 25.7344H10.6725C8.95352 25.7344 7.56055 27.1273 7.56055 28.8463V44.6432H22.2016C24.0984 44.6432 25.6099 42.7168 25.6099 40.3458H25.6395ZM10.554 39.7826V30.595H15.6813V39.7826H10.554Z" fill="#B3B3B3"/>
<path d="M25.6399 69.984V47.4297H7.56089V52.3199H22.5872V57.8325H7.53125V62.6931H22.6168V68.2057H7.53125V73.0959H22.5279C24.2469 73.0959 25.6399 71.703 25.6399 69.984Z" fill="#B3B3B3"/>
<path d="M25.6395 91.3239V80.4469H31.1521V75.5566H7.56055V91.3239C7.56055 93.0725 8.95352 94.4655 10.6725 94.4655H22.5276C24.2466 94.4655 25.6395 93.0725 25.6395 91.3239ZM10.5836 89.5753V80.4172H22.6165V89.5753H10.5836Z" fill="#B3B3B3"/>
<path d="M10.4354 110.528V101.636H25.6395V96.9238H10.5836C8.89424 96.9238 7.56055 98.2872 7.56055 99.9469V115.21H25.6395V110.528H10.4354Z" fill="#B3B3B3"/>
<path d="M30.7961 323.06L19.2374 314.643L7.67871 323.06V325.964L19.2374 317.517L30.7961 325.964V323.06Z" fill="#B3B3B3"/>
<path d="M30.7961 499.553V496.678L19.2374 505.095L7.67871 496.678V499.553L19.2374 507.97L30.7961 499.553Z" fill="#B3B3B3"/>
<path d="M20.512 352.55V341.525C20.512 341.14 20.838 340.814 21.2233 340.814H25.58C25.9653 340.814 26.321 341.14 26.321 341.525V354.388H29.0773V339.332C29.0773 337.939 27.9807 336.812 26.6174 336.812H20.2453C18.9116 336.812 17.7853 337.909 17.7853 339.272V350.357C17.7853 350.742 17.4297 351.128 17.0444 351.128H13.4879C13.0729 351.128 12.658 350.772 12.658 350.387V337.465H9.87207V352.58C9.87207 353.943 10.9983 355.04 12.3616 355.04H18.0224C19.3858 355.04 20.512 353.913 20.512 352.58V352.55Z" fill="#B3B3B3"/>
<path d="M12.1842 368.376V361.115H24.5727V357.262H12.3027C10.9394 357.262 9.84277 358.358 9.84277 359.722V372.14H24.5727V368.317H12.2138V368.376H12.1842Z" fill="#B3B3B3"/>
<path d="M24.5726 387.048V374.186H4.33008V378.127H9.84269V387.019C9.84269 388.441 10.9689 389.568 12.3619 389.568H22.0238C23.4167 389.568 24.543 388.441 24.543 387.019L24.5726 387.048ZM12.273 385.626V378.157H22.083V385.626H12.273Z" fill="#B3B3B3"/>
<path d="M24.4834 404.356V394.101C24.4834 392.708 23.3572 391.611 21.9642 391.611H12.3913C10.9983 391.611 9.87207 392.708 9.87207 394.101V406.638H12.3024V395.523H15.5625V406.904H21.9939C23.3869 406.904 24.5131 405.778 24.5131 404.385L24.4834 404.356ZM17.9632 402.933V395.523H22.0828V402.933H17.9632Z" fill="#B3B3B3"/>
<path d="M22.7944 413.455L21.8757 412.832H24.5431V408.891H9.84277V412.832H20.6309V419.175H24.5727V416.804C24.5727 415.47 23.891 414.196 22.7944 413.455Z" fill="#B3B3B3"/>
<path d="M26.2917 421.16V427.68H9.84277V431.682H26.2917V438.172H29.0776V421.16H26.2917Z" fill="#B3B3B3"/>
<path d="M24.5727 451.777V441.107H22.1128V451.332H18.9119V442.441C18.9119 441.048 17.7857 439.922 16.3927 439.922H12.362C10.969 439.922 9.84277 441.048 9.84277 442.441V455.304H21.7868C23.3279 455.304 24.5727 453.733 24.5727 451.807V451.777ZM12.2731 451.332V443.864H16.452V451.332H12.2731Z" fill="#B3B3B3"/>
<path d="M22.0532 457.557H12.3913C10.9983 457.557 9.87207 458.683 9.87207 460.076V472.524H12.332V461.498H22.1717V472.524H24.6316V460.076C24.6316 458.683 23.5054 457.557 22.1124 457.557H22.0532Z" fill="#B3B3B3"/>
<path d="M18.7044 486.602L24.5727 489.15V485.357L19.5343 483.134V478.481H29.0776V474.539H9.84277V478.481H17.3411V483.312L9.87241 485.89V489.565L18.5859 486.542L18.7044 486.602Z" fill="#B3B3B3"/>
</g>
</g>
<defs>
<clipPath id="clip0_19344_56982">
<rect width="31" height="732" fill="white" transform="translate(0.548828 0.898438)"/>
</clipPath>
<clipPath id="clip1_19344_56982">
<rect width="31" height="507" fill="white" transform="translate(0.548828 0.898438)"/>
</clipPath>
</defs>
</svg>
