<svg width="32" height="732" viewBox="0 0 32 732" fill="none" xmlns="http://www.w3.org/2000/svg">
<g clip-path="url(#clip0_19344_57028)">
<g clip-path="url(#clip1_19344_57028)">
<path d="M30.7791 128.42V145.93H28.3491V133.8C28.3491 132.99 27.6791 132.36 26.9091 132.36H20.7591V145.93H18.3691V133.8C18.3691 132.99 17.6991 132.36 16.8891 132.36H9.9691V145.93H7.5791V128.42H30.7791Z" fill="#B3B3B3"/>
<path d="M22.5191 167.2H7.5791V163.26H23.1891V152.64H7.5791V148.74H25.1891V164.52C25.1891 166 23.9891 167.19 22.5191 167.19V167.2Z" fill="#B3B3B3"/>
<path d="M22.3388 170.02C23.0388 170.02 23.7088 170.3 24.1988 170.79C24.6888 171.28 24.9688 171.95 24.9688 172.65V186.64C24.9688 188.08 23.7688 189.28 22.3288 189.28H3.18883C1.74883 189.28 0.548828 188.08 0.548828 186.64V170.33H2.54883V185.38H7.53883V172.69C7.53883 171.21 8.69883 170.02 10.1788 170.02H22.3388ZM22.9388 185.38V173.96L9.50883 173.92V185.38H22.9388Z" fill="#B3B3B3"/>
<path d="M25.0891 192.1V196H7.5791V192.1H25.0891ZM30.7791 192.1V196H28.7791V192.1H30.7791Z" fill="#B3B3B3"/>
<path d="M22.5191 217.271H7.5791V213.331H23.1891V202.711H7.5791V198.811H25.1891V214.591C25.1891 216.071 23.9891 217.261 22.5191 217.261V217.271Z" fill="#B3B3B3"/>
<path d="M22.5191 220.09C23.9991 220.09 25.1891 221.29 25.1891 222.76V235.91C25.1891 237.39 23.9891 238.58 22.5191 238.58H14.8191V224.03H9.5491V238.27H7.5791V222.77C7.5791 221.29 8.7791 220.1 10.2491 220.1H22.5191V220.09ZM23.2591 224.03H16.8591V234.65H23.2591V224.03Z" fill="#B3B3B3"/>
<path d="M22.5191 241.391C23.9991 241.391 25.1891 242.591 25.1891 244.061V257.211C25.1891 258.691 23.9891 259.881 22.5191 259.881H14.8191V245.331H9.5491V259.571H7.5791V244.071C7.5791 242.591 8.7791 241.401 10.2491 241.401H22.5191V241.391ZM23.2591 245.331H16.8591V255.951H23.2591V245.331Z" fill="#B3B3B3"/>
<path d="M24.8691 271.449V274.439H21.0391V266.529H7.5791V262.699H24.8391V266.529H21.0791L22.8691 267.689C24.1391 268.529 24.8691 269.939 24.8691 271.449Z" fill="#B3B3B3"/>
<path d="M25.0891 276.9V280.8H7.5791V276.9H25.0891ZM30.7791 276.9V280.8H28.7791V276.9H30.7791Z" fill="#B3B3B3"/>
<path d="M22.5191 302.079H7.5791V298.139H23.1891V287.519H7.5791V283.619H25.1891V299.399C25.1891 300.879 23.9891 302.069 22.5191 302.069V302.079Z" fill="#B3B3B3"/>
<path d="M22.3388 304.891C23.0388 304.891 23.7088 305.171 24.1988 305.661C24.6888 306.151 24.9688 306.821 24.9688 307.521V321.511C24.9688 322.951 23.7688 324.151 22.3288 324.151H3.18883C1.74883 324.151 0.548828 322.951 0.548828 321.511V305.201H2.54883V320.251H7.53883V307.561C7.53883 306.081 8.69883 304.891 10.1788 304.891H22.3388ZM22.9388 320.251V308.831L9.50883 308.791V320.251H22.9388Z" fill="#B3B3B3"/>
<path d="M30.7791 337.52V356.82C30.7791 358.26 29.6191 359.42 28.1791 359.42H18.0191C16.5791 359.42 15.4191 358.26 15.4191 356.82V341.39H7.5791V337.52H30.7791ZM19.2791 355.52L26.9091 355.48C27.7191 355.48 28.3491 354.85 28.3491 354.04V341.38H17.7991V354.04C17.7991 354.85 18.4691 355.52 19.2791 355.52Z" fill="#B3B3B3"/>
<path d="M10.2891 362.238H31.0291V366.178H9.6191V371.238H7.5791V364.908C7.5791 363.428 8.8091 362.238 10.2891 362.238Z" fill="#B3B3B3"/>
<path d="M15.3791 374.051C16.8591 374.051 18.0491 375.251 18.0491 376.691V388.571H23.1791V375.601H25.1791V388.611C25.1791 390.751 23.8391 392.511 22.1891 392.511H7.5791V376.691C7.5791 375.251 8.7791 374.051 10.2491 374.051H15.3791ZM16.0091 377.951H9.5791V388.571H16.0091V377.951Z" fill="#B3B3B3"/>
<path d="M9.5491 403.869V406.009H7.5791V400.879C7.5791 399.399 8.7391 398.209 10.2191 398.209H23.0491V394.309H25.0491V398.209H30.7791V402.109H25.0491V406.009H23.0491V402.109H11.3391C10.3591 402.109 9.5491 402.919 9.5491 403.869Z" fill="#B3B3B3"/>
<path d="M22.5191 408.121C23.9991 408.121 25.1891 409.321 25.1891 410.791V423.941C25.1891 425.421 23.9891 426.611 22.5191 426.611H14.8191V412.061H9.5491V426.301H7.5791V410.801C7.5791 409.321 8.7791 408.131 10.2491 408.131H22.5191V408.121ZM23.2591 412.061H16.8591V422.681H23.2591V412.061Z" fill="#B3B3B3"/>
<path d="M30.7891 0V17.93C30.7891 19.58 29.4591 20.95 27.7691 20.95H20.8391L20.6991 21.09C20.1391 21.83 19.2591 22.21 18.3391 22.21H10.4291C8.73914 22.21 7.36914 20.84 7.36914 19.19V0H30.7791H30.7891ZM17.3991 16.52V4.85H10.7891V16.52C10.7891 17.01 11.1791 17.4 11.6691 17.4H16.5591C17.0191 17.4 17.3991 17.01 17.3991 16.52ZM20.7691 15.25C20.7691 15.71 21.1591 16.13 21.6491 16.13H26.5391C27.0291 16.13 27.4191 15.71 27.4191 15.25V4.85H20.7791V15.25H20.7691Z" fill="#B3B3B3"/>
<path d="M15.4989 25.0295C17.2189 25.0295 18.6289 26.4395 18.6289 28.1595V39.1595H22.5689V26.5395H25.5889V39.7195C25.5889 42.1095 24.0389 44.0395 22.1389 44.0395H7.37891V28.1495C7.37891 26.4295 8.78891 25.0195 10.5089 25.0195H15.4989V25.0295ZM15.5689 39.1595V29.9195H10.3989V39.1595H15.5689Z" fill="#B3B3B3"/>
<path d="M22.4589 72.7109H7.37891V67.7909H22.5689V62.2409H7.37891V57.3509H22.5289V51.8009H7.37891V46.8809H25.5889V69.5909C25.5889 71.3109 24.1789 72.7209 22.4589 72.7209V72.7109Z" fill="#B3B3B3"/>
<path d="M31.1487 75.1699V80.0899H25.5987V91.0599C25.5987 92.8199 24.1887 94.2199 22.4687 94.2199H10.5187C8.79867 94.2199 7.38867 92.8099 7.38867 91.0599V75.1699H31.1487ZM22.5687 89.2999V80.0899H10.4387V89.2999H22.5687Z" fill="#B3B3B3"/>
<path d="M25.5889 115.109H7.37891V99.7495C7.37891 98.0595 8.74891 96.6895 10.4389 96.6895H25.5889V101.439H10.2989V110.399H25.5889V115.109Z" fill="#B3B3B3"/>
</g>
</g>
<defs>
<clipPath id="clip0_19344_57028">
<rect width="31" height="732" fill="white" transform="translate(0.548828)"/>
</clipPath>
<clipPath id="clip1_19344_57028">
<rect width="31" height="427" fill="white" transform="translate(0.548828)"/>
</clipPath>
</defs>
</svg>
