<svg width="32" height="733" viewBox="0 0 32 733" fill="none" xmlns="http://www.w3.org/2000/svg">
<g clip-path="url(#clip0_19344_57080)">
<g clip-path="url(#clip1_19344_57080)">
<path d="M7.21777 137.158H27.9878V128.898H30.4178V149.318H27.9878V141.058H7.21777V137.158Z" fill="#B3B3B3"/>
<path d="M22.1578 151.428C23.6378 151.428 24.8278 152.628 24.8278 154.098V167.248C24.8278 168.728 23.6378 169.918 22.1578 169.918H14.4578V155.368H9.17777V169.608H7.21777V154.108C7.21777 152.628 8.41777 151.438 9.88777 151.438H22.1578V151.428ZM22.8978 155.368H16.4978V165.988H22.8978V155.368Z" fill="#B3B3B3"/>
<path d="M7.21777 186.128L13.2978 181.488L7.21777 176.848V172.738L15.7978 179.308L16.0078 179.448L24.8278 172.738V176.818L18.7178 181.498L24.8278 186.168V190.278L16.2178 183.668L16.0078 183.528L7.21777 190.238V186.128Z" fill="#B3B3B3"/>
<path d="M9.17777 201.958V204.098H7.21777V198.968C7.21777 197.488 8.37777 196.298 9.85777 196.298H22.6878V192.398H24.6878V196.298H30.4178V200.198H24.6878V204.098H22.6878V200.198H10.9778C9.98777 200.198 9.18777 201.008 9.18777 201.958H9.17777Z" fill="#B3B3B3"/>
<path d="M7.21777 224.388V209.138C7.21777 207.728 8.37777 206.568 9.78777 206.568H24.8278V210.368H9.14777V220.598H24.8278V224.398H7.21777V224.388Z" fill="#B3B3B3"/>
<path d="M24.5078 235.609V238.599H20.6778V230.689H7.21777V226.859H24.4778V230.689H20.7178L22.5078 231.849C23.7678 232.689 24.5078 234.099 24.5078 235.609Z" fill="#B3B3B3"/>
<path d="M22.1578 241.059C23.6378 241.059 24.8278 242.259 24.8278 243.729V256.879C24.8278 258.359 23.6378 259.549 22.1578 259.549H14.4578V244.999H9.17777V259.239H7.21777V243.739C7.21777 242.259 8.41777 241.069 9.88777 241.069H22.1578V241.059ZM22.8978 244.999H16.4978V255.619H22.8978V244.999Z" fill="#B3B3B3"/>
<path d="M22.0478 262.369C23.5278 262.369 24.7178 263.569 24.7178 265.009V276.819H30.4078V280.719H7.21777V265.009C7.21777 263.569 8.37777 262.369 9.85777 262.369H22.0578H22.0478ZM22.7178 276.819V266.269H9.17777V276.819H22.7078H22.7178Z" fill="#B3B3B3"/>
<path d="M30.4178 294.078V313.378C30.4178 314.818 29.2578 315.978 27.8178 315.978H17.6578C16.2178 315.978 15.0578 314.818 15.0578 313.378V297.948H7.21777V294.078H30.4178ZM18.9178 312.078L26.5478 312.038C27.3578 312.038 27.9878 311.408 27.9878 310.598V297.938H17.4378V310.598C17.4378 311.408 18.1078 312.078 18.9178 312.078Z" fill="#B3B3B3"/>
<path d="M30.4178 318.799V336.309H27.9878V324.179C27.9878 323.369 27.3178 322.739 26.5478 322.739H20.3978V336.309H18.0078V324.179C18.0078 323.369 17.3378 322.739 16.5278 322.739H9.60777V336.309H7.21777V318.799H30.4178Z" fill="#B3B3B3"/>
<path d="M30.4178 339.818V343.718H7.21777V339.818H30.4178Z" fill="#B3B3B3"/>
<path d="M30.4178 357.088V376.388C30.4178 377.828 29.2578 378.988 27.8178 378.988H17.6578C16.2178 378.988 15.0578 377.828 15.0578 376.388V360.958H7.21777V357.088H30.4178ZM18.9178 375.088L26.5478 375.048C27.3578 375.048 27.9878 374.418 27.9878 373.608V360.948H17.4378V373.608C17.4378 374.418 18.1078 375.088 18.9178 375.088Z" fill="#B3B3B3"/>
<path d="M9.91777 381.809H30.6578V385.749H9.24777V390.809H7.21777V384.479C7.21777 382.999 8.44777 381.809 9.92777 381.809H9.91777Z" fill="#B3B3B3"/>
<path d="M15.0178 393.619C16.4978 393.619 17.6878 394.819 17.6878 396.259V408.139H22.8178V395.169H24.8178V408.179C24.8178 410.319 23.4878 412.079 21.8278 412.079H7.21777V396.259C7.21777 394.819 8.41777 393.619 9.88777 393.619H15.0178ZM15.6478 397.519H9.21777V408.129H15.6478V397.519Z" fill="#B3B3B3"/>
<path d="M9.17777 423.429V425.569H7.21777V420.439C7.21777 418.959 8.37777 417.769 9.85777 417.769H22.6878V413.869H24.6878V417.769H30.4178V421.669H24.6878V425.569H22.6878V421.669H10.9778C9.98777 421.669 9.18777 422.479 9.18777 423.429H9.17777Z" fill="#B3B3B3"/>
<path d="M22.1578 427.688C23.6378 427.688 24.8278 428.887 24.8278 430.357V443.507C24.8278 444.987 23.6378 446.177 22.1578 446.177H14.4578V431.628H9.17777V445.867H7.21777V430.367C7.21777 428.887 8.41777 427.697 9.88777 427.697H22.1578V427.688ZM22.8978 431.628H16.4978V442.247H22.8978V431.628Z" fill="#B3B3B3"/>
<path d="M30.4276 0.898438V18.8284C30.4276 20.4784 29.0876 21.8484 27.4076 21.8484H20.4776L20.3376 21.9884C19.7776 22.7284 18.8976 23.1084 17.9776 23.1084H10.0776C8.38758 23.1084 7.01758 21.7384 7.01758 20.0884V0.898438H30.4276ZM17.0376 17.4184V5.74844H10.4276V17.4184C10.4276 17.9084 10.8176 18.2984 11.3076 18.2984H16.1876C16.6476 18.2984 17.0276 17.9084 17.0276 17.4184H17.0376ZM20.4076 16.1484C20.4076 16.6084 20.7976 17.0284 21.2876 17.0284H26.1776C26.6676 17.0284 27.0576 16.6084 27.0576 16.1484V5.74844H20.4176V16.1484H20.4076Z" fill="#B3B3B3"/>
<path d="M15.1376 25.928C16.8576 25.928 18.2676 27.338 18.2676 29.058V40.058H22.2076V27.438H25.2276V40.618C25.2276 43.008 23.6876 44.938 21.7876 44.938H7.01758V29.048C7.01758 27.328 8.42758 25.918 10.1476 25.918H15.1376V25.928ZM15.2076 40.058V30.818H10.0376V40.058H15.2076Z" fill="#B3B3B3"/>
<path d="M22.0976 73.6093H7.01758V68.6893H22.2076V63.1393H7.01758V58.2493H22.1676V52.6993H7.01758V47.7793H25.2276V70.4893C25.2276 72.2093 23.8176 73.6193 22.0976 73.6193V73.6093Z" fill="#B3B3B3"/>
<path d="M30.7776 76.0684V80.9884H25.2176V91.9584C25.2176 93.7184 23.8076 95.1184 22.0876 95.1184H10.1476C8.42758 95.1184 7.01758 93.7084 7.01758 91.9584V76.0684H30.7776ZM22.1976 90.1984V80.9884H10.0776V90.1984H22.2076H22.1976Z" fill="#B3B3B3"/>
<path d="M25.2276 116.008H7.01758V100.648C7.01758 98.9579 8.38758 97.5879 10.0776 97.5879H25.2276V102.338H9.93758V111.298H25.2276V116.008Z" fill="#B3B3B3"/>
</g>
</g>
<defs>
<clipPath id="clip0_19344_57080">
<rect width="31" height="732" fill="white" transform="translate(0.548828 0.898438)"/>
</clipPath>
<clipPath id="clip1_19344_57080">
<rect width="31" height="445" fill="white" transform="translate(0.548828 0.898438)"/>
</clipPath>
</defs>
</svg>
