<svg width="31" height="732" viewBox="0 0 31 732" fill="none" xmlns="http://www.w3.org/2000/svg">
<g clip-path="url(#clip0_19344_57129)">
<path d="M16.8713 151.471H9.63538C8.17297 151.471 7 150.298 7 148.835V130.068H9.42211V146.063C9.42211 146.84 10.199 147.525 11.0216 147.525H15.6221C16.399 147.525 17.0845 146.855 17.0845 146.033V131.82C17.115 130.388 18.288 129.215 19.7199 129.215H27.8698C29.3017 129.215 30.5052 130.418 30.5052 131.926V150.618H28.0526V134.699C28.0526 133.922 27.3823 133.236 26.5902 133.236H20.9995C20.1769 133.236 19.5066 133.907 19.5066 134.699V148.835C19.5066 150.298 18.3337 151.471 16.8713 151.471Z" fill="#B3B3B3"/>
<path d="M24.854 154.334V177.413C24.854 178.875 23.6505 180.124 22.1424 180.124H7.01562V176.133L22.4775 176.103H22.8279V169.187H7.01562V165.241H22.7974V158.295H7.01562V154.349H24.854V154.334Z" fill="#B3B3B3"/>
<path d="M22.2486 182.973C23.6806 182.973 24.8536 184.146 24.8536 185.578V198.435C24.8536 199.897 23.6806 201.07 22.2486 201.07H9.60491C8.17297 201.07 7 199.897 7 198.435V185.578C7 184.146 8.17297 182.973 9.60491 182.973H22.2486ZM22.8885 186.781H8.96511V197.216H22.8885V186.781Z" fill="#B3B3B3"/>
<path d="M22.2486 203.92C23.6806 203.92 24.8536 205.093 24.8536 206.525V219.382C24.8536 220.844 23.6806 222.017 22.2486 222.017H9.60491C8.17297 222.017 7 220.844 7 219.382V206.525C7 205.108 8.17297 203.92 9.60491 203.92H22.2486ZM22.8885 207.728H8.96511V218.163H22.8885V207.728Z" fill="#B3B3B3"/>
<path d="M8.99558 234.189V236.367H7V231.173C7 229.68 8.17297 228.461 9.66585 228.461H22.6599V224.516H24.686V228.461H30.4899V232.407H24.686V236.352H22.6599V232.407H10.8084C9.81818 232.407 8.99558 233.229 8.99558 234.189Z" fill="#B3B3B3"/>
<path d="M30.3989 238.85V242.795H24.6712V254.723C24.6712 256.216 23.4677 257.389 22.0053 257.389H7.01562V253.474H22.6451V242.795H7.01562V238.85H30.4142H30.3989Z" fill="#B3B3B3"/>
<path d="M30.5052 270.947V290.492C30.5052 291.954 29.3322 293.127 27.8698 293.127H17.572C16.1096 293.127 14.9366 291.954 14.9366 290.492V274.862H7V270.947H30.5052ZM18.8668 289.182L26.5902 289.151C27.4128 289.151 28.0526 288.511 28.0526 287.689V274.862H17.374V287.689C17.374 288.511 18.0442 289.182 18.8668 289.182Z" fill="#B3B3B3"/>
<path d="M30.5055 295.99V313.722H28.053V301.444C28.053 300.621 27.3827 299.981 26.5906 299.981H20.3601V313.722H17.938V301.444C17.938 300.621 17.2677 299.981 16.4451 299.981H9.43774V313.722H7.01562V295.99H30.5208H30.5055Z" fill="#B3B3B3"/>
<path d="M30.5055 317.287V321.233H7.01562V317.287H30.5208H30.5055Z" fill="#B3B3B3"/>
<path d="M30.5052 334.775V354.32C30.5052 355.782 29.3322 356.955 27.8698 356.955H17.572C16.1096 356.955 14.9366 355.782 14.9366 354.32V338.69H7V334.775H30.5052ZM18.8668 353.01L26.5902 352.979C27.4128 352.979 28.0526 352.34 28.0526 351.517V338.69H17.374V351.517C17.374 352.34 18.0442 353.01 18.8668 353.01Z" fill="#B3B3B3"/>
<path d="M9.75725 359.816H30.7641V363.808H9.07174V368.941H7V362.528C7 361.035 8.24914 359.816 9.74201 359.816H9.75725Z" fill="#B3B3B3"/>
<path d="M14.9065 371.793C16.3994 371.793 17.6181 372.996 17.6181 374.458V386.493H22.8127V373.346H24.8387V386.523C24.8387 388.702 23.4829 390.469 21.8073 390.469H7.01562V374.443C7.01562 372.981 8.21907 371.777 9.72717 371.777H14.9218L14.9065 371.793ZM15.5616 375.738H9.04167V386.493H15.5616V375.738Z" fill="#B3B3B3"/>
<path d="M8.99558 402.669V404.848H7V399.653C7 398.16 8.17297 396.942 9.66585 396.942H22.6599V392.996H24.686V396.942H30.4899V400.887H24.686V404.832H22.6599V400.887H10.8084C9.81818 400.887 8.99558 401.71 8.99558 402.669Z" fill="#B3B3B3"/>
<path d="M22.142 407.332C23.6349 407.332 24.8536 408.535 24.8536 410.044V423.358C24.8536 424.85 23.6501 426.069 22.142 426.069H14.3425V411.323H8.99558V425.749H7V410.044C7 408.551 8.20344 407.332 9.71155 407.332H22.142ZM22.8885 411.323H16.4143V422.078H22.8885V411.323Z" fill="#B3B3B3"/>
<path d="M30.3993 -0.0957031V17.8182C30.3993 19.4714 29.0618 20.8389 27.3786 20.8389H20.4505L20.3152 20.9742C19.7592 21.7106 18.8725 22.1013 17.9557 22.1013H10.0508C8.36759 22.1013 7 20.7337 7 19.0806V-0.0957031H30.3993ZM17.024 16.4206V4.75849H10.4265V16.4206C10.4265 16.9165 10.8172 17.2922 11.2981 17.2922H16.1824C16.6332 17.2922 17.024 16.9015 17.024 16.4206ZM20.3904 15.1582C20.3904 15.609 20.7811 16.0298 21.262 16.0298H26.1463C26.6422 16.0298 27.0179 15.609 27.0179 15.1582V4.75849H20.3753V15.1582H20.3904Z" fill="#B3B3B3"/>
<path d="M15.13 24.9258C16.8583 24.9258 18.2559 26.3385 18.2559 28.0517V39.0525H22.1934V26.4437H25.2141V39.6236C25.2141 42.0131 23.6662 43.9518 21.7726 43.9518H7.01465V28.0667C7.01465 26.3385 8.42732 24.9408 10.1406 24.9408H15.13V24.9258ZM15.1901 39.0525V29.81H10.0203V39.0525H15.1901Z" fill="#B3B3B3"/>
<path d="M22.0732 72.5675H7.01465V67.6532H22.1934V62.1077H7.01465V57.2235H22.1633V51.678H7.01465V46.7637H25.2141V69.4566C25.2141 71.1849 23.8014 72.5826 22.0882 72.5826L22.0732 72.5675Z" fill="#B3B3B3"/>
<path d="M30.7596 75.0307V79.945H25.2141V90.9007C25.2141 92.659 23.8014 94.0567 22.0882 94.0567H10.1406C8.4123 94.0567 7.01465 92.659 7.01465 90.9007V75.0156H30.7596V75.0307ZM22.1784 89.1574V79.96H10.0654V89.1574H22.1784Z" fill="#B3B3B3"/>
<path d="M25.1991 114.947H7.01465V99.5879C7.01465 97.9047 8.38224 96.5371 10.0654 96.5371H25.2141V101.286H9.93017V110.243H25.2141V114.947H25.1991Z" fill="#B3B3B3"/>
<path d="M17.9903 456.352H7.12891V452.438H30.6341V456.352H20.4124V468.463H30.6341V472.409H7.12891V468.463H17.9903V456.352Z" fill="#B3B3B3"/>
<path d="M24.8606 475.258V479.203H7.12891V475.258H24.8606ZM30.6188 475.258V479.203H28.5928V475.258H30.6188Z" fill="#B3B3B3"/>
<path d="M22.0732 482.066C22.7892 482.066 23.4595 482.355 23.9622 482.843C24.4649 483.346 24.7391 484.016 24.7391 484.732V498.899C24.7391 500.361 23.5356 501.565 22.0732 501.565H2.66585C1.20344 501.565 0 500.361 0 498.899V482.371H2.02604V497.619H7.08354V484.762C7.08354 483.269 8.25651 482.051 9.74939 482.051H22.0732V482.066ZM22.6826 497.619V486.042L9.07911 486.011V497.619H22.6826Z" fill="#B3B3B3"/>
<path d="M30.5122 504.43V508.375H24.7844V520.303C24.7844 521.796 23.581 522.969 22.1186 522.969H7.12891V519.054H22.7584V508.375H7.12891V504.43H30.5274H30.5122Z" fill="#B3B3B3"/>
<path d="M7.12891 544.887H28.1815V536.523H30.6341V557.21H28.1815V548.847H7.12891V544.902V544.887Z" fill="#B3B3B3"/>
<path d="M22.2563 559.359C23.7491 559.359 24.9678 560.563 24.9678 562.071V575.385C24.9678 576.878 23.7644 578.097 22.2563 578.097H14.4568V563.351H9.10984V577.777H7.11426V562.071C7.11426 560.578 8.3177 559.359 9.82581 559.359H22.2563ZM23.0027 563.351H16.5285V574.105H23.0027V563.351Z" fill="#B3B3B3"/>
<path d="M24.9672 580.945V604.024C24.9672 605.486 23.7638 606.735 22.2557 606.735H7.12891V602.744L22.5908 602.714H22.9412V595.798H7.12891V591.852H22.9107V584.906H7.12891V580.961H24.9672V580.945Z" fill="#B3B3B3"/>
<path d="M24.7543 609.586V625.474C24.7543 626.967 23.5509 628.14 22.0428 628.14H9.71892C8.25651 628.14 7.05307 626.967 7.05307 625.474V613.547H0V609.601H24.7543V609.586ZM22.713 613.531H9.04865V624.21H22.7283V613.531H22.713Z" fill="#B3B3B3"/>
<path d="M30.6194 641.68V661.224C30.6194 662.687 29.4464 663.86 27.984 663.86H17.6862C16.2238 663.86 15.0509 662.687 15.0509 661.224V645.595H7.11426V641.68H30.6194ZM18.9811 659.914L26.7044 659.884C27.527 659.884 28.1668 659.244 28.1668 658.421V645.595H17.4882V658.421C17.4882 659.244 18.1585 659.914 18.9811 659.914Z" fill="#B3B3B3"/>
<path d="M9.87151 666.727H30.8784V670.718H9.186V675.851H7.11426V669.438C7.11426 667.945 8.3634 666.727 9.85627 666.727H9.87151Z" fill="#B3B3B3"/>
<path d="M15.0198 678.699C16.5127 678.699 17.7314 679.902 17.7314 681.365V693.399H22.926V680.253H24.952V693.43C24.952 695.608 23.5962 697.375 21.9206 697.375H7.12891V681.349C7.12891 679.887 8.33235 678.684 9.84045 678.684H15.035L15.0198 678.699ZM15.6749 682.644H9.15495V693.399H15.6749V682.644Z" fill="#B3B3B3"/>
<path d="M9.10983 708.908V711.086H7.11426V705.891C7.11426 704.398 8.28723 703.18 9.78011 703.18H22.7742V699.234H24.8003V703.18H30.6042V707.125H24.8003V711.071H22.7742V707.125H10.9226C9.93244 707.125 9.10983 707.948 9.10983 708.908Z" fill="#B3B3B3"/>
<path d="M22.2563 713.219C23.7491 713.219 24.9678 714.422 24.9678 715.93V729.244C24.9678 730.737 23.7644 731.956 22.2563 731.956H14.4568V717.21H9.10984V731.636H7.11426V715.93C7.11426 714.437 8.3177 713.219 9.82581 713.219H22.2563ZM23.0027 717.21H16.5285V727.965H23.0027V717.21Z" fill="#B3B3B3"/>
<path d="M30.6188 443.526L7.12891 437.631V434.98L30.6188 440.861V443.526Z" fill="#B3B3B3"/>
</g>
<defs>
<clipPath id="clip0_19344_57129">
<rect width="31" height="732" fill="white"/>
</clipPath>
</defs>
</svg>
