<svg width="20" height="20" viewBox="0 0 20 20" fill="none" xmlns="http://www.w3.org/2000/svg">
<path d="M16.4465 10.6318C16.5864 10.4929 16.6667 10.2984 16.6667 10.0947C16.6667 9.89097 16.5864 9.6996 16.4465 9.55762L11.2084 4.37211C10.9227 4.08814 10.4703 4.10049 10.1994 4.3968C9.92861 4.69312 9.93754 5.16228 10.2233 5.44316L14.1697 9.3539H4.04766C3.65183 9.3539 3.33337 9.68417 3.33337 10.0947C3.33337 10.5052 3.65183 10.8355 4.04766 10.8355H14.1697L10.2203 14.7431C9.93456 15.0271 9.92564 15.4932 10.1965 15.7895C10.4673 16.0858 10.9197 16.0951 11.2054 15.8142L16.4435 10.6287L16.4465 10.6318Z" fill="#262E30"/>
</svg>
