<svg width="20" height="20" viewBox="0 0 20 20" fill="none" xmlns="http://www.w3.org/2000/svg">
<path d="M7.43262 2.29773C10.2683 2.29773 12.5674 4.59651 12.5674 7.4325H17.7021V17.702H7.43262V12.5673C4.59695 12.5672 2.29787 10.2684 2.29785 7.4325C2.29785 4.59655 4.59693 2.29779 7.43262 2.29773ZM12.3682 8.84949C11.8821 10.546 10.5459 11.8819 8.84961 12.368V16.286H16.2852V8.84949H12.3682ZM7.43262 3.71472C5.37934 3.71478 3.71484 5.37902 3.71484 7.4325C3.71486 9.48595 5.37935 11.1502 7.43262 11.1503V7.4325H11.1504C11.1504 5.37898 9.48595 3.71472 7.43262 3.71472Z" fill="white"/>
</svg>
