<svg width="20" height="20" viewBox="0 0 20 20" fill="none" xmlns="http://www.w3.org/2000/svg">
<path d="M3.55361 10.5402C3.41373 10.3982 3.33337 10.2068 3.33337 10.0031C3.33337 9.79932 3.41373 9.60793 3.55361 9.46593L8.79171 4.27996C9.07742 3.99597 9.5298 4.00832 9.80064 4.30466C10.0715 4.601 10.0625 5.07021 9.77683 5.35111L5.8304 9.2622H15.9524C16.3483 9.2622 16.6667 9.59249 16.6667 10.0031C16.6667 10.4136 16.3483 10.7439 15.9524 10.7439H5.8304L9.7798 14.6519C10.0655 14.9359 10.0744 15.402 9.80361 15.6984C9.53278 15.9947 9.0804 16.004 8.79468 15.7231L3.55659 10.5371L3.55361 10.5402Z" fill="#262E30"/>
</svg>
