<svg width="20" height="20" viewBox="0 0 20 20" fill="none" xmlns="http://www.w3.org/2000/svg">
<path fill-rule="evenodd" clip-rule="evenodd" d="M13.1694 2.82935C13.4639 2.57187 13.9114 2.60192 14.1688 2.89648L17.4294 6.62685C18.0654 7.35443 17.5487 8.49242 16.5824 8.49242H2.50008C2.10888 8.49242 1.79175 8.17526 1.79175 7.78402C1.79175 7.39279 2.10888 7.07563 2.50008 7.07563H15.9401L13.1022 3.82893C12.8448 3.53437 12.8748 3.08684 13.1694 2.82935Z" fill="#00AE42"/>
<path fill-rule="evenodd" clip-rule="evenodd" d="M6.83099 17.1706C6.53645 17.4281 6.08897 17.398 5.83151 17.1034L2.57091 13.3731C1.93495 12.6455 2.45162 11.5075 3.41791 11.5075L17.5003 11.5075C17.8915 11.5075 18.2086 11.8247 18.2086 12.2159C18.2086 12.6071 17.8915 12.9243 17.5003 12.9243L4.06027 12.9243L6.89811 16.171C7.15557 16.4656 7.12552 16.9131 6.83099 17.1706Z" fill="#00AE42"/>
</svg>
