<svg width="16" height="16" viewBox="0 0 16 16" fill="none" xmlns="http://www.w3.org/2000/svg">
<path d="M12.6667 8C12.6667 8.13261 12.614 8.25979 12.5202 8.35355C12.4265 8.44732 12.2993 8.5 12.1667 8.5H2.5C2.36739 8.5 2.24022 8.44732 2.14645 8.35355C2.05268 8.25979 2 8.13261 2 8C2 7.86739 2.05268 7.74022 2.14645 7.64645C2.24022 7.55268 2.36739 7.5 2.5 7.5H12.1667C12.2993 7.5 12.4265 7.55268 12.5202 7.64645C12.614 7.74022 12.6667 7.86739 12.6667 8ZM2.5 4.5H12.1667C12.2993 4.5 12.4265 4.44732 12.5202 4.35355C12.614 4.25979 12.6667 4.13261 12.6667 4C12.6667 3.86739 12.614 3.74021 12.5202 3.64645C12.4265 3.55268 12.2993 3.5 12.1667 3.5H2.5C2.36739 3.5 2.24022 3.55268 2.14645 3.64645C2.05268 3.74021 2 3.86739 2 4C2 4.13261 2.05268 4.25979 2.14645 4.35355C2.24022 4.44732 2.36739 4.5 2.5 4.5ZM8 11.5H2.5C2.36739 11.5 2.24022 11.5527 2.14645 11.6464C2.05268 11.7402 2 11.8674 2 12C2 12.1326 2.05268 12.2598 2.14645 12.3536C2.24022 12.4473 2.36739 12.5 2.5 12.5H8C8.13261 12.5 8.25979 12.4473 8.35355 12.3536C8.44732 12.2598 8.5 12.1326 8.5 12C8.5 11.8674 8.44732 11.7402 8.35355 11.6464C8.25979 11.5527 8.13261 11.5 8 11.5ZM13.1463 10.6463L11.5 12.2931L10.8538 11.6463C10.8073 11.5998 10.7521 11.5629 10.6915 11.5378C10.6308 11.5127 10.5657 11.4997 10.5 11.4997C10.4343 11.4997 10.3693 11.5127 10.3086 11.5378C10.2479 11.5629 10.1927 11.5998 10.1463 11.6463C10.0998 11.6927 10.0629 11.7479 10.0378 11.8086C10.0127 11.8692 9.99972 11.9343 9.99972 12C9.99972 12.0657 10.0127 12.1308 10.0378 12.1914C10.0629 12.2521 10.0998 12.3073 10.1463 12.3538L11.1463 13.3538C11.1927 13.4002 11.2478 13.4371 11.3085 13.4623C11.3692 13.4874 11.4343 13.5004 11.5 13.5004C11.5657 13.5004 11.6308 13.4874 11.6915 13.4623C11.7522 13.4371 11.8073 13.4002 11.8538 13.3538L13.8538 11.3538C13.9476 11.2599 14.0003 11.1327 14.0003 11C14.0003 10.8673 13.9476 10.7401 13.8538 10.6463C13.7599 10.5524 13.6327 10.4997 13.5 10.4997C13.3673 10.4997 13.2401 10.5524 13.1463 10.6463Z" fill="black"/>
</svg>
