<svg width="20" height="20" viewBox="0 0 20 20" fill="none" xmlns="http://www.w3.org/2000/svg">
<path d="M8.40778 4.01172L7.8423 4.84375H12.1578L11.5923 4.01172C11.5477 3.94727 11.4733 3.90625 11.3929 3.90625H8.60421C8.52385 3.90625 8.44945 3.94434 8.4048 4.01172H8.40778ZM12.7828 3.23242L13.875 4.84375H14.2858H15.7143H15.9524C16.3483 4.84375 16.6667 5.15723 16.6667 5.54688C16.6667 5.93652 16.3483 6.25 15.9524 6.25H15.7143V15.1562C15.7143 16.4512 14.6489 17.5 13.3334 17.5H6.66671C5.35123 17.5 4.28575 16.4512 4.28575 15.1562V6.25H4.04766C3.65183 6.25 3.33337 5.93652 3.33337 5.54688C3.33337 5.15723 3.65183 4.84375 4.04766 4.84375H4.28575H5.71433H6.12504L7.2173 3.22949C7.52683 2.77539 8.04766 2.5 8.60421 2.5H11.3929C11.9494 2.5 12.4703 2.77539 12.7798 3.22949L12.7828 3.23242ZM5.71433 6.25V15.1562C5.71433 15.6748 6.13992 16.0938 6.66671 16.0938H13.3334C13.8602 16.0938 14.2858 15.6748 14.2858 15.1562V6.25H5.71433ZM8.09528 8.125V14.2188C8.09528 14.4766 7.88099 14.6875 7.61909 14.6875C7.35718 14.6875 7.1429 14.4766 7.1429 14.2188V8.125C7.1429 7.86719 7.35718 7.65625 7.61909 7.65625C7.88099 7.65625 8.09528 7.86719 8.09528 8.125ZM10.4762 8.125V14.2188C10.4762 14.4766 10.2619 14.6875 10 14.6875C9.73814 14.6875 9.52385 14.4766 9.52385 14.2188V8.125C9.52385 7.86719 9.73814 7.65625 10 7.65625C10.2619 7.65625 10.4762 7.86719 10.4762 8.125ZM12.8572 8.125V14.2188C12.8572 14.4766 12.6429 14.6875 12.381 14.6875C12.1191 14.6875 11.9048 14.4766 11.9048 14.2188V8.125C11.9048 7.86719 12.1191 7.65625 12.381 7.65625C12.6429 7.65625 12.8572 7.86719 12.8572 8.125Z" fill="#262E30"/>
</svg>
