<svg width="17" height="17" viewBox="0 0 17 17" fill="none" xmlns="http://www.w3.org/2000/svg">
<rect width="16.439" height="16.439" rx="8" fill="#19191B"/>
<path d="M12.8486 3.75732C13.0969 3.75753 13.2976 3.95833 13.2979 4.20654V7.91748C13.0766 7.82572 12.8425 7.75787 12.5986 7.72021V4.45654H6.03809V5.37451C6.03805 5.66294 5.77063 5.87644 5.48926 5.81299L3.65625 5.3999V9.95459L5.47461 9.47998L5.58105 9.46533C5.82532 9.46076 6.03809 9.65773 6.03809 9.91553V10.9136H9.0791C9.09264 11.1553 9.13464 11.3893 9.20117 11.6128H5.78809C5.53987 11.6126 5.33908 11.4118 5.33887 11.1636V10.2378L3.52051 10.7134C3.23536 10.7879 2.95703 10.5725 2.95703 10.2778V5.0874C2.95706 4.83498 3.1616 4.63953 3.40137 4.63721L3.50586 4.64893L5.33887 5.06104V4.20654C5.33908 3.95833 5.53987 3.75754 5.78809 3.75732H12.8486Z" fill="#DBDBDD"/>
<path d="M10.1562 11.5513C10.1562 11.358 10.3126 11.2007 10.5059 11.2007C10.6992 11.2007 10.8555 11.358 10.8555 11.5513V12.0122H11.3174C11.5104 12.0124 11.6669 12.1687 11.667 12.3618C11.667 12.555 11.5105 12.7122 11.3174 12.7124H10.6055C10.3572 12.7122 10.1564 12.5105 10.1562 12.2622V11.5513ZM10.1562 9.9292V9.21729C10.1565 8.96907 10.3573 8.76828 10.6055 8.76807H11.3174C11.5105 8.76831 11.667 8.92453 11.667 9.11768C11.667 9.31083 11.5105 9.46704 11.3174 9.46729H10.8555V9.9292C10.8552 10.1223 10.699 10.2788 10.5059 10.2788C10.3127 10.2788 10.1565 10.1223 10.1562 9.9292ZM14.1006 12.2622C14.1005 12.5106 13.8987 12.7123 13.6504 12.7124H12.9395C12.7462 12.7124 12.5889 12.5551 12.5889 12.3618C12.589 12.1686 12.7462 12.0122 12.9395 12.0122H13.4004V11.5513C13.4004 11.358 13.5568 11.2008 13.75 11.2007C13.9433 11.2007 14.1006 11.358 14.1006 11.5513V12.2622ZM14.1006 9.9292C14.1003 10.1223 13.9432 10.2788 13.75 10.2788C13.5569 10.2787 13.4006 10.1222 13.4004 9.9292V9.46729H12.9395C12.7462 9.46729 12.5889 9.31098 12.5889 9.11768C12.5889 8.92438 12.7462 8.76807 12.9395 8.76807H13.6504C13.8987 8.76819 14.1004 8.96901 14.1006 9.21729V9.9292Z" fill="#DBDBDD"/>
</svg>
