<svg width="17" height="17" viewBox="0 0 17 17" fill="none" xmlns="http://www.w3.org/2000/svg">
<rect width="16.439" height="16.439" rx="8" fill="white"/>
<path d="M12.8481 3.75684C13.0964 3.75705 13.2972 3.95784 13.2974 4.20605V7.91699C13.0761 7.82523 12.8421 7.75738 12.5981 7.71973V4.45605H6.0376V5.37402C6.03756 5.66246 5.77015 5.87595 5.48877 5.8125L3.65576 5.39941V9.9541L5.47412 9.47949L5.58057 9.46484C5.82483 9.46027 6.0376 9.65724 6.0376 9.91504V10.9131H9.07861C9.09216 11.1548 9.13415 11.3888 9.20068 11.6123H5.7876C5.53938 11.6121 5.33859 11.4113 5.33838 11.1631V10.2373L3.52002 10.7129C3.23488 10.7874 2.95654 10.5721 2.95654 10.2773V5.08691C2.95658 4.8345 3.16111 4.63904 3.40088 4.63672L3.50537 4.64844L5.33838 5.06055V4.20605C5.33859 3.95784 5.53938 3.75705 5.7876 3.75684H12.8481Z" fill="#00AE42"/>
<path d="M10.1562 11.5508C10.1562 11.3575 10.3126 11.2002 10.5059 11.2002C10.6992 11.2002 10.8555 11.3575 10.8555 11.5508V12.0117H11.3174C11.5104 12.012 11.6669 12.1683 11.667 12.3613C11.667 12.5545 11.5105 12.7117 11.3174 12.7119H10.6055C10.3572 12.7117 10.1564 12.51 10.1562 12.2617V11.5508ZM10.1562 9.92871V9.2168C10.1565 8.96858 10.3573 8.76779 10.6055 8.76758H11.3174C11.5105 8.76782 11.667 8.92404 11.667 9.11719C11.667 9.31034 11.5105 9.46655 11.3174 9.4668H10.8555V9.92871C10.8552 10.1218 10.699 10.2783 10.5059 10.2783C10.3127 10.2783 10.1565 10.1218 10.1562 9.92871ZM14.1006 12.2617C14.1005 12.5101 13.8987 12.7118 13.6504 12.7119H12.9395C12.7462 12.7119 12.5889 12.5546 12.5889 12.3613C12.589 12.1681 12.7462 12.0117 12.9395 12.0117H13.4004V11.5508C13.4004 11.3575 13.5568 11.2003 13.75 11.2002C13.9433 11.2002 14.1006 11.3575 14.1006 11.5508V12.2617ZM14.1006 9.92871C14.1003 10.1218 13.9432 10.2783 13.75 10.2783C13.5569 10.2782 13.4006 10.1218 13.4004 9.92871V9.4668H12.9395C12.7462 9.4668 12.5889 9.31049 12.5889 9.11719C12.5889 8.92389 12.7462 8.76758 12.9395 8.76758H13.6504C13.8987 8.7677 14.1004 8.96852 14.1006 9.2168V9.92871Z" fill="#00AE42"/>
</svg>
