<svg width="17" height="17" viewBox="0 0 17 17" fill="none" xmlns="http://www.w3.org/2000/svg">
<rect width="16.439" height="16.439" rx="8" fill="white"/>
<path d="M12.8481 3.75732C13.0964 3.75753 13.2972 3.95833 13.2974 4.20654V7.91748C13.0761 7.82572 12.8421 7.75787 12.5981 7.72021V4.45654H6.0376V5.37451C6.03756 5.66294 5.77015 5.87644 5.48877 5.81299L3.65576 5.3999V9.95459L5.47412 9.47998L5.58057 9.46533C5.82483 9.46076 6.0376 9.65773 6.0376 9.91553V10.9136H9.07861C9.09216 11.1553 9.13415 11.3893 9.20068 11.6128H5.7876C5.53938 11.6126 5.33859 11.4118 5.33838 11.1636V10.2378L3.52002 10.7134C3.23488 10.7879 2.95654 10.5725 2.95654 10.2778V5.0874C2.95658 4.83498 3.16111 4.63953 3.40088 4.63721L3.50537 4.64893L5.33838 5.06104V4.20654C5.33859 3.95833 5.53938 3.75754 5.7876 3.75732H12.8481Z" fill="#6B6B6B"/>
<path d="M10.1558 11.551C10.1558 11.3577 10.3121 11.2004 10.5054 11.2004C10.6987 11.2004 10.855 11.3577 10.855 11.551V12.012H11.3169C11.5099 12.0122 11.6664 12.1685 11.6665 12.3616C11.6665 12.5547 11.51 12.7119 11.3169 12.7122H10.605C10.3567 12.7119 10.1559 12.5103 10.1558 12.262V11.551ZM10.1558 9.92896V9.21704C10.156 8.96882 10.3568 8.76803 10.605 8.76782H11.3169C11.51 8.76806 11.6665 8.92428 11.6665 9.11743C11.6665 9.31058 11.51 9.4668 11.3169 9.46704H10.855V9.92896C10.8547 10.122 10.6985 10.2786 10.5054 10.2786C10.3122 10.2786 10.156 10.122 10.1558 9.92896ZM14.1001 12.262C14.1 12.5103 13.8982 12.712 13.6499 12.7122H12.939C12.7457 12.7122 12.5884 12.5549 12.5884 12.3616C12.5885 12.1683 12.7457 12.012 12.939 12.012H13.3999V11.551C13.3999 11.3578 13.5563 11.2005 13.7495 11.2004C13.9428 11.2004 14.1001 11.3577 14.1001 11.551V12.262ZM14.1001 9.92896C14.0999 10.122 13.9427 10.2786 13.7495 10.2786C13.5564 10.2785 13.4001 10.122 13.3999 9.92896V9.46704H12.939C12.7457 9.46704 12.5884 9.31073 12.5884 9.11743C12.5884 8.92413 12.7457 8.76782 12.939 8.76782H13.6499C13.8982 8.76795 14.0999 8.96877 14.1001 9.21704V9.92896Z" fill="#6B6B6B"/>
</svg>
