<svg width="12" height="13" viewBox="0 0 12 13" fill="none" xmlns="http://www.w3.org/2000/svg">
<path d="M6.00021 1.25223C6.72586 1.25247 7.31369 1.84098 7.31369 2.56669V4.74833H9.44455C9.95766 4.74843 10.3733 5.16489 10.3733 5.67802V6.44755C10.3733 6.96068 9.95766 7.37714 9.44455 7.37723H9.21408L10.1662 10.552C10.3447 11.1479 9.89862 11.747 9.27658 11.7474H2.72385C2.1016 11.7474 1.65482 11.148 1.83322 10.552L2.78635 7.37723H2.55588C2.04269 7.37723 1.62619 6.96074 1.62619 6.44755V5.67802C1.62619 5.16483 2.04269 4.74833 2.55588 4.74833H4.68576V2.56669C4.68576 1.84084 5.27436 1.25223 6.00021 1.25223ZM3.74142 7.37723C3.71984 7.37725 3.70075 7.39171 3.69455 7.41239L2.67697 10.805C2.66787 10.8362 2.69123 10.8675 2.72385 10.8675H4.26974L4.67404 8.56962C4.71636 8.33044 4.94454 8.17107 5.18381 8.21317C5.42311 8.25539 5.58335 8.48359 5.54123 8.72294L5.1633 10.8675H6.96994L6.59201 8.72294C6.54988 8.48353 6.71002 8.2553 6.94943 8.21317C7.1887 8.17111 7.4169 8.33043 7.4592 8.56962L7.86349 10.8675H9.27658C9.30899 10.8672 9.33162 10.8361 9.32248 10.805L8.3049 7.41239C8.29869 7.3917 8.27962 7.37723 8.25803 7.37723H3.74142ZM2.55588 5.62919C2.52887 5.62919 2.50705 5.65101 2.50705 5.67802V6.44755C2.50705 6.47456 2.52887 6.49735 2.55588 6.49735H9.44455C9.47148 6.49725 9.49338 6.4745 9.49338 6.44755V5.67802C9.49338 5.65107 9.47148 5.62929 9.44455 5.62919H2.55588ZM6.00021 2.13212C5.76054 2.13212 5.56564 2.32702 5.56564 2.56669V4.74833H6.43381V2.56669C6.43381 2.32716 6.23968 2.13235 6.00021 2.13212Z" fill="#262E30"/>
</svg>
