<svg width="12" height="13" viewBox="0 0 12 13" fill="none" xmlns="http://www.w3.org/2000/svg">
<path d="M6.00021 1.25223C6.72586 1.25246 7.31369 1.84098 7.31369 2.56668V4.74832H9.44455C9.95766 4.74842 10.3733 5.16488 10.3733 5.67801V6.44754C10.3733 6.96067 9.95766 7.37713 9.44455 7.37723H9.21408L10.1662 10.552C10.3447 11.1479 9.89862 11.747 9.27658 11.7473H2.72385C2.1016 11.7473 1.65482 11.148 1.83322 10.552L2.78635 7.37723H2.55588C2.04269 7.37723 1.62619 6.96073 1.62619 6.44754V5.67801C1.62619 5.16482 2.04269 4.74832 2.55588 4.74832H4.68576V2.56668C4.68576 1.84083 5.27436 1.25223 6.00021 1.25223ZM3.74142 7.37723C3.71984 7.37724 3.70075 7.39171 3.69455 7.41238L2.67697 10.805C2.66787 10.8362 2.69122 10.8675 2.72385 10.8675H4.26974L4.67404 8.56961C4.71636 8.33043 4.94454 8.17106 5.18381 8.21317C5.42311 8.25539 5.58335 8.48359 5.54123 8.72293L5.1633 10.8675H6.96994L6.59201 8.72293C6.54988 8.48352 6.71002 8.25529 6.94943 8.21317C7.1887 8.1711 7.4169 8.33043 7.4592 8.56961L7.86349 10.8675H9.27658C9.30899 10.8672 9.33162 10.8361 9.32248 10.805L8.3049 7.41238C8.29869 7.3917 8.27962 7.37723 8.25803 7.37723H3.74142ZM2.55588 5.62918C2.52887 5.62918 2.50705 5.651 2.50705 5.67801V6.44754C2.50705 6.47455 2.52887 6.49734 2.55588 6.49734H9.44455C9.47148 6.49725 9.49338 6.47449 9.49338 6.44754V5.67801C9.49338 5.65106 9.47148 5.62928 9.44455 5.62918H2.55588ZM6.00021 2.13211C5.76054 2.13211 5.56564 2.32701 5.56564 2.56668V4.74832H6.43381V2.56668C6.43381 2.32716 6.23968 2.13234 6.00021 2.13211Z" fill="#B0B0B2"/>
</svg>
