<svg width="20" height="20" viewBox="0 0 20 20" fill="none" xmlns="http://www.w3.org/2000/svg">
<rect width="20" height="20" rx="10" fill="#00AF42" fill-opacity="0.2"/>
<path d="M14.0828 8.14395L9.08284 13.144C9.0393 13.1877 8.98755 13.2223 8.93057 13.246C8.87359 13.2696 8.81251 13.2818 8.75081 13.2818C8.68912 13.2818 8.62803 13.2696 8.57105 13.246C8.51408 13.2223 8.46233 13.1877 8.41878 13.144L6.23128 10.9565C6.18768 10.9129 6.15309 10.8611 6.12949 10.8041C6.1059 10.7471 6.09375 10.6861 6.09375 10.6244C6.09375 10.5628 6.1059 10.5017 6.12949 10.4447C6.15309 10.3878 6.18768 10.336 6.23128 10.2924C6.27488 10.2488 6.32665 10.2142 6.38362 10.1906C6.44059 10.167 6.50165 10.1549 6.56331 10.1549C6.62498 10.1549 6.68604 10.167 6.74301 10.1906C6.79998 10.2142 6.85174 10.2488 6.89534 10.2924L8.7512 12.1482L13.4196 7.48067C13.5076 7.39261 13.6271 7.34314 13.7516 7.34314C13.8761 7.34314 13.9956 7.39261 14.0836 7.48067C14.1717 7.56873 14.2212 7.68817 14.2212 7.8127C14.2212 7.93724 14.1717 8.05667 14.0836 8.14473L14.0828 8.14395Z" fill="#00AF42" stroke="#00AF42" stroke-width="0.833333"/>
</svg>
