<svg width="14" height="14" viewBox="0 0 14 14" fill="none" xmlns="http://www.w3.org/2000/svg">
<g clip-path="url(#clip0_21527_27813)">
<path d="M4.27435 0.785247C4.0666 0.57746 3.72976 0.577441 3.52199 0.785205C3.31423 0.992968 3.31421 1.32984 3.52195 1.53762L5.19326 3.20926L1.05787 3.20926C0.764061 3.20926 0.525879 3.44747 0.525879 3.7413C0.525879 4.03514 0.764061 4.27335 1.05787 4.27335L5.19344 4.27334L3.52197 5.94496C3.31422 6.15273 3.31422 6.4896 3.52197 6.69738C3.72973 6.90515 4.06657 6.90515 4.27433 6.69738L6.76531 4.20617C7.02194 3.94952 7.02196 3.53341 6.76534 3.27674L4.27435 0.785247Z" fill="#262E30"/>
<path d="M11.8618 2.13784C12.0695 2.34561 12.0695 2.68248 11.8618 2.89026L2.89024 11.8623C2.68248 12.07 2.34564 12.07 2.13789 11.8623C1.93014 11.6545 1.93014 11.3176 2.1379 11.1098L11.1094 2.13782C11.3172 1.93005 11.654 1.93006 11.8618 2.13784Z" fill="#262E30"/>
<path d="M13.4742 10.2588C13.4742 10.5526 13.236 10.7908 12.9422 10.7908H8.80682L10.4781 12.4625C10.6859 12.6703 10.6859 13.0071 10.4781 13.2149C10.2703 13.4227 9.93348 13.4226 9.72573 13.2148L7.23474 10.7234C6.97812 10.4667 6.97813 10.0506 7.23477 9.79392L9.72575 7.30271C9.93351 7.09494 10.2704 7.09494 10.4781 7.30271C10.6859 7.51049 10.6859 7.84736 10.4781 8.05513L8.80664 9.72675H12.9422C13.236 9.72675 13.4742 9.96495 13.4742 10.2588Z" fill="#262E30"/>
</g>
<defs>
<clipPath id="clip0_21527_27813">
<rect width="14" height="14" fill="white"/>
</clipPath>
</defs>
</svg>
