<?xml version="1.0" encoding="UTF-8" standalone="no"?>
<!-- Created with Inkscape (http://www.inkscape.org/) -->

<svg
   width="1000"
   height="1000"
   viewBox="0 0 1000 1000"
   version="1.1"
   id="svg5"
   sodipodi:docname="del_plate.svg"
   inkscape:version="1.1 (c68e22c387, 2021-05-23)"
   xmlns:inkscape="http://www.inkscape.org/namespaces/inkscape"
   xmlns:sodipodi="http://sodipodi.sourceforge.net/DTD/sodipodi-0.dtd"
   xmlns="http://www.w3.org/2000/svg"
   xmlns:svg="http://www.w3.org/2000/svg">
  <sodipodi:namedview
     id="namedview7"
     pagecolor="#ffffff"
     bordercolor="#666666"
     borderopacity="1.0"
     inkscape:pageshadow="2"
     inkscape:pageopacity="0.0"
     inkscape:pagecheckerboard="0"
     inkscape:document-units="px"
     showgrid="true"
     inkscape:zoom="0.64"
     inkscape:cx="513.28125"
     inkscape:cy="565.625"
     inkscape:window-width="2195"
     inkscape:window-height="1378"
     inkscape:window-x="2577"
     inkscape:window-y="130"
     inkscape:window-maximized="0"
     inkscape:current-layer="layer1">
    <inkscape:grid
       type="xygrid"
       id="grid33" />
    <sodipodi:guide
       position="0,250"
       orientation="0,1"
       inkscape:label="baseline"
       id="guide49" />
    <sodipodi:guide
       position="0,950"
       orientation="0,1"
       inkscape:label="ascender"
       id="guide51" />
    <sodipodi:guide
       position="0,950"
       orientation="0,1"
       inkscape:label="caps"
       id="guide53" />
    <sodipodi:guide
       position="0,750"
       orientation="0,1"
       inkscape:label="xheight"
       id="guide55" />
    <sodipodi:guide
       position="0,0"
       orientation="0,1"
       inkscape:label="descender"
       id="guide57" />
    <sodipodi:guide
       position="0,250"
       orientation="0,1"
       inkscape:label="baseline"
       id="guide119" />
    <sodipodi:guide
       position="0,950"
       orientation="0,1"
       inkscape:label="ascender"
       id="guide121" />
    <sodipodi:guide
       position="0,950"
       orientation="0,1"
       inkscape:label="caps"
       id="guide123" />
    <sodipodi:guide
       position="0,750"
       orientation="0,1"
       inkscape:label="xheight"
       id="guide125" />
    <sodipodi:guide
       position="0,0"
       orientation="0,1"
       inkscape:label="descender"
       id="guide127" />
  </sodipodi:namedview>
  <defs
     id="defs2" />
  <g
     inkscape:label="图层 1"
     inkscape:groupmode="layer"
     id="layer1">
    <g
       id="hex_x5F_plus"
       transform="matrix(1.052355,0,0,1.052355,625.96211,539.33104)">
      <g
         id="g11"
         transform="matrix(63.36,0,0,63.36,-639.505,-548.88)">
        <path
           fill="#808080"
           d="m 8,1.85 5.29,3.53 V 7 10.62 L 8,14.15 2.71,10.62 V 7 5.38 L 8,1.85 M 8,1 2,5 v 2 4 l 6,4 6,-4 V 7 5 Z"
           id="path9" />
      </g>
      <g
         id="plus_1_"
         transform="matrix(-44.802285,44.802285,-44.802285,-44.802285,589.68606,-39.262842)">
        <g
           id="g15">
          <path
             fill="#ed6b21"
             d="M 8,11.71 C 7.61,11.71 7.29,11.39 7.29,11 V 5 C 7.29,4.61 7.61,4.29 8,4.29 8.39,4.29 8.71,4.61 8.71,5 v 6 c 0,0.39 -0.32,0.71 -0.71,0.71 z"
             id="path13" />
        </g>
        <g
           id="g19">
          <path
             fill="#ed6b21"
             d="M 11,8.71 H 5 C 4.61,8.71 4.29,8.39 4.29,8 4.29,7.61 4.61,7.29 5,7.29 h 6 c 0.39,0 0.71,0.32 0.71,0.71 0,0.39 -0.32,0.71 -0.71,0.71 z"
             id="path17" />
        </g>
      </g>
    </g>
  </g>
</svg>
