<svg width="36" height="36" viewBox="0 0 36 36" fill="none" xmlns="http://www.w3.org/2000/svg">
<path d="M0 4C0 1.79086 1.79086 0 4 0H28C32.4183 0 36 3.58172 36 8V28C36 32.4183 32.4183 36 28 36H4C1.79086 36 0 34.2091 0 32V4Z" fill="#3E3E46"/>
<path d="M24.6663 14.6668L18.3724 11.5198C18.1377 11.4025 17.8616 11.4025 17.627 11.5198L11.333 14.6668" stroke="#E9E9E9" stroke-width="1.41667" stroke-linecap="round"/>
<path d="M11.3337 14.6667L17.6276 17.8137C17.8623 17.931 18.1384 17.931 18.373 17.8137L24.667 14.6667" stroke="#E9E9E9" stroke-width="1.41667" stroke-linecap="round"/>
<path d="M11.3337 18.0002L17.6276 21.1472C17.8623 21.2645 18.1384 21.2645 18.373 21.1472L24.667 18.0002" stroke="#E9E9E9" stroke-width="1.41667" stroke-linecap="round"/>
<path d="M11.3337 21.3332L17.6276 24.4802C17.8623 24.5975 18.1384 24.5975 18.373 24.4802L24.667 21.3332" stroke="#E9E9E9" stroke-width="1.41667" stroke-linecap="round"/>
</svg>
