<svg width="36" height="36" viewBox="0 0 36 36" fill="none" xmlns="http://www.w3.org/2000/svg">
<path fill-rule="evenodd" clip-rule="evenodd" d="M11.1384 11.7074L13.9095 11.7074L13.9095 24.2926L11.1384 24.2926L11.1384 11.7074ZM14.4928 10.2908C14.9531 10.2908 15.3262 10.6639 15.3262 11.1241L15.3262 24.8759C15.3262 25.3361 14.9531 25.7092 14.4928 25.7092L10.5551 25.7092C10.0949 25.7092 9.72177 25.3361 9.72177 24.8759L9.72177 11.1241C9.72177 10.6639 10.0949 10.2908 10.5551 10.2908L14.4928 10.2908Z" fill="#808080"/>
<path fill-rule="evenodd" clip-rule="evenodd" d="M22.0916 11.7074L24.8626 11.7074L24.8626 24.2926L22.0916 24.2926L22.0916 11.7074ZM25.446 10.2908C25.9062 10.2908 26.2793 10.6639 26.2793 11.1241L26.2793 24.8759C26.2793 25.3361 25.9062 25.7092 25.446 25.7092L21.5082 25.7092C21.048 25.7092 20.6749 25.3361 20.6749 24.8759L20.6749 11.1241C20.6749 10.6639 21.048 10.2908 21.5082 10.2908L25.446 10.2908Z" fill="#808080"/>
<path fill-rule="evenodd" clip-rule="evenodd" d="M17.9997 12.7092C18.3909 12.7092 18.708 13.0264 18.708 13.4176L18.708 22.5824C18.708 22.9736 18.3909 23.2908 17.9997 23.2908C17.6085 23.2908 17.2913 22.9736 17.2913 22.5824L17.2913 13.4176C17.2913 13.0264 17.6085 12.7092 17.9997 12.7092Z" fill="#808080"/>
</svg>
