<svg width="36" height="36" viewBox="0 0 36 36" fill="none" xmlns="http://www.w3.org/2000/svg">
<path d="M0 4C0 1.79086 1.79086 0 4 0H28C32.4183 0 36 3.58172 36 8V28C36 32.4183 32.4183 36 28 36H4C1.79086 36 0 34.2091 0 32V4Z" fill="#3E3E46"/>
<path fill-rule="evenodd" clip-rule="evenodd" d="M11.1384 11.7077L13.9095 11.7077L13.9095 24.2928L11.1384 24.2928L11.1384 11.7077ZM14.4928 10.291C14.9531 10.291 15.3262 10.6641 15.3262 11.1243L15.3262 24.8762C15.3262 25.3364 14.9531 25.7095 14.4928 25.7095L10.5551 25.7095C10.0949 25.7095 9.72177 25.3364 9.72177 24.8762L9.72177 11.1243C9.72177 10.6641 10.0949 10.291 10.5551 10.291L14.4928 10.291Z" fill="#E9E9E9"/>
<path fill-rule="evenodd" clip-rule="evenodd" d="M22.0916 11.7077L24.8626 11.7077L24.8626 24.2928L22.0916 24.2928L22.0916 11.7077ZM25.446 10.291C25.9062 10.291 26.2793 10.6641 26.2793 11.1243L26.2793 24.8762C26.2793 25.3364 25.9062 25.7095 25.446 25.7095L21.5082 25.7095C21.048 25.7095 20.6749 25.3364 20.6749 24.8762L20.6749 11.1243C20.6749 10.6641 21.048 10.291 21.5082 10.291L25.446 10.291Z" fill="#E9E9E9"/>
<path fill-rule="evenodd" clip-rule="evenodd" d="M17.9997 12.7095C18.3909 12.7095 18.708 13.0266 18.708 13.4178L18.708 22.5827C18.708 22.9739 18.3909 23.291 17.9997 23.291C17.6085 23.291 17.2913 22.9739 17.2913 22.5827L17.2913 13.4178C17.2913 13.0266 17.6085 12.7095 17.9997 12.7095Z" fill="#E9E9E9"/>
</svg>
