<svg width="36" height="36" viewBox="0 0 36 36" fill="none" xmlns="http://www.w3.org/2000/svg">
<path d="M0 4C0 1.79086 1.79086 0 4 0H28C32.4183 0 36 3.58172 36 8V28C36 32.4183 32.4183 36 28 36H4C1.79086 36 0 34.2091 0 32V4Z" fill="#3E3E46"/>
<path fill-rule="evenodd" clip-rule="evenodd" d="M24.2923 11.1379L24.2923 13.909L11.7072 13.909L11.7072 11.1379L24.2923 11.1379ZM25.709 14.4923C25.709 14.9526 25.3359 15.3257 24.8757 15.3257L11.1238 15.3257C10.6636 15.3257 10.2905 14.9526 10.2905 14.4923L10.2905 10.5546C10.2905 10.0944 10.6636 9.72128 11.1238 9.72128L24.8757 9.72128C25.3359 9.72128 25.709 10.0944 25.709 10.5546L25.709 14.4923Z" fill="#E9E9E9"/>
<path fill-rule="evenodd" clip-rule="evenodd" d="M24.2923 22.0906L24.2923 24.8617L11.7072 24.8617L11.7072 22.0906L24.2923 22.0906ZM25.709 25.445C25.709 25.9052 25.3359 26.2783 24.8757 26.2783L11.1238 26.2783C10.6636 26.2783 10.2905 25.9052 10.2905 25.445L10.2905 21.5072C10.2905 21.047 10.6636 20.6739 11.1238 20.6739L24.8757 20.6739C25.3359 20.6739 25.709 21.047 25.709 21.5072L25.709 25.445Z" fill="#E9E9E9"/>
<path fill-rule="evenodd" clip-rule="evenodd" d="M23.29 17.9997C23.29 18.3909 22.9729 18.708 22.5817 18.708L13.4168 18.708C13.0256 18.708 12.7085 18.3909 12.7085 17.9997C12.7085 17.6085 13.0256 17.2913 13.4168 17.2913L22.5817 17.2913C22.9729 17.2913 23.29 17.6085 23.29 17.9997Z" fill="#E9E9E9"/>
</svg>
