<svg width="17" height="17" viewBox="0 0 17 17" fill="none" xmlns="http://www.w3.org/2000/svg">
<path d="M8.23759 3.02832C9.67418 3.02832 11.0519 3.599 12.0678 4.61483C13.0836 5.63065 13.6543 7.0084 13.6543 8.44499C13.6543 9.88158 13.0836 11.2593 12.0678 12.2751C11.0519 13.291 9.67418 13.8617 8.23759 13.8617C6.801 13.8617 5.42325 13.291 4.40743 12.2751C3.39161 11.2593 2.82092 9.88158 2.82092 8.44499C2.82092 7.0084 3.39161 5.63065 4.40743 4.61483C5.42325 3.599 6.801 3.02832 8.23759 3.02832ZM8.23759 15.1117C10.0057 15.1117 11.7014 14.4093 12.9516 13.159C14.2019 11.9088 14.9043 10.2131 14.9043 8.44499C14.9043 6.67688 14.2019 4.98118 12.9516 3.73094C11.7014 2.4807 10.0057 1.77832 8.23759 1.77832C6.46948 1.77832 4.77379 2.4807 3.52354 3.73094C2.2733 4.98118 1.57092 6.67688 1.57092 8.44499C1.57092 10.2131 2.2733 11.9088 3.52354 13.159C4.77379 14.4093 6.46948 15.1117 8.23759 15.1117ZM8.23759 5.11165C7.89124 5.11165 7.61259 5.3903 7.61259 5.73665V8.65332C7.61259 8.99967 7.89124 9.27832 8.23759 9.27832C8.58394 9.27832 8.86259 8.99967 8.86259 8.65332V5.73665C8.86259 5.3903 8.58394 5.11165 8.23759 5.11165ZM9.07092 10.945C9.07092 10.724 8.98313 10.512 8.82685 10.3557C8.67056 10.1995 8.4586 10.1117 8.23759 10.1117C8.01658 10.1117 7.80461 10.1995 7.64833 10.3557C7.49205 10.512 7.40426 10.724 7.40426 10.945C7.40426 11.166 7.49205 11.378 7.64833 11.5342C7.80461 11.6905 8.01658 11.7783 8.23759 11.7783C8.4586 11.7783 8.67056 11.6905 8.82685 11.5342C8.98313 11.378 9.07092 11.166 9.07092 10.945Z" fill="#D01B1B"/>
</svg>
