<svg width="14" height="15" viewBox="0 0 14 15" fill="none" xmlns="http://www.w3.org/2000/svg">
<rect x="8.77441" y="1.48242" width="4" height="4" fill="#AF7CFF"/>
<rect x="1.78516" y="1.95715" width="5.21484" height="10.8571" fill="#00AE42"/>
<rect x="7.12988" y="7.38562" width="5.21484" height="5.42859" fill="#00AE42"/>
<path d="M2.03007 12.3586H6.70161V2.28789H2.03007V12.3586ZM7.50708 12.6811C7.50691 12.9478 7.29092 13.164 7.02411 13.164H1.70757C1.44092 13.1639 1.22478 12.9477 1.22461 12.6811V1.96539C1.22478 1.69873 1.44091 1.48259 1.70757 1.48242H7.02411C7.29091 1.48242 7.50691 1.69862 7.50708 1.96539V12.6811Z" fill="white"/>
<path d="M7.50664 12.3589H11.9689V7.72587H7.50664V12.3589ZM12.7744 12.6806C12.7744 12.9475 12.5584 13.1643 12.2914 13.1643H7.18414C6.91737 13.1642 6.70117 12.9474 6.70117 12.6806V7.40337C6.70134 7.13672 6.91748 6.92058 7.18414 6.92041H12.2914C12.5582 6.92041 12.7742 7.13661 12.7744 7.40337V12.6806Z" fill="white"/>
</svg>
