<svg width="19" height="18" viewBox="0 0 19 18" fill="none" xmlns="http://www.w3.org/2000/svg">
<path d="M12.2274 2.53298C12.2274 2.47775 12.2721 2.43298 12.3274 2.43298H15.8675C15.9228 2.43298 15.9675 2.47775 15.9675 2.53298V6.3066C15.9675 6.36182 15.9228 6.4066 15.8675 6.4066H12.3274C12.2721 6.4066 12.2274 6.36182 12.2274 6.3066V2.53298Z" fill="#AF7CFF"/>
<path d="M12.7274 5.90662H15.4676V2.93298H12.7274V5.90662ZM16.4676 6.30701C16.4674 6.63803 16.199 6.90636 15.868 6.90662H12.327C11.9959 6.90641 11.7276 6.63806 11.7274 6.30701V2.53259C11.7276 2.20153 11.9959 1.93319 12.327 1.93298H15.868C16.199 1.93324 16.4674 2.20156 16.4676 2.53259V6.30701Z" fill="white"/>
<path d="M3.32324 2.65534C3.32324 2.60011 3.36801 2.55534 3.42324 2.55534H9.70176C9.75699 2.55534 9.80176 2.60011 9.80176 2.65534V15.4668C9.80176 15.522 9.75699 15.5668 9.70176 15.5668H3.42324C3.36801 15.5668 3.32324 15.522 3.32324 15.4668V2.65534Z" fill="#00AE42"/>
<path d="M3.82324 15.0671H9.30176V3.05534H3.82324V15.0671ZM10.3018 15.4665C10.3018 15.7977 10.0333 16.0668 9.70215 16.0671H3.42285C3.09166 16.0668 2.82324 15.7977 2.82324 15.4665V2.65495C2.82345 2.32389 3.09179 2.05555 3.42285 2.05534H9.70215C10.0332 2.05555 10.3015 2.32389 10.3018 2.65495V15.4665Z" fill="white"/>
<path d="M9.80176 9.16099C9.80176 9.10577 9.84653 9.06099 9.90176 9.06099H16.0221C16.0774 9.06099 16.1221 9.10577 16.1221 9.16099V15.4668C16.1221 15.522 16.0774 15.5668 16.0221 15.5668H9.90176C9.84653 15.5668 9.80176 15.522 9.80176 15.4668V9.16099Z" fill="#00AE42"/>
<path d="M10.3018 15.0669H15.6221V9.56099H10.3018V15.0669ZM16.6221 15.4672C16.6218 15.7983 16.3535 16.0667 16.0225 16.0669H9.90137C9.57033 16.0666 9.302 15.7983 9.30176 15.4672V9.1606C9.30197 8.82954 9.57031 8.56121 9.90137 8.56099H16.0225C16.3536 8.56117 16.6219 8.82952 16.6221 9.1606V15.4672Z" fill="white"/>
</svg>
