<svg width="20" height="20" viewBox="0 0 20 20" fill="none" xmlns="http://www.w3.org/2000/svg">
<path fill-rule="evenodd" clip-rule="evenodd" d="M13.2992 1.42627C10.7774 1.42627 8.73315 3.47056 8.73315 5.99231C8.73315 8.51406 10.7774 10.5583 13.2992 10.5583C13.3609 10.5583 13.4223 10.5571 13.4834 10.5547C15.9197 10.4581 17.8652 8.45238 17.8652 5.99231C17.8652 3.47056 15.8209 1.42627 13.2992 1.42627ZM15.6185 11.0536C17.5346 10.1741 18.8652 8.23861 18.8652 5.99231C18.8652 2.91827 16.3732 0.42627 13.2992 0.42627C11.5793 0.42627 10.0417 1.2063 9.02067 2.43188H2.31853C1.93193 2.43188 1.61853 2.74528 1.61853 3.13188V12.4712C1.61853 12.6313 1.6723 12.7789 1.76278 12.8968C1.76671 13.0046 1.79621 13.1144 1.85576 13.2185L3.48408 16.0649C3.60875 16.2829 3.8406 16.4173 4.09168 16.4173H6.75859L7.97903 19.1586C8.22556 19.7123 9.01148 19.7123 9.25801 19.1586L10.4784 16.4173H13.1454C13.3965 16.4173 13.6283 16.2829 13.753 16.0649L15.3813 13.2185C15.4409 13.1144 15.4704 13.0046 15.4743 12.8968C15.5648 12.7789 15.6185 12.6313 15.6185 12.4712V11.0536ZM13.4429 11.5565C13.8469 11.5463 14.2403 11.493 14.6185 11.4011V12.1709H2.61853V3.43188H8.35573C7.95792 4.19837 7.73315 5.06909 7.73315 5.99231C7.73315 9.06635 10.2252 11.5583 13.2992 11.5583C13.3472 11.5583 13.3951 11.5577 13.4429 11.5565ZM2.98076 13.1712H14.2563L12.9714 15.4173H9.85194L9.84578 15.4173H7.39126L7.3851 15.4173H4.26569L2.98076 13.1712ZM9.38381 16.4173L8.61852 18.1363L7.85322 16.4173H9.38381ZM12.2021 3.36422C12.3973 3.55948 12.3973 3.87606 12.2021 4.07133L11.743 4.53041H16.0625C16.3386 4.53041 16.5625 4.75426 16.5625 5.03041C16.5625 5.30655 16.3386 5.53041 16.0625 5.53041H10.7773C10.2428 5.53041 9.97507 4.88412 10.353 4.50614L11.495 3.36422C11.6902 3.16896 12.0068 3.16896 12.2021 3.36422ZM14.3963 7.91305C14.2011 8.10831 14.2011 8.42489 14.3963 8.62015C14.5916 8.81542 14.9082 8.81542 15.1034 8.62015L16.2453 7.47823C16.6233 7.10026 16.3556 6.45397 15.8211 6.45397L10.5359 6.45397C10.2597 6.45397 10.0359 6.67783 10.0359 6.95397C10.0359 7.23011 10.2597 7.45397 10.5359 7.45397L14.8554 7.45397L14.3963 7.91305Z" fill="#262E30"/>
</svg>
