<svg width="32" height="32" viewBox="0 0 32 32" fill="none" xmlns="http://www.w3.org/2000/svg">
<g mask="url(#mask0_21897_53586)">
<path d="M32 16C32 7.16344 24.8366 0 16 0C7.16344 0 0 7.16344 0 16C0 24.8366 7.16344 32 16 32C24.8366 32 32 24.8366 32 16Z" fill="black" fill-opacity="0.7"/>
<path d="M24.3236 13.0105C24.7931 13.0105 25.1736 12.6308 25.1736 12.1625V9.69255L25.1718 9.58843L25.1717 9.58499C25.1137 8.04387 23.8446 6.82436 22.2987 6.82442L19.8257 6.82422L19.752 6.82755L19.7435 6.82837C19.2922 6.87204 18.9546 7.26153 18.9766 7.71342C18.9985 8.16529 19.3722 8.52043 19.8257 8.52037H22.2962L22.3702 8.52245C22.9629 8.55844 23.4355 9.02997 23.4716 9.62122L23.4737 9.69503L23.4735 12.1625L23.4768 12.2356L23.4776 12.2439C23.5196 12.6787 23.8858 13.0105 24.3236 13.0105Z" fill="#CECECE"/>
<path d="M8.5261 12.1623C8.5261 12.6306 8.14556 13.0103 7.67613 13.0103C7.20671 13.0103 6.82617 12.6306 6.82617 12.1623V9.69235C6.82617 8.10831 8.11328 6.82422 9.701 6.82422H12.1741C12.6436 6.82422 13.0241 7.20388 13.0241 7.67219C13.0241 8.14052 12.6436 8.52017 12.1741 8.52017H9.701C9.07973 8.52013 8.56598 9.0026 8.52819 9.62099L8.5261 9.69478V12.1623Z" fill="#CECECE"/>
<path fill-rule="evenodd" clip-rule="evenodd" d="M16.7314 10.19C16.2064 9.92986 15.5857 9.94934 15.078 10.2418L11.3018 12.4168L11.2129 12.4717L11.2083 12.4747C10.7202 12.7983 10.4269 13.3441 10.4269 13.9287L10.4268 18.2788L10.43 18.3832L10.4304 18.3885C10.467 18.9722 10.7942 19.4987 11.3018 19.7911L15.078 21.9662L15.1701 22.0156L15.175 22.0181C15.7 22.278 16.3205 22.2585 16.828 21.9662L20.6047 19.7912L20.6935 19.7361L20.6976 19.7333C21.1859 19.4099 21.4795 18.864 21.4796 18.2793L21.4797 13.9292L21.4764 13.8248L21.4761 13.8195C21.4394 13.2358 21.1122 12.7093 20.6046 12.4169L16.828 10.2418L16.7367 10.1926L16.7314 10.19ZM11.9511 18.2793V14.5765L15.2774 16.493V20.3245L12.0636 18.4732L12.0312 18.4507C11.9805 18.4081 11.9512 18.3454 11.9511 18.2793ZM15.8398 11.5593L15.8758 11.5427C15.9382 11.5202 16.0074 11.5263 16.0648 11.5593L19.2786 13.4102L15.9523 15.3262L12.6261 13.4102L15.8398 11.5593ZM16.8025 16.5933V20.0222L19.7541 18.3225C19.7655 18.3159 19.7737 18.3053 19.7773 18.2928L19.7792 18.2714L19.7788 14.8789L16.8025 16.5933Z" fill="#CECECE"/>
<path d="M6.8262 19.8363C6.8262 19.368 7.20674 18.9883 7.67617 18.9883C8.11398 18.9884 8.48015 19.3202 8.52218 19.7549L8.52298 19.7632L8.52633 19.8363L8.52613 22.3038L8.52823 22.3776C8.5643 22.9689 9.03693 23.4404 9.6296 23.4764L9.7036 23.4785H12.1741C12.6276 23.4784 13.0013 23.8335 13.0232 24.2854C13.0452 24.7373 12.7076 25.1268 12.2563 25.1705L12.2478 25.1713L12.1741 25.1746L9.7011 25.1744C8.15524 25.1745 6.88609 23.955 6.82812 22.4138L6.82799 22.4104L6.82617 22.3063L6.8262 19.8363Z" fill="#CECECE"/>
<path d="M23.4736 19.8363C23.4736 19.368 23.8541 18.9883 24.3235 18.9883C24.793 18.9883 25.1735 19.368 25.1735 19.8363V22.3063C25.1735 23.8903 23.8864 25.1744 22.2986 25.1744H19.8256C19.3561 25.1744 18.9756 24.7948 18.9756 24.3264C18.9756 23.8581 19.3561 23.4785 19.8256 23.4785H22.2986C22.9199 23.4785 23.4337 22.996 23.4715 22.3777L23.4736 22.3039V19.8363Z" fill="#CECECE"/>
</g>
</svg>
