<svg width="33" height="32" viewBox="0 0 33 32" fill="none" xmlns="http://www.w3.org/2000/svg">
<g clip-path="url(#clip0_19252_56165)">
<path d="M32.5 16C32.5 7.16344 25.3366 0 16.5 0C7.66344 0 0.5 7.16344 0.5 16C0.5 24.8366 7.66344 32 16.5 32C25.3366 32 32.5 24.8366 32.5 16Z" fill="white" fill-opacity="0.8"/>
<path d="M24.8236 13.0105C25.2931 13.0105 25.6736 12.6308 25.6736 12.1625V9.69255L25.6718 9.58843L25.6717 9.58499C25.6137 8.04387 24.3446 6.82436 22.7987 6.82442L20.3257 6.82422L20.252 6.82755L20.2435 6.82837C19.7922 6.87204 19.4546 7.26153 19.4766 7.71342C19.4985 8.16529 19.8722 8.52043 20.3257 8.52037H22.7962L22.8702 8.52245C23.4629 8.55844 23.9355 9.02997 23.9716 9.62122L23.9737 9.69503L23.9735 12.1625L23.9768 12.2356L23.9776 12.2439C24.0196 12.6787 24.3858 13.0105 24.8236 13.0105Z" fill="#6B6B6B"/>
<path d="M9.0261 12.1623C9.0261 12.6306 8.64556 13.0103 8.17613 13.0103C7.70671 13.0103 7.32617 12.6306 7.32617 12.1623V9.69235C7.32617 8.10831 8.61328 6.82422 10.201 6.82422H12.6741C13.1436 6.82422 13.5241 7.20388 13.5241 7.67219C13.5241 8.14052 13.1436 8.52017 12.6741 8.52017H10.201C9.57973 8.52013 9.06598 9.0026 9.02819 9.62099L9.0261 9.69478V12.1623Z" fill="#6B6B6B"/>
<path fill-rule="evenodd" clip-rule="evenodd" d="M17.2314 10.19C16.7064 9.92986 16.0857 9.94934 15.578 10.2418L11.8018 12.4168L11.7129 12.4717L11.7083 12.4747C11.2202 12.7983 10.9269 13.3441 10.9269 13.9287L10.9268 18.2788L10.93 18.3832L10.9304 18.3885C10.967 18.9722 11.2942 19.4987 11.8018 19.7911L15.578 21.9662L15.6701 22.0156L15.675 22.0181C16.2 22.278 16.8205 22.2585 17.328 21.9662L21.1047 19.7912L21.1935 19.7361L21.1976 19.7333C21.6859 19.4099 21.9795 18.864 21.9796 18.2793L21.9797 13.9292L21.9764 13.8248L21.9761 13.8195C21.9394 13.2358 21.6122 12.7093 21.1046 12.4169L17.328 10.2418L17.2367 10.1926L17.2314 10.19ZM12.4511 18.2793V14.5765L15.7774 16.493V20.3245L12.5636 18.4732L12.5312 18.4507C12.4805 18.4081 12.4512 18.3454 12.4511 18.2793ZM16.3398 11.5593L16.3758 11.5427C16.4382 11.5202 16.5074 11.5263 16.5648 11.5593L19.7786 13.4102L16.4523 15.3262L13.1261 13.4102L16.3398 11.5593ZM17.3025 16.5933V20.0222L20.2541 18.3225C20.2655 18.3159 20.2737 18.3053 20.2773 18.2928L20.2792 18.2714L20.2788 14.8789L17.3025 16.5933Z" fill="#6B6B6B"/>
<path d="M7.3262 19.8363C7.3262 19.368 7.70674 18.9883 8.17617 18.9883C8.61398 18.9884 8.98015 19.3202 9.02218 19.7549L9.02298 19.7632L9.02633 19.8363L9.02613 22.3038L9.02823 22.3776C9.0643 22.9689 9.53693 23.4404 10.1296 23.4764L10.2036 23.4785H12.6741C13.1276 23.4784 13.5013 23.8335 13.5232 24.2854C13.5452 24.7373 13.2076 25.1268 12.7563 25.1705L12.7478 25.1713L12.6741 25.1746L10.2011 25.1744C8.65524 25.1745 7.38609 23.955 7.32812 22.4138L7.32799 22.4104L7.32617 22.3063L7.3262 19.8363Z" fill="#6B6B6B"/>
<path d="M23.9736 19.8363C23.9736 19.368 24.3541 18.9883 24.8235 18.9883C25.293 18.9883 25.6735 19.368 25.6735 19.8363V22.3063C25.6735 23.8903 24.3864 25.1744 22.7986 25.1744H20.3256C19.8561 25.1744 19.4756 24.7948 19.4756 24.3264C19.4756 23.8581 19.8561 23.4785 20.3256 23.4785H22.7986C23.4199 23.4785 23.9337 22.996 23.9715 22.3777L23.9736 22.3039V19.8363Z" fill="#6B6B6B"/>
</g>
<defs>
<clipPath id="clip0_19252_56165">
<rect width="32" height="32" fill="white" transform="translate(0.5)"/>
</clipPath>
</defs>
</svg>
