<svg width="34" height="32" viewBox="0 0 34 32" fill="none" xmlns="http://www.w3.org/2000/svg">
<g clip-path="url(#clip0_19252_56154)">
<path d="M33.4805 16C33.4805 7.16344 26.317 0 17.4805 0C8.64391 0 1.48047 7.16344 1.48047 16C1.48047 24.8366 8.64391 32 17.4805 32C26.317 32 33.4805 24.8366 33.4805 16Z" fill="white" fill-opacity="0.8"/>
<path d="M25.8042 13.0105C26.2736 13.0105 26.6542 12.6308 26.6542 12.1625V9.69255L26.6524 9.58843L26.6522 9.58499C26.5943 8.04387 25.3251 6.82436 23.7793 6.82442L21.3062 6.82422L21.2325 6.82755L21.2241 6.82837C20.7727 6.87204 20.4352 7.26153 20.4571 7.71342C20.4791 8.16529 20.8528 8.52043 21.3063 8.52037H23.7768L23.8508 8.52245C24.4434 8.55844 24.9161 9.02997 24.9521 9.62122L24.9542 9.69503L24.954 12.1625L24.9574 12.2356L24.9582 12.2439C25.0002 12.6787 25.3664 13.0105 25.8042 13.0105Z" fill="#6B6B6B"/>
<path d="M10.0066 12.1623C10.0066 12.6306 9.62603 13.0103 9.15661 13.0103C8.68719 13.0103 8.30664 12.6306 8.30664 12.1623L8.30665 9.69235C8.30665 8.10831 9.59376 6.82422 11.1815 6.82422H13.6546C14.124 6.82422 14.5046 7.20388 14.5046 7.67219C14.5046 8.14052 14.124 8.52017 13.6546 8.52017H11.1815C10.5602 8.52013 10.0465 9.0026 10.0087 9.62099L10.0066 9.69478V12.1623Z" fill="#6B6B6B"/>
<path fill-rule="evenodd" clip-rule="evenodd" d="M18.2119 10.19C17.6869 9.92986 17.0661 9.94934 16.5585 10.2418L12.7823 12.4168L12.6934 12.4717L12.6888 12.4747C12.2007 12.7983 11.9074 13.3441 11.9073 13.9287L11.9072 18.2788L11.9105 18.3832L11.9108 18.3885C11.9475 18.9722 12.2747 19.4987 12.7823 19.7911L16.5585 21.9662L16.6506 22.0156L16.6555 22.0181C17.1804 22.278 17.8009 22.2585 18.3084 21.9662L22.0851 19.7912L22.1739 19.7361L22.1781 19.7333C22.6664 19.4099 22.9599 18.864 22.9601 18.2793L22.9602 13.9292L22.9569 13.8248L22.9566 13.8195C22.9199 13.2358 22.5927 12.7093 22.0851 12.4169L18.3085 10.2418L18.2171 10.1926L18.2119 10.19ZM13.4316 18.2793V14.5765L16.7578 16.493V20.3245L13.5441 18.4732L13.5117 18.4507C13.461 18.4081 13.4317 18.3454 13.4316 18.2793ZM17.3203 11.5593L17.3563 11.5427C17.4187 11.5202 17.4878 11.5263 17.5453 11.5593L20.759 13.4102L17.4328 15.3262L14.1066 13.4102L17.3203 11.5593ZM18.283 16.5933V20.0222L21.2346 18.3225C21.2459 18.3159 21.2542 18.3053 21.2577 18.2928L21.2597 18.2714L21.2593 14.8789L18.283 16.5933Z" fill="#6B6B6B"/>
<path d="M8.30667 19.8363C8.30667 19.368 8.68721 18.9883 9.15664 18.9883C9.59444 18.9884 9.96062 19.3202 10.0026 19.7549L10.0035 19.7632L10.0068 19.8363L10.0066 22.3038L10.0087 22.3776C10.0448 22.9689 10.5174 23.4404 11.11 23.4764L11.184 23.4785H13.6546C14.1081 23.4784 14.4818 23.8335 14.5037 24.2854C14.5256 24.7373 14.1881 25.1268 13.7368 25.1705L13.7283 25.1713L13.6546 25.1746L11.1815 25.1744C9.63571 25.1745 8.36656 23.955 8.30859 22.4138L8.30846 22.4104L8.30664 22.3063L8.30667 19.8363Z" fill="#6B6B6B"/>
<path d="M24.954 19.8363C24.954 19.368 25.3346 18.9883 25.804 18.9883C26.2734 18.9883 26.654 19.368 26.654 19.8363V22.3063C26.654 23.8903 25.3669 25.1744 23.7791 25.1744H21.306C20.8366 25.1744 20.4561 24.7948 20.4561 24.3264C20.4561 23.8581 20.8366 23.4785 21.306 23.4785H23.7791C24.4004 23.4785 24.9142 22.996 24.952 22.3777L24.954 22.3039V19.8363Z" fill="#6B6B6B"/>
<path d="M25.8042 13.0105C26.2736 13.0105 26.6542 12.6308 26.6542 12.1625V9.69255L26.6524 9.58843L26.6522 9.58499C26.5943 8.04387 25.3251 6.82436 23.7793 6.82442L21.3062 6.82422L21.2325 6.82755L21.2241 6.82837C20.7727 6.87204 20.4352 7.26153 20.4571 7.71342C20.4791 8.16529 20.8528 8.52043 21.3063 8.52037H23.7768L23.8508 8.52245C24.4434 8.55844 24.9161 9.02997 24.9521 9.62122L24.9542 9.69503L24.954 12.1625L24.9574 12.2356L24.9582 12.2439C25.0002 12.6787 25.3664 13.0105 25.8042 13.0105Z" fill="#00AE42"/>
<path d="M10.0066 12.1623C10.0066 12.6306 9.62603 13.0103 9.15661 13.0103C8.68719 13.0103 8.30664 12.6306 8.30664 12.1623L8.30665 9.69235C8.30665 8.10831 9.59376 6.82422 11.1815 6.82422H13.6546C14.124 6.82422 14.5046 7.20388 14.5046 7.67219C14.5046 8.14052 14.124 8.52017 13.6546 8.52017H11.1815C10.5602 8.52013 10.0465 9.0026 10.0087 9.62099L10.0066 9.69478V12.1623Z" fill="#00AE42"/>
<path d="M8.30667 19.8363C8.30667 19.368 8.68721 18.9883 9.15664 18.9883C9.59444 18.9884 9.96062 19.3202 10.0026 19.7549L10.0035 19.7632L10.0068 19.8363L10.0066 22.3038L10.0087 22.3776C10.0448 22.9689 10.5174 23.4404 11.11 23.4764L11.184 23.4785H13.6546C14.1081 23.4784 14.4818 23.8335 14.5037 24.2854C14.5256 24.7373 14.1881 25.1268 13.7368 25.1705L13.7283 25.1713L13.6546 25.1746L11.1815 25.1744C9.63571 25.1745 8.36656 23.955 8.30859 22.4138L8.30846 22.4104L8.30664 22.3063L8.30667 19.8363Z" fill="#00AE42"/>
<path d="M24.954 19.8363C24.954 19.368 25.3346 18.9883 25.804 18.9883C26.2734 18.9883 26.654 19.368 26.654 19.8363V22.3063C26.654 23.8903 25.3669 25.1744 23.7791 25.1744H21.306C20.8366 25.1744 20.4561 24.7948 20.4561 24.3264C20.4561 23.8581 20.8366 23.4785 21.306 23.4785H23.7791C24.4004 23.4785 24.9142 22.996 24.952 22.3777L24.954 22.3039V19.8363Z" fill="#00AE42"/>
</g>
<defs>
<clipPath id="clip0_19252_56154">
<rect width="33" height="32" fill="white" transform="translate(0.5)"/>
</clipPath>
</defs>
</svg>
