<svg width="16" height="16" viewBox="0 0 16 16" fill="none" xmlns="http://www.w3.org/2000/svg">
<path d="M7.88802 4.48958C8.16145 4.76302 8.53124 4.91667 8.91927 4.91667H13C13.2292 4.91667 13.4167 5.10417 13.4167 5.33333V6.16667H2.58333V3.66667C2.58333 3.4375 2.77083 3.25 2.99999 3.25H6.47656C6.58593 3.25 6.6927 3.29427 6.77083 3.3724L7.88802 4.48958ZM2.58333 7.41667H13.4167V12C13.4167 12.2292 13.2292 12.4167 13 12.4167H2.99999C2.77083 12.4167 2.58333 12.2292 2.58333 12V7.41667ZM8.77343 3.60677L7.65364 2.48698C7.34114 2.17448 6.91666 2 6.47395 2H2.99999C2.08072 2 1.33333 2.7474 1.33333 3.66667V12C1.33333 12.9193 2.08072 13.6667 2.99999 13.6667H13C13.9193 13.6667 14.6667 12.9193 14.6667 12V5.33333C14.6667 4.41406 13.9193 3.66667 13 3.66667H8.91927C8.86458 3.66667 8.80989 3.64583 8.77083 3.60677H8.77343Z" fill="#262E30"/>
</svg>
