<svg width="44" height="25" viewBox="0 0 44 25" fill="none" xmlns="http://www.w3.org/2000/svg">
<path fill-rule="evenodd" clip-rule="evenodd" d="M32.5 12.7871H29.5V15.0488C29.5 16.7057 28.1569 18.0488 26.5 18.0488C24.8431 18.0488 23.5 16.7057 23.5 15.0488V12.7871H20.5V15.0488C20.5 16.7057 19.1569 18.0488 17.5 18.0488C15.8431 18.0488 14.5 16.7057 14.5 15.0488V12.7871H11.5V15.0488C11.5 16.7057 10.1569 18.0488 8.5 18.0488C6.84315 18.0488 5.5 16.7057 5.5 15.0488V12.7871H0V24.7871H44V12.7871H38.5V15.0488C38.5 16.7057 37.1569 18.0488 35.5 18.0488C33.8431 18.0488 32.5 16.7057 32.5 15.0488V12.7871Z" fill="#CECECE"/>
<path fill-rule="evenodd" clip-rule="evenodd" d="M2 5.97093C2 3.10799 4.32088 0.787109 7.18382 0.787109H36.8162C39.6791 0.787109 42 3.10799 42 5.97093V12.7871H38.5V9.04883C38.5 7.39197 37.1569 6.04883 35.5 6.04883C33.8431 6.04883 32.5 7.39197 32.5 9.04883V12.7871H29.5V9.04883C29.5 7.39197 28.1569 6.04883 26.5 6.04883C24.8431 6.04883 23.5 7.39197 23.5 9.04883V12.7871H20.5V9.04883C20.5 7.39197 19.1569 6.04883 17.5 6.04883C15.8431 6.04883 14.5 7.39197 14.5 9.04883V12.7871H11.5V9.04883C11.5 7.39197 10.1569 6.04883 8.5 6.04883C6.84315 6.04883 5.5 7.39197 5.5 9.04883V12.7871H2V5.97093Z" fill="#EEEEEE"/>
</svg>
