<svg width="22" height="22" viewBox="0 0 22 22" fill="none" xmlns="http://www.w3.org/2000/svg">
<rect width="22" height="22" rx="4" fill="#E8E8E8"/>
<path d="M15.5306 15.4693C15.6715 15.6102 15.7507 15.8013 15.7507 16.0006C15.7507 16.1998 15.6715 16.3909 15.5306 16.5318C15.3897 16.6727 15.1986 16.7519 14.9994 16.7519C14.8001 16.7519 14.609 16.6727 14.4681 16.5318L9.46812 11.5318C9.3982 11.4621 9.34273 11.3793 9.30487 11.2882C9.26702 11.197 9.24753 11.0993 9.24753 11.0006C9.24753 10.9019 9.26702 10.8041 9.30487 10.713C9.34273 10.6218 9.3982 10.539 9.46812 10.4693L14.4681 5.46932C14.609 5.32842 14.8001 5.24927 14.9994 5.24927C15.1986 5.24927 15.3897 5.32842 15.5306 5.46932C15.6715 5.61021 15.7507 5.80131 15.7507 6.00057C15.7507 6.19983 15.6715 6.39092 15.5306 6.53182L11.0625 10.9999L15.5306 15.4693ZM7.5 5.24994C7.30109 5.24994 7.11032 5.32896 6.96967 5.46961C6.82902 5.61027 6.75 5.80103 6.75 5.99994V15.9999C6.75 16.1989 6.82902 16.3896 6.96967 16.5303C7.11032 16.6709 7.30109 16.7499 7.5 16.7499C7.69891 16.7499 7.88968 16.6709 8.03033 16.5303C8.17098 16.3896 8.25 16.1989 8.25 15.9999V5.99994C8.25 5.80103 8.17098 5.61027 8.03033 5.46961C7.88968 5.32896 7.69891 5.24994 7.5 5.24994Z" fill="#808080"/>
</svg>
