<svg width="20" height="20" viewBox="0 0 20 20" fill="none" xmlns="http://www.w3.org/2000/svg">
<g clip-path="url(#clip0_82_87)">
<path d="M9.92236 0.569824C15.1302 0.570077 19.3518 4.79171 19.3521 9.99951C19.352 11.1184 19.1526 12.1904 18.7944 13.186C19.2327 13.5965 19.5083 14.1788 19.5083 14.8267C19.5081 16.0688 18.5014 17.0754 17.2593 17.0757C16.9391 17.0757 16.6346 17.0078 16.3589 16.8872C14.6736 18.4631 12.4117 19.4301 9.92236 19.4302C4.71422 19.4302 0.491719 15.2076 0.491699 9.99951C0.491935 4.79156 4.71435 0.569827 9.92236 0.569824ZM9.92236 1.87061C5.43291 1.87061 1.79272 5.51011 1.79248 9.99951C1.7925 14.4891 5.43278 18.1294 9.92236 18.1294C12.0158 18.1293 13.922 17.3348 15.3628 16.0347C15.1398 15.6855 15.0093 15.2716 15.0093 14.8267C15.0093 13.5842 16.0169 12.5767 17.2593 12.5767C17.3821 12.5767 17.5022 12.589 17.6196 12.6079C17.8975 11.789 18.0513 10.9122 18.0513 9.99951C18.051 5.51027 14.4116 1.87086 9.92236 1.87061ZM17.2593 13.2271C16.3761 13.2271 15.6597 13.9435 15.6597 14.8267C15.6599 15.7096 16.3763 16.4253 17.2593 16.4253C18.1421 16.425 18.8577 15.7095 18.8579 14.8267C18.8579 13.9437 18.1422 13.2273 17.2593 13.2271ZM9.92139 3.71924C13.3903 3.71932 16.2026 6.53153 16.2026 10.0005C16.2025 13.4693 13.3902 16.2817 9.92139 16.2817C6.45267 16.2815 3.6403 13.4692 3.64014 10.0005C3.64014 9.46 3.70989 8.93547 3.83838 8.43506C3.47657 8.07379 3.25244 7.57463 3.25244 7.02295C3.2526 5.9208 4.14636 5.02784 5.24854 5.02783C5.48894 5.02789 5.7187 5.07194 5.93213 5.1499C7.01703 4.25645 8.40627 3.71934 9.92139 3.71924ZM9.92139 5.02002C8.81126 5.02011 7.78651 5.38423 6.9585 5.99854C7.13845 6.29825 7.2436 6.64793 7.24365 7.02295C7.24365 8.12508 6.3506 9.01878 5.24854 9.01904C5.17845 9.01904 5.10875 9.01535 5.04053 9.0083C4.97553 9.32883 4.94092 9.66081 4.94092 10.0005C4.94108 12.7507 7.17122 14.9807 9.92139 14.981C12.6717 14.9809 14.9017 12.7508 14.9019 10.0005C14.9019 7.25009 12.6718 5.0201 9.92139 5.02002ZM9.92236 6.78467C11.6981 6.78486 13.1382 8.22468 13.1382 10.0005C13.1382 10.258 13.105 10.5077 13.0474 10.7476C13.2003 10.9625 13.2915 11.2244 13.2915 11.5083C13.2915 12.2347 12.7025 12.8237 11.9761 12.8237C11.8331 12.8237 11.6958 12.7995 11.5669 12.7573C11.0856 13.0464 10.5246 13.2162 9.92236 13.2163C8.14654 13.2163 6.70671 11.7763 6.70654 10.0005C6.70655 8.22457 8.14645 6.78468 9.92236 6.78467ZM11.9761 10.6265C11.4893 10.6265 11.0943 11.0215 11.0942 11.5083C11.0942 11.9952 11.4892 12.3901 11.9761 12.3901C12.463 12.3901 12.8579 11.9952 12.8579 11.5083C12.8579 11.0214 12.463 10.6265 11.9761 10.6265ZM9.92236 8.08545C8.865 8.08546 8.00733 8.94313 8.00732 10.0005C8.00749 11.0577 8.8651 11.9145 9.92236 11.9146C10.1937 11.9145 10.4506 11.8558 10.6841 11.7534C10.6691 11.674 10.6606 11.5921 10.6606 11.5083C10.6607 10.8335 11.1692 10.2772 11.8237 10.2017C11.8309 10.1355 11.8364 10.0685 11.8364 10.0005C11.8364 8.94324 10.9796 8.08564 9.92236 8.08545ZM5.24854 5.67822C4.50563 5.67823 3.90299 6.28008 3.90283 7.02295C3.90283 7.76595 4.50553 8.36864 5.24854 8.36865C5.99132 8.36839 6.59326 7.7658 6.59326 7.02295C6.5931 6.28024 5.99122 5.67848 5.24854 5.67822Z" fill="white"/>
</g>
<defs>
<clipPath id="clip0_82_87">
<rect width="20" height="20" fill="white"/>
</clipPath>
</defs>
</svg>
