<svg width="25" height="25" viewBox="0 0 25 25" fill="none" xmlns="http://www.w3.org/2000/svg">
<g clip-path="url(#clip0_247_1895)">
<path d="M2.48224 4.07759C2.12216 3.81142 1.59935 3.8731 1.31544 4.21067C1.03153 4.54825 1.09732 5.03838 1.4574 5.30455L21.9543 20.3656C22.3144 20.6318 22.8372 20.5701 23.1211 20.2325C23.405 19.8949 23.3392 19.4048 22.9791 19.1386L19.3368 16.464C20.7078 15.1462 21.6357 13.6693 22.1032 12.6208C22.2174 12.3644 22.2174 12.0788 22.1032 11.8223C21.5873 10.6636 20.5036 8.97568 18.8832 7.56695C17.2559 6.14524 15.0158 4.95074 12.2183 4.95074C9.85697 4.95074 7.89037 5.80442 6.35657 6.92426L2.48224 4.07759ZM7.71033 7.91751C8.96369 7.08331 10.4698 6.50878 12.2183 6.50878C14.4757 6.50878 16.3315 7.46957 17.7545 8.70627C19.0875 9.86831 20.0085 11.2478 20.4793 12.2216C20.0431 13.1305 19.2121 14.3899 18.0246 15.4967L16.1618 14.1269C16.4769 13.5557 16.6535 12.9097 16.6535 12.2216C16.6535 9.92673 14.6696 8.06682 12.2217 8.06682C11.1069 8.06682 10.0855 8.45309 9.30646 9.08928L7.71033 7.91751ZM14.8115 13.1369L11.9897 11.0628C12.1352 10.7869 12.2183 10.472 12.2183 10.1442C12.2183 9.96568 12.194 9.7904 12.149 9.62486C12.1733 9.62486 12.194 9.62486 12.2183 9.62486C13.7486 9.62486 14.9881 10.7869 14.9881 12.2216C14.9881 12.5429 14.9258 12.8513 14.8115 13.1369ZM15.137 17.3664C14.2541 17.7202 13.2812 17.9344 12.2183 17.9344C9.96084 17.9344 8.10504 16.9736 6.68203 15.7369C5.34904 14.5749 4.42806 13.1954 3.95719 12.2216C4.24456 11.6243 4.70159 10.8745 5.32134 10.1182L4.01605 9.1542C3.22664 10.1182 2.66228 11.079 2.33336 11.8223C2.21911 12.0788 2.21911 12.3644 2.33336 12.6208C2.84925 13.7796 3.93295 15.4675 5.55331 16.8762C7.1806 18.298 9.42071 19.4924 12.2183 19.4924C13.8732 19.4924 15.3309 19.0737 16.5877 18.4375L15.137 17.3664ZM7.7865 12.2216C7.7865 14.5165 9.77041 16.3764 12.2183 16.3764C12.6788 16.3764 13.1219 16.3115 13.5409 16.1881L11.595 14.7534C10.7814 14.5781 10.1028 14.0653 9.73579 13.3804L7.79343 11.9457C7.7865 12.0366 7.78304 12.1275 7.78304 12.2216H7.7865Z" fill="#262E30"/>
</g>
<defs>
<clipPath id="clip0_247_1895">
<rect width="24" height="24" fill="white" transform="translate(0.269531 0.221558)"/>
</clipPath>
</defs>
</svg>
