<svg width="351" height="348" viewBox="0 0 351 348" fill="none" xmlns="http://www.w3.org/2000/svg">
<path d="M173.954 0.0898438C270.026 0.0898438 347.908 77.972 347.908 174.044C347.908 194.68 344.309 214.476 337.713 232.842C345.761 240.411 350.789 251.154 350.789 263.074C350.789 285.992 332.21 304.571 309.292 304.571C303.404 304.571 297.802 303.342 292.729 301.131C261.638 330.201 219.876 347.998 173.954 347.998C77.8819 347.998 0 270.116 0 174.044C0.000305138 77.972 77.8821 0.0899015 173.954 0.0898438ZM173.954 24.0898C91.1369 24.0899 24.0003 91.2268 24 174.044C24 256.861 91.1367 323.998 173.954 323.998C212.56 323.998 247.755 309.407 274.333 285.441C270.195 278.987 267.795 271.311 267.795 263.074C267.795 240.156 286.374 221.577 309.292 221.577C311.586 221.577 313.836 221.766 316.028 222.124C321.135 207.031 323.908 190.861 323.908 174.044C323.908 91.2268 256.771 24.0898 173.954 24.0898ZM309.292 233.577C293.001 233.577 279.795 246.783 279.795 263.074C279.795 279.365 293.001 292.571 309.292 292.571C325.583 292.571 338.789 279.365 338.789 263.074C338.789 246.784 325.583 233.577 309.292 233.577ZM173.954 58.1787C237.945 58.1788 289.82 110.054 289.82 174.045C289.82 238.036 237.945 289.911 173.954 289.911C109.963 289.911 58.0881 238.036 58.0879 174.045C58.0879 164.078 59.3479 154.405 61.7148 145.176C55.0477 138.513 50.9229 129.305 50.9229 119.135C50.923 98.8019 67.4064 82.3188 87.7393 82.3184C92.1761 82.3184 96.4301 83.1026 100.369 84.541C120.381 68.0696 146.012 58.1788 173.954 58.1787ZM173.954 82.1787C153.487 82.1788 134.584 88.8724 119.312 100.189C122.641 105.724 124.557 112.206 124.557 119.135C124.556 139.468 108.072 155.952 87.7393 155.952C86.4462 155.952 85.1688 155.884 83.9102 155.754C82.7157 161.665 82.0879 167.782 82.0879 174.045C82.0881 224.781 123.218 265.911 173.954 265.911C224.69 265.911 265.82 224.781 265.82 174.045C265.82 123.309 224.69 82.1788 173.954 82.1787ZM173.954 114.728C206.714 114.728 233.271 141.285 233.271 174.044C233.271 178.797 232.708 183.419 231.651 187.849C234.459 191.808 236.109 196.645 236.109 201.867C236.109 215.267 225.246 226.131 211.846 226.131C209.246 226.131 206.742 225.72 204.394 224.963C195.494 230.295 185.083 233.361 173.954 233.361C141.195 233.361 114.638 206.804 114.638 174.044C114.638 141.285 141.195 114.728 173.954 114.728ZM211.846 185.604C202.864 185.605 195.583 192.886 195.583 201.867C195.583 210.849 202.864 218.13 211.846 218.131C220.828 218.131 228.109 210.849 228.109 201.867C228.109 192.886 220.827 185.604 211.846 185.604ZM173.954 138.728C154.45 138.728 138.638 154.539 138.638 174.044C138.638 193.549 154.449 209.361 173.954 209.361C178.953 209.361 183.707 208.32 188.017 206.446C187.733 204.963 187.583 203.433 187.583 201.867C187.583 189.405 196.979 179.139 209.073 177.763C209.202 176.54 209.271 175.3 209.271 174.044C209.271 154.539 193.459 138.728 173.954 138.728ZM87.7393 94.3184C74.0338 94.3188 62.923 105.429 62.9229 119.135C62.923 132.84 74.0338 143.952 87.7393 143.952C101.445 143.952 112.556 132.841 112.557 119.135C112.556 105.429 101.445 94.3184 87.7393 94.3184Z" fill="#060606"/>
</svg>
