<svg width="13" height="13" viewBox="0 0 13 13" fill="none" xmlns="http://www.w3.org/2000/svg">
<path d="M6.09277 0.317383C9.33233 0.317462 11.9588 2.94331 11.959 6.18262C11.959 6.87842 11.8341 7.54488 11.6113 8.16406C11.8844 8.41942 12.0566 8.78218 12.0566 9.18555C12.0564 9.95802 11.4298 10.5838 10.6572 10.584C10.4576 10.584 10.2675 10.5421 10.0957 10.4668C9.04742 11.4468 7.64108 12.0488 6.09277 12.0488C2.85303 12.0488 0.226562 9.42213 0.226562 6.18262C0.226749 2.94326 2.85315 0.317385 6.09277 0.317383ZM6.09277 1.12695C3.30013 1.12696 1.03632 3.39021 1.03613 6.18262C1.03613 8.97518 3.30001 11.2393 6.09277 11.2393C7.3952 11.2392 8.58028 10.7444 9.47656 9.93555C9.33838 9.7187 9.25789 9.46171 9.25781 9.18555C9.25782 8.41276 9.88438 7.78614 10.6572 7.78613C10.7334 7.78615 10.808 7.79295 10.8809 7.80469C11.0536 7.29541 11.1494 6.7502 11.1494 6.18262C11.1492 3.39026 8.88535 1.12703 6.09277 1.12695ZM10.6572 8.19043C10.1079 8.19043 9.66211 8.63623 9.66211 9.18555C9.66233 9.73468 10.108 10.1797 10.6572 10.1797C11.2063 10.1795 11.6511 9.73455 11.6514 9.18555C11.6514 8.63636 11.2064 8.19065 10.6572 8.19043ZM6.09277 2.27637C8.25055 2.27652 10 4.02593 10 6.18359C9.9998 8.34108 8.25043 10.0897 6.09277 10.0898C3.93499 10.0898 2.18574 8.34118 2.18555 6.18359C2.18555 5.8477 2.22967 5.52197 2.30957 5.21094C2.08408 4.98624 1.94444 4.67547 1.94434 4.33203C1.94434 3.6465 2.5 3.09 3.18555 3.08984C3.33482 3.08984 3.47778 3.11773 3.61035 3.16602C4.28533 2.61021 5.15014 2.27637 6.09277 2.27637ZM6.09277 3.08594C5.40186 3.08594 4.76517 3.31389 4.25 3.69629C4.36138 3.88241 4.42773 4.09936 4.42773 4.33203C4.42752 5.01748 3.87109 5.57324 3.18555 5.57324C3.14165 5.57323 3.09838 5.56988 3.05566 5.56543C3.01541 5.76512 2.99512 5.97207 2.99512 6.18359C2.99531 7.89423 4.38197 9.28125 6.09277 9.28125C7.80345 9.2811 9.19023 7.89414 9.19043 6.18359C9.19043 4.47288 7.80357 3.08609 6.09277 3.08594ZM6.09277 4.18262C7.19717 4.18281 8.0925 5.07832 8.09277 6.18262C8.09277 6.34254 8.07148 6.49766 8.03516 6.64648C8.13106 6.78046 8.18843 6.94378 8.18848 7.12109C8.18848 7.57294 7.822 7.93945 7.37012 7.93945C7.28096 7.93941 7.19556 7.92386 7.11523 7.89746C6.81594 8.07697 6.46722 8.18255 6.09277 8.18262C4.98826 8.18238 4.0918 7.28711 4.0918 6.18262C4.09207 5.07835 4.98842 4.18286 6.09277 4.18262ZM7.37012 6.57324C7.06748 6.57344 6.82239 6.81846 6.82227 7.12109C6.82227 7.42383 7.0674 7.66972 7.37012 7.66992C7.673 7.66992 7.91895 7.42396 7.91895 7.12109C7.91882 6.81834 7.67292 6.57324 7.37012 6.57324ZM6.09277 4.99219C5.4354 4.99243 4.90164 5.5253 4.90137 6.18262C4.90137 6.84017 5.43524 7.37378 6.09277 7.37402C6.26154 7.37397 6.42126 7.33644 6.56641 7.27246C6.55725 7.22346 6.55273 7.17274 6.55273 7.12109C6.55285 6.70151 6.86839 6.3557 7.27539 6.30859C7.28002 6.2673 7.2832 6.22511 7.2832 6.18262C7.28293 5.52527 6.75019 4.99238 6.09277 4.99219ZM3.18555 3.49512C2.72349 3.49527 2.34864 3.86998 2.34863 4.33203C2.34885 4.79391 2.72362 5.16879 3.18555 5.16895C3.6476 5.16895 4.02224 4.794 4.02246 4.33203C4.02245 3.86988 3.64773 3.49512 3.18555 3.49512Z" fill="#6A6C6B"/>
</svg>
