<svg width="24" height="25" viewBox="0 0 24 25" fill="none" xmlns="http://www.w3.org/2000/svg">
<path d="M20.069 11.4147C20.5849 11.4147 21 10.9996 21 10.4837V4.89747C21 4.38152 20.5849 3.96643 20.069 3.96643C19.553 3.96643 19.1379 4.38152 19.1379 4.89747V8.00479L18.3621 7.09315C16.7716 5.18453 14.3703 3.96643 11.6897 3.96643C6.89095 3.96643 3 7.85738 3 12.6561C3 17.4548 6.89095 21.3457 11.6897 21.3457C13.6448 21.3457 15.4526 20.6979 16.9034 19.6078C17.3147 19.2975 17.3961 18.7156 17.0897 18.3044C16.7832 17.8932 16.1974 17.8117 15.7862 18.1182C14.6457 18.9755 13.2297 19.4837 11.6897 19.4837C7.91897 19.4837 4.86207 16.4268 4.86207 12.6561C4.86207 8.8854 7.91897 5.8285 11.6897 5.8285C13.7961 5.8285 15.6815 6.78281 16.9345 8.28798L16.9384 8.29574L18.0091 9.55264H14.4828C13.9668 9.55264 13.5517 9.96772 13.5517 10.4837C13.5517 10.9996 13.9668 11.4147 14.4828 11.4147H20.069Z" fill="#AF7CFF"/>
</svg>
