<svg width="25" height="25" viewBox="0 0 25 25" fill="none" xmlns="http://www.w3.org/2000/svg">
<path d="M12.2687 5.84875C10.0048 5.84875 8.14366 6.88938 6.71658 8.22883C5.37977 9.48743 4.45616 10.9816 3.98394 12.0363C4.45616 13.0909 5.37977 14.5851 6.71311 15.8437C8.14366 17.1831 10.0048 18.2238 12.2687 18.2238C14.5326 18.2238 16.3937 17.1831 17.8207 15.8437C19.1576 14.5851 20.0812 13.0909 20.5534 12.0363C20.0812 10.9816 19.1576 9.48743 17.8242 8.22883C16.3937 6.88938 14.5326 5.84875 12.2687 5.84875ZM5.58116 6.99485C7.21658 5.455 9.46311 4.16125 12.2687 4.16125C15.0742 4.16125 17.3207 5.455 18.9562 6.99485C20.5812 8.52415 21.668 10.3488 22.1853 11.6038C22.2999 11.8816 22.2999 12.1909 22.1853 12.4687C21.668 13.7238 20.5812 15.5519 18.9562 17.0777C17.3207 18.6175 15.0742 19.9113 12.2687 19.9113C9.46311 19.9113 7.21658 18.6175 5.58116 17.0777C3.95616 15.5519 2.86936 13.7238 2.35547 12.4687C2.24089 12.1909 2.24089 11.8816 2.35547 11.6038C2.86936 10.3488 3.95616 8.52063 5.58116 6.99485ZM12.2687 14.8488C13.8034 14.8488 15.0464 13.5902 15.0464 12.0363C15.0464 10.4823 13.8034 9.22375 12.2687 9.22375C12.2444 9.22375 12.2235 9.22375 12.1992 9.22375C12.2444 9.40305 12.2687 9.5929 12.2687 9.78625C12.2687 11.0273 11.2721 12.0363 10.0464 12.0363C9.85547 12.0363 9.66797 12.0116 9.49089 11.9659C9.49089 11.9906 9.49089 12.0116 9.49089 12.0363C9.49089 13.5902 10.7339 14.8488 12.2687 14.8488ZM12.2687 7.53625C13.4474 7.53625 14.5779 8.01036 15.4114 8.85427C16.2449 9.69819 16.7131 10.8428 16.7131 12.0363C16.7131 13.2297 16.2449 14.3743 15.4114 15.2182C14.5779 16.0621 13.4474 16.5363 12.2687 16.5363C11.0899 16.5363 9.95946 16.0621 9.12597 15.2182C8.29247 14.3743 7.82422 13.2297 7.82422 12.0363C7.82422 10.8428 8.29247 9.69819 9.12597 8.85427C9.95946 8.01036 11.0899 7.53625 12.2687 7.53625Z" fill="#262E30"/>
</svg>
