<svg width="20" height="21" viewBox="0 0 20 21" fill="none" xmlns="http://www.w3.org/2000/svg">
<path d="M16.3542 13.7632H10.4167C9.32503 13.7632 8.4375 12.8757 8.4375 11.784V3.86735C8.4375 2.77572 9.32503 1.88818 10.4167 1.88818H14.7492C15.1419 1.88818 15.5192 2.0459 15.7975 2.32422L17.8973 4.42399C18.1756 4.70231 18.3333 5.07959 18.3333 5.47233V11.784C18.3333 12.8757 17.4458 13.7632 16.3542 13.7632ZM4.47917 5.84652H7.44792V7.33089H4.47917C4.20703 7.33089 3.98438 7.55355 3.98438 7.82568V15.7423C3.98438 16.0145 4.20703 16.2371 4.47917 16.2371H10.4167C10.6888 16.2371 10.9115 16.0145 10.9115 15.7423V14.7528H12.3958V15.7423C12.3958 16.834 11.5083 17.7215 10.4167 17.7215H4.47917C3.38753 17.7215 2.5 16.834 2.5 15.7423V7.82568C2.5 6.73405 3.38753 5.84652 4.47917 5.84652Z" fill="#6B6B6B"/>
</svg>
