<svg width="137" height="109" viewBox="0 0 137 109" fill="none" xmlns="http://www.w3.org/2000/svg">
<rect width="136.25" height="109" fill="white"/>
<path d="M68.6926 93.6644C90.2329 93.6644 107.696 76.2014 107.696 54.5843C107.696 32.9671 90.1559 15.5042 68.6926 15.5042C47.1524 15.5042 29.6895 32.9671 29.6895 54.5843C29.6895 76.2014 47.1524 93.6644 68.6926 93.6644Z" fill="#F7F7F7"/>
<path fill-rule="evenodd" clip-rule="evenodd" d="M29.0078 54.5844C29.0078 32.5918 46.7749 14.823 68.6922 14.823C90.5318 14.823 108.377 32.591 108.377 54.5844C108.377 76.5769 90.6096 94.3457 68.6922 94.3457C46.7749 94.3457 29.0078 76.5769 29.0078 54.5844ZM68.6922 16.1855C47.5291 16.1855 30.3703 33.3426 30.3703 54.5844C30.3703 75.8261 47.5291 92.9832 68.6922 92.9832C89.8554 92.9832 107.014 75.8261 107.014 54.5844C107.014 33.3435 89.7793 16.1855 68.6922 16.1855Z" fill="#EBEBEB"/>
<path fill-rule="evenodd" clip-rule="evenodd" d="M90.4698 16.3496C90.6722 15.9708 90.8724 15.5864 91.0704 15.196L92.2855 15.8125C92.0832 16.2114 91.8784 16.6044 91.6714 16.9918L90.4698 16.3496ZM87.8256 20.8043C88.2914 20.0969 88.7488 19.3658 89.1971 18.6099L90.369 19.3049C89.9099 20.079 89.4412 20.8283 88.9635 21.5537L87.8256 20.8043ZM84.7651 24.9812C85.301 24.3237 85.8288 23.6412 86.3476 22.9326L87.447 23.7375C86.9142 24.4651 86.372 25.1662 85.8212 25.842L84.7651 24.9812ZM81.288 28.8066C81.8924 28.2107 82.4894 27.5895 83.0781 26.9416L84.0866 27.8578C83.481 28.5243 82.8666 29.1635 82.2446 29.7769L81.288 28.8066ZM77.412 32.2253C78.0802 31.6987 78.7425 31.1475 79.3976 30.5697L80.2988 31.5916C79.6245 32.1863 78.9429 32.7536 78.2552 33.2955L77.412 32.2253ZM54.1474 34.869C53.6751 34.6677 53.1488 34.5742 52.6103 34.5848L52.5837 33.2225C53.2938 33.2086 54.0131 33.331 54.6798 33.6148C55.3515 33.8967 55.9427 34.3028 56.4456 34.7938L55.4938 35.7687C55.1042 35.3883 54.6543 35.0815 54.1511 34.8705L54.1474 34.869ZM73.1826 35.2011C73.9054 34.7477 74.6243 34.2712 75.3377 33.7696L76.1214 34.8841C75.3878 35.4 74.649 35.8897 73.9065 36.3554L73.1826 35.2011ZM49.7351 35.7816C49.3794 36.1493 49.1202 36.5862 48.9911 37.08L48.9895 37.0861L48.9894 37.086C48.8402 37.6358 48.8502 38.1909 48.99 38.7305L47.6711 39.0722C47.4773 38.3241 47.4581 37.5283 47.6738 36.7319C47.868 35.9917 48.254 35.3532 48.7558 34.8343L49.7351 35.7816ZM68.6651 37.7315C69.4304 37.3492 70.1944 36.9463 70.9553 36.5206L71.6205 37.7097C70.8401 38.1463 70.0574 38.559 69.2739 38.9504L68.6651 37.7315ZM57.1151 40.3755C57.1649 39.8197 57.1328 39.2507 57.0235 38.6954L58.3603 38.4323C58.4936 39.1096 58.5339 39.8082 58.4722 40.497C58.4105 41.186 58.259 41.8517 58.0348 42.4872L56.7499 42.0339C56.9388 41.4986 57.0642 40.9442 57.1151 40.3755ZM63.9277 39.854C64.7237 39.534 65.5216 39.1968 66.3195 38.84L66.8757 40.0839C66.0607 40.4483 65.2468 40.7921 64.436 41.1181L63.9277 39.854ZM60.2731 41.2193C60.6805 41.0775 61.0892 40.9322 61.4989 40.783L61.9651 42.0632C61.5494 42.2146 61.1351 42.362 60.7222 42.5057M51.0836 41.4845C51.5884 41.8195 52.1421 42.0713 52.7068 42.2165C53.311 42.3718 53.9291 42.4435 54.5582 42.4487L54.547 43.8111C53.8214 43.8052 53.0919 43.7223 52.3676 43.5361C51.6455 43.3505 50.9529 43.033 50.3302 42.6198L51.0836 41.4845ZM53.6572 46.1684C54.1157 45.8068 54.549 45.4064 54.944 44.9733L55.9507 45.8914C55.5027 46.3826 55.0136 46.8341 54.4983 47.2403L54.4934 47.2442L54.4934 47.2442C53.9704 47.6486 53.4246 48.0122 52.8623 48.3413L52.1741 47.1654C52.6897 46.8636 53.1855 46.5331 53.6572 46.1684ZM47.1244 49.243C47.7144 49.0679 48.2992 48.8798 48.8746 48.6731L49.3353 49.9554C48.7314 50.1723 48.1218 50.3682 47.5127 50.549M40.7669 50.8544C41.5677 50.6688 42.3654 50.4839 43.1615 50.2922L43.4805 51.6169C42.6783 51.81 41.8747 51.9963 41.0746 52.1817C40.9799 52.2036 40.8852 52.2256 40.7906 52.2475L40.4828 50.9202C40.5776 50.8982 40.6722 50.8763 40.7669 50.8544ZM35.1018 52.2634C35.9951 52.0105 36.893 51.7785 37.7914 51.5577L38.1165 52.8809C37.2283 53.0991 36.3466 53.3271 35.4728 53.5744L35.1018 52.2634ZM31.1161 53.5774C31.5532 53.4084 31.9924 53.2483 32.4333 53.096L32.8782 54.3838C32.4515 54.5312 32.0276 54.6857 31.6068 54.8485L31.6053 54.8491C31.1878 55.0094 30.7723 55.1801 30.3603 55.3612L29.812 54.1139C30.2439 53.924 30.6792 53.7452 31.1161 53.5774ZM24.9035 56.9211C25.6631 56.3616 26.4614 55.8482 27.285 55.3801L27.9582 56.5647C27.1777 57.0083 26.4247 57.4928 25.7115 58.0181L24.9035 56.9211ZM97.7922 56.9358C96.9052 56.9829 96.0212 57.1103 95.1542 57.3138L94.8428 55.9873C95.7871 55.7657 96.7511 55.6267 97.7199 55.5752L97.7922 56.9358ZM101.755 57.2789C101.324 57.1778 100.888 57.0981 100.449 57.0394L100.63 55.6889C101.111 55.7534 101.591 55.841 102.066 55.9524C102.542 56.0638 103.01 56.1987 103.471 56.3554L103.032 57.6453C102.613 57.5026 102.187 57.38 101.755 57.2789ZM92.621 58.1474C91.8025 58.4986 91.0161 58.9213 90.2756 59.4109L89.5242 58.2742C90.3338 57.7391 91.192 57.278 92.0836 56.8953L92.621 58.1474ZM107.658 60.2465C106.97 59.6789 106.234 59.1716 105.46 58.7349L106.129 57.5482C106.974 58.0251 107.776 58.578 108.525 59.1957L107.658 60.2465ZM20.8501 60.9329C21.4111 60.1591 22.0424 59.4365 22.7283 58.7644L23.6819 59.7375C23.0461 60.3606 22.4657 61.0257 21.9532 61.7326L20.8501 60.9329ZM52.6911 59.8544C53.2615 59.7288 53.8316 59.6735 54.3958 59.681L54.3778 61.0433C53.9167 61.0373 53.4523 61.0823 52.9881 61.1841C52.6246 61.2689 52.2724 61.3879 51.9335 61.5376L51.3828 60.2914C51.7984 60.1078 52.2328 59.9609 52.6833 59.8562L52.6911 59.8543L52.6911 59.8544ZM88.2046 61.0758C87.8878 61.3844 87.5859 61.7084 87.3005 62.0472C87.0604 62.3322 86.8317 62.6252 86.6132 62.9256L85.5115 62.124C85.748 61.7988 85.9966 61.4803 86.2584 61.1695C86.5731 60.7958 86.9056 60.4391 87.254 60.0998L88.2046 61.0758ZM57.6851 60.4262C58.6907 60.871 59.6297 61.4928 60.4674 62.2329L59.5653 63.254C58.8208 62.5963 57.9984 62.0546 57.1339 61.6723L57.6851 60.4262ZM111.112 64.2885C110.662 63.5227 110.142 62.7955 109.562 62.1176L110.598 61.2318C111.229 61.9697 111.796 62.7624 112.287 63.5988L111.112 64.2885ZM47.4683 63.8977C47.9198 63.1195 48.4799 62.4061 49.1311 61.7955L50.0631 62.7893C49.5131 63.3051 49.0348 63.9128 48.6468 64.5814L47.4683 63.8977ZM18.8516 64.767C19.0076 64.3059 19.1869 63.8574 19.3876 63.4214L20.6253 63.9911C20.4439 64.3851 20.2823 64.7897 20.1418 65.2051L20.1407 65.2082C19.9898 65.6477 19.8652 66.0951 19.7661 66.5482L18.4351 66.2569C18.545 65.7545 18.6834 65.257 18.8516 64.767ZM85.4089 64.8197C85.0432 65.4747 84.709 66.1529 84.3963 66.8486L83.1535 66.2902C83.4791 65.5656 83.8309 64.8512 84.2192 64.1555L85.4089 64.8197ZM62.6237 64.7196C62.9288 65.1818 63.202 65.6625 63.4386 66.1551C63.6684 66.6311 63.8709 67.1171 64.0469 67.6109L62.7635 68.0683C62.6035 67.6195 62.4197 67.1784 62.2114 66.7471L62.2107 66.7457C62.0015 66.3098 61.7588 65.8826 61.4865 65.4701L62.6237 64.7196ZM112.626 67.9676C112.519 67.538 112.39 67.114 112.241 66.6969L113.523 66.2378C113.687 66.6963 113.83 67.1632 113.948 67.637C114.086 68.188 114.186 68.7545 114.247 69.3279L112.892 69.4731C112.837 68.9602 112.748 68.4556 112.626 67.9676ZM46.2274 67.6962C46.2726 67.2496 46.3512 66.807 46.4605 66.3729L47.7818 66.7056C47.6882 67.0771 47.6214 67.4543 47.583 67.8333C47.544 68.2195 47.5308 68.6058 47.5417 68.9908L46.1798 69.0295C46.1672 68.5875 46.1823 68.1425 46.2274 67.6962ZM83.5205 68.9648C83.2446 69.6804 82.9814 70.4045 82.7201 71.1332L81.4375 70.6734C81.6998 69.9419 81.9674 69.2057 82.2491 68.4747L83.5205 68.9648ZM93.9743 69.0328C94.1896 69.3978 94.4051 69.7623 94.623 70.1256L93.4545 70.8264C93.2339 70.4585 93.0163 70.0904 92.8008 69.7251L93.9743 69.0328ZM18.3806 72.3705C18.1954 71.3648 18.0991 70.3413 18.1037 69.3187L19.4662 69.3248C19.462 70.2581 19.5499 71.1969 19.7206 72.1236L18.3806 72.3705ZM64.7929 70.6654C64.9381 71.7011 64.9826 72.7506 64.9323 73.7967L63.5714 73.7313C63.6177 72.7672 63.5765 71.8029 63.4436 70.8546L64.7929 70.6654ZM47.5101 74.1005C47.1189 73.317 46.7996 72.4953 46.5715 71.6481L47.8871 71.2939C48.0899 72.0467 48.3754 72.7835 48.7291 73.492L47.5101 74.1005ZM95.961 72.2607C96.4251 72.9591 96.9085 73.6346 97.4233 74.2744L96.3618 75.1285C95.8149 74.4489 95.3071 73.7384 94.8262 73.0149L95.961 72.2607ZM111.896 75.4112C112.343 74.5361 112.649 73.5551 112.814 72.5304L114.159 72.7469C113.974 73.8956 113.628 75.0151 113.109 76.0308L111.896 75.4112ZM81.9315 73.3279C81.7971 73.6955 81.6606 74.0625 81.5209 74.4274C81.3815 74.7918 81.2358 75.1578 81.0833 75.5236L79.8257 74.9993C79.9726 74.6469 80.1133 74.2934 80.2484 73.9405C80.3851 73.5834 80.5191 73.223 80.652 72.8598L81.9315 73.3279ZM19.7806 76.7252C19.5654 76.2655 19.3686 75.7949 19.1916 75.3156L20.4697 74.8436C20.6335 75.287 20.8155 75.7223 21.0145 76.1474C21.215 76.5756 21.4335 76.9957 21.6687 77.4078L20.4854 78.0832C20.2327 77.6405 19.9971 77.1878 19.7806 76.7252ZM49.6961 77.3349C49.4113 77.0106 49.138 76.6728 48.8785 76.3229L49.973 75.5114C50.2101 75.8312 50.4602 76.1403 50.721 76.437L50.7243 76.4408C50.9866 76.7438 51.2602 77.0359 51.544 77.3181L50.5833 78.2843C50.2772 77.9799 49.9811 77.6638 49.6961 77.3349ZM99.0837 76.0827C99.3795 76.3608 99.686 76.6262 100.005 76.8774C100.316 77.1227 100.643 77.3531 100.984 77.5656L100.263 78.7218C99.8803 78.4829 99.5116 78.2238 99.1609 77.9473C98.8095 77.6702 98.4733 77.3788 98.1506 77.0755L99.0837 76.0827ZM64.5058 76.8949C64.274 77.9113 63.9539 78.9087 63.5508 79.8706L62.2942 79.3439C62.667 78.4545 62.963 77.5318 63.1775 76.5919L64.5058 76.8949ZM80.0944 77.6783C79.7353 78.3873 79.3443 79.0839 78.9171 79.7546L77.7679 79.0226C78.168 78.3945 78.5372 77.7373 78.879 77.0625L80.0944 77.6783ZM108.831 78.4842C109.281 78.2743 109.693 78.0148 110.067 77.7133L110.922 78.7742C110.465 79.1423 109.961 79.4604 109.41 79.7179C108.983 79.9205 108.545 80.079 108.1 80.1968L107.751 78.8795C108.119 78.7824 108.478 78.6522 108.827 78.4864L108.831 78.4842ZM103.138 78.5975C103.897 78.86 104.677 79.0273 105.448 79.0817L105.353 80.4409C104.451 80.3773 103.554 80.1829 102.693 79.8853L103.138 78.5975ZM54.6464 81.4449C53.9209 80.9899 53.2136 80.5058 52.5351 79.9841L53.3656 78.904C54.0044 79.3952 54.6754 79.8548 55.3703 80.2906L54.6464 81.4449ZM24.192 82.8817C23.4792 82.1636 22.8058 81.4063 22.1856 80.6102L23.2604 79.7729C23.8443 80.5224 24.4811 81.239 25.1589 81.9218L24.192 82.8817ZM77.5002 81.7011C76.978 82.3249 76.4108 82.9079 75.7933 83.4341L74.9096 82.3969C75.4626 81.9258 75.9766 81.3985 76.4554 80.8265L77.5002 81.7011ZM57.9711 83.3116C57.596 83.1194 57.2218 82.9233 56.85 82.7224L57.4976 81.5237C57.8587 81.7188 58.2231 81.9098 58.59 82.0978C58.9464 82.2775 59.3074 82.4533 59.6726 82.6238L59.0961 83.8584C58.717 83.6814 58.3431 83.4992 57.9751 83.3137L57.9711 83.3116ZM62.0934 82.6381C61.8096 83.0774 61.5058 83.5036 61.1828 83.9146C60.8598 84.3256 60.5199 84.7211 60.1645 85.1009L59.1697 84.1698C59.4988 83.8182 59.8132 83.4524 60.1115 83.0727C60.4082 82.6952 60.6876 82.3032 60.9491 81.8986L62.0934 82.6381ZM63.799 85.6106C62.9888 85.3953 62.1872 85.132 61.4011 84.835L61.8825 83.5604C62.6318 83.8434 63.3892 84.0919 64.1489 84.2938L63.799 85.6106ZM73.7732 84.8318C73.4149 85.0275 73.0434 85.2051 72.6581 85.3626C72.251 85.5307 71.8393 85.6719 71.4241 85.7881L71.0569 84.4761C71.4216 84.374 71.7825 84.2501 72.1391 84.1028L72.1415 84.1018C72.479 83.9639 72.8051 83.8082 73.1201 83.6361L73.7732 84.8318ZM27.6107 85.8406C27.2103 85.5403 26.815 85.2304 26.4263 84.9108L27.2917 83.8584C27.6636 84.1642 28.0425 84.4613 28.4268 84.7495C28.8204 85.0423 29.2216 85.3261 29.6298 85.6L28.8704 86.7313C28.4436 86.4448 28.0242 86.1482 27.6128 85.8421L27.6107 85.8406ZM68.8614 86.2032C68.0063 86.2492 67.1476 86.2101 66.2935 86.1035L66.4623 84.7515C67.2459 84.8493 68.0232 84.8838 68.7883 84.8427L68.8614 86.2032ZM57.8531 87.1935C57.0309 87.8253 56.1589 88.3928 55.2494 88.8944L54.5914 87.7013C55.443 87.2317 56.2571 86.7016 57.023 86.1131L57.8531 87.1935ZM34.2961 89.6395C33.3459 89.2485 32.4153 88.8073 31.5092 88.3208L32.1537 87.1204C33.0198 87.5854 33.9084 88.0066 34.8146 88.3795L34.2961 89.6395ZM52.4316 90.1959C51.4652 90.5626 50.4725 90.8633 49.4651 91.0963L49.1582 89.7688C50.1064 89.5495 51.04 89.2667 51.9482 88.9221L52.4316 90.1959ZM40.2242 91.3483C39.2078 91.1782 38.2012 90.9469 37.2098 90.6596L37.5889 89.3509C38.5315 89.624 39.4865 89.8434 40.4491 90.0045L40.2242 91.3483ZM46.4056 91.5909C45.89 91.639 45.3734 91.6696 44.8572 91.6825C44.3392 91.6955 43.8217 91.6911 43.3053 91.67L43.3609 90.3086C43.8479 90.3285 44.3355 90.3327 44.8232 90.3205C45.3082 90.3083 45.794 90.2795 46.2789 90.2343L46.4056 91.5909Z" fill="#DBDBDB"/>
<path d="M61.4182 33.4712C67.9917 35.6965 75.1245 32.1715 77.3498 25.598C79.575 19.0245 76.0501 11.8917 69.4766 9.66643C62.9031 7.44115 55.7703 10.9661 53.545 17.5396C51.3197 24.1131 54.8446 31.2459 61.4182 33.4712Z" fill="white"/>
<path fill-rule="evenodd" clip-rule="evenodd" d="M69.2582 10.3117C63.0411 8.20702 56.295 11.5409 54.1904 17.758C52.0857 23.9751 55.4195 30.7212 61.6367 32.8259C67.8538 34.9305 74.5999 31.5967 76.7046 25.3795C78.8092 19.1624 75.4754 12.4163 69.2582 10.3117ZM52.8998 17.3211C55.2457 10.3912 62.7652 6.67518 69.6951 9.0211C76.625 11.367 80.341 18.8865 77.9951 25.8164C75.6492 32.7463 68.1297 36.4623 61.1998 34.1164C54.2699 31.7705 50.5539 24.251 52.8998 17.3211Z" fill="#DBDBDB"/>
<path d="M62.173 31.2407C67.5147 33.049 73.311 30.1846 75.1193 24.8428C76.9276 19.5011 74.0631 13.7048 68.7214 11.8965C63.3797 10.0882 57.5834 12.9527 55.7751 18.2944C53.9668 23.6361 56.8312 29.4324 62.173 31.2407Z" fill="white"/>
<path fill-rule="evenodd" clip-rule="evenodd" d="M68.503 12.5418C63.5177 10.8541 58.1081 13.5274 56.4205 18.5128C54.7328 23.4982 57.4061 28.9077 62.3915 30.5954C67.3768 32.283 72.7864 29.6097 74.4741 24.6243C76.1617 19.639 73.4884 14.2294 68.503 12.5418ZM55.1299 18.0759C57.0588 12.3778 63.2418 9.32226 68.9399 11.2512C74.638 13.1801 77.6936 19.3631 75.7646 25.0612C73.8357 30.7593 67.6527 33.8149 61.9546 31.8859C56.2565 29.957 53.201 23.774 55.1299 18.0759Z" fill="#DBDBDB"/>
<path d="M65.0202 22.8301C65.717 23.066 66.473 22.6924 66.7089 21.9956C66.9447 21.2989 66.5711 20.5428 65.8744 20.307C65.1776 20.0711 64.4216 20.4447 64.1857 21.1415C63.9499 21.8382 64.3235 22.5942 65.0202 22.8301Z" fill="white"/>
<path fill-rule="evenodd" clip-rule="evenodd" d="M65.656 20.9524C65.3156 20.8372 64.9463 21.0197 64.8311 21.3601C64.7159 21.7005 64.8984 22.0698 65.2387 22.185C65.5791 22.3002 65.9485 22.1177 66.0637 21.7774C66.1789 21.437 65.9964 21.0677 65.656 20.9524ZM63.5405 20.9232C63.897 19.8701 65.0398 19.3054 66.0929 19.6619C67.146 20.0184 67.7107 21.1611 67.3542 22.2142C66.9977 23.2674 65.855 23.8321 64.8019 23.4756C63.7487 23.1191 63.184 21.9763 63.5405 20.9232Z" fill="#DBDBDB"/>
<path fill-rule="evenodd" clip-rule="evenodd" d="M65.0869 20.5093L66.9375 15.0425L68.2281 15.4794L66.3774 20.9462L65.0869 20.5093Z" fill="#DBDBDB"/>
<path fill-rule="evenodd" clip-rule="evenodd" d="M70.0471 22.4111L66.8187 22.2557L66.8842 20.8948L70.1126 21.0502L70.0471 22.4111Z" fill="#DBDBDB"/>
<path d="M68.4179 14.1117C68.6229 14.014 68.7001 13.7588 68.5902 13.5416C68.4804 13.3245 68.2251 13.2277 68.0201 13.3255C67.8151 13.4232 67.738 13.6785 67.8478 13.8956C67.9577 14.1127 68.2129 14.2095 68.4179 14.1117Z" fill="white"/>
<path fill-rule="evenodd" clip-rule="evenodd" d="M68.3408 13.9594C68.4501 13.9073 68.5081 13.7594 68.4354 13.6156C68.3627 13.4718 68.2066 13.426 68.0973 13.4781C67.988 13.5302 67.9299 13.6781 68.0027 13.8219C68.0754 13.9657 68.2314 14.0115 68.3408 13.9594ZM67.2603 14.1758C66.9678 13.5978 67.1801 12.9394 67.6995 12.6918C68.2189 12.4443 68.8854 12.6837 69.1778 13.2617C69.4702 13.8397 69.2579 14.4981 68.7386 14.7456C68.2192 14.9932 67.5527 14.7538 67.2603 14.1758Z" fill="#DBDBDB"/>
<path d="M63.1001 29.7983C63.3051 29.7005 63.3822 29.4453 63.2724 29.2282C63.1625 29.011 62.9073 28.9143 62.7023 29.012C62.4972 29.1097 62.4201 29.365 62.53 29.5821C62.6398 29.7992 62.895 29.896 63.1001 29.7983Z" fill="white"/>
<path fill-rule="evenodd" clip-rule="evenodd" d="M63.0229 29.6459C63.1322 29.5938 63.1903 29.4459 63.1175 29.3021C63.0448 29.1584 62.8888 29.1125 62.7794 29.1646C62.6701 29.2168 62.6121 29.3647 62.6848 29.5084C62.7575 29.6522 62.9136 29.698 63.0229 29.6459ZM61.9424 29.8624C61.65 29.2843 61.8623 28.626 62.3816 28.3784C62.901 28.1308 63.5675 28.3702 63.8599 28.9482C64.1524 29.5262 63.9401 30.1846 63.4207 30.4322C62.9014 30.6798 62.2348 30.4404 61.9424 29.8624Z" fill="#DBDBDB"/>
<path d="M57.9101 19.3151C58.1151 19.2174 58.1922 18.9621 58.0824 18.745C57.9726 18.5279 57.7173 18.4311 57.5123 18.5288C57.3073 18.6266 57.2302 18.8818 57.34 19.0989C57.4499 19.3161 57.7051 19.4129 57.9101 19.3151Z" fill="white"/>
<path fill-rule="evenodd" clip-rule="evenodd" d="M57.8329 19.1625C57.9423 19.1104 58.0003 18.9625 57.9276 18.8187C57.8549 18.675 57.6988 18.6291 57.5895 18.6812C57.4801 18.7334 57.4221 18.8813 57.4948 19.025C57.5676 19.1688 57.7236 19.2146 57.8329 19.1625ZM56.7524 19.379C56.46 18.801 56.6723 18.1426 57.1917 17.895C57.711 17.6474 58.3776 17.8868 58.67 18.4648C58.9624 19.0428 58.7501 19.7012 58.2307 19.9488C57.7114 20.1964 57.0449 19.957 56.7524 19.379Z" fill="#DBDBDB"/>
<path d="M73.5961 24.6327C73.8012 24.535 73.8783 24.2798 73.7685 24.0626C73.6586 23.8455 73.4034 23.7487 73.1984 23.8465C72.9933 23.9442 72.9162 24.1994 73.026 24.4166C73.1359 24.6337 73.3911 24.7305 73.5961 24.6327Z" fill="white"/>
<path fill-rule="evenodd" clip-rule="evenodd" d="M73.519 24.4801C73.6283 24.428 73.6864 24.2801 73.6136 24.1363C73.5409 23.9926 73.3849 23.9467 73.2755 23.9989C73.1662 24.051 73.1082 24.1989 73.1809 24.3427C73.2536 24.4864 73.4097 24.5323 73.519 24.4801ZM72.4385 24.6966C72.1461 24.1186 72.3584 23.4602 72.8777 23.2126C73.3971 22.965 74.0636 23.2044 74.356 23.7824C74.6485 24.3604 74.4361 25.0188 73.9168 25.2664C73.3974 25.514 72.7309 25.2746 72.4385 24.6966Z" fill="#DBDBDB"/>
<path d="M27.6778 37.1906L29.7568 36.5639C29.9073 36.5202 29.9073 36.3016 29.7568 36.2579L27.6778 35.6313C27.6244 35.6167 27.5855 35.5779 27.5709 35.5245L26.9443 33.4503C26.9006 33.2998 26.682 33.2998 26.6383 33.4503L26.0117 35.5245C25.9971 35.5779 25.9583 35.6167 25.9048 35.6313L23.8307 36.2579C23.6801 36.3016 23.6801 36.5202 23.8307 36.5639L25.9097 37.1906C25.9631 37.2051 26.002 37.244 26.0165 37.2974L26.6432 39.3764C26.6869 39.527 26.9055 39.527 26.9492 39.3764L27.5758 37.2974C27.5855 37.244 27.6244 37.2051 27.6778 37.1906Z" fill="#DBDBDB"/>
<path d="M93.9766 12.8558L96.1027 13.2967C96.2559 13.3301 96.3601 13.138 96.2487 13.0277L94.7203 11.4853C94.6803 11.4471 94.6647 11.3944 94.6774 11.3405L95.116 9.21861C95.1494 9.06541 94.9572 8.96114 94.847 9.07264L93.3069 10.5967C93.2686 10.6367 93.2159 10.6523 93.162 10.6397L91.0402 10.2011C90.887 10.1677 90.7827 10.3598 90.8942 10.47L92.4226 12.0124C92.4626 12.0507 92.4782 12.1034 92.4655 12.1573L92.0246 14.2834C91.9912 14.4366 92.1833 14.5409 92.2936 14.4294L93.8359 12.901C93.87 12.8587 93.9227 12.8431 93.9766 12.8558Z" fill="#DBDBDB"/>
<path d="M92.67 65.4519L94.2944 64.011C94.4127 63.9082 94.321 63.7098 94.166 63.7332L92.0159 64.0366C91.9613 64.0457 91.9098 64.0268 91.8741 63.9844L90.4353 62.3645C90.3324 62.2462 90.134 62.3379 90.1575 62.4929L90.4587 64.6385C90.4679 64.6931 90.4489 64.7446 90.4065 64.7803L88.7865 66.2191C88.6682 66.322 88.7599 66.5204 88.9149 66.4969L91.065 66.1936C91.1196 66.1844 91.1712 66.2034 91.2068 66.2458L92.6477 67.87C92.7505 67.9884 92.9489 67.8967 92.9255 67.7417L92.6222 65.5917C92.6086 65.5391 92.6276 65.4875 92.67 65.4519Z" fill="#DBDBDB"/>
<path d="M76.1276 50.7473L77.9467 50.199C78.0785 50.1608 78.0785 49.9695 77.9467 49.9313L76.1276 49.383C76.0809 49.3703 76.0469 49.3363 76.0341 49.2895L75.4858 47.4748C75.4476 47.343 75.2563 47.343 75.2181 47.4748L74.6698 49.2895C74.657 49.3363 74.623 49.3703 74.5763 49.383L72.7614 49.9313C72.6297 49.9695 72.6297 50.1608 72.7614 50.199L74.5805 50.7473C74.6273 50.76 74.6613 50.794 74.674 50.8408L75.2223 52.6598C75.2606 52.7915 75.4518 52.7915 75.4901 52.6598L76.0384 50.8408C76.0469 50.794 76.0809 50.76 76.1276 50.7473Z" fill="#DBDBDB"/>
<path d="M41.2204 76.2706L43.0395 75.644C43.1712 75.6003 43.1712 75.3817 43.0395 75.338L41.2204 74.7114C41.1736 74.6968 41.1396 74.658 41.1269 74.6045L40.5786 72.5304C40.5403 72.3798 40.3491 72.3798 40.3108 72.5304L39.7625 74.6045C39.7498 74.658 39.7158 74.6968 39.669 74.7114L37.8542 75.338C37.7224 75.3817 37.7224 75.6003 37.8542 75.644L39.6733 76.2706C39.72 76.2852 39.754 76.3241 39.7668 76.3775L40.3151 78.4565C40.3533 78.607 40.5446 78.607 40.5828 78.4565L41.1311 76.3775C41.1396 76.3241 41.1736 76.2852 41.2204 76.2706Z" fill="#DBDBDB"/>
<path d="M38.2152 45.5111L39.5146 45.1195C39.6087 45.0921 39.6087 44.9555 39.5146 44.9282L38.2152 44.5366C38.1818 44.5275 38.1576 44.5032 38.1485 44.4698L37.7568 43.1736C37.7295 43.0795 37.5929 43.0795 37.5656 43.1736L37.1739 44.4698C37.1648 44.5032 37.1405 44.5275 37.1071 44.5366L35.8108 44.9282C35.7167 44.9555 35.7167 45.0921 35.8108 45.1195L37.1102 45.5111C37.1436 45.5202 37.1679 45.5444 37.177 45.5778L37.5686 46.8771C37.5959 46.9712 37.7325 46.9712 37.7599 46.8771L38.1515 45.5778C38.1576 45.5444 38.1818 45.5202 38.2152 45.5111Z" fill="#DBDBDB"/>
<path d="M113.079 46.3692L114.379 45.9776C114.473 45.9503 114.473 45.8137 114.379 45.7864L113.079 45.3948C113.046 45.3857 113.022 45.3614 113.013 45.328L112.621 44.0318C112.594 43.9377 112.457 43.9377 112.43 44.0318L112.038 45.328C112.029 45.3614 112.005 45.3857 111.971 45.3948L110.675 45.7864C110.581 45.8137 110.581 45.9503 110.675 45.9776L111.974 46.3692C112.008 46.3783 112.032 46.4026 112.041 46.436L112.433 47.7352C112.46 47.8294 112.597 47.8294 112.624 47.7352L113.016 46.436C113.022 46.4026 113.046 46.3783 113.079 46.3692Z" fill="#DBDBDB"/>
<path d="M47.8188 27.3983L49.1181 27.0067C49.2122 26.9793 49.2122 26.8427 49.1181 26.8154L47.8188 26.4238C47.7854 26.4147 47.7611 26.3904 47.752 26.357L47.3603 25.0608C47.333 24.9667 47.1964 24.9667 47.1691 25.0608L46.7774 26.357C46.7683 26.3904 46.7441 26.4147 46.7107 26.4238L45.4143 26.8154C45.3202 26.8427 45.3202 26.9793 45.4143 27.0067L46.7137 27.3983C46.7471 27.4074 46.7714 27.4317 46.7805 27.465L47.1721 28.7643C47.1994 28.8584 47.3361 28.8584 47.3634 28.7643L47.755 27.465C47.7611 27.4317 47.7854 27.4074 47.8188 27.3983Z" fill="#DBDBDB"/>
<path d="M28.4687 71.0313L29.768 70.6397C29.8621 70.6124 29.8621 70.4758 29.768 70.4485L28.4687 70.0569C28.4353 70.0478 28.411 70.0235 28.4019 69.9901L28.0102 68.6939C27.9829 68.5998 27.8463 68.5998 27.819 68.6939L27.4274 69.9901C27.4182 70.0235 27.394 70.0478 27.3606 70.0569L26.0642 70.4485C25.9701 70.4758 25.9701 70.6124 26.0642 70.6397L27.3636 71.0313C27.397 71.0404 27.4213 71.0647 27.4304 71.0981L27.822 72.3974C27.8493 72.4915 27.986 72.4915 28.0133 72.3974L28.4049 71.0981C28.411 71.0647 28.4353 71.0404 28.4687 71.0313Z" fill="#DBDBDB"/>
<path d="M64.1828 50.9555L66.7692 54.6424C67.5081 55.6957 68.0135 56.5762 68.3987 57.7654C69.8407 61.5814 69.3028 65.7759 67.3185 69.1888C66.9502 69.784 66.7626 70.4769 66.8536 71.0867C66.8693 71.7492 67.0659 72.5095 67.4881 73.1114C68.3326 74.3153 69.7488 74.8936 71.1716 74.6814C75.7412 73.8334 80.441 75.2518 83.6596 78.7196C84.0515 79.1182 84.3682 79.5697 84.7377 80.0964L87.3241 83.7832C87.6408 84.2347 87.8822 84.7389 88.1461 85.1151L66.0252 100.633C65.686 100.31 65.3165 99.7831 65.0526 99.4069L62.4663 95.72C62.2024 95.3438 62.0137 94.9148 61.7498 94.5386C61.6442 94.3882 61.5611 94.1096 61.4028 93.8839C59.3656 89.6996 59.6092 84.9257 61.9394 81.0456C62.6761 79.8552 62.5615 78.2515 61.717 77.0477C61.3475 76.521 60.7748 76.0246 60.1571 75.7843C60.1043 75.7091 60.0291 75.7619 60.0291 75.7619C59.4114 75.5215 58.7488 75.5373 58.0863 75.553C55.0148 76.1359 51.867 75.6497 49.0269 74.1617C48.3037 73.7709 47.5804 73.3801 46.9549 72.8085C46.7741 72.7108 46.6158 72.4851 46.5102 72.3346C45.8319 71.6877 45.1008 70.9656 44.5202 70.138L41.9338 66.4512C41.8811 66.3759 41.7755 66.2254 41.6699 66.075L63.9414 50.4513C64.0245 50.7298 64.0773 50.805 64.1828 50.9555Z" fill="#EBEBEB"/>
<path fill-rule="evenodd" clip-rule="evenodd" d="M41.1179 66.4618C40.9042 66.1571 40.9779 65.7369 41.2826 65.5232L63.554 49.8995C63.7313 49.7752 63.9576 49.7436 64.1622 49.8147C64.3668 49.8858 64.5247 50.0509 64.5866 50.2585C64.6223 50.3781 64.6428 50.424 64.654 50.4462C64.6659 50.4695 64.6778 50.4883 64.734 50.5684L67.3204 54.2552C68.0792 55.337 68.622 56.2754 69.0343 57.5422C70.5479 61.5625 69.9737 65.9616 67.9006 69.5273C67.8975 69.5326 67.8943 69.5379 67.891 69.5432C67.5833 70.0405 67.4579 70.5738 67.5196 70.9871C67.5237 71.0147 67.5261 71.0426 67.5268 71.0705C67.54 71.6273 67.7077 72.2517 68.0393 72.7243C68.731 73.7103 69.887 74.1875 71.0607 74.0164C75.8379 73.1341 80.7657 74.6162 84.1466 78.2541C84.5746 78.691 84.9171 79.1792 85.2722 79.6855L87.8752 83.3961C88.0526 83.649 88.2057 83.9119 88.3375 84.1395L88.3478 84.1572C88.4811 84.3873 88.5886 84.5731 88.6973 84.728C88.911 85.0326 88.8373 85.4528 88.5327 85.6665L66.4117 101.185C66.1488 101.369 65.7922 101.342 65.5598 101.121C65.1717 100.751 64.7719 100.18 64.5193 99.8203L61.9143 96.1068C61.7629 95.891 61.6358 95.6649 61.5269 95.4712L61.5202 95.4593C61.4043 95.253 61.3072 95.0814 61.1978 94.9254C61.1422 94.8462 61.0995 94.765 61.0689 94.703C61.044 94.6528 61.0186 94.5973 60.9974 94.5512C60.9926 94.5407 60.988 94.5307 60.9837 94.5214C60.93 94.4049 60.8915 94.3288 60.8507 94.2707C60.8303 94.2415 60.8121 94.2108 60.7965 94.1787C58.6594 89.7891 58.914 84.7737 61.3614 80.6986L61.366 80.6909C61.9435 79.7576 61.8745 78.4459 61.165 77.4345C60.8687 77.0121 60.4181 76.6242 59.962 76.4322C59.9018 76.4262 59.8421 76.4121 59.7844 76.3896C59.3259 76.2113 58.8172 76.2101 58.1563 76.2252C54.9484 76.8211 51.6673 76.3057 48.7138 74.7584L48.7061 74.7544L48.677 74.7386C47.9896 74.3672 47.2256 73.9544 46.5508 73.3516C46.3952 73.2509 46.2753 73.1259 46.1936 73.0311C46.1154 72.9404 46.0471 72.8472 45.9968 72.7762C45.3294 72.1386 44.5762 71.3915 43.9682 70.5248L41.1179 66.4618ZM42.6081 66.2394L45.0714 69.7509C45.61 70.5187 46.2972 71.2007 46.9748 71.8468C47.0069 71.8774 47.0359 71.9111 47.0614 71.9475C47.1163 72.0258 47.1641 72.093 47.2143 72.1513C47.2383 72.1791 47.2573 72.1983 47.2712 72.2106C47.2761 72.2149 47.2795 72.2177 47.2814 72.2191C47.3274 72.2446 47.3702 72.2755 47.409 72.3109C47.9626 72.8168 48.6103 73.1708 49.343 73.5667C52.0518 74.9848 55.0441 75.4443 57.9602 74.8909C57.9964 74.884 58.0331 74.8801 58.0699 74.8792C58.0864 74.8788 58.1031 74.8784 58.1199 74.878C58.6988 74.8641 59.4047 74.8471 60.0936 75.07C60.1732 75.0707 60.2639 75.0841 60.3587 75.121C60.4141 75.1425 60.4648 75.1697 60.5108 75.2012C61.2279 75.5101 61.8571 76.0746 62.2682 76.6606C63.2468 78.0556 63.4075 79.949 62.5144 81.396C60.3112 85.0673 60.0732 89.579 61.9876 93.5464C62.0875 93.6985 62.159 93.852 62.2076 93.9573C62.2144 93.9721 62.2206 93.9856 62.2264 93.9983C62.2466 94.0423 62.2615 94.0748 62.2769 94.1059C62.2939 94.1402 62.3016 94.1523 62.3015 94.1523C62.3015 94.1523 62.3013 94.1521 62.301 94.1515C62.4524 94.3673 62.5795 94.5935 62.6883 94.7872L62.695 94.799C62.8109 95.0054 62.908 95.177 63.0175 95.3329L65.6038 99.0198C65.7673 99.2529 65.9492 99.5104 66.1285 99.7372L87.2375 84.929C87.2229 84.9039 87.2085 84.879 87.1942 84.8543L87.1714 84.8149C87.0374 84.5835 86.9113 84.3686 86.772 84.17L84.1857 80.4832C83.8098 79.9474 83.5246 79.5437 83.1787 79.1918C83.176 79.189 83.1733 79.1862 83.1706 79.1834C83.1688 79.1815 83.1671 79.1797 83.1653 79.1778C80.1122 75.8882 75.6491 74.5356 71.2941 75.3437C71.2863 75.3452 71.2785 75.3465 71.2706 75.3476C69.6025 75.5965 67.9313 74.9169 66.9361 73.4982C66.4322 72.7799 66.2058 71.9023 66.1807 71.1431C66.0758 70.3528 66.3218 69.5217 66.74 68.8424C68.6293 65.5881 69.1302 61.6083 67.768 58.0035C67.7642 57.9934 67.7606 57.9832 67.7573 57.9729C67.3997 56.8691 66.9331 56.0498 66.2172 55.0292L63.7011 51.4425L42.6081 66.2394Z" fill="#EBEBEB"/>
<path d="M76.6492 86.3314C76.6492 86.3314 68.6905 93.7108 68.156 93.749C67.8022 93.8849 64.6713 95.1831 62.6768 96.0209L62.149 95.2685C61.8851 94.8923 61.6212 94.5161 61.3797 94.0119C61.4774 93.8311 61.5223 93.575 61.5672 93.319C62.588 90.133 65.7605 85.213 72.4469 85.4622L76.6492 86.3314Z" fill="#EBEBEB"/>
<path fill-rule="evenodd" clip-rule="evenodd" d="M62.223 93.4812C62.2 93.6139 62.1689 93.7916 62.1158 93.9724C62.2948 94.3022 62.4878 94.5784 62.7006 94.8817L62.9167 95.1898C64.8929 94.3621 67.5777 93.2495 67.9144 93.1202C67.927 93.1153 67.9398 93.1109 67.9527 93.1068C67.9591 93.1029 67.9668 93.0981 67.976 93.0922C68.0407 93.0508 68.1366 92.9825 68.2652 92.8842C68.5202 92.6893 68.8646 92.4067 69.2725 92.0604C70.0863 91.3696 71.1255 90.4487 72.1525 89.5251C73.1785 88.6023 74.1882 87.6803 74.9418 86.9888C75.042 86.8968 75.1376 86.8089 75.2282 86.7257L72.3663 86.1338C66.1794 85.9307 63.2099 90.4458 62.223 93.4812ZM76.6493 86.3316L77.1074 86.8256C77.2924 86.6541 77.366 86.3936 77.2983 86.1506C77.2306 85.9076 77.0328 85.7228 76.7857 85.6717L72.5834 84.8026C72.5467 84.795 72.5095 84.7905 72.472 84.7891C65.3536 84.5237 61.9917 89.7861 60.9256 93.1136C60.9162 93.1427 60.9089 93.1725 60.9036 93.2027C60.8521 93.4964 60.8213 93.6281 60.7869 93.6917C60.6845 93.8814 60.6789 94.1086 60.772 94.303C61.0376 94.8577 61.3284 95.2721 61.5896 95.6446L62.1252 96.4081C62.3073 96.6675 62.6455 96.7651 62.9378 96.6423C64.8722 95.8297 67.8523 94.5938 68.3551 94.3948C68.4366 94.3723 68.4975 94.3425 68.5242 94.3294C68.5869 94.2987 68.6482 94.262 68.7029 94.227C68.8136 94.1561 68.9435 94.0619 69.0836 93.9548C69.3662 93.7388 69.7313 93.4386 70.1446 93.0877C70.9734 92.3842 72.0241 91.453 73.0537 90.527C74.0842 89.6002 75.0975 88.6749 75.8529 87.9816C76.2307 87.6349 76.5442 87.346 76.7633 87.1438C76.8728 87.0427 76.9588 86.9632 77.0174 86.909L77.1074 86.8256C77.1074 86.8256 77.1074 86.8256 76.6493 86.3316Z" fill="#EBEBEB"/>
<path d="M64.1828 50.9555L66.7692 54.6424C67.5081 55.6957 68.0135 56.5762 68.3987 57.7654C69.8407 61.5814 69.3028 65.7759 67.3185 69.1888C66.9502 69.784 66.7626 70.4769 66.8536 71.0867C66.8693 71.7492 67.0659 72.5095 67.4881 73.1114C68.3326 74.3153 69.7488 74.8936 71.1716 74.6814C75.7412 73.8334 80.441 75.2518 83.6596 78.7196C84.0515 79.1182 84.3682 79.5697 84.7377 80.0964L87.3241 83.7832C87.6408 84.2347 87.8822 84.7389 88.1461 85.1151L66.0252 100.633C65.686 100.31 65.3165 99.7831 65.0526 99.4069L62.4663 95.72C62.2024 95.3438 62.0137 94.9148 61.7498 94.5386C61.6442 94.3882 61.5611 94.1096 61.4028 93.8839C59.3656 89.6996 59.6092 84.9257 61.9394 81.0456C62.6761 79.8552 62.5615 78.2515 61.717 77.0477C61.3475 76.521 60.7748 76.0246 60.1571 75.7843C60.1043 75.7091 60.0291 75.7619 60.0291 75.7619C59.4114 75.5215 58.7488 75.5373 58.0863 75.553C55.0148 76.1359 51.867 75.6497 49.0269 74.1617C48.3037 73.7709 47.5804 73.3801 46.9549 72.8085C46.7741 72.7108 46.6158 72.4851 46.5102 72.3346C45.8319 71.6877 45.1008 70.9656 44.5202 70.138L41.9338 66.4512C41.8811 66.3759 41.7755 66.2254 41.6699 66.075L63.9414 50.4513C64.0245 50.7298 64.0773 50.805 64.1828 50.9555Z" fill="white"/>
<path fill-rule="evenodd" clip-rule="evenodd" d="M40.7207 65.9084L64.3236 49.3507L64.5939 50.2565C64.6295 50.3758 64.6498 50.4213 64.6608 50.4429C64.6724 50.4657 64.684 50.4841 64.7403 50.5643L67.3266 54.2511C68.0857 55.3331 68.6289 56.2722 69.0415 57.5399C70.5559 61.5624 69.9813 65.9638 67.9072 69.5311L67.9024 69.5392L67.8975 69.5472C67.5904 70.0434 67.4658 70.5749 67.5271 70.9861L67.5334 71.0281L67.5344 71.0705C67.5476 71.6261 67.715 72.2489 68.0456 72.7202C68.7355 73.7038 69.8886 74.1798 71.0596 74.0092C75.8391 73.1265 80.7694 74.6093 84.1521 78.2491C84.5805 78.6863 84.9233 79.175 85.2783 79.6811L87.8815 83.3919C88.0591 83.6451 88.2123 83.9083 88.3441 84.1359L88.3542 84.1533C88.4876 84.3836 88.595 84.5691 88.7036 84.7238L89.0948 85.2815L65.9589 101.512L65.5547 101.126C65.1661 100.756 64.766 100.185 64.5134 99.8249L61.9083 96.1112C61.7567 95.8951 61.6294 95.6687 61.5206 95.4751L61.5139 95.4631C61.3979 95.2567 61.301 95.0855 61.1918 94.9298C61.1359 94.8502 61.093 94.7686 61.0623 94.7064C61.0374 94.6561 61.0119 94.6005 60.9907 94.5543C60.9859 94.5439 60.9814 94.5339 60.9771 94.5246C60.9234 94.4081 60.8851 94.3326 60.8448 94.2751L60.8137 94.2308L60.79 94.1821C58.6517 89.7902 58.9065 84.7721 61.3551 80.6948L61.3598 80.687C61.9356 79.7566 61.867 78.4482 61.159 77.4389C60.901 77.0711 60.5258 76.7296 60.1323 76.5214L60.1216 76.5289L59.7818 76.3967C59.325 76.219 58.818 76.2176 58.1572 76.2327C54.9478 76.8288 51.6652 76.3131 48.7105 74.7651L48.7027 74.761L48.6734 74.7451C47.9862 74.3739 47.2217 73.9608 46.5464 73.3577C46.3901 73.2565 46.2699 73.131 46.1881 73.0361C46.1099 72.9454 46.0416 72.8522 45.9913 72.7813C45.324 72.1437 44.5705 71.3963 43.9622 70.5292L40.7207 65.9084ZM42.6186 66.2414L45.0776 69.7467C45.6158 70.5138 46.3025 71.1954 46.9801 71.8415L47.0289 71.8881L47.0676 71.9433C47.1226 72.0217 47.1701 72.0886 47.2201 72.1465C47.2439 72.1741 47.2627 72.1931 47.2762 72.2051C47.2805 72.2089 47.2835 72.2114 47.2854 72.2128L47.3523 72.249L47.4142 72.3055C47.967 72.8107 48.6138 73.1642 49.3466 73.5602C52.054 74.9776 55.0446 75.4367 57.959 74.8837L58.0139 74.8732L58.0698 74.8719C58.0865 74.8715 58.1033 74.8711 58.1202 74.8707C58.6986 74.8568 59.4051 74.8397 60.095 75.0626C60.1751 75.0635 60.2662 75.077 60.3616 75.1141C60.4173 75.1358 60.4683 75.1632 60.5146 75.1948C61.2328 75.5044 61.8628 76.0697 62.2744 76.6564C63.2545 78.0536 63.4157 79.9502 62.5209 81.4001C60.3191 85.069 60.0812 89.5778 61.9943 93.5429C62.0943 93.6954 62.166 93.8491 62.2145 93.9543C62.2213 93.9691 62.2276 93.9827 62.2334 93.9954C62.2535 94.0393 62.2684 94.0717 62.2837 94.1027C62.3004 94.1364 62.308 94.1483 62.3079 94.1484C62.3079 94.1484 62.3077 94.148 62.3072 94.1474C62.4588 94.3635 62.5861 94.5899 62.6949 94.7835L62.7016 94.7955C62.8176 95.0019 62.9145 95.1732 63.0237 95.3288L65.6101 99.0156C65.7723 99.2469 65.9524 99.502 66.1301 99.7272L87.2277 84.927C87.2143 84.9038 87.2011 84.8809 87.1879 84.8582L87.1651 84.8188C87.031 84.5873 86.9052 84.3727 86.7661 84.1744L84.1797 80.4876C83.8038 79.9517 83.519 79.5485 83.1735 79.1971L83.1667 79.1902L83.16 79.183C80.1087 75.8954 75.6482 74.5435 71.2956 75.3512L71.2838 75.3534L71.2719 75.3551C69.601 75.6044 67.927 74.9237 66.9301 73.5026C66.4253 72.783 66.1986 71.9041 66.1734 71.1439C66.0683 70.3516 66.3149 69.5189 66.7337 68.8387C68.622 65.5862 69.1225 61.6087 67.7612 58.0062L67.7554 57.9909L67.7503 57.9753C67.3931 56.8724 66.9269 56.0538 66.2112 55.0336L63.6994 51.453L42.6186 66.2414Z" fill="#DBDBDB"/>
<path d="M62.4815 66.2951L53.694 73.1332L49.1548 74.1844C48.4316 73.7936 47.7083 73.4028 47.0828 72.8312C46.902 72.7335 46.7437 72.5078 46.6381 72.3573C49.066 68.2964 51.2997 65.7191 57.7963 64.4174C58.8878 64.213 59.9042 64.0614 61.1238 63.8795C71.9799 62.5508 62.4815 66.2951 62.4815 66.2951Z" fill="#EBEBEB"/>
<path fill-rule="evenodd" clip-rule="evenodd" d="M47.4717 72.2807C47.4947 72.297 47.5166 72.3146 47.5374 72.3337C48.035 72.7883 48.6085 73.1203 49.2515 73.4703L53.3975 72.5101L62.0678 65.7632C62.1185 65.7237 62.1746 65.6917 62.2344 65.6681M62.8204 66.8851L54.1079 73.6648C54.0307 73.7249 53.9414 73.7674 53.8461 73.7895L49.3069 74.8407C49.147 74.8777 48.979 74.8551 48.8346 74.777L48.8054 74.7613C48.118 74.3899 47.354 73.9771 46.6792 73.3744C46.5236 73.2737 46.4037 73.1486 46.322 73.0538C46.2244 72.9406 46.1422 72.8234 46.0912 72.7506C46.0896 72.7484 46.0881 72.7462 46.0866 72.7441C45.9339 72.5265 45.9235 72.2395 46.0599 72.0114C47.285 69.9623 48.5016 68.2156 50.2753 66.8226C52.0551 65.4249 54.3448 64.4217 57.664 63.7566L57.6723 63.755C58.7762 63.5483 59.8031 63.3951 61.0179 63.2139L61.0244 63.2129C61.0303 63.212 61.0361 63.2112 61.042 63.2105C62.4097 63.0431 63.4706 62.9539 64.2777 62.9282C65.0691 62.903 65.6688 62.9366 66.0843 63.0438C66.2874 63.0962 66.5233 63.1848 66.7093 63.3585C66.9323 63.5669 67.0417 63.8618 66.9883 64.1735C66.9445 64.4293 66.8026 64.6264 66.6924 64.7528C66.5731 64.8897 66.4275 65.0148 66.2803 65.1262C65.706 65.5608 64.7957 66.0138 64.0767 66.3432C63.7078 66.5122 63.3721 66.6563 63.1286 66.7582C63.0067 66.8092 62.9076 66.8498 62.8385 66.8777C62.8322 66.8803 62.8262 66.8827 62.8204 66.8851ZM62.2344 65.6681L62.24 65.6659L62.2587 65.6585C62.2753 65.6518 62.3003 65.6418 62.3327 65.6287C62.3975 65.6024 62.4919 65.5638 62.6085 65.515C62.842 65.4173 63.1635 65.2793 63.5154 65.1181C64.0825 64.8583 64.6883 64.5561 65.1371 64.276C64.9198 64.2662 64.6504 64.2646 64.3205 64.2751C63.5707 64.2989 62.5564 64.383 61.2145 64.5471C59.9985 64.7285 58.9977 64.8779 57.9246 65.0788C54.7494 65.7154 52.6752 66.6514 51.1077 67.8824C49.6453 69.0309 48.5799 70.4694 47.4717 72.2807" fill="#DBDBDB"/>
<path d="M68.4513 57.8407C69.8933 61.6567 69.3554 65.8512 67.3711 69.264C67.0028 69.8593 66.8152 70.5522 66.9062 71.1619L66.831 71.2147C65.6271 72.0593 65.3127 73.8516 66.1572 75.0554L74.0218 86.2664L71.8398 87.7971L63.9224 76.5109C63.0779 75.307 61.3608 74.9398 60.0817 75.8371C59.464 75.5968 58.8015 75.6126 58.1389 75.6283C55.0674 76.2112 51.9196 75.7249 49.0795 74.237C48.3563 73.8462 47.633 73.4554 47.0075 72.8838C53.7074 71.5518 55.9624 67.7245 57.6985 64.598C58.2623 63.6412 58.7508 62.7372 59.292 61.9084C61.4347 58.7213 64.596 57.6263 68.4513 57.8407Z" fill="#EBEBEB"/>
<path fill-rule="evenodd" clip-rule="evenodd" d="M59.8595 62.2847C59.5025 62.8316 59.1751 63.4019 58.8216 64.0177C58.6522 64.3127 58.4769 64.6181 58.2895 64.9363C57.4215 66.4991 56.3805 68.3196 54.6795 69.9112C53.2191 71.2776 51.2954 72.4557 48.6176 73.2013C48.8659 73.3468 49.1265 73.4882 49.3991 73.6355C52.1065 75.0529 55.0971 75.512 58.0114 74.9589C58.048 74.952 58.0851 74.948 58.1223 74.9472C58.139 74.9468 58.1558 74.9464 58.1727 74.9459C58.7069 74.9331 59.3506 74.9176 59.9895 75.091C61.547 74.2181 63.492 74.7117 64.4797 76.1196L72.0059 86.8481L73.0724 86.0999L65.5991 75.4466C64.5964 74.0173 64.8893 71.9576 66.2017 70.8408C66.2032 70.1671 66.4337 69.4865 66.7862 68.9139C68.6012 65.7875 69.134 61.9911 67.9635 58.5019C64.4918 58.4041 61.7515 59.4731 59.8595 62.2847ZM58.7263 61.5282C61.0386 58.0887 64.465 56.9366 68.4887 57.1605C68.7579 57.1754 68.9929 57.3477 69.0882 57.5998C70.6098 61.6265 70.0364 66.0346 67.9596 69.6064C67.9565 69.6118 67.9533 69.6172 67.95 69.6225C67.6429 70.1187 67.5182 70.6502 67.5796 71.0614C67.6176 71.3166 67.5083 71.5714 67.297 71.7196L67.2218 71.7724C66.3259 72.4008 66.086 73.7683 66.7145 74.6641L74.5791 85.8751C74.7952 86.1831 74.7206 86.608 74.4126 86.824L72.2306 88.3547C71.9226 88.5708 71.4977 88.4963 71.2817 88.1883L63.3643 76.9021C62.7273 75.9941 61.4316 75.722 60.4725 76.3948C60.286 76.5256 60.0465 76.5546 59.8343 76.472C59.3775 76.2943 58.8704 76.2929 58.2097 76.308C55.0003 76.904 51.7176 76.3884 48.7629 74.8404L48.7552 74.8363L48.7552 74.8363L48.7258 74.8204C48.0212 74.4397 47.2353 74.0151 46.5475 73.3866C46.3579 73.2133 46.2819 72.9481 46.3509 72.7006C46.4199 72.4532 46.6223 72.2656 46.8743 72.2155C50.1066 71.5729 52.2282 70.3389 53.7486 68.9163C55.2812 67.4823 56.2351 65.8292 57.1025 64.2672C57.1053 64.2622 57.1082 64.2571 57.1112 64.2522C57.2818 63.9625 57.4492 63.671 57.6155 63.3814C57.9811 62.7448 58.3417 62.1169 58.7212 61.5358L58.7262 61.5282L58.7263 61.5282Z" fill="#DBDBDB"/>
<path d="M84.6621 80.1492L87.2484 83.836C87.5651 84.2875 87.8066 84.7917 88.0705 85.1679L68.3573 98.997L64.7355 98.9555L62.4131 95.6448C62.1492 95.2686 61.8853 94.8924 61.6966 94.4634C61.591 94.313 61.5079 94.0345 61.3496 93.8087C61.4248 93.7559 61.4776 93.8312 61.5528 93.7784C61.6809 93.8009 61.7561 93.7481 61.8314 93.6953C69.1635 92.1443 71.1242 87.7376 72.9805 84.3023C73.2736 83.7598 73.642 83.1646 73.9879 82.6975C76.2585 79.5328 79.5478 78.4603 83.5312 78.6972C83.9007 79.2239 84.2926 79.6225 84.6621 80.1492Z" fill="#EBEBEB"/>
<path fill-rule="evenodd" clip-rule="evenodd" d="M83.1737 79.3611C79.4984 79.2081 76.579 80.2548 74.5414 83.0946L74.5354 83.1028C74.2126 83.5388 73.8611 84.1056 73.5799 84.6261C73.4766 84.8172 73.3722 85.0132 73.2657 85.213C72.4333 86.7745 71.4744 88.5734 69.9533 90.1746C68.2754 91.9408 65.9353 93.4515 62.3601 94.2761C62.5142 94.5995 62.7229 94.9002 62.9709 95.2535L65.0927 98.2782L68.1457 98.3132L87.1524 84.9798C87.139 84.9566 87.1257 84.9337 87.1126 84.911C87.105 84.8978 87.0974 84.8846 87.0898 84.8716C86.9557 84.6401 86.8299 84.4255 86.6908 84.2272L84.1044 80.5404C83.9369 80.3016 83.7629 80.0896 83.5706 79.856L83.5645 79.8486C83.4398 79.6971 83.3074 79.5361 83.1737 79.3611ZM73.4373 82.2962C75.8828 78.8909 79.4313 77.7708 83.5717 78.0171C83.7791 78.0294 83.9696 78.1358 84.0889 78.3059C84.2564 78.5446 84.4305 78.7566 84.6227 78.9903L84.6289 78.9977C84.8157 79.2247 85.02 79.4731 85.2198 79.7579L87.8062 83.4447C87.9838 83.6979 88.137 83.9612 88.2688 84.1887L88.279 84.2063C88.4123 84.4365 88.5197 84.622 88.6282 84.7766C88.8443 85.0846 88.7698 85.5095 88.4618 85.7256L68.7485 99.5546C68.6317 99.6366 68.4922 99.6798 68.3495 99.6781L64.7278 99.6366C64.5085 99.6341 64.3038 99.5262 64.1779 99.3466L61.8554 96.036C61.8505 96.029 61.8456 96.0219 61.8406 96.0148C61.5951 95.665 61.3103 95.2591 61.0966 94.7903C61.0608 94.7324 61.0319 94.6766 61.0095 94.6312C60.9846 94.5809 60.9591 94.5253 60.9379 94.4791C60.9331 94.4687 60.9285 94.4587 60.9242 94.4494C60.8705 94.3329 60.8322 94.2573 60.7919 94.1999C60.5759 93.8919 60.6504 93.467 60.9584 93.251C61.0152 93.2111 61.0793 93.1769 61.1505 93.1518C61.222 93.1267 61.2909 93.1141 61.354 93.1096C61.3824 93.1075 61.4087 93.1072 61.4323 93.1078C61.4553 93.1037 61.4785 93.1008 61.5018 93.099C61.5608 93.0664 61.6243 93.0427 61.6904 93.0287C65.2276 92.2805 67.4259 90.8568 68.9655 89.2361C70.3509 87.7778 71.222 86.1468 72.0613 84.575C72.1682 84.375 72.2745 84.176 72.3812 83.9783C72.6854 83.4155 73.0693 82.7938 73.4373 82.2962Z" fill="#DBDBDB"/>
<path d="M65.9901 50.8104L41.3109 68.123C40.7842 68.4925 40.0161 68.3578 39.6994 67.9063L38.0103 65.4986C37.6409 64.9719 37.8284 64.279 38.3551 63.9095L63.1095 46.5441C63.6362 46.1746 64.3515 46.2341 64.721 46.7608L66.3573 49.0933C66.5763 49.7255 66.5168 50.4409 65.9901 50.8104Z" fill="white"/>
<path fill-rule="evenodd" clip-rule="evenodd" d="M38.7461 64.4672C38.4674 64.6627 38.4542 64.9454 38.5678 65.1073L40.2568 67.5151C40.2863 67.5571 40.3729 67.626 40.5257 67.6486C40.6726 67.6703 40.8159 67.6379 40.9194 67.5653L65.5986 50.2526C65.689 50.1892 65.7542 50.0912 65.782 49.9326C65.808 49.7848 65.7967 49.5983 65.7396 49.3994L64.163 47.152C64.0494 46.99 63.7791 46.9063 63.5005 47.1017L38.7461 64.4672ZM37.4524 65.8898C36.827 64.9984 37.1888 63.8953 37.9636 63.3518L62.718 45.9863C63.4927 45.4428 64.6531 45.4781 65.2784 46.3695L66.9147 48.702C66.9511 48.7538 66.98 48.8104 67.0007 48.8703C67.2629 49.627 67.274 50.7416 66.381 51.368L41.7019 68.6807C41.2787 68.9776 40.7746 69.0626 40.3266 68.9964C39.8845 68.9311 39.4286 68.7069 39.1414 68.2975L37.4524 65.8898Z" fill="#DBDBDB"/>
<path d="M90.9031 86.3247L66.224 103.637C65.6973 104.007 64.9819 103.947 64.6124 103.421L62.9762 101.088C62.6067 100.562 62.7942 99.8686 63.3209 99.4991L88.0753 82.1337C88.602 81.7642 89.3174 81.8237 89.6868 82.3504L91.3231 84.6829C91.5421 85.3151 91.4298 85.9552 90.9031 86.3247Z" fill="white"/>
<path fill-rule="evenodd" clip-rule="evenodd" d="M63.7119 100.057C63.4332 100.252 63.42 100.535 63.5336 100.697L65.1699 103.029C65.2835 103.191 65.5538 103.275 65.8324 103.08L90.5116 85.767C90.7026 85.633 90.8161 85.3807 90.7052 84.9887L89.1289 82.7416C89.0152 82.5796 88.7449 82.4959 88.4663 82.6913L63.7119 100.057ZM62.4182 101.479C61.7928 100.588 62.1546 99.4849 62.9294 98.9414L87.6838 81.5759C88.4585 81.0324 89.6189 81.0677 90.2443 81.9591L91.8805 84.2916C91.9169 84.3434 91.9458 84.4 91.9666 84.4599C92.2523 85.2847 92.1433 86.2867 91.2941 86.8824L66.6149 104.195C65.8402 104.739 64.6798 104.703 64.0544 103.812L62.4182 101.479Z" fill="#DBDBDB"/>
<path d="M105.585 33.6552L104.457 35.752C104.135 36.3511 103.839 36.7988 103.369 37.2631C101.909 38.85 99.7998 39.5916 97.7168 39.4645C97.3482 39.4318 96.9764 39.5077 96.71 39.6954C96.4008 39.8602 96.0883 40.1335 95.9042 40.4758C95.5361 41.1605 95.5991 41.9666 96.0371 42.5883C97.5223 44.5454 97.968 47.102 97.0941 49.4454C96.9988 49.7252 96.8607 49.982 96.6997 50.2815L95.5722 52.3783C95.4341 52.6351 95.2533 52.8688 95.1382 53.0828L82.5574 46.3179C82.6297 46.0809 82.7907 45.7814 82.9058 45.5674L84.0333 43.4706C84.1483 43.2566 84.3062 43.0657 84.4212 42.8517C84.4672 42.7662 84.579 42.6608 84.6481 42.5324C86.1409 40.5769 88.4536 39.5587 90.8395 39.7383C91.5766 39.8037 92.3069 39.3689 92.675 38.6843C92.8361 38.3847 92.9346 37.9964 92.9015 37.6476C92.9245 37.6048 92.8817 37.5818 92.8817 37.5818C92.8486 37.233 92.6839 36.9238 92.5192 36.6145C91.5148 35.3021 90.9972 33.6999 91.0258 32.0052C91.0388 31.5708 91.0517 31.1364 91.1732 30.7053C91.1764 30.5967 91.2454 30.4683 91.2914 30.3827C91.436 29.9088 91.6035 29.3921 91.8566 28.9214L92.9841 26.8246C93.0071 26.7818 93.0531 26.6962 93.0991 26.6106L105.766 33.4215C105.654 33.5269 105.631 33.5696 105.585 33.6552Z" fill="#EBEBEB"/>
<path fill-rule="evenodd" clip-rule="evenodd" d="M92.5061 26.2914C92.6823 25.9637 93.0909 25.8409 93.4186 26.0171L106.085 32.828C106.276 32.9306 106.406 33.1186 106.434 33.3333C106.462 33.548 106.386 33.7633 106.228 33.9118C106.211 33.9283 106.2 33.9388 106.195 33.9446C106.192 33.9502 106.186 33.9595 106.179 33.9743L105.051 36.0711C104.712 36.7008 104.382 37.2078 103.854 37.7311C102.244 39.4738 99.9356 40.2749 97.6762 40.137C97.67 40.1366 97.6638 40.1362 97.6577 40.1356C97.4038 40.1131 97.2025 40.1729 97.0985 40.2462C97.0757 40.2623 97.0518 40.2769 97.0272 40.2901C96.8113 40.4051 96.6074 40.5916 96.4981 40.7948C96.2558 41.2454 96.2926 41.7739 96.5823 42.1916C98.1912 44.3187 98.682 47.1074 97.7291 49.6721C97.6158 50.0013 97.4565 50.2977 97.3056 50.578L96.1661 52.6974C96.0813 52.8549 95.9862 53.0004 95.9106 53.1158C95.8282 53.2416 95.7727 53.3262 95.7321 53.4018C95.5559 53.7296 95.1473 53.8524 94.8196 53.6761L82.2387 46.9113C81.9559 46.7592 81.8197 46.4285 81.9134 46.1213C82.0055 45.819 82.1929 45.471 82.3002 45.2716C82.3045 45.2636 82.3087 45.2558 82.3128 45.2483L83.4403 43.1515C83.5139 43.0145 83.5983 42.8894 83.6625 42.7941L83.6689 42.7846C83.7404 42.6785 83.7893 42.605 83.8282 42.5326C83.8638 42.4665 83.9032 42.412 83.9288 42.3781C83.9498 42.3503 83.9738 42.3203 83.9904 42.2995C83.9938 42.2952 83.997 42.2914 83.9997 42.288C84.0194 42.2632 84.0321 42.2468 84.0422 42.2327C84.0519 42.219 84.0551 42.2131 84.0551 42.2133C84.072 42.1819 84.0913 42.1518 84.1129 42.1235C85.7443 39.9865 88.2778 38.8697 90.8905 39.0664L90.8994 39.0671C91.3354 39.1057 91.8252 38.8428 92.082 38.3651C92.1814 38.1804 92.2383 37.9526 92.2343 37.7671C92.2231 37.7277 92.2153 37.687 92.2114 37.6454C92.194 37.4626 92.1101 37.2811 91.9501 36.9786C90.8731 35.5503 90.3218 33.8162 90.3526 31.9938L90.3527 31.9851C90.353 31.9754 90.3534 31.9656 90.3537 31.9558C90.3655 31.5558 90.3797 31.0738 90.5086 30.5829C90.5263 30.453 90.5662 30.3448 90.5944 30.2769C90.6184 30.2192 90.6448 30.1656 90.6664 30.1239C90.8083 29.6616 90.9883 29.1141 91.2636 28.6022L92.5061 26.2914ZM93.3739 27.5231L92.4505 29.2404C92.232 29.6467 92.0806 30.1063 91.9364 30.5792C91.9234 30.6216 91.9063 30.6627 91.8853 30.7018C91.8734 30.7239 91.8645 30.7406 91.8561 30.7573C91.8503 30.7687 91.8459 30.7779 91.8426 30.7853C91.8385 30.82 91.8316 30.8543 91.8221 30.888C91.727 31.2255 91.7131 31.576 91.6999 32.0207C91.6747 33.5668 92.1464 35.0181 93.0547 36.205C93.0771 36.2342 93.097 36.2652 93.1143 36.2977C93.1204 36.3092 93.1267 36.321 93.1331 36.333C93.2688 36.5871 93.458 36.9413 93.531 37.3568C93.5542 37.4144 93.5722 37.4808 93.5793 37.5555C93.5835 37.6 93.5835 37.6433 93.5798 37.6853C93.6015 38.1566 93.4672 38.6345 93.2689 39.0033C92.7902 39.8936 91.8219 40.4996 90.7854 40.4099C88.6417 40.2498 86.5644 41.1565 85.2103 42.9071C85.1518 43.0046 85.0892 43.0831 85.0534 43.128C85.0467 43.1363 85.041 43.1435 85.036 43.1497C85.0216 43.1678 85.0133 43.1781 85.0054 43.1885C84.9342 43.3185 84.8543 43.437 84.7928 43.5282L84.7864 43.5377C84.715 43.6437 84.6661 43.7172 84.6271 43.7897L83.4997 45.8865C83.4755 45.9313 83.4515 45.9763 83.428 46.0207L94.9029 52.1909C94.9305 52.1458 94.9559 52.1024 94.9792 52.0592L96.1067 49.9623C96.273 49.653 96.3826 49.4458 96.4567 49.2282C96.4588 49.2221 96.4609 49.216 96.4632 49.21C97.2521 47.0944 96.8541 44.7788 95.5008 42.9956C95.496 42.9893 95.4913 42.9829 95.4867 42.9764C94.9058 42.1519 94.8188 41.0724 95.3112 40.1566C95.5625 39.6892 95.9667 39.3362 96.3585 39.1198C96.7784 38.8395 97.2994 38.7529 97.7666 38.7924C99.6653 38.906 101.566 38.2277 102.873 36.8068C102.881 36.7989 102.888 36.7911 102.896 36.7835C103.302 36.3823 103.561 35.9967 103.864 35.4329L104.811 33.6728L93.3739 27.5231Z" fill="#EBEBEB"/>
<path d="M91.835 47.9414C91.835 47.9414 86.4602 45.934 86.3153 45.6905C86.1671 45.5557 84.8107 44.385 83.9415 43.6418L84.1716 43.2139C84.2867 43 84.4017 42.786 84.5826 42.5523C84.6911 42.5555 84.8227 42.5159 84.9544 42.4764C86.7015 42.2022 89.7785 42.5328 91.248 45.7502L91.835 47.9414Z" fill="#EBEBEB"/>
<path fill-rule="evenodd" clip-rule="evenodd" d="M85.1044 43.135C85.0683 43.1459 85.0224 43.1595 84.9699 43.1728C84.908 43.2707 84.8526 43.3709 84.7921 43.483C85.6112 44.1859 86.6054 45.0446 86.7626 45.1864C86.7889 45.2011 86.83 45.2225 86.8888 45.2511C87.034 45.3216 87.2433 45.4147 87.5022 45.5246C88.0174 45.7431 88.6956 46.0141 89.3749 46.2796C89.8913 46.4815 90.4054 46.679 90.8443 46.8464L90.6122 45.9802C89.3259 43.2284 86.7002 42.8983 85.1044 43.135ZM91.8351 47.9413L91.5994 48.5725C91.8357 48.6608 92.1015 48.6097 92.2882 48.44C92.475 48.2704 92.5513 48.0107 92.486 47.767L91.899 45.5757C91.8893 45.5396 91.8766 45.5042 91.861 45.4702C90.2119 41.8595 86.744 41.5134 84.8501 41.8106C84.8198 41.8154 84.7899 41.8222 84.7605 41.831C84.6901 41.8521 84.6464 41.865 84.6093 41.8735C84.598 41.8761 84.5903 41.8776 84.5856 41.8784C84.3764 41.8774 84.1782 41.9739 84.0498 42.1398C83.8347 42.4179 83.6975 42.673 83.5841 42.884L83.3482 43.3226C83.1981 43.6018 83.2629 43.9478 83.5038 44.1538C84.3378 44.867 85.6017 45.9577 85.8356 46.1652C85.8805 46.2125 85.92 46.2424 85.9353 46.254L85.9368 46.2551C85.9796 46.2876 86.0228 46.3147 86.0575 46.3353C86.1284 46.3774 86.2127 46.4208 86.2996 46.463C86.4761 46.5488 86.7104 46.6525 86.9758 46.7651C87.5092 46.9914 88.2018 47.2679 88.8843 47.5347C89.5681 47.802 90.2467 48.0614 90.7541 48.2538C91.0079 48.3501 91.219 48.4297 91.3668 48.4853L91.5994 48.5725C91.5994 48.5726 91.5994 48.5725 91.8351 47.9413Z" fill="#EBEBEB"/>
<path d="M105.585 33.6552L104.457 35.752C104.135 36.3511 103.839 36.7988 103.369 37.2631C101.909 38.85 99.7998 39.5916 97.7168 39.4645C97.3482 39.4318 96.9764 39.5077 96.71 39.6954C96.4008 39.8602 96.0883 40.1335 95.9042 40.4758C95.5361 41.1605 95.5991 41.9666 96.0371 42.5883C97.5223 44.5454 97.968 47.102 97.0941 49.4454C96.9988 49.7252 96.8607 49.982 96.6997 50.2815L95.5722 52.3783C95.4341 52.6351 95.2533 52.8688 95.1382 53.0828L82.5574 46.3179C82.6297 46.0809 82.7907 45.7814 82.9058 45.5674L84.0333 43.4706C84.1483 43.2566 84.3062 43.0657 84.4212 42.8517C84.4672 42.7662 84.579 42.6608 84.6481 42.5324C86.1409 40.5769 88.4536 39.5587 90.8395 39.7383C91.5766 39.8037 92.3069 39.3689 92.675 38.6843C92.8361 38.3847 92.9346 37.9964 92.9015 37.6476C92.9245 37.6048 92.8817 37.5818 92.8817 37.5818C92.8486 37.233 92.6839 36.9238 92.5192 36.6145C91.5148 35.3021 90.9972 33.6999 91.0258 32.0052C91.0388 31.5708 91.0517 31.1364 91.1732 30.7053C91.1764 30.5967 91.2454 30.4683 91.2914 30.3827C91.436 29.9088 91.6035 29.3921 91.8566 28.9214L92.9841 26.8246C93.0071 26.7818 93.0531 26.6962 93.0991 26.6106L105.766 33.4215C105.654 33.5269 105.631 33.5696 105.585 33.6552Z" fill="white"/>
<path fill-rule="evenodd" clip-rule="evenodd" d="M92.8218 25.688L106.921 33.2691L106.233 33.9173C106.216 33.9331 106.206 33.9433 106.2 33.9492C106.197 33.9547 106.192 33.9638 106.185 33.9779L105.057 36.0747C104.718 36.7048 104.387 37.2125 103.859 37.7364C102.247 39.4808 99.9368 40.2826 97.6753 40.1445L97.666 40.144L97.6566 40.1431C97.404 40.1207 97.2047 40.1803 97.1024 40.2524L97.0677 40.2768L97.0303 40.2968C96.8155 40.4112 96.6128 40.5967 96.5043 40.7985C96.2634 41.2464 96.2999 41.7719 96.5879 42.1873C98.1982 44.3163 98.6896 47.1076 97.7357 49.6747C97.6223 50.0045 97.4627 50.3012 97.3119 50.5815L96.1722 52.701C96.0873 52.8589 95.992 53.0046 95.9164 53.12C95.834 53.2459 95.7787 53.3302 95.7383 53.4054L95.4157 54.0054L81.7429 46.6534L81.9058 46.1192C81.9982 45.8162 82.1859 45.4676 82.2932 45.2684C82.2975 45.2603 82.3017 45.2524 82.3058 45.2448L83.4333 43.148C83.5071 43.0107 83.5917 42.8853 83.6559 42.79L83.6624 42.7805C83.7338 42.6744 83.7825 42.6012 83.8212 42.5291C83.8571 42.4625 83.8968 42.4077 83.9224 42.3737C83.9435 42.3458 83.9676 42.3157 83.9842 42.2949C83.9877 42.2906 83.9908 42.2868 83.9934 42.2834C84.0132 42.2587 84.0257 42.2424 84.0357 42.2285C84.0446 42.216 84.0478 42.2103 84.0481 42.2098L84.0738 42.1621L84.1066 42.1191C85.7395 39.98 88.2754 38.8622 90.8907 39.0591L90.8997 39.0597C91.3323 39.0981 91.8195 38.837 92.0751 38.3617C92.158 38.2075 92.2112 38.0232 92.2238 37.8591L92.2036 37.6462C92.1864 37.4652 92.1033 37.285 91.9434 36.9827C90.8656 35.5532 90.3139 33.8175 90.3447 31.9937L90.3449 31.985C90.3452 31.9752 90.3455 31.9653 90.3458 31.9554C90.3576 31.5557 90.3719 31.0731 90.5009 30.5815C90.5187 30.4509 90.5589 30.3422 90.5872 30.2741C90.6111 30.2165 90.6375 30.1629 90.6591 30.1211C90.801 29.6589 90.9811 29.1112 91.2566 28.5988L92.8218 25.688ZM93.3765 27.5333L92.4567 29.244C92.2386 29.6496 92.0873 30.1086 91.9431 30.5815L91.9235 30.646L91.8915 30.7054C91.8796 30.7276 91.8707 30.7441 91.8623 30.7608C91.8585 30.7684 91.8552 30.7751 91.8525 30.7809L91.8517 30.8094L91.8289 30.8901C91.7341 31.2266 91.7202 31.5761 91.707 32.021C91.6818 33.5655 92.153 35.0151 93.0602 36.2005L93.0942 36.2449L93.1205 36.2943C93.1267 36.3059 93.133 36.3177 93.1394 36.3298C93.275 36.5836 93.4645 36.9384 93.5379 37.3548C93.5611 37.4128 93.5792 37.4797 93.5864 37.5549C93.5906 37.5997 93.5906 37.6433 93.5869 37.6855C93.6086 38.1582 93.4739 38.6373 93.2751 39.0069C92.7952 39.8995 91.8242 40.5074 90.7844 40.4174C88.6434 40.2576 86.5686 41.163 85.216 42.9115C85.1574 43.0091 85.0947 43.0878 85.0589 43.1327C85.0522 43.141 85.0464 43.1484 85.0414 43.1545C85.0272 43.1723 85.0191 43.1825 85.0113 43.1927C84.94 43.3228 84.86 43.4413 84.7987 43.5324L84.7922 43.5419C84.7207 43.648 84.6721 43.7213 84.6333 43.7933L83.5058 45.8901C83.4829 45.9328 83.46 45.9755 83.4377 46.0178L94.8998 52.1811C94.926 52.1382 94.9501 52.0969 94.9722 52.0557L96.0997 49.9589C96.2661 49.6494 96.3754 49.4428 96.4492 49.2259L96.4524 49.2166L96.4558 49.2074C97.2438 47.0944 96.8463 44.7815 95.4945 43.0002L95.4872 42.9906L95.4802 42.9807C94.8978 42.1541 94.8105 41.0715 95.3043 40.1532C95.5563 39.6844 95.9616 39.3304 96.3543 39.1135C96.7758 38.8322 97.2985 38.7455 97.7667 38.7851C99.6635 38.8985 101.562 38.2209 102.868 36.8018L102.879 36.7898L102.89 36.7783C103.296 36.3778 103.554 35.9929 103.857 35.4294L104.8 33.6759L93.3765 27.5333Z" fill="#DBDBDB"/>
<path d="M97.9369 36.493L92.621 33.9655L91.047 32.071C91.0599 31.6367 91.0728 31.2023 91.1943 30.7711C91.1975 30.6625 91.2666 30.5342 91.3126 30.4486C93.807 30.6314 95.5546 31.0746 97.7116 33.8342C98.0673 34.3013 98.3801 34.7454 98.7556 35.2782C101.96 40.0906 97.9369 36.493 97.9369 36.493Z" fill="#EBEBEB"/>
<path fill-rule="evenodd" clip-rule="evenodd" d="M91.7935 31.1656C91.7546 31.3731 91.7388 31.5913 91.7289 31.8377L93.0443 33.421L98.2261 35.8846C98.2842 35.9122 98.338 35.948 98.3859 35.9908C98.3858 35.9908 98.3859 35.9908 98.3859 35.9908L98.3878 35.9925L98.3952 35.9991L98.4257 36.026C98.4352 36.0343 98.4463 36.044 98.4589 36.055C98.3788 35.9307 98.2925 35.7989 98.1996 35.6592C97.8263 35.1294 97.5223 34.6982 97.178 34.246C96.1451 32.9253 95.2478 32.2061 94.352 31.7851C93.5829 31.4237 92.7733 31.2613 91.7935 31.1656ZM97.5623 37.0612C97.5899 37.0852 97.6245 37.1152 97.6648 37.1498C97.7727 37.2423 97.9232 37.369 98.0941 37.5059C98.4196 37.7667 98.874 38.1097 99.2504 38.295C99.3485 38.3433 99.4638 38.3923 99.5858 38.4236C99.6944 38.4515 99.8884 38.487 100.101 38.4221C100.368 38.3406 100.558 38.1348 100.632 37.8825C100.692 37.679 100.666 37.4853 100.638 37.3559C100.58 37.0878 100.435 36.7637 100.233 36.3908C100.023 36.0041 99.7229 35.5155 99.3163 34.905C99.313 34.9 99.3097 34.8952 99.3063 34.8903L99.3025 34.885C98.9298 34.356 98.6108 33.9032 98.2476 33.4262L98.2424 33.4195C97.1194 31.9828 96.0652 31.1013 94.9252 30.5655C93.792 30.0329 92.6306 29.8698 91.3618 29.7768C91.0967 29.7574 90.8449 29.8956 90.7191 30.1297C90.7182 30.1314 90.7172 30.1332 90.7162 30.135C90.694 30.1763 90.6516 30.255 90.6151 30.3429C90.5868 30.4109 90.5469 30.519 90.5293 30.649C90.4003 31.1398 90.3861 31.6219 90.3743 32.0219C90.374 32.0317 90.3737 32.0415 90.3734 32.0512C90.3685 32.2153 90.4237 32.3755 90.5287 32.5018L92.1027 34.3963C92.1652 34.4715 92.2433 34.5322 92.3316 34.5742L97.5623 37.0612Z" fill="#DBDBDB"/>
<path d="M103.347 37.3059C101.887 38.8929 99.778 39.6345 97.6949 39.5074C97.3263 39.4747 96.9545 39.5506 96.6881 39.7383L96.6453 39.7153C95.9606 39.3471 95.0394 39.6241 94.6712 40.3087L91.2428 46.6847L90.0018 46.0175L93.4533 39.5987C93.8214 38.914 93.5873 38.0158 92.8598 37.6246C92.8267 37.2758 92.662 36.9666 92.4973 36.6574C91.4929 35.345 90.9753 33.7427 91.004 32.048C91.0169 31.6137 91.0298 31.1793 91.1513 30.7481C93.3708 33.5966 95.7139 33.7532 97.6028 33.831C98.1885 33.8702 98.7315 33.8863 99.2514 33.9452C101.265 34.2007 102.533 35.434 103.347 37.3059Z" fill="#EBEBEB"/>
<path fill-rule="evenodd" clip-rule="evenodd" d="M99.1699 34.6215C98.8367 34.5839 98.5051 34.5655 98.1369 34.5451C97.9568 34.5351 97.7679 34.5246 97.5658 34.5112C96.6215 34.4722 95.4709 34.4117 94.2653 33.9676C93.4054 33.6509 92.5367 33.1471 91.6858 32.3497C91.7197 33.7867 92.187 35.1312 93.0381 36.2432C93.0607 36.2727 93.0808 36.3041 93.0983 36.3369C93.1045 36.3485 93.1108 36.3603 93.1173 36.3724C93.2324 36.588 93.3864 36.8764 93.4752 37.2136C94.3117 37.8551 94.5397 39.0161 94.0531 39.9211L90.9242 45.7399L90.9652 45.7619L94.071 39.9859C94.564 39.0692 95.6984 38.653 96.6618 38.9818C97.0093 38.8396 97.3924 38.7979 97.7446 38.8277C99.493 38.9323 101.243 38.3647 102.528 37.1638C101.789 35.6973 100.737 34.8217 99.1699 34.6215ZM99.337 33.2692C101.653 33.563 103.09 35.0075 103.972 37.0341C104.079 37.2813 104.031 37.5686 103.848 37.767C102.235 39.5197 99.9198 40.3255 97.6532 40.1872C97.6469 40.1868 97.6407 40.1863 97.6345 40.1858C97.3818 40.1634 97.1825 40.223 97.0802 40.295C96.8693 40.4436 96.5925 40.4603 96.3652 40.3381L96.3224 40.3151C95.9691 40.1251 95.461 40.2779 95.271 40.6312L91.8426 47.0072C91.6644 47.3386 91.2513 47.4628 90.9199 47.2846L89.679 46.6173C89.3476 46.4391 89.2234 46.026 89.4016 45.6946L92.8531 39.2759C93.0501 38.9095 92.9201 38.4305 92.537 38.2245C92.3364 38.1166 92.2029 37.9156 92.1814 37.6888C92.1642 37.5078 92.0811 37.3276 91.9212 37.0254C90.8435 35.5958 90.2918 33.8602 90.3226 32.0363L90.3227 32.0276L90.3228 32.0276C90.3231 32.0178 90.3234 32.0079 90.3237 31.998C90.336 31.5818 90.3509 31.0757 90.4953 30.5632C90.565 30.3159 90.7679 30.1289 91.02 30.0794C91.2721 30.03 91.5305 30.1266 91.6884 30.3292C92.7245 31.6588 93.7627 32.3305 94.7363 32.6891C95.7256 33.0535 96.6876 33.1113 97.6306 33.1502C97.6364 33.1504 97.6422 33.1507 97.648 33.1511C97.8171 33.1624 97.9899 33.1721 98.1639 33.1817C98.5561 33.2036 98.954 33.2258 99.3279 33.2682L99.337 33.2692L99.337 33.2692Z" fill="#DBDBDB"/>
<path d="M96.658 50.2587L95.5305 52.3555C95.3924 52.6122 95.2116 52.846 95.0965 53.0599L83.8851 47.0314L83.0449 45.3108L84.0574 43.428C84.1724 43.214 84.2875 43.0001 84.4453 42.8091C84.4913 42.7235 84.6031 42.6182 84.6722 42.4898C84.715 42.5128 84.692 42.5556 84.7347 42.5786C84.7545 42.6444 84.7973 42.6674 84.8401 42.6904C87.3132 45.7855 89.8601 45.6656 91.9234 45.7269C92.2492 45.7366 92.6177 45.7693 92.9205 45.8217C94.9543 46.143 96.2417 47.4421 97.0754 49.3798C96.9143 49.6794 96.819 49.9591 96.658 50.2587Z" fill="#EBEBEB"/>
<path fill-rule="evenodd" clip-rule="evenodd" d="M96.3224 49.367C95.556 47.7429 94.4584 46.7542 92.814 46.4944L92.8039 46.4928C92.5393 46.4469 92.2037 46.4166 91.9029 46.4076C91.79 46.4043 91.6737 46.4015 91.5543 46.3987C90.6218 46.3766 89.4997 46.35 88.3377 45.9981C87.139 45.6351 85.9178 44.9371 84.7306 43.6151C84.7073 43.6573 84.683 43.7022 84.6571 43.7504L83.8101 45.3256L84.4007 46.5351L94.8578 52.158C94.884 52.1152 94.9081 52.0739 94.9302 52.0326L96.0577 49.9358C96.124 49.8125 96.1782 49.6909 96.2434 49.5434L96.247 49.5355C96.2704 49.4825 96.2954 49.4261 96.3224 49.367ZM83.886 42.4169C83.7025 42.6485 83.57 42.895 83.4675 43.0859C83.464 43.0924 83.4605 43.0988 83.4571 43.1052L82.4447 44.988C82.3408 45.1812 82.3363 45.4125 82.4325 45.6096L83.2726 47.3301C83.3353 47.4583 83.4365 47.5636 83.5622 47.6312L94.7737 53.6597C95.105 53.8379 95.5181 53.7137 95.6963 53.3824C95.7367 53.3071 95.792 53.2228 95.8745 53.0969C95.9501 52.9816 96.0453 52.8358 96.1303 52.6779L97.2577 50.5811C97.3507 50.4082 97.4238 50.2431 97.4859 50.1027L97.4894 50.0947C97.5547 49.9472 97.6088 49.8256 97.6751 49.7023C97.7736 49.5192 97.7831 49.3013 97.7009 49.1104C96.8051 47.0282 95.3588 45.5189 93.0315 45.1494C92.6917 45.0909 92.2924 45.0561 91.9434 45.0457C91.8232 45.0422 91.7033 45.0392 91.5837 45.0361C90.6388 45.0124 89.7061 44.9889 88.7326 44.6941C87.6666 44.3713 86.5264 43.7096 85.3721 42.265C85.3468 42.2333 85.3187 42.204 85.2884 42.1774C85.2854 42.1722 85.2823 42.1668 85.2791 42.1614C85.2487 42.1104 85.209 42.0578 85.1576 42.0083C85.1064 41.959 85.0509 41.9199 84.9946 41.8896C84.6632 41.7114 84.2501 41.8356 84.0719 42.167C84.072 42.1669 84.072 42.1669 84.0719 42.167C84.0717 42.1674 84.0684 42.1732 84.0595 42.1856C84.0496 42.1995 84.037 42.2158 84.0173 42.2406C84.0146 42.2439 84.0115 42.2478 84.0081 42.2521C83.9914 42.2728 83.9673 42.3029 83.9463 42.3309C83.9302 42.3521 83.9087 42.3815 83.886 42.4169ZM85.1526 42.0847C85.1528 42.0847 85.1553 42.0861 85.1595 42.0886C85.1546 42.0859 85.1525 42.0846 85.1526 42.0847ZM85.3555 42.3374C85.3555 42.3375 85.3555 42.3376 85.3556 42.3376C85.3556 42.3378 85.3556 42.3378 85.3556 42.3379M84.051 42.7306C84.0509 42.7305 84.0509 42.7304 84.0509 42.7304L84.0508 42.7301" fill="#DBDBDB"/>
<path d="M106.082 34.4744L92.0466 26.9272C91.747 26.7661 91.6283 26.3713 91.7664 26.1145L92.5027 24.7452C92.6638 24.4456 93.0356 24.3697 93.3351 24.5308L107.414 32.101C107.713 32.2621 107.855 32.6141 107.694 32.9137L106.981 34.2402C106.734 34.4937 106.382 34.6354 106.082 34.4744Z" fill="white"/>
<path fill-rule="evenodd" clip-rule="evenodd" d="M93.0081 25.129C93.0081 25.129 93.0084 25.129 93.0088 25.1292L93.0081 25.129ZM93.0562 25.1544L107.047 32.6776L106.435 33.8156C106.427 33.822 106.419 33.8278 106.41 33.833C106.394 33.8438 106.38 33.8508 106.369 33.8552L92.4129 26.3507L93.0562 25.1544ZM107.095 32.7037C107.095 32.7037 107.095 32.7036 107.094 32.7032L107.095 32.7037ZM91.9027 24.4226C92.2748 23.7307 93.0913 23.6263 93.6578 23.9308L107.736 31.5011C108.303 31.8056 108.666 32.5444 108.294 33.2363L107.581 34.5629C107.551 34.6186 107.513 34.6699 107.469 34.7153C107.13 35.0633 106.453 35.4474 105.76 35.0744L91.724 27.5272C91.4022 27.3542 91.1931 27.0659 91.0955 26.7705C90.9998 26.4807 90.9911 26.1179 91.1664 25.7919L91.9027 24.4226Z" fill="#DBDBDB"/>
<path d="M95.2215 54.6718L81.1858 47.1246C80.8862 46.9635 80.7445 46.6115 80.9056 46.312L81.6189 44.9854C81.78 44.6859 82.1518 44.61 82.4513 44.7711L96.5299 52.3413C96.8294 52.5023 96.9711 52.8544 96.81 53.1539L96.0967 54.4804C95.8501 54.734 95.5211 54.8329 95.2215 54.6718Z" fill="white"/>
<path fill-rule="evenodd" clip-rule="evenodd" d="M82.1243 45.3695C82.1244 45.3695 82.1246 45.3695 82.125 45.3697L82.1243 45.3695ZM82.1724 45.3948L96.1635 52.918L95.5537 54.0521C95.5445 54.0583 95.5368 54.0624 95.5311 54.065L81.5522 46.5484L82.1724 45.3948ZM81.5045 46.5222C81.5045 46.5222 81.5047 46.5224 81.505 46.5227L81.5045 46.5222ZM96.2112 52.9442C96.2112 52.9442 96.211 52.944 96.2107 52.9437L96.2112 52.9442ZM81.0189 44.6631C81.391 43.9711 82.2076 43.8667 82.774 44.1713L96.8525 51.7415C97.4189 52.0461 97.7821 52.7849 97.4101 53.4768L96.6968 54.8034C96.6668 54.8591 96.6292 54.9104 96.585 54.9558C96.1963 55.3554 95.5454 55.6197 94.8989 55.2721L80.8632 47.7249C80.2968 47.4203 79.9336 46.6816 80.3056 45.9896L81.0189 44.6631Z" fill="#DBDBDB"/>
</svg>
