<svg width="14" height="14" viewBox="0 0 14 14" fill="none" xmlns="http://www.w3.org/2000/svg">
<path d="M4.78599 10.42C4.35425 10.42 4 10.1 4 9.71V3.71C4 3.32 4.35425 3 4.78599 3C5.21773 3 5.57198 3.32 5.57198 3.71V9.71C5.57198 10.1 5.21773 10.42 4.78599 10.42Z" fill="#00AE42"/>
<path d="M9.21421 10.42C8.78247 10.42 8.42822 10.1 8.42822 9.71V3.71C8.42822 3.32 8.78247 3 9.21421 3C9.64595 3 10.0002 3.32 10.0002 3.71V9.71C10.0002 10.1 9.64595 10.42 9.21421 10.42Z" fill="#00AE42"/>
<circle cx="7" cy="7" r="6.5" stroke="#00AE42"/>
</svg>
