<svg width="40" height="40" viewBox="0 0 40 40" fill="none" xmlns="http://www.w3.org/2000/svg">
<path d="M28.9484 29.3372C28.0762 30.2095 26.5763 30.141 25.6206 29.1853L10.9176 14.4823C9.9619 13.5266 9.89343 12.0267 10.7657 11.1545C11.6379 10.2822 13.1378 10.3507 14.0935 11.3064L28.7965 26.0094C29.7522 26.9651 29.8207 28.465 28.9484 29.3372Z" fill="#00AE42"/>
<path d="M20.0001 38.5713C30.2569 38.5713 38.5716 30.2566 38.5716 19.9999C38.5716 9.74318 30.2569 1.42847 20.0001 1.42847C9.74342 1.42847 1.42871 9.74318 1.42871 19.9999C1.42871 30.2566 9.74342 38.5713 20.0001 38.5713Z" stroke="#00AE42"/>
<path d="M11.1542 28.9484C10.282 28.0762 10.3504 26.5763 11.3061 25.6206L26.0092 10.9176C26.9649 9.9619 28.4647 9.89343 29.337 10.7657C30.2092 11.6379 30.1407 13.1378 29.185 14.0935L14.482 28.7965C13.5263 29.7522 12.0265 29.8207 11.1542 28.9484Z" fill="#00AE42"/>
</svg>
