<svg width="200" height="200" viewBox="0 0 200 200" fill="none" xmlns="http://www.w3.org/2000/svg">
<path d="M100 32.2916C117.957 32.2916 135.179 39.4252 147.877 52.1229C160.575 64.8207 167.708 82.0426 167.708 100C167.708 117.957 160.575 135.179 147.877 147.877C135.179 160.575 117.957 167.708 100 167.708C82.0426 167.708 64.8207 160.575 52.123 147.877C39.4252 135.179 32.2917 117.957 32.2917 100C32.2917 82.0426 39.4252 64.8207 52.123 52.1229C64.8207 39.4252 82.0426 32.2916 100 32.2916ZM100 183.333C122.101 183.333 143.298 174.554 158.926 158.926C174.554 143.297 183.333 122.101 183.333 100C183.333 77.8986 174.554 56.7024 158.926 41.0744C143.298 25.4464 122.101 16.6666 100 16.6666C77.8986 16.6666 56.7025 25.4464 41.0744 41.0744C25.4464 56.7024 16.6667 77.8986 16.6667 100C16.6667 122.101 25.4464 143.297 41.0744 158.926C56.7025 174.554 77.8986 183.333 100 183.333ZM86.9792 126.042C82.6497 126.042 79.1667 129.525 79.1667 133.854C79.1667 138.184 82.6497 141.667 86.9792 141.667H113.021C117.35 141.667 120.833 138.184 120.833 133.854C120.833 129.525 117.35 126.042 113.021 126.042H110.417V97.3958C110.417 93.0664 106.934 89.5833 102.604 89.5833H86.9792C82.6497 89.5833 79.1667 93.0664 79.1667 97.3958C79.1667 101.725 82.6497 105.208 86.9792 105.208H94.7917V126.042H86.9792ZM100 79.1666C102.763 79.1666 105.412 78.0692 107.366 76.1157C109.319 74.1621 110.417 71.5126 110.417 68.75C110.417 65.9873 109.319 63.3378 107.366 61.3843C105.412 59.4308 102.763 58.3333 100 58.3333C97.2373 58.3333 94.5878 59.4308 92.6343 61.3843C90.6808 63.3378 89.5833 65.9873 89.5833 68.75C89.5833 71.5126 90.6808 74.1621 92.6343 76.1157C94.5878 78.0692 97.2373 79.1666 100 79.1666Z" fill="#808080"/>
</svg>
