<svg width="14" height="14" viewBox="0 0 14 14" fill="none" xmlns="http://www.w3.org/2000/svg">
	<g clip-path="url(#clip0_1018_9476)">
	<path d="M12.2165 5.86719H12.1745H2.27474H2.23361L1.06024 7.61138C0.904492 7.84318 1.07074 8.15458 1.34987 8.15458H2.27561H12.1745H13.0845C13.3723 8.15458 13.543 7.83356 13.382 7.59476L12.2165 5.86719Z" fill="#ACACAC" stroke="#262E30" stroke-width="0.5" stroke-miterlimit="10"/>
	<path d="M10.6677 2H3.77973C3.47699 2 3.19524 2.15045 3.02636 2.4015L1.06024 5.32306C0.904492 5.55486 1.07074 5.86626 1.34987 5.86626H2.23361H2.27561H12.1745H12.2165H13.0845C13.3723 5.86626 13.543 5.54524 13.382 5.30644L11.4211 2.39975C11.2513 2.14958 10.9696 2 10.6677 2Z" stroke="#262E30" stroke-width="0.5" stroke-miterlimit="10"/>
	<path d="M1.34915 12.8554H13.0837C13.3716 12.8554 13.5422 12.5343 13.3812 12.2955L12.1737 10.5059H2.2749L1.0604 12.3122C0.903779 12.544 1.07003 12.8554 1.34915 12.8554Z" fill="#ACACAC" stroke="#262E30" stroke-width="0.5" stroke-miterlimit="10"/>
	<path d="M1.06024 9.9606C0.904492 10.1924 1.07074 10.5038 1.34987 10.5038H2.27561H12.1745H13.0845C13.3723 10.5038 13.543 10.1828 13.382 9.94398L12.1745 8.1543H2.27474L1.06024 9.9606Z" stroke="#262E30" stroke-width="0.5" stroke-miterlimit="10"/>
	</g>
	<defs>
	<clipPath id="clip0_1018_9476">
	<rect width="14" height="14" fill="white" transform="translate(0 14) rotate(-90)"/>
	</clipPath>
	</defs>
	</svg>
	