<svg width="24" height="24" viewBox="0 0 24 24" fill="none" xmlns="http://www.w3.org/2000/svg">
<path opacity="0.2" d="M5.98183 18.0178C1.49214 10.5356 7.48183 3.05343 20.1981 3.80156C20.9462 16.5216 13.464 22.5075 5.98183 18.0178Z" fill="#00AF42"/>
<path d="M20.9489 3.75655C20.9381 3.57307 20.8604 3.39991 20.7305 3.26994C20.6005 3.13998 20.4273 3.06226 20.2439 3.05155C13.1067 2.63249 7.38979 4.78124 4.95229 8.81249C4.10738 10.1915 3.69103 11.7903 3.75604 13.4062C3.80948 14.8987 4.24448 16.4062 5.04885 17.8922L3.21979 19.7203C3.07906 19.861 3 20.0519 3 20.2509C3 20.4499 3.07906 20.6408 3.21979 20.7815C3.36052 20.9223 3.55139 21.0013 3.75042 21.0013C3.94944 21.0013 4.14031 20.9223 4.28104 20.7815L6.10917 18.9525C7.59417 19.7559 9.1026 20.1909 10.5942 20.2444C10.6985 20.2481 10.8026 20.25 10.9064 20.25C12.4174 20.254 13.8997 19.8379 15.1879 19.0481C19.2192 16.6106 21.3689 10.8947 20.9489 3.75655ZM14.4145 17.7656C12.2817 19.0575 9.75698 19.0781 7.22292 17.8378L15.532 9.52967C15.6017 9.45999 15.6569 9.37727 15.6947 9.28622C15.7324 9.19518 15.7518 9.0976 15.7518 8.99905C15.7518 8.9005 15.7324 8.80292 15.6947 8.71188C15.6569 8.62083 15.6017 8.53811 15.532 8.46842C15.4623 8.39874 15.3796 8.34347 15.2885 8.30575C15.1975 8.26804 15.0999 8.24863 15.0014 8.24863C14.9028 8.24863 14.8052 8.26804 14.7142 8.30575C14.6231 8.34347 14.5404 8.39874 14.4707 8.46842L6.1626 16.7812C4.92604 14.25 4.94385 11.7187 6.23479 9.58967C8.30573 6.17061 13.2285 4.29842 19.4826 4.52155C19.7067 10.7709 17.8335 15.6947 14.4145 17.7656Z" fill="#00AF42"/>
</svg>
