<svg width="16" height="16" viewBox="0 0 16 16" fill="none" xmlns="http://www.w3.org/2000/svg">
<path d="M2.25 1.5C1.00736 1.5 0 2.50736 0 3.75V9.25C0 10.4926 1.00736 11.5 2.25 11.5H3.5V14.5C3.5 14.7019 3.62149 14.884 3.80798 14.9613C3.99446 15.0386 4.20914 14.9958 4.35185 14.8531L7.70495 11.5H13.75C14.9926 11.5 16 10.4926 16 9.25V3.75C16 2.50736 14.9926 1.5 13.75 1.5H2.25ZM1 3.75C1 3.05964 1.55964 2.5 2.25 2.5H13.75C14.4404 2.5 15 3.05964 15 3.75V9.25C15 9.94036 14.4404 10.5 13.75 10.5H7.49785C7.36525 10.5 7.23806 10.5527 7.14429 10.6464L4.5 13.2907V11C4.5 10.7239 4.27614 10.5 4 10.5H2.25C1.55964 10.5 1 9.94036 1 9.25V3.75ZM3.5 5C3.22386 5 3 5.22386 3 5.5C3 5.77614 3.22386 6 3.5 6H12.5C12.7761 6 13 5.77614 13 5.5C13 5.22386 12.7761 5 12.5 5H3.5ZM3.5 7.5C3.22386 7.5 3 7.72386 3 8C3 8.27614 3.22386 8.5 3.5 8.5H9.5C9.77614 8.5 10 8.27614 10 8C10 7.72386 9.77614 7.5 9.5 7.5H3.5Z" fill="#00AE42"/>
</svg>
