<svg width="14" height="14" viewBox="0 0 14 14" fill="none" xmlns="http://www.w3.org/2000/svg">
<path d="M13 1.78571H7C6.7 1.78571 6.5 1.52857 6.5 1.14286C6.5 0.757143 6.7 0.5 7 0.5H13C13.3 0.5 13.5 0.757143 13.5 1.14286C13.5 1.52857 13.3 1.78571 13 1.78571Z" fill="#00AE42"/>
<path d="M10 7.31429C9.7 7.31429 9.5 7.57143 9.5 7.95714V10.6571V11.9429C9.5 12.3286 9.3 12.5857 9 12.5857H1.6C1.3 12.5857 1.1 12.3286 1.1 11.9429V2.55714C1.1 2.42857 1.1 2.17143 1.3 2.04286C1.4 1.91429 1.5 1.78571 1.7 1.78571H4.9C5.2 1.78571 5.4 1.52857 5.4 1.14286C5.4 0.757143 5 0.5 4.8 0.5H2.7H1.6C1.1 0.5 0.8 0.757143 0.4 1.14286C0.2 1.52857 0 2.04286 0 2.55714V11.9429C0 13.1 0.8 14 1.6 14H8.9C9.8 14 10.5 13.1 10.5 11.9429V10.6571V7.95714C10.5 7.57143 10.3 7.31429 10 7.31429Z" fill="#808080"/>
</svg>
