<svg width="120" height="115" viewBox="0 0 120 115" fill="none" xmlns="http://www.w3.org/2000/svg">
<path d="M47.8668 8.24829C47.8224 8.24829 47.8224 8.24829 47.778 8.24829H47.7337C47.6893 8.24829 47.6449 8.24829 47.6449 8.24829H47.4231V8.11523C47.3788 8.11523 47.3344 8.11523 47.29 8.11523V8.91354C47.4231 8.91354 47.6006 8.91354 47.7337 8.86919C47.778 8.86919 47.778 8.86919 47.8224 8.86919H47.8668C47.8668 8.86919 47.8668 8.86919 47.9111 8.86919C47.9555 8.86919 47.9555 8.86919 47.9555 8.82484C47.9998 8.78049 47.9998 8.73614 47.9998 8.64744V8.60309V8.42569C47.9998 8.38134 47.9998 8.33699 47.9555 8.29264C47.9555 8.29264 47.9111 8.24829 47.8668 8.24829ZM47.8224 8.73614L47.4231 8.78049V8.47004L47.8224 8.42569V8.73614Z" fill="#545454"/>
<path d="M46.6693 7.80564V7.67259C46.6693 7.62824 46.6693 7.58389 46.625 7.58389V7.45084V7.40649C46.625 7.36214 46.625 7.36214 46.5806 7.31779L46.5362 7.27344C46.5362 7.27344 46.5362 7.27344 46.4919 7.27344C46.4919 7.27344 45.9152 7.31779 45.6934 7.31779C45.6934 7.58389 45.6934 7.84999 45.6934 8.11609C46.0039 8.11609 46.3144 8.07174 46.625 8.07174V7.80564H46.6693ZM45.8708 7.45084C46.0039 7.45084 46.137 7.45084 46.2701 7.40649C46.3144 7.40649 46.3144 7.40649 46.3588 7.40649H46.4032H46.4475C46.4475 7.40649 46.4475 7.40649 46.4475 7.45084C46.4475 7.45084 46.4475 7.45084 46.4475 7.49519V7.53954V7.62824C46.2701 7.62824 46.0483 7.67259 45.8708 7.67259V7.45084ZM46.4919 7.80564V7.89434C46.2701 7.89434 46.0926 7.93869 45.8708 7.93869V7.76129C46.0039 7.76129 46.137 7.76129 46.2701 7.71694C46.3588 7.71694 46.4032 7.71694 46.4475 7.71694C46.4919 7.76129 46.4919 7.76129 46.4919 7.80564Z" fill="#545454"/>
<path d="M48.9318 7.89401C48.9761 7.89401 48.9761 7.89401 49.0205 7.89401C49.0648 7.89401 49.0648 7.89401 49.0648 7.84966C49.1092 7.80531 49.1092 7.76096 49.1092 7.67226V7.62791C49.1092 7.53921 49.1092 7.49486 49.1092 7.40615C49.1092 7.3618 49.1092 7.31745 49.0648 7.2731C49.0648 7.22875 49.0205 7.22875 48.9761 7.22875H48.9318C48.9318 7.22875 48.9318 7.22875 48.8874 7.22875H48.843C48.7987 7.22875 48.7543 7.22875 48.7543 7.22875C48.6656 7.22875 48.6212 7.22875 48.5325 7.22875V7.0957C48.4881 7.0957 48.4438 7.0957 48.3994 7.0957V7.89401C48.5325 7.89401 48.71 7.89401 48.843 7.84966C48.8874 7.89401 48.8874 7.89401 48.9318 7.89401ZM48.5325 7.40615L48.9318 7.3618V7.67226L48.5325 7.71661V7.40615Z" fill="#545454"/>
<path d="M12.1104 10.6434L12.1548 10.6878H12.1991L14.1955 8.82509C14.2398 8.78074 14.2398 8.73639 14.1955 8.73639C14.1511 8.69204 14.1067 8.69204 14.1067 8.73639L12.1104 10.5991C12.0661 10.5991 12.0661 10.6434 12.1104 10.6434Z" fill="#545454"/>
<path d="M9.27197 10.9092H9.31633L13.442 6.82899C13.4864 6.78464 13.4864 6.74029 13.442 6.74029C13.3977 6.69594 13.3533 6.69594 13.3533 6.74029L9.22761 10.8205C9.18325 10.8649 9.18325 10.9092 9.22761 10.9092C9.22761 10.8649 9.27197 10.9092 9.27197 10.9092Z" fill="#545454"/>
<path d="M2.30659 17.3856C2.35095 17.3856 2.35095 17.3856 2.30659 17.3856C2.35095 17.3856 2.35095 17.3856 2.30659 17.3856L3.01638 17.3412L17.4341 16.4542L18.4545 16.4099C18.6763 16.4099 18.8981 16.2325 18.9424 16.0107L19.3417 14.4585L22.2253 3.45961L22.5358 2.21781C22.5802 2.0404 22.5358 1.863 22.4471 1.72995C22.3583 1.5969 22.1809 1.5082 22.0034 1.55255L21.2936 1.5969L6.83154 2.88306L5.85557 2.97176C5.63376 2.97176 5.45631 3.14916 5.36759 3.37091L4.96832 4.87882L2.12914 15.5229L1.77424 16.7203C1.72988 16.8977 1.77424 17.0751 1.86296 17.2082C1.99605 17.2969 2.12914 17.3856 2.30659 17.3856ZM1.95169 16.7647L2.26222 15.5672L5.14577 4.87882L5.54503 3.37091C5.5894 3.23786 5.72248 3.10481 5.89993 3.10481L6.8759 3.01611L21.2936 1.81865L22.0034 1.7743C22.1365 1.7743 22.2696 1.81865 22.314 1.90735C22.4027 1.99605 22.4027 2.1291 22.4027 2.26216L22.0922 3.50396L19.2086 14.5028L18.765 15.9664C18.7206 16.1438 18.5876 16.2325 18.4101 16.2325L17.3898 16.2768L2.97202 17.1638L2.30659 17.2082C2.1735 17.2082 2.08478 17.1638 1.99605 17.0751C1.90733 16.9864 1.90733 16.8534 1.95169 16.7647Z" fill="#545454"/>
<path d="M119.512 8.60379C119.512 8.55944 119.468 8.55944 119.468 8.51509L119.424 8.47074C119.379 8.42639 119.291 8.33769 118.581 8.24899C118.315 8.20464 118.093 8.20464 117.827 8.16029L66.8986 3.81397C66.4994 3.76962 66.1001 3.76962 65.7452 3.72527C65.5678 3.72527 65.3903 3.72527 65.1685 3.68092C64.9467 3.68092 64.7692 3.68092 64.5474 3.63657C63.7933 3.59222 62.9948 3.59222 62.1962 3.59222C62.0188 3.59222 61.797 3.59222 61.6195 3.59222C61.4421 3.59222 61.2203 3.59222 61.0428 3.59222C60.6436 3.59222 60.2443 3.59222 59.8894 3.63657C59.6676 3.63657 59.4901 3.63657 59.2683 3.63657C59.0909 3.63657 58.9134 3.63657 58.6916 3.68092C58.2924 3.68092 57.8931 3.72527 57.5382 3.76962L56.6509 3.81397C56.6066 3.81397 56.6066 3.81397 56.5622 3.85832C56.5179 3.85832 56.5179 3.81397 56.4735 3.85832L38.8173 5.18883V4.47922C38.8173 4.47922 38.8173 4.43487 38.7729 4.39052L38.7286 4.34617C38.6842 4.30182 38.5955 4.25747 38.1962 4.21312C38.0631 4.21312 37.8857 4.16877 37.6639 4.16877C36.5992 4.08007 35.3127 4.08007 34.7803 4.08007C34.248 4.08007 33.76 4.08007 33.3607 4.12442C33.0946 4.12442 32.8728 4.16877 32.6509 4.16877C32.5622 4.16877 32.4735 4.16877 32.3848 4.21312C32.296 4.21312 32.2517 4.21312 32.163 4.25747C32.1186 4.25747 32.0742 4.25747 32.0299 4.30182C32.0299 4.30182 31.9855 4.30182 31.9855 4.34617C31.9855 4.34617 31.9412 4.34617 31.9412 4.39052L31.8968 4.43487C31.8524 4.47922 31.8524 4.47922 31.8524 4.52357V5.18883C31.8524 5.18883 31.8524 5.23318 31.8968 5.23318L31.9412 5.27753C31.9855 5.27753 32.0299 5.32188 32.0299 5.32188C32.0742 5.32188 32.1186 5.36623 32.163 5.36623C32.2517 5.36623 32.3404 5.41058 32.4291 5.41058C32.5622 5.41058 32.7397 5.45493 32.9171 5.45493V5.72103L24.3552 6.38628L25.1094 3.54787C25.1537 3.06002 25.2868 2.70522 25.2868 2.35042C25.2868 2.12867 25.2868 1.95126 25.2424 1.77386C25.1537 1.55211 25.065 1.41906 24.8875 1.33036L23.5567 0.57641C23.3792 0.48771 23.2461 0.443359 23.0243 0.443359C22.8469 0.443359 22.7138 0.443359 22.5363 0.443359L6.16666 1.86256C5.85612 1.90691 5.58995 1.90691 5.27941 2.03997C5.14632 2.08432 5.01324 2.17302 4.88015 2.30607C4.79142 2.39477 4.65834 2.52782 4.56961 2.61652C4.39216 2.83827 4.25908 3.06002 4.12599 3.37047C4.08163 3.68092 4.03726 3.94702 3.94854 4.21312L2.92821 7.98289C2.48458 8.07159 2.3515 8.11594 2.30714 8.16029C2.30714 8.16029 2.26277 8.20464 2.26277 8.24899C2.26277 8.29334 2.26277 8.29334 2.26277 8.33769V10.5995L0.710093 16.3651C0.621368 16.6755 0.488281 17.119 0.488281 17.4738C0.488281 17.6956 0.488281 17.873 0.532644 18.0504C0.577006 18.1391 0.621368 18.2278 0.66573 18.3165C0.710093 18.4052 0.798817 18.4495 0.887542 18.4939L2.21841 19.2035L2.17405 107.904C2.17405 107.993 2.26277 108.081 2.3515 108.081C2.39586 108.081 2.39586 108.081 2.44022 108.081L2.48458 109.146C2.48458 109.19 2.48458 109.234 2.52895 109.279C2.52895 109.279 2.57331 109.323 2.61767 109.323C2.66203 109.323 2.66203 109.367 2.7064 109.367C2.75076 109.367 2.75076 109.367 2.79512 109.412C2.88385 109.412 2.92821 109.456 3.01693 109.456C3.15002 109.5 3.28311 109.5 3.41619 109.5C3.59364 109.5 3.77109 109.545 3.94854 109.545V109.855V109.9C3.94854 109.944 3.94854 109.944 3.9929 109.988C4.03727 110.033 4.03727 110.033 4.03727 110.033C4.08163 110.033 4.12599 110.077 4.17035 110.077C4.21471 110.077 4.30344 110.121 4.3478 110.121C4.43653 110.121 4.52525 110.121 4.56961 110.166C4.74706 110.166 4.96887 110.21 5.23505 110.21C5.63431 110.21 6.07793 110.254 6.56592 110.254C6.65464 110.254 6.74336 110.254 6.83209 110.254C6.92081 110.254 6.96518 110.254 7.0539 110.254C7.14263 110.254 7.27571 110.254 7.4088 110.254C7.49752 110.254 7.54189 110.254 7.63061 110.254C7.7637 110.254 7.94115 110.254 8.07423 110.254C8.1186 110.254 8.16296 110.254 8.25168 110.254C8.38477 110.254 8.56222 110.254 8.69531 110.254C8.73967 110.254 8.78403 110.254 8.82839 110.254C8.96148 110.254 9.09457 110.254 9.22765 110.21H9.27202C9.4051 110.21 9.62691 110.166 9.84873 110.166C9.93745 110.166 10.0262 110.121 10.1149 110.121C10.1149 110.121 10.1149 110.121 10.1593 110.121L57.7156 113.802C58.0262 113.847 58.2924 113.847 58.6029 113.847V114.202C58.6029 114.246 58.6029 114.29 58.6473 114.29C58.6473 114.29 58.6916 114.335 58.736 114.335C58.7803 114.379 58.8247 114.379 58.8691 114.379C58.9578 114.379 59.0021 114.423 59.0909 114.423C59.1796 114.423 59.2683 114.468 59.357 114.468C59.5789 114.512 59.8007 114.512 60.1112 114.512C60.5548 114.556 61.0872 114.556 61.6195 114.556C61.7526 114.556 61.9301 114.556 62.0631 114.556C62.9948 114.556 63.9264 114.512 64.5918 114.468C64.7692 114.468 64.9467 114.423 65.1241 114.423C65.2129 114.423 65.3016 114.379 65.3903 114.379C65.4347 114.379 65.479 114.335 65.5234 114.335L65.5678 114.29C65.6121 114.246 65.6121 114.202 65.6121 114.157V113.802C65.7452 113.802 65.9227 113.802 66.0557 113.758C66.2332 113.758 66.455 113.714 66.6325 113.714L111.705 109.767C111.749 109.767 111.793 109.767 111.793 109.767C111.882 109.767 111.971 109.767 112.015 109.811C112.237 109.811 112.414 109.855 112.725 109.855C113.124 109.9 113.612 109.9 114.1 109.9C114.189 109.9 114.411 109.9 114.632 109.9C115.254 109.9 116.141 109.9 116.895 109.811C117.028 109.811 117.161 109.767 117.294 109.767C117.383 109.767 117.427 109.722 117.516 109.722C117.56 109.722 117.605 109.678 117.649 109.678C117.693 109.633 117.738 109.589 117.738 109.545V109.234C117.96 109.234 118.181 109.19 118.359 109.146C118.492 109.146 118.625 109.101 118.714 109.101C118.758 109.101 118.847 109.057 118.891 109.057C118.936 109.057 118.936 109.057 118.98 109.013C119.024 109.013 119.024 109.013 119.069 108.968C119.069 108.968 119.113 108.924 119.157 108.924L119.202 108.88V108.835L119.246 107.771C119.291 107.771 119.291 107.771 119.335 107.771C119.424 107.771 119.512 107.682 119.512 107.593L119.468 8.73684C119.557 8.64814 119.557 8.60379 119.512 8.60379ZM56.6066 57.0785C56.651 57.0785 56.6953 57.0785 56.6953 57.0342C56.6953 57.0342 56.6953 57.0342 56.7397 57.0342C56.8728 57.1229 57.0058 57.2559 57.0946 57.4333C57.272 57.7438 57.3607 58.0986 57.3607 58.4977C57.3607 58.8969 57.272 59.2517 57.0946 59.5621C57.0058 59.7395 56.8728 59.8726 56.7397 59.9613C56.7397 59.9613 56.7397 59.9613 56.6953 59.9613C56.651 59.9169 56.6066 59.9169 56.6066 59.9169C56.5179 59.9169 56.4291 60.0056 56.4291 60.0943C56.3848 60.0943 56.3404 60.1387 56.2517 60.1387C56.2961 60.1387 56.2961 60.0943 56.3404 60.0943C56.5179 60.0056 56.651 59.8282 56.7397 59.6508C56.9171 59.3404 57.0502 58.9412 57.0502 58.4977C57.0502 58.0986 56.9615 57.6551 56.7397 57.3446C56.6066 57.1672 56.4735 56.9898 56.3404 56.9011C56.3404 56.9011 56.2961 56.9011 56.2517 56.8568C56.2961 56.8568 56.3404 56.8568 56.3848 56.8568C56.4291 56.9898 56.5179 57.0785 56.6066 57.0785ZM56.2517 56.7237H55.5863H50.4402C50.2628 56.7237 50.041 56.7681 49.8635 56.9011C49.7304 56.9898 49.553 57.1672 49.4643 57.3446C49.2868 57.6551 49.1537 58.0542 49.1537 58.4534C49.1537 58.8525 49.2424 59.2517 49.4643 59.5621C49.553 59.7395 49.7304 59.9169 49.8635 60.0056C50.041 60.1387 50.2184 60.183 50.4402 60.183H55.6306H56.2517C56.2961 60.183 56.3848 60.183 56.4291 60.1387V104.932H56.3848C56.3404 104.932 56.2961 104.977 56.2961 105.021C56.2961 105.065 56.3404 105.11 56.3848 105.11C56.3848 105.11 56.3848 105.11 56.4291 105.11H56.4735V105.243L5.0576 101.828L5.10196 22.1306L56.4735 19.3365V56.6794C56.3404 56.7681 56.2961 56.7237 56.2517 56.7237ZM56.2961 57.0342C56.4291 57.1229 56.5622 57.2559 56.6509 57.4333C56.8284 57.7438 56.9171 58.0986 56.9171 58.4977C56.9171 58.8969 56.8284 59.2517 56.6509 59.5621C56.5622 59.7395 56.4291 59.8726 56.2961 59.9613C56.1186 60.05 55.9855 60.1387 55.8081 60.1387H55.675H50.529C50.3515 60.1387 50.1741 60.0943 50.041 59.9613C49.9079 59.8726 49.7748 59.7395 49.6861 59.5621C49.5086 59.2517 49.4199 58.8969 49.4199 58.4977C49.4199 58.0986 49.5086 57.7438 49.6861 57.4333C49.7748 57.2559 49.9079 57.1229 50.041 57.0342C50.1741 56.9455 50.3515 56.8568 50.529 56.8568H55.7193H55.8524C55.9412 56.9011 56.1186 56.9455 56.2961 57.0342ZM56.4291 105.686V112.073C56.4291 112.117 56.4291 112.117 56.4291 112.161L4.96887 108.259C4.96887 108.214 5.01324 108.214 5.01324 108.17V102.316L56.4291 105.686ZM31.9855 4.96708V4.47922L32.0299 4.43487H32.0742C32.1186 4.43487 32.163 4.39052 32.2073 4.39052C32.296 4.39052 32.3404 4.34617 32.4291 4.34617C32.5179 4.34617 32.6066 4.34617 32.6953 4.30182C32.9171 4.30182 33.1389 4.25747 33.4051 4.25747C33.8487 4.25747 34.2924 4.21312 34.8247 4.21312C35.3127 4.21312 36.5992 4.21312 37.6639 4.30182C37.8857 4.30182 38.0188 4.34617 38.1962 4.34617C38.5955 4.39052 38.6399 4.43487 38.6399 4.43487L38.6842 4.47922V5.18883L37.797 5.27753V4.92273C37.797 4.92273 37.797 4.92273 37.7526 4.92273C36.9985 4.87838 35.8894 4.83402 34.8247 4.83402C34.2924 4.83402 33.8044 4.83402 33.3607 4.87838C33.0946 4.87838 32.8284 4.92273 32.6509 4.92273C32.5622 4.92273 32.4291 4.92273 32.3404 4.96708C32.2517 4.96708 32.2073 5.01143 32.1186 5.01143C32.0742 4.96708 32.0299 4.96708 31.9855 4.96708ZM32.4291 5.14448C32.3404 5.14448 32.2517 5.10013 32.163 5.10013C32.1186 5.10013 32.0742 5.10013 32.0299 5.05578H32.0742C32.163 5.05578 32.2073 5.01143 32.2961 5.01143C32.3848 5.01143 32.5179 4.96708 32.6066 4.96708C32.8284 4.96708 33.0502 4.92273 33.3164 4.92273C33.76 4.87838 34.248 4.87838 34.7803 4.87838C35.4014 4.87838 35.9781 4.87838 36.5548 4.92273L32.9615 5.18883C32.784 5.18883 32.6066 5.18883 32.4291 5.14448ZM37.6639 5.01143V5.27753L33.0946 5.63233V5.36623L37.6639 5.01143ZM56.4291 4.21312V19.0261L5.0576 21.8201V19.1591L19.4753 18.3165C19.6084 18.3165 19.7859 18.3165 19.919 18.2721C20.0964 18.2278 20.2295 18.1834 20.3626 18.1391C20.4957 18.0947 20.6288 18.006 20.7619 17.873C20.8949 17.7843 20.9837 17.6512 21.0724 17.5182C21.2498 17.2964 21.3829 17.0303 21.516 16.7199C21.6491 16.4094 21.6935 16.099 21.7822 15.8329L22.4476 13.2606L24.6657 13.1275C24.9319 13.1275 25.1981 12.9945 25.4643 12.8171C25.6861 12.6397 25.8635 12.4623 25.9966 12.1962C26.2628 11.7527 26.3959 11.1761 26.3515 10.5995C26.3071 10.023 26.1297 9.44644 25.8635 9.04729C25.6861 8.78119 25.5086 8.60379 25.2868 8.42639C25.0206 8.24899 24.7545 8.16029 24.4883 8.11594C24.3996 8.11594 24.3552 8.11594 24.2665 8.11594L23.7341 8.16029L24.1334 6.60803L56.4291 4.21312ZM24.577 8.47074C24.9763 8.51509 25.2868 8.73684 25.4643 8.91424C25.6861 9.13599 25.8635 9.44644 25.9966 9.80124C26.1297 10.1117 26.1741 10.4665 26.1741 10.8213C26.1741 11.3091 26.041 11.7526 25.8635 12.1075C25.7304 12.3292 25.5973 12.5066 25.4199 12.5953C25.2424 12.7284 25.0206 12.8171 24.8432 12.8614C24.6214 12.9058 24.3996 12.8614 24.2221 12.7727C24.0447 12.684 23.8672 12.551 23.6898 12.3736C23.4236 12.0631 23.2018 11.6639 23.1131 11.1761L23.7341 8.78119C23.9559 8.55944 24.2665 8.47074 24.577 8.47074ZM23.7341 8.55944L23.7785 8.33769L24.3552 8.29334C24.3996 8.29334 24.4883 8.29334 24.5326 8.29334C24.6214 8.29334 24.7545 8.33769 24.8432 8.38204C24.7545 8.33769 24.6657 8.33769 24.577 8.33769C24.2665 8.29334 24.0003 8.38204 23.7341 8.55944ZM25.3755 12.7727C25.3312 12.8171 25.2424 12.8614 25.1981 12.9058C25.2868 12.8614 25.3312 12.8171 25.3755 12.7727ZM23.5123 12.4623C23.6898 12.6397 23.8672 12.7727 24.089 12.9058C24.2665 12.9945 24.4439 13.0388 24.6214 13.0388C24.6657 13.0388 24.7545 13.0388 24.7988 13.0388C24.9319 13.0388 25.0206 12.9945 25.1094 12.9501C24.9763 12.9945 24.7988 13.0388 24.6657 13.0832L22.492 13.2162L22.9356 11.5309C23.0687 11.8857 23.2905 12.2405 23.5123 12.4623ZM2.61767 8.42639C2.66203 8.42639 2.75076 8.38204 2.83948 8.38204L2.61767 9.22469V8.42639ZM0.754455 17.8286C0.710093 17.6956 0.710093 17.5625 0.710093 17.3408C0.710093 17.0303 0.798817 16.6755 0.887542 16.4094L4.17035 4.25747C4.25908 3.99137 4.30344 3.72527 4.43653 3.45917C4.48089 3.32612 4.52525 3.19307 4.61397 3.10437C4.65834 2.97132 4.74706 2.88262 4.83579 2.79392C4.88015 2.66087 4.96887 2.57217 5.0576 2.48347C5.14632 2.39477 5.27941 2.35042 5.36813 2.26172C5.58995 2.17302 5.85612 2.12867 6.12229 2.08432L22.492 0.70946C22.6251 0.70946 22.7582 0.66511 22.9356 0.70946C23.1131 0.70946 23.2461 0.75381 23.3349 0.798161C23.3792 0.842511 23.468 0.886861 23.5123 0.975561C23.5567 1.01991 23.601 1.10861 23.601 1.19731C23.6454 1.33036 23.6454 1.46341 23.6454 1.68516C23.601 1.99561 23.5123 2.35042 23.4236 2.66087L20.1408 15.1233C20.0521 15.3894 20.0077 15.6555 19.919 15.9216C19.8302 16.232 19.6972 16.4538 19.5197 16.6312C19.431 16.7199 19.3423 16.8529 19.2535 16.9416C19.1648 17.0303 19.0317 17.119 18.8986 17.1634C18.6768 17.2521 18.4107 17.2964 18.1888 17.2964H18.1445L1.77479 18.2278H1.73043C1.59734 18.2278 1.46425 18.2278 1.33116 18.2278C1.19808 18.2278 1.06499 18.1834 0.976267 18.1391C0.887542 18.0947 0.84318 18.0504 0.798817 18.006C0.798817 17.9617 0.754455 17.9173 0.754455 17.8286ZM2.39586 18.9817C2.3515 18.9817 2.30714 18.9817 2.26277 19.0261L0.931904 18.3608C0.887542 18.3165 0.84318 18.2721 0.754455 18.1834C0.798817 18.2278 0.84318 18.2721 0.931904 18.3165C1.02063 18.3608 1.15372 18.4052 1.33116 18.4052C1.37553 18.4052 1.41989 18.4052 1.41989 18.4052C1.50861 18.4052 1.59734 18.4052 1.73043 18.4052L18.1001 17.4295C18.1001 17.4295 18.1001 17.4295 18.1445 17.4295H18.1888H18.2776C18.4994 17.4295 18.7212 17.3851 18.943 17.2964C19.0761 17.2521 19.2092 17.1634 19.2979 17.0747C19.3866 16.986 19.5197 16.8973 19.6084 16.7642C19.7859 16.5425 19.919 16.3207 20.0077 16.0103C20.0964 15.7442 20.1851 15.4781 20.2295 15.212L23.5567 2.66087C23.6454 2.35042 23.7341 1.99561 23.7785 1.68516C23.7785 1.46341 23.7785 1.28601 23.7341 1.15296C23.6898 1.06426 23.6454 0.975561 23.601 0.886861C23.5567 0.798161 23.468 0.75381 23.3792 0.70946C23.2905 0.66511 23.1131 0.62076 22.98 0.62076C22.98 0.62076 22.98 0.62076 23.0243 0.62076C23.2018 0.62076 23.3349 0.66511 23.4236 0.70946L24.7545 1.46341C24.9319 1.55211 25.0206 1.72951 25.065 1.86256C25.1094 1.99561 25.1094 2.17302 25.1094 2.39477C25.1094 2.74957 24.9763 3.10437 24.8875 3.45917L24.1334 6.38628L24.0447 6.69673L21.6047 15.9216C21.516 16.1877 21.4716 16.4981 21.3386 16.7642C21.2055 17.0747 21.0724 17.2964 20.9393 17.5182C20.8506 17.6512 20.7619 17.7399 20.6288 17.8286C20.4957 17.9173 20.407 18.006 20.2739 18.0504C20.1408 18.0947 20.0077 18.1391 19.8746 18.1834C19.7415 18.2278 19.5641 18.2278 19.431 18.2278L4.96887 19.0704C4.92451 19.0261 4.88015 18.9817 4.79142 18.9817C4.7027 18.9817 4.65834 19.0261 4.61397 19.1148H3.10566C2.97257 19.1148 2.79512 19.1148 2.61767 19.1148C2.57331 19.0261 2.48458 18.9817 2.39586 18.9817ZM2.79512 107.992C2.79512 107.904 2.7064 107.815 2.61767 107.815C2.57331 107.815 2.57331 107.815 2.52895 107.859L2.61767 19.2922C2.7064 19.2922 2.75076 19.2922 2.83948 19.2922C2.92821 19.2922 3.01693 19.2922 3.10566 19.2922L4.65834 19.2035L4.61397 108.17L4.03727 108.126C3.77109 108.126 3.50492 108.081 3.19438 108.037C3.06129 108.037 2.92821 107.992 2.79512 107.992C2.83948 107.992 2.83948 107.992 2.79512 107.992ZM9.31638 109.988H9.27202C9.13893 109.988 8.96148 109.988 8.78403 110.033C8.73967 110.033 8.73967 110.033 8.69531 110.033C8.51786 110.033 8.29605 110.033 8.1186 110.077C8.07423 110.077 8.02987 110.077 7.98551 110.077C7.80806 110.077 7.58625 110.077 7.4088 110.077C7.36444 110.077 7.36444 110.077 7.32008 110.077C7.09826 110.077 6.87645 110.077 6.61028 110.077C6.12229 110.077 5.67867 110.077 5.27941 110.033C5.01324 110.033 4.79142 109.988 4.61397 109.988C4.52525 109.988 4.43653 109.988 4.39216 109.944C4.3478 109.944 4.25908 109.944 4.21471 109.9C4.17035 109.9 4.12599 109.9 4.12599 109.855C4.12599 109.855 4.12599 109.855 4.08163 109.811V109.5C4.12599 109.5 4.17035 109.5 4.25908 109.5L9.49383 109.9C9.4051 109.988 9.36074 109.988 9.31638 109.988ZM65.5234 114.113C65.5234 114.113 65.479 114.157 65.5234 114.113C65.4347 114.157 65.4347 114.202 65.3903 114.202C65.346 114.202 65.2129 114.246 65.1241 114.246C64.9467 114.29 64.7692 114.29 64.5918 114.29C63.8376 114.379 62.7286 114.379 61.6195 114.379C61.0872 114.379 60.5548 114.335 60.1112 114.335C59.8007 114.335 59.5789 114.29 59.357 114.29C59.2683 114.29 59.1796 114.29 59.0909 114.246C59.0465 114.246 58.9578 114.202 58.9134 114.202C58.8691 114.202 58.8247 114.157 58.7803 114.157C58.7803 114.157 58.7803 114.157 58.736 114.157V113.802C58.7803 113.802 58.7803 113.802 58.8247 113.802C59.1796 113.802 59.5789 113.847 59.9338 113.847C60.2887 113.847 60.6879 113.847 61.0428 113.891C61.3534 113.891 61.6639 113.891 61.9744 113.891C62.0188 113.891 62.1075 113.891 62.1519 113.891C62.8617 113.891 63.6158 113.891 64.37 113.847C64.7249 113.847 65.0798 113.802 65.4347 113.802V114.113H65.5234ZM117.605 109.545C117.56 109.545 117.56 109.589 117.516 109.589C117.472 109.589 117.383 109.633 117.339 109.633C117.205 109.678 117.028 109.678 116.939 109.678C115.963 109.767 114.588 109.767 114.189 109.767C113.701 109.767 113.213 109.767 112.814 109.722C112.725 109.722 112.636 109.722 112.547 109.722L117.605 109.279V109.545C117.605 109.5 117.605 109.5 117.605 109.545ZM118.891 108.658C118.891 108.658 118.847 108.658 118.891 108.658C118.803 108.702 118.758 108.702 118.714 108.702C118.581 108.746 118.492 108.746 118.359 108.746C118.137 108.791 117.871 108.791 117.649 108.835L66.6768 113.315C66.4994 113.315 66.2776 113.359 66.1001 113.359C65.9227 113.359 65.7452 113.403 65.5678 113.403C65.2129 113.403 64.8136 113.448 64.4587 113.448C63.7046 113.492 62.9504 113.492 62.2406 113.492C61.8857 113.492 61.4864 113.492 61.1315 113.492C60.7766 113.492 60.3774 113.492 60.0225 113.448C59.6676 113.448 59.2683 113.403 58.9134 113.403C58.5585 113.403 58.1593 113.359 57.8044 113.315L4.30344 109.19C4.03726 109.19 3.77109 109.146 3.50492 109.101C3.37183 109.101 3.23874 109.057 3.10566 109.057C3.06129 109.057 2.97257 109.013 2.92821 109.013H2.88385L2.83948 108.126C2.97257 108.126 3.06129 108.17 3.23874 108.17C3.50492 108.214 3.81545 108.214 4.08163 108.259L4.79142 108.303C4.79142 108.303 4.79142 108.303 4.83579 108.303C4.83579 108.347 4.88015 108.347 4.88015 108.347L56.4735 112.25C56.5179 112.25 56.5179 112.206 56.5622 112.206H56.6066H56.6509H56.6953L57.5826 112.25C57.9818 112.294 58.3367 112.294 58.736 112.339C59.1352 112.339 59.5345 112.383 59.8894 112.383C60.2887 112.383 60.6879 112.383 61.0428 112.428C61.2203 112.428 61.4421 112.428 61.6195 112.428C61.7526 112.428 61.8857 112.428 62.0188 112.428C62.0631 112.428 62.1519 112.428 62.1962 112.428C62.9504 112.428 63.7489 112.428 64.5474 112.383C65.4347 112.339 66.1445 112.294 66.8986 112.25L117.871 107.859C118.093 107.859 118.359 107.815 118.625 107.771C118.758 107.771 118.847 107.726 118.936 107.726L118.891 108.658ZM119.113 107.46C119.024 107.46 118.936 107.549 118.936 107.638C118.847 107.638 118.714 107.682 118.581 107.682C118.315 107.726 118.048 107.726 117.827 107.771L66.8543 112.161C66.1445 112.206 65.4347 112.25 64.5474 112.294C63.7489 112.339 62.9948 112.339 62.1962 112.339C62.0188 112.339 61.797 112.339 61.6195 112.339C61.4421 112.339 61.2203 112.339 61.0428 112.339C60.9097 112.339 60.7766 112.339 60.6436 112.339C60.5992 112.294 60.5548 112.294 60.5548 112.339C60.333 112.339 60.1112 112.339 59.8894 112.339C59.4901 112.339 59.0909 112.294 58.736 112.294C58.3367 112.294 57.9375 112.25 57.5826 112.206L56.784 112.161V112.117V60.183H56.8284C57.0059 60.0943 57.1389 59.9169 57.2277 59.7395C57.4051 59.4291 57.5382 59.0299 57.5382 58.5864C57.5382 58.1873 57.4495 57.7438 57.2277 57.4333C57.0946 57.2559 56.9615 57.0785 56.8284 56.9898H56.784V19.3365V4.34617L57.5826 4.30182C57.9818 4.25747 58.3367 4.25747 58.736 4.21312C58.9134 4.21312 59.0909 4.21312 59.2683 4.16877C59.4901 4.16877 59.6676 4.16877 59.8894 4.16877C60.2887 4.16877 60.6436 4.16877 61.0428 4.12442C61.2203 4.12442 61.4421 4.12442 61.6195 4.12442C61.797 4.12442 62.0188 4.12442 62.1962 4.12442C62.9504 4.12442 63.7489 4.12442 64.5031 4.16877C64.7249 4.16877 64.9023 4.16877 65.1241 4.21312C65.3016 4.21312 65.479 4.21312 65.6565 4.25747C66.0558 4.30182 66.4107 4.30182 66.8099 4.34617L117.738 8.69249C118.004 8.69249 118.226 8.73684 118.492 8.78119C118.891 8.82554 119.069 8.86989 119.113 8.91424L119.157 107.638C119.202 107.46 119.157 107.46 119.113 107.46Z" fill="#545454"/>
<path d="M12.0667 100.054C11.9779 100.009 11.8892 99.9648 11.8005 99.9648C11.623 99.9648 11.4899 100.098 11.4012 100.275C11.3125 100.453 11.3125 100.63 11.3125 100.719C11.3125 100.896 11.3569 101.074 11.4456 101.251C11.4899 101.34 11.5787 101.428 11.623 101.473C11.7118 101.517 11.8005 101.561 11.8892 101.561C12.0667 101.561 12.1997 101.428 12.2885 101.251C12.3772 101.074 12.3772 100.896 12.3772 100.808C12.3772 100.63 12.3328 100.453 12.2441 100.275C12.1997 100.187 12.1554 100.098 12.0667 100.054ZM12.1554 101.162C12.111 101.207 12.0223 101.384 11.8892 101.384C11.8005 101.384 11.7561 101.34 11.7118 101.34C11.6674 101.295 11.623 101.251 11.5787 101.162C11.4899 101.029 11.4899 100.896 11.4899 100.719C11.4899 100.586 11.5343 100.453 11.5787 100.32C11.623 100.275 11.7118 100.098 11.8448 100.098C11.9336 100.098 11.9779 100.142 12.0223 100.142C12.0667 100.187 12.111 100.231 12.1554 100.32C12.2441 100.453 12.2441 100.586 12.2441 100.763C12.2441 100.941 12.1997 101.074 12.1554 101.162Z" fill="#545454"/>
<path d="M8.4736 100.01C8.42924 99.921 8.38488 99.8323 8.29615 99.7879C8.20743 99.7436 8.1187 99.6992 8.02998 99.6992C7.85253 99.6992 7.71944 99.8323 7.63072 100.01C7.54199 100.143 7.54199 100.32 7.54199 100.453C7.54199 100.631 7.58635 100.808 7.67508 100.941C7.71944 101.03 7.7638 101.118 7.85253 101.163C7.94125 101.207 8.02998 101.251 8.1187 101.251C8.29615 101.251 8.42924 101.118 8.51796 100.941C8.60669 100.764 8.60669 100.586 8.60669 100.498C8.60669 100.364 8.56233 100.187 8.4736 100.01ZM8.42924 100.542C8.42924 100.675 8.38488 100.808 8.34051 100.941C8.29615 100.985 8.20743 101.163 8.07434 101.163C7.98562 101.163 7.94125 101.118 7.89689 101.118C7.85253 101.074 7.80817 101.03 7.7638 100.941C7.67508 100.808 7.67508 100.675 7.67508 100.498C7.67508 100.364 7.71944 100.231 7.7638 100.098C7.80817 100.054 7.89689 99.8766 8.02998 99.8766C8.1187 99.8766 8.16306 99.921 8.20743 99.921C8.25179 99.9653 8.29615 100.01 8.34051 100.098C8.42924 100.231 8.42924 100.364 8.42924 100.542Z" fill="#545454"/>
<path d="M47.6897 7.45084C47.7341 7.45084 47.7785 7.45084 47.8672 7.45084V7.93869H48.0446C48.0446 7.76129 48.0446 7.58389 48.0446 7.45084C48.089 7.45084 48.1334 7.45084 48.2221 7.45084C48.2221 7.62824 48.2221 7.80564 48.2221 7.93869C48.2664 7.93869 48.3108 7.93869 48.3995 7.93869C48.3995 7.80564 48.3995 7.71694 48.3995 7.58389V7.49519V7.45084V7.40649C48.3995 7.36214 48.3995 7.36214 48.3552 7.31779C48.3552 7.31779 48.3108 7.27344 48.2664 7.27344C48.0446 7.27344 47.8228 7.31779 47.5566 7.31779V7.98304C47.601 7.98304 47.6454 7.98304 47.7341 7.98304C47.6897 7.80564 47.6897 7.62824 47.6897 7.45084Z" fill="#545454"/>
<path d="M45.7821 9.04773C45.8264 9.04773 45.8264 9.04773 45.7821 9.04773C45.8264 9.04773 45.8708 9.04773 45.8708 9.04773C45.9152 9.04773 46.0039 9.04773 46.0483 9.04773C46.1813 9.04773 46.2701 9.04773 46.4032 9.00338V8.87033C46.3144 8.87033 46.2257 8.87033 46.0926 8.87033C46.0483 8.87033 46.0039 8.87033 45.9595 8.87033H45.8708C45.8708 8.87033 45.8708 8.87033 45.8708 8.82598V8.20508H45.6934V8.55988C45.6934 8.60423 45.6934 8.69293 45.6934 8.73728V8.87033V8.91468C45.6934 8.95903 45.6934 8.95903 45.6934 9.00338C45.7377 9.00338 45.7821 9.04773 45.7821 9.04773Z" fill="#545454"/>
<path d="M12.2441 22.3083C12.111 22.2196 11.978 22.1752 11.8449 22.1309H11.6231H11.5787C11.4012 22.1309 11.2682 22.2196 11.1351 22.3526C11.0463 22.4413 10.9576 22.6187 10.8689 22.7518C10.7358 23.0622 10.7358 23.417 10.8245 23.7718V23.8162C10.8689 23.9936 10.9576 24.171 11.0907 24.304C11.2238 24.4371 11.4012 24.5258 11.5787 24.5258C11.5787 24.5258 11.5787 24.5258 11.6231 24.5258H11.7118C11.7118 24.5258 11.7561 24.5258 11.8005 24.5258C11.8005 24.5258 11.8005 24.5258 11.8449 24.5258C11.978 24.5258 12.111 24.4814 12.2441 24.3927C12.3328 24.304 12.4216 24.2153 12.5103 24.0823C12.6434 23.8605 12.6877 23.5944 12.6877 23.3283C12.6877 23.0622 12.6434 22.7961 12.5547 22.5744C12.3772 22.4857 12.3328 22.397 12.2441 22.3083ZM11.8892 24.2597C11.8005 24.3484 11.7118 24.3927 11.5787 24.3927C11.4012 24.3927 11.2682 24.304 11.1794 24.2153C11.0463 24.0823 11.002 23.9049 10.9576 23.8162V23.7718C10.8689 23.4614 10.8689 23.1509 11.002 22.8405V22.7961C11.0463 22.6631 11.1351 22.53 11.2238 22.4413C11.3125 22.3526 11.4456 22.2639 11.5787 22.2639H11.6231C11.7118 22.2639 11.8449 22.3083 11.9336 22.397C12.0223 22.4413 12.0667 22.5744 12.1554 22.6631C12.2441 22.8405 12.2885 23.1066 12.2885 23.3283C12.2885 23.5944 12.1998 23.8162 12.111 23.9936C12.0223 24.1266 11.978 24.2153 11.8892 24.2597ZM12.2885 24.0379C12.2441 24.1266 12.1554 24.2153 12.0667 24.304C12.111 24.2597 12.1554 24.171 12.1998 24.0823C12.3328 23.8605 12.3772 23.5944 12.3772 23.3283C12.3772 23.0622 12.3328 22.7961 12.1998 22.5744C12.1554 22.53 12.1554 22.4857 12.111 22.4413C12.1554 22.4857 12.2441 22.5744 12.2885 22.6631C12.3772 22.8405 12.4216 23.1066 12.4216 23.3283C12.4659 23.5944 12.4216 23.8605 12.2885 24.0379Z" fill="#545454"/>
<path d="M8.42925 22.4846C8.29617 22.3959 8.20744 22.3516 8.07436 22.3516H7.85254H7.80818C7.63073 22.3516 7.49765 22.4403 7.36456 22.5733C7.27583 22.662 7.18711 22.7951 7.09839 22.9725C6.9653 23.2829 6.9653 23.6821 7.05402 24.0369C7.09839 24.2143 7.18711 24.3917 7.3202 24.4804C7.45328 24.6134 7.63073 24.7021 7.80818 24.7021C7.80818 24.7021 7.80818 24.7021 7.85254 24.7021H7.94127C7.98563 24.7021 7.98563 24.7021 8.02999 24.7021C8.02999 24.7021 8.02999 24.7021 8.07436 24.7021C8.20744 24.7021 8.34053 24.6578 8.42925 24.5691C8.51798 24.4804 8.6067 24.3917 8.69543 24.2586C8.82852 24.0369 8.87288 23.7708 8.87288 23.5047C8.87288 23.2386 8.82852 22.9725 8.73979 22.7507C8.6067 22.662 8.51798 22.5733 8.42925 22.4846ZM8.11872 24.4804C8.02999 24.5691 7.94127 24.6134 7.80818 24.6134C7.63073 24.6134 7.49765 24.5247 7.40892 24.436C7.3202 24.3473 7.23147 24.2143 7.18711 24.0369V23.9925C7.09839 23.6821 7.09839 23.3273 7.23147 23.0612C7.27583 22.9281 7.36456 22.7951 7.45328 22.7064C7.54201 22.6177 7.63073 22.529 7.80818 22.529C7.80818 22.529 7.80818 22.529 7.85254 22.529C7.85254 22.529 7.85254 22.529 7.89691 22.529C7.98563 22.529 8.07436 22.5733 8.16308 22.662C8.2518 22.7507 8.29617 22.8394 8.38489 22.9281C8.47362 23.1055 8.51798 23.3716 8.51798 23.5934C8.51798 23.8151 8.42925 24.0812 8.34053 24.2586C8.2518 24.303 8.16308 24.3917 8.11872 24.4804ZM8.51798 24.2143C8.47362 24.303 8.38489 24.3917 8.29617 24.4804C8.34053 24.436 8.38489 24.3473 8.42925 24.2586C8.56234 24.0369 8.6067 23.7708 8.6067 23.5047C8.6067 23.2386 8.56234 22.9725 8.47362 22.7507C8.42925 22.7064 8.42925 22.662 8.38489 22.6177C8.42925 22.662 8.51798 22.7507 8.56234 22.8394C8.65107 23.0168 8.69543 23.2829 8.69543 23.5047C8.69543 23.8151 8.6067 24.0369 8.51798 24.2143Z" fill="#545454"/>
<path d="M21.3378 14.5027C21.3822 14.5027 21.3822 14.5027 21.4266 14.5027C21.5153 14.4584 21.5597 14.414 21.5597 14.3253L22.1807 11.9748C22.2251 11.8417 22.1807 11.753 22.1364 11.6643C22.0476 11.5312 22.0033 11.5312 21.9589 11.5312C21.9146 11.5312 21.8258 11.5756 21.7815 11.62C21.7371 11.6643 21.7371 11.6643 21.7371 11.7087L21.116 14.0592C21.0717 14.1923 21.116 14.3253 21.2048 14.414C21.2048 14.4584 21.2935 14.5027 21.3378 14.5027ZM21.2491 14.1036L21.8702 11.753C21.8702 11.7087 21.8702 11.7087 21.9146 11.7087L21.9589 11.6643C21.9589 11.6643 22.0033 11.6643 22.0033 11.7087C22.0476 11.753 22.0476 11.8417 22.0476 11.8861L21.4266 14.2366C21.4266 14.281 21.3822 14.3253 21.3822 14.3253C21.3378 14.3253 21.3378 14.3253 21.2935 14.3253C21.2491 14.281 21.2048 14.1923 21.2491 14.1036Z" fill="#545454"/>
<path d="M49.2426 7.85023C49.2426 7.85023 49.287 7.85023 49.2426 7.85023C49.287 7.85023 49.287 7.85023 49.287 7.85023H49.3313C49.3757 7.85023 49.3757 7.85023 49.4201 7.85023C49.4644 7.85023 49.5088 7.85023 49.5975 7.85023C49.7306 7.85023 49.8193 7.85023 49.9524 7.80588C49.9524 7.58413 49.9524 7.36238 49.9524 7.14062C49.908 7.14062 49.8637 7.14062 49.775 7.14062C49.775 7.31803 49.775 7.49543 49.775 7.67283C49.6419 7.67283 49.5088 7.67283 49.3757 7.71718V7.18498C49.3313 7.18498 49.287 7.18498 49.1982 7.18498C49.1982 7.31803 49.1982 7.40673 49.1982 7.53978V7.71718V7.76153V7.80588C49.1982 7.80588 49.2426 7.80588 49.2426 7.85023Z" fill="#545454"/>
<path d="M53.6336 8.51619L53.9442 8.47184V6.74219H53.7224L53.2344 7.05264V7.27439L53.6336 7.05264V8.51619Z" fill="#545454"/>
<path d="M47.1566 8.33732C47.1123 8.33732 47.1123 8.29297 47.0679 8.29297C47.0679 8.29297 47.0679 8.29297 47.0236 8.29297H46.9792C46.9348 8.29297 46.8905 8.29297 46.8017 8.29297C46.713 8.29297 46.5799 8.29297 46.4912 8.29297V8.42602C46.6687 8.42602 46.8461 8.38167 47.0236 8.38167V8.47037C46.8905 8.47037 46.7574 8.47037 46.6243 8.51472H46.5799H46.5356C46.4912 8.51472 46.4912 8.55907 46.4912 8.60342C46.4912 8.64777 46.4912 8.64777 46.4912 8.69212V8.73647V8.78082V8.82517C46.4912 8.86952 46.4912 8.91387 46.5356 8.91387H46.5799C46.6243 8.91387 46.713 8.91387 46.7574 8.91387C46.8905 8.91387 47.0236 8.91387 47.1566 8.86952V8.55907V8.38167V8.33732C47.1566 8.33732 47.201 8.38167 47.1566 8.33732ZM47.0679 8.82517L46.6687 8.86952V8.73647L47.0679 8.69212V8.82517Z" fill="#545454"/>
<path d="M51.1945 7.58484C51.2388 7.62919 51.2388 7.67354 51.2832 7.67354C51.2832 7.71789 51.3275 7.71789 51.3275 7.76224C51.1057 8.07269 50.8839 8.38314 50.6621 8.6936C50.7952 8.6936 50.9283 8.6936 51.0614 8.64925C51.2832 8.33879 51.505 8.07269 51.7268 7.76224C51.7268 7.80659 51.7712 7.80659 51.7712 7.85094C51.8155 7.89529 51.8155 7.93964 51.8599 7.93964C51.9043 7.98399 51.9486 8.07269 52.0373 8.16139C52.1261 8.29444 52.2592 8.42749 52.3479 8.56054C52.481 8.56054 52.6141 8.56055 52.7471 8.51619C52.5253 8.25009 52.3035 7.98399 52.0817 7.67354L52.7471 6.74219C52.6141 6.74219 52.481 6.74219 52.3479 6.78654C52.1261 7.09699 51.9043 7.36309 51.7268 7.67354C51.505 7.40744 51.2832 7.14134 51.0614 6.87524C50.9283 6.87524 50.7952 6.87524 50.6621 6.91959C50.7952 7.05264 50.8839 7.18569 51.017 7.31874L51.1945 7.58484Z" fill="#545454"/>
<path d="M46.8026 8.02796H46.847C46.8913 8.02796 46.98 8.02796 47.0244 8.02796C47.1575 8.02796 47.2906 8.02796 47.4237 7.98361V7.67316V7.49576V7.45141C47.4237 7.40706 47.3793 7.40706 47.3793 7.36271C47.3349 7.36271 47.3349 7.31836 47.2906 7.31836C47.2906 7.31836 47.2906 7.31836 47.2462 7.31836H47.2019C47.1575 7.31836 47.1131 7.31836 47.0244 7.31836C46.9357 7.31836 46.8026 7.31836 46.7139 7.36271V7.54011C46.8913 7.54011 47.0688 7.49576 47.2462 7.49576V7.58446C47.1131 7.58446 46.8026 7.62881 46.8026 7.62881H46.7582C46.7139 7.62881 46.7139 7.67316 46.7139 7.71751C46.7139 7.76186 46.7139 7.76186 46.7139 7.80621V7.85056V7.89491V7.93926C46.7139 7.93926 46.7582 7.98361 46.8026 8.02796ZM46.8913 7.76186L47.2906 7.71751V7.85056L46.8913 7.89491V7.76186Z" fill="#545454"/>
<path d="M97.6863 51.2236L93.8711 48.873V59.1179L97.6863 59.0736V51.2236Z" fill="#545454"/>
<path d="M97.7306 42.7983L93.8711 42.7539V47.8985L97.6863 50.2491L97.7306 42.7983Z" fill="#545454"/>
<path d="M93.2935 50.7372V42.7098L89.3896 42.6211V52.999L93.2935 50.7372Z" fill="#545454"/>
<path d="M93.2492 59.1194L93.2935 51.7129L89.3896 53.9747V59.1194H93.2492Z" fill="#545454"/>
<path d="M97.3748 63.1101V60.8926H96.9756V63.5979H98.4395L98.3065 63.1101H97.3748Z" fill="#545454"/>
<path d="M100.17 61.4258H98.7508L98.8839 61.9136H100.17L100.215 61.958V62.2241H99.0614C98.8396 62.2241 98.6621 62.4902 98.6621 62.845V63.0224C98.6621 63.3328 98.8396 63.5989 99.0614 63.5989H100.57V62.0467C100.57 61.6919 100.392 61.4258 100.17 61.4258ZM100.17 63.1111H99.017L98.9726 63.0667V62.7563C98.9726 62.7119 98.9726 62.7119 99.017 62.7119H100.17V63.1111Z" fill="#545454"/>
<path d="M102.255 61.4248H101.323V60.8926H100.924V63.5979H101.323H102.255C102.477 63.5979 102.654 63.3318 102.654 63.0214V62.0457C102.61 61.6909 102.432 61.4248 102.255 61.4248ZM102.21 63.0214C102.21 63.0657 102.21 63.0657 102.166 63.0657H101.279V61.8683H102.166L102.21 61.9126V63.0214Z" fill="#545454"/>
<path d="M91.0758 61.4688H89.0352V63.6863H89.4344V62.0453C89.4344 62.0009 89.4344 62.001 89.4788 62.001H90.0111L90.0555 62.0453V63.6863H90.4547V62.0453C90.4547 62.0009 90.4548 62.001 90.4991 62.001H91.0315C91.0758 62.001 91.0758 62.0453 91.0758 62.0453V63.6863H91.4751V62.0897C91.4751 61.7348 91.2976 61.4688 91.0758 61.4688Z" fill="#545454"/>
<path d="M95.2901 63.1111C95.2901 63.1554 95.2901 63.1554 95.2458 63.1554H94.2698L94.2254 63.1111V61.4701H93.8262V63.0667C93.8262 63.4215 94.0036 63.6876 94.2254 63.6433H95.2014C95.4232 63.6433 95.6007 63.3772 95.6007 63.0224V61.4258H95.2458L95.2901 63.1111Z" fill="#545454"/>
<path d="M88.2363 61.4688H86.7723L86.9054 61.9566H88.2363C88.2806 61.9566 88.2806 62.001 88.2806 62.001V62.267H87.0829C86.861 62.267 86.6836 62.5332 86.6836 62.888V63.0654C86.6836 63.4202 86.861 63.6863 87.0829 63.6863H88.6355V62.0897C88.6355 61.7348 88.4581 61.4688 88.2363 61.4688ZM87.0829 63.1984C87.0385 63.1984 87.0385 63.1541 87.0385 63.1541V62.8436C87.0385 62.7993 87.0385 62.7993 87.0829 62.7993H88.2363V63.2428L87.0829 63.1984Z" fill="#545454"/>
<path d="M93.161 61.4697H92.2293V60.9375H91.8301V63.6872H92.2293H93.161C93.3828 63.6872 93.5602 63.4211 93.5602 63.0663V62.0906C93.5602 61.7358 93.3828 61.4697 93.161 61.4697ZM93.161 63.1107C93.161 63.155 93.161 63.155 93.1166 63.155H92.2293V61.9132H93.1166L93.161 61.9576V63.1107Z" fill="#545454"/>
<path d="M84.2881 60.4946V61.0712L84.7317 60.8494V60.2285L84.2881 60.4946Z" fill="#545454"/>
<path d="M86.1519 62.2669C86.2406 62.1338 86.2849 61.9564 86.2849 61.7347C86.2849 61.3799 86.1075 61.0694 85.93 60.9364C85.8413 60.892 85.7082 60.8477 85.6195 60.8477H85.5751C85.4864 60.8477 85.0872 60.8477 84.7323 60.8477V61.3355L84.333 61.5573V63.6861H85.8413C86.1519 63.6861 86.3737 63.3313 86.3737 62.8878C86.3737 62.6217 86.2849 62.3999 86.1519 62.2669ZM84.7323 61.3355H85.2203H85.6195C85.6639 61.3355 85.6639 61.3355 85.7082 61.3799C85.797 61.4242 85.8413 61.5573 85.8413 61.6903C85.8413 61.6903 85.8413 61.7347 85.8413 61.779C85.8413 61.8677 85.797 61.9564 85.7082 62.0008C85.6639 62.0008 85.6639 62.0451 85.6195 62.0451H85.1759H84.7323V61.3355ZM85.6639 63.2426H85.309H84.7323V62.4886H85.3533H85.4864H85.7082C85.7526 62.4886 85.797 62.533 85.8413 62.5773C85.8857 62.6217 85.93 62.7547 85.93 62.8878C85.93 63.0652 85.797 63.2426 85.6639 63.2426Z" fill="#545454"/>
<path d="M54.2991 58.8078V58.1426H54.166V58.9852H54.654L54.6096 58.8078H54.2991Z" fill="#545454"/>
<path d="M55.1862 58.3203H54.7426L54.787 58.4534H55.1862V58.5421H54.8313C54.7426 58.5421 54.6982 58.6308 54.6982 58.7195V58.7638C54.6982 58.8525 54.7426 58.9412 54.8313 58.9412H55.3193V58.4534C55.3193 58.3647 55.275 58.3203 55.1862 58.3203ZM55.1862 58.8082H54.8313V58.7195H55.1862V58.8082Z" fill="#545454"/>
<path d="M55.5413 58.1426H55.4082V58.9852H55.5413H55.8075C55.8962 58.9852 55.9406 58.8965 55.9406 58.8078V58.4974C55.9406 58.4087 55.8962 58.32 55.8075 58.32H55.5413V58.1426ZM55.8075 58.453C55.8518 58.453 55.8518 58.453 55.8075 58.453V58.8078H55.5413V58.453H55.8075Z" fill="#545454"/>
<path d="M52.3031 58.2754H51.6377V58.9406H51.7708V58.4084H51.9482V58.9406H52.0813V58.4084H52.2588V58.8963H52.3919V58.4084C52.4362 58.3641 52.3919 58.2754 52.3031 58.2754Z" fill="#545454"/>
<path d="M53.6341 58.8082H53.3235V58.3203H53.1904V58.8082C53.1904 58.8969 53.2348 58.9856 53.3235 58.9856H53.6341C53.7228 58.9856 53.7671 58.8969 53.7671 58.8082V58.3203H53.6341V58.8082Z" fill="#545454"/>
<path d="M51.4161 58.2754H50.9282L50.9725 58.4084H51.4161V58.4971H51.0169C50.9282 58.4971 50.8838 58.5858 50.8838 58.6745V58.7189C50.8838 58.8076 50.9282 58.8963 51.0169 58.8963H51.5049V58.4084C51.5492 58.3641 51.4605 58.2754 51.4161 58.2754ZM51.0169 58.8076V58.6745H51.3718V58.8076H51.0169Z" fill="#545454"/>
<path d="M52.969 58.277H52.6585V58.0996H52.5254V58.9423H52.6585H52.969C53.0577 58.9423 53.1021 58.8536 53.1021 58.7649V58.4544C53.1021 58.3657 53.0577 58.277 52.969 58.277ZM52.969 58.8092H52.6585V58.4101H52.9246L52.969 58.8092Z" fill="#545454"/>
<path d="M50.1289 57.9657V58.1431L50.262 58.0544V57.877L50.1289 57.9657Z" fill="#545454"/>
<path d="M50.7505 58.4976C50.7949 58.4533 50.7949 58.4089 50.7949 58.3202C50.7949 58.1872 50.7505 58.0985 50.6618 58.0541C50.6175 58.0541 50.5731 58.0098 50.5731 58.0098C50.5287 58.0098 50.3956 58.0098 50.3069 58.0098V58.1428L50.1738 58.2315V58.8968H50.6618C50.7505 58.8968 50.8393 58.7637 50.8393 58.6307C50.7949 58.6307 50.7505 58.542 50.7505 58.4976ZM50.2626 58.2315H50.3956H50.5287C50.5287 58.2315 50.5287 58.2315 50.5731 58.2315C50.6175 58.2315 50.6175 58.2759 50.6175 58.3202C50.6175 58.3646 50.6175 58.3646 50.5731 58.4089C50.5731 58.4089 50.5731 58.4089 50.5287 58.4089H50.3956H50.2626V58.2315ZM50.5731 58.8081H50.44H50.2626V58.5863H50.44H50.4844H50.5731C50.5731 58.5863 50.6175 58.5863 50.6175 58.6307C50.6175 58.6307 50.6618 58.675 50.6618 58.7194C50.6618 58.7637 50.6175 58.8081 50.5731 58.8081Z" fill="#545454"/>
<path d="M22.9353 0.443502C22.9797 0.443502 22.9797 0.443502 23.024 0.443502C23.2015 0.443502 23.3789 0.487852 23.512 0.576552L24.8429 1.33051C25.0203 1.41921 25.1534 1.59661 25.1978 1.77401C25.2865 1.95141 25.2865 2.12881 25.2865 2.35056C25.2865 2.70536 25.1534 3.10451 25.0647 3.41496L24.3105 6.25337L32.9168 5.58812V5.32202C32.7394 5.32202 32.5619 5.27767 32.4288 5.27767C32.3401 5.27767 32.2514 5.23332 32.1627 5.23332C32.1183 5.23332 32.0739 5.23332 32.0296 5.18897C31.9852 5.18897 31.9408 5.18897 31.9408 5.14462C31.9408 5.14462 31.8965 5.14462 31.8965 5.10027L31.8521 5.05592V4.43502C31.8521 4.43502 31.8521 4.39067 31.8965 4.34632H31.9408L31.9852 4.30197H32.0296C32.0739 4.30197 32.1183 4.25762 32.1627 4.25762C32.2514 4.25762 32.2957 4.21327 32.3845 4.21327C32.4732 4.21327 32.5619 4.16892 32.6506 4.16892C32.8725 4.16892 33.0943 4.12457 33.3604 4.12457C33.8041 4.12457 34.2477 4.08022 34.78 4.08022C34.8688 4.08022 34.9575 4.08022 35.0906 4.08022C35.7116 4.08022 36.732 4.08022 37.6636 4.16892C37.8854 4.16892 38.0185 4.21327 38.1959 4.21327C38.5952 4.25762 38.6839 4.30197 38.7283 4.34632L38.7726 4.39067C38.817 4.43502 38.817 4.43502 38.817 4.47937V5.18897L56.4732 3.85846C56.5176 3.85846 56.5176 3.85847 56.5619 3.90282C56.6063 3.90282 56.6063 3.85846 56.6506 3.85846L57.5379 3.81412C57.9372 3.76976 58.3364 3.76976 58.6913 3.72541C58.8688 3.72541 59.0462 3.72541 59.268 3.68106C59.4898 3.68106 59.6673 3.68106 59.8891 3.68106C60.2884 3.68106 60.6876 3.68106 61.0425 3.63671C61.22 3.63671 61.4418 3.63671 61.6192 3.63671C61.7523 3.63671 61.8854 3.63671 62.0185 3.63671H62.1959C62.9945 3.63671 63.7486 3.63671 64.5471 3.68106C64.7689 3.68106 64.9464 3.68106 65.1682 3.72541C65.3456 3.72541 65.5231 3.72541 65.7449 3.76976C66.1442 3.76976 66.5434 3.81411 66.8983 3.85846L117.826 8.20478C118.092 8.20478 118.314 8.24913 118.58 8.29348C119.29 8.38218 119.379 8.47088 119.423 8.51523L119.468 8.55958L119.512 8.60393C119.512 8.64828 119.512 8.64828 119.512 8.69263L119.556 107.549C119.556 107.638 119.468 107.727 119.379 107.727C119.335 107.727 119.335 107.727 119.29 107.727L119.246 108.791V108.835C119.246 108.835 119.246 108.88 119.201 108.88C119.201 108.88 119.157 108.924 119.113 108.924C119.068 108.924 119.068 108.968 119.024 108.968C118.98 108.968 118.98 108.968 118.935 109.013C118.891 109.013 118.802 109.057 118.758 109.057C118.625 109.101 118.492 109.101 118.403 109.101C118.181 109.146 117.959 109.146 117.782 109.19V109.501C117.782 109.545 117.738 109.589 117.693 109.634C117.649 109.678 117.604 109.678 117.56 109.678C117.516 109.678 117.427 109.722 117.338 109.722C117.205 109.767 117.028 109.767 116.939 109.767C116.229 109.811 115.298 109.855 114.677 109.855C114.455 109.855 114.277 109.855 114.144 109.855C113.612 109.855 113.168 109.855 112.769 109.811C112.503 109.811 112.281 109.767 112.059 109.767C111.97 109.767 111.882 109.767 111.837 109.722C111.793 109.722 111.749 109.722 111.749 109.722L66.6765 113.669C66.4991 113.669 66.2773 113.714 66.0998 113.714C65.9667 113.714 65.7893 113.714 65.6562 113.758V114.113C65.6562 114.157 65.6562 114.202 65.6118 114.246C65.6118 114.29 65.5675 114.29 65.5675 114.29C65.5231 114.335 65.4787 114.335 65.4344 114.335C65.3457 114.379 65.2569 114.379 65.1682 114.379C64.9908 114.423 64.7689 114.423 64.6359 114.423C63.9704 114.468 63.0388 114.512 62.1072 114.512C61.9741 114.512 61.7967 114.512 61.6636 114.512C61.1312 114.512 60.5989 114.468 60.1553 114.468C59.8447 114.468 59.6229 114.423 59.4011 114.423C59.3124 114.423 59.2237 114.423 59.1349 114.379C59.0462 114.379 59.0019 114.335 58.9131 114.335C58.8688 114.335 58.8244 114.29 58.78 114.29C58.7357 114.29 58.7357 114.246 58.6913 114.246C58.6469 114.202 58.6469 114.157 58.6469 114.157V113.803C58.3364 113.803 58.0702 113.758 57.7597 113.758L10.2033 110.033C10.2033 110.033 10.2033 110.033 10.159 110.033C10.0702 110.033 9.98151 110.077 9.89279 110.077C9.67098 110.121 9.49353 110.121 9.31608 110.121H9.27172C9.13863 110.121 9.00555 110.121 8.87246 110.166C8.8281 110.166 8.78373 110.166 8.73937 110.166C8.60629 110.166 8.42884 110.166 8.29575 110.166C8.25139 110.166 8.20702 110.166 8.1183 110.166C7.94085 110.166 7.80776 110.166 7.67468 110.166C7.58595 110.166 7.54159 110.166 7.45286 110.166C7.31978 110.166 7.18669 110.166 7.09797 110.166C7.00924 110.166 6.96488 110.166 6.87616 110.166C6.78743 110.166 6.69871 110.166 6.60998 110.166C6.122 110.166 5.67837 110.166 5.27911 110.121C5.01294 110.121 4.79113 110.077 4.61368 110.077C4.52495 110.077 4.43623 110.077 4.39187 110.033C4.3475 110.033 4.25878 110.033 4.21442 109.988C4.17006 109.988 4.12569 109.944 4.08133 109.944L4.03697 109.9C4.03697 109.9 3.99261 109.855 3.99261 109.811V109.767V109.456C3.81516 109.456 3.63771 109.412 3.46026 109.412C3.32717 109.412 3.19409 109.368 3.061 109.368C2.97227 109.368 2.92791 109.323 2.83919 109.323C2.79482 109.323 2.79482 109.323 2.75046 109.279C2.7061 109.279 2.7061 109.279 2.66174 109.234C2.66174 109.234 2.61738 109.19 2.57301 109.19C2.52865 109.146 2.52865 109.101 2.52865 109.057L2.48429 107.993C2.43993 107.993 2.43993 107.993 2.39556 107.993C2.30684 107.993 2.21811 107.904 2.21811 107.815V19.1593L0.887246 18.4497C0.798521 18.4053 0.709797 18.361 0.665434 18.2723C0.621072 18.1836 0.57671 18.0949 0.532348 18.0062C0.443623 17.8288 0.443623 17.6514 0.443623 17.4296C0.443623 17.0748 0.57671 16.6757 0.665434 16.3209L2.21811 10.5553V8.29348C2.21811 8.24913 2.21811 8.24913 2.21811 8.20478C2.21811 8.20478 2.26248 8.16043 2.26248 8.11608C2.3512 8.02738 2.48429 7.98303 2.88355 7.93868L3.90388 4.16892C3.99261 3.90282 4.03697 3.63671 4.17006 3.32626C4.30314 3.01581 4.43623 2.74971 4.61368 2.57231C4.7024 2.43926 4.79113 2.35056 4.92421 2.26186C5.0573 2.17316 5.14603 2.08446 5.32347 1.99576C5.58965 1.86271 5.90018 1.81836 6.21072 1.81836L22.536 0.443502C22.6691 0.443502 22.8022 0.443502 22.9353 0.443502ZM22.9353 0C22.7579 0 22.6248 0 22.4917 0.0443502L6.16636 1.41921C5.81146 1.46356 5.50092 1.46356 5.14603 1.64096C4.96858 1.72966 4.83549 1.81836 4.65804 1.95141C4.52495 2.08446 4.39187 2.17316 4.30314 2.35056C4.12569 2.61666 3.94824 2.88276 3.81516 3.23756C3.68207 3.54801 3.63771 3.85847 3.54898 4.12457L2.61738 7.62823C2.30684 7.67258 2.17375 7.76128 2.04067 7.89433C1.95194 7.93868 1.90758 8.07173 1.90758 8.07173C1.81885 8.11608 1.77449 8.24913 1.77449 8.33783V10.511L0.221811 16.2322C0.133087 16.587 0 17.0305 0 17.4296C0 17.6957 0 17.9618 0.0887246 18.1836C0.133087 18.3166 0.221811 18.4497 0.310536 18.5827C0.399261 18.7158 0.532348 18.8045 0.709797 18.8932L1.77449 19.4254L1.73013 107.86C1.73013 108.081 1.86322 108.259 2.04067 108.392L2.08503 109.146V109.19V109.234C2.08503 109.368 2.17375 109.456 2.26248 109.545C2.30684 109.589 2.39556 109.678 2.43993 109.678C2.48429 109.722 2.52865 109.722 2.57301 109.722C2.61738 109.722 2.66174 109.767 2.7061 109.767C2.79482 109.811 2.88355 109.811 2.97227 109.811C3.10536 109.855 3.23845 109.855 3.4159 109.9C3.46026 109.9 3.50462 109.9 3.54898 109.9C3.54898 109.944 3.54898 109.988 3.59335 110.033C3.59335 110.077 3.63771 110.166 3.72643 110.255C3.77079 110.299 3.81516 110.343 3.90388 110.388C3.99261 110.432 4.08133 110.432 4.12569 110.476C4.21442 110.476 4.25878 110.521 4.3475 110.521C4.43623 110.521 4.52495 110.565 4.61368 110.565C4.83549 110.565 5.0573 110.609 5.32347 110.609C5.72274 110.609 6.16636 110.654 6.69871 110.654H6.96488H7.09797C7.18669 110.654 7.31978 110.654 7.45286 110.654H7.67468C7.80776 110.654 7.98521 110.654 8.1183 110.654H8.25139H8.29575C8.42884 110.654 8.60629 110.654 8.73937 110.654H8.8281H8.87246C9.00555 110.654 9.13863 110.654 9.27172 110.609H9.31608H9.36044C9.53789 110.609 9.71534 110.565 9.93715 110.565C10.0259 110.565 10.1146 110.521 10.2033 110.521L57.7153 114.202C57.8928 114.202 58.0259 114.246 58.2033 114.246V114.29L58.2477 114.335C58.2921 114.423 58.3364 114.512 58.3808 114.556C58.4251 114.601 58.5139 114.645 58.5582 114.69C58.6469 114.734 58.7357 114.778 58.78 114.778C58.8688 114.778 58.9575 114.823 59.0462 114.823C59.1349 114.823 59.2237 114.867 59.3567 114.867C59.5786 114.911 59.8004 114.911 60.1109 114.911C60.5545 114.956 61.0869 114.956 61.6192 114.956C61.7967 114.956 61.9298 114.956 62.1072 114.956C63.0832 114.956 64.0148 114.911 64.6802 114.867C64.8577 114.867 65.0351 114.823 65.2569 114.823C65.39 114.823 65.4787 114.778 65.5675 114.778C65.6562 114.778 65.7449 114.734 65.7893 114.69C65.878 114.645 65.9224 114.601 65.9667 114.556C66.0555 114.468 66.0998 114.335 66.0998 114.202H66.1442C66.3216 114.202 66.5434 114.157 66.7209 114.157L111.749 110.21H111.793C111.882 110.21 111.97 110.21 112.059 110.255C112.281 110.255 112.503 110.299 112.769 110.299C113.213 110.343 113.656 110.343 114.189 110.343C114.277 110.343 114.499 110.343 114.721 110.343C115.342 110.343 116.274 110.343 117.028 110.255C117.116 110.255 117.294 110.21 117.471 110.21C117.56 110.21 117.649 110.166 117.738 110.166C117.782 110.166 117.871 110.121 117.959 110.077C118.092 109.988 118.226 109.811 118.226 109.634C118.314 109.634 118.403 109.634 118.492 109.589C118.625 109.589 118.758 109.545 118.891 109.501C118.98 109.501 119.068 109.456 119.113 109.456C119.157 109.456 119.201 109.412 119.246 109.412C119.29 109.412 119.335 109.368 119.379 109.323C119.423 109.279 119.512 109.234 119.556 109.19C119.601 109.146 119.601 109.101 119.645 109.057V109.013V108.968C119.645 108.924 119.689 108.88 119.689 108.791L119.734 108.037C119.911 107.904 120 107.727 120 107.505L119.956 8.64828C119.956 8.55958 119.956 8.47088 119.911 8.38218C119.867 8.29348 119.823 8.24913 119.778 8.20478L119.734 8.16043C119.601 8.02738 119.335 7.89433 118.669 7.80563C118.403 7.76128 118.137 7.76128 117.915 7.71693L66.9427 3.37061C66.5434 3.32626 66.1442 3.32626 65.7449 3.28191C65.5675 3.28191 65.39 3.28191 65.1682 3.23756C64.9464 3.23756 64.7689 3.23756 64.5471 3.19321C63.7486 3.14886 62.9945 3.14886 62.1959 3.14886H62.1072H62.0185C61.8854 3.14886 61.7523 3.14886 61.6192 3.14886C61.4418 3.14886 61.22 3.14886 61.0425 3.14886C60.6433 3.14886 60.244 3.14886 59.8447 3.19321C59.6229 3.19321 59.4455 3.19321 59.2237 3.19321C59.0462 3.19321 58.8688 3.19321 58.6469 3.23756C58.2477 3.23756 57.8484 3.28191 57.4492 3.32626L56.6063 3.37061C56.5619 3.37061 56.5619 3.37061 56.5176 3.37061H56.4732H56.4288L39.2606 4.65677V4.43502C39.2606 4.34632 39.2606 4.25762 39.2163 4.21327V4.16892L39.1275 4.08022L39.0388 3.99152C38.9057 3.90282 38.6839 3.81412 38.2847 3.76976C38.1072 3.76976 37.9741 3.72541 37.7523 3.72541C36.8207 3.63671 35.7116 3.63671 35.1349 3.63671C35.0018 3.63671 34.9131 3.63671 34.8244 3.63671C34.2921 3.63671 33.8041 3.63671 33.3604 3.68106C33.0499 3.68106 32.8281 3.72541 32.6063 3.72541C32.5176 3.72541 32.4288 3.72541 32.2957 3.76976C32.207 3.76976 32.1183 3.81412 32.0739 3.81412C32.0296 3.81412 31.9409 3.85846 31.8521 3.85846C31.8078 3.85846 31.7634 3.90282 31.7634 3.90282H31.719L31.6303 3.99152L31.586 4.03587L31.5416 4.08022V4.12457C31.4972 4.21327 31.4529 4.30197 31.4529 4.43502V5.10027C31.4529 5.18897 31.4529 5.23332 31.4972 5.32202L24.976 5.80987L25.5083 3.54801L25.5527 3.41496C25.6414 3.10451 25.7301 2.74971 25.7301 2.39491C25.7301 2.12881 25.7301 1.86271 25.6414 1.68531C25.5527 1.37486 25.3309 1.10875 25.0647 0.975704L23.7338 0.221751C23.5564 0.0887003 23.3346 0 23.0684 0C23.024 0 22.9797 0 22.9353 0Z" fill="#545454"/>
<g opacity="0.2">
<g opacity="0.2">
<path opacity="0.2" d="M2.30687 17.253L2.97231 17.2087L17.3901 16.3217L18.4104 16.2773C18.5878 16.2773 18.7209 16.1443 18.7653 16.0112L19.1645 14.459L22.0481 3.46013L22.403 2.21832C22.4474 2.08527 22.403 1.95222 22.3143 1.86352C22.2255 1.77482 22.0925 1.73047 22.0037 1.73047L21.2939 1.81917L6.87619 3.01662L5.90022 3.10532C5.72277 3.10532 5.58968 3.23837 5.54532 3.37143L5.14606 4.87933L2.26251 15.5677L1.95197 16.7652C1.90761 16.8982 1.95197 17.0313 2.0407 17.12C2.08506 17.2087 2.21815 17.253 2.30687 17.253ZM14.196 8.69345C14.2403 8.7378 14.2403 8.78215 14.196 8.78215L12.1997 10.6449H12.1553C12.1553 10.6449 12.1109 10.6449 12.1109 10.6005C12.0666 10.5562 12.0666 10.5118 12.1109 10.5118L14.1072 8.6491C14.1072 8.6491 14.1516 8.6491 14.196 8.69345ZM9.22739 10.7779L13.3531 6.69769C13.3974 6.65334 13.4418 6.65334 13.4418 6.69769C13.4862 6.74204 13.4862 6.78639 13.4418 6.78639L9.31611 10.8666H9.27175H9.22739C9.18303 10.8223 9.18303 10.7779 9.22739 10.7779Z" fill="#D8D8D8"/>
</g>
</g>
<g opacity="0.2">
<g opacity="0.2">
<path opacity="0.2" d="M48.9315 7.36133L48.5322 7.40568V7.76048L48.9315 7.71613V7.36133Z" fill="#D8D8D8"/>
</g>
</g>
<g opacity="0.2">
<g opacity="0.2">
<path opacity="0.2" d="M46.625 8.82641H47.0686V8.69336L46.625 8.73771V8.82641Z" fill="#D8D8D8"/>
</g>
</g>
<g opacity="0.2">
<g opacity="0.2">
<path opacity="0.2" d="M32.2953 4.87895C32.3841 4.87895 32.5171 4.8346 32.6059 4.8346C32.8277 4.8346 33.0495 4.79025 33.3157 4.79025C33.7593 4.7459 34.2473 4.7459 34.7796 4.7459C35.8443 4.7459 36.909 4.79025 37.7075 4.8346C37.7075 4.8346 37.7075 4.8346 37.7519 4.8346V5.1894L38.6391 5.1007V4.3911L38.5948 4.34675C38.5948 4.34675 38.5061 4.3024 38.1512 4.25805C38.0181 4.25805 37.8406 4.2137 37.6188 4.2137C36.5541 4.125 35.2676 4.125 34.7796 4.125C34.2473 4.125 33.8036 4.125 33.36 4.16935C33.0938 4.16935 32.872 4.2137 32.6502 4.2137C32.5615 4.2137 32.4728 4.2137 32.3841 4.25805C32.2953 4.25805 32.251 4.25805 32.1622 4.3024C32.1179 4.3024 32.0735 4.3024 32.0292 4.34675H31.9848L31.9404 4.3911V4.87895C31.9848 4.87895 31.9848 4.87895 32.0292 4.87895C32.1622 4.9233 32.251 4.9233 32.2953 4.87895Z" fill="#D8D8D8"/>
</g>
</g>
<g opacity="0.2">
<g opacity="0.2">
<path opacity="0.2" d="M33.0498 5.63262L37.6635 5.27782V5.01172L33.0498 5.36652V5.63262Z" fill="#D8D8D8"/>
</g>
</g>
<g opacity="0.2">
<g opacity="0.2">
<path opacity="0.2" d="M36.5992 4.92326C36.0225 4.92326 35.4458 4.87891 34.8247 4.87891C34.2923 4.87891 33.8043 4.87891 33.3607 4.92326C33.0946 4.92326 32.8284 4.96761 32.6509 4.96761C32.5622 4.96761 32.4291 4.96761 32.3404 5.01196C32.2517 5.01196 32.2073 5.01196 32.1186 5.05631H32.0742C32.1186 5.05631 32.1629 5.05631 32.2073 5.10066C32.296 5.10066 32.3848 5.14501 32.4735 5.14501C32.6066 5.14501 32.784 5.18936 33.0058 5.18936L36.5992 4.92326Z" fill="#D8D8D8"/>
</g>
</g>
<g opacity="0.2">
<g opacity="0.2">
<path opacity="0.2" d="M47.4229 8.78058L47.8221 8.73623V8.42578H47.4229V8.78058Z" fill="#D8D8D8"/>
</g>
</g>
<g opacity="0.2">
<g opacity="0.2">
<path opacity="0.2" d="M46.4478 7.49495C46.4478 7.4506 46.4478 7.4506 46.4478 7.4506V7.40625H46.4034H46.3591C46.3147 7.40625 46.3147 7.40625 46.2704 7.40625C46.1373 7.40625 46.0042 7.40625 45.8711 7.4506V7.628C46.0485 7.628 46.2704 7.58365 46.4478 7.58365V7.49495Z" fill="#D8D8D8"/>
</g>
</g>
<g opacity="0.2">
<g opacity="0.2">
<path opacity="0.2" d="M22.5361 13.1724L24.7099 13.0394C24.843 13.0394 25.0204 12.995 25.1535 12.9063C25.0648 12.9507 24.9317 12.995 24.843 12.995C24.7986 12.995 24.7099 12.995 24.6655 12.995C24.4881 12.995 24.3106 12.9507 24.1332 12.862C23.9114 12.7733 23.7339 12.6402 23.5565 12.4185C23.2903 12.1524 23.1128 11.7976 22.9798 11.3984L22.5361 13.1724Z" fill="#D8D8D8"/>
</g>
</g>
<g opacity="0.2">
<g opacity="0.2">
<path opacity="0.2" d="M2.61719 8.42716V9.22547L2.839 8.38281C2.70591 8.38281 2.66155 8.42716 2.61719 8.42716Z" fill="#D8D8D8"/>
</g>
</g>
<g opacity="0.2">
<g opacity="0.2">
<path opacity="0.2" d="M24.8425 8.38167C24.7537 8.33732 24.6206 8.33732 24.5319 8.29297C24.4876 8.29297 24.3988 8.29297 24.3545 8.29297L23.7778 8.33732L23.7334 8.55907C23.9996 8.38167 24.2657 8.29297 24.5763 8.33732C24.665 8.33732 24.7537 8.33732 24.8425 8.38167Z" fill="#D8D8D8"/>
</g>
</g>
<g opacity="0.2">
<g opacity="0.2">
<path opacity="0.2" d="M23.0244 11.1767C23.1131 11.6203 23.3349 12.0638 23.6011 12.3742C23.7786 12.5516 23.956 12.6847 24.1335 12.7734C24.3553 12.8621 24.5771 12.9064 24.7545 12.8621C24.9764 12.8177 25.1538 12.729 25.3313 12.596C25.5087 12.4629 25.6418 12.2855 25.7749 12.1081C25.9967 11.7533 26.0854 11.2654 26.0854 10.8219C26.0854 10.4671 26.041 10.1123 25.908 9.80189C25.7749 9.44709 25.5974 9.18099 25.3756 8.91489C25.1982 8.73749 24.8876 8.51574 24.4884 8.47139C24.1778 8.42704 23.8673 8.56009 23.6011 8.78184L23.0244 11.1767Z" fill="#D8D8D8"/>
</g>
</g>
<g opacity="0.2">
<g opacity="0.2">
<path opacity="0.2" d="M46.4922 7.7168C46.4034 7.7168 46.3591 7.7168 46.2704 7.7168C46.1373 7.7168 46.0042 7.7168 45.8711 7.76115V7.93855C46.0929 7.93855 46.2704 7.8942 46.4922 7.8942V7.8055V7.7168C46.4922 7.76115 46.4922 7.76115 46.4922 7.7168Z" fill="#D8D8D8"/>
</g>
</g>
<g opacity="0.2">
<g opacity="0.2">
<path opacity="0.2" d="M23.823 8.20498L24.3554 8.16063C24.4441 8.16063 24.4884 8.16063 24.5772 8.16063C24.8433 8.16063 25.1095 8.29368 25.3757 8.47108C25.5975 8.60413 25.775 8.82588 25.9524 9.09198C26.2186 9.53548 26.396 10.112 26.4404 10.6442C26.4847 11.2208 26.3517 11.7973 26.0855 12.2408C25.9524 12.5069 25.7749 12.7287 25.5531 12.8617C25.3313 13.0391 25.0208 13.1278 24.7546 13.1722L22.5365 13.3052L21.8711 15.8776C21.7823 16.1437 21.738 16.4541 21.6049 16.7646C21.4718 17.075 21.3387 17.3411 21.1613 17.5629C21.0725 17.6959 20.9395 17.7846 20.8507 17.9177C20.7176 18.0064 20.5846 18.0951 20.4515 18.1838C20.3184 18.2281 20.1853 18.2725 20.0079 18.3168C19.8304 18.3612 19.6973 18.3612 19.5642 18.3612L5.14648 19.2038V21.8648L56.4293 19.0708V4.25781L24.2223 6.65272L23.823 8.20498ZM47.2019 8.47108V8.64848V8.95893C47.0688 8.95893 46.9358 8.95893 46.8027 9.00328C46.7583 9.00328 46.6696 9.00328 46.6252 9.00328H46.5809C46.5365 9.00328 46.5365 8.91458 46.5365 8.91458V8.87023V8.82588V8.78153C46.5365 8.73718 46.5365 8.73718 46.5365 8.69283C46.5365 8.64848 46.5809 8.64848 46.5809 8.60413H46.6252H46.6696C46.8027 8.60413 46.9358 8.60413 47.0688 8.55978V8.47108C46.8914 8.47108 46.714 8.51543 46.5365 8.51543V8.38238C46.6252 8.38238 46.7583 8.38238 46.847 8.38238C46.8914 8.38238 46.9358 8.38238 47.0245 8.38238H47.0688C47.0688 8.38238 47.0688 8.38238 47.1132 8.38238C47.1576 8.38238 47.1576 8.38238 47.2019 8.42673C47.2463 8.42673 47.2463 8.47108 47.2463 8.51543C47.2019 8.42673 47.2019 8.42673 47.2019 8.47108ZM48.0005 8.64848V8.69283C48.0005 8.73718 48.0005 8.82588 47.9561 8.87023L47.9117 8.91458C47.9117 8.91458 47.9117 8.91458 47.8674 8.91458H47.823C47.7786 8.91458 47.7786 8.91458 47.7343 8.91458C47.6012 8.91458 47.4237 8.91458 47.2907 8.95893V8.16063C47.335 8.16063 47.3794 8.16063 47.4237 8.16063V8.29368H47.6456C47.6899 8.29368 47.7343 8.29368 47.7343 8.29368H47.7786C47.7786 8.29368 47.7786 8.29368 47.823 8.29368H47.8674C47.9117 8.29368 47.9117 8.33803 47.9561 8.33803C47.9561 8.38238 48.0005 8.42673 48.0005 8.47108V8.64848ZM53.2352 7.05187L53.7232 6.74142H53.9006V8.47108H53.5901V7.00752L53.1908 7.22927V7.05187H53.2352ZM51.0615 6.91882C51.2833 7.18492 51.5051 7.45102 51.7269 7.71713C51.9487 7.40667 52.1705 7.14057 52.348 6.83012C52.481 6.83012 52.6141 6.83012 52.7472 6.78577L52.0818 7.71713C52.3036 7.98323 52.5254 8.24933 52.7472 8.55978C52.6141 8.55978 52.481 8.55978 52.348 8.60413C52.2592 8.47108 52.1262 8.33803 52.0374 8.20498C51.9931 8.11628 51.9487 8.07193 51.86 7.98323C51.8156 7.93888 51.8156 7.93888 51.7712 7.89453C51.7712 7.85018 51.7269 7.85018 51.7269 7.80583C51.5051 8.11628 51.2833 8.38238 51.0615 8.69283C50.9284 8.69283 50.7953 8.69283 50.6622 8.73718C50.884 8.42673 51.1058 8.11628 51.3276 7.80583C51.3276 7.76148 51.2833 7.76148 51.2833 7.71713C51.2389 7.67278 51.2389 7.62843 51.1945 7.62843L51.0171 7.40668C50.884 7.27362 50.7953 7.14057 50.6622 7.00752C50.7953 6.96317 50.9284 6.96317 51.0615 6.91882ZM49.1982 7.71713V7.53973C49.1982 7.40667 49.1982 7.31797 49.1982 7.18492C49.2426 7.18492 49.287 7.18492 49.3757 7.18492V7.71713C49.5088 7.71713 49.6419 7.71713 49.7749 7.67278C49.7749 7.49537 49.7749 7.31797 49.7749 7.14057C49.8193 7.14057 49.8637 7.14057 49.9524 7.14057C49.9524 7.36232 49.9524 7.58408 49.9524 7.80583C49.8637 7.80583 49.7306 7.80583 49.5975 7.85018C49.5531 7.85018 49.4644 7.85018 49.4201 7.85018C49.3757 7.85018 49.3757 7.85018 49.3313 7.85018H49.287H49.2426C49.1982 7.85018 49.1982 7.80583 49.1982 7.76148V7.71713ZM48.3997 7.14057C48.4441 7.14057 48.4884 7.14057 48.5328 7.14057V7.27362C48.6215 7.27362 48.6659 7.27362 48.7546 7.27362C48.799 7.27362 48.8433 7.27362 48.8433 7.27362H48.8877C48.8877 7.27362 48.8877 7.27362 48.9321 7.27362H48.9764C49.0208 7.27362 49.0208 7.31797 49.0652 7.31797C49.0652 7.36232 49.1095 7.40667 49.1095 7.45102C49.1095 7.53972 49.1095 7.58407 49.1095 7.67278V7.71713C49.1095 7.76148 49.1095 7.85018 49.0652 7.89453L49.0208 7.93888H48.9764H48.9321C48.8877 7.93888 48.8877 7.93888 48.8433 7.93888C48.7103 7.93888 48.5328 7.93888 48.3997 7.98323V7.14057ZM47.5125 7.31797C47.7343 7.31797 47.9561 7.27362 48.2223 7.27362C48.2666 7.27362 48.2666 7.27362 48.311 7.31797C48.311 7.36232 48.3554 7.36232 48.3554 7.40668V7.45102V7.49537V7.58408C48.3554 7.71713 48.3554 7.80583 48.3554 7.93888C48.311 7.93888 48.2666 7.93888 48.1779 7.93888C48.1779 7.76148 48.1779 7.58407 48.1779 7.45102C48.1335 7.45102 48.0892 7.45102 48.0005 7.45102C48.0005 7.62843 48.0005 7.80583 48.0005 7.93888H47.823V7.45102C47.7786 7.45102 47.7343 7.45102 47.6456 7.45102C47.6456 7.62843 47.6456 7.80583 47.6456 7.93888C47.6012 7.93888 47.5568 7.93888 47.4681 7.93888V7.31797H47.5125ZM46.714 7.80583C46.714 7.76148 46.714 7.71713 46.714 7.67278C46.714 7.62843 46.7583 7.62843 46.7583 7.58408H46.8027C46.8027 7.58408 47.1132 7.53973 47.2463 7.53973V7.45102C47.0688 7.45102 46.8914 7.49537 46.714 7.49537V7.36232C46.8027 7.36232 46.9358 7.36232 47.0245 7.31797C47.0688 7.31797 47.1132 7.31797 47.2019 7.31797H47.2463C47.2463 7.31797 47.2463 7.31797 47.2907 7.31797C47.335 7.31797 47.335 7.31797 47.3794 7.36232C47.4237 7.36232 47.4237 7.40667 47.4237 7.45102V7.49537V7.67278V7.98323C47.2907 7.98323 47.1576 7.98323 47.0245 8.02758C46.9801 8.02758 46.8914 8.02758 46.847 8.02758H46.8027C46.7583 8.02758 46.7583 7.93888 46.7583 7.93888C46.714 7.89453 46.714 7.89453 46.714 7.80583ZM45.738 7.31797C45.9154 7.31797 46.4921 7.27362 46.5365 7.27362C46.5365 7.27362 46.5365 7.27362 46.5809 7.27362C46.6252 7.27362 46.6252 7.27362 46.6252 7.31797C46.6252 7.36232 46.6696 7.36232 46.6696 7.40668V7.45102V7.58408C46.7139 7.62843 46.714 7.67278 46.714 7.67278V7.80583V8.02758C46.4034 8.07193 46.0929 8.07193 45.7823 8.11628C45.738 7.85018 45.738 7.58408 45.738 7.31797ZM45.738 8.87023V8.78153C45.738 8.73718 45.738 8.64848 45.738 8.60413V8.24933H45.9154V8.87023C45.9154 8.87023 45.9154 8.87023 45.9154 8.91458H46.0042C46.0485 8.91458 46.0929 8.91458 46.1372 8.91458C46.226 8.91458 46.3147 8.91458 46.4478 8.91458V9.04763C46.3147 9.04763 46.226 9.04763 46.0929 9.09198C46.0485 9.09198 45.9598 9.09198 45.9154 9.09198H45.8711H45.8267C45.7823 9.09198 45.7823 9.04763 45.7823 9.04763C45.738 8.95893 45.738 8.91458 45.738 8.87023Z" fill="#D8D8D8"/>
</g>
</g>
<g opacity="0.2">
<g opacity="0.2">
<path opacity="0.2" d="M5.01311 108.125C5.01311 108.169 5.01311 108.214 4.96875 108.214L56.429 112.117C56.429 112.072 56.429 112.072 56.429 112.028V105.642L5.01311 102.227V108.125Z" fill="#D8D8D8"/>
</g>
</g>
<g opacity="0.2">
<g opacity="0.2">
<path opacity="0.2" d="M12.1551 22.4414C12.1995 22.4858 12.1995 22.5301 12.2439 22.5745C12.3326 22.7962 12.4213 23.0623 12.3769 23.3284C12.3769 23.5945 12.2882 23.8606 12.1995 24.0824C12.1551 24.1711 12.1108 24.2154 12.0664 24.3041C12.1551 24.2598 12.2439 24.1711 12.2882 24.038C12.3769 23.8606 12.4657 23.5945 12.4657 23.3728C12.4657 23.1067 12.4213 22.8849 12.3326 22.7075C12.2882 22.5745 12.2439 22.5301 12.1551 22.4414Z" fill="#D8D8D8"/>
</g>
</g>
<g opacity="0.2">
<g opacity="0.2">
<path opacity="0.2" d="M12.2884 23.3281C12.2884 23.062 12.2441 22.8402 12.1553 22.6628C12.111 22.5741 12.0222 22.4411 11.9335 22.3967C11.8448 22.308 11.7561 22.2637 11.623 22.2637H11.5786C11.4012 22.2637 11.3124 22.3524 11.2237 22.4411C11.135 22.5298 11.0463 22.6628 11.0019 22.7959V22.8402C10.9132 23.1063 10.8688 23.4611 10.9575 23.7716V23.8159C11.0019 23.949 11.0463 24.082 11.1794 24.2151C11.2681 24.3038 11.4012 24.3925 11.5786 24.3925C11.6673 24.3925 11.8004 24.3481 11.8892 24.2594C11.9779 24.2151 12.0666 24.1264 12.111 23.9933C12.1997 23.8159 12.2441 23.5942 12.2884 23.3281Z" fill="#D8D8D8"/>
</g>
</g>
<g opacity="0.2">
<g opacity="0.2">
<path opacity="0.2" d="M8.38462 22.6621C8.42899 22.7065 8.42899 22.7508 8.47335 22.7952C8.56207 23.0169 8.6508 23.283 8.60643 23.5491C8.60643 23.8152 8.51771 24.0813 8.42899 24.3031C8.38462 24.3918 8.34026 24.4361 8.2959 24.5248C8.38462 24.4805 8.42899 24.3918 8.51771 24.2587C8.60644 24.0813 8.69516 23.8152 8.69516 23.5935C8.69516 23.3274 8.6508 23.1056 8.56207 22.9282C8.51771 22.7952 8.47335 22.7065 8.38462 22.6621Z" fill="#D8D8D8"/>
</g>
</g>
<g opacity="0.2">
<g opacity="0.2">
<path opacity="0.2" d="M11.9777 100.188C11.9333 100.143 11.8889 100.099 11.8002 100.143C11.6671 100.143 11.5784 100.276 11.534 100.365C11.4897 100.454 11.4453 100.631 11.4453 100.764C11.4453 100.942 11.4897 101.075 11.534 101.208C11.5784 101.296 11.6228 101.341 11.6671 101.385C11.7115 101.43 11.7558 101.43 11.8446 101.43C11.9777 101.43 12.0664 101.296 12.1107 101.208C12.1551 101.119 12.1995 100.942 12.1995 100.809C12.1995 100.631 12.1551 100.498 12.1107 100.365C12.0664 100.276 12.022 100.232 11.9777 100.188Z" fill="#D8D8D8"/>
</g>
</g>
<g opacity="0.2">
<g opacity="0.2">
<path opacity="0.2" d="M8.47278 23.5507C8.47278 23.329 8.42842 23.0629 8.33969 22.8855C8.29533 22.7968 8.20661 22.7081 8.11788 22.6194C8.02916 22.5307 7.94043 22.4863 7.85171 22.4863C7.85171 22.4863 7.85171 22.4863 7.80735 22.4863C7.80735 22.4863 7.80735 22.4863 7.76298 22.4863C7.6299 22.4863 7.49681 22.575 7.40809 22.6637C7.31936 22.7524 7.23064 22.8855 7.18628 23.0185C7.05319 23.329 7.05319 23.6394 7.14191 23.9499V23.9942C7.18628 24.1716 7.275 24.3047 7.36372 24.3934C7.45245 24.4821 7.58554 24.5708 7.76298 24.5708C7.85171 24.5708 7.94043 24.5264 8.07352 24.4377C8.16224 24.3934 8.20661 24.3047 8.29533 24.1716C8.42842 24.0386 8.47278 23.7725 8.47278 23.5507Z" fill="#D8D8D8"/>
</g>
</g>
<g opacity="0.2">
<g opacity="0.2">
<path opacity="0.2" d="M56.2953 56.9004C56.2953 56.9004 56.3397 56.9004 56.3397 56.9447C56.5171 57.0334 56.6502 57.2108 56.739 57.3882C56.9164 57.6987 57.0495 58.0978 57.0495 58.5413C57.0495 58.9405 56.9608 59.3397 56.739 59.6945C56.6059 59.8719 56.4728 60.0493 56.3397 60.138C56.2953 60.138 56.2953 60.1823 56.251 60.1823C56.2953 60.1823 56.3397 60.1823 56.4284 60.138C56.4284 60.0493 56.5171 59.9605 56.6059 59.9605C56.6502 59.9605 56.6946 59.9606 56.6946 60.0049C56.6946 60.0049 56.6946 60.0049 56.739 60.0049C56.872 59.9162 57.0051 59.7831 57.0939 59.6057C57.2713 59.2953 57.36 58.9405 57.36 58.5413C57.36 58.1422 57.2713 57.7874 57.0939 57.4769C57.0051 57.2995 56.872 57.1665 56.739 57.0778C56.739 57.0778 56.739 57.0778 56.6946 57.0778C56.6502 57.0778 56.6502 57.1221 56.6059 57.1221C56.5171 57.1221 56.4284 57.0778 56.4284 56.9891C56.3841 56.9004 56.3397 56.9004 56.2953 56.9004Z" fill="#D8D8D8"/>
</g>
</g>
<g opacity="0.2">
<g opacity="0.2">
<path opacity="0.2" d="M8.20715 99.9213C8.16279 99.877 8.11843 99.877 8.0297 99.877C7.89662 99.877 7.80789 100.01 7.76353 100.099C7.71917 100.187 7.6748 100.32 7.6748 100.498C7.6748 100.675 7.71917 100.808 7.76353 100.941C7.80789 101.03 7.85225 101.074 7.89662 101.119C7.94098 101.163 7.98534 101.207 8.07407 101.163C8.20715 101.163 8.29588 101.03 8.34024 100.941C8.3846 100.853 8.42896 100.72 8.42896 100.542C8.42896 100.365 8.3846 100.232 8.34024 100.099C8.29588 100.054 8.25152 99.9657 8.20715 99.9213Z" fill="#D8D8D8"/>
</g>
</g>
<g opacity="0.2">
<g opacity="0.2">
<path opacity="0.2" d="M54.832 58.7201V58.8088H55.1869V58.6758L54.832 58.7201C54.832 58.6758 54.832 58.6758 54.832 58.7201Z" fill="#D8D8D8"/>
</g>
</g>
<g opacity="0.2">
<g opacity="0.2">
<path opacity="0.2" d="M52.6582 58.4531V58.8523H52.9244V58.4975L52.6582 58.4531Z" fill="#D8D8D8"/>
</g>
</g>
<g opacity="0.2">
<g opacity="0.2">
<path opacity="0.2" d="M55.6305 56.9004H50.4401C50.2627 56.9004 50.0852 56.9447 49.9521 57.0778C49.819 57.1665 49.686 57.2995 49.5972 57.4769C49.4198 57.7874 49.3311 58.1422 49.3311 58.5413C49.3311 58.9405 49.4198 59.2953 49.5972 59.6057C49.686 59.7831 49.819 59.9162 49.9521 60.0049C50.0852 60.0936 50.2627 60.1823 50.4401 60.1823H55.5861H55.7192C55.8967 60.1823 56.0741 60.138 56.2072 60.0049C56.3403 59.9162 56.4734 59.7831 56.5621 59.6057C56.7396 59.2953 56.8283 58.9405 56.8283 58.5413C56.8283 58.1422 56.7396 57.7874 56.5621 57.4769C56.4734 57.2995 56.3403 57.1665 56.2072 57.0778C56.0298 56.9891 55.8967 56.9004 55.7192 56.9004H55.6305ZM50.6176 58.9405H50.1296V58.2752L50.2627 58.1865V58.0535L50.1296 58.1422V57.9648L50.2627 57.8761V58.0535C50.3514 58.0535 50.4845 58.0535 50.5288 58.0535C50.5732 58.0535 50.6176 58.0535 50.6176 58.0978C50.7063 58.1422 50.7506 58.2309 50.7506 58.3639C50.7506 58.4083 50.7507 58.497 50.7063 58.5413C50.7507 58.5857 50.7506 58.6744 50.7506 58.7187C50.795 58.8518 50.7063 58.9405 50.6176 58.9405ZM51.0168 58.9405C50.9281 58.9405 50.8837 58.8518 50.8837 58.7631V58.7187C50.8837 58.63 50.9281 58.5413 51.0168 58.5413H51.4161V58.4526H50.9725L50.9281 58.3196H51.4161C51.5048 58.3196 51.5492 58.4083 51.5492 58.497V58.9848L51.0168 58.9405ZM52.4364 58.9405H52.3033V58.4526H52.1259V58.9848H51.9928V58.4526H51.8153V58.9848H51.6823V58.3196H52.3477C52.4364 58.3196 52.4808 58.4083 52.4808 58.497V58.9405H52.4364ZM53.1018 58.7631C53.1018 58.8518 53.0575 58.9405 52.9688 58.9405H52.6582H52.5251V58.0978H52.6582V58.2752H52.9688C53.0575 58.2752 53.1018 58.3639 53.1018 58.4526V58.7631ZM53.7673 58.7631C53.7673 58.8518 53.7229 58.9405 53.6342 58.9405H53.3237C53.2349 58.9405 53.1906 58.8518 53.1906 58.7631V58.2752H53.3237V58.7631H53.6342V58.2752H53.7673V58.7631ZM54.1665 58.9848V58.1422H54.2996V58.8074H54.6102L54.6545 58.9848H54.1665ZM55.32 58.9848H54.832C54.7433 58.9848 54.6989 58.8961 54.6989 58.8074V58.7631C54.6989 58.6744 54.7433 58.5857 54.832 58.5857H55.1869V58.497H54.7876L54.7433 58.3639H55.1869C55.2756 58.3639 55.32 58.4526 55.32 58.5413V58.9848ZM55.941 58.497V58.8074C55.941 58.8961 55.8967 58.9848 55.808 58.9848H55.5418H55.4087V58.1422H55.5418V58.3196H55.808C55.8967 58.3196 55.941 58.4083 55.941 58.497Z" fill="#D8D8D8"/>
</g>
</g>
<g opacity="0.2">
<g opacity="0.2">
<path opacity="0.2" d="M55.542 58.8079H55.8082V58.4531H55.542V58.8079Z" fill="#D8D8D8"/>
</g>
</g>
<g opacity="0.2">
<g opacity="0.2">
<path opacity="0.2" d="M51.0166 58.6758V58.8088H51.3715V58.6758H51.0166Z" fill="#D8D8D8"/>
</g>
</g>
<g opacity="0.2">
<g opacity="0.2">
<path opacity="0.2" d="M50.5728 58.4542C50.5728 58.4542 50.5728 58.4098 50.5728 58.4542C50.6172 58.4542 50.6615 58.4098 50.6615 58.3655V58.3211C50.6615 58.2768 50.6615 58.2324 50.6172 58.2324C50.6172 58.2324 50.6172 58.2324 50.5728 58.2324H50.4397H50.3066V58.4542H50.4397H50.5728Z" fill="#D8D8D8"/>
</g>
</g>
<g opacity="0.3">
<g opacity="0.3">
<path opacity="0.3" d="M56.4286 19.4258L5.05706 22.2198L5.0127 101.917L56.4286 105.332V105.199H56.3842C56.3842 105.199 56.3842 105.199 56.3399 105.199C56.2955 105.199 56.2511 105.155 56.2511 105.11C56.2511 105.066 56.2955 105.066 56.3399 105.022H56.3842V60.2279C56.3399 60.2279 56.2511 60.2723 56.2068 60.2723H55.5857H50.3953C50.2179 60.2723 49.9961 60.2279 49.8186 60.0949C49.6855 60.0062 49.5081 59.8288 49.4194 59.6514C49.2419 59.3409 49.1088 58.9418 49.1088 58.5426C49.1088 58.1435 49.1975 57.7443 49.4194 57.4339C49.5524 57.2565 49.6855 57.0791 49.8186 56.9904C49.9961 56.8573 50.1735 56.813 50.3953 56.813H55.5413H56.2068C56.2511 56.813 56.3399 56.813 56.3842 56.8573L56.4286 19.4258ZM8.60604 100.542C8.60604 100.675 8.60604 100.853 8.51732 100.986C8.42859 101.163 8.2955 101.252 8.11806 101.296C8.02933 101.296 7.94061 101.252 7.85188 101.207C7.76316 101.163 7.71879 101.074 7.67443 100.986C7.58571 100.853 7.54135 100.675 7.54135 100.498C7.54135 100.321 7.58571 100.187 7.63007 100.054C7.7188 99.877 7.85188 99.7883 8.02933 99.7439C8.11806 99.7439 8.20678 99.7883 8.29551 99.8326C8.38423 99.877 8.42859 99.9657 8.47295 100.054C8.56168 100.187 8.60604 100.365 8.60604 100.542ZM8.6504 24.3043C8.56168 24.4374 8.51732 24.5261 8.38423 24.6148C8.25114 24.7035 8.11806 24.7478 8.02933 24.7478C8.02933 24.7478 8.02933 24.7478 7.98497 24.7478C7.94061 24.7478 7.94061 24.7478 7.89624 24.7478H7.80752C7.80752 24.7478 7.80752 24.7478 7.76316 24.7478C7.58571 24.7478 7.40826 24.6591 7.27517 24.5261C7.14209 24.393 7.05336 24.26 7.009 24.0825C6.92027 23.7721 6.92027 23.3729 7.05336 23.0181C7.09772 22.8407 7.18645 22.7077 7.31953 22.619C7.45262 22.4859 7.58571 22.3972 7.76316 22.3972H7.80752H8.02933C8.16242 22.3972 8.2955 22.4416 8.38423 22.5303C8.47295 22.619 8.56168 22.7077 8.60604 22.8407C8.69477 23.0625 8.78349 23.3286 8.73913 23.5947C8.82785 23.8164 8.73913 24.0825 8.6504 24.3043ZM12.2881 101.252C12.1994 101.429 12.0663 101.518 11.8889 101.562C11.8001 101.562 11.7114 101.518 11.6227 101.474C11.534 101.429 11.4896 101.341 11.4452 101.252C11.3565 101.119 11.3121 100.941 11.3121 100.72C11.3121 100.587 11.3121 100.409 11.4009 100.276C11.4896 100.099 11.6227 100.01 11.8001 99.9657C11.8889 99.9657 11.9776 100.01 12.0663 100.054C12.155 100.099 12.1994 100.187 12.2437 100.276C12.3325 100.409 12.3768 100.587 12.3768 100.808C12.3768 100.897 12.3768 101.074 12.2881 101.252ZM12.4212 24.0825C12.3325 24.2156 12.2437 24.3043 12.155 24.393C12.0219 24.4817 11.8889 24.5261 11.7558 24.5261C11.7558 24.5261 11.7558 24.5261 11.7114 24.5261C11.667 24.5261 11.667 24.5261 11.6227 24.5261H11.534C11.534 24.5261 11.534 24.5261 11.4896 24.5261C11.3121 24.5261 11.1347 24.4374 11.0016 24.3043C10.8685 24.1712 10.7798 23.9938 10.7354 23.8164V23.7721C10.6467 23.4616 10.6467 23.0625 10.7798 22.752C10.8242 22.5746 10.9129 22.4416 11.046 22.3529C11.1791 22.2198 11.3565 22.1311 11.4896 22.1311H11.534H11.7558C11.8889 22.1311 12.0219 22.1755 12.155 22.3085C12.2437 22.3972 12.3325 22.4859 12.3768 22.619C12.4656 22.8407 12.5543 23.1068 12.5543 23.3729C12.5986 23.639 12.5543 23.9051 12.4212 24.0825Z" fill="black"/>
</g>
</g>
<g opacity="0.2">
<g opacity="0.2">
<path opacity="0.2" d="M50.5732 58.5859H50.4845H50.4401H50.2627V58.8077H50.4401H50.5732C50.6176 58.8077 50.6619 58.7633 50.6619 58.6746C50.6619 58.6303 50.6619 58.5859 50.6176 58.5859C50.6176 58.5859 50.6176 58.5859 50.5732 58.5859Z" fill="#D8D8D8"/>
</g>
</g>
<g opacity="0.2">
<g opacity="0.2">
<path opacity="0.2" d="M47.2899 7.7168L46.8906 7.76115V7.8942L47.2899 7.84985V7.7168Z" fill="#D8D8D8"/>
</g>
</g>
<g opacity="0.2">
<g opacity="0.2">
<path opacity="0.2" d="M117.871 107.904L66.8984 112.294C66.1886 112.339 65.4788 112.383 64.5472 112.427C63.7487 112.472 62.9946 112.472 62.196 112.472C62.1517 112.472 62.0629 112.472 62.0186 112.472C61.8855 112.472 61.7524 112.472 61.6193 112.472C61.4419 112.472 61.2201 112.472 61.0426 112.472C60.6434 112.472 60.2441 112.472 59.8892 112.427C59.4899 112.427 59.0907 112.383 58.7358 112.383C58.3365 112.383 57.9373 112.339 57.5824 112.294L56.6951 112.25H56.6507H56.6064H56.562C56.562 112.294 56.5177 112.294 56.4733 112.294L4.87995 108.392C4.83559 108.392 4.83559 108.347 4.83559 108.347C4.83559 108.347 4.83559 108.347 4.79123 108.347L4.03707 108.303C3.77089 108.303 3.50472 108.259 3.19418 108.214C3.0611 108.214 2.92801 108.17 2.79492 108.17L2.83928 109.057H2.88365C2.92801 109.057 3.01673 109.101 3.0611 109.101C3.19418 109.146 3.32727 109.146 3.46036 109.146C3.72653 109.19 3.9927 109.19 4.25888 109.234L57.7598 113.403C58.1147 113.447 58.514 113.447 58.8689 113.492C59.2238 113.492 59.623 113.536 59.9779 113.536C60.3328 113.536 60.7321 113.536 61.087 113.581C61.4419 113.581 61.8411 113.581 62.196 113.581C62.9058 113.581 63.66 113.581 64.4141 113.536C64.769 113.536 65.1683 113.492 65.5232 113.492C65.7007 113.492 65.8781 113.447 66.0555 113.447C66.233 113.447 66.4548 113.403 66.6323 113.403L117.605 108.924C117.826 108.924 118.093 108.879 118.314 108.835C118.447 108.835 118.536 108.791 118.669 108.791C118.714 108.791 118.758 108.746 118.847 108.746C118.847 108.746 118.847 108.746 118.891 108.746L118.935 107.859C118.847 107.859 118.758 107.904 118.625 107.904C118.359 107.859 118.093 107.904 117.871 107.904Z" fill="#D8D8D8"/>
</g>
</g>
<g opacity="0.2">
<g opacity="0.2">
<path opacity="0.2" d="M102.21 61.8691H101.323V63.0666H102.21L102.255 63.0222V61.9135C102.21 61.9135 102.21 61.8691 102.21 61.8691Z" fill="#D8D8D8"/>
</g>
</g>
<g opacity="0.2">
<g opacity="0.2">
<path opacity="0.2" d="M118.537 8.60461C118.27 8.56026 118.049 8.56026 117.782 8.51591L66.8544 4.16959C66.4552 4.12524 66.1003 4.12524 65.701 4.08089C65.5236 4.08089 65.3461 4.08089 65.1687 4.03654C64.9468 4.03654 64.7694 4.03654 64.5476 3.99219C63.7934 4.03654 62.9949 3.99219 62.2407 3.99219C62.0633 3.99219 61.8415 3.99219 61.664 3.99219C61.4866 3.99219 61.2648 3.99219 61.0873 3.99219C60.6881 3.99219 60.3332 3.99219 59.9339 4.03654C59.7121 4.03654 59.5346 4.03654 59.3128 4.03654C59.1354 4.03654 58.9579 4.03654 58.7805 4.08089C58.3812 4.08089 58.0263 4.12524 57.6271 4.16959L56.7842 4.21394V19.2043V56.8576H56.8285C57.006 56.9463 57.1391 57.1237 57.2278 57.3011C57.4053 57.6115 57.5383 58.0107 57.5383 58.4542C57.5383 58.8534 57.4496 59.2969 57.2278 59.6073C57.0947 59.7847 56.9616 59.9621 56.8285 60.0508H56.7842V111.985V112.029L57.5827 112.074C57.982 112.118 58.3369 112.118 58.7361 112.162C59.1354 112.162 59.5346 112.207 59.8895 112.207C60.1114 112.207 60.3332 112.207 60.555 112.207C60.5993 112.162 60.6437 112.162 60.6437 112.207C60.7768 112.207 60.9099 112.207 61.043 112.207C61.2204 112.207 61.4422 112.207 61.6197 112.207C61.7971 112.207 62.0189 112.207 62.1964 112.207C62.9505 112.207 63.7491 112.207 64.5476 112.162C65.4348 112.118 66.1446 112.074 66.8544 112.029L117.827 107.639C118.049 107.639 118.315 107.594 118.581 107.55C118.714 107.55 118.803 107.506 118.936 107.506C118.936 107.417 119.024 107.328 119.113 107.328C119.158 107.328 119.158 107.328 119.202 107.328L119.158 8.60461C119.113 8.73766 118.936 8.64896 118.537 8.60461ZM93.8711 42.7542L97.7306 42.8429V50.2494L93.9154 47.8989L93.8711 42.7542ZM93.2944 42.7099V50.6929L89.4348 52.9548V42.6212L93.2944 42.7099ZM93.2944 51.713V59.1195H89.4348V53.9748L93.2944 51.713ZM85.7971 63.6875H84.2888V61.5587L84.6881 61.337V60.8491L84.2888 61.0709V60.4943L84.6881 60.2726V60.8491C84.9986 60.8491 85.4422 60.8491 85.531 60.8491H85.5753C85.7084 60.8491 85.7971 60.8935 85.8859 60.9378C86.1077 61.0709 86.2407 61.3813 86.2407 61.7361C86.2407 61.9135 86.1964 62.0909 86.1077 62.2683C86.2408 62.4014 86.2851 62.6231 86.2851 62.8892C86.3738 63.3327 86.1077 63.6875 85.7971 63.6875ZM87.0836 63.6875C86.8618 63.6875 86.6844 63.4214 86.6844 63.0666V62.8892C86.6844 62.5344 86.8618 62.2683 87.0836 62.2683H88.2814V62.0022C88.2814 61.9579 88.2814 61.9579 88.2371 61.9579H86.9062L86.7731 61.47H88.2371C88.4589 61.47 88.6363 61.7361 88.6363 62.0909V63.6875H87.0836ZM91.4755 63.6432H91.0762V62.0022C91.0762 61.9579 91.0762 61.9579 91.0319 61.9579H90.4995L90.4552 62.0022V63.6432H90.0559V62.0022C90.0559 61.9579 90.0559 61.9579 90.0115 61.9579H89.4792L89.4348 62.0022V63.6432H89.0356V61.4257H91.0762C91.2981 61.4257 91.4755 61.6918 91.4755 62.0466V63.6432ZM93.5605 63.0223C93.5605 63.3771 93.3831 63.6432 93.1613 63.6432H92.2297H91.8304V60.8935H92.2297V61.4257H93.1613C93.3831 61.4257 93.5605 61.6918 93.5605 62.0466V63.0223ZM93.8711 48.8746L97.6862 51.2251V59.1195H93.8711V48.8746ZM95.6456 63.0223C95.6456 63.3327 95.4681 63.6432 95.2463 63.6432H94.2703C94.0485 63.6432 93.8711 63.3771 93.8711 63.0223V61.4257H94.2703V63.0666C94.2703 63.111 94.2703 63.111 94.3147 63.111H95.2907L95.335 63.0666V61.4257H95.6899L95.6456 63.0223ZM96.9764 63.5988V60.8935H97.3757V63.111H98.3073L98.4404 63.6432L96.9764 63.5988ZM100.57 63.5988H99.0615C98.8396 63.5988 98.6622 63.3327 98.6622 63.0223V62.8449C98.6622 62.5344 98.8396 62.224 99.0615 62.224H100.215V61.9579C100.215 61.9135 100.215 61.9135 100.171 61.9135H98.884L98.7509 61.4257H100.171C100.392 61.4257 100.57 61.6918 100.57 62.0022V63.5988ZM102.61 62.9779C102.61 63.2884 102.433 63.5545 102.211 63.5545H101.28H100.88V60.8491H101.28V61.3813H102.211C102.433 61.3813 102.61 61.6474 102.61 61.9579V62.9779Z" fill="#D8D8D8"/>
</g>
</g>
<g opacity="0.2">
<g opacity="0.2">
<path opacity="0.2" d="M85.6635 62.4902H85.4417H85.3086H84.6875V63.2442H85.2642H85.6191C85.7522 63.2442 85.8853 63.0668 85.8853 62.8894C85.8853 62.7563 85.8409 62.6676 85.7966 62.5789C85.7966 62.5346 85.7522 62.4902 85.6635 62.4902Z" fill="#D8D8D8"/>
</g>
</g>
<g opacity="0.2">
<g opacity="0.2">
<path opacity="0.2" d="M62.1962 113.847C62.1518 113.847 62.0631 113.847 62.0187 113.847C61.7082 113.847 61.3976 113.847 61.0871 113.847C60.7322 113.847 60.333 113.847 59.9781 113.802C59.6232 113.802 59.2239 113.758 58.869 113.758C58.8246 113.758 58.8246 113.758 58.7803 113.758V114.113C58.7803 114.113 58.7803 114.113 58.8246 114.113C58.869 114.113 58.9134 114.157 58.9577 114.157C59.0021 114.157 59.0908 114.201 59.1352 114.201C59.2239 114.201 59.3126 114.246 59.4013 114.246C59.6232 114.29 59.845 114.29 60.1555 114.29C60.5991 114.334 61.0871 114.334 61.6638 114.334C62.7729 114.334 63.8819 114.334 64.6361 114.246C64.8135 114.246 64.991 114.201 65.1684 114.201C65.2572 114.201 65.3459 114.157 65.4346 114.157C65.479 114.157 65.5233 114.113 65.5233 114.113C65.5233 114.113 65.5233 114.113 65.5677 114.113V113.758C65.2128 113.758 64.8579 113.802 64.503 113.802C63.7045 113.847 62.9503 113.847 62.1962 113.847Z" fill="#D8D8D8"/>
</g>
</g>
<g opacity="0.2">
<g opacity="0.2">
<path opacity="0.2" d="M85.6197 62.0006C85.664 62.0006 85.664 62.0006 85.7084 61.9563C85.7528 61.9119 85.8415 61.8232 85.8415 61.7345C85.8415 61.6902 85.8415 61.6458 85.8415 61.6458C85.8415 61.5128 85.7971 61.3797 85.7084 61.3354C85.664 61.3354 85.664 61.291 85.6197 61.291H85.2204H84.7324V61.9563H85.176L85.6197 62.0006Z" fill="#D8D8D8"/>
</g>
</g>
<g opacity="0.2">
<g opacity="0.2">
<path opacity="0.2" d="M99.0166 62.7547V63.0652C99.0166 63.1095 99.0166 63.1095 99.061 63.1095H100.214V62.666H99.061C99.0166 62.7104 99.0166 62.7104 99.0166 62.7547Z" fill="#D8D8D8"/>
</g>
</g>
<g opacity="0.2">
<g opacity="0.2">
<path opacity="0.2" d="M93.1167 61.957H92.2295V63.1988H93.1167L93.1611 63.1545V62.0457C93.1611 61.957 93.1167 61.957 93.1167 61.957Z" fill="#D8D8D8"/>
</g>
</g>
<g opacity="0.2">
<g opacity="0.2">
<path opacity="0.2" d="M117.604 109.234L112.547 109.678C112.636 109.678 112.724 109.678 112.813 109.678C113.212 109.722 113.7 109.722 114.188 109.722C114.588 109.722 115.963 109.722 116.939 109.634C117.072 109.634 117.205 109.589 117.338 109.589C117.427 109.589 117.471 109.545 117.515 109.545C117.515 109.545 117.56 109.545 117.604 109.5V109.234Z" fill="#D8D8D8"/>
</g>
</g>
<g opacity="0.2">
<g opacity="0.2">
<path opacity="0.2" d="M21.3382 14.3251C21.3825 14.3251 21.3825 14.2807 21.3825 14.2364L22.0036 11.8858C22.0036 11.8415 22.0036 11.7528 21.9592 11.7084C21.9592 11.6641 21.9149 11.6641 21.9149 11.6641C21.8705 11.6641 21.8705 11.6641 21.8705 11.7084C21.8705 11.7084 21.8705 11.7528 21.8262 11.7528L21.2051 14.1033C21.2051 14.1477 21.2051 14.2364 21.2494 14.3251C21.2938 14.3251 21.3382 14.3694 21.3382 14.3251Z" fill="#D8D8D8"/>
</g>
</g>
<g opacity="0.2">
<g opacity="0.2">
<path opacity="0.2" d="M1.01994 18.1835C1.10866 18.2279 1.24175 18.2722 1.37484 18.2722C1.50792 18.2722 1.64101 18.2722 1.7741 18.2722H1.81846L18.1881 17.2965H18.2325C18.4543 17.2965 18.7205 17.2522 18.9423 17.1635C19.0754 17.1191 19.1641 17.0304 19.2972 16.9417C19.3859 16.853 19.4746 16.7643 19.5634 16.6313C19.6965 16.4539 19.8295 16.1878 19.9626 15.9217C20.0514 15.6556 20.1401 15.3895 20.1844 15.1234L23.4673 2.66096C23.556 2.35051 23.6447 1.99571 23.6891 1.68526C23.6891 1.50786 23.6891 1.33046 23.6447 1.19741C23.6003 1.10871 23.6003 1.06436 23.556 0.975657C23.5116 0.931307 23.4673 0.886957 23.3785 0.842607C23.2898 0.798256 23.1567 0.753906 22.9793 0.753906C22.8462 0.753906 22.7131 0.753906 22.5356 0.753906L6.1216 2.12876C5.81107 2.17311 5.58925 2.17311 5.36744 2.30616C5.23436 2.35051 5.14563 2.43921 5.05691 2.52791C4.96818 2.57226 4.87946 2.66096 4.79073 2.79401C4.70201 2.88271 4.65765 3.01577 4.56892 3.10447C4.52456 3.19317 4.4802 3.32622 4.39147 3.45927C4.30275 3.72537 4.25838 3.99147 4.16966 4.25757L0.886851 16.3652C0.798126 16.6756 0.709401 17.0304 0.665039 17.3409C0.665039 17.5183 0.665039 17.6957 0.709401 17.8287C0.753764 17.9174 0.753764 17.9618 0.798126 18.0505C0.886851 18.0948 0.931213 18.1392 1.01994 18.1835ZM1.7741 16.72L2.12899 15.5225L5.01254 4.83412L5.4118 3.32622C5.45617 3.10447 5.67798 2.97141 5.89979 2.92706L6.87576 2.83836L21.2935 1.64091L22.0033 1.59656C22.1807 1.59656 22.3582 1.64091 22.4469 1.77396C22.5356 1.90701 22.58 2.08441 22.5356 2.26181L22.2251 3.50362L19.3416 14.5025L18.9423 16.0547C18.8979 16.2765 18.6761 16.4539 18.4543 16.4539L17.434 16.4982L3.01624 17.3852L2.35081 17.4296C2.35081 17.4296 2.35081 17.4296 2.30644 17.4296C2.12899 17.4296 1.99591 17.3409 1.90718 17.2522C1.7741 17.0748 1.72973 16.8974 1.7741 16.72Z" fill="#D8D8D8"/>
</g>
</g>
<g opacity="0.2">
<g opacity="0.2">
<path opacity="0.2" d="M3.23812 108.037C3.50429 108.081 3.81483 108.081 4.081 108.125L4.65771 108.17L4.70207 19.2031L3.10503 19.2918C3.01631 19.2918 2.92758 19.2918 2.83886 19.2918C2.75013 19.2918 2.70577 19.2918 2.61705 19.2918L2.52832 107.815C2.57268 107.815 2.57268 107.815 2.61705 107.815C2.70577 107.815 2.79449 107.903 2.79449 107.992C2.92758 107.992 3.06067 108.037 3.23812 108.037Z" fill="#D8D8D8"/>
</g>
</g>
<g opacity="0.2">
<g opacity="0.2">
<path opacity="0.2" d="M4.2585 109.59C4.21414 109.59 4.16978 109.59 4.08105 109.59V109.9C4.08105 109.9 4.08105 109.945 4.12542 109.945C4.16978 109.945 4.21414 109.989 4.21414 109.989C4.2585 109.989 4.34723 110.033 4.39159 110.033C4.48032 110.033 4.56904 110.033 4.6134 110.078C4.79085 110.078 5.01266 110.122 5.27884 110.122C5.6781 110.122 6.12172 110.166 6.60971 110.166C6.83152 110.166 7.05333 110.166 7.3195 110.166C7.36386 110.166 7.36386 110.166 7.40823 110.166C7.58568 110.166 7.80749 110.166 7.98494 110.166C8.0293 110.166 8.07366 110.166 8.11802 110.166C8.29547 110.166 8.51728 110.166 8.69473 110.166C8.7391 110.166 8.7391 110.166 8.78346 110.166C8.96091 110.166 9.09399 110.166 9.27144 110.122H9.3158C9.36017 110.122 9.44889 110.122 9.49325 110.122L4.2585 109.59Z" fill="#D8D8D8"/>
</g>
</g>
<g opacity="0.2">
<g opacity="0.2">
<path opacity="0.2" d="M3.06075 19.1145L4.65779 19.0258C4.70215 18.9371 4.74651 18.8928 4.83524 18.8928C4.92396 18.8928 4.96832 18.9371 5.01269 18.9815L19.4748 18.1832C19.6079 18.1832 19.7853 18.1832 19.9184 18.1388C20.0515 18.0945 20.1846 18.0945 20.3177 18.0058C20.4508 17.9614 20.5839 17.8727 20.6726 17.784C20.7613 17.6953 20.8944 17.6066 20.9831 17.4736C21.1606 17.2518 21.2936 17.0301 21.3824 16.7196C21.4711 16.4535 21.5598 16.1431 21.6485 15.877L24.0885 6.65215L24.1772 6.34169L24.9314 3.41458C25.0201 3.05978 25.1088 2.70498 25.1532 2.35018C25.1532 2.12843 25.1532 1.99538 25.1088 1.81798C25.0644 1.68493 24.9757 1.55188 24.7983 1.41883L23.4674 0.664872C23.3787 0.620522 23.2012 0.576172 23.0681 0.576172C23.0681 0.576172 23.0681 0.576172 23.0238 0.576172C23.2012 0.576172 23.3343 0.620522 23.423 0.664872C23.5118 0.709222 23.5561 0.753573 23.6449 0.842273C23.6892 0.930973 23.7336 1.01967 23.7779 1.10837C23.8223 1.24142 23.8223 1.41883 23.8223 1.64058C23.7779 1.95103 23.6892 2.30583 23.6005 2.61628L20.3177 15.0787C20.229 15.3448 20.1846 15.6109 20.0959 15.877C19.9628 16.1874 19.8297 16.4092 19.6966 16.6309C19.6079 16.764 19.5192 16.8527 19.3861 16.9414C19.253 17.0301 19.1643 17.1188 19.0312 17.1631C18.8094 17.2518 18.5876 17.2962 18.3657 17.2962H18.277H18.2327C18.2327 17.2962 18.2327 17.2962 18.1883 17.2962L1.72988 18.4049C1.64115 18.4049 1.55243 18.4049 1.41934 18.4049C1.37498 18.4049 1.33062 18.4049 1.33062 18.4049C1.15317 18.4049 1.02008 18.3606 0.931355 18.3162C0.886993 18.2719 0.798269 18.2275 0.753906 18.1832C0.798269 18.2719 0.886993 18.3162 0.931355 18.3606L2.26222 19.0258C2.30659 18.9815 2.35095 18.9815 2.39531 18.9815C2.48404 18.9815 2.57276 19.0258 2.57276 19.1145C2.75021 19.1589 2.92766 19.1589 3.06075 19.1145ZM21.1162 14.0586L21.7373 11.7081C21.7373 11.6637 21.7816 11.6194 21.7816 11.6194C21.826 11.575 21.8704 11.5307 21.9591 11.5307C22.0034 11.5307 22.0922 11.575 22.1365 11.6194C22.2253 11.7081 22.2253 11.8411 22.2253 11.9298L21.6042 14.2804C21.5598 14.3691 21.5155 14.4134 21.4711 14.4578C21.4267 14.4578 21.4267 14.4578 21.3824 14.4578C21.338 14.4578 21.2493 14.4134 21.2049 14.3691C21.1162 14.3247 21.0718 14.1917 21.1162 14.0586Z" fill="#D8D8D8"/>
</g>
</g>
<g opacity="0.2">
<g opacity="0.2">
<path opacity="0.2" d="M87.0834 62.8002C87.0391 62.8002 87.0391 62.8446 87.0391 62.8446V63.155C87.0391 63.1994 87.0391 63.1994 87.0834 63.1994H88.2368V62.7559L87.0834 62.8002Z" fill="#D8D8D8"/>
</g>
</g>
</svg>
