<svg width="36" height="36" viewBox="0 0 36 36" fill="none" xmlns="http://www.w3.org/2000/svg">
<rect y="32" width="34" height="4" rx="2" fill="#AEAEAE"/>
<path d="M15.5 25C15.5 25.8284 16.1716 26.5 17 26.5C17.8284 26.5 18.5 25.8284 18.5 25L15.5 25ZM18.0607 0.93934C17.4749 0.353553 16.5251 0.353553 15.9393 0.93934L6.3934 10.4853C5.80761 11.0711 5.80761 12.0208 6.3934 12.6066C6.97918 13.1924 7.92893 13.1924 8.51472 12.6066L17 4.12132L25.4853 12.6066C26.0711 13.1924 27.0208 13.1924 27.6066 12.6066C28.1924 12.0208 28.1924 11.0711 27.6066 10.4853L18.0607 0.93934ZM18.5 25L18.5 2L15.5 2L15.5 25L18.5 25Z" fill="#AEAEAE"/>
</svg>
