<svg width="36" height="55" xmlns="http://www.w3.org/2000/svg" fill="none">
 <g>
  <title>Layer 1</title>
  <path d="m0,17.7823c0,-5.7348 4.64904,-10.38386 10.3839,-10.38386l15.7665,0c5.7349,0 10.384,4.64906 10.384,10.38396l0,33.0873l-36.5344,0l0,-33.0874z" fill="#ACACAC" id="svg_1"/>
  <path d="m4.16211,18.8875c0,-4.3011 3.48678,-7.7879 7.78789,-7.7879l12.6343,0c4.3011,0 7.7879,3.4868 7.7879,7.7879l0,27.8215l-28.21009,0l0,-27.8215z" fill="#C0C0C0" id="svg_2"/>
  <circle cx="18.2672" cy="29.3663" r="10.4054" fill="#BABABA" id="svg_3"/>
  <g opacity="0.35" id="svg_4">
   <path d="m18.267,22.3147l0.4425,-3.3538l-0.8794,0l0.4369,3.3538z" fill="#818181" id="svg_5"/>
   <path d="m17.0438,22.424l-0.1475,-3.381l-0.8685,0.1529l1.016,3.2281z" fill="#818181" id="svg_6"/>
   <path d="m15.8581,22.7401l-0.7374,-3.3046l-0.8248,0.3005l1.5622,3.0041z" fill="#818181" id="svg_7"/>
   <path d="m14.7438,23.2591l-1.3,-3.1243l-0.7592,0.4424l2.0592,2.6819z" fill="#818181" id="svg_8"/>
   <path d="m13.7334,23.9645l-1.8189,-2.8512l-0.6718,0.568l2.4907,2.2832z" fill="#818181" id="svg_9"/>
   <path d="m12.8649,24.8325l-2.2832,-2.4907l-0.568,0.6718l2.8512,1.8189z" fill="#818181" id="svg_10"/>
   <path d="m12.1605,25.8444l-2.68193,-2.0592l-0.44244,0.7592l3.12437,1.3z" fill="#818181" id="svg_11"/>
   <path d="m11.6415,26.9587l-3.00417,-1.5622l-0.30042,0.8248l3.30459,0.7374z" fill="#818181" id="svg_12"/>
   <path d="m11.3244,28.1429l-3.2281,-1.0159l-0.15294,0.8684l3.38104,0.1475z" fill="#818181" id="svg_13"/>
   <path d="m11.2156,29.3667l-3.35378,-0.437l0,0.8794l3.35378,-0.4424z" fill="#818181" id="svg_14"/>
   <path d="m11.3244,30.5898l-3.38104,0.153l0.15294,0.863l3.2281,-1.016z" fill="#818181" id="svg_15"/>
   <path d="m11.6415,31.7812l-3.30459,0.732l0.30042,0.8302l3.00417,-1.5622z" fill="#818181" id="svg_16"/>
   <path d="m12.1605,32.8965l-3.12437,1.2945l0.44244,0.7647l2.68193,-2.0592z" fill="#818181" id="svg_17"/>
   <path d="m12.8649,33.9004l-2.8512,1.8189l0.568,0.6773l2.2832,-2.4962z" fill="#818181" id="svg_18"/>
   <path d="m13.7334,34.7676l-2.4907,2.2886l0.6718,0.5681l1.8189,-2.8567z" fill="#818181" id="svg_19"/>
   <path d="m14.7438,35.4727l-2.0592,2.6873l0.7592,0.437l1.3,-3.1243z" fill="#818181" id="svg_20"/>
   <path d="m15.8581,35.9902l-1.5622,3.0042l0.8248,0.3004l0.7374,-3.3046z" fill="#818181" id="svg_21"/>
   <path d="m17.0438,36.3145l-1.016,3.2226l0.8685,0.1529l0.1475,-3.3755z" fill="#818181" id="svg_22"/>
   <path d="m18.267,36.418l-0.4369,3.3537l0.8794,0l-0.4425,-3.3537z" fill="#818181" id="svg_23"/>
   <path d="m19.4907,36.3145l0.153,3.3755l0.863,-0.1529l-1.016,-3.2226z" fill="#818181" id="svg_24"/>
   <path d="m20.6816,35.9902l0.732,3.3046l0.8302,-0.3004l-1.5622,-3.0042z" fill="#818181" id="svg_25"/>
   <path d="m21.7954,35.4727l1.2945,3.1243l0.7647,-0.437l-2.0592,-2.6873z" fill="#818181" id="svg_26"/>
   <path d="m22.8008,34.7676l1.8189,2.8567l0.6773,-0.5681l-2.4962,-2.2886z" fill="#818181" id="svg_27"/>
   <path d="m23.6689,33.9004l2.2887,2.4962l0.568,-0.6773l-2.8567,-1.8189z" fill="#818181" id="svg_28"/>
   <path d="m24.3735,32.8965l2.6874,2.0592l0.437,-0.7647l-3.1244,-1.2945z" fill="#818181" id="svg_29"/>
   <path d="m24.8926,31.7812l3.0041,1.5622l0.3005,-0.8302l-3.3046,-0.732z" fill="#818181" id="svg_30"/>
   <path d="m25.2148,30.5898l3.2227,1.016l0.1529,-0.863l-3.3756,-0.153z" fill="#818181" id="svg_31"/>
   <path d="m25.3188,29.3667l3.3538,0.4424l0,-0.8794l-3.3538,0.437z" fill="#818181" id="svg_32"/>
   <path d="m25.2148,28.1429l3.3756,-0.1475l-0.1529,-0.8684l-3.2227,1.0159z" fill="#818181" id="svg_33"/>
   <path d="m24.8926,26.9587l3.3046,-0.7374l-0.3005,-0.8248l-3.0041,1.5622z" fill="#818181" id="svg_34"/>
   <path d="m24.3735,25.8444l3.1244,-1.3l-0.437,-0.7592l-2.6874,2.0592z" fill="#818181" id="svg_35"/>
   <path d="m23.6689,24.8325l2.8567,-1.8189l-0.568,-0.6718l-2.2887,2.4907z" fill="#818181" id="svg_36"/>
   <path d="m22.8008,23.9645l2.4962,-2.2832l-0.6773,-0.568l-1.8189,2.8512z" fill="#818181" id="svg_37"/>
   <path d="m21.7954,23.2591l2.0592,-2.6819l-0.7647,-0.4424l-1.2945,3.1243z" fill="#818181" id="svg_38"/>
   <path d="m20.6816,22.7401l1.5622,-3.0041l-0.8302,-0.3005l-0.732,3.3046z" fill="#818181" id="svg_39"/>
   <path d="m19.4907,22.424l1.016,-3.2281l-0.863,-0.1529l-0.153,3.381z" fill="#818181" id="svg_40"/>
  </g>
  <circle cx="18.2673" cy="29.3669" r="7.63059" fill="#EAEAEA" id="svg_41"/>
  <path d="m14.3364,50.8711l8.3243,0l-0.6937,2.7748l-6.9369,0l-0.6937,-2.7748z" fill="#ACACAC" id="svg_42"/>
  <path d="m17.1113,53.6445l2.3123,0l-0.1927,0.925l-1.9269,0l-0.1927,-0.925z" fill="#D0D0D0" id="svg_43"/>
  <path d="m0,45.7832l7.86182,0l0,7.3994l-3.93091,0l-3.93091,-1.9472l0,-5.4522z" fill="#BBBBBB" id="svg_44"/>
  <path d="m36.5347,45.7832l-7.8619,0l0,7.3994l3.931,0l3.9309,-1.9472l0,-5.4522z" fill="#BBBBBB" id="svg_45"/>
  <rect x="4.16211" y="45.7832" width="28.2101" height="5.54952" fill="#CFCFCF" id="svg_46"/>
  <rect x="4.16211" y="47.1699" width="28.2101" height="4.16214" fill="#DDDDDD" id="svg_47"/>
  <ellipse cx="18.267" cy="8.09213" rx="4.85583" ry="0.69369" fill="#8C8C8C" id="svg_48"/>
  <path fill-rule="evenodd" clip-rule="evenodd" d="m22.1982,0l-7.3994,0l0,7.8609l0,0.00092l0,0c0.004,0.25499 1.6589,0.46154 3.6997,0.46154c2.0408,0 3.6957,-0.20655 3.6997,-0.46154l0,0l0,-0.00092l0,-7.8609z" fill="#C0C0C0" id="svg_49"/>
  <rect x="16.3765" y="1.39844" width="4.45362" height="5.34435" rx="1" fill="#D2D2D2" id="svg_50"/>
 </g>

</svg>