<svg width="120" height="120" viewBox="0 0 120 120" fill="none" xmlns="http://www.w3.org/2000/svg">
<rect width="120" height="120" fill="#C4C4C4" fill-opacity="0.19"/>
<path d="M32.94 50.94C32.94 51.78 32.7467 52.5267 32.36 53.18C31.9733 53.82 31.4067 54.32 30.66 54.68C29.9133 55.04 29.0267 55.22 28 55.22C26.5733 55.22 25.3533 54.8867 24.34 54.22C23.3267 53.5533 22.66 52.6667 22.34 51.56L23.78 50.72C24.14 51.64 24.6733 52.3467 25.38 52.84C26.0867 53.3333 26.9667 53.58 28.02 53.58C28.98 53.58 29.7267 53.3667 30.26 52.94C30.7933 52.5133 31.06 51.92 31.06 51.16C31.06 50.5467 30.8933 50.0533 30.56 49.68C30.2267 49.2933 29.8133 48.9933 29.32 48.78C28.84 48.5667 28.1733 48.3333 27.32 48.08C26.3733 47.8 25.6067 47.5333 25.02 47.28C24.4467 47.0267 23.96 46.6467 23.56 46.14C23.16 45.6333 22.96 44.9667 22.96 44.14C22.96 43.3 23.1733 42.58 23.6 41.98C24.0267 41.3667 24.6133 40.9067 25.36 40.6C26.12 40.28 26.9667 40.12 27.9 40.12C29.2067 40.12 30.26 40.4067 31.06 40.98C31.8733 41.5533 32.42 42.28 32.7 43.16L31.26 44C30.9533 43.2933 30.5267 42.74 29.98 42.34C29.4467 41.94 28.7333 41.74 27.84 41.74C26.9333 41.74 26.2067 41.9467 25.66 42.36C25.1133 42.76 24.84 43.3 24.84 43.98C24.84 44.4867 24.9867 44.9 25.28 45.22C25.5867 45.54 25.9667 45.7933 26.42 45.98C26.8733 46.1667 27.4933 46.3733 28.28 46.6C29.28 46.8933 30.0867 47.18 30.7 47.46C31.3133 47.74 31.84 48.16 32.28 48.72C32.72 49.28 32.94 50.02 32.94 50.94ZM39.2048 40.36C40.6315 40.36 41.9115 40.6467 43.0448 41.22C44.1915 41.7933 45.0915 42.6333 45.7448 43.74C46.3982 44.8333 46.7248 46.14 46.7248 47.66C46.7248 49.1933 46.3982 50.5133 45.7448 51.62C45.1048 52.7133 44.2115 53.5533 43.0648 54.14C41.9315 54.7133 40.6448 55 39.2048 55H35.2048V40.36H39.2048ZM38.9648 53.42C40.8048 53.42 42.2448 52.92 43.2848 51.92C44.3248 50.92 44.8448 49.5 44.8448 47.66C44.8448 45.8467 44.3182 44.44 43.2648 43.44C42.2248 42.4267 40.7915 41.92 38.9648 41.92H36.9848V53.42H38.9648ZM60.7528 53.58C62.3528 53.58 63.5261 52.84 64.2728 51.36L65.7128 52.2C65.2995 53.1467 64.6595 53.8867 63.7928 54.42C62.9261 54.9533 61.9261 55.22 60.7928 55.22C59.5528 55.22 58.4261 54.9 57.4128 54.26C56.3995 53.62 55.5995 52.7267 55.0128 51.58C54.4261 50.4333 54.1328 49.1267 54.1328 47.66C54.1328 46.1933 54.4261 44.8867 55.0128 43.74C55.5995 42.5933 56.3995 41.7067 57.4128 41.08C58.4261 40.44 59.5528 40.12 60.7928 40.12C61.9261 40.12 62.9261 40.3867 63.7928 40.92C64.6595 41.4533 65.2995 42.1933 65.7128 43.14L64.2728 43.98C63.5261 42.5 62.3528 41.76 60.7528 41.76C59.8195 41.76 58.9928 42.0067 58.2728 42.5C57.5528 42.9933 56.9928 43.6867 56.5928 44.58C56.2061 45.4733 56.0128 46.5 56.0128 47.66C56.0128 48.82 56.2061 49.8533 56.5928 50.76C56.9928 51.6533 57.5528 52.3467 58.2728 52.84C58.9928 53.3333 59.8195 53.58 60.7528 53.58ZM71.7002 44.38C72.8735 44.38 73.8335 44.74 74.5802 45.46C75.3268 46.1667 75.7002 47.18 75.7002 48.5V55H74.2002C74.1602 54.32 74.1335 53.88 74.1202 53.68C73.8002 54.1867 73.3668 54.5733 72.8202 54.84C72.2868 55.0933 71.6735 55.22 70.9802 55.22C70.3135 55.22 69.6868 55.1 69.1002 54.86C68.5268 54.6067 68.0668 54.24 67.7202 53.76C67.3735 53.2667 67.2002 52.68 67.2002 52C67.2002 50.9733 67.6135 50.1667 68.4402 49.58C69.2802 48.98 70.3602 48.68 71.6802 48.68C72.4268 48.68 73.2002 48.78 74.0002 48.98V48.8C74.0002 47.8267 73.8002 47.1067 73.4002 46.64C73.0135 46.16 72.4202 45.92 71.6202 45.92C70.9802 45.92 70.4468 46.0533 70.0202 46.32C69.5935 46.5867 69.2335 46.98 68.9402 47.5L67.6402 46.76C67.9602 46.04 68.4802 45.4667 69.2002 45.04C69.9335 44.6 70.7668 44.38 71.7002 44.38ZM74.0002 50.4C73.1602 50.1867 72.3935 50.08 71.7002 50.08C70.8335 50.08 70.1602 50.2467 69.6802 50.58C69.2135 50.9133 68.9802 51.38 68.9802 51.98C68.9802 52.54 69.1802 52.98 69.5802 53.3C69.9802 53.6067 70.5002 53.76 71.1402 53.76C71.9268 53.76 72.6002 53.5333 73.1602 53.08C73.7202 52.6133 74.0002 51.9733 74.0002 51.16V50.4ZM82.9781 44.38C83.2981 44.38 83.5915 44.4267 83.8581 44.52C84.1381 44.6 84.3648 44.7067 84.5381 44.84L83.9181 46.22C83.6515 46.06 83.3315 45.98 82.9581 45.98C82.1848 45.98 81.5515 46.3 81.0581 46.94C80.5648 47.5667 80.3181 48.4867 80.3181 49.7V55H78.6181V44.62H80.1181C80.1448 45.2867 80.1848 45.8533 80.2381 46.32C80.8248 45.0267 81.7381 44.38 82.9781 44.38ZM92.8141 39.78H94.5141V55H93.0141C92.9874 54.3067 92.9474 53.72 92.8941 53.24C92.5207 53.9067 92.0207 54.4067 91.3941 54.74C90.7807 55.06 90.1274 55.22 89.4341 55.22C88.6341 55.22 87.8807 55.0067 87.1741 54.58C86.4807 54.1533 85.9207 53.5333 85.4941 52.72C85.0674 51.8933 84.8541 50.92 84.8541 49.8C84.8541 48.6933 85.0674 47.7333 85.4941 46.92C85.9207 46.0933 86.4807 45.4667 87.1741 45.04C87.8807 44.6 88.6341 44.38 89.4341 44.38C90.1007 44.38 90.7341 44.5333 91.3341 44.84C91.9341 45.1467 92.4274 45.6067 92.8141 46.22V39.78ZM89.6341 53.62C90.5007 53.62 91.2474 53.3133 91.8741 52.7C92.5007 52.0867 92.8141 51.12 92.8141 49.8C92.8141 48.4933 92.5007 47.5333 91.8741 46.92C91.2474 46.3067 90.5007 46 89.6341 46C88.7274 46 88.0007 46.3333 87.4541 47C86.9074 47.6667 86.6341 48.6 86.6341 49.8C86.6341 51.0133 86.9074 51.9533 87.4541 52.62C88.0007 53.2867 88.7274 53.62 89.6341 53.62ZM28.24 63.36C29.2267 63.36 30.1067 63.5533 30.88 63.94C31.6667 64.3267 32.28 64.8667 32.72 65.56C33.16 66.24 33.38 67.02 33.38 67.9C33.38 68.78 33.16 69.5667 32.72 70.26C32.2933 70.94 31.6867 71.4733 30.9 71.86C30.1267 72.2333 29.24 72.42 28.24 72.42H25.52V78H23.74V63.36H28.24ZM28.02 70.86C29.14 70.86 30 70.5867 30.6 70.04C31.2 69.48 31.5 68.7667 31.5 67.9C31.5 67.0333 31.2 66.32 30.6 65.76C30 65.2 29.14 64.92 28.02 64.92H25.52V70.86H28.02ZM39.775 67.38C40.095 67.38 40.3883 67.4267 40.655 67.52C40.935 67.6 41.1617 67.7067 41.335 67.84L40.715 69.22C40.4483 69.06 40.1283 68.98 39.755 68.98C38.9817 68.98 38.3483 69.3 37.855 69.94C37.3617 70.5667 37.115 71.4867 37.115 72.7V78H35.415V67.62H36.915C36.9417 68.2867 36.9817 68.8533 37.035 69.32C37.6217 68.0267 38.535 67.38 39.775 67.38ZM43.7555 65.76C43.4488 65.76 43.1821 65.6467 42.9555 65.42C42.7421 65.18 42.6355 64.9067 42.6355 64.6C42.6355 64.2933 42.7421 64.0267 42.9555 63.8C43.1821 63.56 43.4488 63.44 43.7555 63.44C44.0755 63.44 44.3421 63.5533 44.5555 63.78C44.7821 64.0067 44.8955 64.28 44.8955 64.6C44.8955 64.9067 44.7821 65.18 44.5555 65.42C44.3288 65.6467 44.0621 65.76 43.7555 65.76ZM44.5955 78H42.8955V67.62H44.5955V78ZM52.7397 67.38C53.8464 67.38 54.733 67.7467 55.3997 68.48C56.0664 69.2133 56.3997 70.2533 56.3997 71.6V78H54.6997V72.08C54.6997 71.0933 54.4997 70.3333 54.0997 69.8C53.713 69.2667 53.133 69 52.3597 69C51.853 69 51.373 69.12 50.9197 69.36C50.4797 69.5867 50.1197 69.9333 49.8397 70.4C49.5597 70.8533 49.4197 71.42 49.4197 72.1V78H47.7197V67.62H49.2197C49.2464 68.2867 49.2864 68.86 49.3397 69.34C49.6864 68.7 50.153 68.2133 50.7397 67.88C51.3397 67.5467 52.0064 67.38 52.7397 67.38ZM64.9613 77.66C64.4146 78.0333 63.7146 78.22 62.8613 78.22C60.7679 78.22 59.7213 77.0267 59.7213 74.64V69.08H58.0013V67.6H59.7213V64.7H61.4213V67.6H64.4413V69.08H61.4213V74.44C61.4213 75.8933 61.9679 76.62 63.0612 76.62C63.5413 76.62 63.9879 76.5 64.4013 76.26L64.9613 77.66ZM67.5445 65.76C67.2379 65.76 66.9712 65.6467 66.7445 65.42C66.5312 65.18 66.4245 64.9067 66.4245 64.6C66.4245 64.2933 66.5312 64.0267 66.7445 63.8C66.9712 63.56 67.2379 63.44 67.5445 63.44C67.8645 63.44 68.1312 63.5533 68.3445 63.78C68.5712 64.0067 68.6845 64.28 68.6845 64.6C68.6845 64.9067 68.5712 65.18 68.3445 65.42C68.1179 65.6467 67.8512 65.76 67.5445 65.76ZM68.3845 78H66.6845V67.62H68.3845V78ZM76.5288 67.38C77.6354 67.38 78.5221 67.7467 79.1888 68.48C79.8554 69.2133 80.1888 70.2533 80.1888 71.6V78H78.4888V72.08C78.4888 71.0933 78.2888 70.3333 77.8888 69.8C77.5021 69.2667 76.9221 69 76.1488 69C75.6421 69 75.1621 69.12 74.7088 69.36C74.2688 69.5867 73.9088 69.9333 73.6288 70.4C73.3488 70.8533 73.2088 71.42 73.2088 72.1V78H71.5088V67.62H73.0088C73.0354 68.2867 73.0754 68.86 73.1288 69.34C73.4754 68.7 73.9421 68.2133 74.5288 67.88C75.1288 67.5467 75.7954 67.38 76.5288 67.38ZM92.1703 67.6V77.34C92.1703 79.3533 91.6903 80.78 90.7303 81.62C89.7703 82.46 88.6303 82.88 87.3103 82.88C86.2836 82.88 85.3703 82.66 84.5703 82.22C83.7703 81.78 83.2236 81.16 82.9303 80.36L84.3103 79.58C84.8303 80.7133 85.837 81.28 87.3303 81.28C88.3036 81.28 89.0703 80.9867 89.6303 80.4C90.1903 79.8133 90.4703 78.78 90.4703 77.3V76.4C90.0836 77.0133 89.5903 77.4733 88.9903 77.78C88.4036 78.0733 87.7703 78.22 87.0903 78.22C86.3036 78.22 85.557 78.0067 84.8503 77.58C84.157 77.14 83.5903 76.5133 83.1503 75.7C82.7236 74.8733 82.5103 73.9067 82.5103 72.8C82.5103 71.6933 82.7236 70.7267 83.1503 69.9C83.577 69.0733 84.1436 68.4467 84.8503 68.02C85.557 67.5933 86.3036 67.38 87.0903 67.38C87.7836 67.38 88.437 67.5467 89.0503 67.88C89.677 68.2133 90.177 68.7067 90.5503 69.36C90.617 68.7333 90.657 68.1467 90.6703 67.6H92.1703ZM87.2903 76.62C88.157 76.62 88.9036 76.3133 89.5303 75.7C90.157 75.0867 90.4703 74.12 90.4703 72.8C90.4703 71.4933 90.157 70.5333 89.5303 69.92C88.9036 69.3067 88.157 69 87.2903 69C86.3836 69 85.657 69.3333 85.1103 70C84.5636 70.6667 84.2903 71.6 84.2903 72.8C84.2903 74.0133 84.5636 74.9533 85.1103 75.62C85.657 76.2867 86.3836 76.62 87.2903 76.62Z" fill="black"/>
</svg>
