<svg width="36" height="55" xmlns="http://www.w3.org/2000/svg" fill="none">

 <g>
  <title>Layer 1</title>
  <path id="svg_1" fill="#ACACAC" d="m0,17.7823c0,-5.7348 4.64904,-10.38386 10.3839,-10.38386l15.7665,0c5.7349,0 10.384,4.64906 10.384,10.38396l0,33.0873l-36.5344,0l0,-33.0874z"/>
  <path id="svg_2" fill="#C0C0C0" d="m4.16211,18.8875c0,-4.3011 3.48678,-7.7879 7.78789,-7.7879l12.6343,0c4.3011,0 7.7879,3.4868 7.7879,7.7879l0,27.8215l-28.21009,0l0,-27.8215z"/>
  <circle id="svg_3" fill="#BABABA" r="10.4054" cy="29.3663" cx="18.2672"/>
  <g id="svg_4" opacity="0.35">
   <path id="svg_5" fill="#818181" d="m18.267,22.3147l0.4425,-3.3538l-0.8794,0l0.4369,3.3538z"/>
   <path id="svg_6" fill="#818181" d="m17.0438,22.424l-0.1475,-3.381l-0.8685,0.1529l1.016,3.2281z"/>
   <path id="svg_7" fill="#818181" d="m15.8581,22.7401l-0.7374,-3.3046l-0.8248,0.3005l1.5622,3.0041z"/>
   <path id="svg_8" fill="#818181" d="m14.7438,23.2591l-1.3,-3.1243l-0.7592,0.4424l2.0592,2.6819z"/>
   <path id="svg_9" fill="#818181" d="m13.7334,23.9645l-1.8189,-2.8512l-0.6718,0.568l2.4907,2.2832z"/>
   <path id="svg_10" fill="#818181" d="m12.8649,24.8325l-2.2832,-2.4907l-0.568,0.6718l2.8512,1.8189z"/>
   <path id="svg_11" fill="#818181" d="m12.1605,25.8444l-2.68193,-2.0592l-0.44244,0.7592l3.12437,1.3z"/>
   <path id="svg_12" fill="#818181" d="m11.6415,26.9587l-3.00417,-1.5622l-0.30042,0.8248l3.30459,0.7374z"/>
   <path id="svg_13" fill="#818181" d="m11.3244,28.1429l-3.2281,-1.0159l-0.15294,0.8684l3.38104,0.1475z"/>
   <path id="svg_14" fill="#818181" d="m11.2156,29.3667l-3.35378,-0.437l0,0.8794l3.35378,-0.4424z"/>
   <path id="svg_15" fill="#818181" d="m11.3244,30.5898l-3.38104,0.153l0.15294,0.863l3.2281,-1.016z"/>
   <path id="svg_16" fill="#818181" d="m11.6415,31.7812l-3.30459,0.732l0.30042,0.8302l3.00417,-1.5622z"/>
   <path id="svg_17" fill="#818181" d="m12.1605,32.8965l-3.12437,1.2945l0.44244,0.7647l2.68193,-2.0592z"/>
   <path id="svg_18" fill="#818181" d="m12.8649,33.9004l-2.8512,1.8189l0.568,0.6773l2.2832,-2.4962z"/>
   <path id="svg_19" fill="#818181" d="m13.7334,34.7676l-2.4907,2.2886l0.6718,0.5681l1.8189,-2.8567z"/>
   <path id="svg_20" fill="#818181" d="m14.7438,35.4727l-2.0592,2.6873l0.7592,0.437l1.3,-3.1243z"/>
   <path id="svg_21" fill="#818181" d="m15.8581,35.9902l-1.5622,3.0042l0.8248,0.3004l0.7374,-3.3046z"/>
   <path id="svg_22" fill="#818181" d="m17.0438,36.3145l-1.016,3.2226l0.8685,0.1529l0.1475,-3.3755z"/>
   <path id="svg_23" fill="#818181" d="m18.267,36.418l-0.4369,3.3537l0.8794,0l-0.4425,-3.3537z"/>
   <path id="svg_24" fill="#818181" d="m19.4907,36.3145l0.153,3.3755l0.863,-0.1529l-1.016,-3.2226z"/>
   <path id="svg_25" fill="#818181" d="m20.6816,35.9902l0.732,3.3046l0.8302,-0.3004l-1.5622,-3.0042z"/>
   <path id="svg_26" fill="#818181" d="m21.7954,35.4727l1.2945,3.1243l0.7647,-0.437l-2.0592,-2.6873z"/>
   <path id="svg_27" fill="#818181" d="m22.8008,34.7676l1.8189,2.8567l0.6773,-0.5681l-2.4962,-2.2886z"/>
   <path id="svg_28" fill="#818181" d="m23.6689,33.9004l2.2887,2.4962l0.568,-0.6773l-2.8567,-1.8189z"/>
   <path id="svg_29" fill="#818181" d="m24.3735,32.8965l2.6874,2.0592l0.437,-0.7647l-3.1244,-1.2945z"/>
   <path id="svg_30" fill="#818181" d="m24.8926,31.7812l3.0041,1.5622l0.3005,-0.8302l-3.3046,-0.732z"/>
   <path id="svg_31" fill="#818181" d="m25.2148,30.5898l3.2227,1.016l0.1529,-0.863l-3.3756,-0.153z"/>
   <path id="svg_32" fill="#818181" d="m25.3188,29.3667l3.3538,0.4424l0,-0.8794l-3.3538,0.437z"/>
   <path id="svg_33" fill="#818181" d="m25.2148,28.1429l3.3756,-0.1475l-0.1529,-0.8684l-3.2227,1.0159z"/>
   <path id="svg_34" fill="#818181" d="m24.8926,26.9587l3.3046,-0.7374l-0.3005,-0.8248l-3.0041,1.5622z"/>
   <path id="svg_35" fill="#818181" d="m24.3735,25.8444l3.1244,-1.3l-0.437,-0.7592l-2.6874,2.0592z"/>
   <path id="svg_36" fill="#818181" d="m23.6689,24.8325l2.8567,-1.8189l-0.568,-0.6718l-2.2887,2.4907z"/>
   <path id="svg_37" fill="#818181" d="m22.8008,23.9645l2.4962,-2.2832l-0.6773,-0.568l-1.8189,2.8512z"/>
   <path id="svg_38" fill="#818181" d="m21.7954,23.2591l2.0592,-2.6819l-0.7647,-0.4424l-1.2945,3.1243z"/>
   <path id="svg_39" fill="#818181" d="m20.6816,22.7401l1.5622,-3.0041l-0.8302,-0.3005l-0.732,3.3046z"/>
   <path id="svg_40" fill="#818181" d="m19.4907,22.424l1.016,-3.2281l-0.863,-0.1529l-0.153,3.381z"/>
  </g>
  <circle id="svg_41" fill="#FFDD2C" r="7.63059" cy="29.3669" cx="18.2673"/>
  <path id="svg_42" fill="#ACACAC" d="m14.3364,50.8711l8.3243,0l-0.6937,2.7748l-6.9369,0l-0.6937,-2.7748z"/>
  <path id="svg_43" fill="#D0D0D0" d="m17.1113,53.6445l2.3123,0l-0.1927,0.925l-1.9269,0l-0.1927,-0.925z"/>
  <path id="svg_44" fill="#BBBBBB" d="m0,45.7832l7.86182,0l0,7.3994l-3.93091,0l-3.93091,-1.9472l0,-5.4522z"/>
  <path id="svg_45" fill="#BBBBBB" d="m36.5347,45.7832l-7.8619,0l0,7.3994l3.931,0l3.9309,-1.9472l0,-5.4522z"/>
  <rect id="svg_46" fill="#CFCFCF" height="5.54952" width="28.2101" y="45.7832" x="4.16211"/>
  <rect id="svg_47" fill="#DDDDDD" height="4.16214" width="28.2101" y="47.1699" x="4.16211"/>
  <ellipse id="svg_48" fill="#8C8C8C" ry="0.69369" rx="4.85583" cy="8.09213" cx="18.267"/>
  <path id="svg_49" fill="#C0C0C0" d="m22.1982,0l-7.3994,0l0,7.8609l0,0.00092l0,0c0.004,0.25499 1.6589,0.46154 3.6997,0.46154c2.0408,0 3.6957,-0.20655 3.6997,-0.46154l0,0l0,-0.00092l0,-7.8609z" clip-rule="evenodd" fill-rule="evenodd"/>
  <rect id="svg_50" fill="#D2D2D2" rx="1" height="5.34435" width="4.45362" y="1.39844" x="16.3765"/>
 </g>
</svg>