<svg width="36" height="37" viewBox="0 0 36 37" fill="none" xmlns="http://www.w3.org/2000/svg">
<rect x="35" y="5" width="34" height="4" rx="2" transform="rotate(-180 35 5)" fill="#AEAEAE"/>
<path d="M19.5 12C19.5 11.1716 18.8284 10.5 18 10.5C17.1716 10.5 16.5 11.1716 16.5 12L19.5 12ZM16.9393 36.0607C17.5251 36.6464 18.4749 36.6464 19.0607 36.0607L28.6066 26.5147C29.1924 25.9289 29.1924 24.9792 28.6066 24.3934C28.0208 23.8076 27.0711 23.8076 26.4853 24.3934L18 32.8787L9.51472 24.3934C8.92893 23.8076 7.97918 23.8076 7.3934 24.3934C6.80761 24.9792 6.80761 25.9289 7.3934 26.5147L16.9393 36.0607ZM16.5 12L16.5 35L19.5 35L19.5 12L16.5 12Z" fill="#AEAEAE"/>
</svg>
