<svg width="14" height="14" viewBox="0 0 14 14" fill="none" xmlns="http://www.w3.org/2000/svg">
<path d="M11.7394 6.99996C11.7394 5.74294 11.2401 4.53741 10.3512 3.64857C9.46238 2.75972 8.25685 2.26038 6.99984 2.26038C5.74282 2.26038 4.53729 2.75972 3.64845 3.64857C2.7596 4.53741 2.26025 5.74294 2.26025 6.99996C2.26025 8.25697 2.7596 9.46251 3.64845 10.3514C4.53729 11.2402 5.74282 11.7395 6.99984 11.7395C8.25685 11.7395 9.46238 11.2402 10.3512 10.3514C11.2401 9.46251 11.7394 8.25697 11.7394 6.99996ZM1.1665 6.99996C1.1665 5.45286 1.78109 3.96913 2.87505 2.87517C3.96901 1.78121 5.45274 1.16663 6.99984 1.16663C8.54693 1.16663 10.0307 1.78121 11.1246 2.87517C12.2186 3.96913 12.8332 5.45286 12.8332 6.99996C12.8332 8.54706 12.2186 10.0308 11.1246 11.1247C10.0307 12.2187 8.54693 12.8333 6.99984 12.8333C5.45274 12.8333 3.96901 12.2187 2.87505 11.1247C1.78109 10.0308 1.1665 8.54706 1.1665 6.99996ZM5.03564 4.93323C5.21566 4.42509 5.69873 4.08329 6.23877 4.08329H7.56722C8.36247 4.08329 9.00505 4.72815 9.00505 5.52112C9.00505 6.03609 8.72933 6.51233 8.28271 6.76982L7.54671 7.19137C7.54215 7.48759 7.29834 7.72913 6.99984 7.72913C6.69678 7.72913 6.45296 7.48531 6.45296 7.18225V6.87463C6.45296 6.67867 6.55778 6.49866 6.72868 6.40068L7.73812 5.8219C7.84521 5.76038 7.9113 5.64644 7.9113 5.5234C7.9113 5.33199 7.75635 5.17932 7.56722 5.17932H6.23877C6.1613 5.17932 6.09294 5.22717 6.06787 5.30009L6.05876 5.32743C5.9585 5.61226 5.64404 5.76038 5.36149 5.66012C5.07894 5.55985 4.92855 5.2454 5.02881 4.96285L5.03792 4.93551L5.03564 4.93323ZM6.27067 9.18746C6.27067 8.99407 6.34749 8.80861 6.48424 8.67186C6.62098 8.53512 6.80645 8.45829 6.99984 8.45829C7.19322 8.45829 7.37869 8.53512 7.51544 8.67186C7.65218 8.80861 7.729 8.99407 7.729 9.18746C7.729 9.38085 7.65218 9.56631 7.51544 9.70306C7.37869 9.8398 7.19322 9.91663 6.99984 9.91663C6.80645 9.91663 6.62098 9.8398 6.48424 9.70306C6.34749 9.56631 6.27067 9.38085 6.27067 9.18746Z" fill="#262E30"/>
</svg>
