<svg width="14" height="14" viewBox="0 0 14 14" fill="none" xmlns="http://www.w3.org/2000/svg">
<path d="M11.7394 6.99984C11.7394 5.74282 11.2401 4.53729 10.3512 3.64845C9.46238 2.7596 8.25685 2.26025 6.99984 2.26025C5.74282 2.26025 4.53729 2.7596 3.64845 3.64845C2.7596 4.53729 2.26025 5.74282 2.26025 6.99984C2.26025 8.25685 2.7596 9.46238 3.64845 10.3512C4.53729 11.2401 5.74282 11.7394 6.99984 11.7394C8.25685 11.7394 9.46238 11.2401 10.3512 10.3512C11.2401 9.46238 11.7394 8.25685 11.7394 6.99984ZM1.1665 6.99984C1.1665 5.45274 1.78109 3.96901 2.87505 2.87505C3.96901 1.78109 5.45274 1.1665 6.99984 1.1665C8.54693 1.1665 10.0307 1.78109 11.1246 2.87505C12.2186 3.96901 12.8332 5.45274 12.8332 6.99984C12.8332 8.54693 12.2186 10.0307 11.1246 11.1246C10.0307 12.2186 8.54693 12.8332 6.99984 12.8332C5.45274 12.8332 3.96901 12.2186 2.87505 11.1246C1.78109 10.0307 1.1665 8.54693 1.1665 6.99984ZM5.03564 4.93311C5.21566 4.42497 5.69873 4.08317 6.23877 4.08317H7.56722C8.36247 4.08317 9.00505 4.72803 9.00505 5.521C9.00505 6.03597 8.72933 6.51221 8.28271 6.76969L7.54671 7.19124C7.54215 7.48747 7.29834 7.729 6.99984 7.729C6.69678 7.729 6.45296 7.48519 6.45296 7.18213V6.87451C6.45296 6.67855 6.55778 6.49854 6.72868 6.40055L7.73812 5.82178C7.84521 5.76025 7.9113 5.64632 7.9113 5.52327C7.9113 5.33187 7.75635 5.1792 7.56722 5.1792H6.23877C6.1613 5.1792 6.09294 5.22705 6.06787 5.29997L6.05876 5.32731C5.9585 5.61214 5.64404 5.76025 5.36149 5.65999C5.07894 5.55973 4.92855 5.24528 5.02881 4.96273L5.03792 4.93538L5.03564 4.93311ZM6.27067 9.18734C6.27067 8.99395 6.34749 8.80848 6.48424 8.67174C6.62098 8.53499 6.80645 8.45817 6.99984 8.45817C7.19322 8.45817 7.37869 8.53499 7.51544 8.67174C7.65218 8.80848 7.729 8.99395 7.729 9.18734C7.729 9.38072 7.65218 9.56619 7.51544 9.70294C7.37869 9.83968 7.19322 9.9165 6.99984 9.9165C6.80645 9.9165 6.62098 9.83968 6.48424 9.70294C6.34749 9.56619 6.27067 9.38072 6.27067 9.18734Z" fill="#EFEFF0"/>
</svg>
