<svg width="22" height="22" viewBox="0 0 22 22" fill="none" xmlns="http://www.w3.org/2000/svg">
<rect width="22" height="22" rx="4" fill="#E8E8E8"/>
<path d="M14.5286 11.5306L9.52864 16.5306C9.38775 16.6715 9.19665 16.7506 8.99739 16.7506C8.79814 16.7506 8.60704 16.6715 8.46614 16.5306C8.32525 16.3897 8.24609 16.1986 8.24609 15.9993C8.24609 15.8001 8.32525 15.609 8.46614 15.4681L12.9355 11L8.46739 6.5306C8.39763 6.46083 8.34229 6.37801 8.30453 6.28686C8.26678 6.19571 8.24734 6.09801 8.24734 5.99935C8.24734 5.90069 8.26678 5.80299 8.30453 5.71184C8.34229 5.62069 8.39763 5.53786 8.46739 5.4681C8.53716 5.39833 8.61998 5.34299 8.71113 5.30524C8.80229 5.26748 8.89998 5.24805 8.99864 5.24805C9.09731 5.24805 9.195 5.26748 9.28616 5.30524C9.37731 5.34299 9.46013 5.39833 9.52989 5.4681L14.5299 10.4681C14.5997 10.5379 14.6551 10.6207 14.6929 10.7119C14.7306 10.8031 14.75 10.9009 14.7499 10.9996C14.7497 11.0983 14.7301 11.196 14.6922 11.2872C14.6542 11.3783 14.5986 11.461 14.5286 11.5306Z" fill="#808080"/>
</svg>
