<?xml version="1.0" encoding="utf-8"?>
<!-- Generator: Adobe Illustrator 24.1.1, SVG Export Plug-In . SVG Version: 6.00 Build 0)  -->
<svg version="1.1" baseProfile="basic"
	 id="Layer_1" xmlns:cc="http://creativecommons.org/ns#" xmlns:dc="http://purl.org/dc/elements/1.1/" xmlns:inkscape="http://www.inkscape.org/namespaces/inkscape" xmlns:rdf="http://www.w3.org/1999/02/22-rdf-syntax-ns#" xmlns:sodipodi="http://sodipodi.sourceforge.net/DTD/sodipodi-0.dtd" xmlns:svg="http://www.w3.org/2000/svg"
	 xmlns="http://www.w3.org/2000/svg" xmlns:xlink="http://www.w3.org/1999/xlink" x="0px" y="0px" viewBox="0 0 800 800"
	 xml:space="preserve">
<sodipodi:namedview  bordercolor="#666666" borderopacity="1" gridtolerance="10" guidetolerance="10" id="namedview11" inkscape:current-layer="Layer_1" inkscape:cx="400" inkscape:cy="401.5873" inkscape:document-rotation="0" inkscape:pageopacity="0" inkscape:pageshadow="2" inkscape:window-height="2054" inkscape:window-maximized="0" inkscape:window-width="1918" inkscape:window-x="0" inkscape:window-y="0" inkscape:zoom="1.26" objecttolerance="10" pagecolor="#ffffff" showgrid="false">
	</sodipodi:namedview>
<g>
	<circle fill="#EEEEEE" cx="397.5" cy="412.8" r="364.8"/>
	<g>
		<path fill="#00AE42" d="M380.5,634.4c9.4,12.5,24.7,12.5,34,0l182.3-242.8c9.4-12.5,4.3-22.7-11.3-22.7H209.6
			c-15.6,0-20.7,10.2-11.3,22.7L380.5,634.4z"/>
	</g>
	<g>
		<path fill="#00AE42" d="M608.5,298.7c0,9.4-7.7,17-17,17H200.3c-9.4,0-17-7.7-17-17l0,0c0-9.4,7.7-17,17-17h391.2
			C600.8,281.7,608.5,289.3,608.5,298.7L608.5,298.7z"/>
	</g>
</g>
</svg>
