<svg width="17" height="17" viewBox="0 0 17 17" fill="none" xmlns="http://www.w3.org/2000/svg">
<path d="M8.48881 14.3817C7.05222 14.3817 5.67447 13.811 4.65865 12.7952C3.64283 11.7793 3.07214 10.4016 3.07214 8.96501C3.07214 7.52842 3.64283 6.15067 4.65865 5.13484C5.67447 4.11902 7.05222 3.54834 8.48881 3.54834C9.9254 3.54834 11.3032 4.11902 12.319 5.13484C13.3348 6.15067 13.9055 7.52842 13.9055 8.96501C13.9055 10.4016 13.3348 11.7793 12.319 12.7952C11.3032 13.811 9.9254 14.3817 8.48881 14.3817ZM8.48881 2.29834C6.7207 2.29834 5.02501 3.00072 3.77477 4.25096C2.52452 5.5012 1.82214 7.1969 1.82214 8.96501C1.82214 10.7331 2.52452 12.4288 3.77477 13.6791C5.02501 14.9293 6.7207 15.6317 8.48881 15.6317C10.2569 15.6317 11.9526 14.9293 13.2029 13.6791C14.4531 12.4288 15.1555 10.7331 15.1555 8.96501C15.1555 7.1969 14.4531 5.5012 13.2029 4.25096C11.9526 3.00072 10.2569 2.29834 8.48881 2.29834ZM5.33777 8.57438L8.0461 11.2827C8.29089 11.5275 8.68673 11.5275 8.92891 11.2827L11.6399 8.57438C11.8846 8.32959 11.8846 7.93376 11.6399 7.69157C11.3951 7.44938 10.9992 7.44678 10.757 7.69157L8.49141 9.95719L6.22579 7.69157C5.981 7.44678 5.58516 7.44678 5.34298 7.69157C5.10079 7.93636 5.09819 8.33219 5.34298 8.57438H5.33777Z" fill="#6B6B6B"/>
</svg>
