<svg width="16" height="17" viewBox="0 0 16 17" fill="none" xmlns="http://www.w3.org/2000/svg">
<path d="M8.00016 3.2666C9.43675 3.2666 10.8145 3.83728 11.8303 4.85311C12.8461 5.86893 13.4168 7.24668 13.4168 8.68327C13.4168 10.1199 12.8461 11.4976 11.8303 12.5134C10.8145 13.5293 9.43675 14.0999 8.00016 14.0999C6.56357 14.0999 5.18582 13.5293 4.17 12.5134C3.15418 11.4976 2.5835 10.1199 2.5835 8.68327C2.5835 7.24668 3.15418 5.86893 4.17 4.85311C5.18582 3.83728 6.56357 3.2666 8.00016 3.2666ZM8.00016 15.3499C9.76827 15.3499 11.464 14.6476 12.7142 13.3973C13.9645 12.1471 14.6668 10.4514 14.6668 8.68327C14.6668 6.91516 13.9645 5.21947 12.7142 3.96922C11.464 2.71898 9.76827 2.0166 8.00016 2.0166C6.23205 2.0166 4.53636 2.71898 3.28612 3.96922C2.03588 5.21947 1.3335 6.91516 1.3335 8.68327C1.3335 10.4514 2.03588 12.1471 3.28612 13.3973C4.53636 14.6476 6.23205 15.3499 8.00016 15.3499ZM11.1512 9.07389L8.44287 6.36556C8.19808 6.12077 7.80225 6.12077 7.56006 6.36556L4.84912 9.07389C4.60433 9.31869 4.60433 9.71452 4.84912 9.95671C5.09391 10.1989 5.48975 10.2015 5.73193 9.95671L7.99756 7.69108L10.2632 9.95671C10.508 10.2015 10.9038 10.2015 11.146 9.95671C11.3882 9.71191 11.3908 9.31608 11.146 9.07389H11.1512Z" fill="#6B6B6B"/>
</svg>
