<svg width="12" height="12" viewBox="0 0 12 12" fill="none" xmlns="http://www.w3.org/2000/svg">
<path d="M11.0103 9.75C11.4245 9.75 11.7603 10.0858 11.7603 10.5C11.7603 10.9142 11.4245 11.25 11.0103 11.25H2.01025C1.59613 11.2499 1.26025 10.9142 1.26025 10.5C1.26025 10.0858 1.59613 9.7501 2.01025 9.75H11.0103ZM10.9995 6.75C11.4137 6.75 11.7495 7.08579 11.7495 7.5C11.7495 7.91421 11.4137 8.25 10.9995 8.25H7.99951C7.58542 8.24986 7.24951 7.91413 7.24951 7.5C7.24951 7.08587 7.58542 6.75014 7.99951 6.75H10.9995ZM5.09814 4C5.49059 4.0002 5.72974 4.43174 5.52197 4.76465L3.92432 7.32129C3.72848 7.63462 3.27152 7.63462 3.07568 7.32129L1.47803 4.76465C1.27026 4.43174 1.50941 4.0002 1.90186 4H5.09814ZM10.9995 3.75C11.4137 3.75 11.7495 4.08579 11.7495 4.5C11.7495 4.91421 11.4137 5.25 10.9995 5.25H6.99951C6.58551 5.24975 6.24951 4.91406 6.24951 4.5C6.24951 4.08594 6.58551 3.75025 6.99951 3.75H10.9995ZM11.0103 0.75C11.4245 0.75 11.7603 1.08579 11.7603 1.5C11.7603 1.91421 11.4245 2.25 11.0103 2.25H2.01025C1.59613 2.2499 1.26025 1.91415 1.26025 1.5C1.26025 1.08585 1.59613 0.7501 2.01025 0.75H11.0103Z" fill="#909090"/>
</svg>
