<svg width="12" height="12" viewBox="0 0 12 12" fill="none" xmlns="http://www.w3.org/2000/svg">
<g clip-path="url(#clip0_1002_6911)">
<path d="M11.0107 9.75C11.4249 9.75004 11.7607 10.0858 11.7607 10.5C11.7607 10.9142 11.4249 11.25 11.0107 11.25H2.01074C1.59653 11.25 1.26074 10.9142 1.26074 10.5C1.26074 10.0858 1.59653 9.75 2.01074 9.75H11.0107ZM11 6.75C11.4142 6.75 11.75 7.08579 11.75 7.5C11.75 7.91421 11.4142 8.25 11 8.25H8C7.58579 8.25 7.25 7.91421 7.25 7.5C7.25 7.08579 7.58579 6.75 8 6.75H11ZM3.07617 4.67871C3.27201 4.36538 3.72799 4.36538 3.92383 4.67871L5.52148 7.23535C5.72954 7.56837 5.49034 8 5.09766 8H1.90234C1.50966 8 1.27046 7.56837 1.47852 7.23535L3.07617 4.67871ZM11 3.75C11.4142 3.75 11.75 4.08579 11.75 4.5C11.75 4.91421 11.4142 5.25 11 5.25H7C6.58588 5.24989 6.25 4.91414 6.25 4.5C6.25 4.08586 6.58588 3.75011 7 3.75H11ZM11.0107 0.75C11.4249 0.750038 11.7607 1.08581 11.7607 1.5C11.7607 1.91419 11.4249 2.24996 11.0107 2.25H2.01074C1.59653 2.25 1.26074 1.91421 1.26074 1.5C1.26074 1.08579 1.59653 0.75 2.01074 0.75H11.0107Z" fill="#909090"/>
</g>
<defs>
<clipPath id="clip0_1002_6911">
<rect width="12" height="12" fill="white"/>
</clipPath>
</defs>
</svg>
