<svg width="10" height="10" viewBox="0 0 10 10" fill="none" xmlns="http://www.w3.org/2000/svg">
<g clip-path="url(#clip0_8986_34986)">
<rect x="0.906738" y="0.75" width="8.18652" height="8.5" rx="0.25" stroke="#262E30" stroke-width="0.5"/>
<path fill-rule="evenodd" clip-rule="evenodd" d="M 8.4438 9.1539 H 8.7012 C 8.9773 9.1539 9.2012 8.93 9.2012 8.6539 V 7.7713 C 9.0119 8.272 8.7555 8.7368 8.4438 9.1539 Z M 9.2012 3.8288 C 8.5065 2.1598 6.93 1.034 5.083 1.017 C 2.782 1.027 1.06 2.838 1.055 4.949 C 1.093 7.012 2.315 8.449 4.443 8.472 C 6.229 8.469 7.388 7.067 7.388 5.597 C 7.375 4.094 6.057 3.257 5.137 3.255 C 4.05 3.261 3.288 3.912 3.282 4.997 C 3.286 5.783 3.937 6.291 4.447 6.291 C 5.047 6.277 5.255 5.872 5.259 5.666 C 5.261 5.432 5.065 5.307 4.866 5.481 C 4.53 5.663 4.244 5.057 4.942 4.827 C 5.359 4.73 5.766 5.095 5.77 5.568 C 5.759 6.389 5.152 6.798 4.434 6.814 C 3.429 6.803 2.728 5.942 2.732 4.984 C 2.737 3.612 3.784 2.734 5.14 2.73 C 6.549 2.743 7.93 3.946 7.939 5.584 C 7.922 7.596 6.442 9.017 4.474 9.021 C 2.65 8.999 1.659 8.176 0.848 6.941 C 0.842 6.291 0.848 5.943 0.841 4.933 C 0.842 4.454 0.837 3.979 0.842 3.234 C 1.231 2.331 2.398 0.508 5.0796 0.5 C 6.7957 0.5 8.303 1.4002 9.2012 2.7677 V 3.8288 Z" fill="#262E30"/>
</g>
<defs>
<clipPath id="clip0_8986_34986">
<rect width="10" height="10" fill="white"/>
</clipPath>
</defs>
</svg>
