<svg width="36" height="36" viewBox="0 0 36 36" fill="none" xmlns="http://www.w3.org/2000/svg">
<circle cx="18" cy="18" r="18" fill="#EDEDED"/>
<path d="M17.428 19.518C16.552 19.518 15.832 19.344 15.268 18.996C14.716 18.648 14.314 18.198 14.062 17.646C13.81 17.082 13.684 16.488 13.684 15.864C13.696 15.192 13.864 14.544 14.188 13.92C14.512 13.296 14.986 12.78 15.61 12.372C16.234 11.964 16.996 11.766 17.896 11.778C18.544 11.778 19.114 11.904 19.606 12.156C20.11 12.408 20.536 12.756 20.884 13.2C21.232 13.644 21.496 14.172 21.676 14.784C21.856 15.384 21.946 16.044 21.946 16.764C21.97 17.652 21.862 18.534 21.622 19.41C21.382 20.274 21.01 21.066 20.506 21.786C20.014 22.494 19.372 23.064 18.58 23.496C17.8 23.916 16.864 24.126 15.772 24.126C15.688 24.126 15.562 24.12 15.394 24.108C15.226 24.096 15.052 24.072 14.872 24.036C14.812 24.024 14.758 24 14.71 23.964C14.662 23.928 14.638 23.868 14.638 23.784L14.656 23.082C14.656 22.998 14.668 22.95 14.692 22.938C14.728 22.914 14.782 22.914 14.854 22.938C15.01 22.974 15.172 22.998 15.34 23.01C15.508 23.022 15.646 23.028 15.754 23.028C16.51 23.028 17.176 22.878 17.752 22.578C18.328 22.266 18.808 21.9 19.192 21.48C19.456 21.18 19.678 20.838 19.858 20.454C20.038 20.07 20.182 19.692 20.29 19.32C20.41 18.948 20.5 18.63 20.56 18.366C20.632 18.09 20.674 17.916 20.686 17.844C20.314 18.372 19.834 18.786 19.246 19.086C18.67 19.374 18.064 19.518 17.428 19.518ZM17.878 12.93C17.242 12.918 16.708 13.062 16.276 13.362C15.844 13.65 15.52 14.022 15.304 14.478C15.088 14.922 14.98 15.384 14.98 15.864C14.992 16.308 15.082 16.722 15.25 17.106C15.43 17.49 15.706 17.802 16.078 18.042C16.45 18.282 16.942 18.402 17.554 18.402C18.202 18.402 18.796 18.21 19.336 17.826C19.876 17.43 20.314 16.956 20.65 16.404C20.638 15.516 20.494 14.82 20.218 14.316C19.954 13.812 19.612 13.458 19.192 13.254C18.772 13.038 18.334 12.93 17.878 12.93Z" fill="black"/>
</svg>
