<svg width="36" height="36" viewBox="0 0 36 36" fill="none" xmlns="http://www.w3.org/2000/svg">
<circle cx="18" cy="18" r="18" fill="#EDEDED"/>
<path d="M12.816 24.09C12.432 24.09 12.042 24.042 11.646 23.946C11.25 23.838 10.878 23.694 10.53 23.514C10.194 23.322 9.912 23.094 9.684 22.83C9.648 22.782 9.63 22.74 9.63 22.704C9.63 22.656 9.648 22.608 9.684 22.56L10.152 21.966C10.236 21.87 10.32 21.864 10.404 21.948C10.74 22.284 11.112 22.536 11.52 22.704C11.928 22.872 12.348 22.956 12.78 22.956C13.332 22.956 13.794 22.836 14.166 22.596C14.55 22.344 14.838 22.038 15.03 21.678C15.222 21.306 15.318 20.94 15.318 20.58C15.318 20.196 15.216 19.824 15.012 19.464C14.82 19.092 14.52 18.786 14.112 18.546C13.704 18.294 13.194 18.168 12.582 18.168C12.51 18.168 12.444 18.168 12.384 18.168C12.324 18.168 12.258 18.168 12.186 18.168C12.138 18.168 12.096 18.156 12.06 18.132C12.036 18.108 12.024 18.06 12.024 17.988V17.25C12.024 17.13 12.078 17.07 12.186 17.07C12.246 17.07 12.324 17.07 12.42 17.07C12.516 17.07 12.63 17.07 12.762 17.07C13.266 17.046 13.692 16.926 14.04 16.71C14.388 16.494 14.652 16.224 14.832 15.9C15.012 15.564 15.102 15.228 15.102 14.892C15.102 14.544 15.018 14.226 14.85 13.938C14.682 13.638 14.43 13.392 14.094 13.2C13.758 13.008 13.338 12.912 12.834 12.912C12.438 12.912 12.012 13.002 11.556 13.182C11.112 13.35 10.74 13.56 10.44 13.812C10.32 13.932 10.218 13.926 10.134 13.794L9.738 13.074C9.714 13.026 9.708 12.978 9.72 12.93C9.732 12.882 9.75 12.852 9.774 12.84C10.086 12.6 10.422 12.402 10.782 12.246C11.154 12.09 11.52 11.976 11.88 11.904C12.252 11.832 12.594 11.796 12.906 11.796C13.65 11.796 14.274 11.94 14.778 12.228C15.282 12.504 15.66 12.87 15.912 13.326C16.176 13.782 16.308 14.262 16.308 14.766C16.308 15.342 16.158 15.876 15.858 16.368C15.57 16.86 15.15 17.238 14.598 17.502C14.466 17.55 14.4 17.586 14.4 17.61C14.4 17.622 14.484 17.658 14.652 17.718C15.264 17.97 15.738 18.336 16.074 18.816C16.422 19.296 16.596 19.872 16.596 20.544C16.596 21.132 16.446 21.702 16.146 22.254C15.846 22.794 15.414 23.238 14.85 23.586C14.298 23.922 13.62 24.09 12.816 24.09ZM21.0693 24.09C20.8293 24.09 20.5593 24.06 20.2593 24C19.9593 23.952 19.6593 23.874 19.3593 23.766C19.0713 23.646 18.7953 23.502 18.5313 23.334C18.4953 23.298 18.4653 23.262 18.4413 23.226C18.4293 23.19 18.4353 23.154 18.4593 23.118L18.9273 22.326C18.9633 22.278 18.9993 22.26 19.0353 22.272C19.0833 22.272 19.1253 22.284 19.1613 22.308C19.4973 22.5 19.8153 22.644 20.1153 22.74C20.4153 22.824 20.7333 22.866 21.0693 22.866C21.4293 22.866 21.7833 22.806 22.1313 22.686C22.4793 22.566 22.7973 22.392 23.0853 22.164C23.3733 21.924 23.6013 21.624 23.7693 21.264C23.9493 20.892 24.0393 20.472 24.0393 20.004C24.0393 19.5 23.9253 19.05 23.6973 18.654C23.4813 18.258 23.1513 17.946 22.7073 17.718C22.2753 17.478 21.7413 17.358 21.1053 17.358C20.9253 17.358 20.7273 17.364 20.5113 17.376C20.3073 17.388 20.1033 17.412 19.8993 17.448C19.6953 17.472 19.5033 17.52 19.3233 17.592C19.2033 17.628 19.1193 17.634 19.0713 17.61C19.0353 17.586 19.0173 17.532 19.0173 17.448V12.102C19.0173 12.03 19.0293 11.976 19.0533 11.94C19.0773 11.904 19.1373 11.886 19.2333 11.886H24.1833C24.2433 11.886 24.2853 11.898 24.3093 11.922C24.3333 11.934 24.3453 11.964 24.3453 12.012V12.858C24.3453 12.942 24.2913 12.984 24.1833 12.984H20.3133C20.2173 12.984 20.1693 13.032 20.1693 13.128V16.242C20.1693 16.29 20.1813 16.332 20.2053 16.368C20.2293 16.392 20.2773 16.398 20.3493 16.386C20.5053 16.362 20.6613 16.35 20.8173 16.35C20.9733 16.35 21.1053 16.35 21.2133 16.35C22.1373 16.35 22.8993 16.512 23.4993 16.836C24.1113 17.16 24.5613 17.592 24.8493 18.132C25.1493 18.66 25.2993 19.26 25.2993 19.932C25.3113 20.772 25.1193 21.51 24.7233 22.146C24.3273 22.77 23.8053 23.256 23.1573 23.604C22.5093 23.94 21.8133 24.102 21.0693 24.09Z" fill="black"/>
</svg>
