<svg width="36" height="36" viewBox="0 0 36 36" fill="none" xmlns="http://www.w3.org/2000/svg">
<circle cx="18" cy="18" r="18" fill="#EDEDED"/>
<path d="M14.816 24.09C14.432 24.09 14.042 24.042 13.646 23.946C13.25 23.838 12.878 23.694 12.53 23.514C12.194 23.322 11.912 23.094 11.684 22.83C11.648 22.782 11.63 22.74 11.63 22.704C11.63 22.656 11.648 22.608 11.684 22.56L12.152 21.966C12.236 21.87 12.32 21.864 12.404 21.948C12.74 22.284 13.112 22.536 13.52 22.704C13.928 22.872 14.348 22.956 14.78 22.956C15.332 22.956 15.794 22.836 16.166 22.596C16.55 22.344 16.838 22.038 17.03 21.678C17.222 21.306 17.318 20.94 17.318 20.58C17.318 20.196 17.216 19.824 17.012 19.464C16.82 19.092 16.52 18.786 16.112 18.546C15.704 18.294 15.194 18.168 14.582 18.168C14.51 18.168 14.444 18.168 14.384 18.168C14.324 18.168 14.258 18.168 14.186 18.168C14.138 18.168 14.096 18.156 14.06 18.132C14.036 18.108 14.024 18.06 14.024 17.988V17.25C14.024 17.13 14.078 17.07 14.186 17.07C14.246 17.07 14.324 17.07 14.42 17.07C14.516 17.07 14.63 17.07 14.762 17.07C15.266 17.046 15.692 16.926 16.04 16.71C16.388 16.494 16.652 16.224 16.832 15.9C17.012 15.564 17.102 15.228 17.102 14.892C17.102 14.544 17.018 14.226 16.85 13.938C16.682 13.638 16.43 13.392 16.094 13.2C15.758 13.008 15.338 12.912 14.834 12.912C14.438 12.912 14.012 13.002 13.556 13.182C13.112 13.35 12.74 13.56 12.44 13.812C12.32 13.932 12.218 13.926 12.134 13.794L11.738 13.074C11.714 13.026 11.708 12.978 11.72 12.93C11.732 12.882 11.75 12.852 11.774 12.84C12.086 12.6 12.422 12.402 12.782 12.246C13.154 12.09 13.52 11.976 13.88 11.904C14.252 11.832 14.594 11.796 14.906 11.796C15.65 11.796 16.274 11.94 16.778 12.228C17.282 12.504 17.66 12.87 17.912 13.326C18.176 13.782 18.308 14.262 18.308 14.766C18.308 15.342 18.158 15.876 17.858 16.368C17.57 16.86 17.15 17.238 16.598 17.502C16.466 17.55 16.4 17.586 16.4 17.61C16.4 17.622 16.484 17.658 16.652 17.718C17.264 17.97 17.738 18.336 18.074 18.816C18.422 19.296 18.596 19.872 18.596 20.544C18.596 21.132 18.446 21.702 18.146 22.254C17.846 22.794 17.414 23.238 16.85 23.586C16.298 23.922 15.62 24.09 14.816 24.09ZM22.9073 24C22.8113 24 22.7633 23.958 22.7633 23.874V13.524C22.7633 13.404 22.7093 13.374 22.6013 13.434L20.5133 14.64C20.4053 14.7 20.3333 14.688 20.2973 14.604L19.8833 13.92C19.8353 13.824 19.8593 13.752 19.9553 13.704L22.9073 11.994C22.9793 11.946 23.0333 11.916 23.0693 11.904C23.1173 11.892 23.1713 11.886 23.2313 11.886H23.9153C24.0233 11.886 24.0773 11.94 24.0773 12.048V23.874C24.0773 23.958 24.0353 24 23.9513 24H22.9073Z" fill="black"/>
</svg>
