<svg width="36" height="36" viewBox="0 0 36 36" fill="none" xmlns="http://www.w3.org/2000/svg">
<circle cx="18" cy="18" r="18" fill="#EDEDED"/>
<path d="M13.294 24C13.198 24 13.15 23.958 13.15 23.874V13.524C13.15 13.404 13.096 13.374 12.988 13.434L10.9 14.64C10.792 14.7 10.72 14.688 10.684 14.604L10.27 13.92C10.222 13.824 10.246 13.752 10.342 13.704L13.294 11.994C13.366 11.946 13.42 11.916 13.456 11.904C13.504 11.892 13.558 11.886 13.618 11.886H14.302C14.41 11.886 14.464 11.94 14.464 12.048V23.874C14.464 23.958 14.422 24 14.338 24H13.294ZM19.3623 24.09C19.1223 24.09 18.8523 24.06 18.5522 24C18.2523 23.952 17.9523 23.874 17.6523 23.766C17.3643 23.646 17.0883 23.502 16.8243 23.334C16.7883 23.298 16.7583 23.262 16.7343 23.226C16.7223 23.19 16.7283 23.154 16.7523 23.118L17.2203 22.326C17.2563 22.278 17.2923 22.26 17.3283 22.272C17.3763 22.272 17.4183 22.284 17.4543 22.308C17.7903 22.5 18.1083 22.644 18.4083 22.74C18.7083 22.824 19.0263 22.866 19.3623 22.866C19.7223 22.866 20.0763 22.806 20.4243 22.686C20.7723 22.566 21.0903 22.392 21.3783 22.164C21.6663 21.924 21.8943 21.624 22.0623 21.264C22.2423 20.892 22.3323 20.472 22.3323 20.004C22.3323 19.5 22.2183 19.05 21.9903 18.654C21.7743 18.258 21.4443 17.946 21.0003 17.718C20.5683 17.478 20.0343 17.358 19.3983 17.358C19.2183 17.358 19.0203 17.364 18.8043 17.376C18.6003 17.388 18.3963 17.412 18.1923 17.448C17.9883 17.472 17.7963 17.52 17.6163 17.592C17.4963 17.628 17.4123 17.634 17.3643 17.61C17.3283 17.586 17.3103 17.532 17.3103 17.448V12.102C17.3103 12.03 17.3223 11.976 17.3463 11.94C17.3703 11.904 17.4303 11.886 17.5263 11.886H22.4763C22.5363 11.886 22.5783 11.898 22.6023 11.922C22.6263 11.934 22.6383 11.964 22.6383 12.012V12.858C22.6383 12.942 22.5843 12.984 22.4763 12.984H18.6063C18.5103 12.984 18.4623 13.032 18.4623 13.128V16.242C18.4623 16.29 18.4743 16.332 18.4983 16.368C18.5223 16.392 18.5703 16.398 18.6423 16.386C18.7983 16.362 18.9543 16.35 19.1103 16.35C19.2663 16.35 19.3983 16.35 19.5063 16.35C20.4303 16.35 21.1923 16.512 21.7923 16.836C22.4043 17.16 22.8543 17.592 23.1423 18.132C23.4423 18.66 23.5923 19.26 23.5923 19.932C23.6043 20.772 23.4123 21.51 23.0163 22.146C22.6203 22.77 22.0983 23.256 21.4503 23.604C20.8023 23.94 20.1063 24.102 19.3623 24.09Z" fill="black"/>
</svg>
