<svg width="40" height="40" viewBox="0 0 40 40" fill="none" xmlns="http://www.w3.org/2000/svg">
<path d="M34.1446 3.32745H5.84356C4.45392 3.32745 3.32739 4.45398 3.32739 5.84362V34.1446C3.32739 35.5343 4.45392 36.6608 5.84356 36.6608H34.1446C35.5342 36.6608 36.6607 35.5343 36.6607 34.1446V5.84362C36.6607 4.45398 35.5342 3.32745 34.1446 3.32745Z" stroke="#5D5E5E" stroke-miterlimit="10"/>
<path d="M10.6877 13.5803V28.1717" stroke="#5D5E5E" stroke-width="1.08" stroke-miterlimit="10"/>
<path d="M7.53662 14.4974L10.6877 9.04175L13.8388 14.4974H7.53662Z" fill="#5D5E5E"/>
<path d="M7.53662 27.2428L10.6877 32.7102L13.8388 27.2428H7.53662Z" fill="#5D5E5E"/>
<path d="M20 13.5803V28.1717" stroke="#5D5E5E" stroke-width="1.08" stroke-miterlimit="10"/>
<path d="M16.8372 14.4974L20 9.04175L23.1511 14.4974H16.8372Z" fill="#5D5E5E"/>
<path d="M16.8372 27.2428L20 32.7102L23.1511 27.2428H16.8372Z" fill="#5D5E5E"/>
<path d="M29.3123 13.5803V28.1717" stroke="#5D5E5E" stroke-width="1.08" stroke-miterlimit="10"/>
<path d="M26.1494 14.4974L29.3123 9.04175L32.4633 14.4974H26.1494Z" fill="#5D5E5E"/>
<path d="M26.1494 27.2428L29.3123 32.7102L32.4633 27.2428H26.1494Z" fill="#5D5E5E"/>
</svg>
