<svg width="40" height="40" viewBox="0 0 40 40" fill="none" xmlns="http://www.w3.org/2000/svg">
<path d="M34.1446 3.32751H5.84356C4.45392 3.32751 3.32739 4.45404 3.32739 5.84368V34.1447C3.32739 35.5343 4.45392 36.6609 5.84356 36.6609H34.1446C35.5342 36.6609 36.6607 35.5343 36.6607 34.1447V5.84368C36.6607 4.45404 35.5342 3.32751 34.1446 3.32751Z" stroke="#5D5E5E" stroke-miterlimit="10"/>
<path d="M14.3562 13.839V11.4874C14.3562 10.5831 14.7154 9.71581 15.3549 9.07635C15.9943 8.4369 16.8616 8.07766 17.766 8.07766H22.2222C22.6709 8.07611 23.1156 8.16316 23.5306 8.33383C23.9457 8.50449 24.323 8.75541 24.6408 9.07219C24.9587 9.38897 25.2109 9.76538 25.383 10.1798C25.5551 10.5943 25.6437 11.0386 25.6437 11.4874V18.0835H14.3562" stroke="#2BA23A" stroke-miterlimit="10"/>
<path d="M27.1724 18.0718H12.8279C12.1006 18.0718 11.511 18.6614 11.511 19.3886V29.03C11.511 29.7573 12.1006 30.3469 12.8279 30.3469H27.1724C27.8997 30.3469 28.4892 29.7573 28.4892 29.03V19.3886C28.4892 18.6614 27.8997 18.0718 27.1724 18.0718Z" stroke="#2BA23A" stroke-miterlimit="10"/>
</svg>
