<svg width="40" height="40" viewBox="0 0 40 40" fill="none" xmlns="http://www.w3.org/2000/svg">
<path d="M34.2857 3.95062H5.98467C4.59503 3.95062 3.46851 5.07715 3.46851 6.46679V34.7678C3.46851 36.1574 4.59503 37.284 5.98467 37.284H34.2857C35.6753 37.284 36.8018 36.1574 36.8018 34.7678V6.46679C36.8018 5.07715 35.6753 3.95062 34.2857 3.95062Z" stroke="#5D5E5E" stroke-miterlimit="10"/>
<path d="M17.9072 11.0406H22.3399C23.2442 11.0406 24.1115 11.3998 24.7509 12.0393C25.3904 12.6787 25.7496 13.546 25.7496 14.4503V18.6831H14.4622V14.4503C14.4621 13.9996 14.5515 13.5533 14.725 13.1373C14.8986 12.7213 15.1529 12.3438 15.4733 12.0267C15.7937 11.7096 16.1737 11.4592 16.5915 11.2899C17.0093 11.1207 17.4565 11.0359 17.9072 11.0406V11.0406Z" stroke="#5D5E5E" stroke-miterlimit="10"/>
<path d="M27.3015 18.6949H12.957C12.2297 18.6949 11.6401 19.2845 11.6401 20.0118V29.6531C11.6401 30.3804 12.2297 30.97 12.957 30.97H27.3015C28.0288 30.97 28.6184 30.3804 28.6184 29.6531V20.0118C28.6184 19.2845 28.0288 18.6949 27.3015 18.6949Z" stroke="#5D5E5E" stroke-miterlimit="10"/>
</svg>
