<svg width="40" height="40" viewBox="0 0 40 40" fill="none" xmlns="http://www.w3.org/2000/svg">
<path d="M33.7212 3.32745H5.42022C4.03058 3.32745 2.90405 4.45398 2.90405 5.84362V34.1446C2.90405 35.5343 4.03058 36.6608 5.42022 36.6608H33.7212C35.1109 36.6608 36.2374 35.5343 36.2374 34.1446V5.84362C36.2374 4.45398 35.1109 3.32745 33.7212 3.32745Z" stroke="#5D5E5E" stroke-miterlimit="10"/>
<path d="M30.5702 8.23043V15.0617H7.66605L7.65429 8.23043H30.5702ZM30.5702 7.05466H7.65429C7.34246 7.05466 7.04339 7.17853 6.82289 7.39903C6.60239 7.61953 6.47852 7.9186 6.47852 8.23043V15.1205C6.47852 15.4323 6.60239 15.7314 6.82289 15.9519C7.04339 16.1724 7.34246 16.2963 7.65429 16.2963H30.5702C30.8821 16.2963 31.1811 16.1724 31.4016 15.9519C31.6221 15.7314 31.746 15.4323 31.746 15.1205V8.14813C31.746 7.83629 31.6221 7.53723 31.4016 7.31673C31.1811 7.09623 30.8821 6.97235 30.5702 6.97235V7.05466Z" fill="#5D5E5E"/>
<path d="M30.5702 19.4709V23.7272H17.037V19.4709H30.5702ZM30.9699 18.2951H16.6372C16.5348 18.2935 16.4332 18.3125 16.3384 18.351C16.2435 18.3894 16.1573 18.4465 16.0849 18.5189C16.0126 18.5913 15.9555 18.6774 15.917 18.7723C15.8786 18.8672 15.8596 18.9688 15.8612 19.0711V24.127C15.8612 24.2289 15.8812 24.3298 15.9202 24.424C15.9592 24.5181 16.0164 24.6037 16.0885 24.6757C16.1605 24.7478 16.2461 24.8049 16.3402 24.8439C16.4344 24.8829 16.5353 24.903 16.6372 24.903H30.9699C31.0718 24.903 31.1728 24.8829 31.2669 24.8439C31.3611 24.8049 31.4466 24.7478 31.5187 24.6757C31.5907 24.6037 31.6479 24.5181 31.6869 24.424C31.7259 24.3298 31.7459 24.2289 31.7459 24.127V19.0711C31.7475 18.9688 31.7285 18.8672 31.6901 18.7723C31.6517 18.6774 31.5946 18.5913 31.5222 18.5189C31.4498 18.4465 31.3636 18.3894 31.2688 18.351C31.1739 18.3125 31.0723 18.2935 30.9699 18.2951V18.2951Z" fill="#5D5E5E"/>
<path d="M13.0512 19.0712V32.6044H7.68969V19.0712H13.0512ZM13.3922 17.8954H7.34872C7.12732 17.8954 6.91498 17.9833 6.75842 18.1399C6.60187 18.2964 6.51392 18.5088 6.51392 18.7302V32.9218C6.51392 33.1432 6.60187 33.3556 6.75842 33.5121C6.91498 33.6687 7.12732 33.7566 7.34872 33.7566H13.3922C13.6136 33.7566 13.826 33.6687 13.9825 33.5121C14.1391 33.3556 14.227 33.1432 14.227 32.9218V18.7302C14.227 18.5088 14.1391 18.2964 13.9825 18.1399C13.826 17.9833 13.6136 17.8954 13.3922 17.8954V17.8954Z" fill="#5D5E5E"/>
<path d="M30.5702 27.8895V32.1458H17.037V27.8895H30.5702ZM30.9699 26.7137H16.6372C16.5348 26.7121 16.4332 26.7311 16.3384 26.7696C16.2435 26.808 16.1573 26.8651 16.0849 26.9375C16.0126 27.0098 15.9555 27.096 15.917 27.1909C15.8786 27.2858 15.8596 27.3874 15.8612 27.4897V32.5456C15.8612 32.7514 15.9429 32.9488 16.0885 33.0943C16.234 33.2398 16.4314 33.3216 16.6372 33.3216H30.9699C31.1757 33.3216 31.3731 33.2398 31.5187 33.0943C31.6642 32.9488 31.7459 32.7514 31.7459 32.5456V27.4897C31.7475 27.3874 31.7285 27.2858 31.6901 27.1909C31.6517 27.096 31.5946 27.0098 31.5222 26.9375C31.4498 26.8651 31.3636 26.808 31.2688 26.7696C31.1739 26.7311 31.0723 26.7121 30.9699 26.7137V26.7137Z" fill="#5D5E5E"/>
</svg>
