<svg width="36" height="36" viewBox="0 0 36 36" fill="none" xmlns="http://www.w3.org/2000/svg">
<circle cx="18" cy="18" r="18" fill="#EDEDED"/>
<path d="M12.816 24.09C12.432 24.09 12.042 24.042 11.646 23.946C11.25 23.838 10.878 23.694 10.53 23.514C10.194 23.322 9.912 23.094 9.684 22.83C9.648 22.782 9.63 22.74 9.63 22.704C9.63 22.656 9.648 22.608 9.684 22.56L10.152 21.966C10.236 21.87 10.32 21.864 10.404 21.948C10.74 22.284 11.112 22.536 11.52 22.704C11.928 22.872 12.348 22.956 12.78 22.956C13.332 22.956 13.794 22.836 14.166 22.596C14.55 22.344 14.838 22.038 15.03 21.678C15.222 21.306 15.318 20.94 15.318 20.58C15.318 20.196 15.216 19.824 15.012 19.464C14.82 19.092 14.52 18.786 14.112 18.546C13.704 18.294 13.194 18.168 12.582 18.168C12.51 18.168 12.444 18.168 12.384 18.168C12.324 18.168 12.258 18.168 12.186 18.168C12.138 18.168 12.096 18.156 12.06 18.132C12.036 18.108 12.024 18.06 12.024 17.988V17.25C12.024 17.13 12.078 17.07 12.186 17.07C12.246 17.07 12.324 17.07 12.42 17.07C12.516 17.07 12.63 17.07 12.762 17.07C13.266 17.046 13.692 16.926 14.04 16.71C14.388 16.494 14.652 16.224 14.832 15.9C15.012 15.564 15.102 15.228 15.102 14.892C15.102 14.544 15.018 14.226 14.85 13.938C14.682 13.638 14.43 13.392 14.094 13.2C13.758 13.008 13.338 12.912 12.834 12.912C12.438 12.912 12.012 13.002 11.556 13.182C11.112 13.35 10.74 13.56 10.44 13.812C10.32 13.932 10.218 13.926 10.134 13.794L9.738 13.074C9.714 13.026 9.708 12.978 9.72 12.93C9.732 12.882 9.75 12.852 9.774 12.84C10.086 12.6 10.422 12.402 10.782 12.246C11.154 12.09 11.52 11.976 11.88 11.904C12.252 11.832 12.594 11.796 12.906 11.796C13.65 11.796 14.274 11.94 14.778 12.228C15.282 12.504 15.66 12.87 15.912 13.326C16.176 13.782 16.308 14.262 16.308 14.766C16.308 15.342 16.158 15.876 15.858 16.368C15.57 16.86 15.15 17.238 14.598 17.502C14.466 17.55 14.4 17.586 14.4 17.61C14.4 17.622 14.484 17.658 14.652 17.718C15.264 17.97 15.738 18.336 16.074 18.816C16.422 19.296 16.596 19.872 16.596 20.544C16.596 21.132 16.446 21.702 16.146 22.254C15.846 22.794 15.414 23.238 14.85 23.586C14.298 23.922 13.62 24.09 12.816 24.09ZM22.5993 24.216C21.8913 24.204 21.2133 24.012 20.5653 23.64C19.9293 23.256 19.4073 22.656 18.9993 21.84C18.5913 21.012 18.3873 19.932 18.3873 18.6C18.3873 17.808 18.5133 17.01 18.7653 16.206C19.0173 15.402 19.3833 14.664 19.8633 13.992C20.3553 13.32 20.9673 12.786 21.6993 12.39C22.4433 11.982 23.3073 11.778 24.2913 11.778C24.3873 11.778 24.5253 11.784 24.7053 11.796C24.8973 11.808 25.0653 11.832 25.2093 11.868C25.2573 11.868 25.3053 11.886 25.3533 11.922C25.4013 11.958 25.4253 12.024 25.4253 12.12C25.4253 12.228 25.4253 12.342 25.4253 12.462C25.4253 12.582 25.4253 12.702 25.4253 12.822C25.4253 12.894 25.4133 12.942 25.3893 12.966C25.3653 12.978 25.3173 12.972 25.2453 12.948C25.1733 12.936 25.0773 12.924 24.9573 12.912C24.8373 12.9 24.6993 12.894 24.5433 12.894C24.3993 12.882 24.2493 12.888 24.0933 12.912C23.9493 12.936 23.8113 12.984 23.6793 13.056C23.0793 13.092 22.5393 13.26 22.0593 13.56C21.5793 13.848 21.1653 14.22 20.8173 14.676C20.4813 15.132 20.2113 15.642 20.0073 16.206C19.8153 16.758 19.7013 17.316 19.6653 17.88C19.6533 17.976 19.6593 18.042 19.6833 18.078C19.7193 18.102 19.7733 18.06 19.8453 17.952C20.1693 17.508 20.6073 17.148 21.1593 16.872C21.7233 16.596 22.3173 16.458 22.9413 16.458C23.6133 16.458 24.1893 16.56 24.6693 16.764C25.1613 16.968 25.5573 17.25 25.8573 17.61C26.1573 17.958 26.3793 18.354 26.5233 18.798C26.6673 19.23 26.7393 19.68 26.7393 20.148C26.7393 20.82 26.5773 21.468 26.2533 22.092C25.9293 22.716 25.4553 23.226 24.8313 23.622C24.2193 24.018 23.4753 24.216 22.5993 24.216ZM22.5993 23.082C23.2233 23.082 23.7453 22.938 24.1653 22.65C24.5973 22.35 24.9213 21.978 25.1373 21.534C25.3533 21.078 25.4673 20.61 25.4793 20.13C25.4793 19.698 25.3773 19.29 25.1733 18.906C24.9693 18.522 24.6693 18.21 24.2733 17.97C23.8893 17.718 23.3913 17.592 22.7793 17.592C22.3473 17.592 21.9273 17.694 21.5193 17.898C21.1233 18.102 20.7633 18.354 20.4393 18.654C20.1273 18.954 19.8873 19.266 19.7193 19.59C19.7073 20.01 19.7733 20.43 19.9173 20.85C20.0613 21.27 20.2593 21.648 20.5113 21.984C20.7753 22.32 21.0813 22.59 21.4293 22.794C21.7893 22.986 22.1793 23.082 22.5993 23.082Z" fill="black"/>
</svg>
