<svg width="36" height="36" viewBox="0 0 36 36" fill="none" xmlns="http://www.w3.org/2000/svg">
<circle cx="18" cy="18" r="18" fill="#EDEDED"/>
<path d="M12.816 24.09C12.432 24.09 12.042 24.042 11.646 23.946C11.25 23.838 10.878 23.694 10.53 23.514C10.194 23.322 9.912 23.094 9.684 22.83C9.648 22.782 9.63 22.74 9.63 22.704C9.63 22.656 9.648 22.608 9.684 22.56L10.152 21.966C10.236 21.87 10.32 21.864 10.404 21.948C10.74 22.284 11.112 22.536 11.52 22.704C11.928 22.872 12.348 22.956 12.78 22.956C13.332 22.956 13.794 22.836 14.166 22.596C14.55 22.344 14.838 22.038 15.03 21.678C15.222 21.306 15.318 20.94 15.318 20.58C15.318 20.196 15.216 19.824 15.012 19.464C14.82 19.092 14.52 18.786 14.112 18.546C13.704 18.294 13.194 18.168 12.582 18.168C12.51 18.168 12.444 18.168 12.384 18.168C12.324 18.168 12.258 18.168 12.186 18.168C12.138 18.168 12.096 18.156 12.06 18.132C12.036 18.108 12.024 18.06 12.024 17.988V17.25C12.024 17.13 12.078 17.07 12.186 17.07C12.246 17.07 12.324 17.07 12.42 17.07C12.516 17.07 12.63 17.07 12.762 17.07C13.266 17.046 13.692 16.926 14.04 16.71C14.388 16.494 14.652 16.224 14.832 15.9C15.012 15.564 15.102 15.228 15.102 14.892C15.102 14.544 15.018 14.226 14.85 13.938C14.682 13.638 14.43 13.392 14.094 13.2C13.758 13.008 13.338 12.912 12.834 12.912C12.438 12.912 12.012 13.002 11.556 13.182C11.112 13.35 10.74 13.56 10.44 13.812C10.32 13.932 10.218 13.926 10.134 13.794L9.738 13.074C9.714 13.026 9.708 12.978 9.72 12.93C9.732 12.882 9.75 12.852 9.774 12.84C10.086 12.6 10.422 12.402 10.782 12.246C11.154 12.09 11.52 11.976 11.88 11.904C12.252 11.832 12.594 11.796 12.906 11.796C13.65 11.796 14.274 11.94 14.778 12.228C15.282 12.504 15.66 12.87 15.912 13.326C16.176 13.782 16.308 14.262 16.308 14.766C16.308 15.342 16.158 15.876 15.858 16.368C15.57 16.86 15.15 17.238 14.598 17.502C14.466 17.55 14.4 17.586 14.4 17.61C14.4 17.622 14.484 17.658 14.652 17.718C15.264 17.97 15.738 18.336 16.074 18.816C16.422 19.296 16.596 19.872 16.596 20.544C16.596 21.132 16.446 21.702 16.146 22.254C15.846 22.794 15.414 23.238 14.85 23.586C14.298 23.922 13.62 24.09 12.816 24.09ZM26.4693 17.952C26.4693 18.816 26.3973 19.626 26.2533 20.382C26.1213 21.138 25.8993 21.798 25.5873 22.362C25.2753 22.914 24.8673 23.346 24.3633 23.658C23.8593 23.97 23.2353 24.126 22.4913 24.126C21.7473 24.126 21.1173 23.97 20.6013 23.658C20.0973 23.346 19.6893 22.914 19.3773 22.362C19.0773 21.81 18.8553 21.156 18.7113 20.4C18.5793 19.644 18.5133 18.828 18.5133 17.952C18.5133 17.064 18.5793 16.248 18.7113 15.504C18.8553 14.748 19.0773 14.094 19.3773 13.542C19.6893 12.978 20.0973 12.54 20.6013 12.228C21.1173 11.916 21.7473 11.76 22.4913 11.76C23.2353 11.76 23.8593 11.922 24.3633 12.246C24.8673 12.558 25.2753 12.996 25.5873 13.56C25.8993 14.112 26.1213 14.766 26.2533 15.522C26.3973 16.266 26.4693 17.076 26.4693 17.952ZM25.1013 17.952C25.1013 16.32 24.8853 15.06 24.4533 14.172C24.0333 13.284 23.3733 12.84 22.4733 12.84C21.5733 12.84 20.9133 13.278 20.4933 14.154C20.0733 15.03 19.8633 16.296 19.8633 17.952C19.8633 19.596 20.0733 20.862 20.4933 21.75C20.9133 22.626 21.5733 23.064 22.4733 23.064C23.3733 23.064 24.0333 22.62 24.4533 21.732C24.8853 20.844 25.1013 19.584 25.1013 17.952Z" fill="black"/>
</svg>
