<svg width="36" height="36" viewBox="0 0 36 36" fill="none" xmlns="http://www.w3.org/2000/svg">
<circle cx="18" cy="18" r="18" fill="#EDEDED"/>
<path d="M11.792 24C11.72 24 11.672 23.994 11.648 23.982C11.624 23.958 11.612 23.916 11.612 23.856V23.064C11.612 22.944 11.654 22.866 11.738 22.83C12.362 22.41 13.01 21.942 13.682 21.426C14.354 20.898 14.978 20.322 15.554 19.698C16.142 19.074 16.616 18.414 16.976 17.718C17.348 17.01 17.534 16.266 17.534 15.486C17.534 14.922 17.414 14.454 17.174 14.082C16.946 13.71 16.634 13.434 16.238 13.254C15.842 13.062 15.392 12.966 14.888 12.966C14.468 12.966 14.078 13.026 13.718 13.146C13.37 13.254 13.07 13.374 12.818 13.506C12.566 13.626 12.374 13.71 12.242 13.758C12.062 13.842 11.972 13.83 11.972 13.722V12.858C11.972 12.786 11.984 12.738 12.008 12.714C12.032 12.678 12.08 12.636 12.152 12.588C12.308 12.504 12.53 12.402 12.818 12.282C13.106 12.15 13.442 12.036 13.826 11.94C14.21 11.844 14.606 11.796 15.014 11.796C15.638 11.796 16.238 11.922 16.814 12.174C17.39 12.414 17.864 12.804 18.236 13.344C18.62 13.884 18.812 14.592 18.812 15.468C18.812 16.236 18.662 16.968 18.362 17.664C18.074 18.348 17.678 18.996 17.174 19.608C16.682 20.22 16.13 20.796 15.518 21.336C14.906 21.864 14.288 22.356 13.664 22.812C13.628 22.836 13.616 22.86 13.628 22.884C13.64 22.908 13.664 22.92 13.7 22.92H18.74C18.824 22.92 18.866 22.956 18.866 23.028V23.856C18.866 23.916 18.854 23.958 18.83 23.982C18.818 23.994 18.776 24 18.704 24H11.792ZM23.1358 24C23.0398 24 22.9918 23.958 22.9918 23.874V13.524C22.9918 13.404 22.9378 13.374 22.8298 13.434L20.7418 14.64C20.6338 14.7 20.5618 14.688 20.5258 14.604L20.1118 13.92C20.0638 13.824 20.0878 13.752 20.1838 13.704L23.1358 11.994C23.2078 11.946 23.2618 11.916 23.2978 11.904C23.3458 11.892 23.3998 11.886 23.4598 11.886H24.1438C24.2518 11.886 24.3058 11.94 24.3058 12.048V23.874C24.3058 23.958 24.2638 24 24.1798 24H23.1358Z" fill="black"/>
</svg>
