<svg width="36" height="36" viewBox="0 0 36 36" fill="none" xmlns="http://www.w3.org/2000/svg">
<circle cx="18" cy="18" r="18" fill="#EDEDED"/>
<path d="M13.816 24.09C13.432 24.09 13.042 24.042 12.646 23.946C12.25 23.838 11.878 23.694 11.53 23.514C11.194 23.322 10.912 23.094 10.684 22.83C10.648 22.782 10.63 22.74 10.63 22.704C10.63 22.656 10.648 22.608 10.684 22.56L11.152 21.966C11.236 21.87 11.32 21.864 11.404 21.948C11.74 22.284 12.112 22.536 12.52 22.704C12.928 22.872 13.348 22.956 13.78 22.956C14.332 22.956 14.794 22.836 15.166 22.596C15.55 22.344 15.838 22.038 16.03 21.678C16.222 21.306 16.318 20.94 16.318 20.58C16.318 20.196 16.216 19.824 16.012 19.464C15.82 19.092 15.52 18.786 15.112 18.546C14.704 18.294 14.194 18.168 13.582 18.168C13.51 18.168 13.444 18.168 13.384 18.168C13.324 18.168 13.258 18.168 13.186 18.168C13.138 18.168 13.096 18.156 13.06 18.132C13.036 18.108 13.024 18.06 13.024 17.988V17.25C13.024 17.13 13.078 17.07 13.186 17.07C13.246 17.07 13.324 17.07 13.42 17.07C13.516 17.07 13.63 17.07 13.762 17.07C14.266 17.046 14.692 16.926 15.04 16.71C15.388 16.494 15.652 16.224 15.832 15.9C16.012 15.564 16.102 15.228 16.102 14.892C16.102 14.544 16.018 14.226 15.85 13.938C15.682 13.638 15.43 13.392 15.094 13.2C14.758 13.008 14.338 12.912 13.834 12.912C13.438 12.912 13.012 13.002 12.556 13.182C12.112 13.35 11.74 13.56 11.44 13.812C11.32 13.932 11.218 13.926 11.134 13.794L10.738 13.074C10.714 13.026 10.708 12.978 10.72 12.93C10.732 12.882 10.75 12.852 10.774 12.84C11.086 12.6 11.422 12.402 11.782 12.246C12.154 12.09 12.52 11.976 12.88 11.904C13.252 11.832 13.594 11.796 13.906 11.796C14.65 11.796 15.274 11.94 15.778 12.228C16.282 12.504 16.66 12.87 16.912 13.326C17.176 13.782 17.308 14.262 17.308 14.766C17.308 15.342 17.158 15.876 16.858 16.368C16.57 16.86 16.15 17.238 15.598 17.502C15.466 17.55 15.4 17.586 15.4 17.61C15.4 17.622 15.484 17.658 15.652 17.718C16.264 17.97 16.738 18.336 17.074 18.816C17.422 19.296 17.596 19.872 17.596 20.544C17.596 21.132 17.446 21.702 17.146 22.254C16.846 22.794 16.414 23.238 15.85 23.586C15.298 23.922 14.62 24.09 13.816 24.09ZM24.3193 24C24.2353 24 24.1933 23.958 24.1933 23.874V20.85C24.1933 20.73 24.1333 20.67 24.0133 20.67H19.1533C19.0693 20.67 19.0273 20.628 19.0273 20.544V19.878C19.0273 19.806 19.0453 19.74 19.0813 19.68C19.1173 19.62 19.1473 19.572 19.1713 19.536L24.1933 12.066C24.2293 11.994 24.2653 11.946 24.3013 11.922C24.3493 11.898 24.3913 11.886 24.4273 11.886H25.2913C25.3873 11.886 25.4353 11.934 25.4353 12.03V19.464C25.4353 19.584 25.4953 19.644 25.6153 19.644H26.8213C26.8933 19.644 26.9293 19.68 26.9293 19.752V20.562C26.9293 20.634 26.8933 20.67 26.8213 20.67H25.6153C25.4953 20.67 25.4353 20.73 25.4353 20.85V23.874C25.4353 23.958 25.3933 24 25.3093 24H24.3193ZM20.6293 19.644H24.0133C24.1333 19.644 24.1933 19.584 24.1933 19.464V14.082C24.1933 14.034 24.1813 14.01 24.1573 14.01C24.1333 13.998 24.1093 14.016 24.0853 14.064L20.5393 19.428C20.4913 19.5 20.4733 19.554 20.4853 19.59C20.5093 19.626 20.5573 19.644 20.6293 19.644Z" fill="black"/>
</svg>
