<svg width="36" height="36" viewBox="0 0 36 36" fill="none" xmlns="http://www.w3.org/2000/svg">
<circle cx="18" cy="18" r="18" fill="#EDEDED"/>
<path d="M19.706 24C19.622 24 19.58 23.958 19.58 23.874V20.85C19.58 20.73 19.52 20.67 19.4 20.67H14.54C14.456 20.67 14.414 20.628 14.414 20.544V19.878C14.414 19.806 14.432 19.74 14.468 19.68C14.504 19.62 14.534 19.572 14.558 19.536L19.58 12.066C19.616 11.994 19.652 11.946 19.688 11.922C19.736 11.898 19.778 11.886 19.814 11.886H20.678C20.774 11.886 20.822 11.934 20.822 12.03V19.464C20.822 19.584 20.882 19.644 21.002 19.644H22.208C22.28 19.644 22.316 19.68 22.316 19.752V20.562C22.316 20.634 22.28 20.67 22.208 20.67H21.002C20.882 20.67 20.822 20.73 20.822 20.85V23.874C20.822 23.958 20.78 24 20.696 24H19.706ZM16.016 19.644H19.4C19.52 19.644 19.58 19.584 19.58 19.464V14.082C19.58 14.034 19.568 14.01 19.544 14.01C19.52 13.998 19.496 14.016 19.472 14.064L15.926 19.428C15.878 19.5 15.86 19.554 15.872 19.59C15.896 19.626 15.944 19.644 16.016 19.644Z" fill="black"/>
</svg>
