<svg width="40" height="40" viewBox="0 0 40 40" fill="none" xmlns="http://www.w3.org/2000/svg">
<path d="M34.1446 3.32745H5.84356C4.45392 3.32745 3.32739 4.45398 3.32739 5.84362V34.1446C3.32739 35.5343 4.45392 36.6608 5.84356 36.6608H34.1446C35.5342 36.6608 36.6607 35.5343 36.6607 34.1446V5.84362C36.6607 4.45398 35.5342 3.32745 34.1446 3.32745Z" stroke="#5D5E5E" stroke-miterlimit="10"/>
<path d="M10.6877 14.0976V27.6426" stroke="#5D5E5E" stroke-width="1.2" stroke-miterlimit="10"/>
<path d="M7.17236 15.1323L10.6879 9.04175L14.2035 15.1323H7.17236Z" fill="#5D5E5E"/>
<path d="M7.17236 26.6196L10.6879 32.7102L14.2035 26.6196H7.17236Z" fill="#5D5E5E"/>
<path d="M20 14.0976V27.6426" stroke="#5D5E5E" stroke-width="1.2" stroke-miterlimit="10"/>
<path d="M16.4844 15.1323L20 9.04175L23.5155 15.1323H16.4844Z" fill="#5D5E5E"/>
<path d="M16.4844 26.6196L20 32.7102L23.5155 26.6196H16.4844Z" fill="#5D5E5E"/>
<path d="M29.3123 14.0976V27.6426" stroke="#5D5E5E" stroke-width="1.2" stroke-miterlimit="10"/>
<path d="M25.7849 15.1323L29.3122 9.04175L32.8278 15.1323H25.7849Z" fill="#5D5E5E"/>
<path d="M25.7849 26.6196L29.3122 32.7102L32.8278 26.6196H25.7849Z" fill="#5D5E5E"/>
</svg>
