<svg width="40" height="40" viewBox="0 0 40 40" fill="none" xmlns="http://www.w3.org/2000/svg">
<path d="M33.9416 3.57922H6.05815C4.68901 3.57922 3.5791 4.68913 3.5791 6.05827V33.9417C3.5791 35.3109 4.68901 36.4208 6.05815 36.4208H33.9416C35.3108 36.4208 36.4207 35.3109 36.4207 33.9417V6.05827C36.4207 4.68913 35.3108 3.57922 33.9416 3.57922Z" stroke="#5D5E5E" stroke-miterlimit="10"/>
<path d="M30.2579 8.94275V14.5148H8.82689V8.94275H30.2579ZM30.8371 7.25144H8.25926C7.95203 7.25144 7.65738 7.37349 7.44013 7.59074C7.22288 7.80799 7.10083 8.10264 7.10083 8.40987V15.1983C7.10083 15.5055 7.22288 15.8002 7.44013 16.0174C7.65738 16.2347 7.95203 16.3567 8.25926 16.3567H30.8371C31.1444 16.3567 31.439 16.2347 31.6563 16.0174C31.8735 15.8002 31.9956 15.5055 31.9956 15.1983V8.32878C31.9956 8.02155 31.8735 7.72689 31.6563 7.50965C31.439 7.2924 31.1444 7.17035 30.8371 7.17035V7.25144Z" fill="#5D5E5E"/>
<path d="M30.2578 20.0637V23.0988H18.0943V20.0637H30.2578ZM31.2309 18.3261H17.1096C17.0088 18.3245 16.9087 18.3432 16.8152 18.3811C16.7217 18.419 16.6368 18.4752 16.5655 18.5465C16.4942 18.6178 16.4379 18.7027 16.4001 18.7962C16.3622 18.8897 16.3435 18.9898 16.3451 19.0906V24.0719C16.3451 24.1723 16.3648 24.2717 16.4033 24.3645C16.4417 24.4573 16.498 24.5415 16.569 24.6125C16.64 24.6835 16.7243 24.7398 16.817 24.7783C16.9098 24.8167 17.0092 24.8365 17.1096 24.8365H31.2309C31.3313 24.8365 31.4308 24.8167 31.5235 24.7783C31.6163 24.7398 31.7006 24.6835 31.7716 24.6125C31.8426 24.5415 31.8989 24.4573 31.9373 24.3645C31.9757 24.2717 31.9955 24.1723 31.9955 24.0719V19.0906C31.9971 18.9898 31.9783 18.8897 31.9405 18.7962C31.9026 18.7027 31.8463 18.6178 31.775 18.5465C31.7037 18.4752 31.6188 18.419 31.5254 18.3811C31.4319 18.3432 31.3318 18.3245 31.2309 18.3261V18.3261Z" fill="#5D5E5E"/>
<path d="M12.9972 19.6698V31.845H8.82681V19.6698H12.9972ZM13.9123 17.9322H7.95799C7.73985 17.9322 7.53065 18.0188 7.3764 18.1731C7.22215 18.3273 7.1355 18.5365 7.1355 18.7547V32.737C7.1355 32.9551 7.22215 33.1643 7.3764 33.3185C7.53065 33.4728 7.73985 33.5594 7.95799 33.5594H13.9123C14.1305 33.5594 14.3397 33.4728 14.4939 33.3185C14.6482 33.1643 14.7348 32.9551 14.7348 32.737V18.7547C14.7348 18.5365 14.6482 18.3273 14.4939 18.1731C14.3397 18.0188 14.1305 17.9322 13.9123 17.9322Z" fill="#5D5E5E"/>
<path d="M30.2578 28.3581V31.3932H18.0943V28.3581H30.2578ZM31.2309 26.6205H17.1096C17.0088 26.6189 16.9087 26.6376 16.8152 26.6755C16.7217 26.7133 16.6368 26.7696 16.5655 26.8409C16.4942 26.9122 16.4379 26.9971 16.4001 27.0906C16.3622 27.1841 16.3435 27.2842 16.3451 27.385V32.3663C16.3451 32.5691 16.4256 32.7635 16.569 32.9069C16.7124 33.0503 16.9069 33.1308 17.1096 33.1308H31.2309C31.4337 33.1308 31.6282 33.0503 31.7716 32.9069C31.9149 32.7635 31.9955 32.5691 31.9955 32.3663V27.385C31.9971 27.2842 31.9783 27.1841 31.9405 27.0906C31.9026 26.9971 31.8463 26.9122 31.775 26.8409C31.7037 26.7696 31.6188 26.7133 31.5254 26.6755C31.4319 26.6376 31.3318 26.6189 31.2309 26.6205V26.6205Z" fill="#5D5E5E"/>
</svg>
