<svg width="40" height="40" viewBox="0 0 40 40" fill="none" xmlns="http://www.w3.org/2000/svg">
<g clip-path="url(#clip0_24403_19325)">
<path d="M36.9481 39.2008H3.05337C1.81299 39.2008 0.800781 38.1889 0.800781 36.9401V3.06147C0.800781 1.81264 1.81299 0.800781 3.05337 0.800781H36.9481C38.1885 0.800781 39.2008 1.81266 39.2008 3.06147V37.0457C39.2008 38.1708 38.2068 39.2008 36.9481 39.2008Z" fill="#54545A" stroke="#6D6D71" stroke-width="1.6" stroke-miterlimit="10"/>
<path fill-rule="evenodd" clip-rule="evenodd" d="M10.4881 8.42689C9.9189 7.8577 8.99607 7.8577 8.42689 8.42689C7.8577 8.99607 7.8577 9.91891 8.42689 10.4881L17.9388 20L8.42689 29.5119C7.8577 30.0811 7.8577 31.0039 8.42689 31.5731C8.99607 32.1423 9.9189 32.1423 10.4881 31.5731L20 22.0612L29.5119 31.5731C30.0811 32.1423 31.0039 32.1423 31.5731 31.5731C32.1423 31.0039 32.1423 30.0811 31.5731 29.5119L22.0612 20L31.5731 10.4881C32.1423 9.91891 32.1423 8.99607 31.5731 8.42689C31.0039 7.8577 30.0811 7.8577 29.5119 8.42689L20 17.9388L10.4881 8.42689Z" fill="#6D6D71"/>
</g>
<defs>
<clipPath id="clip0_24403_19325">
<rect width="40" height="40" fill="white"/>
</clipPath>
</defs>
</svg>
