<svg width="42" height="42" viewBox="0 0 42 42" fill="none" xmlns="http://www.w3.org/2000/svg">
<path d="M36.9008 39.6992H4.70074C3.10074 39.6992 1.80078 38.3992 1.80078 36.7992V4.59923C1.80078 2.99923 3.10074 1.69922 4.70074 1.69922H36.9008C38.5008 1.69922 39.8008 2.99923 39.8008 4.59923V36.7992C39.8008 38.3992 38.5008 39.6992 36.9008 39.6992Z" fill="#E9E9E9"/>
<path d="M36.9 40.6H4.70001C2.60001 40.6 1 38.9 1 36.9V4.7C1 2.6 2.70001 1 4.70001 1H36.9C39 1 40.6 2.7 40.6 4.7V36.8C40.7 38.9 39 40.6 36.9 40.6ZM4.80005 2.7C3.70005 2.7 2.80005 3.6 2.80005 4.7V36.8C2.80005 37.9 3.70005 38.8 4.80005 38.8H36.9C38 38.8 38.9 37.9 38.9 36.8V4.60001C38.9 3.50001 38 2.60001 36.9 2.60001H4.80005V2.7Z" fill="#5E5E5E"/>
<path d="M21 13C14 13 8.5 21 8.5 21C8.5 21 14 29 21 29C28 29 33.5 21 33.5 21C33.5 21 28 13 21 13Z" fill="#AAAAAA"/>
<circle cx="21" cy="21" r="5" fill="white"/>
<circle cx="21" cy="21" r="3" fill="#AAAAAA"/>
<line x1="11" y1="11" x2="31" y2="31" stroke="#5E5E5E" stroke-width="2.5" stroke-linecap="round"/>
</svg>
