<svg width="36" height="36" viewBox="0 0 36 36" fill="none" xmlns="http://www.w3.org/2000/svg">
<circle cx="18" cy="18" r="18" fill="#EDEDED"/>
<path d="M9.792 24C9.72 24 9.672 23.994 9.648 23.982C9.624 23.958 9.612 23.916 9.612 23.856V23.064C9.612 22.944 9.654 22.866 9.738 22.83C10.362 22.41 11.01 21.942 11.682 21.426C12.354 20.898 12.978 20.322 13.554 19.698C14.142 19.074 14.616 18.414 14.976 17.718C15.348 17.01 15.534 16.266 15.534 15.486C15.534 14.922 15.414 14.454 15.174 14.082C14.946 13.71 14.634 13.434 14.238 13.254C13.842 13.062 13.392 12.966 12.888 12.966C12.468 12.966 12.078 13.026 11.718 13.146C11.37 13.254 11.07 13.374 10.818 13.506C10.566 13.626 10.374 13.71 10.242 13.758C10.062 13.842 9.972 13.83 9.972 13.722V12.858C9.972 12.786 9.984 12.738 10.008 12.714C10.032 12.678 10.08 12.636 10.152 12.588C10.308 12.504 10.53 12.402 10.818 12.282C11.106 12.15 11.442 12.036 11.826 11.94C12.21 11.844 12.606 11.796 13.014 11.796C13.638 11.796 14.238 11.922 14.814 12.174C15.39 12.414 15.864 12.804 16.236 13.344C16.62 13.884 16.812 14.592 16.812 15.468C16.812 16.236 16.662 16.968 16.362 17.664C16.074 18.348 15.678 18.996 15.174 19.608C14.682 20.22 14.13 20.796 13.518 21.336C12.906 21.864 12.288 22.356 11.664 22.812C11.628 22.836 11.616 22.86 11.628 22.884C11.64 22.908 11.664 22.92 11.7 22.92H16.74C16.824 22.92 16.866 22.956 16.866 23.028V23.856C16.866 23.916 16.854 23.958 16.83 23.982C16.818 23.994 16.776 24 16.704 24H9.792ZM22.2698 19.518C21.3938 19.518 20.6738 19.344 20.1098 18.996C19.5578 18.648 19.1558 18.198 18.9038 17.646C18.6518 17.082 18.5258 16.488 18.5258 15.864C18.5378 15.192 18.7058 14.544 19.0298 13.92C19.3538 13.296 19.8278 12.78 20.4518 12.372C21.0758 11.964 21.8378 11.766 22.7378 11.778C23.3858 11.778 23.9558 11.904 24.4478 12.156C24.9518 12.408 25.3778 12.756 25.7258 13.2C26.0738 13.644 26.3378 14.172 26.5178 14.784C26.6978 15.384 26.7878 16.044 26.7878 16.764C26.8118 17.652 26.7038 18.534 26.4638 19.41C26.2238 20.274 25.8518 21.066 25.3478 21.786C24.8558 22.494 24.2138 23.064 23.4218 23.496C22.6418 23.916 21.7058 24.126 20.6138 24.126C20.5298 24.126 20.4038 24.12 20.2358 24.108C20.0678 24.096 19.8938 24.072 19.7138 24.036C19.6538 24.024 19.5998 24 19.5518 23.964C19.5038 23.928 19.4798 23.868 19.4798 23.784L19.4978 23.082C19.4978 22.998 19.5098 22.95 19.5338 22.938C19.5698 22.914 19.6238 22.914 19.6958 22.938C19.8518 22.974 20.0138 22.998 20.1818 23.01C20.3498 23.022 20.4878 23.028 20.5958 23.028C21.3518 23.028 22.0178 22.878 22.5938 22.578C23.1698 22.266 23.6498 21.9 24.0338 21.48C24.2978 21.18 24.5198 20.838 24.6998 20.454C24.8798 20.07 25.0238 19.692 25.1318 19.32C25.2518 18.948 25.3418 18.63 25.4018 18.366C25.4738 18.09 25.5158 17.916 25.5278 17.844C25.1558 18.372 24.6758 18.786 24.0878 19.086C23.5118 19.374 22.9058 19.518 22.2698 19.518ZM22.7198 12.93C22.0838 12.918 21.5498 13.062 21.1178 13.362C20.6858 13.65 20.3618 14.022 20.1458 14.478C19.9298 14.922 19.8218 15.384 19.8218 15.864C19.8338 16.308 19.9238 16.722 20.0918 17.106C20.2718 17.49 20.5478 17.802 20.9198 18.042C21.2918 18.282 21.7838 18.402 22.3958 18.402C23.0438 18.402 23.6378 18.21 24.1778 17.826C24.7178 17.43 25.1558 16.956 25.4918 16.404C25.4798 15.516 25.3358 14.82 25.0598 14.316C24.7958 13.812 24.4538 13.458 24.0338 13.254C23.6138 13.038 23.1758 12.93 22.7198 12.93Z" fill="black"/>
</svg>
