<svg width="36" height="36" viewBox="0 0 36 36" fill="none" xmlns="http://www.w3.org/2000/svg">
<circle cx="18" cy="18" r="18" fill="#EDEDED"/>
<path d="M10.792 24C10.72 24 10.672 23.994 10.648 23.982C10.624 23.958 10.612 23.916 10.612 23.856V23.064C10.612 22.944 10.654 22.866 10.738 22.83C11.362 22.41 12.01 21.942 12.682 21.426C13.354 20.898 13.978 20.322 14.554 19.698C15.142 19.074 15.616 18.414 15.976 17.718C16.348 17.01 16.534 16.266 16.534 15.486C16.534 14.922 16.414 14.454 16.174 14.082C15.946 13.71 15.634 13.434 15.238 13.254C14.842 13.062 14.392 12.966 13.888 12.966C13.468 12.966 13.078 13.026 12.718 13.146C12.37 13.254 12.07 13.374 11.818 13.506C11.566 13.626 11.374 13.71 11.242 13.758C11.062 13.842 10.972 13.83 10.972 13.722V12.858C10.972 12.786 10.984 12.738 11.008 12.714C11.032 12.678 11.08 12.636 11.152 12.588C11.308 12.504 11.53 12.402 11.818 12.282C12.106 12.15 12.442 12.036 12.826 11.94C13.21 11.844 13.606 11.796 14.014 11.796C14.638 11.796 15.238 11.922 15.814 12.174C16.39 12.414 16.864 12.804 17.236 13.344C17.62 13.884 17.812 14.592 17.812 15.468C17.812 16.236 17.662 16.968 17.362 17.664C17.074 18.348 16.678 18.996 16.174 19.608C15.682 20.22 15.13 20.796 14.518 21.336C13.906 21.864 13.288 22.356 12.664 22.812C12.628 22.836 12.616 22.86 12.628 22.884C12.64 22.908 12.664 22.92 12.7 22.92H17.74C17.824 22.92 17.866 22.956 17.866 23.028V23.856C17.866 23.916 17.854 23.958 17.83 23.982C17.818 23.994 17.776 24 17.704 24H10.792ZM24.5478 24C24.4638 24 24.4218 23.958 24.4218 23.874V20.85C24.4218 20.73 24.3618 20.67 24.2418 20.67H19.3818C19.2978 20.67 19.2558 20.628 19.2558 20.544V19.878C19.2558 19.806 19.2738 19.74 19.3098 19.68C19.3458 19.62 19.3758 19.572 19.3998 19.536L24.4218 12.066C24.4578 11.994 24.4938 11.946 24.5298 11.922C24.5778 11.898 24.6198 11.886 24.6558 11.886H25.5198C25.6158 11.886 25.6638 11.934 25.6638 12.03V19.464C25.6638 19.584 25.7238 19.644 25.8438 19.644H27.0498C27.1218 19.644 27.1578 19.68 27.1578 19.752V20.562C27.1578 20.634 27.1218 20.67 27.0498 20.67H25.8438C25.7238 20.67 25.6638 20.73 25.6638 20.85V23.874C25.6638 23.958 25.6218 24 25.5378 24H24.5478ZM20.8578 19.644H24.2418C24.3618 19.644 24.4218 19.584 24.4218 19.464V14.082C24.4218 14.034 24.4098 14.01 24.3858 14.01C24.3618 13.998 24.3378 14.016 24.3138 14.064L20.7678 19.428C20.7198 19.5 20.7018 19.554 20.7138 19.59C20.7378 19.626 20.7858 19.644 20.8578 19.644Z" fill="black"/>
</svg>
