<svg width="36" height="36" viewBox="0 0 36 36" fill="none" xmlns="http://www.w3.org/2000/svg">
<circle cx="18" cy="18" r="18" fill="#EDEDED"/>
<path d="M13.294 24C13.198 24 13.15 23.958 13.15 23.874V13.524C13.15 13.404 13.096 13.374 12.988 13.434L10.9 14.64C10.792 14.7 10.72 14.688 10.684 14.604L10.27 13.92C10.222 13.824 10.246 13.752 10.342 13.704L13.294 11.994C13.366 11.946 13.42 11.916 13.456 11.904C13.504 11.892 13.558 11.886 13.618 11.886H14.302C14.41 11.886 14.464 11.94 14.464 12.048V23.874C14.464 23.958 14.422 24 14.338 24H13.294ZM20.3343 19.518C19.4583 19.518 18.7383 19.344 18.1743 18.996C17.6223 18.648 17.2203 18.198 16.9683 17.646C16.7163 17.082 16.5903 16.488 16.5903 15.864C16.6023 15.192 16.7703 14.544 17.0942 13.92C17.4183 13.296 17.8923 12.78 18.5163 12.372C19.1403 11.964 19.9023 11.766 20.8023 11.778C21.4503 11.778 22.0203 11.904 22.5123 12.156C23.0163 12.408 23.4423 12.756 23.7903 13.2C24.1383 13.644 24.4023 14.172 24.5823 14.784C24.7623 15.384 24.8523 16.044 24.8523 16.764C24.8763 17.652 24.7683 18.534 24.5283 19.41C24.2883 20.274 23.9163 21.066 23.4123 21.786C22.9203 22.494 22.2783 23.064 21.4863 23.496C20.7063 23.916 19.7703 24.126 18.6783 24.126C18.5943 24.126 18.4683 24.12 18.3003 24.108C18.1323 24.096 17.9583 24.072 17.7783 24.036C17.7183 24.024 17.6643 24 17.6163 23.964C17.5683 23.928 17.5443 23.868 17.5443 23.784L17.5623 23.082C17.5623 22.998 17.5743 22.95 17.5983 22.938C17.6343 22.914 17.6883 22.914 17.7603 22.938C17.9163 22.974 18.0783 22.998 18.2463 23.01C18.4143 23.022 18.5523 23.028 18.6603 23.028C19.4163 23.028 20.0823 22.878 20.6582 22.578C21.2343 22.266 21.7143 21.9 22.0983 21.48C22.3623 21.18 22.5843 20.838 22.7643 20.454C22.9443 20.07 23.0883 19.692 23.1963 19.32C23.3163 18.948 23.4063 18.63 23.4663 18.366C23.5383 18.09 23.5803 17.916 23.5923 17.844C23.2203 18.372 22.7403 18.786 22.1523 19.086C21.5763 19.374 20.9703 19.518 20.3343 19.518ZM20.7843 12.93C20.1483 12.918 19.6143 13.062 19.1823 13.362C18.7503 13.65 18.4263 14.022 18.2103 14.478C17.9943 14.922 17.8863 15.384 17.8863 15.864C17.8983 16.308 17.9883 16.722 18.1562 17.106C18.3363 17.49 18.6123 17.802 18.9843 18.042C19.3563 18.282 19.8483 18.402 20.4603 18.402C21.1083 18.402 21.7023 18.21 22.2423 17.826C22.7823 17.43 23.2203 16.956 23.5563 16.404C23.5443 15.516 23.4003 14.82 23.1243 14.316C22.8603 13.812 22.5183 13.458 22.0983 13.254C21.6783 13.038 21.2403 12.93 20.7843 12.93Z" fill="black"/>
</svg>
