<svg width="36" height="36" viewBox="0 0 36 36" fill="none" xmlns="http://www.w3.org/2000/svg">
<circle cx="18" cy="18" r="18" fill="#EDEDED"/>
<path d="M14.294 24C14.198 24 14.15 23.958 14.15 23.874V13.524C14.15 13.404 14.096 13.374 13.988 13.434L11.9 14.64C11.792 14.7 11.72 14.688 11.684 14.604L11.27 13.92C11.222 13.824 11.246 13.752 11.342 13.704L14.294 11.994C14.366 11.946 14.42 11.916 14.456 11.904C14.504 11.892 14.558 11.886 14.618 11.886H15.302C15.41 11.886 15.464 11.94 15.464 12.048V23.874C15.464 23.958 15.422 24 15.338 24H14.294ZM19.2103 24C19.1383 24 19.0903 23.994 19.0663 23.982C19.0423 23.97 19.0303 23.928 19.0303 23.856C19.0663 23.508 19.1623 23.034 19.3183 22.434C19.4863 21.822 19.6903 21.156 19.9303 20.436C20.1823 19.704 20.4403 18.978 20.7043 18.258C20.9683 17.55 21.2443 16.866 21.5322 16.206C21.8203 15.546 22.0843 14.952 22.3243 14.424C22.5643 13.884 22.7623 13.458 22.9183 13.146C22.9423 13.074 22.9423 13.026 22.9183 13.002C22.8943 12.978 22.8283 12.96 22.7203 12.948H17.3923C17.3443 12.948 17.3083 12.942 17.2843 12.93C17.2723 12.918 17.2663 12.888 17.2663 12.84V12.012C17.2663 11.952 17.2783 11.916 17.3023 11.904C17.3263 11.892 17.3623 11.886 17.4103 11.886H24.5023C24.5383 11.886 24.5623 11.892 24.5743 11.904C24.5983 11.916 24.6103 11.952 24.6103 12.012V12.498C24.6103 12.582 24.5803 12.672 24.5203 12.768C24.3403 13.068 24.1063 13.506 23.8183 14.082C23.5423 14.646 23.2363 15.312 22.9003 16.08C22.5763 16.836 22.2463 17.646 21.9103 18.51C21.6583 19.194 21.4183 19.878 21.1903 20.562C20.9623 21.234 20.7703 21.858 20.6143 22.434C20.4703 23.01 20.3863 23.49 20.3623 23.874C20.3623 23.922 20.3383 23.958 20.2903 23.982C20.2543 23.994 20.2123 24 20.1643 24H19.2103Z" fill="black"/>
</svg>
