<svg width="40" height="40" viewBox="0 0 40 40" fill="none" xmlns="http://www.w3.org/2000/svg">
<path d="M34.1446 3.32745H5.84356C4.45392 3.32745 3.32739 4.45398 3.32739 5.84362V34.1446C3.32739 35.5343 4.45392 36.6608 5.84356 36.6608H34.1446C35.5342 36.6608 36.6607 35.5343 36.6607 34.1446V5.84362C36.6607 4.45398 35.5342 3.32745 34.1446 3.32745Z" stroke="#5D5E5E" stroke-miterlimit="10"/>
<path d="M14.3562 13.8389V11.4874C14.3562 10.583 14.7154 9.71575 15.3549 9.07629C15.9943 8.43684 16.8616 8.0776 17.766 8.0776H22.2222C22.6709 8.07605 23.1156 8.1631 23.5306 8.33377C23.9457 8.50443 24.323 8.75535 24.6408 9.07212C24.9587 9.3889 25.2109 9.76532 25.383 10.1798C25.5551 10.5942 25.6437 11.0386 25.6437 11.4874V18.0835H14.3562" stroke="#2BA23A" stroke-width="1.5" stroke-miterlimit="10"/>
<path d="M27.1724 18.0717H12.8279C12.1006 18.0717 11.511 18.6613 11.511 19.3886V29.03C11.511 29.7573 12.1006 30.3468 12.8279 30.3468H27.1724C27.8997 30.3468 28.4892 29.7573 28.4892 29.03V19.3886C28.4892 18.6613 27.8997 18.0717 27.1724 18.0717Z" stroke="#2BA23A" stroke-width="1.5" stroke-miterlimit="10"/>
</svg>
