<svg width="200" height="160" viewBox="0 0 200 160" fill="none" xmlns="http://www.w3.org/2000/svg">
<path d="M101.956 141.053C135.47 141.053 162.65 114.433 162.65 81.5602C162.65 48.6876 135.47 22.0669 101.956 22.0669C68.4411 22.0669 41.2616 48.6876 41.2616 81.5602C41.2616 114.433 68.4411 141.053 101.956 141.053Z" fill="#F7F7F7"/>
<path fill-rule="evenodd" clip-rule="evenodd" d="M39.951 81.4987C39.951 48.0626 67.5947 20.9971 101.667 20.9971C135.739 20.9971 163.383 48.0626 163.383 81.4987C163.383 114.935 135.739 142 101.667 142C67.5947 142 39.951 114.935 39.951 81.4987ZM101.667 23.0138C68.7099 23.0138 41.9946 49.1897 41.9946 81.4987C41.9946 113.808 68.7099 139.984 101.667 139.984C134.624 139.984 161.339 113.808 161.339 81.4987C161.339 49.1897 134.624 23.0138 101.667 23.0138Z" fill="#EBEBEB"/>
<path d="M148.158 73.7338V110.136C148.158 117.698 141.925 123.849 134.159 123.849H69.3781C61.7147 123.849 55.4818 117.799 55.3796 110.236C55.3796 110.136 55.3796 110.136 55.3796 110.035V73.7338C55.3796 73.633 55.3796 73.633 55.3796 73.5322C55.3796 73.3305 55.3796 73.1288 55.4818 72.9272C55.584 72.6246 55.6862 72.423 55.7884 72.1205L73.1587 39.3488C73.7718 38.0379 75.1001 37.332 76.5306 37.332H126.905C128.335 37.332 129.561 38.0379 130.276 39.3488L147.647 72.1205C147.749 72.3221 147.851 72.6246 147.953 72.9272C148.158 73.1288 148.158 73.4313 148.158 73.7338Z" fill="#F2F2F2"/>
<path fill-rule="evenodd" clip-rule="evenodd" d="M76.531 38.3405C75.435 38.3405 74.5076 38.8716 74.0868 39.7714L74.0762 39.7941L56.7303 72.5196C56.6792 72.6639 56.6293 72.787 56.5869 72.8916L56.5842 72.8984C56.5326 73.0256 56.492 73.1264 56.4515 73.2461L56.4286 73.3141L56.4063 73.3581C56.4051 73.3685 56.4038 73.3853 56.4029 73.4125C56.4019 73.4445 56.4018 73.4792 56.4018 73.5322V110.229C56.5 117.235 62.2745 122.841 69.3785 122.841H134.16C141.366 122.841 147.136 117.137 147.136 110.136V73.7339C147.136 73.6544 147.136 73.6004 147.134 73.5515C147.134 73.5489 147.134 73.5464 147.134 73.544L147.061 73.4719L146.984 73.2461C146.875 72.9215 146.798 72.7022 146.737 72.5784L129.377 39.8269C129.376 39.8251 129.375 39.8234 129.374 39.8217C128.836 38.8381 127.955 38.3405 126.905 38.3405H76.531ZM72.2427 38.9022C73.0528 37.1961 74.7741 36.3237 76.531 36.3237H126.905C128.714 36.3237 130.284 37.236 131.176 38.8707L131.182 38.8814L148.557 71.6613L148.561 71.6696C148.676 71.8967 148.781 72.191 148.866 72.4403C149.026 72.6718 149.101 72.9134 149.138 73.1124C149.18 73.3431 149.18 73.575 149.18 73.7105L149.18 110.136C149.18 118.26 142.485 124.858 134.16 124.858H69.3785C61.1579 124.858 54.468 118.366 54.3583 110.25L54.3582 110.237V73.5322C54.3582 73.5226 54.3582 73.5123 54.3581 73.5012C54.3574 73.32 54.3558 72.9445 54.5325 72.5513C54.5864 72.3969 54.6394 72.2663 54.684 72.1561L54.6868 72.1494C54.7383 72.0221 54.779 71.9214 54.8194 71.8017L54.8453 71.7249L72.2427 38.9022Z" fill="#DBDBDB"/>
<path fill-rule="evenodd" clip-rule="evenodd" d="M128.041 23.9976C128.102 24.6633 128.163 25.3053 128.221 25.9259L126.187 26.1132C126.128 25.492 126.067 24.8488 126.006 24.1815L128.041 23.9976ZM128.584 29.7694C128.713 31.1572 128.825 32.4338 128.917 33.6331L126.879 33.7842C126.789 32.6008 126.677 31.3366 126.549 29.9529L128.584 29.7694ZM129.139 37.5282C129.182 38.8708 129.183 40.1589 129.128 41.4622L127.086 41.3793C127.138 40.1319 127.139 38.8936 127.096 37.5929L129.139 37.5282ZM128.803 45.3868C128.655 46.6033 128.457 47.8793 128.205 49.2613L126.194 48.9036C126.44 47.5542 126.631 46.3173 126.774 45.1452L128.803 45.3868ZM102.597 48.2554C103.369 47.7767 104.215 47.4512 105.084 47.2666L105.514 49.2381C104.871 49.3748 104.26 49.6107 103.712 49.9463C103.193 50.3184 102.748 50.7775 102.38 51.3004L100.702 50.1493C101.199 49.4434 101.814 48.8089 102.545 48.2903L102.571 48.272L102.597 48.2554ZM112.512 49.178C111.857 48.5792 111.096 48.1074 110.283 47.7646L109.48 49.6191C110.102 49.8812 110.666 50.2362 111.14 50.6729L111.162 50.693L111.185 50.7118C111.729 51.157 112.193 51.6604 112.581 52.2074L114.255 51.0504C113.771 50.3686 113.192 49.7375 112.512 49.178ZM127.43 53.0794C127.296 53.691 127.153 54.3242 127 54.9815L126.989 55.0298L126.973 55.0767C126.915 55.2477 126.857 55.421 126.797 55.5959C126.611 56.1491 126.419 56.7187 126.217 57.2847L124.289 56.6161C124.484 56.0672 124.669 55.5196 124.855 54.97C124.909 54.8079 124.964 54.6457 125.019 54.4832C125.166 53.8499 125.304 53.2403 125.433 52.6519L127.43 53.0794ZM99.335 57.441C99.1406 56.6265 99.0651 55.7797 99.1032 54.9377L101.145 55.0275C101.114 55.7004 101.176 56.3689 101.33 57.0011L101.337 57.0302L101.342 57.0597C101.436 57.5823 101.568 58.0941 101.735 58.592L99.7958 59.227C99.601 58.6475 99.4461 58.0509 99.335 57.441ZM116.099 55.7498C116.224 56.5797 116.263 57.4188 116.225 58.2459C116.187 59.0617 116.083 59.8736 115.923 60.6741L113.918 60.285C114.06 59.5745 114.15 58.8622 114.183 58.1539C114.216 57.4503 114.182 56.7412 114.078 56.0453L116.099 55.7498ZM122.699 63.6922C123.284 63.0767 123.782 62.4017 124.217 61.6948L122.469 60.6494C122.091 61.265 121.67 61.829 121.193 62.3293L121.174 62.3493L121.156 62.3703C120.821 62.7615 120.451 63.127 120.05 63.4651L121.377 64.9985C121.851 64.5986 122.295 64.1628 122.699 63.6922ZM104.022 65.3149C103.054 64.5239 102.195 63.5961 101.478 62.5641L103.163 61.4232C103.774 62.3016 104.504 63.0904 105.325 63.7616L104.022 65.3149ZM113.291 67.3689C112.992 67.92 112.707 68.426 112.431 68.8971L110.932 68.0425L110.919 68.1765C110.291 68.115 109.669 68.0087 109.063 67.8552C108.443 67.7029 107.84 67.5029 107.256 67.2598L108.051 65.4019C108.54 65.6057 109.044 65.7725 109.559 65.8989L109.567 65.9008C110.069 66.0282 110.589 66.1176 111.12 66.1696L111.008 67.2861C111.167 67.0058 111.33 66.7117 111.498 66.4019L111.506 66.386L111.515 66.3704C111.886 65.7414 112.231 65.0886 112.542 64.4184L114.4 65.2571C114.063 65.9844 113.69 66.6905 113.291 67.3689ZM118.206 66.9677C117.074 67.4719 115.87 67.8318 114.648 68.0375L114.304 66.0495C115.358 65.8722 116.394 65.5619 117.366 65.1294L118.206 66.9677ZM110.495 71.8886C109.814 72.8387 109.122 73.7101 108.347 74.6826L106.741 73.4357C107.518 72.4602 108.18 71.6261 108.828 70.723L110.495 71.8886ZM106.21 77.3992C105.597 78.1992 104.917 79.1063 104.15 80.1672L102.486 78.9957C103.265 77.9183 103.956 76.9958 104.581 76.1817L106.21 77.3992ZM102.164 82.9827C101.851 83.4378 101.525 83.9152 101.186 84.4168L99.4857 83.2982C99.8279 82.7916 100.157 82.309 100.474 81.8487L102.164 82.9827Z" fill="#DBDBDB"/>
<path d="M134.843 18.739C134.31 20.6587 132.177 21.3568 130.045 20.1352C127.734 19.088 126.135 18.2154 126.49 16.4702C127.024 14.725 129.156 14.5505 131.644 14.376C134.665 14.027 135.199 16.8193 134.843 18.739Z" fill="#EBEBEB"/>
<path d="M117.606 20.4839C118.494 22.0546 120.982 23.1017 122.76 21.531C124.714 19.7858 126.314 18.5642 125.425 16.819C124.537 15.2483 123.115 15.7719 120.094 16.1209C117.606 16.6445 116.539 18.7387 117.606 20.4839Z" fill="#EBEBEB"/>
<path d="M125.425 14.0267C126.669 13.8522 127.913 14.5503 128.269 15.5974C128.446 15.9464 128.624 16.47 128.624 16.819C128.98 19.2623 128.091 21.3566 126.669 21.5311C125.07 21.8801 123.47 20.1349 123.293 17.8662C123.293 17.1681 123.293 16.819 123.293 16.2955C123.47 15.0738 124.181 14.2012 125.425 14.0267C125.603 14.0267 125.425 14.0267 125.425 14.0267Z" fill="#C2C2C2"/>
<path d="M148.158 73.7344V113.867C148.158 119.413 143.662 123.85 137.94 123.85H65.5975C59.9777 123.85 55.3796 119.413 55.3796 113.867V73.5327C55.3796 73.3311 55.3796 73.1294 55.4818 72.9277H78.7785C82.2526 72.9277 85.1136 75.6503 85.1136 79.1796C85.1136 80.8938 85.8288 82.5072 86.9528 83.6164C88.1789 84.8264 89.6094 85.4314 91.4486 85.4314H112.191C115.665 85.4314 118.526 82.7088 118.526 79.1796C118.526 77.4654 119.241 75.852 120.365 74.7428C121.591 73.5327 123.022 72.9277 124.759 72.9277H147.953C148.158 73.1294 148.158 73.4319 148.158 73.7344Z" fill="white"/>
<path fill-rule="evenodd" clip-rule="evenodd" d="M54.8507 71.9189H78.7789C82.8065 71.9189 86.1357 75.0824 86.1357 79.1791C86.1357 80.6229 86.7411 81.9807 87.6757 82.9029C88.7098 83.9235 89.8803 84.4226 91.449 84.4226H112.191C115.112 84.4226 117.504 82.1409 117.504 79.1791C117.504 77.1945 118.33 75.3255 119.643 74.0293C121.055 72.6362 122.743 71.9189 124.759 71.9189H148.377L148.676 72.2143C148.972 72.5061 149.089 72.8472 149.138 73.1124C149.18 73.3431 149.18 73.5751 149.18 73.7106L149.18 113.867C149.18 119.976 144.22 124.858 137.94 124.858H65.5979C59.4272 124.858 54.3582 119.983 54.3582 113.867V73.5323C54.3582 73.5227 54.3582 73.5124 54.3581 73.5013C54.3573 73.3086 54.3556 72.8962 54.5683 72.4764L54.8507 71.9189ZM56.4018 73.9357V113.867C56.4018 118.843 60.5289 122.841 65.5979 122.841H137.94C143.105 122.841 147.136 118.849 147.136 113.867V73.9357H124.759C123.302 73.9357 122.129 74.4284 121.088 75.4554C120.153 76.3776 119.548 77.7354 119.548 79.1791C119.548 83.2759 116.219 86.4393 112.191 86.4393H91.449C89.3393 86.4393 87.6488 85.7284 86.2306 84.3289C84.9172 83.0328 84.0922 81.1638 84.0922 79.1791C84.0922 76.2174 81.6994 73.9357 78.7789 73.9357H56.4018Z" fill="#DBDBDB"/>
<path d="M90.1099 98.9023C91.4046 98.9023 92.4542 97.8666 92.4542 96.5889C92.4542 95.3112 91.4046 94.2754 90.1099 94.2754C88.8152 94.2754 87.7656 95.3112 87.7656 96.5889C87.7656 97.8666 88.8152 98.9023 90.1099 98.9023Z" fill="#C2C2C2"/>
<path d="M113.426 98.9023C114.721 98.9023 115.771 97.8666 115.771 96.5889C115.771 95.3112 114.721 94.2754 113.426 94.2754C112.132 94.2754 111.082 95.3112 111.082 96.5889C111.082 97.8666 112.132 98.9023 113.426 98.9023Z" fill="#C2C2C2"/>
<path d="M105.57 114.096H98.2206C97.0801 114.096 96.1298 113.159 96.1298 112.033C96.1298 110.908 97.0801 109.97 98.2206 109.97H105.507C106.647 109.97 107.598 110.908 107.598 112.033C107.661 113.159 106.711 114.096 105.57 114.096Z" fill="#C2C2C2"/>
<path d="M160.81 53.0625C163.124 53.0625 165 51.2115 165 48.9282C165 46.6449 163.124 44.7939 160.81 44.7939C158.497 44.7939 156.621 46.6449 156.621 48.9282C156.621 51.2115 158.497 53.0625 160.81 53.0625Z" fill="#EBEBEB"/>
<path d="M156.62 39.6517C158.2 39.6517 159.481 38.3876 159.481 36.8283C159.481 35.269 158.2 34.0049 156.62 34.0049C155.04 34.0049 153.759 35.269 153.759 36.8283C153.759 38.3876 155.04 39.6517 156.62 39.6517Z" fill="#EBEBEB"/>
<path d="M40.7505 48.9281C42.3306 48.9281 43.6115 47.664 43.6115 46.1047C43.6115 44.5453 42.3306 43.2812 40.7505 43.2812C39.1704 43.2812 37.8895 44.5453 37.8895 46.1047C37.8895 47.664 39.1704 48.9281 40.7505 48.9281Z" fill="#EBEBEB"/>
<path d="M34.3133 111.043C37.2477 111.043 39.6266 108.696 39.6266 105.8C39.6266 102.904 37.2477 100.556 34.3133 100.556C31.3788 100.556 29 102.904 29 105.8C29 108.696 31.3788 111.043 34.3133 111.043Z" fill="#EBEBEB"/>
</svg>
