<svg width="22" height="22" viewBox="0 0 22 22" fill="none" xmlns="http://www.w3.org/2000/svg">
<rect width="22" height="22" rx="4" fill="#3E3E46"/>
<g opacity="0.5">
<path d="M13.5292 15.4691C13.6701 15.61 13.7492 15.8011 13.7492 16.0003C13.7492 16.1996 13.6701 16.3907 13.5292 16.5316C13.3883 16.6725 13.1972 16.7516 12.9979 16.7516C12.7987 16.7516 12.6076 16.6725 12.4667 16.5316L7.46668 11.5316C7.39676 11.4619 7.34129 11.3791 7.30343 11.2879C7.26558 11.1968 7.24609 11.099 7.24609 11.0003C7.24609 10.9016 7.26558 10.8039 7.30343 10.7127C7.34129 10.6215 7.39676 10.5388 7.46668 10.4691L12.4667 5.46907C12.6076 5.32818 12.7987 5.24902 12.9979 5.24902C13.1972 5.24902 13.3883 5.32818 13.5292 5.46907C13.6701 5.60997 13.7492 5.80107 13.7492 6.00032C13.7492 6.19958 13.6701 6.39068 13.5292 6.53157L9.06106 10.9997L13.5292 15.4691Z" fill="#E9E9E9"/>
</g>
</svg>
