<svg width="177" height="179" viewBox="0 0 177 179" fill="none" xmlns="http://www.w3.org/2000/svg">
<path d="M13.2578 160.966C13.2161 160.969 13.1742 160.97 13.1324 160.968C12.4076 161.006 11.7311 160.086 11.7306 159.189C11.7301 158.293 12.4055 157.42 13.1305 157.507C13.8336 157.474 14.5009 158.335 14.533 159.209C14.5652 160.083 13.9624 160.97 13.2578 160.966Z" stroke="#1F1F1F" stroke-width="0.5" stroke-linecap="round" stroke-linejoin="round"/>
<path d="M20.4141 157.727L20.1704 157.744C19.4398 157.656 18.759 158.532 18.7594 159.432C18.7599 160.332 19.4416 161.256 20.1722 161.218C20.2149 161.22 20.2576 161.219 20.3001 161.216M20.4141 157.727C20.3359 157.724 20.255 157.729 20.173 157.744C20.881 157.713 21.5513 158.575 21.5839 159.451C21.6166 160.328 21.01 161.219 20.3001 161.216M20.4141 157.727C21.1224 157.693 21.7946 158.556 21.8273 159.433C21.8601 160.31 21.2535 161.201 20.5437 161.197L20.3001 161.216" stroke="#1F1F1F" stroke-width="0.5" stroke-linecap="round" stroke-linejoin="round"/>
<path d="M6.94836 163.535L100.474 167.007L100.742 166.983" stroke="#1F1F1F" stroke-width="0.5" stroke-linecap="round" stroke-linejoin="round"/>
<path d="M6.88687 30.0376L6.97341 172.094C6.97351 172.104 6.96929 172.114 6.96226 172.12C6.95519 172.127 6.94526 172.131 6.93565 172.13L6.77868 172.123C6.27662 172.099 5.76695 172.076 5.27208 172.051C4.81383 172.029 4.3683 172.006 3.95245 171.981C3.71359 171.967 3.48459 171.952 3.26825 171.937C3.06852 171.923 2.8797 171.909 2.70404 171.894C2.645 171.889 2.58746 171.883 2.5315 171.878L2.52742 171.878L2.51677 171.877L2.50613 171.876L2.49549 171.875L2.48484 171.874L2.47417 171.873L2.46353 171.872L2.45288 171.871L2.44826 171.871C2.40237 171.867 2.35745 171.862 2.31357 171.858C2.21944 171.849 2.13007 171.84 2.04597 171.83C1.9667 171.821 1.89215 171.812 1.82282 171.802C1.75625 171.793 1.6946 171.784 1.63778 171.775C1.58144 171.765 1.53004 171.756 1.48326 171.747C1.43576 171.737 1.39321 171.727 1.35517 171.717C1.31639 171.707 1.28262 171.696 1.25307 171.685C1.2231 171.674 1.19763 171.662 1.17554 171.648C1.15414 171.635 1.13242 171.617 1.11835 171.593C1.10942 171.577 1.10424 171.56 1.1042 171.542L1 13.6502C0.999974 13.6408 1.0013 13.6311 1.00373 13.6219C1.00783 13.6066 1.01496 13.593 1.02342 13.5814C1.03908 13.56 1.0608 13.5429 1.08358 13.5289C1.10559 13.5154 1.13082 13.5033 1.1599 13.4917C1.18604 13.4814 1.21523 13.4713 1.24791 13.4615C1.27639 13.4528 1.30746 13.4444 1.34124 13.436C1.37093 13.4287 1.40265 13.4216 1.43652 13.4144C1.46746 13.4079 1.50022 13.4014 1.53473 13.3951C1.56824 13.3888 1.60345 13.3827 1.64036 13.3766C1.67758 13.3705 1.71646 13.3644 1.75708 13.3584C1.79796 13.3524 1.84055 13.3464 1.8847 13.3406C1.92868 13.3347 1.97427 13.3289 2.0213 13.3231C2.06798 13.3174 2.11611 13.3119 2.16565 13.3062C2.21572 13.3006 2.2673 13.295 2.32013 13.2895C2.37582 13.2837 2.43299 13.2779 2.49154 13.2723C2.5557 13.266 2.62144 13.26 2.68872 13.2539C2.76404 13.2472 2.84127 13.2405 2.92018 13.234C3.00883 13.2266 3.09965 13.2193 3.19238 13.2123C3.29583 13.2043 3.40166 13.1965 3.50959 13.1889C3.62943 13.1803 3.75178 13.1721 3.87645 13.1639C4.01484 13.1549 4.15591 13.146 4.29908 13.1373C4.4581 13.1277 4.61975 13.1181 4.78311 13.1089C4.9638 13.0985 5.14667 13.0885 5.33083 13.0784C5.35263 13.0772 5.37446 13.076 5.39628 13.075" stroke="#1F1F1F" stroke-width="0.5" stroke-linecap="round" stroke-linejoin="round"/>
<path d="M20.2309 35.9022C20.9424 35.8967 21.5535 36.7898 21.5228 37.6696C21.4921 38.5495 20.8194 39.4162 20.1094 39.3815C19.3781 39.4688 18.6956 38.5896 18.6952 37.6877C18.6947 36.7859 19.3763 35.8612 20.1077 35.8999C20.1487 35.8984 20.1899 35.8992 20.2309 35.9022ZM20.2309 35.9022L20.4747 35.9202C21.1862 35.9145 21.7972 36.8074 21.7665 37.687C21.7357 38.5666 21.0633 39.4331 20.3533 39.3984C20.2781 39.4009 20.2005 39.396 20.1217 39.3824" stroke="#1F1F1F" stroke-width="0.5" stroke-linecap="round" stroke-linejoin="round"/>
<path d="M13.1849 36.1482C13.8911 36.1418 14.4984 37.0314 14.4683 37.9081C14.4383 38.7849 13.7708 39.6487 13.0661 39.6141C12.3405 39.7008 11.6633 38.825 11.6628 37.9267C11.6624 37.0283 12.3385 36.1074 13.0642 36.1459C13.1044 36.1445 13.1448 36.1454 13.1849 36.1482ZM13.1849 36.1482L13.4299 36.166C14.136 36.1595 14.7432 37.0489 14.7131 37.9253C14.683 38.8018 14.0157 39.6654 13.3111 39.6308C13.2374 39.6331 13.1613 39.6284 13.0842 39.6153" stroke="#1F1F1F" stroke-width="0.5" stroke-linecap="round" stroke-linejoin="round"/>
<path d="M6.8949 33.5606L100.495 30.2102" stroke="#1F1F1F" stroke-width="0.5" stroke-linecap="round" stroke-linejoin="round"/>
<path d="M101.22 176.014L101.237 94.594" stroke="#1F1F1F" stroke-width="0.5" stroke-linecap="round" stroke-linejoin="round"/>
<path d="M91.7388 89.5253L101.29 89.4852C102.411 89.386 103.461 90.7075 103.461 92.0318C103.461 93.3562 102.41 94.6835 101.289 94.5906L91.7381 94.6047C91.7153 94.6047 91.6925 94.6043 91.6697 94.6035C90.5755 94.6511 89.585 93.3472 89.5942 92.0502C89.6034 90.7533 90.6122 89.4632 91.7057 89.5258L91.7388 89.5253Z" stroke="#1F1F1F" stroke-width="0.5" stroke-linecap="round" stroke-linejoin="round"/>
<path d="M101.289 89.484C101.515 89.4832 101.901 89.4609 102.121 89.4976C102.663 89.6664 103.137 90.0041 103.474 90.4615C103.81 90.9189 103.992 91.472 103.992 92.0399C103.992 92.6078 103.81 93.1608 103.473 93.618C103.136 94.0753 102.662 94.4128 102.12 94.5814C101.9 94.6193 101.515 94.5892 101.287 94.5894" stroke="#1F1F1F" stroke-width="0.5" stroke-linecap="round" stroke-linejoin="round"/>
<path d="M170.579 29.5456C170.257 29.119 169.836 28.7775 169.352 28.5508C168.869 28.3242 168.337 28.2193 167.803 28.2452L125.145 23.9741C124.957 23.9552 124.765 23.9361 124.581 23.9232C124.398 23.9103 124.224 23.9036 124.059 23.9056C123.894 23.9077 123.737 23.9183 123.591 23.9375C123.445 23.9567 123.31 23.9844 123.184 24.0189C123.059 24.0535 122.943 24.0951 122.835 24.1417C122.728 24.1885 122.629 24.2405 122.537 24.2965C122.445 24.3527 122.36 24.413 122.279 24.4784C122.198 24.5437 122.121 24.614 122.047 24.6907C121.972 24.7673 121.899 24.8503 121.828 24.9398C121.757 25.0295 121.688 25.1256 121.621 25.2287C121.553 25.3318 121.488 25.4419 121.425 25.5575C121.362 25.6732 121.302 25.7944 121.246 25.9197C121.189 26.045 121.136 26.1741 121.086 26.3073C121.036 26.4406 120.989 26.5778 120.945 26.7195C120.902 26.8611 120.862 27.007 120.824 27.1609C120.785 27.3149 120.75 27.4768 120.716 27.6522C120.682 27.8275 120.65 28.0165 120.62 28.2224C120.59 28.4285 120.563 28.6516 120.538 28.8938C120.513 29.1361 120.492 29.3973 120.474 29.6797C120.456 29.9623 120.442 30.2659 120.432 30.5892C120.422 30.9125 120.416 31.2554 120.413 31.6237C120.409 31.9921 120.409 32.386 120.409 32.7674L120.402 50.7248C120.402 51.0947 120.402 51.4741 120.405 51.8347C120.407 52.1954 120.413 52.5372 120.422 52.8625C120.432 53.1878 120.445 53.4965 120.462 53.7837C120.48 54.0708 120.501 54.3366 120.525 54.5838C120.549 54.8311 120.577 55.0601 120.606 55.2719C120.636 55.4839 120.667 55.6787 120.701 55.8603C120.734 56.0418 120.77 56.21 120.807 56.3702C120.845 56.5305 120.885 56.6828 120.928 56.8313C120.971 56.9798 121.018 57.1243 121.067 57.2653C121.117 57.4063 121.17 57.5437 121.226 57.6777C121.282 57.8117 121.342 57.9423 121.404 58.0678C121.467 58.1933 121.532 58.3136 121.599 58.4275C121.666 58.5412 121.735 58.6484 121.805 58.7491C121.876 58.8498 121.949 58.9442 122.023 59.0326C122.098 59.1211 122.174 59.2034 122.255 59.2813C122.336 59.3592 122.42 59.4326 122.511 59.5028C122.603 59.5731 122.701 59.6402 122.807 59.7034C122.914 59.7666 123.029 59.826 123.154 59.8799C123.278 59.9338 123.413 59.9824 123.557 60.0242C123.702 60.066 123.857 60.1007 124.022 60.1284C124.187 60.156 124.362 60.1764 124.549 60.1918C124.736 60.2071 124.936 60.2176 125.13 60.2273L167.776 62.3878C167.942 62.3963 168.113 62.4048 168.275 62.4079C168.437 62.411 168.591 62.4087 168.736 62.3986C168.882 62.3886 169.02 62.3708 169.149 62.3457C169.277 62.3206 169.396 62.2881 169.506 62.2496C169.616 62.211 169.718 62.1667 169.812 62.1177C169.906 62.0689 169.993 62.0155 170.073 61.9586C170.153 61.9018 170.228 61.8413 170.298 61.7764C170.369 61.7117 170.436 61.6423 170.502 61.5672C170.567 61.4921 170.631 61.4114 170.692 61.3245C170.717 61.2906 170.741 61.2557 170.764 61.2198C170.801 61.1641 170.837 61.106 170.873 61.0456C170.932 60.9465 170.989 60.8409 171.043 60.7303C171.098 60.6197 171.15 60.504 171.2 60.3848C171.249 60.2657 171.295 60.1431 171.339 60.0169C171.382 59.8907 171.423 59.7609 171.46 59.6273C171.498 59.4937 171.533 59.3562 171.566 59.2114C171.599 59.0666 171.63 58.9146 171.66 58.75C171.689 58.5856 171.717 58.4085 171.743 58.2157C171.769 58.023 171.793 57.8145 171.815 57.5883C171.836 57.3622 171.855 57.1185 171.87 56.8552C171.886 56.5919 171.898 56.309 171.907 56.0081C171.916 55.7072 171.921 55.3883 171.924 55.0457C171.927 54.703 171.928 54.3367 171.928 53.9821L171.942 37.2797C171.942 36.9356 171.942 36.5825 171.94 36.247C171.938 35.9114 171.933 35.5932 171.925 35.2903C171.917 34.9874 171.906 34.6998 171.891 34.4321C171.876 34.1644 171.858 33.9166 171.837 33.6858C171.816 33.4549 171.793 33.2412 171.767 33.043C171.742 32.8449 171.714 32.6624 171.685 32.4924C171.656 32.3224 171.626 32.1647 171.593 32.0142C171.561 31.8638 171.526 31.7206 171.488 31.5808C171.451 31.4412 171.411 31.3049 171.368 31.1719C171.325 31.0388 171.279 30.9089 171.23 30.782C171.181 30.6551 171.13 30.5312 171.075 30.4119C171.021 30.2926 170.964 30.1779 170.906 30.0693C170.848 29.9607 170.788 29.8582 170.726 29.7615C170.678 29.686 170.629 29.6141 170.579 29.5456Z" stroke="#1F1F1F" stroke-width="0.5" stroke-linecap="round" stroke-linejoin="round"/>
<path d="M54.9322 10.7223C54.9303 10.5963 54.9283 10.4701 54.9263 10.3442C54.9229 10.1248 54.9195 9.90556 54.9161 9.68629C54.9156 9.64984 54.919 9.61776 54.8903 9.61453C54.5755 9.64797 54.2599 9.56037 54.0073 9.36948L54.0237 8.42067C54.0238 8.41133 54.0286 8.40206 54.0379 8.39282" stroke="#1F1F1F" stroke-width="0.5" stroke-linecap="round" stroke-linejoin="round"/>
<path d="M64.4133 8.4104C64.4226 8.41969 64.4273 8.42897 64.4275 8.43831L64.4598 10.2778" stroke="#1F1F1F" stroke-width="0.5" stroke-linecap="round" stroke-linejoin="round"/>
<path d="M54.036 8.38701L54.1061 8.3171C54.1858 8.1633 55.8638 8.01996 57.9179 7.98226C59.972 7.94457 62.4021 8.01244 63.4953 8.14516C63.7863 8.14979 64.0736 8.21199 64.3404 8.32825L64.4105 8.39823" stroke="#1F1F1F" stroke-width="0.5" stroke-linecap="round" stroke-linejoin="round"/>
<path d="M6.52791 29.7143L6.3075 29.671M6.3075 29.671C6.21838 29.6535 6.13005 29.6309 6.04283 29.6012C5.99752 29.5859 5.95251 29.5685 5.90782 29.549C5.86313 29.5294 5.81873 29.5075 5.77558 29.4835C5.68928 29.4354 5.60808 29.3786 5.53178 29.3131C5.49365 29.2803 5.45675 29.2454 5.42102 29.2081C5.3853 29.1709 5.35077 29.1315 5.31784 29.0904C5.25204 29.0084 5.19278 28.9201 5.14042 28.8256C5.11421 28.7783 5.08975 28.7294 5.067 28.6787C5.04426 28.628 5.02323 28.5754 5.00423 28.522C4.96622 28.4152 4.93629 28.3045 4.91261 28.1909C4.88891 28.0773 4.87145 27.9605 4.85879 27.8429C4.84618 27.7252 4.83837 27.6067 4.8341 27.4878C4.82986 27.3688 4.82915 27.2495 4.83072 27.1299C4.83231 27.0104 4.83616 26.8906 4.84117 26.7707C4.84621 26.6507 4.85233 26.5308 4.85854 26.4108L5.891 6.40422C5.89704 6.2867 5.90312 6.16926 5.91031 6.05179C5.91748 5.93443 5.92568 5.81711 5.93605 5.7C5.95678 5.4658 5.98604 5.2324 6.03251 5.00076C6.05579 4.88491 6.08336 4.76957 6.11701 4.65477C6.13383 4.59745 6.15221 4.54014 6.17236 4.48308C6.19257 4.42597 6.21462 4.36897 6.23832 4.31337C6.28576 4.20201 6.33967 4.09597 6.40039 3.9951C6.43075 3.94467 6.46278 3.89553 6.49656 3.8475C6.53028 3.79958 6.56585 3.75279 6.60245 3.708C6.67567 3.61815 6.75332 3.53583 6.83557 3.46117C6.87669 3.42384 6.91893 3.38853 6.96252 3.35506C7.00608 3.3216 7.05101 3.29013 7.09648 3.261C7.18743 3.20278 7.28067 3.15411 7.37584 3.11276C7.47098 3.07146 7.56807 3.0374 7.66553 3.00926C7.76293 2.98112 7.86067 2.95885 7.9584 2.94094C8.05611 2.92304 8.15385 2.90943 8.25159 2.89863C8.34929 2.88782 8.44699 2.87977 8.54465 2.87313C8.64238 2.8665 8.74009 2.86135 8.83777 2.85618L39.2806 1.24375C39.7625 1.19 40.25 1.21902 40.7222 1.32953C40.7294 1.33178 40.7366 1.33399 40.7439 1.33629C40.7909 1.35117 40.8376 1.36804 40.884 1.38714C40.9305 1.4063 40.9766 1.42781 41.0215 1.45151C41.1111 1.49897 41.1957 1.55527 41.2751 1.62059C41.3148 1.65332 41.3532 1.68821 41.3904 1.72549C41.4276 1.76271 41.4637 1.80226 41.498 1.84345C41.5666 1.92578 41.6284 2.01451 41.6831 2.10984C41.7106 2.15745 41.7361 2.20673 41.76 2.25795C41.7838 2.30911 41.8058 2.36221 41.8257 2.41619C41.8656 2.52431 41.897 2.63625 41.922 2.75147C41.947 2.86675 41.9655 2.98519 41.979 3.10454C42.006 3.34334 42.013 3.58588 42.0105 3.82928C42.0079 4.07272 41.9958 4.317 41.9837 4.56128L40.969 24.9716C40.957 25.2118 40.9451 25.4521 40.9241 25.6915C40.9032 25.9308 40.8735 26.1692 40.8257 26.4057C40.8018 26.524 40.7734 26.6417 40.7387 26.7587C40.7214 26.8173 40.7024 26.8756 40.6815 26.9337C40.6607 26.9919 40.6378 27.0498 40.6134 27.1065C40.5643 27.2198 40.5085 27.3275 40.4456 27.4299C40.4141 27.4812 40.381 27.531 40.3459 27.5796C40.3109 27.6283 40.2741 27.6756 40.2362 27.7209C40.1602 27.8118 40.0796 27.8949 39.9944 27.9701C39.9517 28.0078 39.9078 28.0433 39.8626 28.0768C39.8174 28.1104 39.7708 28.142 39.7236 28.1711C39.6293 28.2293 39.5325 28.2778 39.4338 28.3187C39.335 28.3595 39.2343 28.3928 39.1333 28.4202C38.9313 28.4748 38.7283 28.5054 38.5256 28.5247C38.323 28.5439 38.1208 28.5516 37.9184 28.5594L7.4556 29.7151C7.35971 29.7188 7.26381 29.7223 7.16808 29.7247C7.07242 29.7269 6.97688 29.7279 6.88181 29.7261C6.69163 29.7226 6.50309 29.7086 6.31786 29.673C6.31441 29.6723 6.31094 29.6717 6.3075 29.671Z" stroke="#1F1F1F" stroke-width="0.5" stroke-linecap="round" stroke-linejoin="round"/>
<path d="M42.4567 1.55343C42.5047 1.56648 42.5525 1.58125 42.5999 1.59785C42.65 1.61544 42.6996 1.63517 42.7481 1.65699C42.7966 1.67892 42.8439 1.70291 42.8901 1.72933C42.9825 1.782 43.0701 1.84392 43.1533 1.91529C43.1949 1.95095 43.2355 1.98903 43.2743 2.02892C43.3131 2.06881 43.3503 2.11059 43.3857 2.15402C43.4565 2.24095 43.5207 2.33472 43.578 2.43558C43.6067 2.48596 43.6337 2.53812 43.6589 2.5921C43.6841 2.64598 43.7075 2.70159 43.7288 2.75818C43.7713 2.87132 43.8052 2.98799 43.8326 3.10838C43.8599 3.22882 43.8805 3.35289 43.8956 3.47839C43.9109 3.60385 43.9207 3.73076 43.9266 3.8581C43.9324 3.98538 43.9341 4.1131 43.9332 4.24111C43.9314 4.49719 43.9187 4.75499 43.906 5.01263L42.8954 25.3823C42.8825 25.6413 42.8695 25.9008 42.8457 26.1594C42.8219 26.4181 42.7872 26.6763 42.7319 26.93C42.7041 27.0568 42.6713 27.1826 42.6315 27.3073C42.6115 27.3696 42.5899 27.4317 42.5665 27.4925C42.5432 27.5534 42.518 27.6131 42.4912 27.6714C42.4375 27.7883 42.3765 27.9002 42.3082 28.0077C42.2739 28.0616 42.238 28.1142 42.2006 28.1648C42.1632 28.2156 42.1244 28.2644 42.0843 28.3113C42.0043 28.4052 41.9192 28.4914 41.8289 28.5702C41.7839 28.6096 41.7374 28.647 41.6898 28.6824C41.6421 28.7179 41.5932 28.7514 41.5437 28.7823C41.4448 28.8441 41.3437 28.8959 41.2403 28.94C41.1369 28.984 41.0312 29.0203 40.9248 29.0502C40.8185 29.08 40.7115 29.1035 40.6047 29.1222C40.4978 29.1408 40.3911 29.1545 40.2844 29.1651C40.0709 29.1863 39.8573 29.1944 39.6438 29.2025L9.21517 30.345C9.00806 30.3528 8.80086 30.3604 8.59523 30.3552C8.38962 30.3499 8.18559 30.3317 7.98703 30.2885C7.98016 30.287 7.97325 30.2855 7.96641 30.2839L6.24019 29.8928C6.23549 29.8917 6.23101 29.8907 6.22655 29.8897C6.21365 29.8867 6.20074 29.8836 6.1879 29.8803C6.17196 29.8764 6.15608 29.8722 6.14029 29.8678C6.11035 29.8595 6.08061 29.8507 6.05104 29.8412C6.03506 29.836 6.01912 29.8306 6.0033 29.8251C5.99458 29.822 5.98592 29.8189 5.97724 29.8157C5.9665 29.8118 5.95574 29.8077 5.94509 29.8036C5.91219 29.7908 5.8795 29.7771 5.84726 29.7624C5.83012 29.7546 5.8131 29.7465 5.79618 29.7381C5.77538 29.7277 5.7547 29.717 5.73424 29.7057C5.72194 29.6989 5.70973 29.692 5.69756 29.6849C5.68218 29.6758 5.6669 29.6666 5.6517 29.6571C5.63655 29.6475 5.62146 29.6377 5.60658 29.6276C5.58758 29.6148 5.56882 29.6015 5.55028 29.5877C5.53569 29.577 5.52122 29.5658 5.50691 29.5547C5.48861 29.5401 5.47056 29.5253 5.45274 29.51C5.44488 29.5033 5.43701 29.4965 5.42929 29.4896C5.41944 29.4809 5.40969 29.4721 5.40004 29.4631C5.37792 29.4426 5.35615 29.4214 5.3349 29.3995C5.32685 29.3913 5.31884 29.3829 5.31088 29.3745C5.3008 29.3638 5.29078 29.3529 5.28086 29.3418C5.25836 29.3167 5.23649 29.2909 5.21515 29.2645C5.1938 29.238 5.17304 29.2108 5.15289 29.1829C5.12731 29.1477 5.10283 29.1113 5.07931 29.0741C5.06081 29.0447 5.04299 29.0147 5.02575 28.9842C5.01612 28.9671 5.0067 28.9498 4.99748 28.9324C4.98579 28.9102 4.97441 28.8878 4.96342 28.8652C4.95475 28.8473 4.94625 28.8293 4.93806 28.8111C4.92759 28.7879 4.91748 28.7646 4.90769 28.741C4.89787 28.7174 4.88848 28.6935 4.87939 28.6694C4.87437 28.656 4.86941 28.6426 4.86461 28.629C4.85842 28.6117 4.85245 28.5942 4.8466 28.5766C4.83478 28.5409 4.82374 28.5046 4.8134 28.4681C4.80741 28.4469 4.80161 28.4255 4.79613 28.4041C4.78882 28.3758 4.78192 28.3471 4.77545 28.3185C4.76315 28.2641 4.7523 28.2092 4.74269 28.1538C4.7369 28.1203 4.73156 28.0867 4.72666 28.0529C4.72379 28.0331 4.72109 28.0132 4.71848 27.9933C4.71506 27.9667 4.71187 27.9401 4.70892 27.9135C4.7074 27.9 4.70593 27.8864 4.70455 27.8728C4.70278 27.8551 4.70108 27.8375 4.69945 27.8197C4.69567 27.7778 4.69237 27.7356 4.68961 27.6934C4.68663 27.6479 4.68424 27.6023 4.68231 27.5567C4.68121 27.5293 4.68024 27.5019 4.67944 27.4744C4.6784 27.437 4.67763 27.3996 4.67721 27.3621C4.67689 27.3372 4.67672 27.3123 4.67667 27.2873C4.67656 27.253 4.67672 27.2188 4.67705 27.1844C4.67745 27.1462 4.67802 27.1078 4.67884 27.0696C4.67934 27.0458 4.67992 27.0221 4.68059 26.9983C4.68098 26.984 4.68141 26.9696 4.68183 26.9553C4.68243 26.9357 4.68311 26.9161 4.68377 26.8965C4.68464 26.8725 4.68554 26.8485 4.68648 26.8245C4.68789 26.789 4.68939 26.7535 4.69101 26.7181C4.69179 26.7005 4.69263 26.6829 4.69346 26.6653C4.69456 26.6409 4.69577 26.6164 4.697 26.592C4.69755 26.5805 4.69814 26.5691 4.69872 26.5576C4.69948 26.5423 4.70026 26.5269 4.70101 26.5116C4.70183 26.4956 4.70266 26.4796 4.7035 26.4636C4.70423 26.4495 4.70493 26.4353 4.70567 26.4212L5.73815 6.41724C5.73868 6.40721 5.73917 6.39699 5.73972 6.38697C5.74055 6.37089 5.74139 6.35502 5.74217 6.33904C5.74358 6.31231 5.745 6.28547 5.74641 6.25874C5.74771 6.23431 5.74901 6.21002 5.75039 6.18564C5.75136 6.168 5.75235 6.15039 5.75335 6.13275C5.75539 6.09735 5.75751 6.06168 5.75973 6.02613C5.76127 6.00211 5.76279 5.97808 5.76441 5.95411C5.76667 5.92033 5.76906 5.8866 5.77158 5.85272C5.77337 5.82917 5.77518 5.80545 5.77713 5.78185C5.77887 5.76008 5.78071 5.7383 5.78264 5.71653C5.78405 5.70039 5.78548 5.68429 5.78697 5.66816C5.78883 5.64816 5.79072 5.62813 5.79271 5.60819C5.79421 5.59294 5.79577 5.57774 5.79736 5.56249C5.80007 5.53681 5.80285 5.51111 5.80577 5.48531C5.81018 5.44694 5.81481 5.40867 5.81979 5.37035C5.82342 5.34236 5.82724 5.31446 5.83123 5.28648C5.83499 5.26027 5.83891 5.23383 5.84305 5.20752C5.84614 5.18768 5.84929 5.16792 5.85258 5.14818C5.85965 5.10574 5.86721 5.06341 5.87527 5.02117C5.88125 4.98984 5.88747 4.95872 5.89407 4.92755C5.90396 4.88067 5.91451 4.83392 5.92587 4.78741C5.93422 4.75316 5.94301 4.71885 5.95226 4.68487C5.96105 4.65229 5.97029 4.61987 5.97995 4.58755C5.98405 4.57372 5.98828 4.55997 5.99253 4.54619C5.99585 4.53559 5.99917 4.52513 6.00254 4.51458C6.01208 4.48498 6.02198 4.45553 6.03224 4.42619C6.03998 4.4041 6.04798 4.38215 6.05617 4.36023C6.0641 4.33913 6.07219 4.31812 6.08058 4.29713C6.087 4.28116 6.09354 4.26508 6.1002 4.24921C6.11365 4.21715 6.12756 4.18559 6.14208 4.15431C6.15346 4.12962 6.16516 4.10523 6.17725 4.0809C6.18931 4.05657 6.20173 4.03251 6.21441 4.00876C6.22445 3.98996 6.23464 3.97128 6.24506 3.9528C6.26889 3.91046 6.29372 3.86887 6.3195 3.82814C6.33086 3.81024 6.34239 3.79238 6.35414 3.77474C6.3634 3.76085 6.37279 3.74711 6.38224 3.73338C6.39751 3.71135 6.41304 3.68951 6.42886 3.66805C6.44129 3.65119 6.45395 3.63446 6.46672 3.61796C6.48953 3.58852 6.5129 3.5596 6.53675 3.53135C6.56061 3.50316 6.585 3.47551 6.60985 3.44857C6.62933 3.42748 6.64913 3.40676 6.66912 3.38656C6.6923 3.36312 6.71579 3.34029 6.7397 3.31805C6.7585 3.30051 6.77752 3.28338 6.79674 3.26662C6.81589 3.24991 6.83528 3.23359 6.85486 3.21761C6.87025 3.20503 6.88578 3.19276 6.90142 3.18065C6.9213 3.1653 6.94134 3.1504 6.96161 3.13578C6.97756 3.1244 6.9936 3.1131 7.00979 3.10213C7.02585 3.09127 7.04199 3.0807 7.05826 3.0702C7.07115 3.06206 7.08411 3.05397 7.09713 3.04599C7.13611 3.02239 7.17546 3.00003 7.21535 2.9792C7.23369 2.96954 7.25212 2.96019 7.27067 2.95116C7.28564 2.94385 7.30067 2.93669 7.31576 2.92974C7.35147 2.91325 7.38741 2.89775 7.42356 2.88328C7.45382 2.87112 7.48425 2.85959 7.51482 2.84868C7.54426 2.83818 7.57381 2.82825 7.60343 2.81885C7.61711 2.81457 7.6308 2.8103 7.64448 2.80617C7.65563 2.80283 7.66679 2.79954 7.67797 2.79636C7.69255 2.79213 7.70719 2.78809 7.72178 2.78412C7.73353 2.78094 7.74526 2.7779 7.75706 2.77482C7.77867 2.76928 7.80034 2.76399 7.82203 2.75882C7.851 2.75198 7.87996 2.74569 7.90899 2.73964C7.93313 2.73462 7.95734 2.72997 7.98148 2.72542C8.00715 2.72073 8.03278 2.71627 8.05847 2.71204C8.07995 2.70854 8.10143 2.70516 8.12287 2.70197C8.16079 2.69644 8.19863 2.69134 8.23653 2.68674C8.27013 2.68267 8.3038 2.67889 8.33748 2.6754C8.37656 2.67143 8.41567 2.66781 8.45448 2.66463C8.47421 2.66296 8.49388 2.66141 8.51369 2.65985C8.5311 2.65859 8.54859 2.65722 8.56595 2.65602C8.59876 2.65373 8.63129 2.65162 8.66393 2.64959C8.69427 2.64771 8.72477 2.64596 8.75513 2.64423C8.7741 2.64324 8.79296 2.64215 8.81191 2.64111C8.82794 2.64022 8.84398 2.63934 8.86003 2.63856C8.86953 2.63799 8.87902 2.6375 8.88852 2.63703L39.3303 1.02097C39.3388 1.0205 39.3473 1.02015 39.3558 1.01963C39.3694 1.01895 39.3828 1.01825 39.3963 1.01746C39.4189 1.01637 39.4416 1.01517 39.4642 1.01402C39.4848 1.01292 39.5054 1.0119 39.526 1.01096C39.5409 1.01028 39.5558 1.0096 39.5707 1.00892C39.6007 1.00756 39.6308 1.00637 39.6609 1.00523C39.6812 1.00444 39.7015 1.00376 39.7218 1.00319C39.7504 1.0023 39.7789 1.00166 39.8076 1.00108C39.8275 1.00067 39.8476 1.00046 39.8676 1.00025C39.886 1.00005 39.9043 1 39.9227 1C39.9364 1 39.95 1.00003 39.9637 1.00019C39.9805 1.0003 39.9975 1.00057 40.0144 1.00083C40.0272 1.00099 40.0401 1.00134 40.0529 1.00166C40.0747 1.00223 40.0964 1.00292 40.1181 1.00376C40.1506 1.00517 40.183 1.00672 40.2152 1.00886C40.2389 1.01037 40.2624 1.0121 40.286 1.01408C40.3082 1.01591 40.3304 1.01798 40.3525 1.02033C40.3692 1.022 40.3859 1.02389 40.4026 1.02587C40.4383 1.0301 40.4738 1.03501 40.5094 1.0406C40.5356 1.04477 40.5619 1.04932 40.588 1.05417C40.6274 1.06158 40.6665 1.06986 40.7055 1.07915C40.7277 1.08453 40.75 1.09016 40.7722 1.09617L42.4567 1.55343Z" stroke="#1F1F1F" stroke-width="0.5" stroke-linecap="round" stroke-linejoin="round"/>
<path d="M43.5553 12.136L44.2667 12.1027C44.3147 12.1004 44.3629 12.101 44.411 12.1043C44.4256 12.1053 44.4401 12.1066 44.4546 12.1081C44.4678 12.1096 44.4811 12.1112 44.4944 12.1129C44.7698 12.1506 45.0399 12.2797 45.2884 12.4887C45.5568 12.7146 45.8001 13.0338 45.9973 13.4156C46.3824 14.1615 46.5914 15.1461 46.5819 16.1021C46.5726 17.0587 46.3446 17.9868 45.9423 18.6332C45.7702 18.9099 45.566 19.1351 45.3427 19.2922C45.1151 19.4523 44.8677 19.542 44.6142 19.5526L43.1842 19.6138" stroke="#1F1F1F" stroke-width="0.5" stroke-linecap="round" stroke-linejoin="round"/>
<path d="M153.371 168.497C153.363 168.497 153.356 168.497 153.35 168.496C153.338 168.496 153.326 168.495 153.315 168.495C153.286 168.495 153.264 168.496 153.249 168.498L145.97 169.232L138.539 169.983C138.376 169.985 138.219 170.041 138.092 170.143C138.043 170.196 137.971 170.284 137.904 170.375C137.833 170.469 137.764 170.568 137.696 170.673C137.625 170.783 137.547 170.911 137.46 171.054C137.269 171.367 137.098 171.645 136.918 171.945C136.744 172.234 136.564 172.539 136.388 172.839C136.215 173.133 136.015 173.471 135.828 173.769C135.743 173.904 135.657 174.037 135.564 174.173C135.457 174.331 135.34 174.492 135.219 174.644C135.204 174.663 135.189 174.682 135.173 174.701" stroke="#1F1F1F" stroke-width="0.5" stroke-linecap="round" stroke-linejoin="round"/>
<path d="M154.706 166.442C154.693 166.443 154.68 166.444 154.667 166.445L139.179 167.967C138.695 168.057 138.242 168.27 137.865 168.587C137.488 168.904 137.199 169.313 137.027 169.775L135.419 172.577C135.397 172.616 135.374 172.655 135.352 172.695C135.331 172.73 135.311 172.766 135.29 172.802C135.27 172.836 135.249 172.871 135.229 172.906C135.208 172.942 135.186 172.978 135.165 173.013C135.142 173.05 135.12 173.087 135.097 173.123C135.075 173.159 135.053 173.194 135.03 173.229C135.009 173.261 134.988 173.294 134.966 173.326C134.946 173.355 134.926 173.384 134.905 173.412C134.886 173.439 134.867 173.465 134.848 173.491C134.829 173.515 134.81 173.539 134.791 173.563C134.772 173.587 134.753 173.61 134.734 173.632C134.715 173.655 134.695 173.676 134.675 173.698C134.656 173.719 134.636 173.739 134.616 173.759C134.596 173.779 134.575 173.798 134.555 173.816C134.534 173.835 134.513 173.853 134.492 173.869C134.471 173.886 134.45 173.902 134.429 173.917C134.407 173.932 134.386 173.947 134.364 173.96C134.342 173.974 134.32 173.987 134.298 173.998C134.276 174.01 134.254 174.021 134.232 174.032C134.21 174.042 134.188 174.052 134.166 174.061C134.143 174.07 134.121 174.078 134.098 174.085C134.076 174.093 134.053 174.1 134.03 174.106C134.007 174.112 133.984 174.118 133.961 174.124C133.937 174.129 133.913 174.134 133.89 174.139C133.865 174.143 133.84 174.148 133.815 174.151C133.788 174.155 133.762 174.159 133.736 174.163C133.707 174.166 133.679 174.17 133.651 174.173C133.621 174.176 133.591 174.18 133.56 174.183H133.559L117.839 175.85C117.782 175.856 117.726 175.862 117.669 175.868C117.569 175.878 117.468 175.889 117.367 175.899C117.267 175.91 117.166 175.92 117.064 175.931C116.96 175.941 116.854 175.952 116.746 175.962C116.648 175.971 116.549 175.981 116.447 175.99" stroke="#1F1F1F" stroke-width="0.5" stroke-linecap="round" stroke-linejoin="round"/>
<path d="M116.44 175.988L116.436 175.989L116.425 175.99L116.414 175.99L116.403 175.991L116.392 175.992L116.381 175.993L116.371 175.995L116.36 175.995L116.349 175.996L116.344 175.997C111.353 176.342 106.344 176.372 101.349 176.089C101.34 176.088 101.33 176.087 101.32 176.086C101.309 176.085 101.299 176.083 101.287 176.082" stroke="#1F1F1F" stroke-width="0.5" stroke-linecap="round" stroke-linejoin="round"/>
<path d="M1.28786 171.698C1.28452 171.699 1.28127 171.7 1.27798 171.701C1.25749 171.708 1.23875 171.714 1.2218 171.721C1.20651 171.727 1.19264 171.734 1.18012 171.74C1.16788 171.746 1.15698 171.753 1.14727 171.76C1.1372 171.767 1.12836 171.775 1.12105 171.784C1.11363 171.793 1.10775 171.804 1.10502 171.816C1.10399 171.821 1.10339 171.826 1.10339 171.831L1.10378 172.38C1.10327 172.414 1.1138 172.449 1.12755 172.475C1.14112 172.502 1.15786 172.521 1.17439 172.537C1.18073 172.543 1.18703 172.548 1.19351 172.553C1.45747 172.762 1.72141 172.971 1.98529 173.18C1.99258 173.185 2.00153 173.191 2.01221 173.197C2.03197 173.207 2.05753 173.218 2.08885 173.228C2.12015 173.239 2.1572 173.249 2.19964 173.259C2.24205 173.27 2.28988 173.28 2.34272 173.29C2.3956 173.299 2.45344 173.309 2.51721 173.318C2.58091 173.328 2.65051 173.337 2.72733 173.347C2.80413 173.357 2.88822 173.366 2.98005 173.376C3.0719 173.385 3.1716 173.395 3.27901 173.405C3.38643 173.414 3.50162 173.424 3.62538 173.434C3.74911 173.443 3.88143 173.453 4.02254 173.462C4.16374 173.472 4.31373 173.482 4.47821 173.491C4.64272 173.501 4.82168 173.511 5.01995 173.522C5.2182 173.532 5.43571 173.543 5.67226 173.554C5.90883 173.565 6.16444 173.577 6.43593 173.589C6.70745 173.6 6.99491 173.613 7.29661 173.626L101.608 177.661C106.775 177.995 111.96 177.923 117.116 177.443L132.846 175.743C132.964 175.73 133.082 175.717 133.2 175.705C133.318 175.692 133.436 175.679 133.553 175.666C133.62 175.659 133.684 175.652 133.743 175.646C133.802 175.639 133.855 175.633 133.904 175.627C133.953 175.621 133.998 175.614 134.038 175.608C134.079 175.602 134.114 175.595 134.144 175.589C134.174 175.583 134.199 175.578 134.22 175.572C134.241 175.567 134.258 175.561 134.271 175.556C134.281 175.552 134.289 175.548 134.294 175.544C134.349 175.505 134.403 175.464 134.456 175.422C134.459 175.42 134.462 175.417 134.465 175.415C134.522 175.37 134.578 175.323 134.633 175.275C134.637 175.271 134.641 175.268 134.645 175.264C134.692 175.222 134.738 175.179 134.783 175.136C134.831 175.09 134.877 175.043 134.922 174.995C134.963 174.951 135.003 174.907 135.04 174.863C135.042 174.861 135.044 174.859 135.045 174.857C135.074 174.824 135.101 174.791 135.125 174.762C135.136 174.749 135.146 174.736 135.155 174.725C135.16 174.72 135.164 174.715 135.17 174.708" stroke="#1F1F1F" stroke-width="0.5" stroke-linecap="round" stroke-linejoin="round"/>
<path d="M135.858 173.727L143.617 172.907C145.476 172.724 147.347 172.699 149.21 172.831C150.115 172.867 151.022 172.902 151.929 172.938C152.837 172.973 153.746 173.009 154.656 173.045C154.734 173.048 154.812 173.051 154.89 173.053C154.967 173.056 155.044 173.058 155.12 173.06C155.196 173.062 155.27 173.064 155.344 173.065C155.418 173.067 155.491 173.068 155.562 173.07C155.634 173.071 155.704 173.071 155.773 173.072C155.843 173.073 155.911 173.073 155.979 173.074C156.046 173.074 156.113 173.074 156.179 173.074C156.244 173.074 156.31 173.074 156.374 173.073C156.439 173.073 156.503 173.072 156.567 173.071C156.632 173.071 156.696 173.07 156.76 173.068C156.824 173.067 156.888 173.066 156.952 173.064C157.016 173.063 157.08 173.061 157.143 173.059C157.206 173.057 157.268 173.055 157.329 173.052C157.391 173.05 157.451 173.047 157.51 173.045C157.572 173.041 157.634 173.038 157.697 173.035C157.76 173.031 157.822 173.027 157.885 173.023C157.948 173.019 158.011 173.014 158.074 173.01C158.136 173.005 158.199 172.999 158.257 172.994C158.316 172.989 158.372 172.983 158.428 172.977C158.485 172.971 158.543 172.965 158.605 172.958C158.715 172.946 158.824 172.934 158.934 172.923C159.044 172.911 159.154 172.899 159.263 172.887L173.272 171.373C173.437 171.355 173.603 171.337 173.766 171.319C173.772 171.319 173.778 171.318 173.784 171.317C173.85 171.31 173.916 171.303 173.982 171.295C174 171.293 174.018 171.291 174.035 171.289C174.079 171.284 174.122 171.28 174.165 171.275C174.204 171.27 174.242 171.266 174.279 171.261C174.3 171.259 174.32 171.256 174.34 171.254C174.396 171.247 174.451 171.24 174.503 171.233C174.505 171.233 174.507 171.233 174.509 171.233C174.559 171.226 174.606 171.219 174.652 171.213C174.674 171.21 174.695 171.206 174.716 171.203C174.717 171.203 174.719 171.203 174.72 171.203C174.751 171.198 174.781 171.193 174.81 171.188C174.891 171.174 174.963 171.16 175.025 171.145C175.029 171.144 175.033 171.143 175.038 171.142C175.095 171.129 175.143 171.115 175.183 171.101C175.205 171.094 175.224 171.086 175.24 171.079C175.257 171.072 175.27 171.064 175.282 171.057C175.285 171.054 175.288 171.052 175.291 171.049C175.546 170.849 175.8 170.648 176.055 170.447C176.063 170.44 176.071 170.433 176.079 170.425C176.094 170.41 176.11 170.392 176.122 170.366C176.134 170.342 176.143 170.311 176.143 170.28C176.146 170.099 176.148 169.919 176.151 169.739C176.151 169.731 176.15 169.724 176.147 169.717C176.144 169.705 176.137 169.696 176.129 169.687C176.122 169.679 176.113 169.672 176.103 169.666C176.094 169.659 176.083 169.654 176.071 169.648C176.058 169.642 176.044 169.636 176.029 169.63C176.013 169.624 175.995 169.618 175.975 169.612" stroke="#1F1F1F" stroke-width="0.5" stroke-linecap="round" stroke-linejoin="round"/>
<path d="M13.3766 157.487L13.132 157.504" stroke="#1F1F1F" stroke-width="0.5" stroke-linecap="round" stroke-linejoin="round"/>
<path d="M20.111 39.3826L20.3549 39.3995" stroke="#1F1F1F" stroke-width="0.5" stroke-linecap="round" stroke-linejoin="round"/>
<path d="M13.0679 39.6145L13.3128 39.6313" stroke="#1F1F1F" stroke-width="0.5" stroke-linecap="round" stroke-linejoin="round"/>
<path d="M43.5975 11.2613L101.195 8.53516" stroke="#1F1F1F" stroke-width="0.5" stroke-linecap="round" stroke-linejoin="round"/>
<path d="M40.6546 1.32751C40.6443 1.3252 40.634 1.32309 40.6237 1.32104L40.6546 1.32751Z" stroke="#1F1F1F" stroke-width="0.5" stroke-linecap="round" stroke-linejoin="round"/>
<path d="M40.5812 1.30981L40.7353 1.35164" stroke="#1F1F1F" stroke-width="0.5" stroke-linecap="round" stroke-linejoin="round"/>
<path d="M6.35632 29.6685C6.49812 29.7006 6.63948 29.7122 6.77589 29.7071" stroke="#1F1F1F" stroke-width="0.5" stroke-linecap="round" stroke-linejoin="round"/>
<path d="M41.1206 1.50773C40.9945 1.43699 40.8642 1.38461 40.734 1.34937" stroke="#1F1F1F" stroke-width="0.5" stroke-linecap="round" stroke-linejoin="round"/>
<path d="M101.25 25.4209C101.234 25.431 101.218 25.4453 101.206 25.4624" stroke="#1F1F1F" stroke-width="0.5" stroke-linecap="round" stroke-linejoin="round"/>
<path d="M101.25 26.876C101.234 26.886 101.218 26.9003 101.206 26.9174" stroke="#1F1F1F" stroke-width="0.5" stroke-linecap="round" stroke-linejoin="round"/>
<path d="M101.206 25.7065C101.217 25.7218 101.232 25.7341 101.248 25.7424" stroke="#1F1F1F" stroke-width="0.5" stroke-linecap="round" stroke-linejoin="round"/>
<path d="M101.206 27.1545C101.217 27.1698 101.232 27.1821 101.248 27.1904" stroke="#1F1F1F" stroke-width="0.5" stroke-linecap="round" stroke-linejoin="round"/>
<path d="M6.84065 29.7264L6.77356 29.7112" stroke="#1F1F1F" stroke-width="0.5" stroke-linecap="round" stroke-linejoin="round"/>
<path d="M40.7356 1.34671C40.7103 1.33983 40.6848 1.33357 40.6592 1.32788" stroke="#1F1F1F" stroke-width="0.5" stroke-linecap="round" stroke-linejoin="round"/>
<path d="M101.195 8.53521C101.198 8.5351 101.2 8.53515 101.203 8.53549L101.195 8.53521Z" stroke="#1F1F1F" stroke-width="0.5" stroke-linecap="round" stroke-linejoin="round"/>
<path d="M101.209 8.60069C101.209 8.59932 101.209 8.5979 101.209 8.59647C101.209 8.59505 101.209 8.59353 101.21 8.592C101.21 8.59053 101.21 8.5889 101.211 8.58723C101.211 8.5856 101.211 8.58394 101.212 8.58226C101.213 8.58063 101.213 8.57906 101.214 8.57748C101.215 8.57601 101.216 8.57461 101.217 8.57339C101.218 8.57212 101.219 8.57101 101.22 8.5701C101.221 8.56918 101.222 8.56843 101.224 8.56793C101.225 8.56752 101.227 8.56728 101.228 8.56743L101.209 8.60069Z" stroke="#1F1F1F" stroke-width="0.5" stroke-linecap="round" stroke-linejoin="round"/>
<path d="M101.228 8.56898C101.229 8.55302 101.215 8.53546 101.202 8.53516L101.228 8.56898Z" stroke="#1F1F1F" stroke-width="0.5" stroke-linecap="round" stroke-linejoin="round"/>
<path d="M101.241 76.5813C101.242 76.5813 101.241 76.5813 101.241 76.5813Z" stroke="#1F1F1F" stroke-width="0.5" stroke-linecap="round" stroke-linejoin="round"/>
<path d="M139.082 167.977L139.181 167.968" stroke="#1F1F1F" stroke-width="0.5" stroke-linecap="round" stroke-linejoin="round"/>
<path d="M101.241 89.4887L101.258 8.60296C101.258 8.59602 101.259 8.58895 101.261 8.58231C101.264 8.57297 101.269 8.56432 101.275 8.5567C101.279 8.55174 101.284 8.54725 101.289 8.54344C101.292 8.54156 101.294 8.53986 101.297 8.53834C101.307 8.53338 101.317 8.53051 101.328 8.52999C106.849 8.14622 112.393 8.23494 117.9 8.79517L174.09 15.5185C174.162 15.5271 174.234 15.5357 174.305 15.5443C174.373 15.5525 174.441 15.5606 174.509 15.5687C174.571 15.5763 174.634 15.5838 174.695 15.5913C174.752 15.5983 174.809 15.6053 174.865 15.6123C174.916 15.6187 174.967 15.6251 175.017 15.6316C175.063 15.6375 175.108 15.6434 175.153 15.6493C175.194 15.6549 175.234 15.6603 175.273 15.6658C175.309 15.6708 175.344 15.6759 175.379 15.6809C175.41 15.6856 175.44 15.6903 175.47 15.6949C175.497 15.6992 175.524 15.7034 175.55 15.7078C175.573 15.7117 175.597 15.7157 175.619 15.7198C175.641 15.7237 175.663 15.7276 175.683 15.7316C175.705 15.7357 175.726 15.7399 175.747 15.744C175.768 15.7484 175.788 15.7526 175.808 15.757C175.827 15.761 175.845 15.7652 175.863 15.7694C175.88 15.7735 175.897 15.7776 175.913 15.7817C175.93 15.7861 175.947 15.7905 175.963 15.795C175.98 15.8 175.998 15.8049 176.014 15.8098C176.032 15.8154 176.049 15.8209 176.065 15.8266C176.084 15.8329 176.101 15.8394 176.117 15.8459C176.134 15.8531 176.151 15.8605 176.166 15.8682C176.181 15.8759 176.195 15.8839 176.208 15.8925C176.221 15.9009 176.232 15.9097 176.243 15.9199C176.253 15.9301 176.262 15.9415 176.27 15.9552C176.277 15.9692 176.283 15.9857 176.283 16.0037C176.283 16.0051 176.283 16.0065 176.283 16.0079L176.151 169.461C176.151 169.468 176.15 169.474 176.149 169.481C176.147 169.491 176.143 169.5 176.139 169.508C176.135 169.515 176.131 169.522 176.126 169.528C176.124 169.53 176.123 169.531 176.122 169.533C176.118 169.537 176.115 169.54 176.111 169.544C176.106 169.548 176.101 169.552 176.096 169.556C176.091 169.56 176.085 169.564 176.08 169.567C176.074 169.571 176.069 169.574 176.063 169.577C176.057 169.58 176.051 169.583 176.045 169.586C176.039 169.589 176.033 169.592 176.026 169.595C176.019 169.598 176.012 169.601 176.005 169.604C175.998 169.606 175.991 169.609 175.983 169.612C175.976 169.615 175.968 169.618 175.959 169.62C175.951 169.623 175.943 169.626 175.934 169.629C175.925 169.631 175.916 169.634 175.907 169.637C175.898 169.639 175.889 169.642 175.879 169.644C175.87 169.647 175.86 169.65 175.85 169.652C175.839 169.655 175.829 169.657 175.818 169.66C175.808 169.662 175.797 169.665 175.786 169.668C175.775 169.67 175.763 169.673 175.752 169.675C175.74 169.678 175.727 169.68 175.715 169.683C175.701 169.686 175.687 169.689 175.672 169.691C175.656 169.695 175.64 169.698 175.623 169.701C175.605 169.704 175.586 169.707 175.567 169.711C175.547 169.714 175.526 169.718 175.504 169.721C175.482 169.725 175.46 169.728 175.436 169.732C175.415 169.735 175.393 169.738 175.37 169.741C175.349 169.744 175.327 169.747 175.306 169.75C175.283 169.753 175.261 169.756 175.238 169.759C175.213 169.763 175.187 169.766 175.161 169.769C175.135 169.772 175.109 169.776 175.082 169.779C175.057 169.782 175.031 169.785 175.005 169.788C174.977 169.791 174.948 169.795 174.92 169.798C174.887 169.802 174.855 169.805 174.822 169.809C174.791 169.813 174.759 169.816 174.727 169.82C174.699 169.823 174.671 169.826 174.642 169.829C174.616 169.832 174.59 169.835 174.564 169.837C174.54 169.84 174.516 169.843 174.492 169.845C174.47 169.848 174.447 169.85 174.425 169.852C174.405 169.855 174.385 169.857 174.364 169.859C174.346 169.861 174.327 169.863 174.308 169.865C174.291 169.867 174.274 169.869 174.257 169.87C174.241 169.872 174.226 169.874 174.21 169.875C174.195 169.877 174.18 169.879 174.165 169.88C174.15 169.882 174.135 169.883 174.12 169.885C174.115 169.885 174.109 169.886 174.104 169.887C174.094 169.888 174.085 169.889 174.076 169.89C174.062 169.891 174.047 169.893 174.033 169.894C174.02 169.896 174.007 169.897 173.995 169.898C173.982 169.9 173.97 169.901 173.958 169.902L159.958 171.386C159.926 171.389 159.893 171.393 159.86 171.396C159.852 171.397 159.845 171.397 159.838 171.398C159.806 171.401 159.773 171.404 159.741 171.407C159.736 171.407 159.731 171.408 159.726 171.408C159.679 171.412 159.632 171.416 159.585 171.417C159.539 171.419 159.493 171.419 159.448 171.416C159.433 171.415 159.419 171.414 159.405 171.413C159.119 171.322 158.858 171.168 158.642 170.962C158.425 170.755 158.258 170.503 158.153 170.222L157.471 169.137C157.114 168.563 156.815 168.086 156.573 167.706C156.418 167.388 156.192 167.109 155.914 166.891C155.635 166.673 155.311 166.521 154.965 166.447C154.96 166.447 154.956 166.446 154.952 166.446C154.92 166.443 154.888 166.441 154.856 166.441C154.824 166.44 154.792 166.441 154.76 166.442C154.729 166.443 154.698 166.446 154.667 166.448" stroke="#1F1F1F" stroke-width="0.5" stroke-linecap="round" stroke-linejoin="round"/>
<path d="M13.1356 157.505C13.137 157.505 13.1384 157.505 13.1398 157.505C13.2202 157.491 13.2995 157.485 13.3761 157.488C14.0791 157.455 14.7462 158.315 14.7784 159.189C14.8106 160.062 14.2079 160.949 13.5034 160.945L13.2587 160.964" stroke="#1F1F1F" stroke-width="0.5" stroke-linecap="round" stroke-linejoin="round"/>
</svg>
