<svg width="14" height="14" viewBox="0 0 14 14" fill="none" xmlns="http://www.w3.org/2000/svg">
	<g clip-path="url(#clip0_1018_9591)">
	<rect x="1.25" y="0.25" width="9.5" height="11.5" rx="0.75" stroke="#262E30" stroke-width="0.5"/>
	<line x1="3.25" y1="2.75" x2="7.75" y2="2.75" stroke="#262E30" stroke-width="0.5" stroke-linecap="round"/>
	<line x1="3.25" y1="8.75" x2="7.75" y2="8.75" stroke="#262E30" stroke-width="0.5" stroke-linecap="round"/>
	<line x1="3.25" y1="5.75" x2="5.75" y2="5.75" stroke="#262E30" stroke-width="0.5" stroke-linecap="round"/>
	<path d="M12.1524 9.5C12.1524 9.39915 12.1467 9.29956 12.1353 9.20178C12.1203 9.0727 12.1772 8.94313 12.2901 8.87879L12.7362 8.62462C12.8814 8.54191 12.931 8.35651 12.8465 8.21234L12.3012 7.28134C12.2182 7.13963 12.0367 7.091 11.894 7.17223L11.4358 7.433C11.3252 7.49594 11.1879 7.48088 11.0854 7.40545C10.921 7.28443 10.7419 7.18182 10.551 7.1004C10.4323 7.04979 10.349 6.93675 10.349 6.80772V6.3C10.349 6.13431 10.2147 6 10.049 6H8.95097C8.78528 6 8.65097 6.13431 8.65097 6.3V6.80733C8.65097 6.93655 8.56749 7.0497 8.44861 7.10037C8.25809 7.18158 8.07894 7.28438 7.91457 7.40543C7.81211 7.48089 7.67481 7.49594 7.56422 7.433L7.10605 7.17223C6.96331 7.091 6.7818 7.13963 6.69879 7.28134L6.15346 8.21234C6.069 8.35651 6.11862 8.54191 6.26381 8.62462L6.71125 8.87956C6.82351 8.94352 6.88045 9.07201 6.86532 9.20033C6.85374 9.29862 6.84757 9.39851 6.84757 9.5C6.84757 9.60085 6.85334 9.70044 6.86469 9.79822C6.87969 9.9273 6.82282 10.0569 6.7099 10.1212L6.26381 10.3754C6.11862 10.4581 6.069 10.6435 6.15346 10.7877L6.69879 11.7187C6.7818 11.8604 6.96331 11.909 7.10605 11.8278L7.56422 11.567C7.67481 11.5041 7.81211 11.5191 7.91458 11.5946C8.07899 11.7156 8.25808 11.8182 8.44903 11.8996C8.56773 11.9502 8.65097 12.0632 8.65097 12.1923V12.7C8.65097 12.8657 8.78528 13 8.95097 13H10.049C10.2147 13 10.349 12.8657 10.349 12.7V12.1927C10.349 12.0634 10.4325 11.9503 10.5514 11.8996C10.7419 11.8184 10.9211 11.7156 11.0854 11.5946C11.1879 11.5191 11.3252 11.5041 11.4358 11.567L11.894 11.8278C12.0367 11.909 12.2182 11.8604 12.3012 11.7187L12.8465 10.7877C12.931 10.6435 12.8814 10.4581 12.7362 10.3754L12.2901 10.1212C12.1772 10.0569 12.1203 9.9273 12.1353 9.79822C12.1467 9.70044 12.1524 9.60085 12.1524 9.5Z" fill="#ACACAC" stroke="#262E30" stroke-width="0.5" stroke-miterlimit="10"/>
	</g>
	<defs>
	<clipPath id="clip0_1018_9591">
	<rect width="14" height="14" fill="white" transform="translate(0 14) rotate(-90)"/>
	</clipPath>
	</defs>
	</svg>
	