<svg width="19" height="18" viewBox="0 0 19 18" fill="none" xmlns="http://www.w3.org/2000/svg">
<path fill-rule="evenodd" clip-rule="evenodd" d="M3.91925 4.87329C3.36815 5.89677 3.00758 7.35483 3.00758 9.00056C3.00758 10.6463 3.36815 12.1043 3.91925 13.1278C4.48445 14.1775 5.15755 14.6256 5.73972 14.6256C6.32189 14.6256 6.99499 14.1775 7.56019 13.1278C8.11129 12.1043 8.47186 10.6463 8.47186 9.00056C8.47186 7.35483 8.11129 5.89677 7.56019 4.87329C6.99499 3.82363 6.32189 3.37556 5.73972 3.37556C5.15755 3.37556 4.48445 3.82363 3.91925 4.87329ZM2.78722 4.26374C3.44352 3.04488 4.45793 2.08984 5.73972 2.08984C7.02151 2.08984 8.03592 3.04488 8.69222 4.26374C9.36263 5.50878 9.75758 7.18465 9.75758 9.00056C9.75758 10.8165 9.36263 12.4923 8.69222 13.7374C8.03592 14.9562 7.02151 15.9113 5.73972 15.9113C4.45793 15.9113 3.44352 14.9562 2.78722 13.7374C2.11681 12.4923 1.72186 10.8165 1.72186 9.00056C1.72186 7.18465 2.11681 5.50878 2.78722 4.26374Z" fill="#686868"/>
<path fill-rule="evenodd" clip-rule="evenodd" d="M6.22183 12.8588C5.42321 12.8582 4.77588 11.4358 4.77588 9.00167C4.77588 6.56711 5.42347 5.14453 6.22231 5.14453C6.22626 5.14453 6.23021 5.14457 6.23416 5.14464H12.9718V12.8589H6.22183V12.8588Z" fill="#DEDEDE"/>
<path fill-rule="evenodd" clip-rule="evenodd" d="M5.79714 6.39547C5.57583 6.95347 5.41877 7.82937 5.41877 9C5.41877 10.1704 5.57576 11.0462 5.79701 11.6042C5.90781 11.8837 6.02207 12.0512 6.11157 12.1399C6.15434 12.1823 6.18523 12.2006 6.20116 12.208C6.21476 12.2143 6.22043 12.2143 6.22216 12.2143L12.329 12.2144V5.78582H6.22285C6.2211 5.78581 6.21479 5.78568 6.20123 5.79196C6.18533 5.79934 6.15447 5.81756 6.11172 5.8599C6.02225 5.94853 5.90797 6.11602 5.79714 6.39547ZM5.57901 13.3364C5.11652 13.0845 4.80014 12.5783 4.60181 12.0781C4.29973 11.3162 4.13306 10.2637 4.13306 9C4.13306 7.73607 4.2998 6.6834 4.60199 5.92146C4.88151 5.2167 5.39553 4.5 6.22234 4.5L6.2342 4.5001H13.6147V13.5001H5.57901V13.3364Z" fill="#686868"/>
<path d="M15.8657 9.00223C15.8657 12.4639 14.3547 15.2701 12.4907 15.2701C10.6268 15.2701 9.11572 12.4639 9.11572 9.00223C9.11572 5.54059 10.6268 2.73438 12.4907 2.73438C14.3547 2.73438 15.8657 5.54059 15.8657 9.00223Z" fill="#F8F8F8"/>
<path fill-rule="evenodd" clip-rule="evenodd" d="M10.6703 4.87329C10.1192 5.89677 9.75861 7.35483 9.75861 9.00056C9.75861 10.6463 10.1192 12.1043 10.6703 13.1278C11.2355 14.1775 11.9086 14.6256 12.4908 14.6256C13.0729 14.6256 13.746 14.1775 14.3112 13.1278C14.8623 12.1043 15.2229 10.6463 15.2229 9.00056C15.2229 7.35483 14.8623 5.89677 14.3112 4.87329C13.746 3.82363 13.0729 3.37556 12.4908 3.37556C11.9086 3.37556 11.2355 3.82363 10.6703 4.87329ZM9.53826 4.26374C10.1946 3.04488 11.209 2.08984 12.4908 2.08984C13.7725 2.08984 14.787 3.04488 15.4433 4.26374C16.1137 5.50878 16.5086 7.18465 16.5086 9.00056C16.5086 10.8165 16.1137 12.4923 15.4433 13.7374C14.787 14.9562 13.7725 15.9113 12.4908 15.9113C11.209 15.9113 10.1946 14.9562 9.53826 13.7374C8.86785 12.4923 8.4729 10.8165 8.4729 9.00056C8.4729 7.18465 8.86785 5.50878 9.53826 4.26374Z" fill="#686868"/>
<path d="M13.4541 8.99888C13.4541 10.064 13.0224 10.9275 12.4898 10.9275C11.9572 10.9275 11.5255 10.064 11.5255 8.99888C11.5255 7.93376 11.9572 7.07031 12.4898 7.07031C13.0224 7.07031 13.4541 7.93376 13.4541 8.99888Z" fill="#DEDEDE"/>
<path fill-rule="evenodd" clip-rule="evenodd" d="M12.383 7.9249C12.2619 8.16712 12.1684 8.54672 12.1684 9.00112C12.1684 9.45552 12.2619 9.83512 12.383 10.0773C12.4258 10.163 12.4625 10.2159 12.4898 10.248C12.5171 10.2159 12.5539 10.163 12.5967 10.0773C12.7178 9.83512 12.8113 9.45552 12.8113 9.00112C12.8113 8.54672 12.7178 8.16712 12.5967 7.9249C12.5539 7.83924 12.5171 7.78635 12.4898 7.75421C12.4625 7.78635 12.4258 7.83924 12.383 7.9249ZM12.5415 7.70735C12.5415 7.7074 12.5408 7.70779 12.5394 7.70837L12.5415 7.70735ZM12.4403 7.70837C12.4389 7.70779 12.4382 7.7074 12.4382 7.70735L12.4403 7.70837ZM12.4382 10.2949C12.4382 10.2948 12.4389 10.2944 12.4403 10.2939L12.4382 10.2949ZM12.5394 10.2939C12.5408 10.2944 12.5415 10.2948 12.5415 10.2949L12.5394 10.2939ZM11.233 7.34992C11.4417 6.93257 11.8489 6.42969 12.4898 6.42969C13.1308 6.42969 13.538 6.93257 13.7467 7.34992C13.9746 7.80571 14.097 8.3904 14.097 9.00112C14.097 9.61184 13.9746 10.1965 13.7467 10.6523C13.538 11.0697 13.1308 11.5725 12.4898 11.5725C11.8489 11.5725 11.4417 11.0697 11.233 10.6523C11.0051 10.1965 10.8827 9.61184 10.8827 9.00112C10.8827 8.3904 11.0051 7.80571 11.233 7.34992Z" fill="#686868"/>
</svg>
