<svg width="20" height="20" viewBox="0 0 20 20" fill="none" xmlns="http://www.w3.org/2000/svg">
<path d="M10.0011 19.428C9.44943 19.428 8.72116 19.1277 7.77508 18.5097C6.87431 17.907 6.0274 17.2274 5.24383 16.4786C4.42304 15.7162 3.68157 14.8727 3.03078 13.9608C2.34823 12.9749 2 12.1112 2 11.3987V5.76521C2.00008 5.28093 2.13647 4.80645 2.39358 4.39606C2.65069 3.98567 3.01813 3.65594 3.45385 3.4446L3.47492 3.43429L8.89773 1.24903C9.24206 1.08508 9.61863 1 10 1C10.3814 1 10.7579 1.08508 11.1023 1.24903L16.5251 3.43474L16.5461 3.44505C16.9819 3.65639 17.3493 3.98612 17.6064 4.39651C17.8635 4.8069 17.9999 5.28138 18 5.76565V11.3982C18 12.1153 17.654 12.9798 16.9692 13.968C16.3188 14.8802 15.5771 15.7238 14.7557 16.4858C13.9731 17.2328 13.1271 17.9104 12.2272 18.5111C11.2811 19.1286 10.5533 19.428 10.0011 19.428ZM4.0405 4.69588C3.84323 4.79653 3.67748 4.94956 3.56143 5.13818C3.44538 5.3268 3.3835 5.54374 3.38259 5.76521V11.3982C3.38259 11.6384 3.48433 12.1888 4.16644 13.1756C4.76276 14.0088 5.44175 14.7795 6.19305 15.4761C6.91637 16.1682 7.69819 16.7965 8.52979 17.3539C9.56057 18.0262 9.95944 18.0472 10.0016 18.0472C10.0437 18.0472 10.4417 18.0279 11.4738 17.3557C12.3052 16.8 13.0869 16.1732 13.8101 15.4824C14.5616 14.7866 15.2405 14.0163 15.8363 13.1833C16.5184 12.1973 16.6201 11.6407 16.6201 11.3978V5.76521C16.6193 5.54382 16.5576 5.32693 16.4417 5.13831C16.3258 4.94968 16.1602 4.79661 15.9631 4.69588L10.5456 2.51152L10.5264 2.50166C10.3635 2.42213 10.1846 2.3808 10.0034 2.3808C9.8221 2.3808 9.64323 2.42213 9.48035 2.50166L9.45705 2.51152L9.43509 2.52003L4.03961 4.69588H4.0405Z" fill="#202425"/>
<path d="M13.0839 10.6069H6.91807C6.73505 10.6069 6.55953 10.5341 6.43013 10.4047C6.30072 10.2753 6.22803 10.0998 6.22803 9.91674C6.22803 9.73372 6.30072 9.55819 6.43013 9.42876C6.55953 9.29933 6.73505 9.2266 6.91807 9.22656H13.0844C13.2674 9.2266 13.4429 9.29933 13.5723 9.42876C13.7017 9.55819 13.7744 9.73372 13.7744 9.91674C13.7744 10.0998 13.7017 10.2753 13.5723 10.4047C13.4429 10.5341 13.2674 10.6069 13.0844 10.6069H13.0839Z" fill="#202425"/>
<path d="M10.0012 13.6908C9.81817 13.6908 9.64262 13.6181 9.51318 13.4887C9.38375 13.3592 9.31104 13.1837 9.31104 13.0006V6.83387C9.31102 6.74322 9.32886 6.65346 9.36353 6.56971C9.39821 6.48595 9.44904 6.40985 9.51314 6.34575C9.57723 6.28165 9.65332 6.2308 9.73706 6.1961C9.82081 6.16141 9.91056 6.14355 10.0012 6.14355C10.0919 6.14355 10.1816 6.16141 10.2654 6.1961C10.3491 6.2308 10.4252 6.28165 10.4893 6.34575C10.5534 6.40985 10.6042 6.48595 10.6389 6.56971C10.6736 6.65346 10.6914 6.74322 10.6914 6.83387V12.9997C10.6915 13.0905 10.6737 13.1803 10.6391 13.2641C10.6045 13.348 10.5537 13.4242 10.4896 13.4884C10.4255 13.5525 10.3493 13.6035 10.2655 13.6382C10.1817 13.6729 10.0919 13.6908 10.0012 13.6908Z" fill="#202425"/>
</svg>
