<svg width="85" height="76" viewBox="0 0 85 76" fill="none" xmlns="http://www.w3.org/2000/svg">
<path fill-rule="evenodd" clip-rule="evenodd" d="M42.9332 8.92433L42.9355 8.92432C59.9095 8.92432 73.7041 22.6735 73.7041 39.5916C73.7041 56.5097 59.9095 70.2589 42.9355 70.2589C25.9633 70.2589 12.167 56.5735 12.167 39.6537C12.167 22.6722 25.9624 8.98768 42.9332 8.92433ZM42.9367 10.1659C26.6482 10.2273 13.4127 23.3609 13.4127 39.6537C13.4127 55.8844 26.6479 69.0173 42.9355 69.0173C59.2215 69.0173 72.4584 55.824 72.4584 39.5916C72.4584 23.3596 59.2221 10.1665 42.9367 10.1659Z" fill="#EBEBEB"/>
<path fill-rule="evenodd" clip-rule="evenodd" d="M24.8105 32.8876C23.8365 32.8876 22.942 33.737 22.942 34.75V57.0365C22.942 58.0594 23.7843 58.8989 24.8105 58.8989H60.2504C61.2767 58.8989 62.1189 58.0594 62.1189 57.0365V34.75C62.1189 34.4746 62.0773 34.2376 62.0276 34.0291C61.6765 33.3241 61.0239 32.8876 60.2504 32.8876H24.8105ZM21.6963 34.75C21.6963 33.0314 23.1687 31.646 24.8105 31.646H60.2504C61.5757 31.646 62.6541 32.4295 63.1816 33.5563L63.2069 33.6103L63.2215 33.6682C63.2902 33.9421 63.3646 34.3071 63.3646 34.75V57.0365C63.3646 58.7451 61.9646 60.1405 60.2504 60.1405H24.8105C23.0963 60.1405 21.6963 58.7451 21.6963 57.0365V34.75Z" fill="#EBEBEB"/>
<path d="M75.5723 20.4718L66.7279 36.1159C66.4165 36.6125 65.7313 36.7988 65.233 36.4884L50.1602 27.7351C49.6619 27.4247 49.4751 26.7419 49.7865 26.2452L61.4337 6.31768C61.7451 5.82105 62.4302 5.63481 62.9285 5.94521L73.8906 12.3394L75.5723 20.4718Z" fill="white"/>
<path d="M63.4268 16.3741C63.6759 16.312 63.9251 16.312 64.1119 16.312C64.3611 16.312 64.6102 16.312 64.8593 16.312C65.1085 16.3741 65.4199 16.4362 65.669 16.4982C65.9805 16.6224 66.2296 16.7466 66.4787 16.8707C66.8524 17.057 67.1639 17.3053 67.4753 17.6157C67.7244 17.864 67.9113 18.1744 68.0358 18.609C68.1604 18.9194 68.1604 19.2918 68.1604 19.6643C68.0981 20.0368 67.9736 20.4093 67.7867 20.7817C67.5999 21.0921 67.413 21.3405 67.1639 21.5888C66.9147 21.775 66.7279 21.8992 66.4164 22.0233C66.1673 22.1475 65.9182 22.2096 65.669 22.2096L64.9839 22.2716C64.797 22.2716 64.6102 22.3337 64.3611 22.3958C64.1742 22.4579 64.0496 22.52 63.9251 22.6441L63.2399 23.5753L62.0565 22.9545L62.5548 21.775C62.6171 21.5888 62.8039 21.4025 62.9285 21.2784C63.1154 21.1542 63.3022 21.0921 63.4891 21.0301C63.7382 20.968 63.9251 20.968 64.1742 20.9059C64.4233 20.9059 64.6725 20.8438 64.9216 20.7817C65.1708 20.7197 65.3576 20.6576 65.6067 20.5334C65.8559 20.4093 65.9805 20.223 66.105 19.9747C66.1673 19.8505 66.2296 19.6643 66.2919 19.4781C66.2919 19.2918 66.2919 19.1677 66.2296 19.0435C66.1673 18.8573 66.105 18.7331 65.9805 18.609C65.8559 18.4848 65.7313 18.3606 65.5445 18.2365C65.3576 18.1123 65.1085 17.9882 64.8593 17.9261C64.6725 17.864 64.4856 17.864 64.2988 17.864C64.1119 17.864 63.9873 17.864 63.8628 17.864C63.8005 17.864 63.6759 17.864 63.6136 17.8019C63.4891 17.7398 63.3645 17.5536 63.3645 17.4294L63.4268 16.3741ZM60.0011 25.1273C60.0634 25.0032 60.188 24.879 60.3126 24.7548C60.4371 24.6928 60.5617 24.5686 60.6863 24.5686C60.9977 24.5065 61.3091 24.5065 61.6205 24.6928C61.7451 24.7548 61.8697 24.879 61.9942 25.0032C62.0565 25.1273 62.1188 25.2515 62.1811 25.3756C62.368 25.9964 61.9942 26.6793 61.3714 26.8655C61.06 26.9276 60.7486 26.8655 60.4371 26.7414C60.3126 26.6793 60.188 26.5551 60.0634 26.431C60.0011 26.3068 59.8766 26.1827 59.8766 26.0585C59.8143 25.9343 59.8143 25.7481 59.8766 25.6239C59.8766 25.3756 59.9389 25.2515 60.0011 25.1273Z" fill="#EBEBEB"/>
<path d="M18.8942 13.7046L29.0466 24.1961C29.358 24.5686 29.358 25.1273 28.9843 25.4998L18.6451 35.1842C18.2714 35.4946 17.7108 35.4946 17.3371 35.1221L4.50651 21.5267C4.19509 21.1542 4.19509 20.5955 4.56879 20.223L12.0429 13.208L18.8942 13.7046Z" fill="white"/>
<path fill-rule="evenodd" clip-rule="evenodd" d="M11.814 12.5688L19.1759 13.1025L29.5094 23.7811L29.5239 23.7985C30.0329 24.4072 30.0345 25.3295 29.4236 25.9385L29.4167 25.9453L19.0569 35.649L19.0427 35.6609C18.4319 36.1681 17.5065 36.1698 16.8955 35.5609L16.8888 35.5541L4.03886 21.9382L4.02688 21.9239C3.51793 21.3152 3.51625 20.3928 4.12723 19.7838L4.13384 19.7772L11.814 12.5688ZM12.2695 13.8467L5.00301 20.6669C4.87516 20.7989 4.87148 20.9842 4.97495 21.118L17.7816 34.688C17.9141 34.8154 18.1 34.819 18.2342 34.7158L28.548 25.0553C28.6749 24.924 28.6792 24.7403 28.5776 24.6067L18.6102 14.3064L12.2695 13.8467Z" fill="#EBEBEB"/>
<path d="M12.042 13.1455L14.8448 16.0632C15.2185 16.4357 15.9037 16.4357 16.3397 16.0632L18.8933 13.6421" fill="#EBEBEB"/>
<path d="M12.7888 22.1478C12.7888 21.9616 12.8511 21.7753 12.9134 21.5891C12.9757 21.4028 13.038 21.2166 13.1002 21.0304C13.1625 20.8441 13.2871 20.6579 13.4117 20.4716C13.5362 20.2854 13.7231 20.0992 13.9099 19.9129C14.1591 19.6646 14.4082 19.4784 14.7196 19.3542C14.9688 19.23 15.2802 19.168 15.5293 19.168C15.7785 19.168 16.0899 19.23 16.339 19.2921C16.5882 19.4163 16.8373 19.6025 17.0864 19.7888C17.2733 19.975 17.4602 20.2233 17.5224 20.4716C17.5847 20.6579 17.647 20.9062 17.7093 21.1545C17.7093 21.3408 17.7093 21.5891 17.7093 21.7753C17.647 21.9615 17.647 22.1478 17.5847 22.334C17.5847 22.5203 17.5224 22.6444 17.5224 22.8307C17.5224 22.9548 17.5224 23.079 17.647 23.2031L18.1453 23.9481L17.3979 24.631L16.6505 23.9481C16.5259 23.8239 16.4013 23.6998 16.339 23.5135C16.2767 23.3273 16.2767 23.2031 16.2767 23.0169C16.2767 22.8307 16.339 22.6444 16.339 22.4582C16.4013 22.2719 16.4013 22.0857 16.4013 21.8995C16.4013 21.7132 16.4013 21.527 16.339 21.3408C16.2767 21.1545 16.1522 20.9683 16.0276 20.782C15.9653 20.6579 15.8408 20.5958 15.7162 20.5337C15.5916 20.4716 15.467 20.4716 15.3425 20.4716C15.2179 20.4716 15.0933 20.5337 14.9688 20.5958C14.8442 20.6579 14.7196 20.72 14.5951 20.8441C14.4705 20.9683 14.3459 21.1545 14.2214 21.2787C14.1591 21.4028 14.0968 21.527 14.0345 21.7132C13.9722 21.8374 13.9722 21.9615 13.9722 22.0236C13.9722 22.0857 13.9099 22.1478 13.8477 22.2099C13.7854 22.334 13.5985 22.334 13.4739 22.2719L12.7888 22.1478ZM18.8927 26.8038C18.8304 26.7417 18.7681 26.6175 18.7058 26.4934C18.6436 26.3692 18.6436 26.245 18.6436 26.1209C18.6436 25.8726 18.7681 25.6242 18.955 25.438C19.0173 25.3759 19.1418 25.3138 19.2664 25.2518C19.391 25.1897 19.5155 25.1897 19.6401 25.1897C20.0138 25.1897 20.3875 25.438 20.5744 25.8105C20.6367 25.9346 20.6367 26.0588 20.6367 26.183C20.6367 26.3071 20.5744 26.4313 20.5744 26.5554C20.5121 26.6796 20.4498 26.7417 20.3252 26.8658C20.263 26.9279 20.1384 27.0521 20.0138 27.0521C19.7647 27.1142 19.5155 27.1142 19.3287 27.0521C19.0795 26.99 18.955 26.9279 18.8927 26.8038Z" fill="#EBEBEB"/>
<path d="M45.1778 30.2179L41.2539 44.1858C41.1293 44.6203 40.631 44.9307 40.1327 44.7445L26.4924 40.7714C26.0564 40.6472 25.745 40.1506 25.9319 39.654L31.2261 21.713C31.3506 21.2784 31.8489 20.968 32.3472 21.1543L42.2504 24.0099L45.1778 30.2179Z" fill="white"/>
<path fill-rule="evenodd" clip-rule="evenodd" d="M31.941 21.7471C31.878 21.7809 31.8377 21.8359 31.8242 21.8832L31.8229 21.8878L26.5223 39.8505L26.5143 39.8716C26.4885 39.9403 26.4962 40.0022 26.5262 40.0577C26.5601 40.1205 26.6154 40.1607 26.6628 40.1742L26.6664 40.1752L40.329 44.1548L40.3507 44.1629C40.4196 44.1886 40.4817 44.1809 40.5374 44.151C40.5999 44.1175 40.6401 44.063 40.6539 44.016C40.654 44.0156 40.6541 44.0153 40.6542 44.0149L44.5148 30.2726L41.8058 24.5279L32.1502 21.7436L32.1277 21.7352C32.0589 21.7094 31.9967 21.7172 31.941 21.7471ZM32.5398 20.5634C31.6801 20.2586 30.8416 20.7971 30.6272 21.5394L25.3392 39.4595C25.0322 40.317 25.573 41.1538 26.3184 41.3674C26.3192 41.3676 26.3199 41.3678 26.3206 41.368L39.9378 45.3344C40.7988 45.6402 41.6387 45.0999 41.852 44.356L41.8529 44.3528L45.8393 30.1625L42.6935 23.4913L32.5398 20.5634Z" fill="#EBEBEB"/>
<path d="M42.25 24.0723L41.0666 27.9833C40.942 28.4799 41.2534 29.1007 41.7517 29.2869L45.1773 30.3423" fill="#EBEBEB"/>
<path d="M34.8382 29.2865C35.0251 29.2244 35.2119 29.1623 35.3988 29.1002C35.5857 29.0382 35.7725 28.9761 36.0216 28.9761C36.2708 28.9761 36.4576 28.9761 36.7068 28.9761C36.9559 28.9761 37.205 29.0382 37.4542 29.1002C37.7656 29.1623 38.077 29.3486 38.3885 29.5348C38.6376 29.721 38.8244 29.9073 39.0113 30.1556C39.1359 30.4039 39.2604 30.6522 39.3227 30.9005C39.385 31.2109 39.3227 31.5213 39.2604 31.8317C39.1982 32.0801 39.0736 32.3284 38.8867 32.5767C38.7622 32.7629 38.5753 32.9492 38.3885 33.0733C38.2016 33.1975 38.0147 33.3216 37.8279 33.3837L37.2673 33.6941C37.1428 33.7562 36.9559 33.8183 36.8313 33.8804C36.7068 33.9424 36.5822 34.0666 36.5822 34.1908L36.2085 34.9978L35.1497 34.6874L35.3365 33.632C35.3365 33.4458 35.4611 33.3216 35.5857 33.1975C35.7102 33.0733 35.8348 32.9492 36.0216 32.8871C36.2085 32.825 36.3953 32.7629 36.5199 32.7008C36.7068 32.6388 36.8936 32.5767 37.0805 32.4525C37.2673 32.3905 37.3919 32.2663 37.5788 32.1421C37.7033 32.018 37.8279 31.8317 37.8902 31.5834C37.9525 31.4593 37.9525 31.3351 37.9525 31.2109C37.9525 31.0868 37.8902 30.9626 37.8279 30.8385C37.7656 30.7143 37.641 30.6522 37.5165 30.5281C37.3919 30.466 37.2673 30.4039 37.0805 30.3418C36.8936 30.2797 36.7068 30.2797 36.4576 30.2797C36.3331 30.2797 36.1462 30.2797 36.0216 30.3418C35.8971 30.3418 35.7725 30.4039 35.7102 30.4039C35.6479 30.4039 35.5857 30.466 35.4611 30.4039C35.3365 30.4039 35.2119 30.2797 35.2119 30.1556L34.8382 29.2865ZM33.8417 36.9223C33.904 36.7981 33.904 36.6739 34.0285 36.6119C34.0908 36.4877 34.2154 36.4256 34.2777 36.3635C34.5268 36.2394 34.776 36.2394 34.9628 36.3015C35.0874 36.3635 35.2119 36.4256 35.2742 36.4877C35.3365 36.5498 35.4611 36.6739 35.5234 36.736C35.7725 37.1706 35.5857 37.7914 35.1497 38.0397C34.9005 38.1639 34.6514 38.1639 34.4645 38.1018C34.34 38.0397 34.2154 38.0397 34.1531 37.9155C34.0285 37.8535 33.9663 37.7293 33.904 37.6672C33.8417 37.5431 33.8417 37.481 33.7794 37.3568C33.7794 37.1706 33.7794 37.0464 33.8417 36.9223Z" fill="#EBEBEB"/>
<path d="M77.1299 54.0563L64.2993 61.0092C63.8633 61.2576 63.3027 61.0713 63.1159 60.6368L56.6383 48.1588C56.4514 47.7242 56.576 47.1655 57.012 46.9793L73.7042 38.164C74.1402 37.9156 74.7008 38.1019 74.8876 38.5364L79.559 47.6001L77.1299 54.0563Z" fill="white"/>
<path fill-rule="evenodd" clip-rule="evenodd" d="M74.1984 38.6853C74.1358 38.6653 74.0692 38.6711 74.0129 38.7032L74.0042 38.7081L57.2805 47.54L57.257 47.5501C57.2407 47.557 57.2104 47.5757 57.1901 47.6467C57.1692 47.7193 57.1718 47.8136 57.2039 47.8984L63.6791 60.3717L63.688 60.3924C63.7035 60.4285 63.7405 60.4678 63.8044 60.4883C63.867 60.5083 63.9335 60.5025 63.9899 60.4705L63.9956 60.4672L76.6279 53.6217L78.8786 47.6395L74.3233 38.8011L74.3148 38.7812C74.2992 38.7451 74.2622 38.7058 74.1984 38.6853ZM75.4498 38.2695C75.103 37.5003 74.1418 37.2072 73.4046 37.6196L56.7396 46.4206C55.9072 46.7956 55.7955 47.7759 56.0654 48.4035L56.0743 48.4242L62.5534 60.9051C62.9011 61.6748 63.8641 61.9671 64.6014 61.5521L77.6311 54.4913L80.2386 47.561L75.4498 38.2695Z" fill="#EBEBEB"/>
<path d="M79.5587 47.6621L75.9462 49.5245C75.5102 49.7728 75.261 50.4557 75.5102 50.9523L77.1296 54.1184" fill="#EBEBEB"/>
<path d="M70.6521 45.9858C70.8389 46.0479 71.0258 46.1721 71.2126 46.2342C71.3995 46.2962 71.5863 46.4204 71.7732 46.6066C71.96 46.7929 72.0846 46.917 72.2714 47.1033C72.4583 47.2895 72.5829 47.5378 72.7074 47.7241C72.8943 47.9724 72.9566 48.3449 73.0189 48.6553C73.0811 48.9657 73.0189 49.2761 73.0189 49.5865C72.8943 49.8348 72.832 50.1452 72.7074 50.3314C72.5206 50.5797 72.2092 50.766 72.0223 50.8901C71.7732 51.0143 71.524 51.1384 71.2126 51.1384C70.9635 51.2005 70.7143 51.2005 70.4652 51.1384C70.2161 51.0764 70.0292 51.0143 69.8424 50.9522L69.2818 50.7039C69.1572 50.6418 68.9704 50.5797 68.8458 50.5177C68.7212 50.4556 68.5344 50.4556 68.4098 50.5797L67.5378 50.8901L67.0396 49.9589L67.9115 49.4002C68.0361 49.2761 68.223 49.2761 68.4098 49.2761C68.5967 49.2761 68.7835 49.2761 68.9704 49.4002C69.1572 49.4623 69.3441 49.5865 69.4686 49.6485C69.6555 49.7106 69.8424 49.8348 70.0292 49.8969C70.2161 49.9589 70.4029 50.021 70.5898 50.021C70.7766 50.021 71.0258 49.9589 71.2126 49.8348C71.4617 49.7106 71.6486 49.4623 71.7109 49.214C71.7732 49.0898 71.7109 48.9657 71.7109 48.7794C71.6486 48.6553 71.6486 48.5311 71.524 48.3449C71.4617 48.1586 71.2749 48.0345 71.1503 47.7861C71.088 47.7241 70.9012 47.5378 70.7766 47.5378C70.7143 47.4757 70.5275 47.4137 70.5275 47.3516C70.4652 47.2895 70.4029 47.2895 70.3406 47.1654C70.2783 47.1033 70.2783 46.917 70.3406 46.7929L70.6521 45.9858ZM64.4859 50.5797C64.6105 50.5177 64.735 50.4556 64.8596 50.5177C64.9842 50.4556 65.1087 50.5177 65.2333 50.5177C65.4824 50.6418 65.6693 50.766 65.7939 50.9522C65.8562 51.0764 65.8561 51.2005 65.8561 51.3247C65.8561 51.3868 65.8561 51.573 65.8561 51.6972C65.7939 51.9455 65.5447 52.1317 65.3579 52.2559C65.2333 52.318 65.1087 52.318 64.9842 52.318C64.9219 52.318 64.735 52.318 64.6105 52.318C64.3613 52.1938 64.1745 52.0696 64.0499 51.8834C64.0499 51.6972 64.0499 51.573 64.0499 51.4488C63.9876 51.3247 64.0499 51.2005 64.0499 51.0764C64.1122 50.9522 64.1745 50.828 64.1745 50.766C64.299 50.7039 64.4236 50.6418 64.4859 50.5797Z" fill="#EBEBEB"/>
<path d="M61.9948 39.5293H49.5379C48.3545 39.5293 47.1711 39.9639 46.2368 40.7088L42.9358 43.3782C42.0015 44.1232 40.8181 44.5577 39.6347 44.5577H25.4338C24.0013 44.5577 22.8179 45.6752 22.8179 47.103C22.8179 47.2272 22.8179 47.3513 22.8802 47.4755L25.4338 61.0709C25.6207 62.3746 26.7418 63.3058 28.0498 63.3058H58.32C59.628 63.3058 60.6868 62.3746 60.936 61.133L64.5485 42.5091C64.7353 41.1434 63.8633 39.7776 62.3685 39.5914C62.2439 39.5293 62.1194 39.5293 61.9948 39.5293Z" fill="white"/>
<path d="M65.4826 37.0464H50.5343C49.1018 37.0464 47.6692 37.543 46.6104 38.4742L42.6865 41.6403C41.5653 42.5715 40.1951 43.0681 38.7626 43.0681H21.7589C20.0772 43.0681 18.6447 44.4339 18.6447 46.1721C18.6447 46.2962 18.6447 46.4825 18.707 46.6066L21.8212 63.0577C22.0703 64.6097 23.3783 65.7892 24.9354 65.7892H61.0604C62.6175 65.7892 63.9255 64.6718 64.1746 63.1819L68.4722 40.647C68.7214 38.9709 67.6625 37.3568 65.9186 37.1085C65.794 37.0464 65.6072 37.0464 65.4826 37.0464Z" fill="white"/>
<path fill-rule="evenodd" clip-rule="evenodd" d="M66.0864 36.5063C68.1593 36.8456 69.3789 38.7831 69.0883 40.7382L69.0865 40.7507L64.7878 63.2912C64.4854 65.0782 62.9182 66.4102 61.0604 66.4102H24.9354C23.0541 66.4102 21.5052 64.9924 21.2076 63.1649L18.1071 46.7863C18.059 46.6582 18.0412 46.536 18.0327 46.4513C18.0217 46.3425 18.0218 46.2387 18.0218 46.1788L18.0218 46.1723C18.0218 44.0832 19.7413 42.4475 21.7589 42.4475H38.7625C40.0473 42.4475 41.2769 42.0031 42.2877 41.1636L42.2911 41.1607L46.2085 38C47.3901 36.9656 48.9686 36.4258 50.5343 36.4258L65.4891 36.4258C65.5492 36.4258 65.6533 36.4257 65.7625 36.4366C65.8448 36.4448 65.9624 36.4618 66.0864 36.5063ZM65.6386 37.6721C65.5962 37.6678 65.5483 37.6674 65.4826 37.6674H50.5343C49.2394 37.6674 47.9574 38.1177 47.0224 38.9399L47.0125 38.9486L43.0818 42.1202C41.8509 43.1412 40.3414 43.6891 38.7625 43.6891H21.7589C20.413 43.6891 19.2675 44.785 19.2675 46.1723C19.2675 46.2378 19.2679 46.2855 19.2722 46.3278C19.2732 46.3382 19.2743 46.346 19.2752 46.3515L19.3029 46.4067L22.4348 62.9513L22.4362 62.9598C22.6404 64.2321 23.7055 65.1686 24.9354 65.1686H61.0604C62.3143 65.1686 63.3613 64.2693 63.5602 63.08L63.5614 63.0731L67.8578 40.5444C68.0551 39.1767 67.1932 37.9172 65.8305 37.7232L65.7304 37.709L65.6624 37.6751C65.6568 37.6742 65.649 37.6731 65.6386 37.6721ZM19.2772 46.3617C19.2772 46.3617 19.2771 46.3614 19.277 46.361L19.2772 46.3617Z" fill="#EBEBEB"/>
<path d="M44.0658 75.2919C64.7124 75.2919 81.4509 58.6084 81.4509 37.9562C81.4509 17.3041 64.7124 0.620605 44.0658 0.620605C23.4191 0.620605 6.68062 17.3041 6.68062 37.9562C6.68062 58.6084 23.4191 75.2919 44.0658 75.2919Z" fill="#F7F7F7"/>
<path fill-rule="evenodd" clip-rule="evenodd" d="M6.05774 37.9564C6.05774 16.9622 23.0743 0 44.0657 0C65.0571 0 82.0737 16.9622 82.0737 37.9564C82.0737 58.9507 65.0571 75.9129 44.0657 75.9129C23.0743 75.9129 6.05774 58.9507 6.05774 37.9564ZM44.0657 1.24159C23.7639 1.24159 7.30343 17.6463 7.30343 37.9564C7.30343 58.2666 23.7639 74.6713 44.0657 74.6713C64.3676 74.6713 80.828 58.2666 80.828 37.9564C80.828 17.6463 64.3676 1.24159 44.0657 1.24159Z" fill="#EBEBEB"/>
<path d="M16.561 18.186H69.726C71.8644 18.186 73.4866 19.8029 73.4866 21.9343V55.5217C73.4866 57.653 71.8644 59.2699 69.726 59.2699H16.561C14.4226 59.2699 12.8003 57.653 12.8003 55.5217V21.9343C12.8003 19.8029 14.57 18.186 16.561 18.186Z" fill="#F7F7F7"/>
<path fill-rule="evenodd" clip-rule="evenodd" d="M16.5609 18.807C14.898 18.807 13.4231 20.1617 13.4231 21.9345V55.5219C13.4231 57.3104 14.7665 58.6493 16.5609 58.6493H69.726C71.5204 58.6493 72.8638 57.3104 72.8638 55.5219V21.9345C72.8638 20.146 71.5204 18.807 69.726 18.807H16.5609ZM12.1775 21.9345C12.1775 19.4446 14.242 17.5654 16.5609 17.5654H69.726C72.2084 17.5654 74.1095 19.4603 74.1095 21.9345V55.5219C74.1095 57.9961 72.2084 59.8909 69.726 59.8909H16.5609C14.0786 59.8909 12.1775 57.9961 12.1775 55.5219V21.9345Z" fill="#DBDBDB"/>
<path d="M63.295 21.9318L63.7469 58.1929C63.7469 59.4317 62.7301 60.3889 61.4872 60.3889H26.0103C24.7674 60.3889 23.7506 59.3754 23.7506 58.1929V11.5714C23.7506 10.3327 24.7674 9.37549 26.0103 9.37549H51.7141L63.295 21.9318Z" fill="white"/>
<path fill-rule="evenodd" clip-rule="evenodd" d="M26.0102 9.99647C25.0906 9.99647 24.3734 10.6961 24.3734 11.5716V58.1931C24.3734 59.0226 25.1011 59.7683 26.0102 59.7683H61.4872C62.4056 59.7683 63.1221 59.0706 63.1241 58.1967C63.1241 58.1955 63.1241 58.1943 63.1241 58.1931L62.6751 22.1772L51.4406 9.99647H26.0102ZM23.1277 11.5716C23.1277 9.96967 24.4442 8.75488 26.0102 8.75488H51.9876L63.9148 21.6867L64.3698 58.1931C64.3697 59.7951 63.0533 61.0099 61.4872 61.0099H26.0102C24.4337 61.0099 23.1277 59.7286 23.1277 58.1931V11.5716Z" fill="#DBDBDB"/>
<path d="M46.7434 16.9776H29.7393C29.3439 16.9776 29.0049 16.6398 29.0049 16.2457C29.0049 15.8515 29.3439 15.5137 29.7393 15.5137H46.7434C47.1388 15.5137 47.4778 15.8515 47.4778 16.2457C47.4778 16.6398 47.1388 16.9776 46.7434 16.9776Z" fill="#EBEBEB"/>
<path d="M36.2924 21.0313H29.7393C29.3439 21.0313 29.0049 20.6935 29.0049 20.2994C29.0049 19.9052 29.3439 19.5674 29.7393 19.5674H36.2359C36.6313 19.5674 36.9703 19.9052 36.9703 20.2994C36.9703 20.6935 36.6313 21.0313 36.2924 21.0313Z" fill="#EBEBEB"/>
<path d="M51.7135 9.37549V19.398C51.7135 20.8056 52.9563 21.9318 54.3686 21.9318H63.2943" fill="#DBDBDB"/>
<path d="M58.5622 29.5933H52.3975H50.8695H29.9517C29.6882 29.5933 29.4248 29.8564 29.4248 30.2248C29.4248 30.5406 29.6355 30.8563 29.9517 30.8563H50.8695H52.3975H58.5095C58.8783 30.8563 59.0891 30.5932 59.0891 30.2248C59.0891 29.909 58.8783 29.5933 58.5622 29.5933Z" fill="#EBEBEB"/>
<path d="M69.8727 30.4595H52.618C50.922 30.4595 49.2998 31.0474 48.0463 32.0764L43.5482 35.7511C42.2947 36.7801 40.6725 37.368 38.9765 37.368H19.5097C17.5187 37.368 15.8965 38.9849 15.8965 40.9693C15.8965 41.1163 15.8965 41.3368 15.9703 41.4838L19.5834 60.4456C19.8784 62.2095 21.3531 63.5324 23.1966 63.5324H64.8585C66.6282 63.5324 68.1767 62.283 68.4717 60.5191L73.4858 34.5752C73.8545 32.5908 72.5272 30.8269 70.5363 30.4595C70.2414 30.4595 70.0202 30.4595 69.8727 30.4595Z" fill="white"/>
<path d="M77.8636 25.3777H55.4473C53.2351 25.3777 51.1705 26.1126 49.4745 27.5091L43.5755 32.2863C41.9532 33.6092 39.8148 34.4176 37.6027 34.4176H12.2368C9.65602 34.4176 7.59135 36.549 7.59135 39.0478C7.59135 39.2683 7.59135 39.4888 7.66509 39.7093L12.3106 64.4772C12.6793 66.8291 14.6702 68.5195 16.9561 68.5195H71.2272C73.5868 68.5195 75.504 66.9026 75.8727 64.5507L82.4354 30.6694C82.8778 28.097 81.1818 25.8187 78.601 25.3042C78.3798 25.3777 78.0848 25.3777 77.8636 25.3777Z" fill="white"/>
<path fill-rule="evenodd" clip-rule="evenodd" d="M78.3141 24.6738L78.4763 24.7062C81.3615 25.2813 83.3063 27.8554 82.8025 30.785L82.8014 30.7914L76.2395 64.6686C75.8188 67.3177 73.6419 69.151 70.9804 69.151H16.7093C14.1129 69.151 11.8687 67.2357 11.4499 64.5932L6.81304 39.8713C6.72124 39.5698 6.72151 39.2809 6.7217 39.0838C6.7217 39.0752 6.72171 39.0668 6.72171 39.0585C6.72171 36.2232 9.05883 33.8075 11.99 33.8075H37.3559C39.4191 33.8075 41.4192 33.052 42.9343 31.8165L42.9359 31.8152L48.831 27.0412C48.8317 27.0406 48.8324 27.04 48.8331 27.0395C50.6414 25.5513 52.8459 24.7676 55.2005 24.7676H77.6168C77.8671 24.7676 78.0512 24.7612 78.1572 24.726L78.3141 24.6738ZM78.3678 25.9527C78.0952 26.0099 77.811 26.0095 77.6466 26.0092C77.6361 26.0092 77.6262 26.0092 77.6168 26.0092H55.2005C53.1317 26.0092 51.2076 26.6948 49.6244 27.9984L49.6205 28.0016L43.7231 32.7774C43.7227 32.7777 43.7224 32.778 43.722 32.7783C41.9927 34.1881 39.7165 35.0491 37.3559 35.0491H11.99C9.75961 35.0491 7.9674 36.8961 7.9674 39.0585C7.9674 39.293 7.97232 39.4135 8.00918 39.5237L8.02268 39.5641L12.6777 64.383L12.6792 64.3921C13.0015 66.4485 14.737 67.9094 16.7093 67.9094H70.9804C73.0344 67.9094 74.6894 66.514 75.0105 64.4656L75.0122 64.4546L81.5757 30.569C81.9454 28.4007 80.5637 26.4564 78.3678 25.9527Z" fill="#DBDBDB"/>
<path d="M82.2157 22.9006C83.6261 22.9006 84.7694 21.761 84.7694 20.3553C84.7694 18.9496 83.6261 17.8101 82.2157 17.8101C80.8054 17.8101 79.6621 18.9496 79.6621 20.3553C79.6621 21.761 80.8054 22.9006 82.2157 22.9006Z" fill="#EBEBEB"/>
<path d="M79.6614 14.6439C80.6245 14.6439 81.4053 13.8657 81.4053 12.9057C81.4053 11.9457 80.6245 11.1675 79.6614 11.1675C78.6982 11.1675 77.9174 11.9457 77.9174 12.9057C77.9174 13.8657 78.6982 14.6439 79.6614 14.6439Z" fill="#EBEBEB"/>
<path d="M12.3317 9.06337C13.2948 9.06337 14.0756 8.28514 14.0756 7.32514C14.0756 6.36514 13.2948 5.58691 12.3317 5.58691C11.3685 5.58691 10.5877 6.36514 10.5877 7.32514C10.5877 8.28514 11.3685 9.06337 12.3317 9.06337Z" fill="#EBEBEB"/>
<path d="M3.23879 58.5964C5.02753 58.5964 6.47758 57.1511 6.47758 55.3683C6.47758 53.5854 5.02753 52.1401 3.23879 52.1401C1.45006 52.1401 0 53.5854 0 55.3683C0 57.1511 1.45006 58.5964 3.23879 58.5964Z" fill="#EBEBEB"/>
<path d="M76.8687 73.3775L66.0354 62.6011C54.6002 70.9828 38.922 62.8106 38.922 49.1305C38.922 39.8209 46.5354 32.2773 55.8641 32.2773C69.3456 32.2773 77.621 47.3644 69.7669 58.7694L80.6604 69.6058C81.7136 70.6535 81.7136 72.3298 80.6604 73.3775C79.6072 74.4252 77.922 74.4252 76.8687 73.3775ZM55.8641 37.6356C49.4845 37.6356 44.2785 42.8143 44.2785 49.1604C44.2785 59.3681 56.5563 64.2774 63.5979 57.7217C71.5724 50.298 66.2461 37.6356 55.8641 37.6356Z" fill="#EBEBEB"/>
<path fill-rule="evenodd" clip-rule="evenodd" d="M55.8641 32.8983C46.8775 32.8983 39.5449 40.1658 39.5449 49.1307C39.5449 62.3042 54.6444 70.18 65.6664 62.1011L66.097 61.7855L77.3087 72.9383C78.1188 73.7442 79.4103 73.7442 80.2204 72.9383C81.0298 72.1331 81.0298 70.8505 80.2204 70.0454L68.9601 58.8442L69.2534 58.4183C76.8198 47.4311 68.8514 32.8983 55.8641 32.8983ZM38.2992 49.1307C38.2992 39.4763 46.1933 31.6567 55.8641 31.6567C69.6706 31.6567 78.2138 46.9218 70.5686 58.6901L81.1004 69.1666C82.3974 70.4568 82.3974 72.5269 81.1004 73.8171C79.804 75.1067 77.7251 75.1067 76.4287 73.8171L65.9685 63.4118C54.1616 71.5782 38.2992 63.1442 38.2992 49.1307ZM43.6556 49.1606C43.6556 42.4705 49.1417 37.015 55.8641 37.015C66.8051 37.015 72.4151 50.3632 64.023 58.1756C56.5918 65.094 43.6556 59.9228 43.6556 49.1606ZM55.8641 38.2566C49.8273 38.2566 44.9013 43.1585 44.9013 49.1606C44.9013 58.8139 56.5207 63.4612 63.1727 57.2683C70.7298 50.2332 65.687 38.2566 55.8641 38.2566Z" fill="#DBDBDB"/>
</svg>
