<svg width="14" height="14" viewBox="0 0 14 14" fill="none" xmlns="http://www.w3.org/2000/svg">
<g clip-path="url(#clip0_21527_27806)">
<g clip-path="url(#clip1_21527_27806)">
<path d="M6.99994 0.5C7.43158 0.5 7.85306 0.543164 8.26439 0.621875C8.46498 0.659961 8.81791 0.776758 9.01087 1.13223C9.06166 1.22617 9.10228 1.3252 9.12767 1.43184L9.3638 2.40937C9.39935 2.55664 9.64818 2.70137 9.79291 2.6582L10.7577 2.37383C10.8593 2.34336 10.9634 2.32813 11.0675 2.32559C11.4763 2.31289 11.7531 2.56426 11.8876 2.7166C12.4488 3.35391 12.8804 4.10293 13.1546 4.90781C13.2206 5.10078 13.2968 5.46133 13.0861 5.80664C13.0302 5.89805 12.9617 5.98438 12.8829 6.06055L12.1542 6.75371C12.0476 6.85527 12.0476 7.14727 12.1542 7.24883L12.8829 7.94199C12.9617 8.01816 13.0302 8.10449 13.0861 8.1959C13.2943 8.54121 13.2181 8.90176 13.1546 9.09473C12.8804 9.89961 12.4488 10.6461 11.8876 11.2859C11.7531 11.4383 11.4738 11.6896 11.0675 11.677C10.9634 11.6744 10.8593 11.6566 10.7577 11.6287L9.79291 11.3418C9.64818 11.2986 9.39935 11.4434 9.3638 11.5906L9.12767 12.5682C9.10228 12.6748 9.06166 12.7764 9.01087 12.8678C8.81537 13.2232 8.46244 13.3375 8.26439 13.3781C7.85306 13.4568 7.43158 13.5 6.99994 13.5C6.5683 13.5 6.14681 13.4568 5.73548 13.3781C5.5349 13.34 5.18197 13.2232 4.989 12.8678C4.93822 12.7738 4.89759 12.6748 4.8722 12.5682L4.63607 11.5906C4.60052 11.4434 4.3517 11.2986 4.20697 11.3418L3.24212 11.6262C3.14056 11.6566 3.03646 11.6719 2.93236 11.6744C2.52357 11.6871 2.24681 11.4357 2.11224 11.2834C1.55365 10.6461 1.11947 9.89707 0.84525 9.09219C0.779234 8.89922 0.703062 8.53867 0.913805 8.19336C0.969664 8.10195 1.03822 8.01562 1.11693 7.93945L1.84564 7.24629C1.95228 7.14473 1.95228 6.85273 1.84564 6.75117L1.11439 6.05801C1.03568 5.98184 0.967125 5.89551 0.911266 5.8041C0.703062 5.45879 0.779234 5.09824 0.84525 4.90781C1.11947 4.10293 1.55111 3.35645 2.11224 2.7166C2.24681 2.56426 2.52611 2.31289 2.93236 2.32559C3.03646 2.32813 3.14056 2.3459 3.24212 2.37383L4.20697 2.6582C4.3517 2.70137 4.60052 2.55664 4.63607 2.40937L4.8722 1.43184C4.89759 1.3252 4.93822 1.22363 4.989 1.13223C5.18451 0.776758 5.53744 0.6625 5.73548 0.621875C6.14681 0.543164 6.5683 0.5 6.99994 0.5ZM6.03763 1.80508L5.82181 2.69629C5.62377 3.51641 4.67162 4.06484 3.86166 3.82871L2.98568 3.56973C2.56673 4.05977 2.23666 4.62852 2.02084 5.23789L2.68607 5.87012C3.29545 6.44902 3.29545 7.55098 2.68607 8.12988L2.02084 8.76211C2.23666 9.37148 2.56673 9.94023 2.98568 10.4303L3.8642 10.1713C4.67162 9.93262 5.6263 10.4836 5.82435 11.3037L6.04017 12.1949C6.66478 12.3092 7.34271 12.3092 7.96732 12.1949L8.18314 11.3037C8.38119 10.4836 9.33334 9.93516 10.1433 10.1713L11.0218 10.4303C11.4408 9.94023 11.7708 9.37148 11.9867 8.76211L11.3214 8.12988C10.712 7.55098 10.712 6.44902 11.3214 5.87012L11.9867 5.23789C11.7708 4.62852 11.4408 4.05977 11.0218 3.56973L10.1433 3.82871C9.33587 4.06738 8.38119 3.51641 8.18314 2.69629L7.96732 1.80508C7.34271 1.69082 6.66478 1.69082 6.04017 1.80508H6.03763ZM5.78119 7C5.78119 7.32323 5.90959 7.63323 6.13815 7.86179C6.36671 8.09035 6.6767 8.21875 6.99994 8.21875C7.32317 8.21875 7.63316 8.09035 7.86172 7.86179C8.09028 7.63323 8.21869 7.32323 8.21869 7C8.21869 6.67677 8.09028 6.36677 7.86172 6.13821C7.63316 5.90965 7.32317 5.78125 6.99994 5.78125C6.6767 5.78125 6.36671 5.90965 6.13815 6.13821C5.90959 6.36677 5.78119 6.67677 5.78119 7ZM6.99994 9.4375C6.35347 9.4375 5.73348 9.18069 5.27636 8.72357C4.81924 8.26645 4.56244 7.64647 4.56244 7C4.56244 6.35353 4.81924 5.73355 5.27636 5.27643C5.73348 4.81931 6.35347 4.5625 6.99994 4.5625C7.6464 4.5625 8.26639 4.81931 8.72351 5.27643C9.18063 5.73355 9.43744 6.35353 9.43744 7C9.43744 7.64647 9.18063 8.26645 8.72351 8.72357C8.26639 9.18069 7.6464 9.4375 6.99994 9.4375Z" fill="#262E30"/>
</g>
</g>
<defs>
<clipPath id="clip0_21527_27806">
<rect width="14" height="14" fill="white"/>
</clipPath>
<clipPath id="clip1_21527_27806">
<rect width="13" height="13" fill="white" transform="translate(0.5 0.5)"/>
</clipPath>
</defs>
</svg>
