<svg width="24" height="24" viewBox="0 0 24 24" fill="none" xmlns="http://www.w3.org/2000/svg">
<path opacity="0.2" d="M20.25 5.25V10.5C20.25 19.5 12 21.75 12 21.75C12 21.75 3.75 19.5 3.75 10.5V5.25C3.75 5.05109 3.82902 4.86032 3.96967 4.71967C4.11032 4.57902 4.30109 4.5 4.5 4.5H19.5C19.6989 4.5 19.8897 4.57902 20.0303 4.71967C20.171 4.86032 20.25 5.05109 20.25 5.25Z" fill="#00AF42"/>
<path d="M19.5 3.75H4.5C4.10218 3.75 3.72064 3.90804 3.43934 4.18934C3.15804 4.47064 3 4.85218 3 5.25V10.5C3 15.4425 5.3925 18.4378 7.39969 20.0803C9.56156 21.8484 11.7122 22.4494 11.8059 22.4738C11.9348 22.5088 12.0708 22.5088 12.1997 22.4738C12.2934 22.4494 14.4413 21.8484 16.6059 20.0803C18.6075 18.4378 21 15.4425 21 10.5V5.25C21 4.85218 20.842 4.47064 20.5607 4.18934C20.2794 3.90804 19.8978 3.75 19.5 3.75ZM19.5 10.5C19.5 13.9753 18.2194 16.7962 15.6937 18.8831C14.5943 19.7885 13.344 20.493 12 20.9644C10.6736 20.5012 9.4387 19.8092 8.35125 18.9197C5.79563 16.8291 4.5 13.9969 4.5 10.5V5.25H19.5V10.5Z" fill="#00AF42"/>
</svg>
