<svg width="18" height="18" viewBox="0 0 18 18" fill="none" xmlns="http://www.w3.org/2000/svg">
<path fill-rule="evenodd" clip-rule="evenodd" d="M6.63161 10.7663C6.6941 10.735 6.763 10.7188 6.83286 10.7188H11.4995V11.6187H6.93909L5.23909 12.4688H11.4995V13.3687H3.33286C3.12416 13.3687 2.94284 13.2253 2.89489 13.0221C2.84695 12.819 2.94494 12.6096 3.13161 12.5163L6.63161 10.7663Z" fill="#EEEEEE"/>
<path fill-rule="evenodd" clip-rule="evenodd" d="M0.549805 5.16484C0.549805 4.91632 0.751277 4.71484 0.999805 4.71484H11.8331C12.0817 4.71484 12.2831 4.91632 12.2831 5.16484V15.9982C12.2831 16.2467 12.0817 16.4482 11.8331 16.4482H0.999805C0.751277 16.4482 0.549805 16.2467 0.549805 15.9982V5.16484ZM1.4498 5.61484V15.5482H11.3831V5.61484H1.4498Z" fill="#EEEEEE"/>
<path fill-rule="evenodd" clip-rule="evenodd" d="M6.21567 2.57438C6.262 2.55875 6.31057 2.55078 6.35947 2.55078H16.1659C16.4145 2.55078 16.6159 2.75225 16.6159 3.00078V13.4083C16.6159 13.5548 16.5446 13.6921 16.4248 13.7764L12.7387 16.3689C12.5354 16.5118 12.2547 16.4629 12.1117 16.2597C11.9687 16.0564 12.0176 15.7757 12.2209 15.6327L15.7159 13.1746V3.45078H6.4333L1.68474 5.05219C1.44925 5.13161 1.19396 5.00508 1.11454 4.76958C1.03512 4.53409 1.16164 4.2788 1.39714 4.19938L6.21567 2.57438Z" fill="#EEEEEE"/>
<path fill-rule="evenodd" clip-rule="evenodd" d="M16.3686 3.40264L12.0353 5.56931L11.6328 4.76432L15.9661 2.59766L16.3686 3.40264Z" fill="#EEEEEE"/>
<path fill-rule="evenodd" clip-rule="evenodd" d="M7.94941 5.16406C8.19794 5.16406 8.39941 5.36553 8.39941 5.61406L8.39941 7.96406C8.39941 8.21259 8.19794 8.41406 7.94941 8.41406C7.70089 8.41406 7.49941 8.21259 7.49941 7.96406L7.49941 5.61406C7.49941 5.36553 7.70089 5.16406 7.94941 5.16406Z" fill="#EEEEEE"/>
</svg>
