<svg width="14" height="14" viewBox="0 0 14 14" fill="none" xmlns="http://www.w3.org/2000/svg">
<path d="M1.68979 2.09814C1.47311 2.09814 1.26531 2.18422 1.11209 2.33743C0.958878 2.49065 0.872803 2.69845 0.872803 2.91513C0.872803 3.13181 0.958878 3.33961 1.11209 3.49282C1.26531 3.64604 1.47311 3.73211 1.68979 3.73211C1.90646 3.73211 2.11427 3.64604 2.26748 3.49282C2.4207 3.33961 2.50677 3.13181 2.50677 2.91513C2.50677 2.69845 2.4207 2.49065 2.26748 2.33743C2.11427 2.18422 1.90646 2.09814 1.68979 2.09814ZM4.75348 2.30239C4.41392 2.30239 4.14074 2.57557 4.14074 2.91513C4.14074 3.25469 4.41392 3.52787 4.75348 3.52787H12.5148C12.8544 3.52787 13.1276 3.25469 13.1276 2.91513C13.1276 2.57557 12.8544 2.30239 12.5148 2.30239H4.75348ZM4.75348 6.38731C4.41392 6.38731 4.14074 6.66049 4.14074 7.00005C4.14074 7.33961 4.41392 7.61279 4.75348 7.61279H12.5148C12.8544 7.61279 13.1276 7.33961 13.1276 7.00005C13.1276 6.66049 12.8544 6.38731 12.5148 6.38731H4.75348ZM4.75348 10.4722C4.41392 10.4722 4.14074 10.7454 4.14074 11.085C4.14074 11.4245 4.41392 11.6977 4.75348 11.6977H12.5148C12.8544 11.6977 13.1276 11.4245 13.1276 11.085C13.1276 10.7454 12.8544 10.4722 12.5148 10.4722H4.75348ZM2.50677 7.00005C2.50677 6.78337 2.4207 6.57557 2.26748 6.42235C2.11427 6.26914 1.90646 6.18306 1.68979 6.18306C1.47311 6.18306 1.26531 6.26914 1.11209 6.42235C0.958878 6.57557 0.872803 6.78337 0.872803 7.00005C0.872803 7.21673 0.958878 7.42453 1.11209 7.57774C1.26531 7.73096 1.47311 7.81703 1.68979 7.81703C1.90646 7.81703 2.11427 7.73096 2.26748 7.57774C2.4207 7.42453 2.50677 7.21673 2.50677 7.00005ZM1.68979 10.268C1.47311 10.268 1.26531 10.3541 1.11209 10.5073C0.958878 10.6605 0.872803 10.8683 0.872803 11.085C0.872803 11.3016 0.958878 11.5094 1.11209 11.6627C1.26531 11.8159 1.47311 11.902 1.68979 11.902C1.90646 11.902 2.11427 11.8159 2.26748 11.6627C2.4207 11.5094 2.50677 11.3016 2.50677 11.085C2.50677 10.8683 2.4207 10.6605 2.26748 10.5073C2.11427 10.3541 1.90646 10.268 1.68979 10.268Z" fill="#262E30"/>
</svg>
