<svg width="14" height="14" viewBox="0 0 14 14" fill="none" xmlns="http://www.w3.org/2000/svg">
	<g clip-path="url(#clip0_1018_9518)">
	<path d="M7.29298 13.582C10.7685 13.582 13.586 10.7654 13.586 7.29098C13.586 3.81657 10.7685 1 7.29298 1C3.81746 1 1 3.81657 1 7.29098C1 10.7654 3.81746 13.582 7.29298 13.582Z" stroke="#262E30" stroke-width="0.5" stroke-miterlimit="10"/>
	<path d="M2.65283 7.29294C2.65283 4.73088 4.73008 2.6543 7.29295 2.6543C9.85582 2.6543 11.9331 4.73088 11.9331 7.29294" stroke="#262E30" stroke-width="0.5" stroke-miterlimit="10" stroke-linecap="round"/>
	<path d="M6.64375 9.78914C6.474 9.6798 6.425 9.45324 6.53438 9.28355L8.10325 6.84658L9.42974 5.34294C9.44899 5.32107 9.48312 5.34294 9.47262 5.36918L8.74462 7.20259L7.1495 9.67892C7.04012 9.84949 6.8135 9.89848 6.64375 9.78914Z" fill="#ACACAC" stroke="#262E30" stroke-width="0.5" stroke-miterlimit="10"/>
	</g>
	<defs>
	<clipPath id="clip0_1018_9518">
	<rect width="14" height="14" fill="white" transform="translate(0 14) rotate(-90)"/>
	</clipPath>
	</defs>
	</svg>
	