<svg width="40" height="40" viewBox="0 0 40 40" fill="none" xmlns="http://www.w3.org/2000/svg">
<path d="M36.8062 25.5195H7.80615V34.7129H36.8062V25.5195Z" stroke="#00AE42"/>
<path d="M32.665 11.9329L19.1368 5.45312L16.5431 10.8682L30.0713 17.3479L32.665 11.9329Z" stroke="#B7B7B5"/>
<path d="M29.8062 18.5156H14.8062V24.5198H29.8062V18.5156Z" stroke="#00AE42" stroke-dasharray="1 1"/>
<path fill-rule="evenodd" clip-rule="evenodd" d="M13.4877 17.5893C13.5899 17.4871 13.5432 17.3125 13.4035 17.275L4.93752 15.0066C4.79785 14.9692 4.67004 15.097 4.70747 15.2366L6.97591 23.7026C7.01334 23.8423 7.18792 23.889 7.29017 23.7868L13.4877 17.5893ZM7.54627 22.2025L11.9034 17.8454L5.95146 16.2506L7.54627 22.2025Z" fill="#B7B7B5"/>
<path fill-rule="evenodd" clip-rule="evenodd" d="M9.22679 16.0611C9.70527 15.1933 10.3436 14.4213 11.1102 13.787C11.8768 13.1526 12.7546 12.6699 13.6966 12.3623C13.7768 12.3361 13.8575 12.3112 13.9386 12.2875C13.9519 12.2837 13.9648 12.2792 13.9775 12.2743C14.1795 12.1952 14.3022 11.9815 14.252 11.767C14.1986 11.539 13.9701 11.3964 13.745 11.4608C13.7304 11.4649 13.7158 11.4692 13.7013 11.4734C13.609 11.5003 13.5172 11.5287 13.426 11.5586C12.3857 11.8993 11.4164 12.4329 10.5696 13.1336C9.7228 13.8344 9.01728 14.6868 8.48791 15.6449C8.44148 15.7289 8.39641 15.8138 8.35272 15.8994C8.34583 15.9129 8.33898 15.9264 8.33216 15.94C8.2268 16.1491 8.32411 16.4002 8.53809 16.4953C8.73945 16.5848 8.97229 16.5042 9.08776 16.3206C9.095 16.3091 9.10178 16.2972 9.10807 16.2848C9.14647 16.2096 9.18605 16.135 9.22679 16.0611Z" fill="#B7B7B5"/>
</svg>
