<svg width="41" height="41" viewBox="0 0 41 41" fill="none" xmlns="http://www.w3.org/2000/svg">
<path d="M5.5 17.9492C6.8 17.9492 6.8 19.2492 8.1 19.2492C9.4 19.2492 9.4 17.9492 10.7 17.9492C12 17.9492 12 19.2492 13.3 19.2492C14.6 19.2492 14.6 17.9492 15.9 17.9492C17.2 17.9492 17.2 19.2492 18.5 19.2492C19.8 19.2492 19.8 17.9492 21.1 17.9492C22.4 17.9492 22.4 19.2492 23.7 19.2492C25 19.2492 25 17.9492 26.3 17.9492" stroke="#00AE42" stroke-miterlimit="10"/>
<path d="M5.5 22.6484C6.8 22.6484 6.8 24.1484 8.1 24.1484C9.4 24.1484 9.4 22.6484 10.7 22.6484C12 22.6484 12 24.1484 13.3 24.1484C14.6 24.1484 14.6 22.6484 15.9 22.6484C17.2 22.6484 17.2 24.1484 18.5 24.1484C19.8 24.1484 19.8 22.6484 21.1 22.6484C22.4 22.6484 22.4 24.1484 23.7 24.1484C25 24.1484 25 22.6484 26.3 22.6484" stroke="#00AE42" stroke-miterlimit="10"/>
<path d="M5.5 32.5488C6.8 32.5488 6.8 34.0488 8.1 34.0488C9.4 34.0488 9.4 32.5488 10.7 32.5488C12 32.5488 12 34.0488 13.3 34.0488C14.6 34.0488 14.6 32.5488 15.9 32.5488C17.2 32.5488 17.2 34.0488 18.5 34.0488C19.8 34.0488 19.8 32.5488 21.1 32.5488C22.4 32.5488 22.4 34.0488 23.7 34.0488C25 34.0488 25 32.5488 26.3 32.5488" stroke="#00AE42" stroke-miterlimit="10"/>
<path d="M5.5 27.4492C6.8 27.4492 6.8 29.1492 8.1 29.1492C9.4 29.1492 9.4 27.4492 10.7 27.4492C12 27.4492 12 29.1492 13.3 29.1492C14.6 29.1492 14.6 27.4492 15.9 27.4492C17.2 27.4492 17.2 29.1492 18.5 29.1492C19.8 29.1492 19.8 27.4492 21.1 27.4492C22.4 27.4492 22.4 29.1492 23.7 29.1492C25 29.1492 25 27.4492 26.3 27.4492" stroke="#00AE42" stroke-miterlimit="10"/>
<path d="M13.8 6.14844C15.1 6.14844 14.3 7.04844 15.7 7.04844C17.1 7.04844 17.8 6.14844 19.1 6.14844C20.4 6.14844 19.6 7.04844 21 7.04844C22.4 7.04844 23.1 6.14844 24.4 6.14844C25.7 6.14844 24.9 7.04844 26.3 7.04844C27.7 7.04844 28.4 6.14844 29.7 6.14844C31 6.14844 30.2 7.04844 31.6 7.04844C33 7.04844 33.7 6.14844 35 6.14844" stroke="#00AE42" stroke-miterlimit="10"/>
<path d="M11 9.14844C12.3 9.14844 11.4 10.1484 12.7 10.1484C14 10.1484 14.9 9.14844 16.2 9.14844C17.5 9.14844 16.6 10.1484 17.9 10.1484C19.2 10.1484 20.1 9.14844 21.4 9.14844C22.7 9.14844 21.8 10.1484 23.1 10.1484C24.4 10.1484 25.3 9.14844 26.6 9.14844C27.9 9.14844 27 10.1484 28.3 10.1484C29.6 10.1484 30.5 9.14844 31.8 9.14844" stroke="#00AE42" stroke-miterlimit="10"/>
<path d="M8.1001 12.3477C9.4001 12.3477 8.4001 13.4477 9.7001 13.4477C11.0001 13.4477 12.0001 12.3477 13.3001 12.3477C14.6001 12.3477 13.6001 13.4477 14.9001 13.4477C16.2001 13.4477 17.2001 12.3477 18.5001 12.3477C19.8001 12.3477 18.8001 13.4477 20.1001 13.4477C21.4001 13.4477 22.4001 12.3477 23.7001 12.3477C25.0001 12.3477 24.0001 13.4477 25.3001 13.4477C26.6001 13.4477 27.6001 12.3477 28.9001 12.3477" stroke="#00AE42" stroke-miterlimit="10"/>
<path d="M26.3999 17.9488C26.9999 17.3488 26.9999 18.6488 27.5999 17.9488C28.1999 17.2488 28.1999 15.9488 28.7999 15.3488C29.3999 14.7488 29.3999 16.0488 29.9999 15.3488C30.5999 14.6488 30.5999 13.3488 31.1999 12.7488C31.7999 12.1488 31.7999 13.4488 32.3999 12.7488C32.9999 12.0488 32.9999 10.7488 33.5999 10.1488C34.1999 9.54883 34.1999 10.7488 34.7999 10.1488C35.3999 9.54883 35.3999 8.14883 35.9999 7.54883" stroke="#00AE42" stroke-miterlimit="10"/>
<path d="M26.3999 22.5621C26.9999 21.9621 26.9999 23.3621 27.5999 22.7621C28.1999 22.1621 28.1999 20.6621 28.7999 19.9621C29.3999 19.2621 29.3999 20.7621 29.9999 20.1621C30.5999 19.5621 30.5999 18.0621 31.1999 17.3621C31.7999 16.6621 31.7999 18.1621 32.3999 17.5621C32.9999 16.9621 32.9999 15.4621 33.5999 14.7621C34.1999 14.0621 34.1999 15.5621 34.7999 14.9621C35.3999 14.3621 35.3999 12.8621 35.9999 12.1621" stroke="#00AE42" stroke-miterlimit="10"/>
<path d="M26.3999 32.2516C26.9999 31.6516 26.9999 33.0516 27.5999 32.4516C28.1999 31.8516 28.1999 30.3516 28.7999 29.6516C29.3999 28.9516 29.3999 30.4516 29.9999 29.8516C30.5999 29.2516 30.5999 27.7516 31.1999 27.0516C31.7999 26.3516 31.7999 27.8516 32.3999 27.2516C32.9999 26.6516 32.9999 25.1516 33.5999 24.4516C34.1999 23.7516 34.1999 25.2516 34.7999 24.6516C35.3999 24.0516 35.3999 22.5516 35.9999 21.8516" stroke="#00AE42" stroke-miterlimit="10"/>
<path d="M26.3999 27.3141C26.9999 26.7141 26.9999 28.3141 27.5999 27.7141C28.1999 27.1141 28.1999 25.4141 28.7999 24.7141C29.3999 24.0141 29.3999 25.7141 29.9999 25.1141C30.5999 24.5141 30.5999 22.8141 31.1999 22.1141C31.7999 21.4141 31.7999 23.1141 32.3999 22.5141C32.9999 21.9141 32.9999 20.2141 33.5999 19.5141C34.1999 18.8141 34.1999 20.5141 34.7999 19.9141C35.3999 19.3141 35.3999 17.6141 35.9999 16.9141" stroke="#00AE42" stroke-miterlimit="10"/>
<path d="M26.4 15.0488H5.5V36.3488H26.4V15.0488Z" stroke="#B6B6B6" stroke-linejoin="round"/>
<path d="M26.4 15.0492H5.5L15.4 4.94922H36.3L26.4 15.0492Z" stroke="#B6B6B6" stroke-linecap="round" stroke-linejoin="round"/>
<path d="M36.2999 26.2492L26.3999 36.3492V15.0492L36.2999 4.94922V26.2492Z" stroke="#B6B6B6" stroke-linecap="round" stroke-linejoin="round"/>
<path d="M26.4 15.0492H5.5L15.4 4.94922H36.3L26.4 15.0492Z" stroke="#B6B6B6" stroke-linecap="round" stroke-linejoin="round"/>
</svg>
