<svg width="40" height="40" viewBox="0 0 40 40" fill="none" xmlns="http://www.w3.org/2000/svg">
<path d="M29.7682 4.05371C30.3016 4.05371 30.7952 4.33711 31.0641 4.79785L35.5065 12.4131C35.7009 12.7464 35.4607 13.165 35.0748 13.165H4.92443C4.53877 13.1647 4.29842 12.7463 4.49279 12.4131L8.93517 4.79785C9.17033 4.39473 9.57746 4.12703 10.0328 4.06641L10.2311 4.05371H29.7682ZM10.2311 5.05371C10.0533 5.05371 9.88905 5.14823 9.79943 5.30176L5.79553 12.165H34.2047L30.2008 5.30176C30.1112 5.14815 29.946 5.05371 29.7682 5.05371H10.2311Z" fill="#B6B6B6"/>
<path d="M21.259 35.9436C20.9829 35.9436 20.7591 35.7197 20.759 35.4436V31.2717C23.3584 30.744 25.3147 28.4467 25.3147 25.6917C25.3147 22.9365 23.3584 20.6382 20.759 20.1106V15.9417C20.7592 15.6657 20.983 15.4417 21.259 15.4417H35.4456C35.7214 15.4419 35.9453 15.6658 35.9456 15.9417V35.4436C35.9455 35.7195 35.7215 35.9434 35.4456 35.9436H21.259ZM26.3147 25.6917C26.3147 28.6418 24.4071 31.1429 21.759 32.0354V34.9436H34.9456V16.4417H21.759V19.3459C24.4075 20.2385 26.3147 22.7415 26.3147 25.6917Z" fill="#00AE42"/>
<path d="M22.4166 25.6926C22.4166 24.1481 21.1642 22.8958 19.6198 22.8958C19.5241 22.8958 19.4306 22.9004 19.3395 22.9094L18.2408 23.0188V16.4417H5.05432V34.9436H18.2408V28.3655L19.3395 28.4749C19.4358 28.4844 19.5291 28.4895 19.6198 28.4895C21.1642 28.4895 22.4166 27.2371 22.4166 25.6926ZM23.4166 25.6926C23.4166 27.7894 21.7165 29.4895 19.6198 29.4895C19.4919 29.4895 19.3655 29.4823 19.2408 29.47V35.4436C19.2408 35.7196 19.0168 35.9434 18.7408 35.9436H4.55432C4.27824 35.9436 4.05441 35.7197 4.05432 35.4436V15.9417C4.05453 15.6657 4.27831 15.4417 4.55432 15.4417H18.7408C19.0167 15.4418 19.2406 15.6658 19.2408 15.9417V21.9143C19.3655 21.9019 19.4919 21.8958 19.6198 21.8958C21.7165 21.8958 23.4166 23.5958 23.4166 25.6926Z" fill="#00AE42"/>
</svg>
