<svg width="40" height="40" viewBox="0 0 40 40" fill="none" xmlns="http://www.w3.org/2000/svg">
<path fill-rule="evenodd" clip-rule="evenodd" d="M14.1068 5.82422C14.1068 5.54808 14.3306 5.32422 14.6068 5.32422H23.3442C23.479 5.32422 23.6081 5.37867 23.7022 5.47522L29.7399 11.6695C29.8309 11.7629 29.8818 11.8881 29.8818 12.0185V21.1495C29.8818 21.4256 29.658 21.6495 29.3818 21.6495C29.1057 21.6495 28.8818 21.4256 28.8818 21.1495V12.2219L23.1333 6.32422H14.6068C14.3306 6.32422 14.1068 6.10036 14.1068 5.82422ZM5.86938 16.7729C6.14553 16.7729 6.36938 16.9967 6.36938 17.2729V33.7839H28.8818V32.1134C28.8818 31.8372 29.1057 31.6134 29.3818 31.6134C29.658 31.6134 29.8818 31.8372 29.8818 32.1134V34.2839C29.8818 34.5601 29.658 34.7839 29.3818 34.7839H5.86938C5.59324 34.7839 5.36938 34.5601 5.36938 34.2839V17.2729C5.36938 16.9967 5.59324 16.7729 5.86938 16.7729Z" fill="#2B3436"/>
<path d="M35.7351 23.4562V28.7252C35.7351 29.8472 35.4601 30.6466 34.9101 31.1232C34.3674 31.6072 33.7147 31.8492 32.9521 31.8492C32.3654 31.8492 31.8447 31.7246 31.3901 31.4752C30.9427 31.2259 30.6347 30.8776 30.4661 30.4302L31.3571 29.9132C31.6431 30.5146 32.1747 30.8152 32.9521 30.8152C33.4874 30.8152 33.8981 30.6502 34.1841 30.3202C34.4701 29.9976 34.6131 29.4476 34.6131 28.6702L34.6461 28.2852C34.4407 28.6226 34.1767 28.8756 33.8541 29.0442C33.5387 29.2056 33.1941 29.2862 32.8201 29.2862C32.3727 29.2862 31.9511 29.1689 31.5551 28.9342C31.1664 28.6922 30.8511 28.3476 30.6091 27.9002C30.3744 27.4456 30.2571 26.9139 30.2571 26.3052C30.2571 25.6892 30.3744 25.1576 30.6091 24.7102C30.8511 24.2556 31.1664 23.9109 31.5551 23.6762C31.9511 23.4416 32.3727 23.3242 32.8201 23.3242C33.1941 23.3242 33.5461 23.4122 33.8761 23.5882C34.2061 23.7642 34.4701 24.0282 34.6681 24.3802C34.7121 23.9549 34.7377 23.6469 34.7451 23.4562H35.7351ZM32.9851 28.2742C33.4324 28.2742 33.8137 28.1129 34.1291 27.7902C34.4517 27.4676 34.6131 26.9726 34.6131 26.3052C34.6131 25.6452 34.4517 25.1576 34.1291 24.8422C33.8137 24.5269 33.4324 24.3692 32.9851 24.3692C32.5157 24.3692 32.1381 24.5379 31.8521 24.8752C31.5734 25.2126 31.4341 25.6892 31.4341 26.3052C31.4341 26.9286 31.5734 27.4126 31.8521 27.7572C32.1381 28.1019 32.5157 28.2742 32.9851 28.2742Z" fill="#00AE42"/>
<path d="M25.5299 23.4551L27.1909 27.6901L28.7529 23.4551H29.9299L27.5869 29.1641H26.6739L24.2539 23.4551H25.5299Z" fill="#00AE42"/>
<path d="M23.9007 26.8985C23.9007 27.3898 23.7797 27.8151 23.5377 28.1745C23.303 28.5338 22.973 28.8088 22.5477 28.9995C22.1297 29.1901 21.6457 29.2855 21.0957 29.2855C20.3257 29.2855 19.6547 29.1058 19.0827 28.7465C18.5107 28.3798 18.133 27.8921 17.9497 27.2835L18.9067 26.7335C19.0974 27.2028 19.3797 27.5658 19.7537 27.8225C20.1277 28.0791 20.586 28.2075 21.1287 28.2075C21.6127 28.2075 21.9867 28.1048 22.2507 27.8995C22.522 27.6868 22.6577 27.3935 22.6577 27.0195C22.6577 26.7188 22.5697 26.4731 22.3937 26.2825C22.225 26.0845 22.0124 25.9341 21.7557 25.8315C21.499 25.7215 21.1507 25.6005 20.7107 25.4685C20.1754 25.3071 19.75 25.1568 19.4347 25.0175C19.1194 24.8708 18.848 24.6581 18.6207 24.3795C18.4007 24.0935 18.2907 23.7195 18.2907 23.2575C18.2907 22.7735 18.4154 22.3591 18.6647 22.0145C18.914 21.6698 19.2477 21.4131 19.6657 21.2445C20.091 21.0685 20.564 20.9805 21.0847 20.9805C21.8034 20.9805 22.3937 21.1381 22.8557 21.4535C23.3177 21.7688 23.6257 22.1795 23.7797 22.6855L22.8227 23.2465C22.4927 22.4471 21.8987 22.0475 21.0407 22.0475C20.586 22.0475 20.2194 22.1501 19.9407 22.3555C19.6694 22.5535 19.5337 22.8248 19.5337 23.1695C19.5337 23.4261 19.6107 23.6351 19.7647 23.7965C19.926 23.9578 20.124 24.0898 20.3587 24.1925C20.6007 24.2878 20.927 24.3941 21.3377 24.5115C21.8804 24.6728 22.3204 24.8305 22.6577 24.9845C23.0024 25.1385 23.2957 25.3695 23.5377 25.6775C23.7797 25.9855 23.9007 26.3925 23.9007 26.8985Z" fill="#00AE42"/>
<path fill-rule="evenodd" clip-rule="evenodd" d="M23.8018 6.94215V11.6107H28.2896L23.8018 6.94215ZM22.8018 5.94886C22.8018 5.40858 23.4599 5.14357 23.8343 5.53305L29.6615 11.5949C30.028 11.9761 29.7578 12.6107 29.229 12.6107H23.4018C23.0704 12.6107 22.8018 12.3421 22.8018 12.0107V5.94886Z" fill="#262E30"/>
<path fill-rule="evenodd" clip-rule="evenodd" d="M4.61867 8.97453L11.5689 15.9247L15.9858 16.6166L15.2941 12.1995L8.34389 5.24931L4.61867 8.97453ZM16.282 12.0448C16.2493 11.8355 16.1509 11.6421 16.0012 11.4924L9.051 4.5422C8.66047 4.15168 8.0273 4.15168 7.63678 4.54221L3.91156 8.26742C3.52104 8.65795 3.52104 9.29111 3.91156 9.68164L10.8617 16.6318C11.0115 16.7816 11.2049 16.8799 11.4141 16.9127L15.831 17.6046C16.5008 17.7095 17.0786 17.1317 16.9737 16.4619L16.282 12.0448Z" fill="#00AE42"/>
</svg>
