<?xml version="1.0" standalone="no"?><!DOCTYPE svg PUBLIC "-//W3C//DTD SVG 1.1//EN" "http://www.w3.org/Graphics/SVG/1.1/DTD/svg11.dtd"><svg t="1650898921089" class="icon" viewBox="0 0 1024 1024" version="1.1" xmlns="http://www.w3.org/2000/svg" p-id="2812" xmlns:xlink="http://www.w3.org/1999/xlink" width="200" height="200"><defs><style type="text/css">@font-face { font-family: feedback-iconfont; src: url("//at.alicdn.com/t/font_1031158_u69w8yhxdu.woff2?t=1630033759944") format("woff2"), url("//at.alicdn.com/t/font_1031158_u69w8yhxdu.woff?t=1630033759944") format("woff"), url("//at.alicdn.com/t/font_1031158_u69w8yhxdu.ttf?t=1630033759944") format("truetype"); }
</style></defs><path d="M512 958.016c-119.648 0-232.128-46.368-316.736-130.56C110.624 743.2 64 631.2 64 512c0-119.168 46.624-231.2 131.232-315.424 84.608-84.192 197.088-130.56 316.736-130.56s232.128 46.368 316.704 130.56c84.672 84.224 131.264 196.256 131.264 315.392 0.032 119.2-46.592 231.232-131.264 315.456C744.128 911.616 631.648 958.016 512 958.016zM512 129.984c-102.624 0-199.072 39.744-271.584 111.936C167.936 314.048 128 409.984 128 512c0 102.016 39.904 197.952 112.384 270.048 72.512 72.192 168.96 111.936 271.584 111.936 102.592 0 199.072-39.744 271.584-111.936 72.48-72.16 112.416-168.064 112.384-270.08 0-102.016-39.904-197.92-112.384-270.016C711.072 169.76 614.592 129.984 512 129.984z" p-id="2813" fill="#b9c7ce"></path><path d="M736 480l-192 0L544 288c0-17.664-14.336-32-32-32s-32 14.336-32 32l0 192L288 480c-17.664 0-32 14.336-32 32s14.336 32 32 32l192 0 0 192c0 17.696 14.336 32 32 32s32-14.304 32-32l0-192 192 0c17.696 0 32-14.336 32-32S753.696 480 736 480z" p-id="2814" fill="#b9c7ce"></path></svg>