<svg width="40" height="41" viewBox="0 0 40 41" fill="none" xmlns="http://www.w3.org/2000/svg">
<path fill-rule="evenodd" clip-rule="evenodd" d="M4.93604 4.5C4.93604 4.22386 5.15989 4 5.43604 4H34.4942C34.7703 4 34.9942 4.22386 34.9942 4.5V18.16C34.9942 18.4361 34.7703 18.66 34.4942 18.66H5.43604C5.15989 18.66 4.93604 18.4361 4.93604 18.16V4.5ZM5.93604 5V17.66H33.9942V5H5.93604Z" fill="#21A452"/>
<path fill-rule="evenodd" clip-rule="evenodd" d="M4.93604 22.2695C4.93604 21.9934 5.15989 21.7695 5.43604 21.7695H34.4942C34.7703 21.7695 34.9942 21.9934 34.9942 22.2695V35.9295C34.9942 36.2057 34.7703 36.4295 34.4942 36.4295H5.43604C5.15989 36.4295 4.93604 36.2057 4.93604 35.9295V22.2695ZM5.93604 22.7695V35.4295H33.9942V22.7695H5.93604Z" fill="#21A452"/>
<path d="M5 20.3C8 18.3 12 17 16 18.5C20 20 24 21 28 19.5C31 18.3 33 17 35 16" fill="none" stroke="#FF8A50" stroke-width="1.8" stroke-linecap="round"/>
<path d="M5 21.2C8 23.2 12 24.5 16 23C20 21.5 24 20.5 28 22C31 23.2 33 24.5 35 25.5" fill="none" stroke="#FF8A50" stroke-width="1.8" stroke-linecap="round"/>
</svg>
