<svg width="35" height="35" viewBox="0 0 35 35" fill="none" xmlns="http://www.w3.org/2000/svg">
<path fill-rule="evenodd" clip-rule="evenodd" d="M17.7695 31.6758C25.3634 31.6758 31.5195 25.5197 31.5195 17.9258C31.5195 10.3319 25.3634 4.17578 17.7695 4.17578C10.1756 4.17578 4.01953 10.3319 4.01953 17.9258C4.01953 25.5197 10.1756 31.6758 17.7695 31.6758ZM17.7695 32.6758C25.9157 32.6758 32.5195 26.072 32.5195 17.9258C32.5195 9.77958 25.9157 3.17578 17.7695 3.17578C9.62333 3.17578 3.01953 9.77958 3.01953 17.9258C3.01953 26.072 9.62333 32.6758 17.7695 32.6758Z" fill="#262E30"/>
<path fill-rule="evenodd" clip-rule="evenodd" d="M9.45931 20.3783C7.05553 19.8947 4.94139 19.2102 3.71631 18.3922L4.27162 17.5605C5.32603 18.2646 7.27798 18.9194 9.65654 19.3979C12.0167 19.8728 14.7335 20.1617 17.272 20.1683C19.8308 20.175 22.5353 20.0541 24.9806 19.6613C27.4363 19.2669 29.5778 18.606 31.0504 17.5677L31.6266 18.385C29.9688 19.5539 27.6486 20.2456 25.1392 20.6487C22.6194 21.0534 19.8552 21.175 17.2694 21.1683C14.6634 21.1616 11.8815 20.8656 9.45931 20.3783Z" fill="#262E30"/>
<path fill-rule="evenodd" clip-rule="evenodd" d="M4.13715 16.8199C3.98857 16.9032 3.84794 16.9888 3.71631 17.0767L4.27162 17.9083C4.3792 17.8365 4.49744 17.7644 4.62618 17.6922C4.86705 17.5571 4.95284 17.2524 4.8178 17.0115C4.68275 16.7707 4.37802 16.6849 4.13715 16.8199ZM31.6266 17.0839C31.4881 16.9862 31.3452 16.892 31.1982 16.8012C30.9633 16.656 30.6552 16.7288 30.51 16.9637C30.3649 17.1986 30.4376 17.5067 30.6726 17.6519C30.8032 17.7326 30.9292 17.8157 31.0504 17.9011L31.6266 17.0839ZM5.57834 16.6897C5.6713 16.9497 5.95744 17.0851 6.21747 16.9922C6.48399 16.8969 6.76559 16.8042 7.06064 16.7144C7.32483 16.6341 7.47384 16.3548 7.39348 16.0906C7.31311 15.8264 7.03379 15.6774 6.7696 15.7577C6.46074 15.8517 6.16385 15.9494 5.88086 16.0505C5.62083 16.1435 5.48539 16.4296 5.57834 16.6897ZM29.6656 16.5579C29.7659 16.3006 29.6386 16.0108 29.3813 15.9105C29.0764 15.7916 28.7616 15.6813 28.4382 15.5787C28.175 15.4953 27.8939 15.641 27.8105 15.9042C27.727 16.1674 27.8727 16.4485 28.136 16.532C28.4405 16.6285 28.735 16.7318 29.0182 16.8422C29.2755 16.9425 29.5653 16.8152 29.6656 16.5579ZM8.19192 15.8817C8.25373 16.1508 8.52202 16.3189 8.79115 16.2571C9.07716 16.1914 9.37015 16.1284 9.66906 16.0684C9.9398 16.014 10.1152 15.7505 10.0608 15.4798C10.0065 15.209 9.74293 15.0336 9.4722 15.088C9.16464 15.1497 8.86265 15.2146 8.56732 15.2824C8.29818 15.3442 8.13011 15.6125 8.19192 15.8817ZM26.9037 15.6702C26.9614 15.4001 26.7892 15.1345 26.5191 15.0768C26.2014 15.009 25.8785 14.9466 25.5512 14.8893C25.2792 14.8417 25.0201 15.0236 24.9725 15.2956C24.9249 15.5676 25.1068 15.8267 25.3788 15.8743C25.6947 15.9296 26.0055 15.9897 26.3103 16.0548C26.5804 16.1124 26.846 15.9402 26.9037 15.6702ZM10.8723 15.3381C10.9136 15.6111 11.1684 15.799 11.4414 15.7577C11.7359 15.7132 12.0335 15.6716 12.3335 15.633C12.6073 15.5978 12.8008 15.3472 12.7656 15.0734C12.7304 14.7995 12.4798 14.606 12.2059 14.6412C11.8987 14.6807 11.5938 14.7234 11.292 14.769C11.0189 14.8103 10.831 15.0651 10.8723 15.3381ZM24.0463 15.1643C24.0777 14.89 23.8808 14.6421 23.6064 14.6107C23.2837 14.5737 22.9585 14.5406 22.6318 14.5111C22.3568 14.4862 22.1137 14.6891 22.0889 14.9641C22.064 15.2391 22.2669 15.4822 22.5419 15.507C22.8611 15.5358 23.1783 15.5681 23.4926 15.6042C23.7669 15.6356 24.0148 15.4387 24.0463 15.1643ZM13.585 14.986C13.6083 15.2611 13.8503 15.4653 14.1255 15.4419C14.4248 15.4166 14.7246 15.3944 15.024 15.3756C15.2996 15.3584 15.509 15.1209 15.4918 14.8453C15.4745 14.5697 15.2371 14.3603 14.9615 14.3776C14.6546 14.3968 14.3475 14.4195 14.041 14.4455C13.7658 14.4689 13.5617 14.7108 13.585 14.986ZM21.1556 14.9002C21.1693 14.6244 20.9569 14.3897 20.6811 14.3759C20.3558 14.3597 20.0305 14.3464 19.7058 14.3357C19.4298 14.3266 19.1987 14.543 19.1896 14.819C19.1805 15.095 19.3969 15.3261 19.6729 15.3351C19.9923 15.3457 20.312 15.3587 20.6313 15.3747C20.9071 15.3884 21.1418 15.176 21.1556 14.9002ZM16.3149 14.8124C16.3192 15.0885 16.5465 15.3089 16.8226 15.3046C16.973 15.3023 17.1228 15.3009 17.272 15.3005C17.4316 15.3001 17.5919 15.3002 17.7526 15.3008C18.0287 15.3019 18.2535 15.0789 18.2545 14.8027C18.2556 14.5266 18.0326 14.3019 17.7564 14.3008C17.5935 14.3002 17.4311 14.3001 17.2694 14.3006C17.1159 14.3009 16.9618 14.3024 16.8072 14.3047C16.5311 14.309 16.3107 14.5363 16.3149 14.8124Z" fill="#262E30"/>
</svg>
