<svg width="40" height="40" viewBox="0 0 40 40" fill="none" xmlns="http://www.w3.org/2000/svg">
<path d="M8.75023 26.3515L6.39156 23.9569C6.1958 23.7582 6.1982 23.4397 6.39695 23.2439C6.59571 23.0482 6.91417 23.0506 7.10994 23.2493L9.46861 25.6439C9.66438 25.8427 9.66198 26.1612 9.46323 26.3569C9.26447 26.5527 8.946 26.5503 8.75023 26.3515Z" fill="#00AE42"/>
<path d="M11.1272 23.9746L8.76851 21.58C8.57275 21.3812 8.57515 21.0628 8.7739 20.867C8.97266 20.6712 9.29112 20.6736 9.48689 20.8724L11.8456 23.267C12.0413 23.4657 12.0389 23.7842 11.8402 23.98C11.6414 24.1757 11.323 24.1733 11.1272 23.9746Z" fill="#00AE42"/>
<path d="M14.8692 22.9629L11.3221 19.3799C11.0277 19.0825 10.9511 18.6851 11.1506 18.49C11.3499 18.2948 11.7488 18.3776 12.0432 18.675L15.5903 22.258C15.8847 22.5554 15.9613 22.9529 15.7618 23.1479C15.5625 23.3431 15.1636 23.2603 14.8692 22.9629Z" fill="#00AE42"/>
<path d="M15.8806 19.2226L13.5219 16.828C13.3262 16.6293 13.3286 16.3108 13.5273 16.115C13.7261 15.9193 14.0445 15.9217 14.2403 16.1204L16.599 18.515C16.7947 18.7138 16.7923 19.0322 16.5936 19.228C16.3948 19.4238 16.0764 19.4214 15.8806 19.2226Z" fill="#00AE42"/>
<path d="M18.2573 16.8457L15.8986 14.4511C15.7029 14.2523 15.7053 13.9339 15.904 13.7381C16.1028 13.5423 16.4213 13.5447 16.617 13.7435L18.9757 16.1381C19.1715 16.3368 19.1691 16.6553 18.9703 16.8511C18.7715 17.0468 18.4531 17.0444 18.2573 16.8457Z" fill="#00AE42"/>
<path d="M21.9993 15.834L18.4523 12.251C18.1579 11.9536 18.0812 11.5562 18.2807 11.3611C18.48 11.1659 18.8789 11.2487 19.1733 11.5461L22.7204 15.1291C23.0148 15.4265 23.0914 15.824 22.8919 16.019C22.6927 16.2143 22.2937 16.1314 21.9993 15.834Z" fill="#00AE42"/>
<path d="M23.0105 12.0918L20.6518 9.69717C20.4561 9.49841 20.4585 9.17994 20.6572 8.98417C20.856 8.78841 21.1744 8.79081 21.3702 8.98956L23.7289 11.3842C23.9246 11.5829 23.9222 11.9014 23.7235 12.0972C23.5247 12.2929 23.2063 12.2905 23.0105 12.0918Z" fill="#00AE42"/>
<path d="M25.3872 9.71482L23.0285 7.32021C22.8328 7.12146 22.8352 6.80299 23.0339 6.60722C23.2327 6.41146 23.5511 6.41386 23.7469 6.61261L26.1056 9.00721C26.3013 9.20597 26.2989 9.52443 26.1002 9.7202C25.9014 9.91597 25.583 9.91357 25.3872 9.71482Z" fill="#00AE42"/>
<path d="M35.8128 14.5212L14.5223 35.8117C14.0636 36.2704 13.3173 36.2704 12.8586 35.8117L3.83185 26.785C3.37314 26.3263 3.37314 25.58 3.83185 25.1213L25.12 3.83313C25.5787 3.37443 26.325 3.37443 26.7837 3.83313L35.8104 12.8599C36.2715 13.3162 36.2691 14.0648 35.8128 14.5212ZM4.54486 25.8343C4.48069 25.8985 4.48069 26.0078 4.54486 26.072L13.5716 35.0987C13.6358 35.1629 13.7451 35.1629 13.8093 35.0987L35.0974 13.8105C35.1616 13.7464 35.1616 13.637 35.0974 13.5729L26.0707 4.54614C26.0065 4.48197 25.8972 4.48197 25.833 4.54614L4.54486 25.8343Z" fill="#262E30"/>
</svg>
