<svg width="40" height="40" viewBox="0 0 40 40" fill="none" xmlns="http://www.w3.org/2000/svg">
<path d="M5 17C6.3 17 6.3 18.3 7.6 18.3C8.9 18.3 8.9 17 10.2 17C11.5 17 11.5 18.3 12.8 18.3C14.1 18.3 14.1 17 15.4 17C16.7 17 16.7 18.3 18 18.3C19.3 18.3 19.3 17 20.6 17C21.9 17 21.9 18.3 23.2 18.3C24.5 18.3 24.5 17 25.8 17" stroke="#00AE42" stroke-miterlimit="10"/>
<path d="M5 21.6992C6.3 21.6992 6.3 23.1992 7.6 23.1992C8.9 23.1992 8.9 21.6992 10.2 21.6992C11.5 21.6992 11.5 23.1992 12.8 23.1992C14.1 23.1992 14.1 21.6992 15.4 21.6992C16.7 21.6992 16.7 23.1992 18 23.1992C19.3 23.1992 19.3 21.6992 20.6 21.6992C21.9 21.6992 21.9 23.1992 23.2 23.1992C24.5 23.1992 24.5 21.6992 25.8 21.6992" stroke="#00AE42" stroke-miterlimit="10"/>
<path d="M5 31.5996C6.3 31.5996 6.3 33.0996 7.6 33.0996C8.9 33.0996 8.9 31.5996 10.2 31.5996C11.5 31.5996 11.5 33.0996 12.8 33.0996C14.1 33.0996 14.1 31.5996 15.4 31.5996C16.7 31.5996 16.7 33.0996 18 33.0996C19.3 33.0996 19.3 31.5996 20.6 31.5996C21.9 31.5996 21.9 33.0996 23.2 33.0996C24.5 33.0996 24.5 31.5996 25.8 31.5996" stroke="#00AE42" stroke-miterlimit="10"/>
<path d="M5 26.5C6.3 26.5 6.3 28.2 7.6 28.2C8.9 28.2 8.9 26.5 10.2 26.5C11.5 26.5 11.5 28.2 12.8 28.2C14.1 28.2 14.1 26.5 15.4 26.5C16.7 26.5 16.7 28.2 18 28.2C19.3 28.2 19.3 26.5 20.6 26.5C21.9 26.5 21.9 28.2 23.2 28.2C24.5 28.2 24.5 26.5 25.8 26.5" stroke="#00AE42" stroke-miterlimit="10"/>
<path d="M25.8999 16.9996C26.4999 16.3996 26.4999 17.6996 27.0999 16.9996C27.6999 16.2996 27.6999 14.9996 28.2999 14.3996C28.8999 13.7996 28.8999 15.0996 29.4999 14.3996C30.0999 13.6996 30.0999 12.3996 30.6999 11.7996C31.2999 11.1996 31.2999 12.4996 31.8999 11.7996C32.4999 11.0996 32.4999 9.79961 33.0999 9.19961C33.6999 8.59961 33.6999 9.79961 34.2999 9.19961C34.8999 8.59961 34.8999 7.19961 35.4999 6.59961" stroke="#00AE42" stroke-miterlimit="10"/>
<path d="M25.8999 21.6129C26.4999 21.0129 26.4999 22.4129 27.0999 21.8129C27.6999 21.2129 27.6999 19.7129 28.2999 19.0129C28.8999 18.3129 28.8999 19.8129 29.4999 19.2129C30.0999 18.6129 30.0999 17.1129 30.6999 16.4129C31.2999 15.7129 31.2999 17.2129 31.8999 16.6129C32.4999 16.0129 32.4999 14.5129 33.0999 13.8129C33.6999 13.1129 33.6999 14.6129 34.2999 14.0129C34.8999 13.4129 34.8999 11.9129 35.4999 11.2129" stroke="#00AE42" stroke-miterlimit="10"/>
<path d="M25.8999 31.3023C26.4999 30.7023 26.4999 32.1023 27.0999 31.5023C27.6999 30.9023 27.6999 29.4023 28.2999 28.7023C28.8999 28.0023 28.8999 29.5023 29.4999 28.9023C30.0999 28.3023 30.0999 26.8023 30.6999 26.1023C31.2999 25.4023 31.2999 26.9023 31.8999 26.3023C32.4999 25.7023 32.4999 24.2023 33.0999 23.5023C33.6999 22.8023 33.6999 24.3023 34.2999 23.7023C34.8999 23.1023 34.8999 21.6023 35.4999 20.9023" stroke="#00AE42" stroke-miterlimit="10"/>
<path d="M25.8999 26.3648C26.4999 25.7648 26.4999 27.3648 27.0999 26.7648C27.6999 26.1648 27.6999 24.4648 28.2999 23.7648C28.8999 23.0648 28.8999 24.7648 29.4999 24.1648C30.0999 23.5648 30.0999 21.8648 30.6999 21.1648C31.2999 20.4648 31.2999 22.1648 31.8999 21.5648C32.4999 20.9648 32.4999 19.2648 33.0999 18.5648C33.6999 17.8648 33.6999 19.5648 34.2999 18.9648C34.8999 18.3648 34.8999 16.6648 35.4999 15.9648" stroke="#00AE42" stroke-miterlimit="10"/>
<path d="M25.9 14.0996H5V35.3996H25.9V14.0996Z" stroke="#262E30" stroke-linejoin="round"/>
<path d="M25.9 14.1H5L14.9 4H35.8L25.9 14.1Z" stroke="#262E30" stroke-linecap="round" stroke-linejoin="round"/>
<path d="M35.7999 25.3L25.8999 35.4V14.1L35.7999 4V25.3Z" stroke="#262E30" stroke-linecap="round" stroke-linejoin="round"/>
</svg>
