<svg width="12" height="12" viewBox="0 0 12 12" fill="none" xmlns="http://www.w3.org/2000/svg">
<path d="M10.125 2.25H8.4375V1.6875C8.4375 1.3394 8.29922 1.00556 8.05308 0.759422C7.80694 0.513281 7.4731 0.375 7.125 0.375H4.875C4.5269 0.375 4.19306 0.513281 3.94692 0.759422C3.70078 1.00556 3.5625 1.3394 3.5625 1.6875V2.25H1.875C1.72582 2.25 1.58274 2.30926 1.47725 2.41475C1.37176 2.52024 1.3125 2.66332 1.3125 2.8125C1.3125 2.96168 1.37176 3.10476 1.47725 3.21025C1.58274 3.31574 1.72582 3.375 1.875 3.375H2.0625V9.75C2.0625 9.99864 2.16127 10.2371 2.33709 10.4129C2.5129 10.5887 2.75136 10.6875 3 10.6875H9C9.24864 10.6875 9.4871 10.5887 9.66291 10.4129C9.83873 10.2371 9.9375 9.99864 9.9375 9.75V3.375H10.125C10.2742 3.375 10.4173 3.31574 10.5227 3.21025C10.6282 3.10476 10.6875 2.96168 10.6875 2.8125C10.6875 2.66332 10.6282 2.52024 10.5227 2.41475C10.4173 2.30926 10.2742 2.25 10.125 2.25ZM4.6875 1.6875C4.6875 1.63777 4.70725 1.59008 4.74242 1.55492C4.77758 1.51975 4.82527 1.5 4.875 1.5H7.125C7.17473 1.5 7.22242 1.51975 7.25758 1.55492C7.29275 1.59008 7.3125 1.63777 7.3125 1.6875V2.25H4.6875V1.6875ZM8.8125 9.5625H3.1875V3.375H8.8125V9.5625ZM5.4375 4.875V7.875C5.4375 8.02418 5.37824 8.16726 5.27275 8.27275C5.16726 8.37824 5.02418 8.4375 4.875 8.4375C4.72582 8.4375 4.58274 8.37824 4.47725 8.27275C4.37176 8.16726 4.3125 8.02418 4.3125 7.875V4.875C4.3125 4.72582 4.37176 4.58274 4.47725 4.47725C4.58274 4.37176 4.72582 4.3125 4.875 4.3125C5.02418 4.3125 5.16726 4.37176 5.27275 4.47725C5.37824 4.58274 5.4375 4.72582 5.4375 4.875ZM7.6875 4.875V7.875C7.6875 8.02418 7.62824 8.16726 7.52275 8.27275C7.41726 8.37824 7.27418 8.4375 7.125 8.4375C6.97582 8.4375 6.83274 8.37824 6.72725 8.27275C6.62176 8.16726 6.5625 8.02418 6.5625 7.875V4.875C6.5625 4.72582 6.62176 4.58274 6.72725 4.47725C6.83274 4.37176 6.97582 4.3125 7.125 4.3125C7.27418 4.3125 7.41726 4.37176 7.52275 4.47725C7.62824 4.58274 7.6875 4.72582 7.6875 4.875Z" fill="#F8F8F8"/>
</svg>
