<svg width="24" height="24" viewBox="0 0 24 24" fill="none" xmlns="http://www.w3.org/2000/svg">
<path d="M5.29942 16.1372C5.29942 14.4799 5.29727 12.8253 5.29942 11.168C5.30158 9.79775 6.1957 8.78944 7.46686 8.72739C7.66723 8.71704 7.73618 8.65241 7.73187 8.43523C7.7211 7.8923 7.72325 7.34936 7.73187 6.80642C7.7491 5.72055 8.47733 4.93458 9.48564 4.93717C9.76142 4.93717 9.86268 4.81824 9.94886 4.56745C10.3647 3.38333 10.7913 2.2018 11.2222 1.02285C11.3902 0.565233 11.6919 0.348058 12.0754 0.384254C12.4459 0.42045 12.6549 0.689333 12.7799 1.02802C13.1462 2.01824 13.5017 3.01362 13.8593 4.00642C13.9347 4.21842 14.0166 4.42784 14.0812 4.64502C14.1459 4.85702 14.2557 4.93717 14.4733 4.93458C15.1563 4.932 15.7251 5.21381 16.0418 5.88602C16.1797 6.17817 16.2422 6.53237 16.2659 6.86589C16.3025 7.37004 16.2853 7.88196 16.2724 8.3887C16.2659 8.63173 16.3241 8.72221 16.5675 8.73256C17.5392 8.77392 18.3213 9.41511 18.6014 10.3976C18.6725 10.6432 18.6983 10.9146 18.6983 11.1758C18.7048 14.4799 18.7091 17.7841 18.7005 21.0883C18.6983 22.3112 18.0994 23.1462 17.0157 23.4798C16.8778 23.5211 16.727 23.5341 16.5804 23.5341C13.5254 23.5366 10.4703 23.5418 7.41516 23.5341C6.24956 23.5315 5.31882 22.5025 5.30373 21.1891C5.2865 19.6637 5.29727 18.1383 5.29727 16.6155C5.29942 16.4526 5.29942 16.2949 5.29942 16.1372ZM17.5715 16.1656H17.5672C17.5672 14.5342 17.5478 12.9054 17.5758 11.274C17.5888 10.501 17.1234 9.93995 16.337 9.94512C13.4456 9.9658 10.5521 9.96838 7.66077 9.94512C6.86575 9.93995 6.41977 10.5294 6.42408 11.2818C6.44347 14.5161 6.4327 17.7505 6.4327 20.9848C6.4327 21.8742 6.82913 22.3215 7.65431 22.3241C10.5543 22.3293 13.4543 22.3293 16.3564 22.3241C17.1643 22.3215 17.5715 21.8716 17.5715 21.0055C17.5737 19.3896 17.5715 17.7789 17.5715 16.1656ZM12.0021 8.72222C12.9544 8.72222 13.9089 8.71704 14.8611 8.72739C15.0788 8.72997 15.1412 8.65499 15.1369 8.42489C15.124 7.90005 15.1348 7.37263 15.1305 6.84779C15.1262 6.4031 14.9085 6.17041 14.4949 6.17041C12.8338 6.16783 11.1726 6.16783 9.50934 6.17041C9.09567 6.17041 8.87807 6.40568 8.87376 6.84779C8.86945 7.36487 8.88453 7.88196 8.8673 8.39904C8.85868 8.64724 8.92762 8.73256 9.16677 8.72997C10.1126 8.71446 11.0584 8.72222 12.0021 8.72222ZM12.0517 2.37761C12.0172 2.38019 11.9849 2.38278 11.9504 2.38536C11.6531 3.2127 11.3558 4.04262 11.0477 4.90097H12.9609C12.6463 4.02969 12.349 3.20236 12.0517 2.37761Z" fill="#DBDBDD"/>
<path d="M11.991 19.1102H8.00942C7.54189 19.1102 7.31998 18.8775 7.31998 18.3734C7.31782 16.8842 7.31782 15.395 7.31998 13.9058C7.31998 13.4068 7.54189 13.1663 8.00942 13.1637C9.86661 13.1612 11.7238 13.1637 13.5788 13.1637C14.3695 13.1637 15.1581 13.1612 15.9488 13.1637C16.481 13.1637 16.6899 13.3887 16.6899 13.9575C16.6921 15.4131 16.6921 16.8661 16.6899 18.3216C16.6899 18.8956 16.4874 19.1102 15.9488 19.1102H11.991ZM11.978 17.8847C13.0704 17.8847 14.1606 17.8795 15.2529 17.8899C15.4813 17.8925 15.5459 17.8097 15.5437 17.5719C15.533 16.6075 15.5351 15.6457 15.5437 14.6814C15.5459 14.4565 15.4856 14.3789 15.268 14.3789C13.0941 14.3866 10.9202 14.3866 8.74411 14.3789C8.5265 14.3789 8.46402 14.4539 8.46618 14.6814C8.47479 15.6354 8.4791 16.592 8.46618 17.546C8.46187 17.8072 8.52866 17.8951 8.78073 17.8925C9.84506 17.877 10.9115 17.8847 11.978 17.8847Z" fill="#DBDBDD"/>
</svg>
