<svg width="24" height="24" viewBox="0 0 24 24" fill="none" xmlns="http://www.w3.org/2000/svg">
<rect width="24" height="24" rx="4" fill="white"/>
<path d="M16.3237 6.46885L16.2537 6.01168L16.2535 6.01172L16.3237 6.46885ZM17.5301 7.67521L17.9872 7.74535L17.9873 7.7452L17.5301 7.67521ZM16.7353 12.8549L17.1924 12.9252L17.1924 12.925L16.7353 12.8549ZM16.3797 13.4978L16.08 13.1455L16.0658 13.1576L16.0526 13.1708L16.3797 13.4978ZM10.4542 19.4233L10.7812 19.7504L10.7812 19.7503L10.4542 19.4233ZM8.95851 19.4233L8.63148 19.7503L8.63168 19.7505L8.95851 19.4233ZM4.57845 15.0432L4.2513 15.3701L4.25142 15.3702L4.57845 15.0432ZM4.57845 13.5475L4.25142 13.2205L4.25134 13.2206L4.57845 13.5475ZM10.4887 7.63723L10.8158 7.96426L10.8323 7.9477L10.8471 7.92955L10.4887 7.63723ZM11.1447 7.26434L11.2149 7.72148L11.215 7.72147L11.1447 7.26434ZM15.2672 8.94372L15.5944 8.6168L15.5943 8.61669L15.2672 8.94372ZM13.7239 8.94303L13.3969 8.61591L13.3969 8.616L13.7239 8.94303ZM13.7239 10.4871L13.3969 10.8141L13.397 10.8142L13.7239 10.4871ZM15.2672 10.4864L15.5943 10.8134L15.5943 10.8133L15.2672 10.4864ZM16.3237 6.46885L16.3938 6.92601C16.791 6.86517 17.1338 7.20791 17.0729 7.60522L17.5301 7.67521L17.9873 7.7452C18.1426 6.73073 17.2683 5.85633 16.2537 6.01168L16.3237 6.46885ZM17.5301 7.67521L17.073 7.60506L16.2782 12.7848L16.7353 12.8549L17.1924 12.925L17.9872 7.74535L17.5301 7.67521ZM16.7353 12.8549L16.2782 12.7846C16.2542 12.9403 16.1798 13.0606 16.08 13.1455L16.3797 13.4978L16.6794 13.8501C16.9419 13.6267 17.1334 13.3089 17.1924 12.9252L16.7353 12.8549ZM16.3797 13.4978L16.0526 13.1708L10.1272 19.0962L10.4542 19.4233L10.7812 19.7503L16.7067 13.8248L16.3797 13.4978ZM10.4542 19.4233L10.1273 19.0961C9.89498 19.3283 9.51799 19.3284 9.28534 19.096L8.95851 19.4233L8.63168 19.7505C9.22524 20.3433 10.1874 20.3438 10.7812 19.7504L10.4542 19.4233ZM8.95851 19.4233L9.28554 19.0962L4.90548 14.7162L4.57845 15.0432L4.25142 15.3702L8.63148 19.7503L8.95851 19.4233ZM4.57845 15.0432L4.90561 14.7163C4.67324 14.4838 4.67327 14.1069 4.90557 13.8745L4.57845 13.5475L4.25134 13.2206C3.65796 13.8143 3.6581 14.7765 4.2513 15.3701L4.57845 15.0432ZM4.57845 13.5475L4.90548 13.8745L10.8158 7.96426L10.4887 7.63723L10.1617 7.3102L4.25142 13.2205L4.57845 13.5475ZM10.4887 7.63723L10.8471 7.92955C10.9334 7.82377 11.0558 7.74589 11.2149 7.72148L11.1447 7.26434L11.0746 6.8072C10.6775 6.86814 10.3537 7.07107 10.1303 7.3449L10.4887 7.63723ZM11.1447 7.26434L11.215 7.72147L16.394 6.92598L16.3237 6.46885L16.2535 6.01172L11.0745 6.80721L11.1447 7.26434ZM15.2672 8.94372L15.5943 8.61669C14.9877 8.01017 14.0041 8.00907 13.3969 8.61591L13.7239 8.94303L14.0508 9.27015C14.2962 9.02488 14.6943 9.02487 14.9402 9.27075L15.2672 8.94372ZM13.7239 8.94303L13.3969 8.616C12.79 9.22288 12.79 10.2072 13.3969 10.8141L13.7239 10.4871L14.0509 10.16C13.8053 9.91437 13.8053 9.51572 14.0509 9.27006L13.7239 8.94303ZM13.7239 10.4871L13.397 10.8142C14.0041 11.4209 14.9877 11.4199 15.5943 10.8134L15.2672 10.4864L14.9402 10.1593C14.6944 10.4052 14.2962 10.4052 14.0508 10.1599L13.7239 10.4871ZM15.2672 10.4864L15.5943 10.8133C16.2008 10.2065 16.2007 9.22359 15.5944 8.6168L15.2672 8.94372L14.9401 9.27063C15.1856 9.51629 15.1856 9.91385 14.9401 10.1594L15.2672 10.4864Z" fill="#262E30"/>
</svg>
