<svg width="24" height="24" viewBox="0 0 24 24" fill="none" xmlns="http://www.w3.org/2000/svg">
<path d="M15.9362 10.3137C15.9362 8.82165 15.3437 7.39067 14.2889 6.33559C13.2341 5.28052 11.8035 4.68779 10.3118 4.68779C8.82009 4.68779 7.38949 5.28052 6.3347 6.33559C5.27991 7.39067 4.68734 8.82165 4.68734 10.3137C4.68734 11.8058 5.27991 13.2368 6.3347 14.2919C7.38949 15.347 8.82009 15.9397 10.3118 15.9397C11.8035 15.9397 13.2341 15.347 14.2889 14.2919C15.3437 13.2368 15.9362 11.8058 15.9362 10.3137ZM14.85 16.0487C13.6056 17.0368 12.0272 17.6275 10.3118 17.6275C6.27273 17.6275 3 14.3539 3 10.3137C3 6.27361 6.27273 3 10.3118 3C14.3508 3 17.6236 6.27361 17.6236 10.3137C17.6236 12.0297 17.033 13.6085 16.0452 14.8532L20.7522 19.5614C21.0826 19.8919 21.0826 20.4264 20.7522 20.7534C20.4217 21.0804 19.8874 21.0839 19.5605 20.7534L14.85 16.0487Z" fill="#262E30"/>
</svg>
