<svg width="16" height="16" viewBox="0 0 16 16" fill="none" xmlns="http://www.w3.org/2000/svg">
<path d="M6.55664 8.6909C7.02513 8.73831 7.39061 9.13373 7.39062 9.61472V13.4223L7.38672 13.5171C7.34242 13.9545 6.99405 14.3029 6.55664 14.3471L6.46191 14.3511H2.6543L2.55957 14.3471C2.12249 14.3027 1.77478 13.9542 1.73047 13.5171L1.72559 13.4223V9.61472C1.72561 9.13392 2.09135 8.73857 2.55957 8.6909L2.6543 8.68601H6.46191L6.55664 8.6909ZM13.4404 8.6909C13.9089 8.73836 14.2744 9.13377 14.2744 9.61472V13.4223L14.2705 13.5171C14.2262 13.9544 13.8778 14.3029 13.4404 14.3471L13.3457 14.3511H9.53809L9.44336 14.3471C9.00628 14.3027 8.65857 13.9542 8.61426 13.5171L8.60938 13.4223V9.61472C8.6094 9.13392 8.97514 8.73857 9.44336 8.6909L9.53809 8.68601H13.3457L13.4404 8.6909ZM2.6543 13.4223H6.46191V9.61472H2.6543V13.4223ZM9.53809 13.4223H13.3457V9.61472H9.53809V13.4223ZM6.55664 1.93797C7.02518 1.98535 7.39062 2.38173 7.39062 2.86277V6.67039L7.38672 6.76511C7.34233 7.20238 6.99394 7.54997 6.55664 7.59422L6.46191 7.5991H2.6543L2.55957 7.59422C2.12256 7.54973 1.77486 7.20216 1.73047 6.76511L1.72559 6.67039V2.86277C1.72559 2.38195 2.09134 1.98564 2.55957 1.93797L2.6543 1.93406H6.46191L6.55664 1.93797ZM11.3301 1.83445C11.3302 1.6917 11.4847 1.60233 11.6084 1.67332L13.0811 2.5239C13.2045 2.59548 13.2046 2.77366 13.0811 2.84519L11.6084 3.6948C11.4847 3.76611 11.3303 3.67741 11.3301 3.53465V3.12547C11.0442 3.14494 10.7677 3.23899 10.5283 3.3989C10.2579 3.57962 10.0473 3.83666 9.92285 4.13718C9.79838 4.4377 9.76564 4.76836 9.8291 5.08738C9.89259 5.40633 10.0493 5.69922 10.2793 5.92918C10.5093 6.15912 10.8021 6.31592 11.1211 6.37937C11.4401 6.44282 11.7708 6.4101 12.0713 6.28562C12.3718 6.16114 12.6289 5.95059 12.8096 5.68015C12.9903 5.4097 13.0869 5.09136 13.0869 4.76609H13.9463C13.9463 5.26132 13.7995 5.74591 13.5244 6.15769C13.2493 6.56941 12.8578 6.89002 12.4004 7.07957C11.9428 7.2691 11.4389 7.31877 10.9531 7.22215C10.4675 7.12549 10.021 6.88675 9.6709 6.5366C9.32102 6.18657 9.08299 5.74073 8.98633 5.25535C8.88972 4.76965 8.93846 4.26561 9.12793 3.80808C9.31746 3.35051 9.63898 2.95922 10.0508 2.68406C10.4315 2.42973 10.8741 2.28648 11.3301 2.26609V1.83445ZM2.6543 6.67039H6.46191V2.86277H2.6543V6.67039Z" fill="#DBDBDD"/>
</svg>
