<svg width="20" height="20" viewBox="0 0 20 20" fill="none" xmlns="http://www.w3.org/2000/svg">
<path d="M9.05699 0.390579L0.389912 9.05699C0.139939 9.30704 -0.000488281 9.64613 -0.000488281 9.9997C-0.000488281 10.3533 0.139939 10.6924 0.389912 10.9424L9.05699 19.6095C9.30704 19.8595 9.64613 19.9999 9.9997 19.9999C10.3533 19.9999 10.6924 19.8595 10.9424 19.6095L19.6095 10.9424C19.8595 10.6924 19.9999 10.3533 19.9999 9.9997C19.9999 9.64613 19.8595 9.30704 19.6095 9.05699L10.9424 0.389912C10.6924 0.139939 10.3533 -0.000488281 9.9997 -0.000488281C9.64613 -0.000488281 9.30704 0.139939 9.05699 0.389912V0.390579ZM10.225 14.3712C9.12558 14.3712 8.07115 13.9345 7.29371 13.157C6.51628 12.3796 6.07952 11.3252 6.07952 10.2257C6.07952 9.12625 6.51628 8.07182 7.29371 7.29438C8.07115 6.51694 9.12558 6.08018 10.225 6.08018C11.3153 6.09401 12.3562 6.53682 13.1223 7.31269C13.8884 8.08857 14.318 9.13502 14.318 10.2254C14.318 11.3157 13.8884 12.3622 13.1223 13.1381C12.3562 13.9139 11.3153 14.3568 10.225 14.3706V14.3712Z" fill="#00AE42"/>
</svg>
