<svg width="17" height="16" viewBox="0 0 17 16" fill="none" xmlns="http://www.w3.org/2000/svg">
<path d="M1.1251 0C0.503723 0 0 0.503726 0 1.1251V13.9063C0 14.5277 0.503726 15.0314 1.1251 15.0314H13.9063C14.5277 15.0314 15.0314 14.5277 15.0314 13.9063V12.6176C15.0314 12.2263 14.7143 11.9092 14.323 11.9092C13.9318 11.9092 13.6146 12.2263 13.6146 12.6176V13.6146H1.41679V1.41679H13.6146V2.3179C13.6146 2.70913 13.9318 3.02629 14.323 3.02629C14.7143 3.02629 15.0314 2.70913 15.0314 2.3179V1.1251C15.0314 0.503724 14.5277 0 13.9063 0H1.1251Z" fill="white"/>
<path d="M11.2562 3.01222C11.5329 2.73558 11.9814 2.73557 12.258 3.01222L15.966 6.72012C16.4054 7.1595 16.4054 7.87188 15.966 8.31126L12.258 12.0192C11.9814 12.2959 11.5329 12.2959 11.2562 12.0192C10.9796 11.7426 10.9796 11.294 11.2562 11.0174L14.1468 8.12687H6.53614C6.1449 8.12687 5.82774 7.80972 5.82774 7.41848C5.82774 7.02724 6.1449 6.71008 6.53614 6.71008H13.9523L11.2562 4.01405C10.9796 3.7374 10.9796 3.28887 11.2562 3.01222Z" fill="white"/>
</svg>
