<svg width="16" height="16" viewBox="0 0 16 16" fill="none" xmlns="http://www.w3.org/2000/svg">
<path d="M2.8 3.33325C2.58783 3.33325 2.38434 3.41754 2.23431 3.56757C2.08429 3.7176 2 3.92108 2 4.13325C2 4.34543 2.08429 4.54891 2.23431 4.69894C2.38434 4.84897 2.58783 4.93325 2.8 4.93325C3.01217 4.93325 3.21566 4.84897 3.36569 4.69894C3.51571 4.54891 3.6 4.34543 3.6 4.13325C3.6 3.92108 3.51571 3.7176 3.36569 3.56757C3.21566 3.41754 3.01217 3.33325 2.8 3.33325ZM5.8 3.53325C5.4675 3.53325 5.2 3.80075 5.2 4.13325C5.2 4.46575 5.4675 4.73325 5.8 4.73325H13.4C13.7325 4.73325 14 4.46575 14 4.13325C14 3.80075 13.7325 3.53325 13.4 3.53325H5.8ZM5.8 7.53325C5.4675 7.53325 5.2 7.80075 5.2 8.13325C5.2 8.46575 5.4675 8.73325 5.8 8.73325H13.4C13.7325 8.73325 14 8.46575 14 8.13325C14 7.80075 13.7325 7.53325 13.4 7.53325H5.8ZM5.8 11.5333C5.4675 11.5333 5.2 11.8008 5.2 12.1333C5.2 12.4658 5.4675 12.7333 5.8 12.7333H13.4C13.7325 12.7333 14 12.4658 14 12.1333C14 11.8008 13.7325 11.5333 13.4 11.5333H5.8ZM3.6 8.13325C3.6 7.92108 3.51571 7.7176 3.36569 7.56757C3.21566 7.41754 3.01217 7.33325 2.8 7.33325C2.58783 7.33325 2.38434 7.41754 2.23431 7.56757C2.08429 7.7176 2 7.92108 2 8.13325C2 8.34542 2.08429 8.54891 2.23431 8.69894C2.38434 8.84897 2.58783 8.93325 2.8 8.93325C3.01217 8.93325 3.21566 8.84897 3.36569 8.69894C3.51571 8.54891 3.6 8.34542 3.6 8.13325ZM2.8 11.3333C2.58783 11.3333 2.38434 11.4175 2.23431 11.5676C2.08429 11.7176 2 11.9211 2 12.1333C2 12.3454 2.08429 12.5489 2.23431 12.6989C2.38434 12.849 2.58783 12.9333 2.8 12.9333C3.01217 12.9333 3.21566 12.849 3.36569 12.6989C3.51571 12.5489 3.6 12.3454 3.6 12.1333C3.6 11.9211 3.51571 11.7176 3.36569 11.5676C3.21566 11.4175 3.01217 11.3333 2.8 11.3333Z" fill="#323A3D"/>
</svg>
