<svg width="16" height="15" viewBox="0 0 16 15" fill="none" xmlns="http://www.w3.org/2000/svg">
<path d="M2.56734 9.93292L1.99833 11.7443L1.69156 12.7231C1.62971 12.9202 1.68661 13.1313 1.84 13.2751C1.99338 13.4189 2.21851 13.4722 2.42633 13.4166L3.47281 13.1266L5.40497 12.5932C5.71174 12.5097 5.9913 12.3636 6.23127 12.1664C6.26591 12.1386 6.29807 12.1085 6.33023 12.0783L13.856 5.02521C14.3978 4.51727 14.4646 3.73566 14.0589 3.15814C14.002 3.07697 13.9327 2.99811 13.856 2.92621L12.8813 2.01007C12.2628 1.43024 11.2608 1.43024 10.6423 2.01007L3.11656 9.06549C2.85927 9.3067 2.67125 9.6059 2.56734 9.93292ZM3.70536 10.246C3.74742 10.1162 3.81669 9.99555 3.91318 9.89349C3.92802 9.87958 3.94039 9.86566 3.95523 9.85175L9.60823 4.55438L11.1421 5.99237L5.49156 11.2921C5.37528 11.4011 5.22932 11.4822 5.07099 11.5263L4.49208 11.6863L3.13635 12.0598L3.53466 10.7888L3.70536 10.246Z" fill="#262E30"/>
</svg>
