<svg width="20" height="20" viewBox="0 0 20 20" fill="none" xmlns="http://www.w3.org/2000/svg">
<path d="M5.9165 2.5C4.95036 2.5 4.1665 3.33984 4.1665 4.375V15.625C4.1665 16.6602 4.95036 17.5 5.9165 17.5H7.08317C8.04932 17.5 8.83317 16.6602 8.83317 15.625V4.375C8.83317 3.33984 8.04932 2.5 7.08317 2.5H5.9165ZM12.9165 2.5C11.9504 2.5 11.1665 3.33984 11.1665 4.375V15.625C11.1665 16.6602 11.9504 17.5 12.9165 17.5H14.0832C15.0493 17.5 15.8332 16.6602 15.8332 15.625V4.375C15.8332 3.33984 15.0493 2.5 14.0832 2.5H12.9165Z" fill="#6B6B6B"/>
</svg>
