<?xml version="1.0" standalone="no"?><!DOCTYPE svg PUBLIC "-//W3C//DTD SVG 1.1//EN" "http://www.w3.org/Graphics/SVG/1.1/DTD/svg11.dtd"><svg t="1779414861365" class="icon" viewBox="0 0 1069 1024" version="1.1" xmlns="http://www.w3.org/2000/svg" p-id="1700" xmlns:xlink="http://www.w3.org/1999/xlink" width="208.7890625" height="200"><path d="M528.564706 947.2c-30.117647 0-203.294118-49.694118-233.411765-90.352941l-66.258823-100.894118 25.6-16.564706 66.258823 99.388236c19.576471 27.105882 177.694118 76.8 209.317647 76.8 16.564706 0 30.117647-7.529412 39.152941-18.070589 9.035294-12.047059 10.541176-27.105882 6.02353-43.670588l-3.011765-3.011765c-6.023529-18.070588-9.035294-28.611765-6.023529-39.152941l1.505882-7.529412 7.529412-3.011764c12.047059-3.011765 27.105882-18.070588 28.611765-24.094118h30.117647c0 18.070588-19.576471 37.647059-37.647059 48.188235 1.505882 4.517647 3.011765 10.541176 4.517647 16.564706l1.505882 4.517647c7.529412 25.6 4.517647 51.2-10.541176 70.776471-13.552941 18.070588-37.647059 30.117647-63.247059 30.117647z" fill="#2A5082" p-id="1701"></path><path d="M325.165176 966.234353l20.630589-89.524706 29.349647 6.776471-20.630588 89.509647z" fill="#2A5082" p-id="1702"></path><path d="M594.823529 51.2c-69.270588 0-134.023529 21.082353-188.235294 58.729412 13.552941 4.517647 25.6 9.035294 36.141177 13.552941 138.541176 57.223529 183.717647 198.776471 182.211764 274.070588v120.470588c24.094118 33.129412 66.258824 87.341176 66.258824 108.42353 0 31.623529-37.647059 34.635294-64.752941 37.647059 4.517647 21.082353 16.564706 34.635294 22.588235 45.17647 158.117647-25.6 278.588235-162.635294 278.588235-326.77647-1.505882-183.717647-149.082353-331.294118-332.8-331.294118z" fill="#E9EAEB" p-id="1703"></path><path d="M678.008471 354.138353L949.157647 188.476235l15.706353 25.705412-271.134118 165.662118z" fill="#BCC0C4" p-id="1704"></path><path d="M986.352941 171.670588h30.117647v542.117647h-30.117647z" fill="#2A5082" p-id="1705"></path><path d="M691.049412 514.665412l17.618823-24.440471 255.427765 183.898353-17.603765 24.440471z" fill="#BCC0C4" p-id="1706"></path><path d="M515.011765 757.458824v-30.117648c40.658824 0 94.870588-7.529412 117.458823-15.058823v-1.505882c-7.529412-9.035294-16.564706-24.094118-21.082353-45.176471l-3.011764-15.058824 22.588235-3.011764c31.623529-4.517647 45.176471-9.035294 45.17647-22.588236 0-15.058824-39.152941-67.764706-57.223529-91.858823l-9.035294-12.047059v-124.988235c1.505882-75.294118-43.670588-206.305882-173.176471-260.517647-66.258824-27.105882-128-40.658824-188.235294-40.658824v-30.117647c64.752941 0 129.505882 13.552941 200.282353 43.670588 143.058824 58.729412 192.752941 204.8 191.247059 287.62353V512l3.011765 3.011765c36.141176 48.188235 63.247059 87.341176 63.247059 109.929411 0 36.141176-34.635294 46.682353-60.235295 49.694118 3.011765 6.023529 7.529412 12.047059 10.541177 18.070588 6.023529 9.035294 15.058824 21.082353 7.529412 33.129412-13.552941 25.6-134.023529 31.623529-149.082353 31.62353z" fill="#2A5082" p-id="1707"></path><path d="M670.117647 397.552941h-496.941176v75.294118h256c21.082353 30.117647 66.258824 75.294118 135.529411 75.294117 57.223529 0 105.411765-78.305882 105.411765-105.411764v-45.176471z" fill="#A3D4FF" p-id="1708"></path><path d="M564.705882 563.2c-72.282353 0-118.964706-45.176471-143.058823-75.294118H158.117647v-30.117647H436.705882l4.517647 6.02353c18.070588 25.6 58.729412 69.270588 123.482353 69.270588 48.188235 0 90.352941-69.270588 90.352942-90.352941v-12.047059-18.070588H183.717647c-70.776471 0-100.894118 28.611765-100.894118 96.37647v39.152941h-30.117647v-39.152941c0-84.329412 43.670588-126.494118 131.011765-126.494117h501.458824v60.235294c0 33.129412-52.705882 120.470588-120.470589 120.470588z" fill="#2A5082" p-id="1709"></path></svg>