<?xml version="1.0" standalone="no"?><!DOCTYPE svg PUBLIC "-//W3C//DTD SVG 1.1//EN" "http://www.w3.org/Graphics/SVG/1.1/DTD/svg11.dtd"><svg t="1779427305314" class="icon" viewBox="0 0 1024 1024" version="1.1" xmlns="http://www.w3.org/2000/svg" p-id="7124" xmlns:xlink="http://www.w3.org/1999/xlink" width="200" height="200"><path d="M951.8 956.1H73.1C33 956.1 0.4 923.6 0.4 883.4V261.1h1024v622.3c0.1 40.2-32.4 72.7-72.6 72.7z" fill="#24C891" p-id="7125"></path><path d="M626.3 77H73.7C33.5 77 1 109.5 1 149.7V262h698V149.7c0-40.2-32.5-72.7-72.7-72.7z" fill="#11A572" p-id="7126"></path><path d="M113 167m-41 0a41 41 0 1 0 82 0 41 41 0 1 0-82 0Z" fill="#B8EADA" p-id="7127"></path><path d="M358 166m-41 0a41 41 0 1 0 82 0 41 41 0 1 0-82 0Z" fill="#B8EADA" p-id="7128"></path><path d="M235.5 167m-41 0a41 41 0 1 0 82 0 41 41 0 1 0-82 0Z" fill="#24C891" p-id="7129"></path><path d="M475.6 656.9H352.3c-12 0-21.8-9.7-21.8-21.8V446.2c0-12 9.7-21.8 21.8-21.8h123.3c12 0 21.8 9.7 21.8 21.8v188.9c-0.1 12-9.8 21.8-21.8 21.8zM475.6 792.9H352.3c-12 0-21.8-9.7-21.8-21.8v-60.4c0-12 9.7-21.8 21.8-21.8h123.3c12 0 21.8 9.7 21.8 21.8v60.4c-0.1 12-9.8 21.8-21.8 21.8zM672.7 792.9H549.4c-12 0-21.8-9.7-21.8-21.8V647.8c0-12 9.7-21.8 21.8-21.8h123.3c12 0 21.8 9.7 21.8 21.8v123.3c-0.1 12-9.8 21.8-21.8 21.8zM672.7 591.7H549.4c-12 0-21.8-9.7-21.8-21.8V446.6c0-12 9.7-21.8 21.8-21.8h123.3c12 0 21.8 9.7 21.8 21.8v123.3c-0.1 12-9.8 21.8-21.8 21.8z" fill="#B8EADA" p-id="7130"></path></svg>