<?xml version="1.0" standalone="no"?><!DOCTYPE svg PUBLIC "-//W3C//DTD SVG 1.1//EN" "http://www.w3.org/Graphics/SVG/1.1/DTD/svg11.dtd"><svg t="1779866516374" class="icon" viewBox="0 0 1024 1024" version="1.1" xmlns="http://www.w3.org/2000/svg" p-id="5095" xmlns:xlink="http://www.w3.org/1999/xlink" width="200" height="200"><path d="M967.68 0H56.32C25.6 0 0 25.6 0 56.32v911.36c0 30.72 25.6 56.32 56.32 56.32h911.36c30.72 0 56.32-25.6 56.32-56.32V56.32c0-30.72-25.6-56.32-56.32-56.32zM220.16 204.8h512c35.84 0 66.56 30.72 66.56 66.56s-30.72 66.56-66.56 66.56h-512C184.32 332.8 153.6 302.08 153.6 271.36S184.32 204.8 220.16 204.8z m51.2 384h-51.2c-35.84 0-66.56-30.72-66.56-66.56S184.32 460.8 220.16 460.8h51.2c35.84 0 66.56 30.72 66.56 66.56s-35.84 61.44-66.56 61.44z m640 158.72l-30.72 30.72-138.24 138.24c-25.6 25.6-66.56 25.6-92.16 0s-25.6-66.56 0-92.16l71.68-71.68h-256c-35.84 0-66.56-30.72-66.56-66.56s30.72-66.56 66.56-66.56h261.12l-71.68-71.68c-25.6-25.6-25.6-66.56 0-92.16s66.56-25.6 92.16 0l138.24 138.24 25.6 25.6h5.12v5.12c30.72 30.72 30.72 87.04-5.12 122.88z" p-id="5096"></path></svg>