<svg width="16" height="16" viewBox="0 0 16 16" fill="none" xmlns="http://www.w3.org/2000/svg">
<path d="M14.6803 13.25C15.0945 13.25 15.4303 13.5858 15.4303 14C15.4303 14.4142 15.0945 14.75 14.6803 14.75H2.68034C2.2662 14.7499 1.93034 14.4142 1.93034 14C1.93034 13.5858 2.2662 13.2501 2.68034 13.25H14.6803ZM14.6667 9.25C15.0807 9.25021 15.4167 9.58591 15.4167 10C15.4167 10.4141 15.0807 10.7498 14.6667 10.75H10.6667C10.2525 10.75 9.91666 10.4142 9.91666 10C9.91667 9.58579 10.2525 9.25 10.6667 9.25H14.6667ZM4.24186 6.01172C4.43769 5.69838 4.89466 5.69838 5.09049 6.01172L7.52116 9.90137C7.7293 10.2344 7.49005 10.667 7.09733 10.667H2.23502C1.84233 10.667 1.60306 10.2344 1.8112 9.90137L4.24186 6.01172ZM14.6667 5.25C15.0807 5.25023 15.4167 5.58593 15.4167 6C15.4167 6.41407 15.0807 6.74977 14.6667 6.75H9.33366C8.91944 6.75 8.58366 6.41421 8.58366 6C8.58366 5.58579 8.91944 5.25 9.33366 5.25H14.6667ZM14.6803 1.25C15.0945 1.25 15.4303 1.58579 15.4303 2C15.4303 2.41421 15.0945 2.75 14.6803 2.75H2.68034C2.2662 2.74991 1.93034 2.41416 1.93034 2C1.93034 1.58584 2.2662 1.25009 2.68034 1.25H14.6803Z" fill="#909090"/>
</svg>
