<svg width="24" height="24" viewBox="0 0 24 24" fill="none" xmlns="http://www.w3.org/2000/svg">
<rect width="24" height="24" rx="4" fill="white"/>
<path d="M17.2744 6.51831C17.2744 6.24217 17.0506 6.01831 16.7744 6.01831L12.2744 6.01831C11.9983 6.01831 11.7744 6.24217 11.7744 6.51831C11.7744 6.79445 11.9983 7.01831 12.2744 7.01831L16.2744 7.01831L16.2744 11.0183C16.2744 11.2945 16.4983 11.5183 16.7744 11.5183C17.0506 11.5183 17.2744 11.2945 17.2744 11.0183L17.2744 6.51831ZM5.48051 17.1051C5.28524 17.3004 5.28524 17.617 5.48051 17.8122C5.67577 18.0075 5.99235 18.0075 6.18761 17.8122L5.83406 17.4587L5.48051 17.1051ZM16.7744 6.51831L16.4209 6.16476L5.48051 17.1051L5.83406 17.4587L6.18761 17.8122L17.128 6.87186L16.7744 6.51831Z" fill="#262E30"/>
</svg>
