<svg width="16" height="16" viewBox="0 0 16 16" fill="none" xmlns="http://www.w3.org/2000/svg">
<path d="M1.64551 10.7329C1.89088 10.7329 2.09067 10.9319 2.09082 11.1772V13.4653C2.09082 13.7108 2.2897 13.9106 2.53516 13.9106H4.82324C5.06858 13.9108 5.26758 14.1096 5.26758 14.355C5.26737 14.6002 5.06845 14.7992 4.82324 14.7993H2.53516C1.79878 14.7993 1.20117 14.2017 1.20117 13.4653V11.1772C1.20132 10.932 1.40031 10.7331 1.64551 10.7329ZM14.3555 10.7329C14.6007 10.7331 14.7997 10.932 14.7998 11.1772V13.4653C14.7998 14.2017 14.2022 14.7993 13.4658 14.7993H11.1777C10.9325 14.7992 10.7336 14.6002 10.7334 14.355C10.7334 14.1096 10.9324 13.9108 11.1777 13.9106H13.4658C13.7113 13.9106 13.9111 13.7108 13.9111 13.4653V11.1772C13.9113 10.9319 14.1101 10.7329 14.3555 10.7329ZM8.07324 7.71729H12.6807V8.42822H8.07324V12.6802H7.3623V8.42822H3.32031V7.71729H7.3623V3.31982H8.07324V7.71729ZM4.78516 8.97607C5.08528 9.88206 5.79224 10.604 6.68945 10.9233L6.45117 11.5933C5.34771 11.2006 4.4786 10.3142 4.10938 9.19971L4.78516 8.97607ZM11.3486 9.19971C10.996 10.264 10.1881 11.1197 9.15527 11.5366L8.88965 10.8784C9.72982 10.5392 10.3882 9.84118 10.6748 8.97607L11.3486 9.19971ZM6.44336 5.17725C5.66374 5.53317 5.05724 6.20294 4.78516 7.02393L4.10938 6.80029C4.44414 5.78969 5.19018 4.96719 6.14844 4.52979L6.44336 5.17725ZM9.15625 4.46338C10.1887 4.8804 10.9971 5.73621 11.3496 6.80029L10.6748 7.02393C10.3883 6.15927 9.73026 5.46282 8.89062 5.12354L9.15625 4.46338ZM4.82324 1.20068C5.06845 1.20083 5.26737 1.39982 5.26758 1.64502C5.26758 1.89039 5.06858 2.09019 4.82324 2.09033H2.53516C2.2897 2.09033 2.09082 2.28921 2.09082 2.53467V4.82275C2.09067 5.06809 1.89088 5.26709 1.64551 5.26709C1.40031 5.26688 1.20132 5.06796 1.20117 4.82275V2.53467C1.20117 1.79829 1.79878 1.20068 2.53516 1.20068H4.82324ZM13.4658 1.20068C14.2022 1.20068 14.7998 1.79829 14.7998 2.53467V4.82275C14.7997 5.06796 14.6007 5.26688 14.3555 5.26709C14.1101 5.26709 13.9113 5.06809 13.9111 4.82275V2.53467C13.9111 2.28921 13.7113 2.09033 13.4658 2.09033H11.1777C10.9324 2.09019 10.7334 1.89039 10.7334 1.64502C10.7336 1.39982 10.9325 1.20083 11.1777 1.20068H13.4658Z" fill="#DBDBDD"/>
</svg>
