<svg width="24" height="24" viewBox="0 0 24 24" fill="none" xmlns="http://www.w3.org/2000/svg">
<g clip-path="url(#clip0_1935_10729)">
<path d="M11.9141 1.09424H14.2475L23.0691 9.91589V12.2492L16.8997 12.249L14.1434 14.8086L14.765 16.3602L12.8965 17.1083L12.5633 16.276L11.3435 17.409L12.0243 19.111L10.1555 19.8585L9.76307 18.8767L8.5386 20.0138L9.27374 21.8517L7.40528 22.5992L6.95822 21.4817L5.07394 23.2317H0.931641V19.0894L4.47508 15.2737L3.74454 13.4473L5.613 12.6997L5.9902 13.6425L7.16378 12.3786L6.49477 10.7062L8.36351 9.95872L8.67862 10.7473L9.84615 9.4901L9.23579 7.96578L11.1043 7.2177L11.361 7.85911L11.9141 7.26341V1.09424ZM5.30193 17.3409L2.94414 19.8795V21.2192H4.28332L6.15695 19.479L5.30193 17.3409ZM7.99063 14.4457L6.81705 15.7096L7.73763 18.0113L8.9618 16.8743L7.99063 14.4457ZM10.6736 11.5567L9.50547 12.8145L10.5425 15.4066L11.7618 14.2741L10.6736 11.5567ZM13.9266 3.61935V8.05404L12.1884 9.92566L13.3419 12.8064L16.1093 10.2367L20.5437 10.2365L17.9468 7.63946L17.2832 8.3033L15.8601 6.88018L16.5236 6.21634L13.9266 3.61935Z" fill="#DBDBDD"/>
</g>
<defs>
<clipPath id="clip0_1935_10729">
<rect width="24" height="24" fill="white"/>
</clipPath>
</defs>
</svg>
