<svg width="24" height="24" viewBox="0 0 24 24" fill="none" xmlns="http://www.w3.org/2000/svg">
<rect width="24" height="24" rx="4" fill="#2D2C31"/>
<path d="M16.3233 6.46982L16.3934 6.92697L16.3934 6.92696L16.3233 6.46982ZM17.5296 7.67618L17.9868 7.74635L17.9868 7.74633L17.5296 7.67618ZM16.7348 12.8545L16.2777 12.7843L16.2777 12.7843L16.7348 12.8545ZM16.384 13.4939L16.0824 13.1434L16.0692 13.1547L16.057 13.1669L16.384 13.4939ZM10.4544 19.4235L10.7814 19.7506L10.7814 19.7506L10.4544 19.4235ZM4.57866 15.0435L4.25161 15.3705L4.25163 15.3705L4.57866 15.0435ZM4.57866 13.5478L4.25163 13.2208L4.25158 13.2208L4.57866 13.5478ZM10.4848 7.64166L10.8118 7.96869L10.8293 7.95123L10.8448 7.93201L10.4848 7.64166ZM11.1443 7.26394L11.0742 6.80679L11.0741 6.8068L11.1443 7.26394ZM15.2667 8.94331L15.5938 8.61628L15.5937 8.61622L15.2667 8.94331ZM13.7234 8.94401L13.3964 8.61697L13.3962 8.6171L13.7234 8.94401ZM13.7234 10.4867L13.3963 10.8136L13.3964 10.8137L13.7234 10.4867ZM15.2667 10.4873L15.5936 10.8145L15.5938 10.8144L15.2667 10.4873ZM16.3233 6.46982L16.3934 6.92696C16.7908 6.86597 17.1335 7.20859 17.0725 7.60604L17.5296 7.67618L17.9868 7.74633C18.1425 6.73145 17.268 5.85695 16.2531 6.01268L16.3233 6.46982ZM17.5296 7.67618L17.0725 7.60602L16.2777 12.7843L16.7348 12.8545L17.192 12.9247L17.9868 7.74635L17.5296 7.67618ZM16.7348 12.8545L16.2777 12.7843C16.2539 12.9393 16.1805 13.0589 16.0824 13.1434L16.384 13.4939L16.6857 13.8445C16.9454 13.621 17.1336 13.3049 17.192 12.9247L16.7348 12.8545ZM16.384 13.4939L16.057 13.1669L10.1274 19.0965L10.4544 19.4235L10.7814 19.7506L16.7111 13.821L16.384 13.4939ZM10.4544 19.4235L10.1274 19.0965C9.89523 19.3286 9.51789 19.3287 9.28505 19.0958L8.95802 19.4229L8.63099 19.7499C9.22436 20.3433 10.1873 20.3446 10.7814 19.7506L10.4544 19.4235ZM8.95802 19.4229L9.28505 19.0958L4.90569 14.7165L4.57866 15.0435L4.25163 15.3705L8.63099 19.7499L8.95802 19.4229ZM4.57866 15.0435L4.9057 14.7165C4.67326 14.484 4.67324 14.1073 4.90573 13.8748L4.57866 13.5478L4.25158 13.2208C3.65803 13.8145 3.65793 14.7768 4.25161 15.3705L4.57866 15.0435ZM4.57866 13.5478L4.90569 13.8748L10.8118 7.96869L10.4848 7.64166L10.1578 7.31463L4.25163 13.2208L4.57866 13.5478ZM10.4848 7.64166L10.8448 7.93201C10.9315 7.82455 11.0546 7.74561 11.2144 7.72107L11.1443 7.26394L11.0741 6.8068C10.6734 6.86832 10.348 7.07461 10.1248 7.35131L10.4848 7.64166ZM11.1443 7.26394L11.2143 7.72108L16.3934 6.92697L16.3233 6.46982L16.2532 6.01267L11.0742 6.80679L11.1443 7.26394ZM15.2667 8.94331L15.5937 8.61622C14.9865 8.00927 14.0029 8.01046 13.3964 8.61697L13.7234 8.94401L14.0504 9.27104C14.2963 9.02512 14.6944 9.02514 14.9398 9.27041L15.2667 8.94331ZM13.7234 8.94401L13.3962 8.6171C12.7899 9.22387 12.7897 10.2068 13.3963 10.8136L13.7234 10.4867L14.0505 10.1597C13.8051 9.91417 13.805 9.51662 14.0506 9.27091L13.7234 8.94401ZM13.7234 10.4867L13.3964 10.8137C14.0029 11.4202 14.9865 11.4212 15.5936 10.8145L15.2667 10.4873L14.9398 10.1602C14.6944 10.4055 14.2962 10.4054 14.0504 10.1596L13.7234 10.4867ZM15.2667 10.4873L15.5938 10.8144C16.2007 10.2075 16.2007 9.22317 15.5938 8.61628L15.2667 8.94331L14.9397 9.27034C15.1854 9.516 15.1854 9.91466 14.9397 10.1603L15.2667 10.4873Z" fill="#DBDBDD"/>
</svg>
