<svg width="24" height="24" viewBox="0 0 24 24" fill="none" xmlns="http://www.w3.org/2000/svg">
<rect width="24" height="24" rx="4" fill="#2D2C31"/>
<path d="M17.2744 6.51855C17.2744 6.24241 17.0506 6.01855 16.7744 6.01855L12.2744 6.01855C11.9983 6.01855 11.7744 6.24241 11.7744 6.51855C11.7744 6.7947 11.9983 7.01855 12.2744 7.01855L16.2744 7.01855L16.2744 11.0186C16.2744 11.2947 16.4983 11.5186 16.7744 11.5186C17.0506 11.5186 17.2744 11.2947 17.2744 11.0186L17.2744 6.51855ZM5.48051 17.1054C5.28524 17.3006 5.28524 17.6172 5.48051 17.8125C5.67577 18.0077 5.99235 18.0077 6.18761 17.8125L5.83406 17.4589L5.48051 17.1054ZM16.7744 6.51855L16.4209 6.165L5.48051 17.1054L5.83406 17.4589L6.18761 17.8125L17.128 6.87211L16.7744 6.51855Z" fill="#DBDBDD"/>
</svg>
