<?xml version="1.0" standalone="no"?><!DOCTYPE svg PUBLIC "-//W3C//DTD SVG 1.1//EN" "http://www.w3.org/Graphics/SVG/1.1/DTD/svg11.dtd"><svg t="1779427274197" class="icon" viewBox="0 0 1024 1024" version="1.1" xmlns="http://www.w3.org/2000/svg" p-id="5950" xmlns:xlink="http://www.w3.org/1999/xlink" width="200" height="200"><path d="M934.94 448.58l-51.63-5.02c-8.23-0.8-15.35-6.12-18.38-13.8-0.03-0.08-0.07-0.17-0.1-0.25-2.95-7.47-1.64-15.95 3.47-22.15l35.25-42.79c7.22-8.76 6.6-21.57-1.44-29.6l-74.52-74.42c-8.04-8.03-20.86-8.65-29.64-1.44l-40.07 32.92c-6.39 5.25-15.2 6.52-22.79 3.21-0.08-0.04-0.16-0.07-0.24-0.11-7.37-3.2-12.43-10.12-13.21-18.1l-5.37-55.15c-1.1-11.3-10.61-19.91-21.97-19.91H588.9c-11.36 0-20.87 8.62-21.97 19.91l-5.02 51.56c-0.8 8.22-6.12 15.33-13.82 18.35-0.08 0.03-0.17 0.07-0.25 0.1-7.48 2.95-15.97 1.64-22.18-3.46l-42.85-35.2c-8.78-7.21-21.6-6.59-29.64 1.44l-74.52 74.42c-8.04 8.03-8.66 20.83-1.44 29.6l32.96 40.01c5.26 6.38 6.53 15.18 3.21 22.76-0.04 0.08-0.07 0.16-0.11 0.24-3.21 7.36-10.13 12.42-18.13 13.19l-29.69 2.88-0.34-3.48a33.472 33.472 0 0 0-10.86-21.59 33.552 33.552 0 0 0-22.57-8.7h-68.52c-8.36 0-16.38 3.09-22.57 8.7a33.472 33.472 0 0 0-10.86 21.59l-2.4 24.59-20.92-17.19a33.57 33.57 0 0 0-22.97-7.6c-8.35 0.4-16.21 3.88-22.12 9.79l-48.45 48.38a33.503 33.503 0 0 0-9.8 22.09c-0.41 8.34 2.3 16.49 7.61 22.94l15.72 19.08-26.96 2.62c-8.32 0.81-16 4.66-21.62 10.85a33.466 33.466 0 0 0-8.72 22.54v68.42c0 8.35 3.1 16.36 8.72 22.54a33.578 33.578 0 0 0 21.62 10.85l24.62 2.39-17.21 20.89a33.452 33.452 0 0 0-7.61 22.94c0.41 8.34 3.89 16.19 9.8 22.09l48.45 48.38a33.544 33.544 0 0 0 22.12 9.79c8.35 0.4 16.51-2.29 22.97-7.6l19.11-15.7 2.62 26.92c0.81 8.31 4.67 15.98 10.86 21.59 6.19 5.61 14.21 8.7 22.57 8.7h68.52c8.36 0 16.38-3.09 22.57-8.7a33.472 33.472 0 0 0 10.86-21.59l2.4-24.59 20.92 17.19c6.46 5.31 14.62 8 22.97 7.6 8.35-0.4 16.21-3.88 22.12-9.79l31.2-31.16c6.08 0.99 12.51-0.54 17.6-4.71l40.07-32.92c6.39-5.25 15.2-6.52 22.79-3.21 0.08 0.04 0.16 0.07 0.24 0.11 7.37 3.2 12.43 10.12 13.21 18.1l5.37 55.15c1.1 11.3 10.61 19.91 21.97 19.91h105.39c11.36 0 20.87-8.62 21.97-19.91l5.02-51.56c0.8-8.22 6.12-15.33 13.82-18.35 0.08-0.03 0.17-0.07 0.25-0.1 7.48-2.95 15.97-1.64 22.18 3.46l42.85 35.2c8.78 7.21 21.6 6.59 29.64-1.44l74.52-74.42c8.04-8.03 8.66-20.83 1.44-29.6l-32.96-40.01c-5.26-6.38-6.53-15.18-3.21-22.76 0.04-0.08 0.07-0.16 0.11-0.24 3.21-7.36 10.13-12.42 18.12-13.19l55.23-5.37c11.31-1.1 19.94-10.59 19.94-21.94V470.53c0.02-11.35-8.61-20.85-19.92-21.95zM347.25 629.32c0 28.92-23.56 52.45-52.52 52.45s-52.52-23.53-52.52-52.45 23.56-52.45 52.52-52.45 52.52 23.53 52.52 52.45z m30.98-36.2l13.33 1.3c8.23 0.8 15.35 6.12 18.38 13.8 0.03 0.08 0.07 0.17 0.1 0.25 2.95 7.47 1.64 15.95-3.47 22.15l-27.88 33.84c4.61-10.98 7.03-22.87 7.03-35.14a90.48 90.48 0 0 0-7.49-36.2z m25.82 191.31l-24.43-20.07c-9.42-7.74-22.33-9.76-33.72-5.28l-0.12 0.05c-11.78 4.63-19.87 15.34-21.1 27.95l-2.84 29.11H262.2l-3.06-31.45c-1.18-12.11-8.87-22.66-20.08-27.53l-0.12-0.05c-11.62-5.06-24.92-3.2-34.73 4.86l-22.62 18.59-42.18-42.12 20.1-24.4c7.75-9.41 9.78-22.3 5.31-33.62l-0.07-0.17c-4.63-11.77-15.36-19.84-27.99-21.07l-29.15-2.83v-59.57l31.49-3.06c12.13-1.18 22.69-8.85 27.55-20l0.07-0.17c5.07-11.6 3.21-24.89-4.86-34.69l-18.61-22.59 42.18-42.12 24.43 20.07a33.607 33.607 0 0 0 21.35 7.63c4.16 0 8.35-0.77 12.35-2.34l0.14-0.06c11.78-4.63 19.87-15.34 21.1-27.95l2.84-29.11h59.65l0.31 3.17c-4.66 4.06-7.58 10.01-7.58 16.61V542a91.372 91.372 0 0 0-25.26-3.55c-24.31 0-47.16 9.45-64.35 26.62-17.19 17.16-26.65 39.98-26.65 64.26 0 24.27 9.47 47.09 26.65 64.26 17.19 17.16 40.04 26.62 64.35 26.62s47.16-9.45 64.35-26.62a92.62 92.62 0 0 0 7.34-8.31c-0.62 6.36 1.51 12.91 6.34 17.74l56.42 56.34-25.16 25.07z m233.38-155.21c-60.96 0-110.38-49.35-110.38-110.23s49.42-110.23 110.38-110.23c60.96 0 110.38 49.35 110.38 110.23S698.4 629.22 637.43 629.22z" fill="#388BEA" p-id="5951"></path></svg>