<svg width="12" height="12" viewBox="0 0 12 12" fill="none" xmlns="http://www.w3.org/2000/svg">
<g clip-path="url(#clip0_1735_5286)">
<path d="M0.279149 9.6839L0.758316 7.9611C0.845816 7.65007 1.00415 7.36552 1.22082 7.1361L7.55623 0.42581C8.07707 -0.125661 8.92082 -0.125661 9.44165 0.42581L10.2625 1.29493C10.3271 1.36331 10.3854 1.43831 10.4333 1.51552C10.775 2.06257 10.7187 2.80816 10.2625 3.29125L3.92707 10.0015C3.89998 10.0302 3.8729 10.0589 3.84373 10.0854C3.64373 10.2729 3.40623 10.4118 3.1479 10.4913L1.52082 10.9986L0.641649 11.2721C0.466649 11.3273 0.277066 11.2765 0.147899 11.1376C0.0187326 10.9986 -0.0312674 10.8023 0.0208159 10.6148L0.279149 9.6839ZM1.57498 8.77507L1.23748 9.9839L2.37915 9.62875L2.86665 9.47655C2.99998 9.43463 3.1229 9.35743 3.22082 9.25375L7.97915 4.21331L6.68748 2.84566L1.92707 7.8839C1.91457 7.89713 1.90207 7.91037 1.89165 7.9236C1.8104 8.02066 1.75207 8.13537 1.71665 8.2589L1.5729 8.77507H1.57498ZM5.16665 10.2354H11.5C11.7771 10.2354 12 10.4714 12 10.7648C12 11.0582 11.7771 11.2942 11.5 11.2942H5.16665C4.88957 11.2942 4.66665 11.0582 4.66665 10.7648C4.66665 10.4714 4.88957 10.2354 5.16665 10.2354Z" fill="#00AE42"/>
</g>
<defs>
<clipPath id="clip0_1735_5286">
<rect width="12" height="11.2941" fill="white"/>
</clipPath>
</defs>
</svg>
