<svg width="24" height="24" viewBox="0 0 24 24" fill="none" xmlns="http://www.w3.org/2000/svg">
<path d="M3.59033 9.59353L5.02844 8.07471H9.04427V8.80698H10.7809V10.869L9.4789 12.3887H9.04427L9.36988 12.8352L9.4789 12.9039H10.7809V15.2101L9.36988 16.6209H7.76897L7.60617 17.2178H3.59033V9.59353Z" fill="#248D00"/>
<path d="M9.43359 12.4969V10.1363L10.7534 8.91504V11.0589C10.0802 11.7135 10.1068 11.8423 9.43359 12.4969Z" fill="#144D00"/>
<path d="M9.48145 16.5179V14.1573L10.8013 12.936V15.0799C10.1281 15.7345 10.1547 15.8633 9.48145 16.5179Z" fill="#144D00"/>
<path d="M3.64795 17.1995H7.70204L7.69496 16.6128H9.4268L9.42681 14.4112H7.70203L7.69496 12.3743H9.42681L9.43387 10.1771H7.70203L7.70203 9.50586H3.64795L3.64795 17.1995Z" fill="#1B6A00"/>
<path d="M3.64795 17.1997H7.70204L7.69496 16.613H9.4268L9.42681 14.4114H7.70203L7.69496 12.3746H9.42681L9.43387 10.1774H7.70203L7.70203 9.5061H3.64795L3.64795 17.1997Z" stroke="#ACFF91" stroke-width="0.3" stroke-miterlimit="10" stroke-linejoin="round"/>
<path d="M7.66748 9.61085L8.98157 8.18213" stroke="#ACFF91" stroke-width="0.3" stroke-miterlimit="10" stroke-linejoin="round"/>
<path d="M9.35254 10.2576L10.6915 8.87646" stroke="#ACFF91" stroke-width="0.3" stroke-miterlimit="10" stroke-linejoin="round"/>
<path d="M9.35254 14.4619L10.7182 12.936" stroke="#ACFF91" stroke-width="0.3" stroke-miterlimit="10" stroke-linejoin="round"/>
<path d="M5.01511 8.09595H9.0692L9.06921 8.7672H10.8011L10.794 10.9644L9.49779 12.5016H9.04751V12.9087H10.8011L10.794 15.1826L9.3022 16.6755H7.70647V17.2301H3.58984L3.62434 9.52291L5.01511 8.09595Z" stroke="#50E81D" stroke-width="0.48" stroke-miterlimit="10" stroke-linejoin="round"/>
<path d="M10.0733 7.72125V5.64296L12.0673 4.09399H20.3598V17.8618L18.3479 19.4164H10.0732L10.0733 17.3381H13.2313V16.1699H15.0911V13.836H13.2313V12.9463V11.2679H15.0911V8.87797H13.2313V7.72125H10.0733Z" fill="#D8D8D8"/>
<path d="M18.4546 5.39175L20.3771 3.86353V17.987L18.4546 19.4165V5.39175Z" fill="url(#paint0_linear_1033_4526)"/>
<path d="M10.0732 7.7216V5.64331H18.3479V9.56979L18.3479 18.4499V19.7183H10.0732V17.3385H12.8146V16.1702H14.6745V13.8363H12.8146V12.9467V11.2683H14.6745V8.87833H12.8146V7.7216H10.0732Z" fill="url(#paint1_linear_1033_4526)"/>
<path d="M10.0693 5.62134H18.412V13.5717V19.6834" stroke="#333333" stroke-width="0.3" stroke-miterlimit="10" stroke-linejoin="round"/>
<path d="M18.4546 5.63156L20.2509 4.1687" stroke="#333333" stroke-width="0.3" stroke-miterlimit="10" stroke-linejoin="round"/>
<path d="M10.0732 7.72138L10.1232 5.41249L12.1172 3.86353H20.4097L20.3598 18.2286L18.3479 19.7832H10.0732V17.3383H12.8146V16.17H14.6745V13.8361H12.8146V12.9465V11.2681H14.6745V8.87811H12.8146V7.72138H10.0732Z" stroke="#333333" stroke-width="0.48" stroke-miterlimit="10" stroke-linejoin="round"/>
<defs>
<linearGradient id="paint0_linear_1033_4526" x1="19.4158" y1="3.86353" x2="19.4158" y2="19.4165" gradientUnits="userSpaceOnUse">
<stop stop-color="#9C9C9C"/>
<stop offset="1" stop-color="#5F5F5F"/>
</linearGradient>
<linearGradient id="paint1_linear_1033_4526" x1="13.7939" y1="5.64331" x2="13.7939" y2="19.7183" gradientUnits="userSpaceOnUse">
<stop stop-color="#C6C6C6"/>
<stop offset="1" stop-color="#818181"/>
</linearGradient>
</defs>
</svg>
