<svg width="14" height="14" viewBox="0 0 14 14" fill="none" xmlns="http://www.w3.org/2000/svg">
<g clip-path="url(#clip0_4126_11009)">
<path d="M6.66792 0C7.11066 0 7.54299 0.0442747 7.9649 0.125011C8.17065 0.164077 8.53266 0.283879 8.7306 0.648495C8.78269 0.744857 8.82436 0.846429 8.8504 0.955813L9.09261 1.95851C9.12907 2.10956 9.3843 2.25801 9.53275 2.21374L10.5224 1.92204C10.6266 1.89079 10.7334 1.87517 10.8402 1.87256C11.2595 1.85954 11.5433 2.11737 11.6814 2.27364C12.2569 2.92734 12.6997 3.69564 12.981 4.52123C13.0487 4.71917 13.1268 5.08899 12.9107 5.44319C12.8534 5.53695 12.783 5.6255 12.7023 5.70363L11.9548 6.41463C11.8455 6.5188 11.8455 6.81831 11.9548 6.92248L12.7023 7.63348C12.783 7.71162 12.8534 7.80017 12.9107 7.89392C13.1242 8.24812 13.0461 8.61795 12.981 8.81588C12.6997 9.64147 12.2569 10.4072 11.6814 11.0635C11.5433 11.2197 11.2569 11.4776 10.8402 11.4646C10.7334 11.4619 10.6266 11.4437 10.5224 11.4151L9.53275 11.1208C9.3843 11.0765 9.12907 11.2249 9.09261 11.376L8.8504 12.3787C8.82436 12.4881 8.78269 12.5923 8.7306 12.686C8.53006 13.0506 8.16805 13.1678 7.9649 13.2095C7.54299 13.2902 7.11066 13.3345 6.66792 13.3345C6.22517 13.3345 5.79284 13.2902 5.37093 13.2095C5.16518 13.1704 4.80317 13.0506 4.60523 12.686C4.55315 12.5897 4.51148 12.4881 4.48543 12.3787L4.24322 11.376C4.20676 11.2249 3.95153 11.0765 3.80308 11.1208L2.81341 11.4125C2.70923 11.4437 2.60245 11.4593 2.49567 11.4619C2.07637 11.475 1.79249 11.2171 1.65445 11.0609C1.08149 10.4072 0.636135 9.63887 0.35486 8.81328C0.287146 8.61534 0.209014 8.24552 0.425179 7.89132C0.482475 7.79756 0.552794 7.70901 0.63353 7.63088L1.38099 6.91988C1.49038 6.8157 1.49038 6.5162 1.38099 6.41202L0.630926 5.70102C0.55019 5.62289 0.479871 5.53434 0.422574 5.44058C0.209014 5.08639 0.287146 4.71656 0.35486 4.52123C0.636135 3.69564 1.07888 2.92995 1.65445 2.27364C1.79249 2.11737 2.07897 1.85954 2.49567 1.87256C2.60245 1.87517 2.70923 1.8934 2.81341 1.92204L3.80308 2.21374C3.95153 2.25801 4.20676 2.10956 4.24322 1.95851L4.48543 0.955813C4.51148 0.846429 4.55315 0.742253 4.60523 0.648495C4.80577 0.283879 5.16778 0.166681 5.37093 0.125011C5.79284 0.0442747 6.22517 0 6.66792 0ZM5.68085 1.33866L5.45948 2.2528C5.25633 3.09402 4.27968 3.65657 3.44888 3.41436L2.55037 3.14872C2.12064 3.65136 1.78207 4.23475 1.5607 4.8598L2.24305 5.5083C2.8681 6.1021 2.8681 7.23241 2.24305 7.82621L1.5607 8.4747C1.78207 9.09976 2.12064 9.68314 2.55037 10.1858L3.45149 9.92014C4.27968 9.67533 5.25894 10.2405 5.46208 11.0817L5.68345 11.9958C6.32414 12.113 7.01951 12.113 7.66019 11.9958L7.88156 11.0817C8.08471 10.2405 9.06136 9.67794 9.89216 9.92014L10.7933 10.1858C11.223 9.68314 11.5616 9.09976 11.7829 8.4747L11.1006 7.82621C10.4755 7.23241 10.4755 6.1021 11.1006 5.5083L11.7829 4.8598C11.5616 4.23475 11.223 3.65136 10.7933 3.14872L9.89216 3.41436C9.06396 3.65918 8.08471 3.09402 7.88156 2.2528L7.66019 1.33866C7.01951 1.22146 6.32414 1.22146 5.68345 1.33866H5.68085ZM5.41781 6.66725C5.41781 6.9988 5.54951 7.31677 5.78395 7.55122C6.0184 7.78566 6.33637 7.91736 6.66792 7.91736C6.99947 7.91736 7.31744 7.78566 7.55188 7.55122C7.78632 7.31677 7.91803 6.9988 7.91803 6.66725C7.91803 6.3357 7.78632 6.01773 7.55188 5.78329C7.31744 5.54885 6.99947 5.41714 6.66792 5.41714C6.33637 5.41714 6.0184 5.54885 5.78395 5.78329C5.54951 6.01773 5.41781 6.3357 5.41781 6.66725ZM6.66792 9.16747C6.00482 9.16747 5.36888 8.90406 4.89999 8.43518C4.43111 7.96629 4.1677 7.33035 4.1677 6.66725C4.1677 6.00415 4.43111 5.36821 4.89999 4.89933C5.36888 4.43045 6.00482 4.16703 6.66792 4.16703C7.33102 4.16703 7.96696 4.43045 8.43584 4.89933C8.90472 5.36821 9.16814 6.00415 9.16814 6.66725C9.16814 7.33035 8.90472 7.96629 8.43584 8.43518C7.96696 8.90406 7.33102 9.16747 6.66792 9.16747Z" fill="#00AE42"/>
</g>
<defs>
<clipPath id="clip0_4126_11009">
<rect width="13.3345" height="13.3345" fill="white"/>
</clipPath>
</defs>
</svg>
