<svg width="16" height="16" viewBox="0 0 16 16" fill="none" xmlns="http://www.w3.org/2000/svg">
<path d="M14.6813 13.25C15.0954 13.2501 15.4313 13.5859 15.4313 14C15.4313 14.4141 15.0954 14.7499 14.6813 14.75H2.6813C2.26709 14.75 1.9313 14.4142 1.9313 14C1.9313 13.5858 2.26709 13.25 2.6813 13.25H14.6813ZM14.6667 9.25C15.0809 9.25 15.4167 9.58579 15.4167 10C15.4167 10.4142 15.0809 10.75 14.6667 10.75H10.6667C10.2525 10.7499 9.91665 10.4142 9.91665 10C9.91666 9.58585 10.2525 9.2501 10.6667 9.25H14.6667ZM7.09732 5.33301C7.49004 5.33301 7.72929 5.76561 7.52115 6.09863L5.09048 9.98828C4.89465 10.3016 4.43768 10.3016 4.24185 9.98828L1.81119 6.09863C1.60306 5.76564 1.84236 5.33308 2.23501 5.33301H7.09732ZM14.6667 5.25C15.0809 5.25 15.4167 5.58579 15.4167 6C15.4167 6.41421 15.0809 6.75 14.6667 6.75H9.33365C8.9195 6.74993 8.58365 6.41417 8.58365 6C8.58365 5.58583 8.9195 5.25007 9.33365 5.25H14.6667ZM14.6813 1.25C15.0954 1.25013 15.4313 1.58586 15.4313 2C15.4313 2.41414 15.0954 2.74987 14.6813 2.75H2.6813C2.26709 2.75 1.9313 2.41421 1.9313 2C1.9313 1.58579 2.26709 1.25 2.6813 1.25H14.6813Z" fill="#909090"/>
</svg>
