<svg width="20" height="20" viewBox="0 0 20 20" fill="none" xmlns="http://www.w3.org/2000/svg">
<path d="M8.71875 10.866C8.94887 10.866 9.13574 11.0528 9.13574 11.283V17.116C9.13574 17.3461 8.94887 17.533 8.71875 17.533H2.88574C2.65562 17.533 2.46875 17.3461 2.46875 17.116V11.283C2.46875 11.0528 2.65562 10.866 2.88574 10.866H8.71875ZM17.1143 10.866C17.3442 10.8662 17.5303 11.053 17.5303 11.283V17.116C17.5303 17.3459 17.3442 17.5327 17.1143 17.533H11.2803C11.0502 17.5328 10.8643 17.346 10.8643 17.116V11.283C10.8643 11.0529 11.0502 10.8661 11.2803 10.866H17.1143ZM3.88574 16.116H7.71875V12.283H3.88574V16.116ZM12.2803 16.116H16.1143V12.283H12.2803V16.116ZM8.71875 2.46753C8.94875 2.46753 9.13554 2.65359 9.13574 2.88354V8.71753C9.13559 8.94752 8.94877 9.13354 8.71875 9.13354H2.88574C2.65572 9.13354 2.4689 8.94752 2.46875 8.71753V2.88354C2.46895 2.65359 2.65575 2.46753 2.88574 2.46753H8.71875ZM17.1143 2.46753C17.344 2.46777 17.5301 2.65374 17.5303 2.88354V8.71753C17.5301 8.94737 17.3441 9.1333 17.1143 9.13354H11.2803C11.0503 9.13344 10.8644 8.94745 10.8643 8.71753V2.88354C10.8645 2.65366 11.0504 2.46764 11.2803 2.46753H17.1143ZM3.88574 7.71753H7.71875V3.88354H3.88574V7.71753ZM12.2803 7.71753H16.1143V3.88354H12.2803V7.71753Z" fill="#1F1F1F"/>
</svg>
