<svg width="16" height="16" viewBox="0 0 16 16" fill="none" xmlns="http://www.w3.org/2000/svg">
<path d="M6.72554 3.20938L6.27316 3.875H9.72554L9.27316 3.20938C9.23744 3.15781 9.17792 3.125 9.11364 3.125H6.88268C6.8184 3.125 6.75887 3.15547 6.72316 3.20938H6.72554ZM10.2255 2.58594L11.0993 3.875H11.4279H12.5708H12.7613C13.0779 3.875 13.3327 4.12578 13.3327 4.4375C13.3327 4.74922 13.0779 5 12.7613 5H12.5708V12.125C12.5708 13.1609 11.7184 14 10.666 14H5.33268C4.2803 14 3.42792 13.1609 3.42792 12.125V5H3.23744C2.92078 5 2.66602 4.74922 2.66602 4.4375C2.66602 4.12578 2.92078 3.875 3.23744 3.875H3.42792H4.57078H4.89935L5.77316 2.58359C6.02078 2.22031 6.43744 2 6.88268 2H9.11364C9.55887 2 9.97554 2.22031 10.2232 2.58359L10.2255 2.58594ZM4.57078 5V12.125C4.57078 12.5398 4.91125 12.875 5.33268 12.875H10.666C11.0874 12.875 11.4279 12.5398 11.4279 12.125V5H4.57078ZM6.47554 6.5V11.375C6.47554 11.5813 6.30411 11.75 6.09459 11.75C5.88506 11.75 5.71363 11.5813 5.71363 11.375V6.5C5.71363 6.29375 5.88506 6.125 6.09459 6.125C6.30411 6.125 6.47554 6.29375 6.47554 6.5ZM8.3803 6.5V11.375C8.3803 11.5813 8.20887 11.75 7.99935 11.75C7.78983 11.75 7.6184 11.5813 7.6184 11.375V6.5C7.6184 6.29375 7.78983 6.125 7.99935 6.125C8.20887 6.125 8.3803 6.29375 8.3803 6.5ZM10.2851 6.5V11.375C10.2851 11.5813 10.1136 11.75 9.90411 11.75C9.69459 11.75 9.52316 11.5813 9.52316 11.375V6.5C9.52316 6.29375 9.69459 6.125 9.90411 6.125C10.1136 6.125 10.2851 6.29375 10.2851 6.5Z" fill="#323A3D"/>
</svg>
