<svg width="16" height="16" viewBox="0 0 16 16" fill="none" xmlns="http://www.w3.org/2000/svg">
<path d="M6.55664 8.69056C7.02503 8.73794 7.39042 9.13354 7.39062 9.61438V13.423L7.38672 13.5167C7.34252 13.9542 6.99411 14.3026 6.55664 14.3468L6.46191 14.3517H2.6543L2.55957 14.3468C2.12239 14.3023 1.77466 13.954 1.73047 13.5167L1.72559 13.423V9.61438C1.72579 9.13375 2.09147 8.73822 2.55957 8.69056L2.6543 8.68567H6.46191L6.55664 8.69056ZM13.4404 8.69056C13.9088 8.73799 14.2742 9.13358 14.2744 9.61438V13.423L14.2705 13.5167C14.2263 13.9542 13.8778 14.3025 13.4404 14.3468L13.3457 14.3517H9.53809L9.44336 14.3468C9.00618 14.3023 8.65844 13.954 8.61426 13.5167L8.60938 13.423V9.61438C8.60958 9.13375 8.97526 8.73822 9.44336 8.69056L9.53809 8.68567H13.3457L13.4404 8.69056ZM2.6543 13.423H6.46191V9.61438H2.6543V13.423ZM9.53809 13.423H13.3457V9.61438H9.53809V13.423ZM6.55664 1.9386C7.02509 1.98601 7.39053 2.3815 7.39062 2.86243V6.67005L7.38672 6.76478C7.34248 7.20223 6.99409 7.55062 6.55664 7.59485L6.46191 7.59876H2.6543L2.55957 7.59485C2.12244 7.55035 1.77471 7.20199 1.73047 6.76478L1.72559 6.67005V2.86243C1.72569 2.3817 2.0914 1.98627 2.55957 1.9386L2.6543 1.93372H6.46191L6.55664 1.9386ZM11.3301 1.83509C11.3301 1.69216 11.4846 1.60267 11.6084 1.67396L13.0811 2.52356C13.2047 2.59513 13.2048 2.77436 13.0811 2.84583L11.6084 3.69544C11.4846 3.76652 11.3301 3.67716 11.3301 3.53431V3.12513C11.0442 3.1446 10.7676 3.23872 10.5283 3.39856C10.2579 3.57923 10.0473 3.83644 9.92285 4.13685C9.79839 4.43733 9.76568 4.76805 9.8291 5.08704C9.89256 5.40608 10.0493 5.6998 10.2793 5.92981C10.5092 6.15959 10.8023 6.31561 11.1211 6.37903C11.4401 6.44248 11.7708 6.4107 12.0713 6.28626C12.3718 6.16178 12.6289 5.95028 12.8096 5.67981C12.9901 5.40951 13.0868 5.09177 13.0869 4.76673H13.9463C13.9462 5.26173 13.7994 5.74573 13.5244 6.15735C13.2493 6.56914 12.8579 6.89067 12.4004 7.0802C11.9428 7.26974 11.4389 7.31941 10.9531 7.22278C10.4674 7.12614 10.0211 6.88741 9.6709 6.53724C9.32077 6.18708 9.08297 5.74067 8.98633 5.25501C8.88971 4.76925 8.9384 4.26532 9.12793 3.80774C9.31745 3.35027 9.63907 2.95983 10.0508 2.6847C10.4315 2.43029 10.874 2.28614 11.3301 2.26575V1.83509ZM2.6543 6.67005H6.46191V2.86243H2.6543V6.67005Z" fill="#262E30"/>
</svg>
