<svg width="16" height="16" viewBox="0 0 16 16" fill="none" xmlns="http://www.w3.org/2000/svg">
<path d="M7.99967 13.4166C9.43626 13.4166 10.814 12.8459 11.8298 11.8301C12.8457 10.8143 13.4163 9.43651 13.4163 7.99992C13.4163 6.56333 12.8457 5.18558 11.8298 4.16976C10.814 3.15393 9.43626 2.58325 7.99967 2.58325C6.56309 2.58325 5.18533 3.15393 4.16951 4.16976C3.15369 5.18558 2.58301 6.56333 2.58301 7.99992C2.58301 9.43651 3.15369 10.8143 4.16951 11.8301C5.18533 12.8459 6.56309 13.4166 7.99967 13.4166ZM7.99967 1.33325C9.76778 1.33325 11.4635 2.03563 12.7137 3.28587C13.964 4.53612 14.6663 6.23181 14.6663 7.99992C14.6663 9.76803 13.964 11.4637 12.7137 12.714C11.4635 13.9642 9.76778 14.6666 7.99967 14.6666C6.23156 14.6666 4.53587 13.9642 3.28563 12.714C2.03539 11.4637 1.33301 9.76803 1.33301 7.99992C1.33301 6.23181 2.03539 4.53612 3.28563 3.28587C4.53587 2.03563 6.23156 1.33325 7.99967 1.33325ZM8.83301 7.99992C8.83301 8.22093 8.74521 8.43289 8.58893 8.58917C8.43265 8.74545 8.22069 8.83325 7.99967 8.83325C7.77866 8.83325 7.5667 8.74545 7.41042 8.58917C7.25414 8.43289 7.16634 8.22093 7.16634 7.99992C7.16634 7.7789 7.25414 7.56694 7.41042 7.41066C7.5667 7.25438 7.77866 7.16658 7.99967 7.16658C8.22069 7.16658 8.43265 7.25438 8.58893 7.41066C8.74521 7.56694 8.83301 7.7789 8.83301 7.99992ZM10.4997 7.16658C10.7207 7.16658 10.9326 7.25438 11.0889 7.41066C11.2452 7.56694 11.333 7.7789 11.333 7.99992C11.333 8.22093 11.2452 8.43289 11.0889 8.58917C10.9326 8.74545 10.7207 8.83325 10.4997 8.83325C10.2787 8.83325 10.0667 8.74545 9.91042 8.58917C9.75414 8.43289 9.66634 8.22093 9.66634 7.99992C9.66634 7.7789 9.75414 7.56694 9.91042 7.41066C10.0667 7.25438 10.2787 7.16658 10.4997 7.16658ZM6.33301 7.99992C6.33301 8.22093 6.24521 8.43289 6.08893 8.58917C5.93265 8.74545 5.72069 8.83325 5.49967 8.83325C5.27866 8.83325 5.0667 8.74545 4.91042 8.58917C4.75414 8.43289 4.66634 8.22093 4.66634 7.99992C4.66634 7.7789 4.75414 7.56694 4.91042 7.41066C5.0667 7.25438 5.27866 7.16658 5.49967 7.16658C5.72069 7.16658 5.93265 7.25438 6.08893 7.41066C6.24521 7.56694 6.33301 7.7789 6.33301 7.99992Z" fill="#6B6B6B"/>
</svg>
