<?xml version="1.0" standalone="no"?><!DOCTYPE svg PUBLIC "-//W3C//DTD SVG 1.1//EN" "http://www.w3.org/Graphics/SVG/1.1/DTD/svg11.dtd"><svg t="1780017613519" class="icon" viewBox="0 0 1024 1024" version="1.1" xmlns="http://www.w3.org/2000/svg" p-id="5595" xmlns:xlink="http://www.w3.org/1999/xlink" width="200" height="200"><path d="M511.17 511.258v312.246l270-156.123V356.504l-270 154.754z" fill="#494B4E" p-id="5596"></path><path d="M512.17 511.258v312.246l-270-156.123V356.504l270 154.754z" fill="#8C9299" p-id="5597"></path><path d="M344.76 297.656l166.74 97.342 167.725-96.926 101.631 59.059-268.991 155.302L242 356.984l102.76-59.328z" fill="#CCD5DF" p-id="5598"></path><path d="M512.255 64L257 211.236 512.745 358 768 210.764 512.255 64z" fill="#FFC2C6" p-id="5599"></path><path d="M512.255 64L727.87 187.735 768 210.764l-40.079 23.119L512.745 358 297.13 234.265 257 211.236l40.08-23.119L512.254 64zM337.209 211.147l175.485 100.705 175.097-100.999-175.485-100.705-175.097 100.999z" fill="#CE1D29" p-id="5600"></path><path d="M319 960L64 811.893V517l255 148.107V960z" fill="#FFC2C6" p-id="5601"></path><path d="M279 936.767L319 960V665.107L64 517v294.893l215 124.874z m0-46.257L104 788.868V586.49l175 101.642V890.51z" fill="#CE1D29" p-id="5602"></path><path d="M705 960l255-148.107V517L705 665.107V960z" fill="#FFC2C6" p-id="5603"></path><path d="M745 936.767L705 960V665.107L960 517v294.893L745 936.767z m0-46.257l175-101.642V586.49L745 688.132V890.51z" fill="#CE1D29" p-id="5604"></path><path d="M319 960L64 811.893V517l255 148.107V960z m386 0l255-148.107V517L705 665.107V960z" fill="#FFC2C6" p-id="5605"></path><path d="M319 960V665.107L64 517v294.893l215 124.874L319 960z m386 0l40-23.233 215-124.874V517L705 665.107V960zM279 688.132V890.51L104 788.868V586.49l175 101.642z m641 100.736L745 890.51V688.132L920 586.49v202.378z" fill="#CE1D29" p-id="5606"></path></svg>