<svg width="18" height="18" viewBox="0 0 18 18" fill="none" xmlns="http://www.w3.org/2000/svg">
<g clip-path="url(#clip0_1130_1194)">
<path d="M10.6875 0.84375C10.6875 1.31133 11.0637 1.6875 11.5312 1.6875H15.1207L7.27734 9.52734C6.94687 9.85781 6.94687 10.3922 7.27734 10.7191C7.60781 11.0461 8.14219 11.0496 8.46914 10.7191L16.309 2.8793V6.46875C16.309 6.93633 16.6852 7.3125 17.1527 7.3125C17.6203 7.3125 17.9965 6.93633 17.9965 6.46875V0.84375C17.9965 0.376172 17.6203 0 17.1527 0H11.5312C11.0637 0 10.6875 0.376172 10.6875 0.84375ZM2.53125 1.125C1.13203 1.125 0 2.25703 0 3.65625V15.4688C0 16.868 1.13203 18 2.53125 18H14.3437C15.743 18 16.875 16.868 16.875 15.4688V10.9688C16.875 10.5012 16.4988 10.125 16.0312 10.125C15.5637 10.125 15.1875 10.5012 15.1875 10.9688V15.4688C15.1875 15.9363 14.8113 16.3125 14.3437 16.3125H2.53125C2.06367 16.3125 1.6875 15.9363 1.6875 15.4688V3.65625C1.6875 3.18867 2.06367 2.8125 2.53125 2.8125H7.03125C7.49883 2.8125 7.875 2.43633 7.875 1.96875C7.875 1.50117 7.49883 1.125 7.03125 1.125H2.53125Z" fill="white"/>
</g>
<defs>
<clipPath id="clip0_1130_1194">
<rect width="18" height="18" fill="white"/>
</clipPath>
</defs>
</svg>
