<svg width="16" height="16" viewBox="0 0 16 16" fill="none" xmlns="http://www.w3.org/2000/svg">
<path d="M13.0833 10.8333H8.33333C7.46003 10.8333 6.75 10.1232 6.75 9.24992V2.91659C6.75 2.04328 7.46003 1.33325 8.33333 1.33325H11.7993C12.1135 1.33325 12.4154 1.45942 12.638 1.68208L14.3178 3.3619C14.5405 3.58455 14.6667 3.88638 14.6667 4.20057V9.24992C14.6667 10.1232 13.9566 10.8333 13.0833 10.8333ZM3.58333 4.49992H5.95833V5.68742H3.58333C3.36563 5.68742 3.1875 5.86554 3.1875 6.08325V12.4166C3.1875 12.6343 3.36563 12.8124 3.58333 12.8124H8.33333C8.55104 12.8124 8.72917 12.6343 8.72917 12.4166V11.6249H9.91667V12.4166C9.91667 13.2899 9.20664 13.9999 8.33333 13.9999H3.58333C2.71003 13.9999 2 13.2899 2 12.4166V6.08325C2 5.20994 2.71003 4.49992 3.58333 4.49992Z" fill="#DDDDDF"/>
</svg>
