<svg width="24" height="24" viewBox="0 0 24 24" fill="none" xmlns="http://www.w3.org/2000/svg">
<path d="M3.58984 9.59402L5.02795 8.0752H9.04379V8.80746H10.7804V10.8695L9.47841 12.3892H9.04379L9.3694 12.8357L9.47841 12.9043H10.7804V15.2105L9.3694 16.6214H7.76849L7.60568 17.2183H3.58984V9.59402Z" fill="#248D00"/>
<path d="M9.43359 12.4974V10.1368L10.7534 8.91553V11.0594C10.0802 11.714 10.1068 11.8428 9.43359 12.4974Z" fill="#144D00"/>
<path d="M9.48145 16.5184V14.1578L10.8013 12.9365V15.0804C10.1281 15.735 10.1547 15.8638 9.48145 16.5184Z" fill="#144D00"/>
<path d="M3.64844 17.2H7.70253L7.69545 16.6133H9.42729L9.4273 14.4117H7.70252L7.69545 12.3748H9.42729L9.43436 10.1776H7.70252L7.70252 9.50635H3.64844L3.64844 17.2Z" fill="#1B6A00"/>
<path d="M3.64844 17.2H7.70253L7.69545 16.6133H9.42729L9.4273 14.4117H7.70252L7.69545 12.3748H9.42729L9.43436 10.1776H7.70252L7.70252 9.50635H3.64844L3.64844 17.2Z" stroke="#ACFF91" stroke-width="0.3" stroke-miterlimit="10" stroke-linejoin="round"/>
<path d="M7.66797 9.61134L8.98206 8.18262" stroke="#ACFF91" stroke-width="0.3" stroke-miterlimit="10" stroke-linejoin="round"/>
<path d="M9.35254 10.2581L10.6915 8.87695" stroke="#ACFF91" stroke-width="0.3" stroke-miterlimit="10" stroke-linejoin="round"/>
<path d="M9.35254 14.4624L10.7182 12.9365" stroke="#ACFF91" stroke-width="0.3" stroke-miterlimit="10" stroke-linejoin="round"/>
<path d="M5.01511 8.09619H9.0692L9.06921 8.76744H10.8011L10.794 10.9646L9.49779 12.5019H9.04751V12.909H10.8011L10.794 15.1828L9.3022 16.6757H7.70647V17.2303H3.58984L3.62434 9.52315L5.01511 8.09619Z" stroke="#50E81D" stroke-width="0.48" stroke-miterlimit="10" stroke-linejoin="round"/>
<path d="M10.0733 7.72149V5.6432L12.0673 4.09424H20.3598V17.8621L18.3479 19.4167H10.0732L10.0733 17.3384H13.2313V16.1701H15.0911V13.8362H13.2313V12.9466V11.2682H15.0911V8.87822H13.2313V7.72149H10.0733Z" fill="#D8D8D8"/>
<path d="M18.4551 5.39199L20.3775 3.86377V17.9872L18.4551 19.4167V5.39199Z" fill="url(#paint0_linear_1935_10699)"/>
<path d="M10.0732 7.72184V5.64355H18.3479V9.57003L18.3479 18.4502V19.7186H10.0732V17.3387H12.8146V16.1705H14.6745V13.8366H12.8146V12.9469V11.2685H14.6745V8.87857H12.8146V7.72184H10.0732Z" fill="url(#paint1_linear_1935_10699)"/>
<path d="M10.0693 5.62158H18.412V13.572V19.6836" stroke="#333333" stroke-width="0.3" stroke-miterlimit="10" stroke-linejoin="round"/>
<path d="M18.4551 5.63181L20.2514 4.16895" stroke="#333333" stroke-width="0.3" stroke-miterlimit="10" stroke-linejoin="round"/>
<path d="M10.0732 7.72162L10.1232 5.41273L12.1172 3.86377H20.4097L20.3598 18.2288L18.3479 19.7834H10.0732V17.3385H12.8146V16.1703H14.6745V13.8363H12.8146V12.9467V11.2683H14.6745V8.87835H12.8146V7.72162H10.0732Z" stroke="#333333" stroke-width="0.48" stroke-miterlimit="10" stroke-linejoin="round"/>
<defs>
<linearGradient id="paint0_linear_1935_10699" x1="19.4163" y1="3.86377" x2="19.4163" y2="19.4167" gradientUnits="userSpaceOnUse">
<stop stop-color="#9C9C9C"/>
<stop offset="1" stop-color="#5F5F5F"/>
</linearGradient>
<linearGradient id="paint1_linear_1935_10699" x1="13.7939" y1="5.64355" x2="13.7939" y2="19.7186" gradientUnits="userSpaceOnUse">
<stop stop-color="#C6C6C6"/>
<stop offset="1" stop-color="#818181"/>
</linearGradient>
</defs>
</svg>
