<svg width="16" height="16" viewBox="0 0 16 16" fill="none" xmlns="http://www.w3.org/2000/svg">
<g clip-path="url(#clip0_2250_10581)">
<path d="M8.3911 5.02053C8.49661 5.03453 8.58177 5.11379 8.6032 5.21804L8.92838 6.80176L10.438 6.64214C10.5454 6.63078 10.648 6.68982 10.6923 6.78831C10.7365 6.88675 10.7127 7.00247 10.633 7.07529L9.42087 8.18192L10.3401 9.49775C10.403 9.58794 10.3996 9.70858 10.3317 9.79509C10.2637 9.88161 10.1471 9.91367 10.0446 9.87383L8.63285 9.32522L7.91228 11.0116C7.86902 11.1127 7.76488 11.1737 7.6556 11.1619C7.54624 11.15 7.45737 11.068 7.43681 10.96L7.0904 9.13733L5.53434 9.33433C5.42738 9.34784 5.32378 9.29137 5.27736 9.19408C5.23093 9.09672 5.25232 8.98061 5.3302 8.906L6.45573 7.82736L5.61918 6.46733C5.56375 6.37716 5.57114 6.26178 5.63759 6.17939C5.70404 6.09699 5.81535 6.06541 5.91523 6.10049L7.39816 6.62124L8.13487 5.15608L8.15529 5.12247C8.20844 5.04851 8.29874 5.00832 8.3911 5.02053ZM7.74642 7.04256C7.68993 7.15486 7.55875 7.20788 7.44014 7.16622L6.41474 6.8058L6.98751 7.73725C7.04919 7.83752 7.03257 7.96738 6.94759 8.04884L6.22215 8.74327L7.26049 8.61215L7.30918 8.61077C7.42049 8.61833 7.51611 8.70002 7.5377 8.81351L7.77462 10.0608L8.26825 8.9062L8.29213 8.86283C8.35649 8.76897 8.47896 8.72871 8.58897 8.77148L9.45871 9.10933L8.88546 8.28865C8.81366 8.18577 8.82943 8.04554 8.92207 7.96092L9.73347 7.21941L8.75577 7.32336C8.62782 7.33692 8.51037 7.251 8.48443 7.12499L8.2582 6.0239L7.74642 7.04256Z" fill="#DBDBDD"/>
<path d="M10.3559 0.322669C10.5271 0.380487 10.6537 0.526203 10.6872 0.703755L11.3514 4.22516L14.8093 3.95333C14.9935 3.93885 15.1706 4.0271 15.27 4.18291C15.3694 4.33877 15.3749 4.53683 15.2839 4.69774L13.4981 7.85604L15.1808 9.35306C15.3176 9.47475 15.3768 9.66132 15.3354 9.83962C15.2939 10.0179 15.1585 10.1594 14.9821 10.2083L12.8125 10.8092L13.3568 13.9486C13.3885 14.1314 13.3163 14.3167 13.1694 14.4299C13.0225 14.5431 12.8251 14.5657 12.6564 14.4886L9.16058 12.8907L6.27136 15.6652C6.14108 15.7903 5.95332 15.8356 5.78041 15.7834C5.60752 15.7312 5.47633 15.5896 5.43701 15.4134L4.64064 11.8432L1.02583 12.3227C0.837215 12.3477 0.650544 12.2635 0.544576 12.1055C0.438695 11.9475 0.431694 11.7431 0.526403 11.5782L2.44522 8.23567L0.604047 6.3709C0.470578 6.23567 0.425367 6.0365 0.487257 5.85686C0.549185 5.67723 0.707556 5.54814 0.896011 5.52384L3.18995 5.22851L3.18995 1.78019C3.18997 1.59931 3.2878 1.43258 3.4456 1.34414C3.60339 1.25572 3.79662 1.25933 3.95093 1.35368L6.85542 3.13023L9.86126 0.424843C9.99555 0.303958 10.1847 0.264854 10.3559 0.322669ZM7.24739 4.12342C7.08291 4.27146 6.84059 4.29369 6.65181 4.17822L4.1898 2.67199L4.19004 5.6684C4.19004 5.91983 4.00335 6.13223 3.75397 6.16437L2.02528 6.38658L3.42428 7.80394C3.58209 7.96379 3.61386 8.20939 3.50207 8.4042L1.89717 11.1984L4.96316 10.792L5.01116 10.7879C5.24943 10.7793 5.4639 10.9416 5.51681 11.1787L6.2193 14.3285L8.71311 11.9343L8.74161 11.9089C8.8883 11.7881 9.09229 11.7604 9.26715 11.8403L12.2092 13.1847L11.7498 10.5338C11.7059 10.2805 11.8612 10.0353 12.109 9.96665L13.8299 9.48983L12.5319 8.33529C12.356 8.17879 12.313 7.92062 12.4288 7.71561L13.9504 5.02376L10.9826 5.25769C10.7281 5.2777 10.4991 5.10275 10.4518 4.85189L9.86934 1.76297L7.24739 4.12342Z" fill="#DBDBDD"/>
</g>
<defs>
<clipPath id="clip0_2250_10581">
<rect width="16.0014" height="16" fill="white"/>
</clipPath>
</defs>
</svg>
