<svg width="16" height="16" viewBox="0 0 16 16" fill="none" xmlns="http://www.w3.org/2000/svg">
<path d="M13.4163 8.00016C13.4163 6.56357 12.8457 5.18582 11.8298 4.17C10.814 3.15418 9.43626 2.5835 7.99967 2.5835C6.56309 2.5835 5.18533 3.15418 4.16951 4.17C3.15369 5.18582 2.58301 6.56357 2.58301 8.00016C2.58301 9.43675 3.15369 10.8145 4.16951 11.8303C5.18533 12.8461 6.56309 13.4168 7.99967 13.4168C9.43626 13.4168 10.814 12.8461 11.8298 11.8303C12.8457 10.8145 13.4163 9.43675 13.4163 8.00016ZM1.33301 8.00016C1.33301 6.23205 2.03539 4.53636 3.28563 3.28612C4.53587 2.03588 6.23156 1.3335 7.99967 1.3335C9.76778 1.3335 11.4635 2.03588 12.7137 3.28612C13.964 4.53636 14.6663 6.23205 14.6663 8.00016C14.6663 9.76827 13.964 11.464 12.7137 12.7142C11.4635 13.9645 9.76778 14.6668 7.99967 14.6668C6.23156 14.6668 4.53587 13.9645 3.28563 12.7142C2.03539 11.464 1.33301 9.76827 1.33301 8.00016ZM6.23665 5.16423C6.43457 5.05485 6.67415 5.05745 6.86947 5.17725L10.6195 7.46891C10.8044 7.5835 10.9189 7.78402 10.9189 8.00277C10.9189 8.22152 10.8044 8.42204 10.6195 8.53662L6.86947 10.8283C6.67676 10.9455 6.43457 10.9507 6.23665 10.8413C6.03874 10.7319 5.91634 10.5236 5.91634 10.297V5.7085C5.91634 5.48193 6.03874 5.2736 6.23665 5.16423Z" fill="#A8A8A8"/>
</svg>
