<svg width="20" height="20" viewBox="0 0 20 20" fill="none" xmlns="http://www.w3.org/2000/svg">
<g clip-path="url(#clip0_4098_10827)">
<path d="M9.05748 0.390579L0.390401 9.05699C0.140427 9.30704 0 9.64613 0 9.9997C0 10.3533 0.140427 10.6924 0.390401 10.9424L9.05748 19.6095C9.30753 19.8595 9.64662 19.9999 10.0002 19.9999C10.3538 19.9999 10.6929 19.8595 10.9429 19.6095L19.61 10.9424C19.86 10.6924 20.0004 10.3533 20.0004 9.9997C20.0004 9.64613 19.86 9.30704 19.61 9.05699L10.9429 0.389912C10.6929 0.139939 10.3538 -0.000488281 10.0002 -0.000488281C9.64662 -0.000488281 9.30753 0.139939 9.05748 0.389912V0.390579ZM10.2255 14.3712C9.12607 14.3712 8.07164 13.9345 7.2942 13.157C6.51677 12.3796 6.08001 11.3252 6.08001 10.2257C6.08001 9.12625 6.51677 8.07182 7.2942 7.29438C8.07164 6.51694 9.12607 6.08018 10.2255 6.08018C11.3158 6.09401 12.3567 6.53682 13.1228 7.31269C13.8889 8.08857 14.3185 9.13502 14.3185 10.2254C14.3185 11.3157 13.8889 12.3622 13.1228 13.1381C12.3567 13.9139 11.3158 14.3568 10.2255 14.3706V14.3712Z" fill="#6B6B6B"/>
</g>
<defs>
<clipPath id="clip0_4098_10827">
<rect width="20" height="20" fill="white"/>
</clipPath>
</defs>
</svg>
