<svg width="24" height="24" viewBox="0 0 24 24" fill="none" xmlns="http://www.w3.org/2000/svg">
<path d="M5.29942 16.1367C5.29942 14.4794 5.29727 12.8248 5.29942 11.1675C5.30158 9.79726 6.1957 8.78895 7.46686 8.7269C7.66723 8.71656 7.73618 8.65192 7.73187 8.43475C7.7211 7.89181 7.72325 7.34887 7.73187 6.80594C7.7491 5.72006 8.47733 4.93409 9.48564 4.93668C9.76142 4.93668 9.86268 4.81775 9.94886 4.56697C10.3647 3.38285 10.7913 2.20131 11.2222 1.02236C11.3902 0.564745 11.6919 0.34757 12.0754 0.383766C12.4459 0.419961 12.6549 0.688845 12.7799 1.02753C13.1462 2.01775 13.5017 3.01313 13.8593 4.00593C13.9347 4.21794 14.0166 4.42735 14.0812 4.64453C14.1459 4.85653 14.2557 4.93668 14.4733 4.9341C15.1563 4.93151 15.7251 5.21332 16.0418 5.88553C16.1797 6.17768 16.2422 6.53188 16.2659 6.8654C16.3025 7.36955 16.2853 7.88147 16.2724 8.38821C16.2659 8.63124 16.3241 8.72173 16.5675 8.73207C17.5392 8.77344 18.3213 9.41462 18.6014 10.3971C18.6725 10.6427 18.6983 10.9142 18.6983 11.1753C18.7048 14.4794 18.7091 17.7836 18.7005 21.0878C18.6983 22.3107 18.0994 23.1458 17.0157 23.4793C16.8778 23.5206 16.727 23.5336 16.5804 23.5336C13.5254 23.5362 10.4703 23.5413 7.41516 23.5336C6.24956 23.531 5.31882 22.502 5.30373 21.1886C5.2865 19.6632 5.29727 18.1378 5.29727 16.615C5.29942 16.4521 5.29942 16.2944 5.29942 16.1367ZM17.5715 16.1651H17.5672C17.5672 14.5337 17.5478 12.9049 17.5758 11.2735C17.5888 10.5005 17.1234 9.93946 16.337 9.94463C13.4456 9.96531 10.5521 9.9679 7.66077 9.94463C6.86575 9.93946 6.41977 10.5289 6.42408 11.2813C6.44347 14.5156 6.4327 17.75 6.4327 20.9843C6.4327 21.8737 6.82913 22.321 7.65431 22.3236C10.5543 22.3288 13.4543 22.3288 16.3564 22.3236C17.1643 22.321 17.5715 21.8711 17.5715 21.005C17.5737 19.3891 17.5715 17.7784 17.5715 16.1651ZM12.0021 8.72173C12.9544 8.72173 13.9089 8.71656 14.8611 8.7269C15.0788 8.72948 15.1412 8.65451 15.1369 8.4244C15.124 7.89957 15.1348 7.37214 15.1305 6.8473C15.1262 6.40261 14.9085 6.16992 14.4949 6.16992C12.8338 6.16734 11.1726 6.16734 9.50934 6.16992C9.09567 6.16992 8.87807 6.4052 8.87376 6.8473C8.86945 7.36438 8.88453 7.88147 8.8673 8.39855C8.85868 8.64675 8.92762 8.73207 9.16677 8.72948C10.1126 8.71397 11.0584 8.72173 12.0021 8.72173ZM12.0517 2.37712C12.0172 2.37971 11.9849 2.38229 11.9504 2.38488C11.6531 3.21221 11.3558 4.04213 11.0477 4.90049H12.9609C12.6463 4.0292 12.349 3.20187 12.0517 2.37712Z" fill="#323A3D"/>
<path d="M11.9914 19.1097H8.00991C7.54238 19.1097 7.32046 18.877 7.32046 18.3729C7.31831 16.8837 7.31831 15.3945 7.32046 13.9053C7.32046 13.4063 7.54238 13.1658 8.00991 13.1633C9.8671 13.1607 11.7243 13.1633 13.5793 13.1633C14.37 13.1633 15.1586 13.1607 15.9493 13.1633C16.4814 13.1633 16.6904 13.3882 16.6904 13.957C16.6926 15.4126 16.6926 16.8656 16.6904 18.3212C16.6904 18.8951 16.4879 19.1097 15.9493 19.1097H11.9914ZM11.9785 17.8842C13.0709 17.8842 14.161 17.8791 15.2534 17.8894C15.4818 17.892 15.5464 17.8092 15.5442 17.5714C15.5335 16.607 15.5356 15.6453 15.5442 14.6809C15.5464 14.456 15.4861 14.3784 15.2685 14.3784C13.0946 14.3862 10.9207 14.3862 8.7446 14.3784C8.52699 14.3784 8.46451 14.4534 8.46666 14.6809C8.47528 15.6349 8.47959 16.5915 8.46666 17.5455C8.46236 17.8067 8.52914 17.8946 8.78122 17.892C9.84555 17.8765 10.912 17.8842 11.9785 17.8842Z" fill="#323A3D"/>
</svg>
