<svg width="16" height="16" viewBox="0 0 16 16" fill="none" xmlns="http://www.w3.org/2000/svg">
<path d="M14.6803 13.25C15.0946 13.25 15.4303 13.5858 15.4303 14C15.4303 14.4142 15.0946 14.75 14.6803 14.75H2.68034C2.26632 14.7498 1.93034 14.4141 1.93034 14C1.93034 13.5859 2.26632 13.2502 2.68034 13.25H14.6803ZM14.6667 9.25C15.0808 9.25008 15.4167 9.58584 15.4167 10C15.4167 10.4142 15.0808 10.7499 14.6667 10.75H10.6667C10.2525 10.75 9.91667 10.4142 9.91667 10C9.91667 9.58579 10.2525 9.25 10.6667 9.25H14.6667ZM7.09734 5.33301C7.48998 5.33309 7.72928 5.76564 7.52116 6.09863L5.08952 9.98828C4.89359 10.3013 4.43764 10.3015 4.24187 9.98828L1.8112 6.09863C1.60306 5.76561 1.84231 5.33301 2.23503 5.33301H7.09734ZM14.6667 5.25C15.0808 5.25011 15.4167 5.58585 15.4167 6C15.4167 6.41415 15.0808 6.74989 14.6667 6.75H9.33366C8.91945 6.75 8.58366 6.41421 8.58366 6C8.58366 5.58579 8.91945 5.25 9.33366 5.25H14.6667ZM14.6803 1.25C15.0946 1.25 15.4303 1.58579 15.4303 2C15.4303 2.41421 15.0946 2.75 14.6803 2.75H2.68034C2.26632 2.74978 1.93034 2.41408 1.93034 2C1.93034 1.58592 2.26632 1.25022 2.68034 1.25H14.6803Z" fill="#DBDBDD"/>
</svg>
