<svg width="16" height="16" viewBox="0 0 16 16" fill="none" xmlns="http://www.w3.org/2000/svg">
<path d="M14.6803 13.25C15.0945 13.2501 15.4303 13.5858 15.4303 14C15.4303 14.4142 15.0945 14.7499 14.6803 14.75H2.68034C2.26613 14.75 1.93034 14.4142 1.93034 14C1.93034 13.5858 2.26613 13.25 2.68034 13.25H14.6803ZM14.6657 9.25C15.0799 9.25 15.4157 9.58579 15.4157 10C15.4157 10.4142 15.0799 10.75 14.6657 10.75H10.6657C10.2516 10.7499 9.9157 10.4141 9.9157 10C9.9157 9.58587 10.2516 9.25014 10.6657 9.25H14.6657ZM4.24187 6.01172C4.43766 5.69845 4.89362 5.69859 5.08952 6.01172L7.52116 9.90137C7.72927 10.2343 7.48995 10.6669 7.09734 10.667H2.23503C1.84231 10.667 1.60306 10.2344 1.8112 9.90137L4.24187 6.01172ZM14.6657 5.25C15.0799 5.25 15.4157 5.58579 15.4157 6C15.4157 6.41421 15.0799 6.75 14.6657 6.75H9.33269C8.91857 6.74988 8.58269 6.41414 8.58269 6C8.58269 5.58586 8.91857 5.25012 9.33269 5.25H14.6657ZM14.6803 1.25C15.0945 1.25008 15.4303 1.58584 15.4303 2C15.4303 2.41416 15.0945 2.74992 14.6803 2.75H2.68034C2.26613 2.75 1.93034 2.41421 1.93034 2C1.93034 1.58579 2.26613 1.25 2.68034 1.25H14.6803Z" fill="#DBDBDD"/>
</svg>
