<svg width="20" height="20" viewBox="0 0 20 20" fill="none" xmlns="http://www.w3.org/2000/svg">
<path d="M2.97861 2.48438C2.35724 2.48438 1.85352 2.9881 1.85352 3.60947V16.3907C1.85352 17.0121 2.35724 17.5158 2.97862 17.5158H15.7598C16.3812 17.5158 16.8849 17.0121 16.8849 16.3907V15.1019C16.8849 14.7107 16.5678 14.3935 16.1766 14.3935C15.7853 14.3935 15.4682 14.7107 15.4682 15.1019V16.099H3.27031V3.90117H15.4682V4.80227C15.4682 5.19351 15.7853 5.51067 16.1766 5.51067C16.5678 5.51067 16.8849 5.19351 16.8849 4.80227V3.60947C16.8849 2.9881 16.3812 2.48438 15.7598 2.48438H2.97861Z" fill="#323A3D"/>
<path d="M13.1097 5.4966C13.3864 5.21995 13.8349 5.21995 14.1116 5.49659L17.8195 9.20449C18.2589 9.64387 18.2589 10.3563 17.8195 10.7956L14.1116 14.5036C13.8349 14.7802 13.3864 14.7802 13.1097 14.5036C12.8331 14.227 12.8331 13.7784 13.1097 13.5018L16.0003 10.6112H8.38965C7.99842 10.6112 7.68126 10.2941 7.68126 9.90285C7.68126 9.51162 7.99842 9.19446 8.38965 9.19446H15.8058L13.1097 6.49842C12.8331 6.22178 12.8331 5.77325 13.1097 5.4966Z" fill="#323A3D"/>
</svg>
