<svg width="16" height="16" viewBox="0 0 16 16" fill="none" xmlns="http://www.w3.org/2000/svg">
<path d="M4.6457 11.3663C4.65517 11.356 4.66854 11.3501 4.68256 11.3501H12.6823C12.7258 11.3501 12.7485 11.4018 12.7191 11.4339L11.3542 12.9231C11.3447 12.9334 11.3314 12.9393 11.3174 12.9393H3.31763C3.27413 12.9393 3.25138 12.8876 3.28077 12.8555L4.6457 11.3663Z" stroke="#F8F8F8" stroke-width="0.7"/>
<path d="M12.7091 3.15532C12.7399 3.1217 12.7959 3.1435 12.7959 3.1891L12.7959 11.3306C12.7959 11.3431 12.7912 11.3552 12.7828 11.3644L11.4262 12.8445C11.3954 12.8781 11.3394 12.8563 11.3394 12.8107L11.3394 4.66923C11.3394 4.65673 11.344 4.64467 11.3525 4.63545L12.7091 3.15532Z" stroke="#F8F8F8" stroke-width="0.7"/>
<path d="M4.5737 3.15532C4.60451 3.1217 4.66056 3.1435 4.66056 3.1891L4.66056 11.3306C4.66056 11.3431 4.65587 11.3552 4.64742 11.3644L3.29084 12.8445C3.26003 12.8781 3.20398 12.8563 3.20398 12.8107L3.20398 4.66923C3.20398 4.65673 3.20867 4.64467 3.21712 4.63545L4.5737 3.15532Z" stroke="#F8F8F8" stroke-width="0.7"/>
<path d="M4.6457 3.07674C4.65517 3.0664 4.66854 3.06052 4.68256 3.06052H12.6823C12.7258 3.06052 12.7485 3.11223 12.7191 3.1443L11.3542 4.63354C11.3447 4.64388 11.3314 4.64976 11.3174 4.64976H3.31763C3.27413 4.64976 3.25138 4.59805 3.28077 4.56598L4.6457 3.07674Z" stroke="#F8F8F8" stroke-width="0.7"/>
<rect x="3.20398" y="4.64978" width="8.13538" height="8.28955" rx="0.05" fill="#293933" stroke="#00AE42" stroke-width="0.7"/>
</svg>
