<svg width="16" height="16" viewBox="0 0 16 16" fill="none" xmlns="http://www.w3.org/2000/svg">
<rect x="3.2041" y="4.80396" width="8.13538" height="8.13538" rx="0.05" stroke="#262E30"/>
<path d="M4.64582 3.15047C4.65529 3.14013 4.66866 3.13425 4.68268 3.13425H12.6824C12.7259 3.13425 12.7487 3.18596 12.7193 3.21803L11.3543 4.70727C11.3449 4.71761 11.3315 4.72349 11.3175 4.72349H3.31775C3.27425 4.72349 3.2515 4.67178 3.28089 4.63971L4.64582 3.15047Z" stroke="#262E30"/>
<path d="M4.64582 11.3663C4.65529 11.356 4.66866 11.3501 4.68268 11.3501H12.6824C12.7259 11.3501 12.7487 11.4018 12.7193 11.4339L11.3543 12.9231C11.3449 12.9334 11.3315 12.9393 11.3175 12.9393H3.31775C3.27425 12.9393 3.2515 12.8876 3.28089 12.8555L4.64582 11.3663Z" fill="#DBFDE7" stroke="#00AE42"/>
<path d="M12.7961 10.9003V3.1891C12.7961 3.1435 12.74 3.1217 12.7092 3.15532L11.3526 4.63545C11.3442 4.64467 11.3395 4.65673 11.3395 4.66923L11.3395 12.3948" stroke="#262E30" stroke-linecap="round"/>
<path d="M4.66056 10.9753V3.1891C4.66056 3.1435 4.60451 3.1217 4.5737 3.15532L3.21712 4.63545C3.20867 4.64467 3.20398 4.65673 3.20398 4.66923L3.2041 12.4946" stroke="#262E30" stroke-linecap="round"/>
</svg>
