<svg width="16" height="16" viewBox="0 0 16 16" fill="none" xmlns="http://www.w3.org/2000/svg">
<path d="M4.6457 11.3664C4.65517 11.3561 4.66854 11.3502 4.68256 11.3502H12.6823C12.7258 11.3502 12.7485 11.4019 12.7191 11.434L11.3542 12.9232C11.3447 12.9335 11.3314 12.9394 11.3174 12.9394H3.31763C3.27413 12.9394 3.25138 12.8877 3.28077 12.8556L4.6457 11.3664Z" stroke="#F8F8F8" stroke-width="0.7"/>
<path d="M4.5737 3.15544C4.60451 3.12182 4.66056 3.14362 4.66056 3.18922L4.66056 11.3307C4.66056 11.3432 4.65587 11.3553 4.64742 11.3645L3.29084 12.8446C3.26003 12.8783 3.20398 12.8565 3.20398 12.8109L3.20398 4.66936C3.20398 4.65685 3.20867 4.64479 3.21712 4.63557L4.5737 3.15544Z" stroke="#F8F8F8" stroke-width="0.7"/>
<rect x="4.66052" y="3.06067" width="8.13538" height="8.28955" rx="0.05" fill="#293933" stroke="#00AE42" stroke-width="0.7"/>
<path d="M4.66056 3.06064L3.28077 4.5661C3.25138 4.59817 3.27413 4.64988 3.31763 4.64988H11.3174C11.3314 4.64988 11.3447 4.644 11.3542 4.63366L12.7959 3.06064" stroke="#F8F8F8" stroke-width="0.7" stroke-linecap="round"/>
<path d="M12.7959 3.06067L11.3525 4.63557C11.344 4.64479 11.3394 4.65685 11.3394 4.66936L11.3394 12.8109C11.3394 12.8565 11.3954 12.8783 11.4262 12.8446L12.7959 11.3502" stroke="#F8F8F8" stroke-width="0.7" stroke-linecap="round"/>
</svg>
