<svg width="16" height="16" viewBox="0 0 16 16" fill="none" xmlns="http://www.w3.org/2000/svg">
<path d="M4.64564 11.3663C4.65511 11.356 4.66848 11.3501 4.6825 11.3501H12.6822C12.7257 11.3501 12.7485 11.4018 12.7191 11.4339L11.3542 12.9231C11.3447 12.9334 11.3313 12.9393 11.3173 12.9393H3.31757C3.27407 12.9393 3.25131 12.8876 3.28071 12.8555L4.64564 11.3663Z" stroke="#262E30"/>
<path d="M12.709 3.15532C12.7398 3.1217 12.7959 3.1435 12.7959 3.1891L12.7959 11.3306C12.7959 11.3431 12.7912 11.3552 12.7827 11.3644L11.4262 12.8445C11.3953 12.8781 11.3393 12.8563 11.3393 12.8107L11.3393 4.66923C11.3393 4.65673 11.344 4.64467 11.3524 4.63545L12.709 3.15532Z" stroke="#262E30"/>
<path d="M4.57364 3.15532C4.60445 3.1217 4.6605 3.1435 4.6605 3.1891L4.6605 11.3306C4.6605 11.3431 4.65581 11.3552 4.64736 11.3644L3.29078 12.8445C3.25997 12.8781 3.20392 12.8563 3.20392 12.8107L3.20392 8.79454L3.20392 4.66923C3.20392 4.65672 3.20861 4.64467 3.21706 4.63545L4.57364 3.15532Z" fill="#DBFDE7" stroke="#00AE42"/>
<path d="M4.20384 4.64978H11.2892C11.3168 4.64978 11.3392 4.67217 11.3392 4.69978V12.8893C11.3392 12.9169 11.3168 12.9393 11.2892 12.9393H3.7218" stroke="#262E30" stroke-linecap="round"/>
<path d="M5.16528 3.06052L12.6824 3.06153C12.7259 3.06154 12.7486 3.11325 12.7193 3.14532L11.3543 4.63457C11.3448 4.6449 11.3315 4.65079 11.3175 4.65078L3.7087 4.64976" stroke="#262E30" stroke-linecap="round"/>
</svg>
