<svg width="16" height="16" viewBox="0 0 16 16" fill="none" xmlns="http://www.w3.org/2000/svg">
<path d="M13.4166 8.00004C13.4166 6.56345 12.846 5.1857 11.8301 4.16988C10.8143 3.15406 9.43657 2.58337 7.99998 2.58337C6.56339 2.58337 5.18564 3.15406 4.16982 4.16988C3.154 5.1857 2.58331 6.56345 2.58331 8.00004C2.58331 9.43663 3.154 10.8144 4.16982 11.8302C5.18564 12.846 6.56339 13.4167 7.99998 13.4167C9.43657 13.4167 10.8143 12.846 11.8301 11.8302C12.846 10.8144 13.4166 9.43663 13.4166 8.00004ZM1.33331 8.00004C1.33331 6.23193 2.03569 4.53624 3.28593 3.286C4.53618 2.03575 6.23187 1.33337 7.99998 1.33337C9.76809 1.33337 11.4638 2.03575 12.714 3.286C13.9643 4.53624 14.6666 6.23193 14.6666 8.00004C14.6666 9.76815 13.9643 11.4638 12.714 12.7141C11.4638 13.9643 9.76809 14.6667 7.99998 14.6667C6.23187 14.6667 4.53618 13.9643 3.28593 12.7141C2.03569 11.4638 1.33331 9.76815 1.33331 8.00004ZM5.75519 5.63806C5.96092 5.05733 6.513 4.66671 7.13019 4.66671H8.64842C9.55727 4.66671 10.2916 5.40369 10.2916 6.30994C10.2916 6.89848 9.97654 7.44275 9.46612 7.73702L8.62498 8.21879C8.61977 8.55733 8.34113 8.83337 7.99998 8.83337C7.65363 8.83337 7.37498 8.55473 7.37498 8.20837V7.85681C7.37498 7.63285 7.49477 7.42712 7.69008 7.31514L8.84373 6.65369C8.96613 6.58337 9.04165 6.45317 9.04165 6.31254C9.04165 6.09379 8.86456 5.91931 8.64842 5.91931H7.13019C7.04165 5.91931 6.96352 5.974 6.93488 6.05733L6.92446 6.08858C6.80988 6.4141 6.4505 6.58337 6.12758 6.46879C5.80467 6.35421 5.63279 5.99483 5.74738 5.67192L5.75779 5.64067L5.75519 5.63806ZM7.16665 10.5C7.16665 10.279 7.25444 10.0671 7.41072 9.91078C7.567 9.7545 7.77897 9.66671 7.99998 9.66671C8.22099 9.66671 8.43295 9.7545 8.58923 9.91078C8.74552 10.0671 8.83331 10.279 8.83331 10.5C8.83331 10.7211 8.74552 10.933 8.58923 11.0893C8.43295 11.2456 8.22099 11.3334 7.99998 11.3334C7.77897 11.3334 7.567 11.2456 7.41072 11.0893C7.25444 10.933 7.16665 10.7211 7.16665 10.5Z" fill="#909090"/>
</svg>
