<svg width="16" height="16" viewBox="0 0 16 16" fill="none" xmlns="http://www.w3.org/2000/svg">
<path d="M4.64576 11.3663C4.65523 11.356 4.6686 11.3501 4.68262 11.3501H12.6823C12.7259 11.3501 12.7486 11.4018 12.7192 11.4339L11.3543 12.9231C11.3448 12.9334 11.3314 12.9393 11.3174 12.9393H3.31769C3.27419 12.9393 3.25144 12.8876 3.28083 12.8555L4.64576 11.3663Z" stroke="#262E30" stroke-width="0.7"/>
<path d="M12.7091 3.15532C12.74 3.1217 12.796 3.1435 12.796 3.1891L12.796 11.3306C12.796 11.3431 12.7913 11.3552 12.7829 11.3644L11.4263 12.8445C11.3955 12.8781 11.3394 12.8563 11.3394 12.8107L11.3394 4.66923C11.3394 4.65673 11.3441 4.64467 11.3526 4.63545L12.7091 3.15532Z" stroke="#262E30" stroke-width="0.7"/>
<path d="M4.57376 3.15532C4.60457 3.1217 4.66062 3.1435 4.66062 3.1891L4.66062 11.3306C4.66062 11.3431 4.65593 11.3552 4.64748 11.3644L3.2909 12.8445C3.26009 12.8781 3.20404 12.8563 3.20404 12.8107L3.20404 4.66923C3.20404 4.65673 3.20873 4.64467 3.21718 4.63545L4.57376 3.15532Z" stroke="#262E30" stroke-width="0.7"/>
<rect x="3.20404" y="4.64978" width="8.13538" height="8.28955" rx="0.05" stroke="#262E30" stroke-width="0.7"/>
<path d="M4.64576 3.07674C4.65523 3.0664 4.6686 3.06052 4.68262 3.06052H12.6823C12.7259 3.06052 12.7486 3.11223 12.7192 3.1443L11.3543 4.63354C11.3448 4.64388 11.3314 4.64976 11.3174 4.64976H3.31769C3.27419 4.64976 3.25144 4.59805 3.28083 4.56598L4.64576 3.07674Z" fill="#DBFDE7" stroke="#00AE42" stroke-width="0.7"/>
</svg>
