<svg width="16" height="16" viewBox="0 0 16 16" fill="none" xmlns="http://www.w3.org/2000/svg">
<path d="M7.99992 2.58301C9.43651 2.58301 10.8143 3.15369 11.8301 4.16951C12.8459 5.18533 13.4166 6.56309 13.4166 7.99967C13.4166 9.43626 12.8459 10.814 11.8301 11.8298C10.8143 12.8457 9.43651 13.4163 7.99992 13.4163C6.56333 13.4163 5.18558 12.8457 4.16976 11.8298C3.15393 10.814 2.58325 9.43626 2.58325 7.99967C2.58325 6.56309 3.15393 5.18533 4.16976 4.16951C5.18558 3.15369 6.56333 2.58301 7.99992 2.58301ZM7.99992 14.6663C9.76803 14.6663 11.4637 13.964 12.714 12.7137C13.9642 11.4635 14.6666 9.76778 14.6666 7.99967C14.6666 6.23156 13.9642 4.53587 12.714 3.28563C11.4637 2.03539 9.76803 1.33301 7.99992 1.33301C6.23181 1.33301 4.53612 2.03539 3.28587 3.28563C2.03563 4.53587 1.33325 6.23156 1.33325 7.99967C1.33325 9.76778 2.03563 11.4635 3.28587 12.7137C4.53612 13.964 6.23181 14.6663 7.99992 14.6663ZM7.99992 4.66634C7.65356 4.66634 7.37492 4.94499 7.37492 5.29134V8.20801C7.37492 8.55436 7.65356 8.83301 7.99992 8.83301C8.34627 8.83301 8.62492 8.55436 8.62492 8.20801V5.29134C8.62492 4.94499 8.34627 4.66634 7.99992 4.66634ZM8.83325 10.4997C8.83325 10.2787 8.74545 10.0667 8.58917 9.91042C8.43289 9.75414 8.22093 9.66634 7.99992 9.66634C7.7789 9.66634 7.56694 9.75414 7.41066 9.91042C7.25438 10.0667 7.16658 10.2787 7.16658 10.4997C7.16658 10.7207 7.25438 10.9326 7.41066 11.0889C7.56694 11.2452 7.7789 11.333 7.99992 11.333C8.22093 11.333 8.43289 11.2452 8.58917 11.0889C8.74545 10.9326 8.83325 10.7207 8.83325 10.4997Z" fill="#D01B1B"/>
</svg>
