<svg width="16" height="16" viewBox="0 0 16 16" fill="none" xmlns="http://www.w3.org/2000/svg">
<path fill-rule="evenodd" clip-rule="evenodd" d="M12.4578 3.54602C12.4578 3.04724 12.0187 2.66449 11.5244 2.7312L8.07024 3.22365L4.65924 2.73335L4.65736 2.73309C4.16306 2.66638 3.72397 3.04913 3.72397 3.54791V9.95413C3.72397 10.3456 3.99733 10.6826 4.38157 10.7606L7.7881 11.5073L7.79098 11.5079C7.97614 11.5459 8.16597 11.5459 8.35113 11.5079L11.8 10.7606C12.1817 10.6828 12.4578 10.3464 12.4578 9.95413V3.54602ZM8.59068 10.3926V4.20323L11.4166 3.79951V9.77701L8.59068 10.3926ZM7.54954 4.20299L4.76511 3.80171V9.77928L7.54954 10.392V4.20299Z" fill="#06AE42"/>
<path d="M2.65722 4.02439C2.21062 4.02439 1.83594 4.3865 1.83594 4.84682V11.496C1.83594 11.886 2.11257 12.226 2.49674 12.3012L7.79143 13.3629C7.97628 13.4008 8.16627 13.4007 8.35112 13.3628L13.6449 12.3028C14.0275 12.2256 14.3043 11.8888 14.3043 11.496V4.84682C14.3043 4.3865 13.9296 4.02439 13.483 4.02439H13.2632V11.3158L8.14731 12.3402L8.14645 12.3403C8.09485 12.3501 8.04236 12.3498 7.99389 12.3404L2.87708 11.3158V4.02439H2.65722Z" fill="#06AE42"/>
</svg>
