<svg width="16" height="16" viewBox="0 0 16 16" fill="none" xmlns="http://www.w3.org/2000/svg">
<path fill-rule="evenodd" clip-rule="evenodd" d="M12.4558 3.54602C12.4558 3.04724 12.0167 2.66449 11.5224 2.7312L8.06829 3.22365L4.65728 2.73335L4.65541 2.73309C4.16111 2.66638 3.72202 3.04913 3.72202 3.54791V9.95413C3.72202 10.3456 3.99538 10.6826 4.37961 10.7606L7.78615 11.5073L7.78903 11.5079C7.97419 11.5459 8.16402 11.5459 8.34917 11.5079L11.798 10.7606C12.1798 10.6828 12.4558 10.3464 12.4558 9.95413V3.54602ZM8.58873 10.3926V4.20323L11.4147 3.79951V9.77701L8.58873 10.3926ZM7.54759 4.20299L4.76316 3.80171V9.77928L7.54759 10.392V4.20299Z" fill="#5C5C5C"/>
<path d="M2.65527 4.02439C2.20866 4.02439 1.83398 4.3865 1.83398 4.84682V11.496C1.83398 11.886 2.11062 12.226 2.49478 12.3012L7.78948 13.3629C7.97433 13.4008 8.16432 13.4007 8.34917 13.3628L13.6429 12.3028C14.0255 12.2256 14.3023 11.8888 14.3023 11.496V4.84682C14.3023 4.3865 13.9277 4.02439 13.4811 4.02439H13.2612V11.3158L8.14536 12.3402L8.1445 12.3403C8.0929 12.3501 8.04041 12.3498 7.99194 12.3404L2.87512 11.3158V4.02439H2.65527Z" fill="#5C5C5C"/>
</svg>
