<svg xmlns="http://www.w3.org/2000/svg" viewBox="0 0 1280 920" width="1280" height="920">
  <style>
    text { font-family: 'Helvetica Neue', Helvetica, Arial, 'PingFang SC', 'Microsoft YaHei', sans-serif; fill: #111827; }
    .title { font-size: 26px; font-weight: 700; }
    .subtitle { font-size: 13px; fill: #6b7280; }
    .section-label { font-size: 12px; font-weight: 700; letter-spacing: 0.08em; fill: #475569; }
    .node-title { font-size: 15px; font-weight: 700; }
    .node-text { font-size: 12px; fill: #475569; }
    .small { font-size: 11px; fill: #6b7280; }
    .mono { font-size: 11px; fill: #334155; }
  </style>
  <defs>
    <marker id="arrow-blue" markerWidth="10" markerHeight="7" refX="9" refY="3.5" orient="auto">
      <polygon points="0 0, 10 3.5, 0 7" fill="#2563eb"/>
    </marker>
    <marker id="arrow-orange" markerWidth="10" markerHeight="7" refX="9" refY="3.5" orient="auto">
      <polygon points="0 0, 10 3.5, 0 7" fill="#ea580c"/>
    </marker>
    <marker id="arrow-green" markerWidth="10" markerHeight="7" refX="9" refY="3.5" orient="auto">
      <polygon points="0 0, 10 3.5, 0 7" fill="#059669"/>
    </marker>
    <filter id="shadow" x="-20%" y="-20%" width="140%" height="140%">
      <feDropShadow dx="0" dy="2" stdDeviation="3" flood-color="#94a3b8" flood-opacity="0.20"/>
    </filter>
  </defs>
  <rect width="1280" height="920" fill="#ffffff"/>
  <text x="640" y="44" text-anchor="middle" class="title">Device AI 研发目录关系与启用开关</text>
  <text x="640" y="68" text-anchor="middle" class="subtitle">基于当前仓库真实规则：先过开关，再进 device profile，再按入口进入 /.doc/device/</text>
  <rect x="40" y="96" width="1200" height="150" rx="12" fill="#fff7ed" stroke="#fdba74" stroke-width="1.2" stroke-dasharray="7,4"/>
  <text x="56" y="118" class="section-label">ENABLE GATE</text>
  <rect x="40" y="272" width="1200" height="174" rx="12" fill="#eff6ff" stroke="#93c5fd" stroke-width="1.2" stroke-dasharray="7,4"/>
  <text x="56" y="294" class="section-label">PROFILE ENTRY</text>
  <rect x="40" y="472" width="1200" height="392" rx="12" fill="#f8fafc" stroke="#cbd5e1" stroke-width="1.2" stroke-dasharray="7,4"/>
  <text x="56" y="494" class="section-label">REAL KNOWLEDGE WORKBENCH</text>
  <rect x="78" y="138" width="300" height="80" rx="10" fill="#ffffff" stroke="#d1d5db" stroke-width="1.5" filter="url(#shadow)"/>
  <text x="98" y="164" class="node-title">`.cursor/rules/device-doc-context.mdc`</text>
  <text x="98" y="186" class="node-text">设备上下文总开关入口</text>
  <text x="98" y="204" class="small">先检查 `/openspec/ai-context/switch.json`，不直接全量加载 `/openspec/docs/device/`</text>
  <rect x="430" y="138" width="252" height="80" rx="10" fill="#ffffff" stroke="#d1d5db" stroke-width="1.5" filter="url(#shadow)"/>
  <text x="450" y="164" class="node-title">`/openspec/ai-context/switch.json`</text>
  <text x="450" y="186" class="node-text">当前值：</text>
  <text x="510" y="186" class="node-title" fill="#059669">`deviceDevelopProfile: true`</text>
  <text x="450" y="204" class="small">true 才进入 device profile</text>
  <polygon points="840,138 950,178 840,218 730,178" fill="#ffffff" stroke="#ea580c" stroke-width="1.8" filter="url(#shadow)"/>
  <text x="840" y="172" text-anchor="middle" class="node-title">开关判断</text>
  <text x="840" y="192" text-anchor="middle" class="node-text">deviceDevelopProfile</text>
  <rect x="1000" y="126" width="200" height="52" rx="10" fill="#f0fdf4" stroke="#86efac" stroke-width="1.5"/>
  <text x="1100" y="149" text-anchor="middle" class="node-title">启用</text>
  <text x="1100" y="166" text-anchor="middle" class="small">进入 device profile</text>
  <rect x="1000" y="186" width="200" height="52" rx="10" fill="#f8fafc" stroke="#cbd5e1" stroke-width="1.5"/>
  <text x="1100" y="209" text-anchor="middle" class="node-title">未启用</text>
  <text x="1100" y="226" text-anchor="middle" class="small">走仓库常规上下文</text>
  <rect x="120" y="320" width="360" height="88" rx="10" fill="#ffffff" stroke="#d1d5db" stroke-width="1.5" filter="url(#shadow)"/>
  <text x="142" y="347" class="node-title">`/openspec/ai-context/profiles/device/entry.md`</text>
  <text x="142" y="369" class="node-text">定义“如何进入设备上下文”</text>
  <text x="142" y="388" class="small">首次加载：readme → 开发流程 → OpenSpec 规则 → `.spec/README.md`</text>
  <rect x="522" y="320" width="330" height="88" rx="10" fill="#ffffff" stroke="#d1d5db" stroke-width="1.5" filter="url(#shadow)"/>
  <text x="544" y="347" class="node-title">`load-order.md`</text>
  <text x="544" y="369" class="node-text">规定默认读取顺序</text>
  <text x="544" y="388" class="small">并说明何时优先进入 `.rules/`、`.skills/`、`.spec/`</text>
  <rect x="892" y="320" width="280" height="88" rx="10" fill="#f0fdf4" stroke="#86efac" stroke-width="1.5" filter="url(#shadow)"/>
  <text x="912" y="347" class="node-title">统一行为</text>
  <text x="912" y="369" class="node-text">不机械扫描整个目录</text>
  <text x="912" y="388" class="small">先读入口与索引，再按任务相关性下钻</text>
  <rect x="84" y="530" width="1112" height="110" rx="14" fill="#ffffff" stroke="#94a3b8" stroke-width="1.8" filter="url(#shadow)"/>
  <text x="110" y="560" class="node-title">`/.doc/device/`</text>
  <text x="110" y="582" class="node-text">设备方向本地知识工作台，只保留 5 个固定入口：</text>
  <rect x="112" y="598" width="190" height="28" rx="8" fill="#eff6ff" stroke="#bfdbfe" stroke-width="1.2"/>
  <text x="207.0" y="616" text-anchor="middle" class="mono">`readme食用指南.md`</text>
  <rect x="320" y="598" width="160" height="28" rx="8" fill="#eff6ff" stroke="#bfdbfe" stroke-width="1.2"/>
  <text x="400.0" y="616" text-anchor="middle" class="mono">`开发流程.md`</text>
  <rect x="498" y="598" width="120" height="28" rx="8" fill="#fef2f2" stroke="#fecaca" stroke-width="1.2"/>
  <text x="558.0" y="616" text-anchor="middle" class="mono">`.rules/`</text>
  <rect x="636" y="598" width="120" height="28" rx="8" fill="#f0fdf4" stroke="#bbf7d0" stroke-width="1.2"/>
  <text x="696.0" y="616" text-anchor="middle" class="mono">`.skills/`</text>
  <rect x="774" y="598" width="120" height="28" rx="8" fill="#faf5ff" stroke="#ddd6fe" stroke-width="1.2"/>
  <text x="834.0" y="616" text-anchor="middle" class="mono">`.spec/`</text>
  <rect x="84" y="678" width="250" height="146" rx="12" fill="#ffffff" stroke="#bfdbfe" stroke-width="1.5" filter="url(#shadow)"/>
  <text x="104" y="705" class="node-title">`readme食用指南.md`</text>
  <text x="104" y="728" class="node-text">目录总说明与固定入口定义</text>
  <text x="104" y="748" class="small">推荐顺序：</text>
  <text x="122" y="768" class="small">1. 先读开发流程</text>
  <text x="122" y="786" class="small">2. 再进 `.spec/README.md`</text>
  <text x="122" y="804" class="small">3. 按主题索引/来源映射表继续</text>
  <rect x="362" y="678" width="250" height="146" rx="12" fill="#ffffff" stroke="#bfdbfe" stroke-width="1.5" filter="url(#shadow)"/>
  <text x="382" y="705" class="node-title">`开发流程.md`</text>
  <text x="382" y="728" class="node-text">设备研发标准流程</text>
  <text x="382" y="748" class="small">明确问题域 → 读知识 → 定位源码</text>
  <text x="382" y="766" class="small">→ 设计/实现 → 回补文档与规则</text>
  <text x="382" y="792" class="small">工具建议：Glob / ReadFile / rg / SemanticSearch</text>
  <rect x="640" y="678" width="170" height="146" rx="12" fill="#ffffff" stroke="#fecaca" stroke-width="1.5" filter="url(#shadow)"/>
  <text x="660" y="705" class="node-title">`.rules/`</text>
  <text x="660" y="728" class="node-text">规则与边界</text>
  <text x="660" y="748" class="small">目录与命名</text>
  <text x="660" y="766" class="small">文档迁移/归档</text>
  <text x="660" y="784" class="small">设备 OpenSpec 规则</text>
  <text x="660" y="802" class="small">Web Panels 约束</text>
  <rect x="834" y="678" width="170" height="146" rx="12" fill="#ffffff" stroke="#bbf7d0" stroke-width="1.5" filter="url(#shadow)"/>
  <text x="854" y="705" class="node-title">`.skills/`</text>
  <text x="854" y="728" class="node-text">技能与方法</text>
  <text x="854" y="748" class="small">设备知识检索</text>
  <text x="854" y="766" class="small">设备问题分析</text>
  <text x="854" y="784" class="small">文档沉淀</text>
  <text x="854" y="802" class="small">设备上下文进入</text>
  <rect x="1028" y="678" width="168" height="146" rx="12" fill="#ffffff" stroke="#ddd6fe" stroke-width="1.5" filter="url(#shadow)"/>
  <text x="1048" y="705" class="node-title">`.spec/`</text>
  <text x="1048" y="728" class="node-text">专题文档</text>
  <text x="1048" y="748" class="small">功能架构文档</text>
  <text x="1048" y="766" class="small">软件代码文档</text>
  <text x="1048" y="784" class="small">主题索引 / 来源映射</text>
  <text x="1048" y="802" class="small">设备 OpenSpec 背景</text>
  <path d="M 378 178 L 430 178" fill="none" stroke="#ea580c" stroke-width="2" marker-end="url(#arrow-orange)"/>
  <rect x="386" y="160" width="34" height="16" rx="4" fill="#ffffff" opacity="0.96"/>
  <text x="403" y="172" text-anchor="middle" class="small">检查</text>
  <path d="M 682 178 L 730 178" fill="none" stroke="#ea580c" stroke-width="2" marker-end="url(#arrow-orange)"/>
  <rect x="690" y="160" width="32" height="16" rx="4" fill="#ffffff" opacity="0.96"/>
  <text x="706" y="172" text-anchor="middle" class="small">读取</text>
  <path d="M 950 178 L 1000 152" fill="none" stroke="#059669" stroke-width="2" marker-end="url(#arrow-green)"/>
  <rect x="956" y="151" width="34" height="16" rx="4" fill="#ffffff" opacity="0.96"/>
  <text x="973" y="163" text-anchor="middle" class="small">true</text>
  <path d="M 950 178 L 1000 212" fill="none" stroke="#94a3b8" stroke-width="2" stroke-dasharray="6,4" marker-end="url(#arrow-orange)" opacity="0.8"/>
  <rect x="956" y="198" width="40" height="16" rx="4" fill="#ffffff" opacity="0.96"/>
  <text x="976" y="210" text-anchor="middle" class="small">false</text>
  <path d="M 1100 178 L 1100 242 L 300 242 L 300 320" fill="none" stroke="#2563eb" stroke-width="2.2" marker-end="url(#arrow-blue)"/>
  <rect x="806" y="244" width="88" height="16" rx="4" fill="#ffffff" opacity="0.96"/>
  <text x="850" y="256" text-anchor="middle" class="small">进入 profile</text>
  <path d="M 480 364 L 522 364" fill="none" stroke="#2563eb" stroke-width="2" marker-end="url(#arrow-blue)"/>
  <rect x="486" y="346" width="28" height="16" rx="4" fill="#ffffff" opacity="0.96"/>
  <text x="500" y="358" text-anchor="middle" class="small">补读</text>
  <path d="M 852 364 L 892 364" fill="none" stroke="#2563eb" stroke-width="2" marker-end="url(#arrow-blue)"/>
  <rect x="857" y="346" width="28" height="16" rx="4" fill="#ffffff" opacity="0.96"/>
  <text x="871" y="358" text-anchor="middle" class="small">约束</text>
  <path d="M 300 408 L 300 530" fill="none" stroke="#2563eb" stroke-width="2.2" marker-end="url(#arrow-blue)"/>
  <rect x="248" y="446" width="106" height="16" rx="4" fill="#ffffff" opacity="0.96"/>
  <text x="301" y="458" text-anchor="middle" class="small">回到真实知识源</text>
  <path d="M 687 408 L 687 530" fill="none" stroke="#2563eb" stroke-width="2.2" marker-end="url(#arrow-blue)" opacity="0.8"/>
  <path d="M 1032 408 L 1032 530" fill="none" stroke="#2563eb" stroke-width="2.2" marker-end="url(#arrow-blue)" opacity="0.8"/>
  <path d="M 207 640 L 207 678" fill="none" stroke="#2563eb" stroke-width="1.8" marker-end="url(#arrow-blue)"/>
  <path d="M 447 640 L 487 678" fill="none" stroke="#2563eb" stroke-width="1.8" marker-end="url(#arrow-blue)"/>
  <path d="M 558 626 L 725 678" fill="none" stroke="#2563eb" stroke-width="1.8" marker-end="url(#arrow-blue)"/>
  <path d="M 696 626 L 919 678" fill="none" stroke="#2563eb" stroke-width="1.8" marker-end="url(#arrow-blue)"/>
  <path d="M 834 626 L 1112 678" fill="none" stroke="#2563eb" stroke-width="1.8" marker-end="url(#arrow-blue)"/>
  <rect x="892" y="548" width="284" height="78" rx="10" fill="#fff7ed" stroke="#fdba74" stroke-width="1.4"/>
  <text x="912" y="573" class="node-title">设备域 OpenSpec 特例</text>
  <text x="912" y="594" class="node-text">若任务涉及 change / spec / proposal / design / tasks</text>
  <text x="912" y="612" class="small">必须先进入 `/.doc/device/.rules/03-openspec规则.md`，再进入 `.spec/`</text>
  <g transform="translate(72, 878)">
    <line x1="0" y1="8" x2="34" y2="8" stroke="#ea580c" stroke-width="2" marker-end="url(#arrow-orange)"/>
    <text x="42" y="12" class="small">开关/控制流</text>
    <line x1="160" y1="8" x2="194" y2="8" stroke="#2563eb" stroke-width="2" marker-end="url(#arrow-blue)"/>
    <text x="202" y="12" class="small">默认读取链路</text>
    <line x1="332" y1="8" x2="366" y2="8" stroke="#059669" stroke-width="2" marker-end="url(#arrow-green)"/>
    <text x="374" y="12" class="small">启用成功分支</text>
  </g>
  <text x="1228" y="898" text-anchor="end" class="small">source: `.cursor/rules/device-doc-context.mdc` + `openspec/ai-context/profiles/device/*` + `openspec/docs/device/*`</text>
</svg>