<svg width="16" height="16" viewBox="0 0 16 16" fill="none" xmlns="http://www.w3.org/2000/svg">
<path fill-rule="evenodd" clip-rule="evenodd" d="M2.55331 3.68866C1.97561 4.76153 1.5999 6.28488 1.5999 8.00039C1.5999 9.7159 1.97561 11.2393 2.55331 12.3121C3.14417 13.4094 3.85989 13.9004 4.4999 13.9004C5.13991 13.9004 5.85563 13.4094 6.44649 12.3121C7.02419 11.2393 7.3999 9.7159 7.3999 8.00039C7.3999 6.28488 7.02419 4.76153 6.44649 3.68866C5.85563 2.59134 5.13991 2.10039 4.4999 2.10039C3.85989 2.10039 3.14417 2.59134 2.55331 3.68866ZM1.49675 3.11974C2.17264 1.86451 3.20691 0.900391 4.4999 0.900391C5.79289 0.900391 6.82717 1.86451 7.50306 3.11974C8.19211 4.3994 8.5999 6.12605 8.5999 8.00039C8.5999 9.87473 8.19211 11.6014 7.50306 12.881C6.82717 14.1363 5.79289 15.1004 4.4999 15.1004C3.20691 15.1004 2.17264 14.1363 1.49675 12.881C0.807696 11.6014 0.399902 9.87473 0.399902 8.00039C0.399902 6.12605 0.807696 4.3994 1.49675 3.11974Z" fill="#5C5C5C"/>
<path d="M8.74219 4C8.27778 5.10304 8 6.49128 8 8C8 9.50872 8.27778 10.897 8.74219 12H5C4.17157 12 3.5 10.5247 3.5 8C3.5 5.47527 4.17157 4 5 4H8.74219Z" fill="#D9D9D9"/>
<path d="M8.97559 3.5C8.81735 3.80617 8.67553 4.14103 8.55176 4.5H5C4.91822 4.5 4.66189 4.588 4.4043 5.2373C4.16431 5.8424 4 6.77391 4 8C4 9.22609 4.16431 10.1576 4.4043 10.7627C4.66189 11.412 4.91822 11.5 5 11.5H8.55176C8.67553 11.859 8.81735 12.1938 8.97559 12.5H5C4.25337 12.5 3.75987 11.8501 3.47461 11.1309C3.17176 10.3672 3 9.29853 3 8C3 6.70147 3.17176 5.63284 3.47461 4.86914C3.75987 4.14989 4.25337 3.5 5 3.5H8.97559Z" fill="#5C5C5C"/>
<path fill-rule="evenodd" clip-rule="evenodd" d="M9.55331 3.68866C8.97561 4.76153 8.5999 6.28488 8.5999 8.00039C8.5999 9.7159 8.97561 11.2393 9.55331 12.3121C10.1442 13.4094 10.8599 13.9004 11.4999 13.9004C12.1399 13.9004 12.8556 13.4094 13.4465 12.3121C14.0242 11.2393 14.3999 9.7159 14.3999 8.00039C14.3999 6.28488 14.0242 4.76153 13.4465 3.68866C12.8556 2.59134 12.1399 2.10039 11.4999 2.10039C10.8599 2.10039 10.1442 2.59134 9.55331 3.68866ZM8.49675 3.11974C9.17264 1.86451 10.2069 0.900391 11.4999 0.900391C12.7929 0.900391 13.8272 1.86451 14.5031 3.11974C15.1921 4.3994 15.5999 6.12605 15.5999 8.00039C15.5999 9.87473 15.1921 11.6014 14.5031 12.881C13.8272 14.1363 12.7929 15.1004 11.4999 15.1004C10.2069 15.1004 9.17264 14.1363 8.49675 12.881C7.8077 11.6014 7.3999 9.87473 7.3999 8.00039C7.3999 6.12605 7.8077 4.3994 8.49675 3.11974Z" fill="#5C5C5C"/>
<ellipse cx="11.5" cy="8" rx="1" ry="2" fill="#D9D9D9" stroke="#5C5C5C" stroke-width="0.6" stroke-linejoin="round"/>
</svg>
