<svg width="16" height="16" viewBox="0 0 16 16" fill="none" xmlns="http://www.w3.org/2000/svg">
<path fill-rule="evenodd" clip-rule="evenodd" d="M1.2002 4.4852C1.2002 4.16545 1.4594 3.90625 1.77914 3.90625H11.704C12.0237 3.90625 12.2829 4.16545 12.2829 4.4852V14.41C12.2829 14.7298 12.0237 14.989 11.704 14.989H1.77914C1.4594 14.989 1.2002 14.7298 1.2002 14.41V4.4852ZM2.35809 5.06414V13.8311H11.125V5.06414H2.35809Z" fill="#5C5C5C"/>
<path fill-rule="evenodd" clip-rule="evenodd" d="M5.04083 1.31501C5.14105 1.23985 5.26294 1.19922 5.3882 1.19922H14.4108C14.6449 1.19922 14.856 1.34027 14.9456 1.55661C15.0352 1.77295 14.9857 2.02197 14.8201 2.18754L12.1134 4.89431C12.0048 5.00288 11.8575 5.06388 11.704 5.06388H1.77918C1.52998 5.06388 1.30875 4.90442 1.22994 4.66801C1.15114 4.4316 1.23245 4.17129 1.43181 4.02178L5.04083 1.31501ZM5.58118 2.35711L3.51602 3.90599H11.4642L13.0131 2.35711H5.58118Z" fill="#5C5C5C"/>
<path d="M7.19272 8.09357H14.4108L11.704 11.7026H3.58369L7.19272 8.09357Z" fill="#EBEBEB"/>
<path fill-rule="evenodd" clip-rule="evenodd" d="M8.09496 3.85352C8.44377 3.85352 8.72654 4.13628 8.72654 4.48509V7.19186C8.72654 7.54067 8.44377 7.82344 8.09496 7.82344C7.74615 7.82344 7.46338 7.54067 7.46338 7.19186V4.48509C7.46338 4.13628 7.74615 3.85352 8.09496 3.85352Z" fill="#5C5C5C"/>
<path d="M11.7041 4.48411L14.4109 1.77734V10.7999L11.7041 14.4089V4.48411Z" fill="#EBEBEB"/>
<path fill-rule="evenodd" clip-rule="evenodd" d="M14.6323 1.24331C14.8486 1.33292 14.9897 1.54402 14.9897 1.77818V10.8007C14.9897 10.926 14.949 11.0479 14.8739 11.1481L12.1671 14.7571C12.0176 14.9565 11.7573 15.0378 11.5209 14.959C11.2845 14.8802 11.125 14.659 11.125 14.4098V4.48495C11.125 4.3314 11.186 4.18415 11.2946 4.07557L14.0013 1.36881C14.1669 1.20323 14.4159 1.1537 14.6323 1.24331ZM12.2829 4.72476V12.6729L13.8318 10.6078V3.17589L12.2829 4.72476Z" fill="#5C5C5C"/>
</svg>
