<svg width="16" height="16" viewBox="0 0 16 16" fill="none" xmlns="http://www.w3.org/2000/svg">
<path d="M2.33895 2.09125C2.50557 1.76053 2.75677 1.48375 3.06502 1.29127C3.37328 1.09879 3.72668 0.998027 4.0865 1.00003H12.9855C13.7251 1.00003 14.4016 1.42236 14.7331 2.09125L15.7981 4.24569C16.0576 4.77069 16.1281 5.51969 15.6361 6.07657C15.2101 6.56456 14.6555 6.91231 14.0408 7.07679V13.026C14.0408 14.1157 13.1663 15 12.087 15H4.98428C3.905 15 3.03047 14.1157 3.03047 13.026V7.29924C2.2962 7.14368 1.59192 6.72135 1.16366 5.89769C0.891401 5.37424 0.997154 4.80335 1.20266 4.38802L2.33895 2.09125ZM4.09625 7.35524V13.0252C4.09625 13.5214 4.49377 13.9228 4.98428 13.9228H12.0878C12.5783 13.9228 12.9758 13.5214 12.9758 13.026V7.16546C12.429 7.12113 11.8387 6.93991 11.2095 6.59068C10.596 7.39335 9.50093 7.7309 8.53639 7.7309C7.61386 7.7309 6.57283 7.4229 5.94731 6.69413C5.73028 6.84754 5.497 6.97463 5.25204 7.07291C4.88154 7.22306 4.49243 7.31811 4.09625 7.35524ZM4.0865 2.07725C3.74974 2.07725 3.44223 2.26936 3.29148 2.57269L2.15669 4.86947C2.04419 5.09658 2.04869 5.28324 2.10794 5.39602C2.4162 5.98946 2.96297 6.25468 3.59449 6.29046C4.02448 6.31084 4.45379 6.23717 4.85453 6.07424C5.24529 5.9148 5.5003 5.70869 5.6068 5.54769C5.66175 5.46536 5.73705 5.39988 5.82481 5.35814C5.91257 5.3164 6.00955 5.29993 6.10557 5.31046C6.2013 5.31995 6.29275 5.35622 6.37016 5.41539C6.44757 5.47457 6.50803 5.55444 6.54508 5.64646C6.78209 6.2438 7.56511 6.65368 8.53714 6.65368C9.50768 6.65368 10.2922 6.2438 10.5285 5.64646C10.5586 5.57146 10.6044 5.50435 10.6627 5.45C10.7209 5.39565 10.7901 5.35542 10.8652 5.33224C10.9409 5.30841 11.0208 5.30197 11.0991 5.31339C11.1775 5.32481 11.2525 5.3538 11.319 5.39835C12.2115 5.99957 12.9225 6.14191 13.4588 6.09057C13.9919 6.03536 14.4856 5.77441 14.8418 5.35946C14.9453 5.2428 14.9866 5.00947 14.8463 4.72713L13.7813 2.57269C13.6306 2.26936 13.323 2.07725 12.9863 2.07725H4.0865ZM5.87156 10.8716C5.87156 10.5745 6.11082 10.3333 6.40483 10.3333H10.6672C10.9612 10.3333 11.1997 10.5745 11.1997 10.8716C11.1989 10.9432 11.1845 11.014 11.1573 11.0799C11.1302 11.1458 11.0907 11.2055 11.0412 11.2556C10.9918 11.3056 10.9333 11.3451 10.8691 11.3717C10.8049 11.3983 10.7363 11.4115 10.6672 11.4106H6.40483C6.33572 11.4115 6.26711 11.3983 6.20293 11.3717C6.13875 11.3451 6.08026 11.3056 6.0308 11.2556C5.98134 11.2055 5.94188 11.1458 5.91469 11.0799C5.88749 11.014 5.87309 10.9432 5.87231 10.8716H5.87156Z" fill="black" fill-opacity="0.65"/>
</svg>
