<svg fill="#000000" xmlns="http://www.w3.org/2000/svg"  viewBox="0 0 128 128" width="128px" height="128px"><path d="M114,1H67c-1.7,0-3,1.3-3,3v14.4c0,2.2,1.2,4.2,3,5.2c1.9,1.1,4.1,1.1,5.9,0c1.8-1.1,3.9-1.6,6-1.6c3.3,0,6.4,1.3,8.7,3.7 c2.3,2.4,3.5,5.5,3.3,8.9c-0.3,6.2-5.4,11.2-11.5,11.4c-2.3,0.1-4.5-0.5-6.5-1.6c-1.8-1.1-4.1-1.1-5.9,0c-1.9,1.1-3,3.1-3,5.2V64 l14.5,0l0.1,0L78.5,64c2.2,0,4.2,1.2,5.2,3c1.1,1.9,1.1,4.1,0,5.9c-1.1,2-1.7,4.2-1.6,6.5c0.2,6.2,5.2,11.2,11.4,11.5 c3.3,0.2,6.5-1,8.9-3.3c2.4-2.3,3.7-5.4,3.7-8.7c0-2.1-0.6-4.2-1.6-6c-1.1-1.8-1.1-4.1,0-5.9c1.1-1.9,3.1-3,5.2-3H121v50 c0,3.9-3.1,7-7,7H64v-11.4c0-2.2-1.2-4.2-3-5.2c-1.9-1.1-4.1-1.1-5.9,0c-1.8,1.1-3.9,1.6-6,1.6c-3.3,0-6.4-1.3-8.7-3.7 c-2.3-2.4-3.5-5.5-3.3-8.9c0.3-6.2,5.4-11.2,11.5-11.4c2.3-0.1,4.5,0.5,6.5,1.6c1.8,1.1,4.1,1.1,5.9,0c1.9-1.1,3-3.1,3-5.2V64 l-14.6,0.1c-2.1,0-4-1.2-5.1-3c-1.1-1.9-1.1-4.1,0-5.9c1.1-1.8,1.6-3.9,1.6-6c0-3.3-1.3-6.4-3.7-8.7c-2.4-2.3-5.5-3.5-8.9-3.3 c-6.2,0.3-11.2,5.4-11.4,11.5c-0.1,2.3,0.5,4.5,1.6,6.5c1.1,1.8,1.1,4.1,0,5.9c-0.9,1.6-2.5,2.7-4.4,3L4,64c-1.7,0-3,1.3-3,3v47 c0,7.2,5.8,13,13,13h100c7.2,0,13-5.8,13-13V14C127,6.8,121.2,1,114,1z"/></svg>