<?xml version="1.0" encoding="UTF-8" standalone="no"?>
<!-- Created with Inkscape (http://www.inkscape.org/) -->

<svg
   width="128mm"
   height="128mm"
   viewBox="0 0 128 128"
   version="1.1"
   id="svg851"
   inkscape:version="1.1 (c68e22c387, 2021-05-23)"
   sodipodi:docname="assemble.svg"
   xmlns:inkscape="http://www.inkscape.org/namespaces/inkscape"
   xmlns:sodipodi="http://sodipodi.sourceforge.net/DTD/sodipodi-0.dtd"
   xmlns="http://www.w3.org/2000/svg"
   xmlns:svg="http://www.w3.org/2000/svg">
  <sodipodi:namedview
     id="namedview853"
     pagecolor="#ffffff"
     bordercolor="#666666"
     borderopacity="1.0"
     inkscape:pageshadow="2"
     inkscape:pageopacity="0.0"
     inkscape:pagecheckerboard="0"
     inkscape:document-units="mm"
     showgrid="false"
     inkscape:zoom="1.0182449"
     inkscape:cx="397.25215"
     inkscape:cy="482.69329"
     inkscape:window-width="3440"
     inkscape:window-height="1361"
     inkscape:window-x="-9"
     inkscape:window-y="-9"
     inkscape:window-maximized="1"
     inkscape:current-layer="layer1" />
  <defs
     id="defs848" />
  <g
     inkscape:label="图层 1"
     inkscape:groupmode="layer"
     id="layer1">
    <g
       style="fill:#00ffff"
       id="g944"
       transform="matrix(0.63492063,0,0,0.63492063,23.365079,23.365079)">
      <path
         d="M 114,1 H 67 c -1.7,0 -3,1.3 -3,3 v 14.4 c 0,2.2 1.2,4.2 3,5.2 1.9,1.1 4.1,1.1 5.9,0 1.8,-1.1 3.9,-1.6 6,-1.6 3.3,0 6.4,1.3 8.7,3.7 2.3,2.4 3.5,5.5 3.3,8.9 -0.3,6.2 -5.4,11.2 -11.5,11.4 -2.3,0.1 -4.5,-0.5 -6.5,-1.6 -1.8,-1.1 -4.1,-1.1 -5.9,0 -1.9,1.1 -3,3.1 -3,5.2 V 64 h 14.5 0.1 -0.1 c 2.2,0 4.2,1.2 5.2,3 1.1,1.9 1.1,4.1 0,5.9 -1.1,2 -1.7,4.2 -1.6,6.5 0.2,6.2 5.2,11.2 11.4,11.5 3.3,0.2 6.5,-1 8.9,-3.3 2.4,-2.3 3.7,-5.4 3.7,-8.7 0,-2.1 -0.6,-4.2 -1.6,-6 -1.1,-1.8 -1.1,-4.1 0,-5.9 1.1,-1.9 3.1,-3 5.2,-3 H 121 v 50 c 0,3.9 -3.1,7 -7,7 H 64 v -11.4 c 0,-2.2 -1.2,-4.2 -3,-5.2 -1.9,-1.1 -4.1,-1.1 -5.9,0 -1.8,1.1 -3.9,1.6 -6,1.6 -3.3,0 -6.4,-1.3 -8.7,-3.7 -2.3,-2.4 -3.5,-5.5 -3.3,-8.9 0.3,-6.2 5.4,-11.2 11.5,-11.4 2.3,-0.1 4.5,0.5 6.5,1.6 1.8,1.1 4.1,1.1 5.9,0 1.9,-1.1 3,-3.1 3,-5.2 V 64 l -14.6,0.1 c -2.1,0 -4,-1.2 -5.1,-3 -1.1,-1.9 -1.1,-4.1 0,-5.9 1.1,-1.8 1.6,-3.9 1.6,-6 0,-3.3 -1.3,-6.4 -3.7,-8.7 -2.4,-2.3 -5.5,-3.5 -8.9,-3.3 -6.2,0.3 -11.2,5.4 -11.4,11.5 -0.1,2.3 0.5,4.5 1.6,6.5 1.1,1.8 1.1,4.1 0,5.9 -0.9,1.6 -2.5,2.7 -4.4,3 L 4,64 c -1.7,0 -3,1.3 -3,3 v 47 c 0,7.2 5.8,13 13,13 h 100 c 7.2,0 13,-5.8 13,-13 V 14 C 127,6.8 121.2,1 114,1 Z"
         id="path935"
         style="fill:#00ffff" />
    </g>
  </g>
</svg>
