<svg width="29" height="29" viewBox="0 0 29 29" fill="none" xmlns="http://www.w3.org/2000/svg">
<path d="M24.9013 14.4524C25.3751 14.3499 25.4636 14.0066 25.1002 13.6866L15.2645 5.08433C14.8995 4.7659 14.303 4.76434 13.938 5.08277L4.06973 13.6866C3.7047 14.0051 3.79324 14.3484 4.267 14.4509L5.45063 14.7056C5.92439 14.8081 6.31117 15.2881 6.31117 15.7727L6.31117 23.7817C6.31117 24.2663 6.70727 24.6624 7.19191 24.6624H11.3579C11.8426 24.6624 12.2387 24.2663 12.2387 23.7817L12.2387 19.9388C12.2387 19.4541 12.6347 19.058 13.1194 19.058H15.9293C16.414 19.058 16.8101 19.4541 16.8101 19.9388L16.8101 23.7817C16.8101 24.2663 17.2062 24.6624 17.6908 24.6624H21.978C22.4626 24.6624 22.8587 24.2663 22.8587 23.7817L22.8587 15.7727C22.8587 15.2881 23.2455 14.8081 23.7193 14.7072L24.9013 14.4524Z" stroke="#352F2D" stroke-miterlimit="10" stroke-linecap="round"/>
<path d="M11.8847 10.1327L14.1647 13.5247L14.1647 15.8447H14.8207L14.8207 13.5247L17.1007 10.1327H16.3087L14.4927 12.9167L12.6767 10.1327H11.8847Z" fill="#00AE42"/>
</svg>
