<svg width="28" height="28" viewBox="0 0 28 28" fill="none" xmlns="http://www.w3.org/2000/svg">
<path d="M24.0566 13.6077C24.5304 13.5052 24.6189 13.1619 24.2554 12.8419L14.4198 4.2396C14.0548 3.92117 13.4583 3.91962 13.0933 4.23805L3.225 12.8419C2.85997 13.1603 2.94851 13.5036 3.42227 13.6061L4.6059 13.8609C5.07967 13.9634 5.46645 14.4434 5.46645 14.928L5.46645 22.937C5.46645 23.4216 5.86254 23.8177 6.34718 23.8177H10.5132C10.9978 23.8177 11.3939 23.4216 11.3939 22.937L11.3939 19.094C11.3939 18.6094 11.79 18.2133 12.2747 18.2133H15.0846C15.5693 18.2133 15.9654 18.6094 15.9654 19.094L15.9654 22.937C15.9654 23.4216 16.3615 23.8177 16.8461 23.8177H21.1333C21.6179 23.8177 22.014 23.4216 22.014 22.937L22.014 14.928C22.014 14.4434 22.4008 13.9634 22.8745 13.8624L24.0566 13.6077Z" stroke="#352F2D" stroke-miterlimit="10" stroke-linecap="round"/>
<path d="M11.44 9.288V9.856H14.76L11.2 14.464V15H15.792V14.432H12.048L15.6 9.832V9.288H11.44Z" fill="#00AE42"/>
</svg>
