<svg width="14" height="14" viewBox="0 0 14 14" fill="none" xmlns="http://www.w3.org/2000/svg">
	<path d="M8.22243 6.56035C8.63821 6.10614 8.90168 5.50854 8.92775 4.84507C8.96892 3.78709 8.39464 2.8478 7.52465 2.37164C7.45055 2.33116 7.37371 2.29411 7.29549 2.25981C7.13906 2.19874 6.97096 2.16238 6.79395 2.15552C5.93974 2.1219 5.22001 2.78742 5.18708 3.64163C5.16786 4.14181 5.38811 4.59532 5.74488 4.89241C5.77301 4.91231 5.79977 4.93358 5.82653 4.95553C6.0996 5.18264 6.2924 5.50168 6.35895 5.86257C6.53117 5.80837 6.71504 5.7823 6.90578 5.78984C7.46565 5.81317 7.94867 6.11712 8.22243 6.56035Z" fill="#ACACAC" stroke="#262E30" stroke-width="0.5" stroke-miterlimit="10" stroke-linecap="round"/>
	<path d="M5.2236 7.34576C5.23115 7.15639 5.27095 6.97663 5.33681 6.80991C4.76322 6.70493 4.1519 6.78384 3.59546 7.07612C2.65824 7.56943 2.13199 8.53616 2.15463 9.52759C2.15669 9.61198 2.16287 9.69706 2.17247 9.78214C2.19786 9.94749 2.25069 10.1122 2.33302 10.2686C2.73097 11.0247 3.66751 11.3156 4.4236 10.917C4.86614 10.6837 5.1495 10.2665 5.22772 9.80821C5.23115 9.77391 5.23595 9.7396 5.24213 9.70598C5.31005 9.31215 5.52892 8.94783 5.87129 8.70563C5.46031 8.39757 5.20234 7.89877 5.2236 7.34576Z" fill="#ACACAC" stroke="#262E30" stroke-width="0.5" stroke-miterlimit="10" stroke-linecap="round"/>
	<path d="M11.1236 7.86357C10.7003 7.59667 10.1974 7.56031 9.76101 7.72154C9.72945 7.73527 9.69789 7.7483 9.66564 7.76065C9.27456 7.90473 8.82996 7.89033 8.4375 7.69341C8.31606 8.38364 7.761 8.91606 7.07214 9.01418C7.25534 9.60903 7.64299 10.1442 8.21109 10.5023C9.10715 11.067 10.2077 11.0396 11.055 10.5243C11.1271 10.4804 11.1977 10.4324 11.2663 10.3816C11.3974 10.2766 11.5133 10.149 11.6073 9.99943C12.0636 9.27558 11.8468 8.31983 11.1236 7.86357Z" fill="#ACACAC" stroke="#262E30" stroke-width="0.5" stroke-miterlimit="10" stroke-linecap="round"/>
	<path d="M6.8305 8.06773C7.15069 8.06773 7.41026 7.80816 7.41026 7.48797C7.41026 7.16777 7.15069 6.9082 6.8305 6.9082C6.5103 6.9082 6.25073 7.16777 6.25073 7.48797C6.25073 7.80816 6.5103 8.06773 6.8305 8.06773Z" stroke="#262E30" stroke-width="0.5" stroke-miterlimit="10" stroke-linecap="round"/>
	<circle cx="7" cy="7" r="6.75" stroke="#262E30" stroke-width="0.5"/>
	</svg>
	