<?xml version="1.0" standalone="no"?><!DOCTYPE svg PUBLIC "-//W3C//DTD SVG 1.1//EN" "http://www.w3.org/Graphics/SVG/1.1/DTD/svg11.dtd"><svg t="1637844661763" class="icon" viewBox="0 0 1024 1024" version="1.1" xmlns="http://www.w3.org/2000/svg" p-id="5140" xmlns:xlink="http://www.w3.org/1999/xlink" width="128" height="128"><defs><style type="text/css"></style></defs><path d="M512 53.248c129.707008 3.412992 237.739008 48.299008 324.096 134.656S967.339008 382.292992 970.752 512c-3.412992 129.707008-48.299008 237.739008-134.656 324.096S641.707008 967.339008 512 970.752c-129.707008-3.412992-237.739008-48.299008-324.096-134.656S56.660992 641.707008 53.248 512c3.412992-129.707008 48.299008-237.739008 134.656-324.096S382.292992 56.660992 512 53.248zM282.624 512c0 10.923008 3.755008 20.139008 11.264 27.648 7.508992 7.508992 16.724992 11.264 27.648 11.264h380.928c10.923008 0 20.139008-3.755008 27.648-11.264 7.508992-7.508992 11.264-16.724992 11.264-27.648 0-10.923008-3.755008-20.139008-11.264-27.648-7.508992-7.508992-16.724992-11.264-27.648-11.264H321.536c-10.923008 0-20.139008 3.755008-27.648 11.264-7.508992 7.508992-11.264 16.724992-11.264 27.648z" p-id="5141" fill="#d81e06"></path></svg>