<?xml version="1.0" standalone="no"?><!DOCTYPE svg PUBLIC "-//W3C//DTD SVG 1.1//EN" "http://www.w3.org/Graphics/SVG/1.1/DTD/svg11.dtd"><svg t="1635564200501" class="icon" viewBox="0 0 1024 1024" version="1.1" xmlns="http://www.w3.org/2000/svg" p-id="6509" xmlns:xlink="http://www.w3.org/1999/xlink" width="64" height="64"><defs><style type="text/css"></style></defs><path d="M384 467.968c0-5.376-1.984-10.048-5.952-14.08C374.08 449.92 369.344 448 364.032 448L83.968 448c-5.376 0-10.112 1.92-14.08 5.952C65.92 457.92 64 462.656 64 467.968s1.92 10.048 5.952 14.08L209.92 622.016C213.888 625.984 218.624 627.968 224 627.968s10.048-1.984 14.08-6.016l140.032-139.968C382.016 478.08 384 473.344 384 467.968zM960 352C960 369.664 945.664 384 928 384l-448 0C462.336 384 448 369.664 448 352l0 0C448 334.336 462.336 320 480 320l448 0C945.664 320 960 334.336 960 352L960 352zM960 480C960 497.664 945.664 512 928 512l-448 0C462.336 512 448 497.664 448 480l0 0C448 462.336 462.336 448 480 448l448 0C945.664 448 960 462.336 960 480L960 480zM960 608c0 17.6-14.336 32-32 32l-448 0C462.336 640 448 625.6 448 608l0 0C448 590.272 462.336 576 480 576l448 0C945.664 576 960 590.272 960 608L960 608zM960 736c0 17.6-14.336 32-32 32l-448 0C462.336 768 448 753.6 448 736l0 0C448 718.272 462.336 704 480 704l448 0C945.664 704 960 718.272 960 736L960 736z" p-id="6510" fill="#2c2c2c"></path></svg>