<svg width="14" height="14" viewBox="0 0 14 14" fill="none" xmlns="http://www.w3.org/2000/svg">
	<g clip-path="url(#clip0_1018_9482)">
	<path d="M4.88668 4.44397C5.56178 4.44397 6.10905 3.89687 6.10905 3.22198C6.10905 2.5471 5.56178 2 4.88668 2C4.21158 2 3.66431 2.5471 3.66431 3.22198C3.66431 3.89687 4.21158 4.44397 4.88668 4.44397Z" stroke="#ACACAC" stroke-width="0.5" stroke-miterlimit="10"/>
	<path d="M7.33077 4.44397C8.00587 4.44397 8.55314 3.89687 8.55314 3.22198C8.55314 2.5471 8.00587 2 7.33077 2C6.65567 2 6.1084 2.5471 6.1084 3.22198C6.1084 3.89687 6.65567 4.44397 7.33077 4.44397Z" stroke="#ACACAC" stroke-width="0.5" stroke-miterlimit="10"/>
	<path d="M9.77572 4.44397C10.4508 4.44397 10.9981 3.89687 10.9981 3.22198C10.9981 2.5471 10.4508 2 9.77572 2C9.10062 2 8.55334 2.5471 8.55334 3.22198C8.55334 3.89687 9.10062 4.44397 9.77572 4.44397Z" stroke="#ACACAC" stroke-width="0.5" stroke-miterlimit="10"/>
	<path d="M4.88668 8.69397C5.56178 8.69397 6.10905 8.14687 6.10905 7.47198C6.10905 6.7971 5.56178 6.25 4.88668 6.25C4.21158 6.25 3.66431 6.7971 3.66431 7.47198C3.66431 8.14687 4.21158 8.69397 4.88668 8.69397Z" stroke="#ACACAC" stroke-width="0.5" stroke-miterlimit="10"/>
	<path d="M7.33077 8.69397C8.00587 8.69397 8.55314 8.14687 8.55314 7.47198C8.55314 6.7971 8.00587 6.25 7.33077 6.25C6.65567 6.25 6.1084 6.7971 6.1084 7.47198C6.1084 8.14687 6.65567 8.69397 7.33077 8.69397Z" stroke="#ACACAC" stroke-width="0.5" stroke-miterlimit="10"/>
	<path d="M2.4421 8.69397C3.1172 8.69397 3.66447 8.14687 3.66447 7.47198C3.66447 6.7971 3.1172 6.25 2.4421 6.25C1.767 6.25 1.21973 6.7971 1.21973 7.47198C1.21973 8.14687 1.767 8.69397 2.4421 8.69397Z" stroke="#ACACAC" stroke-width="0.5" stroke-miterlimit="10"/>
	<path d="M9.77572 8.69397C10.4508 8.69397 10.9981 8.14687 10.9981 7.47198C10.9981 6.7971 10.4508 6.25 9.77572 6.25C9.10062 6.25 8.55334 6.7971 8.55334 7.47198C8.55334 8.14687 9.10062 8.69397 9.77572 8.69397Z" stroke="#ACACAC" stroke-width="0.5" stroke-miterlimit="10"/>
	<path d="M12.2202 8.69397C12.8953 8.69397 13.4425 8.14687 13.4425 7.47198C13.4425 6.7971 12.8953 6.25 12.2202 6.25C11.5451 6.25 10.9978 6.7971 10.9978 7.47198C10.9978 8.14687 11.5451 8.69397 12.2202 8.69397Z" stroke="#ACACAC" stroke-width="0.5" stroke-miterlimit="10"/>
	<path d="M6.10824 6.57092C6.78333 6.57092 7.33061 6.02382 7.33061 5.34894C7.33061 4.67405 6.78333 4.12695 6.10824 4.12695C5.43314 4.12695 4.88586 4.67405 4.88586 5.34894C4.88586 6.02382 5.43314 6.57092 6.10824 6.57092Z" stroke="#ACACAC" stroke-width="0.5" stroke-miterlimit="10"/>
	<path d="M3.66463 6.57092C4.33973 6.57092 4.887 6.02382 4.887 5.34894C4.887 4.67405 4.33973 4.12695 3.66463 4.12695C2.98953 4.12695 2.44226 4.67405 2.44226 5.34894C2.44226 6.02382 2.98953 6.57092 3.66463 6.57092Z" stroke="#ACACAC" stroke-width="0.5" stroke-miterlimit="10"/>
	<path d="M8.55318 6.57092C9.22828 6.57092 9.77555 6.02382 9.77555 5.34894C9.77555 4.67405 9.22828 4.12695 8.55318 4.12695C7.87808 4.12695 7.33081 4.67405 7.33081 5.34894C7.33081 6.02382 7.87808 6.57092 8.55318 6.57092Z" stroke="#ACACAC" stroke-width="0.5" stroke-miterlimit="10"/>
	<path d="M10.9978 6.57092C11.6729 6.57092 12.2201 6.02382 12.2201 5.34894C12.2201 4.67405 11.6729 4.12695 10.9978 4.12695C10.3227 4.12695 9.77539 4.67405 9.77539 5.34894C9.77539 6.02382 10.3227 6.57092 10.9978 6.57092Z" stroke="#ACACAC" stroke-width="0.5" stroke-miterlimit="10"/>
	<path d="M4.88668 12.9967C5.56178 12.9967 6.10905 12.4496 6.10905 11.7747C6.10905 11.0998 5.56178 10.5527 4.88668 10.5527C4.21158 10.5527 3.66431 11.0998 3.66431 11.7747C3.66431 12.4496 4.21158 12.9967 4.88668 12.9967Z" stroke="#ACACAC" stroke-width="0.5" stroke-miterlimit="10"/>
	<path d="M7.33077 12.9967C8.00587 12.9967 8.55314 12.4496 8.55314 11.7747C8.55314 11.0998 8.00587 10.5527 7.33077 10.5527C6.65567 10.5527 6.1084 11.0998 6.1084 11.7747C6.1084 12.4496 6.65567 12.9967 7.33077 12.9967Z" stroke="#ACACAC" stroke-width="0.5" stroke-miterlimit="10"/>
	<path d="M9.77572 12.9967C10.4508 12.9967 10.9981 12.4496 10.9981 11.7747C10.9981 11.0998 10.4508 10.5527 9.77572 10.5527C9.10062 10.5527 8.55334 11.0998 8.55334 11.7747C8.55334 12.4496 9.10062 12.9967 9.77572 12.9967Z" stroke="#ACACAC" stroke-width="0.5" stroke-miterlimit="10"/>
	<path d="M6.10824 10.8697C6.78333 10.8697 7.33061 10.3226 7.33061 9.64777C7.33061 8.97288 6.78333 8.42578 6.10824 8.42578C5.43314 8.42578 4.88586 8.97288 4.88586 9.64777C4.88586 10.3226 5.43314 10.8697 6.10824 10.8697Z" stroke="#ACACAC" stroke-width="0.5" stroke-miterlimit="10"/>
	<path d="M3.66463 10.8697C4.33973 10.8697 4.887 10.3226 4.887 9.64777C4.887 8.97288 4.33973 8.42578 3.66463 8.42578C2.98953 8.42578 2.44226 8.97288 2.44226 9.64777C2.44226 10.3226 2.98953 10.8697 3.66463 10.8697Z" stroke="#ACACAC" stroke-width="0.5" stroke-miterlimit="10"/>
	<path d="M8.55318 10.8697C9.22828 10.8697 9.77555 10.3226 9.77555 9.64777C9.77555 8.97288 9.22828 8.42578 8.55318 8.42578C7.87808 8.42578 7.33081 8.97288 7.33081 9.64777C7.33081 10.3226 7.87808 10.8697 8.55318 10.8697Z" stroke="#ACACAC" stroke-width="0.5" stroke-miterlimit="10"/>
	<path d="M10.9978 10.8697C11.6729 10.8697 12.2201 10.3226 12.2201 9.64777C12.2201 8.97288 11.6729 8.42578 10.9978 8.42578C10.3227 8.42578 9.77539 8.97288 9.77539 9.64777C9.77539 10.3226 10.3227 10.8697 10.9978 10.8697Z" stroke="#ACACAC" stroke-width="0.5" stroke-miterlimit="10"/>
	<path d="M10.5261 2H4.17537L1 7.49762L4.17537 12.9952H10.5261L13.7015 7.49762L10.5261 2Z" stroke="#262E30" stroke-width="0.5" stroke-miterlimit="10"/>
	</g>
	<defs>
	<clipPath id="clip0_1018_9482">
	<rect width="14" height="14" fill="white" transform="translate(0 14) rotate(-90)"/>
	</clipPath>
	</defs>
	</svg>
	