<svg width="17" height="15" viewBox="0 0 17 15" fill="none" xmlns="http://www.w3.org/2000/svg">
<path d="M2.45676 15C2.08689 15 1.73592 14.8589 1.46886 14.6023C1.20179 14.3444 1.05408 14.0045 1.05408 13.6437V10.3079C1.05408 10.1993 1.08953 10.1068 1.16752 10.0096C1.23843 9.94142 1.34714 9.9021 1.46768 9.9021C1.68747 9.9021 1.88127 10.0825 1.88127 10.2871V13.6021C1.88127 13.9085 2.14479 14.1675 2.45676 14.1675H14.3282C14.6401 14.1675 14.9037 13.9085 14.9037 13.6021V10.2235C14.9037 10.0073 15.0856 9.83851 15.3173 9.83851C15.5382 9.83851 15.7308 10.0189 15.7308 10.2235V13.5801C15.7308 14.3317 15.114 14.9376 14.3258 14.9572L2.45676 15ZM8.49882 8.89848C7.54755 8.89848 6.64709 8.49033 6.02906 7.77923L5.85535 7.5792L5.68163 7.77923C5.09315 8.48108 4.17733 8.89848 3.23196 8.89848C2.70492 8.89848 2.24642 8.80251 1.82928 8.60364L1.67802 8.51808C0.641665 7.95267 0 6.89239 0 5.74771C0 5.43552 0.0555401 5.10946 0.168984 4.75218L0.171347 4.74408V4.73483C0.171347 4.71633 0.171347 4.71633 0.174892 4.71287L0.183164 4.70477L1.78083 1.0175L1.78201 1.01519C1.98526 0.398905 2.60448 0 3.35959 0H13.7479C14.5137 0 15.1589 0.415093 15.3905 1.05912L16.8287 4.64233C16.831 4.65621 16.8357 4.66893 16.8405 4.67933C16.8452 4.6909 16.8499 4.70015 16.8499 4.71402V4.76605L16.8535 4.7753C16.9515 5.06321 17.0012 5.39158 17.0012 5.74886C17.0012 6.91205 16.3536 7.98389 15.3113 8.54814C14.8647 8.77823 14.3305 8.89964 13.7704 8.89964C12.812 8.89964 11.9269 8.50189 11.277 7.77923L11.1033 7.58036L10.9296 7.78039C10.6436 8.12148 10.2678 8.40361 9.84242 8.5967C9.42646 8.78286 8.96205 8.88808 8.49882 8.89848ZM11.6232 6.94674L11.6315 6.96061C12.0664 7.66592 12.8416 8.0868 13.7042 8.0868C14.1556 8.0868 14.5373 8.00123 14.8717 7.82664C15.6588 7.41849 16.1291 6.63339 16.1291 5.72689C16.1291 5.47136 16.0854 5.21236 16.0003 4.95799V4.89324L14.5551 1.33547C14.3825 0.868342 13.9228 0.818623 13.7267 0.796655C13.7149 0.795498 13.7019 0.794342 13.69 0.79203H13.6865H3.29577C2.87036 0.79203 2.58321 0.973561 2.46622 1.31581L0.913458 4.95452V4.99961C0.827193 5.25399 0.784652 5.51299 0.784652 5.76852C0.784652 6.65536 1.27506 7.45895 2.06326 7.86827C2.06326 7.86827 2.57139 8.07523 3.20951 8.08564C4.03552 8.08564 4.81072 7.66592 5.28104 6.96177L5.2834 6.95945L5.28458 6.95599C5.28813 6.94905 5.29167 6.94211 5.2964 6.93286C5.32003 6.8843 5.35785 6.80452 5.42402 6.73861L5.42639 6.7363L5.42875 6.73399C5.49965 6.64727 5.67454 6.58714 5.85535 6.58714C6.04087 6.58714 6.2004 6.65421 6.30439 6.77677L6.30557 6.77908L6.30794 6.78139C6.36584 6.83805 6.40602 6.91783 6.42611 6.95599L6.42729 6.9583L6.42847 6.96061C6.86334 7.66592 7.63027 8.0868 8.47991 8.0868C9.31538 8.0868 10.0823 7.66592 10.5302 6.96177L10.5396 6.94789V6.92014C10.5597 6.86695 10.5987 6.80914 10.6554 6.73514C10.7476 6.62646 10.8989 6.56749 11.082 6.56749C11.3585 6.56749 11.4779 6.69467 11.5074 6.73399L11.5098 6.73745L11.5133 6.73977C11.5724 6.79758 11.5972 6.85655 11.615 6.89933C11.6185 6.90742 11.6221 6.91552 11.6256 6.92245L11.6232 6.94674Z" fill="white"/>
<path d="M3.3384 5.0977C3.1186 5.0977 2.9248 4.91848 2.9248 4.71267C2.9248 4.50801 3.1186 4.32764 3.3384 4.32764H13.4254C13.6452 4.32764 13.839 4.50801 13.839 4.71267C13.839 4.91732 13.6452 5.0977 13.4254 5.0977H3.3384Z" fill="white"/>
</svg>
