<svg width="24" height="24" viewBox="0 0 24 24" fill="none" xmlns="http://www.w3.org/2000/svg">
<path d="M10.7382 14.3944C10.7319 14.0159 10.2511 13.565 9.642 12.9939C8.97025 12.3642 8.13459 11.5803 7.55716 10.5059C6.63062 8.78283 4.58604 7.58024 3.22356 7.45371C3.14937 7.44681 3.07748 7.44336 3.00961 7.44336C2.67374 7.44336 2.42068 7.52848 2.29588 7.68261C1.57927 8.57234 1.08638 9.97335 1.01046 11.3393C0.924771 12.8783 1.36762 14.1338 2.25619 14.8746C3.19653 15.6585 4.82414 16.1042 6.61222 16.0663C8.30655 16.0306 9.78693 15.5808 10.4759 14.8918C10.6548 14.713 10.7405 14.5502 10.7382 14.3944ZM9.49879 14.5583C8.84372 14.9344 7.73085 15.1834 6.59439 15.2076C6.53228 15.2087 6.46959 15.2093 6.40805 15.2093C4.90064 15.2093 3.55426 14.8372 2.80717 14.2143C2.13197 13.6519 1.79897 12.6477 1.86913 11.387C1.92837 10.3138 2.29473 9.1791 2.825 8.42625L2.91587 8.29685L3.07403 8.3049C3.39495 8.321 3.8309 8.44523 4.26915 8.64595C5.35901 9.14516 6.3051 9.99233 6.80029 10.9131C7.15744 11.5774 7.62272 12.1939 8.26342 12.8536C8.46931 13.0658 8.94494 13.5179 9.25896 13.8169C9.40965 13.9607 9.50397 14.0499 9.53388 14.0798L9.81971 14.3737L9.49879 14.5583Z" fill="#00AE42"/>
<path d="M12.9933 13.8688C12.3635 14.5406 11.5796 15.3763 10.5052 15.9537C8.78216 16.8802 7.57956 18.9242 7.45303 20.2873C7.4122 20.7267 7.49559 21.0649 7.68194 21.215C8.57166 21.9322 9.97267 22.425 11.3386 22.501C12.8776 22.5866 14.1332 22.1438 14.8739 21.2552C15.6578 20.3149 16.1035 18.6867 16.0656 16.8992C16.0299 15.2049 15.5802 13.7245 14.8912 13.0355C14.7146 12.8589 14.5542 12.7732 14.4 12.7732L14.3914 12.6582L14.3931 12.7732C14.0153 12.779 13.5644 13.2604 12.9933 13.8688ZM14.5576 14.0121C14.9343 14.6671 15.1828 15.78 15.2069 16.9165C15.2397 18.4791 14.859 19.9301 14.2142 20.7043C13.7053 21.315 12.8167 21.6515 11.7124 21.6515C11.6055 21.6515 11.4962 21.6486 11.3863 21.6423C10.3126 21.5825 9.17842 21.2161 8.42558 20.6864L8.29617 20.5956L8.30423 20.4374C8.32033 20.1165 8.44456 19.6805 8.64528 19.2423C9.14449 18.1524 9.99165 17.2063 10.9124 16.7111C11.5761 16.354 12.1932 15.8893 12.8529 15.248C13.0651 15.0415 13.5178 14.5665 13.8168 14.2519L13.8324 14.2358C13.9629 14.0983 14.0492 14.008 14.0791 13.9781C14.0894 13.9678 14.1004 13.9568 14.1113 13.9471L14.3764 13.6963L14.5576 14.0121Z" fill="#00AE42"/>
<path d="M15.8287 2.29634C14.9384 1.57915 13.5374 1.08627 12.172 1.01035C12.0472 1.00345 11.9224 1 11.8016 1C10.4357 1 9.31192 1.4463 8.63672 2.25608C7.85282 3.19642 7.40767 4.82518 7.44505 6.61211C7.48071 8.30644 7.93046 9.78682 8.61946 10.4758C8.79775 10.6541 8.95994 10.7387 9.1181 10.7381C9.49596 10.7318 9.94686 10.2509 10.518 9.64188C11.1477 8.97071 11.9316 8.13505 13.006 7.55704C14.729 6.63051 15.9316 4.5865 16.0582 3.22345C16.0984 2.78462 16.015 2.44645 15.8287 2.29634ZM15.207 3.07391C15.1909 3.39484 15.0666 3.83078 14.8659 4.26903C14.3667 5.3589 13.5196 6.30499 12.5988 6.80017C11.9345 7.15733 11.318 7.62261 10.6583 8.2633C10.4472 8.46805 9.99517 8.9431 9.69668 9.25712C9.61559 9.34282 9.55175 9.40953 9.50574 9.45727L9.50689 9.45842L9.44535 9.51996L9.42177 9.56654H9.39761L9.13478 9.81327L8.95361 9.4981C8.5769 8.84303 8.32845 7.73016 8.30429 6.5937C8.27151 5.03165 8.65225 3.58003 9.29696 2.8059C9.86001 2.13013 10.8642 1.79713 12.1243 1.86787C13.1975 1.92711 14.3322 2.29346 15.0851 2.82373L15.2145 2.91518L15.207 3.07391Z" fill="#00AE42"/>
<path d="M21.254 8.63718C20.3206 7.85903 18.6803 7.40813 16.898 7.44552C15.2037 7.48117 13.7233 7.93092 13.0343 8.61993C12.8554 8.79879 12.7697 8.96156 12.772 9.11799C12.7783 9.49643 13.2592 9.94733 13.8682 10.5184C14.54 11.1482 15.3756 11.9321 15.9531 13.0064C16.8796 14.7295 18.9236 15.9321 20.2866 16.0587C20.726 16.0995 21.0642 16.0161 21.2143 15.8297C21.9315 14.94 22.4244 13.539 22.5003 12.1731C22.5854 10.6335 22.1432 9.37795 21.254 8.63718ZM21.6422 12.1248C21.583 13.1985 21.2166 14.3327 20.6864 15.0855L20.5955 15.2149L20.4373 15.2075C20.1164 15.1919 19.6805 15.0677 19.2422 14.8664C18.1523 14.3672 17.2063 13.5195 16.7111 12.5992C16.3539 11.935 15.8886 11.3184 15.2479 10.6588C15.0426 10.4471 14.5676 9.99506 14.253 9.69542L14.3318 9.61145L14.2524 9.69485C14.1011 9.55106 14.0074 9.46134 13.9781 9.43201C13.9648 9.41878 13.9556 9.40958 13.947 9.40038L13.6974 9.13525L14.0131 8.9535C14.6682 8.57679 15.7811 8.32834 16.9175 8.30418C18.4802 8.27198 19.9318 8.65271 20.7053 9.29686C21.3788 9.85991 21.7124 10.8641 21.6422 12.1248Z" fill="#00AE42"/>
</svg>
