<svg width="20" height="20" viewBox="0 0 20 20" fill="none" xmlns="http://www.w3.org/2000/svg">
<path d="M10.0001 16L8.94134 14.9713C9.52611 14.4035 10.4739 14.4035 11.0587 14.9713L10.0001 16ZM2.05899 8.64946L1 7.62121C5.97055 2.79293 14.0295 2.79293 19 7.62121L17.941 8.64967C13.5552 4.38964 6.44477 4.38964 2.05899 8.64946ZM4.4415 10.9638L3.38251 9.93552C7.03722 6.38543 12.9632 6.38543 16.6179 9.93552L15.5589 10.9638C12.489 7.98193 7.51144 7.98193 4.4415 10.9638ZM7.08788 13.5348L6.02911 12.5066C8.22211 10.3764 11.7777 10.3764 13.9705 12.5066L12.9115 13.5348C11.3032 11.9731 8.69611 11.9731 7.08788 13.5348Z" fill="#B0B0B0"/>
<path d="M10.0002 16.0005L8.94139 14.9718C9.52617 14.404 10.4739 14.404 11.0587 14.9718L10.0002 16.0005ZM4.44156 10.9643L3.38257 9.93601C7.03727 6.38591 12.9633 6.38591 16.618 9.93601L15.559 10.9643C12.4891 7.98241 7.51149 7.98241 4.44156 10.9643ZM7.08794 13.5353L6.02917 12.5071C8.22217 10.3768 11.7777 10.3768 13.9705 12.5071L12.9115 13.5353C11.3033 11.9736 8.69617 11.9736 7.08794 13.5353Z" fill="#323A3D"/>
<path d="M10.0002 16.0005L8.94139 14.9718C9.52617 14.404 10.4739 14.404 11.0587 14.9718L10.0002 16.0005ZM4.44156 10.9643L3.38257 9.93601C7.03727 6.38591 12.9633 6.38591 16.618 9.93601L15.559 10.9643C12.4891 7.98241 7.51149 7.98241 4.44156 10.9643ZM7.08794 13.5353L6.02917 12.5071C8.22217 10.3768 11.7777 10.3768 13.9705 12.5071L12.9115 13.5353C11.3033 11.9736 8.69617 11.9736 7.08794 13.5353Z" fill="black" fill-opacity="0.2"/>
</svg>
