<svg width="14" height="17" viewBox="0 0 14 17" fill="none" xmlns="http://www.w3.org/2000/svg">
<path d="M10.9629 6.85166C10.3781 6.85166 9.8996 6.45292 9.8996 5.96558V1.88608C9.8996 1.39874 9.42112 1 8.83631 1H5.16369C4.57888 1 4.1004 1.39874 4.1004 1.88608V5.96558C4.1004 6.45292 3.62192 6.85166 3.0371 6.85166H1.56551C0.980694 6.85166 0.823327 7.14584 1.21675 7.50736L6.2844 12.1522C6.67782 12.5119 7.32218 12.5119 7.7156 12.1522L12.7833 7.50736C13.1767 7.14761 13.0193 6.85166 12.4345 6.85166H10.9629Z" fill="white"/>
<path d="M10.9629 6.85166C10.3781 6.85166 9.8996 6.45292 9.8996 5.96558V1.88608C9.8996 1.39874 9.42112 1 8.83631 1H5.16369C4.57888 1 4.1004 1.39874 4.1004 1.88608V5.96558C4.1004 6.45292 3.62192 6.85166 3.0371 6.85166H1.56551C0.980694 6.85166 0.823327 7.14584 1.21675 7.50736L6.2844 12.1522C6.67782 12.5119 7.32218 12.5119 7.7156 12.1522L12.7833 7.50736C13.1767 7.14761 13.0193 6.85166 12.4345 6.85166H10.9629V6.85166Z" stroke="#2B3436" stroke-width="0.7" stroke-miterlimit="10"/>
<path d="M2.71567 10.3145C2.50939 10.4261 2.3584 10.559 2.3584 10.7575C2.3584 11.3707 3.81511 11.3707 3.81511 11.9821C3.81511 12.5952 2.3584 12.5952 2.3584 13.2066C2.3584 13.8198 3.81511 13.8198 3.81511 14.4329C3.81511 15.0461 2.3584 15.0461 2.3584 15.6593" stroke="#2B3436" stroke-width="0.7" stroke-miterlimit="10" stroke-linecap="round"/>
<path d="M7.30926 13.958C7.54531 14.0767 7.7282 14.2167 7.7282 14.4329C7.7282 15.0461 6.27148 15.0461 6.27148 15.6593" stroke="#2B3436" stroke-width="0.7" stroke-miterlimit="10" stroke-linecap="round"/>
<path d="M10.4088 11.1172C10.8171 11.406 11.6423 11.5212 11.6423 11.982C11.6423 12.5952 10.1855 12.5952 10.1855 13.2066C10.1855 13.8197 11.6423 13.8197 11.6423 14.4329C11.6423 15.0461 10.1855 15.0461 10.1855 15.6592" stroke="#2B3436" stroke-width="0.7" stroke-miterlimit="10" stroke-linecap="round"/>
</svg>
