<svg width="16" height="16" viewBox="0 0 16 16" fill="none" xmlns="http://www.w3.org/2000/svg">
<path d="M14.5192 2.88027H12.6761V1.38505C12.6761 0.704766 12.3318 0 11.6554 0H4.28795C3.61155 0 2.86385 0.704766 2.86385 1.38505V2.87852H1.42236C0.745957 2.87852 0 3.58504 0 4.26707V8.7947C0 9.47499 0.744218 9.87022 1.42236 9.87022H2.86211V14.4853C2.86211 15.1673 3.60981 15.5556 4.28621 15.5556H11.6536C12.33 15.5556 12.6743 15.1673 12.6743 14.4853V9.86847H14.5192C15.1974 9.86847 15.5556 9.47499 15.5556 8.79296V4.26707C15.5556 3.58678 15.1974 2.88027 14.5192 2.88027ZM3.72109 1.38855C3.72109 1.1647 4.09842 0.81494 4.32273 0.81494H11.6154C11.8397 0.81494 11.8171 1.1647 11.8171 1.38855V2.86803H3.72109V1.38855ZM11.8171 14.2982C11.8171 14.5238 11.6415 14.7161 11.4171 14.7161H4.1245C3.90019 14.7161 3.72109 14.522 3.72109 14.2982V8.25607C3.72109 8.03048 3.90019 7.84861 4.1245 7.84861H11.4189C11.6432 7.84861 11.8188 8.03048 11.8188 8.25607V14.2982H11.8171ZM14.6514 8.77197C14.6514 8.99582 14.6757 9.02205 14.4531 9.02205H12.6274V8.3645C12.6274 7.68946 12.2866 6.98645 11.6154 6.98645H4.32273C3.65154 6.98645 2.91254 7.68946 2.91254 8.3645V9.02205H1.4867C1.26239 9.02205 0.888541 8.99582 0.888541 8.77197V4.28805C0.888541 4.06421 1.26239 3.72844 1.4867 3.72844H14.4531C14.6757 3.72844 14.6514 4.06246 14.6514 4.28805V8.77197ZM10.6764 9.63763H4.94697C4.83916 9.63588 4.73483 9.6761 4.65832 9.75305C4.58181 9.82824 4.53834 9.93142 4.53834 10.0398C4.53834 10.2689 4.72092 10.4421 4.94697 10.4421H10.6781C10.9042 10.4421 11.0868 10.2672 11.0868 10.0398C11.0868 9.93142 11.0433 9.82824 10.9668 9.75305C10.8885 9.67785 10.7842 9.63588 10.6764 9.63763ZM10.6764 12.0177H4.94697C4.8009 12.0177 4.66701 12.0964 4.59398 12.2223C4.52095 12.35 4.52095 12.5057 4.59398 12.6333C4.66701 12.761 4.8009 12.8379 4.94697 12.8379H10.6781C10.8242 12.8379 10.9581 12.7592 11.0311 12.6333C11.1042 12.5057 11.1042 12.35 11.0311 12.2223C10.9581 12.0947 10.8225 12.0177 10.6764 12.0177ZM12.5561 4.7235C12.5561 5.05752 12.8256 5.32859 13.1577 5.32859C13.4898 5.32859 13.7593 5.05752 13.7593 4.7235C13.7593 4.38948 13.4898 4.11842 13.1577 4.11842C12.8256 4.11842 12.5561 4.38948 12.5561 4.7235Z" fill="#262E30"/>
</svg>
