<svg width="13" height="18" viewBox="0 0 13 18" fill="none" xmlns="http://www.w3.org/2000/svg">
<path fill-rule="evenodd" clip-rule="evenodd" d="M9.13055 11.4999L9.54739 11.2269C11.0783 10.2243 12.0851 8.49342 12.0851 6.52857C12.0851 3.43686 9.58855 0.923232 6.5 0.923232C3.41145 0.923232 0.914937 3.43686 0.914937 6.52857C0.914937 8.49344 1.92176 10.2244 3.45266 11.2269L3.86951 11.4999V12.7268H9.13055V11.4999ZM10.0455 12.0013V12.7268C10.0455 13.2367 9.63585 13.65 9.13055 13.65H3.86951C3.3642 13.65 2.95457 13.2367 2.95457 12.7268V12.0013C1.1758 10.8365 0 8.82044 0 6.52857C0 2.92294 2.91015 0 6.5 0C10.0899 0 13 2.92294 13 6.52857C13 8.82041 11.8242 10.8364 10.0455 12.0013Z" fill="#262E30"/>
<path fill-rule="evenodd" clip-rule="evenodd" d="M4.5498 14.7873C4.5498 14.5181 4.72889 14.2998 4.9498 14.2998H8.04981C8.27072 14.2998 8.4498 14.5181 8.4498 14.7873C8.4498 15.0565 8.27072 15.2748 8.04981 15.2748H4.9498C4.72889 15.2748 4.5498 15.0565 4.5498 14.7873Z" fill="#262E30"/>
<path fill-rule="evenodd" clip-rule="evenodd" d="M5.2002 16.7375C5.2002 16.4683 5.45417 16.25 5.76746 16.25H7.23293C7.54622 16.25 7.8002 16.4683 7.8002 16.7375C7.8002 17.0067 7.54622 17.225 7.23293 17.225H5.76746C5.45417 17.225 5.2002 17.0067 5.2002 16.7375Z" fill="#262E30"/>
<path fill-rule="evenodd" clip-rule="evenodd" d="M7.38328 3.28598C7.41862 3.03581 7.6501 2.86139 7.90032 2.89641C8.13964 2.9299 8.39727 3.05111 8.62921 3.19639C8.87108 3.3479 9.12494 3.55085 9.36033 3.78987C9.82199 4.25865 10.2648 4.92065 10.344 5.66664C10.3707 5.9178 10.1886 6.14327 9.93728 6.17024C9.686 6.19721 9.46067 6.01547 9.434 5.7643C9.38518 5.30447 9.0942 4.82437 8.70783 4.43203C8.5192 4.24049 8.32048 4.08313 8.14263 3.97172C7.95484 3.85409 7.8256 3.8098 7.77235 3.80235C7.52214 3.76733 7.34795 3.53614 7.38328 3.28598Z" fill="#262E30"/>
</svg>
