<svg width="13" height="14" viewBox="0 0 13 14" fill="none" xmlns="http://www.w3.org/2000/svg">
<path d="M2.77449 1C2.77449 1.83878 1.12891 1.83878 1.12891 2.6759C1.12891 3.51468 2.77449 3.51468 2.77449 4.35347C2.77449 5.19225 1.12891 5.19225 1.12891 6.03103C1.12891 6.86981 2.77449 6.86981 2.77449 7.70859C2.77449 8.54737 1.12891 8.54737 1.12891 9.38616" stroke="#2B3436" stroke-width="0.7" stroke-miterlimit="10" stroke-linecap="round"/>
<path d="M7.19637 1C7.19637 1.83878 5.55078 1.83878 5.55078 2.6759C5.55078 3.51468 7.19637 3.51468 7.19637 4.35347C7.19637 5.19225 5.55078 5.19225 5.55078 6.03103C5.55078 6.86981 7.19637 6.86981 7.19637 7.70859C7.19637 8.54737 5.55078 8.54737 5.55078 9.38616" stroke="#2B3436" stroke-width="0.7" stroke-miterlimit="10" stroke-linecap="round"/>
<path d="M11.6192 1C11.6192 1.83878 9.97363 1.83878 9.97363 2.6759C9.97363 3.51468 11.6192 3.51468 11.6192 4.35347C11.6192 5.19225 9.97363 5.19225 9.97363 6.03103C9.97363 6.86981 11.6192 6.86981 11.6192 7.70859C11.6192 8.54737 9.97363 8.54737 9.97363 9.38616" stroke="#2B3436" stroke-width="0.7" stroke-miterlimit="10" stroke-linecap="round"/>
<rect x="0.35" y="11.35" width="12.3" height="2.3" rx="1.15" stroke="#2B3436" stroke-width="0.7"/>
</svg>
