<svg width="13" height="13" viewBox="0 0 13 13" fill="none" xmlns="http://www.w3.org/2000/svg">
<path d="M5.88526 8.09438C5.88144 7.86567 5.59086 7.59317 5.22278 7.24803C4.81681 6.86743 4.31178 6.39368 3.96281 5.74441C3.40286 4.70306 2.16722 3.97628 1.34381 3.89981C1.29897 3.89564 1.25552 3.89355 1.21451 3.89355C1.01152 3.89355 0.858586 3.945 0.783162 4.03815C0.350079 4.57585 0.0522048 5.42255 0.00632446 6.24805C-0.0454647 7.17816 0.222171 7.93693 0.759179 8.38461C1.32747 8.85836 2.31112 9.12773 3.39174 9.10479C4.4157 9.08324 5.31037 8.81143 5.72677 8.39504C5.83486 8.28694 5.88665 8.18857 5.88526 8.09438ZM5.13623 8.19344C4.74034 8.42076 4.06778 8.57126 3.38096 8.58586C3.34342 8.58655 3.30554 8.5869 3.26835 8.5869C2.35734 8.5869 1.54366 8.36202 1.09216 7.98559C0.684102 7.64566 0.482854 7.03879 0.525259 6.2769C0.561059 5.62832 0.782467 4.94254 1.10293 4.48757L1.15785 4.40936L1.25344 4.41423C1.44738 4.42396 1.71085 4.49904 1.9757 4.62034C2.63436 4.92204 3.20613 5.43402 3.5054 5.99049C3.72124 6.39194 4.00243 6.76455 4.38963 7.16322C4.51407 7.29148 4.80151 7.56467 4.99129 7.74541C5.08236 7.83231 5.13936 7.88618 5.15743 7.90426L5.33018 8.08187L5.13623 8.19344Z" fill="#323A3D"/>
<path d="M5.88526 8.09438C5.88144 7.86567 5.59086 7.59317 5.22278 7.24803C4.81681 6.86743 4.31178 6.39368 3.96281 5.74441C3.40286 4.70306 2.16722 3.97628 1.34381 3.89981C1.29897 3.89564 1.25552 3.89355 1.21451 3.89355C1.01152 3.89355 0.858586 3.945 0.783162 4.03815C0.350079 4.57585 0.0522048 5.42255 0.00632446 6.24805C-0.0454647 7.17816 0.222171 7.93693 0.759179 8.38461C1.32747 8.85836 2.31112 9.12773 3.39174 9.10479C4.4157 9.08324 5.31037 8.81143 5.72677 8.39504C5.83486 8.28694 5.88665 8.18857 5.88526 8.09438ZM5.13623 8.19344C4.74034 8.42076 4.06778 8.57126 3.38096 8.58586C3.34342 8.58655 3.30554 8.5869 3.26835 8.5869C2.35734 8.5869 1.54366 8.36202 1.09216 7.98559C0.684102 7.64566 0.482854 7.03879 0.525259 6.2769C0.561059 5.62832 0.782467 4.94254 1.10293 4.48757L1.15785 4.40936L1.25344 4.41423C1.44738 4.42396 1.71085 4.49904 1.9757 4.62034C2.63436 4.92204 3.20613 5.43402 3.5054 5.99049C3.72124 6.39194 4.00243 6.76455 4.38963 7.16322C4.51407 7.29148 4.80151 7.56467 4.99129 7.74541C5.08236 7.83231 5.13936 7.88618 5.15743 7.90426L5.33018 8.08187L5.13623 8.19344Z" fill="black" fill-opacity="0.2"/>
<path d="M7.24816 7.77657C6.86756 8.18255 6.39382 8.68758 5.74454 9.03654C4.70319 9.59649 3.97641 10.8318 3.89994 11.6555C3.87526 11.9211 3.92566 12.1255 4.03828 12.2162C4.57598 12.6496 5.42268 12.9475 6.24818 12.9934C7.1783 13.0452 7.93706 12.7775 8.38474 12.2405C8.85849 11.6722 9.12787 10.6882 9.10493 9.60796C9.08338 8.584 8.81157 7.68933 8.39517 7.27293C8.28846 7.16623 8.19149 7.11444 8.09834 7.11444L8.09313 7.04492L8.09417 7.11444C7.86581 7.11791 7.59331 7.40884 7.24816 7.77657ZM8.19358 7.86312C8.42124 8.25901 8.57139 8.93158 8.58599 9.61839C8.6058 10.5628 8.37571 11.4397 7.98607 11.9075C7.67846 12.2767 7.14146 12.48 6.47411 12.48C6.40946 12.48 6.34342 12.4783 6.27703 12.4744C5.6281 12.4383 4.94268 12.2169 4.4877 11.8968L4.40949 11.8418L4.41436 11.7463C4.42409 11.5523 4.49917 11.2889 4.62047 11.024C4.92217 10.3653 5.43415 9.79357 5.99062 9.4943C6.39173 9.27846 6.76468 8.99762 7.16335 8.61007C7.29161 8.48529 7.56515 8.19819 7.74589 8.00806L7.75528 7.99833C7.83418 7.91526 7.88632 7.86069 7.90439 7.84261C7.91065 7.83636 7.91725 7.82975 7.92385 7.82384L8.08409 7.6723L8.19358 7.86312Z" fill="#323A3D"/>
<path d="M7.24816 7.77657C6.86756 8.18255 6.39382 8.68758 5.74454 9.03654C4.70319 9.59649 3.97641 10.8318 3.89994 11.6555C3.87526 11.9211 3.92566 12.1255 4.03828 12.2162C4.57598 12.6496 5.42268 12.9475 6.24818 12.9934C7.1783 13.0452 7.93706 12.7775 8.38474 12.2405C8.85849 11.6722 9.12787 10.6882 9.10493 9.60796C9.08338 8.584 8.81157 7.68933 8.39517 7.27293C8.28846 7.16623 8.19149 7.11444 8.09834 7.11444L8.09313 7.04492L8.09417 7.11444C7.86581 7.11791 7.59331 7.40884 7.24816 7.77657ZM8.19358 7.86312C8.42124 8.25901 8.57139 8.93158 8.58599 9.61839C8.6058 10.5628 8.37571 11.4397 7.98607 11.9075C7.67846 12.2767 7.14146 12.48 6.47411 12.48C6.40946 12.48 6.34342 12.4783 6.27703 12.4744C5.6281 12.4383 4.94268 12.2169 4.4877 11.8968L4.40949 11.8418L4.41436 11.7463C4.42409 11.5523 4.49917 11.2889 4.62047 11.024C4.92217 10.3653 5.43415 9.79357 5.99062 9.4943C6.39173 9.27846 6.76468 8.99762 7.16335 8.61007C7.29161 8.48529 7.56515 8.19819 7.74589 8.00806L7.75528 7.99833C7.83418 7.91526 7.88632 7.86069 7.90439 7.84261C7.91065 7.83636 7.91725 7.82975 7.92385 7.82384L8.08409 7.6723L8.19358 7.86312Z" fill="black" fill-opacity="0.2"/>
<path d="M8.96176 0.783442C8.42371 0.350011 7.57701 0.0521367 6.75186 0.00625641C6.67643 0.00208547 6.60101 0 6.52802 0C5.70252 0 5.02335 0.269721 4.6153 0.759111C4.14155 1.3274 3.87252 2.31174 3.89512 3.39167C3.91667 4.41563 4.18847 5.3103 4.60487 5.7267C4.71262 5.83445 4.81064 5.88554 4.90622 5.8852C5.13458 5.88137 5.40708 5.5908 5.75223 5.22271C6.13282 4.81709 6.60657 4.31206 7.25585 3.96274C8.29719 3.40279 9.02398 2.1675 9.10044 1.34374C9.12477 1.07854 9.07437 0.874159 8.96176 0.783442ZM8.58603 1.25337C8.57629 1.44732 8.50122 1.71078 8.37991 1.97564C8.07822 2.6343 7.56623 3.20606 7.00976 3.50533C6.60831 3.72117 6.23571 4.00236 5.83703 4.38957C5.70947 4.5133 5.43628 4.8004 5.25588 4.99018C5.20688 5.04197 5.16829 5.08229 5.14049 5.11114L5.14118 5.11183L5.10399 5.14902L5.08974 5.17718H5.07514L4.9163 5.32629L4.80681 5.13582C4.57915 4.73992 4.429 4.06736 4.4144 3.38055C4.39459 2.43652 4.62468 1.55924 5.01432 1.0914C5.3546 0.682991 5.96147 0.481744 6.72301 0.524496C7.37159 0.560296 8.05736 0.781704 8.51234 1.10217L8.59055 1.15744L8.58603 1.25337Z" fill="#323A3D"/>
<path d="M8.96176 0.783442C8.42371 0.350011 7.57701 0.0521367 6.75186 0.00625641C6.67643 0.00208547 6.60101 0 6.52802 0C5.70252 0 5.02335 0.269721 4.6153 0.759111C4.14155 1.3274 3.87252 2.31174 3.89512 3.39167C3.91667 4.41563 4.18847 5.3103 4.60487 5.7267C4.71262 5.83445 4.81064 5.88554 4.90622 5.8852C5.13458 5.88137 5.40708 5.5908 5.75223 5.22271C6.13282 4.81709 6.60657 4.31206 7.25585 3.96274C8.29719 3.40279 9.02398 2.1675 9.10044 1.34374C9.12477 1.07854 9.07437 0.874159 8.96176 0.783442ZM8.58603 1.25337C8.57629 1.44732 8.50122 1.71078 8.37991 1.97564C8.07822 2.6343 7.56623 3.20606 7.00976 3.50533C6.60831 3.72117 6.23571 4.00236 5.83703 4.38957C5.70947 4.5133 5.43628 4.8004 5.25588 4.99018C5.20688 5.04197 5.16829 5.08229 5.14049 5.11114L5.14118 5.11183L5.10399 5.14902L5.08974 5.17718H5.07514L4.9163 5.32629L4.80681 5.13582C4.57915 4.73992 4.429 4.06736 4.4144 3.38055C4.39459 2.43652 4.62468 1.55924 5.01432 1.0914C5.3546 0.682991 5.96147 0.481744 6.72301 0.524496C7.37159 0.560296 8.05736 0.781704 8.51234 1.10217L8.59055 1.15744L8.58603 1.25337Z" fill="black" fill-opacity="0.2"/>
<path d="M12.2406 4.61504C11.6765 4.14477 10.6852 3.87226 9.60806 3.89486C8.58409 3.91641 7.68942 4.18821 7.27303 4.60461C7.16493 4.71271 7.11314 4.81107 7.11453 4.90562C7.11835 5.13432 7.40893 5.40682 7.77701 5.75197C8.18298 6.13257 8.68802 6.60632 9.03698 7.25559C9.59693 8.29694 10.8322 9.02373 11.656 9.10019C11.9215 9.12487 12.1259 9.07447 12.2166 8.96186C12.6501 8.42415 12.9479 7.57745 12.9938 6.75195C13.0453 5.82149 12.778 5.06272 12.2406 4.61504ZM12.4752 6.72276C12.4394 7.37169 12.218 8.05711 11.8976 8.51209L11.8426 8.5903L11.7471 8.58578C11.5531 8.57639 11.2896 8.50132 11.0248 8.37966C10.3661 8.07797 9.79436 7.56563 9.49509 7.00951C9.27925 6.60806 8.99806 6.23545 8.61085 5.83678C8.48677 5.70887 8.19967 5.43567 8.00954 5.25458L8.05716 5.20384L8.0092 5.25424C7.91778 5.16734 7.86113 5.11312 7.8434 5.09539C7.83541 5.0874 7.82985 5.08184 7.82463 5.07628L7.67378 4.91604L7.8646 4.80621C8.26049 4.57854 8.93306 4.42839 9.61987 4.41379C10.5642 4.39433 11.4415 4.62442 11.909 5.01371C12.316 5.35399 12.5176 5.96086 12.4752 6.72276Z" fill="#323A3D"/>
<path d="M12.2406 4.61504C11.6765 4.14477 10.6852 3.87226 9.60806 3.89486C8.58409 3.91641 7.68942 4.18821 7.27303 4.60461C7.16493 4.71271 7.11314 4.81107 7.11453 4.90562C7.11835 5.13432 7.40893 5.40682 7.77701 5.75197C8.18298 6.13257 8.68802 6.60632 9.03698 7.25559C9.59693 8.29694 10.8322 9.02373 11.656 9.10019C11.9215 9.12487 12.1259 9.07447 12.2166 8.96186C12.6501 8.42415 12.9479 7.57745 12.9938 6.75195C13.0453 5.82149 12.778 5.06272 12.2406 4.61504ZM12.4752 6.72276C12.4394 7.37169 12.218 8.05711 11.8976 8.51209L11.8426 8.5903L11.7471 8.58578C11.5531 8.57639 11.2896 8.50132 11.0248 8.37966C10.3661 8.07797 9.79436 7.56563 9.49509 7.00951C9.27925 6.60806 8.99806 6.23545 8.61085 5.83678C8.48677 5.70887 8.19967 5.43567 8.00954 5.25458L8.05716 5.20384L8.0092 5.25424C7.91778 5.16734 7.86113 5.11312 7.8434 5.09539C7.83541 5.0874 7.82985 5.08184 7.82463 5.07628L7.67378 4.91604L7.8646 4.80621C8.26049 4.57854 8.93306 4.42839 9.61987 4.41379C10.5642 4.39433 11.4415 4.62442 11.909 5.01371C12.316 5.35399 12.5176 5.96086 12.4752 6.72276Z" fill="black" fill-opacity="0.2"/>
</svg>
