<svg width="24" height="24" viewBox="0 0 24 24" fill="none" xmlns="http://www.w3.org/2000/svg">
<mask id="path-1-inside-1_10_177" fill="white">
<path fill-rule="evenodd" clip-rule="evenodd" d="M15.7095 15.587C17.4655 14.4706 18.6299 12.5135 18.6299 10.2857C18.6299 6.81421 15.8026 4 12.3149 4C8.8273 4 6 6.81421 6 10.2857C6 12.5132 7.16405 14.4701 8.9197 15.5865C9.12183 16.4772 9.91833 17.142 10.8701 17.142H13.7592C14.7108 17.142 15.5072 16.4774 15.7095 15.587Z"/>
</mask>
<path d="M15.7095 15.587L15.173 14.7431L14.8255 14.964L14.7343 15.3655L15.7095 15.587ZM8.9197 15.5865L9.8949 15.3652L9.80376 14.9637L9.4563 14.7427L8.9197 15.5865ZM17.6299 10.2857C17.6299 12.1559 16.6537 13.8017 15.173 14.7431L16.246 16.4309C18.2773 15.1395 19.6299 12.8712 19.6299 10.2857H17.6299ZM12.3149 5C15.2547 5 17.6299 7.37086 17.6299 10.2857H19.6299C19.6299 6.25756 16.3505 3 12.3149 3V5ZM7 10.2857C7 7.37086 9.3752 5 12.3149 5V3C8.27939 3 5 6.25756 5 10.2857H7ZM9.4563 14.7427C7.97588 13.8013 7 12.1556 7 10.2857H5C5 12.8708 6.35223 15.1389 8.38309 16.4304L9.4563 14.7427ZM10.8701 16.142C10.3955 16.142 9.99593 15.8104 9.8949 15.3652L7.9445 15.8079C8.24773 17.144 9.44117 18.142 10.8701 18.142V16.142ZM13.7592 16.142H10.8701V18.142H13.7592V16.142ZM14.7343 15.3655C14.6332 15.8105 14.2337 16.142 13.7592 16.142V18.142C15.1878 18.142 16.3811 17.1443 16.6846 15.8086L14.7343 15.3655Z" fill="#00AE42" mask="url(#path-1-inside-1_10_177)"/>
<path d="M10.5928 18.2852H14.0373" stroke="#00AE42" stroke-linecap="round"/>
<path d="M11.7402 20H12.8884" stroke="#00AE42" stroke-linecap="round"/>
<path d="M13.6138 7.2793C14.1823 7.35885 15.4836 8.40654 15.608 9.57805" stroke="#00AE42" stroke-linecap="round"/>
</svg>
