<svg width="20" height="20" viewBox="0 0 20 20" fill="none" xmlns="http://www.w3.org/2000/svg">
<path d="M10.0001 16L8.94134 14.9713C9.52611 14.4035 10.4739 14.4035 11.0587 14.9713L10.0001 16ZM2.05899 8.64946L1 7.62121C5.97055 2.79293 14.0295 2.79293 19 7.62121L17.941 8.64967C13.5552 4.38964 6.44477 4.38964 2.05899 8.64946ZM4.4415 10.9638L3.38251 9.93552C7.03722 6.38543 12.9632 6.38543 16.6179 9.93552L15.5589 10.9638C12.489 7.98193 7.51144 7.98193 4.4415 10.9638ZM7.08788 13.5348L6.02911 12.5066C8.22211 10.3764 11.7777 10.3764 13.9705 12.5066L12.9115 13.5348C11.3032 11.9731 8.69611 11.9731 7.08788 13.5348Z" fill="#B0B0B0"/>
<path d="M10.0001 16.0003L8.94128 14.9716C9.52605 14.4038 10.4738 14.4038 11.0586 14.9716L10.0001 16.0003ZM7.08782 13.5351L6.02905 12.5069C8.22205 10.3766 11.7776 10.3766 13.9704 12.5069L12.9114 13.5351C11.3032 11.9733 8.69605 11.9733 7.08782 13.5351Z" fill="#323A3D"/>
<path d="M10.0001 16.0003L8.94128 14.9716C9.52605 14.4038 10.4738 14.4038 11.0586 14.9716L10.0001 16.0003ZM7.08782 13.5351L6.02905 12.5069C8.22205 10.3766 11.7776 10.3766 13.9704 12.5069L12.9114 13.5351C11.3032 11.9733 8.69605 11.9733 7.08782 13.5351Z" fill="black" fill-opacity="0.2"/>
</svg>
