<svg width="20" height="20" viewBox="0 0 20 20" fill="none" xmlns="http://www.w3.org/2000/svg">
<path d="M16.7414 5.10293H14.8982V3.6077C14.8982 2.92742 14.5539 2.22266 13.8775 2.22266H6.51012C5.83371 2.22266 5.08602 2.92742 5.08602 3.6077V5.10118H3.64453C2.96813 5.10118 2.22217 5.80769 2.22217 6.48972V11.0174C2.22217 11.6976 2.96639 12.0929 3.64453 12.0929H5.08428V16.7079C5.08428 17.39 5.83198 17.7782 6.50838 17.7782H13.8758C14.5522 17.7782 14.8965 17.39 14.8965 16.7079V12.0911H16.7414C17.4195 12.0911 17.7777 11.6976 17.7777 11.0156V6.48972C17.7777 5.80944 17.4195 5.10293 16.7414 5.10293ZM5.94326 3.6112C5.94326 3.38736 6.32059 3.0376 6.54489 3.0376H13.8375C14.0618 3.0376 14.0392 3.38736 14.0392 3.6112V5.09068H5.94326V3.6112ZM14.0392 16.5208C14.0392 16.7464 13.8636 16.9388 13.6393 16.9388H6.34667C6.12236 16.9388 5.94326 16.7447 5.94326 16.5208V10.4787C5.94326 10.2531 6.12236 10.0713 6.34667 10.0713H13.6411C13.8654 10.0713 14.041 10.2531 14.041 10.4787V16.5208H14.0392ZM16.8735 10.9946C16.8735 11.2185 16.8979 11.2447 16.6753 11.2447H14.8495V10.5872C14.8495 9.91212 14.5087 9.2091 13.8375 9.2091H6.54489C5.87371 9.2091 5.13471 9.91212 5.13471 10.5872V11.2447H3.70887C3.48456 11.2447 3.11071 11.2185 3.11071 10.9946V6.51071C3.11071 6.28686 3.48456 5.95109 3.70887 5.95109H16.6753C16.8979 5.95109 16.8735 6.28511 16.8735 6.51071V10.9946V10.9946ZM12.8986 11.8603H7.16913C7.06133 11.8585 6.957 11.8988 6.88049 11.9757C6.80398 12.0509 6.76051 12.1541 6.76051 12.2625C6.76051 12.4916 6.94309 12.6647 7.16913 12.6647H12.9003C13.1264 12.6647 13.3089 12.4898 13.3089 12.2625C13.3089 12.1541 13.2655 12.0509 13.189 11.9757C13.1107 11.9005 13.0064 11.8585 12.8986 11.8603ZM12.8986 14.2404H7.16913C7.02307 14.2404 6.88918 14.3191 6.81615 14.445C6.74312 14.5727 6.74312 14.7283 6.81615 14.856C6.88918 14.9836 7.02307 15.0606 7.16913 15.0606H12.9003C13.0464 15.0606 13.1803 14.9819 13.2533 14.856C13.3263 14.7283 13.3263 14.5727 13.2533 14.445C13.1803 14.3173 13.0446 14.2404 12.8986 14.2404ZM14.7782 6.94616C14.7782 7.28018 15.0478 7.55124 15.3799 7.55124C15.712 7.55124 15.9815 7.28018 15.9815 6.94616C15.9815 6.61214 15.712 6.34108 15.3799 6.34108C15.0478 6.34108 14.7782 6.61214 14.7782 6.94616Z" fill="white"/>
</svg>
