<svg width="18" height="18" viewBox="0 0 18 18" fill="none" xmlns="http://www.w3.org/2000/svg">
<path d="M11.6249 2.87505C11.3832 2.87505 11.1874 2.67919 11.1874 2.43753C11.1874 2.19586 11.3832 2 11.6249 2H14.1808C15.1861 2 16 2.8137 16 3.81915V6.3751C16 6.53131 15.9166 6.6759 15.7812 6.754C15.6459 6.83211 15.4791 6.83211 15.3437 6.754C15.2084 6.6759 15.1249 6.53148 15.1249 6.3751V3.81915C15.1249 3.29771 14.7023 2.87505 14.1808 2.87505H11.6249V2.87505ZM15.1249 11.4176C15.1249 11.2614 15.2084 11.1168 15.3437 11.0387C15.4791 10.9606 15.6459 10.9606 15.7812 11.0387C15.9166 11.1168 16 11.2612 16 11.4176V14.1808C16 15.1861 15.1863 16 14.1808 16H12.4536C12.2974 16 12.1528 15.9166 12.0747 15.7812C11.9966 15.6459 11.9966 15.4791 12.0747 15.3437C12.1528 15.2084 12.2973 15.1249 12.4536 15.1249H14.1808C14.7023 15.1249 15.1249 14.7023 15.1249 14.1808V11.4176ZM6.58241 15.1249C6.73862 15.1249 6.88321 15.2084 6.96131 15.3437C7.03942 15.4791 7.03942 15.6459 6.96131 15.7812C6.88321 15.9166 6.73879 16 6.58241 16H3.81915C3.33668 16 2.87403 15.8082 2.53289 15.4671C2.19159 15.126 2 14.6633 2 14.1808V11.6249C2 11.3832 2.19586 11.1874 2.43753 11.1874C2.67919 11.1874 2.87505 11.3832 2.87505 11.6249V14.1808C2.87505 14.7023 3.29771 15.1249 3.81915 15.1249H6.58241ZM2.87505 6.37493C2.87505 6.61659 2.67919 6.81245 2.43753 6.81245C2.19586 6.81245 2 6.61659 2 6.37493V3.81915C2 2.8137 2.8137 2 3.81915 2H6.3751C6.61676 2 6.81262 2.19586 6.81262 2.43753C6.81262 2.67919 6.61676 2.87505 6.3751 2.87505H3.81915C3.29771 2.87505 2.87505 3.29771 2.87505 3.81915V6.37493V6.37493ZM8.99991 11.1875C10.4988 11.1875 11.8936 10.4096 13.2157 8.78132C11.8936 7.1529 10.4988 6.3751 8.99991 6.3751C7.50104 6.3751 6.10643 7.1529 4.78428 8.78115C6.10643 10.4096 7.50121 11.1875 8.99991 11.1875ZM8.99991 12.0624C7.21409 12.0624 5.58225 11.1525 4.10526 9.3325C3.84462 9.01119 3.84462 8.55128 4.10526 8.22997C5.58225 6.40996 7.21409 5.50004 8.99991 5.50004C10.7857 5.50004 12.4178 6.40996 13.8946 8.22997C14.1552 8.55128 14.1552 9.01119 13.8946 9.3325C12.4178 11.1525 10.7859 12.0624 8.99991 12.0624Z" fill="white"/>
<path d="M9.00021 9.87484C9.6042 9.87484 10.094 9.38519 10.094 8.78103C10.094 8.17704 9.60437 7.68721 9.00021 7.68721C8.39604 7.68721 7.90639 8.17686 7.90639 8.78103C7.90656 9.38519 8.39621 9.87484 9.00021 9.87484ZM9.00021 10.7499C8.29675 10.7499 7.64678 10.3748 7.29505 9.76563C6.94332 9.15651 6.94332 8.40588 7.29505 7.79676C7.64678 7.18764 8.29675 6.81233 9.00021 6.8125C10.0875 6.8125 10.9687 7.69405 10.9687 8.7812C10.9689 9.86835 10.0875 10.7497 9.00021 10.7499Z" fill="white"/>
</svg>
