<svg width="14" height="14" viewBox="0 0 14 14" fill="none" xmlns="http://www.w3.org/2000/svg">
	<g clip-path="url(#clip0_1018_9523)">
	<path d="M11.1864 10.9732V12.8018H2V2H11.1864V3.93522" stroke="#262E30" stroke-width="0.5" stroke-miterlimit="10" stroke-linecap="round"/>
	<path d="M12.9589 7.31447L9.40124 4.34518C9.32687 4.28285 9.21419 4.33617 9.21419 4.43304V5.64359C9.21419 5.70667 9.1631 5.75773 9.1 5.75773H5.49126C5.42816 5.75773 5.37708 5.8088 5.37708 5.87188V9.00788C5.37708 9.07096 5.42816 9.12203 5.49126 9.12203H9.1C9.1631 9.12203 9.21419 9.17309 9.21419 9.23617V10.3716C9.21419 10.4685 9.32687 10.5211 9.40124 10.4595L12.9589 7.4902C13.0137 7.44439 13.0137 7.36028 12.9589 7.31447Z" fill="#ACACAC" stroke="#262E30" stroke-width="0.5" stroke-miterlimit="10"/>
	</g>
	<defs>
	<clipPath id="clip0_1018_9523">
	<rect width="14" height="14" fill="white" transform="translate(0 14) rotate(-90)"/>
	</clipPath>
	</defs>
	</svg>
	