<svg width="36" height="36" viewBox="0 0 36 36" fill="none" xmlns="http://www.w3.org/2000/svg">
<circle cx="18" cy="18" r="18" fill="#EDEDED"/>
<path d="M14.294 24C14.198 24 14.15 23.958 14.15 23.874V13.524C14.15 13.404 14.096 13.374 13.988 13.434L11.9 14.64C11.792 14.7 11.72 14.688 11.684 14.604L11.27 13.92C11.222 13.824 11.246 13.752 11.342 13.704L14.294 11.994C14.366 11.946 14.42 11.916 14.456 11.904C14.504 11.892 14.558 11.886 14.618 11.886H15.302C15.41 11.886 15.464 11.94 15.464 12.048V23.874C15.464 23.958 15.422 24 15.338 24H14.294ZM17.6983 24C17.6263 24 17.5783 23.994 17.5543 23.982C17.5303 23.958 17.5183 23.916 17.5183 23.856V23.064C17.5183 22.944 17.5603 22.866 17.6443 22.83C18.2683 22.41 18.9163 21.942 19.5883 21.426C20.2603 20.898 20.8843 20.322 21.4603 19.698C22.0483 19.074 22.5223 18.414 22.8823 17.718C23.2543 17.01 23.4403 16.266 23.4403 15.486C23.4403 14.922 23.3203 14.454 23.0803 14.082C22.8523 13.71 22.5403 13.434 22.1443 13.254C21.7483 13.062 21.2983 12.966 20.7943 12.966C20.3743 12.966 19.9843 13.026 19.6243 13.146C19.2763 13.254 18.9763 13.374 18.7243 13.506C18.4723 13.626 18.2803 13.71 18.1483 13.758C17.9683 13.842 17.8783 13.83 17.8783 13.722V12.858C17.8783 12.786 17.8903 12.738 17.9143 12.714C17.9383 12.678 17.9863 12.636 18.0583 12.588C18.2143 12.504 18.4363 12.402 18.7243 12.282C19.0123 12.15 19.3483 12.036 19.7323 11.94C20.1163 11.844 20.5123 11.796 20.9203 11.796C21.5443 11.796 22.1443 11.922 22.7203 12.174C23.2963 12.414 23.7703 12.804 24.1423 13.344C24.5263 13.884 24.7183 14.592 24.7183 15.468C24.7183 16.236 24.5683 16.968 24.2683 17.664C23.9803 18.348 23.5843 18.996 23.0803 19.608C22.5883 20.22 22.0363 20.796 21.4243 21.336C20.8123 21.864 20.1943 22.356 19.5703 22.812C19.5343 22.836 19.5223 22.86 19.5343 22.884C19.5463 22.908 19.5703 22.92 19.6063 22.92H24.6463C24.7303 22.92 24.7723 22.956 24.7723 23.028V23.856C24.7723 23.916 24.7603 23.958 24.7363 23.982C24.7243 23.994 24.6823 24 24.6103 24H17.6983Z" fill="black"/>
</svg>
