<svg width="36" height="36" viewBox="0 0 36 36" fill="none" xmlns="http://www.w3.org/2000/svg">
<circle cx="18" cy="18" r="18" fill="#EDEDED"/>
<path d="M17.456 24.09C17.216 24.09 16.946 24.06 16.646 24C16.346 23.952 16.046 23.874 15.746 23.766C15.458 23.646 15.182 23.502 14.918 23.334C14.882 23.298 14.852 23.262 14.828 23.226C14.816 23.19 14.822 23.154 14.846 23.118L15.314 22.326C15.35 22.278 15.386 22.26 15.422 22.272C15.47 22.272 15.512 22.284 15.548 22.308C15.884 22.5 16.202 22.644 16.502 22.74C16.802 22.824 17.12 22.866 17.456 22.866C17.816 22.866 18.17 22.806 18.518 22.686C18.866 22.566 19.184 22.392 19.472 22.164C19.76 21.924 19.988 21.624 20.156 21.264C20.336 20.892 20.426 20.472 20.426 20.004C20.426 19.5 20.312 19.05 20.084 18.654C19.868 18.258 19.538 17.946 19.094 17.718C18.662 17.478 18.128 17.358 17.492 17.358C17.312 17.358 17.114 17.364 16.898 17.376C16.694 17.388 16.49 17.412 16.286 17.448C16.082 17.472 15.89 17.52 15.71 17.592C15.59 17.628 15.506 17.634 15.458 17.61C15.422 17.586 15.404 17.532 15.404 17.448V12.102C15.404 12.03 15.416 11.976 15.44 11.94C15.464 11.904 15.524 11.886 15.62 11.886H20.57C20.63 11.886 20.672 11.898 20.696 11.922C20.72 11.934 20.732 11.964 20.732 12.012V12.858C20.732 12.942 20.678 12.984 20.57 12.984H16.7C16.604 12.984 16.556 13.032 16.556 13.128V16.242C16.556 16.29 16.568 16.332 16.592 16.368C16.616 16.392 16.664 16.398 16.736 16.386C16.892 16.362 17.048 16.35 17.204 16.35C17.36 16.35 17.492 16.35 17.6 16.35C18.524 16.35 19.286 16.512 19.886 16.836C20.498 17.16 20.948 17.592 21.236 18.132C21.536 18.66 21.686 19.26 21.686 19.932C21.698 20.772 21.506 21.51 21.11 22.146C20.714 22.77 20.192 23.256 19.544 23.604C18.896 23.94 18.2 24.102 17.456 24.09Z" fill="black"/>
</svg>
