<svg width="36" height="36" viewBox="0 0 36 36" fill="none" xmlns="http://www.w3.org/2000/svg">
<circle cx="18" cy="18" r="18" fill="#EDEDED"/>
<path d="M13.294 24C13.198 24 13.15 23.958 13.15 23.874V13.524C13.15 13.404 13.096 13.374 12.988 13.434L10.9 14.64C10.792 14.7 10.72 14.688 10.684 14.604L10.27 13.92C10.222 13.824 10.246 13.752 10.342 13.704L13.294 11.994C13.366 11.946 13.42 11.916 13.456 11.904C13.504 11.892 13.558 11.886 13.618 11.886H14.302C14.41 11.886 14.464 11.94 14.464 12.048V23.874C14.464 23.958 14.422 24 14.338 24H13.294ZM20.3343 24.108C19.6503 24.108 19.0143 23.958 18.4263 23.658C17.8503 23.346 17.3823 22.932 17.0223 22.416C16.6743 21.888 16.5002 21.3 16.5002 20.652C16.5002 19.908 16.6743 19.284 17.0223 18.78C17.3823 18.264 17.8323 17.88 18.3723 17.628C18.4683 17.592 18.5223 17.55 18.5343 17.502C18.5583 17.442 18.5403 17.394 18.4803 17.358C18.0483 17.178 17.7063 16.89 17.4543 16.494C17.2023 16.098 17.0763 15.588 17.0763 14.964C17.0763 14.376 17.2263 13.848 17.5263 13.38C17.8263 12.9 18.2223 12.522 18.7143 12.246C19.2183 11.958 19.7583 11.814 20.3343 11.814C20.9463 11.814 21.4983 11.958 21.9903 12.246C22.4943 12.522 22.8903 12.9 23.1783 13.38C23.4783 13.848 23.6283 14.376 23.6283 14.964C23.6283 15.636 23.5023 16.17 23.2503 16.566C22.9983 16.95 22.6563 17.238 22.2243 17.43C22.2003 17.454 22.1943 17.49 22.2063 17.538C22.2183 17.586 22.2663 17.622 22.3503 17.646C22.9143 17.91 23.3643 18.288 23.7003 18.78C24.0363 19.26 24.2043 19.884 24.2043 20.652C24.2043 21.3 24.0243 21.888 23.6643 22.416C23.3163 22.932 22.8483 23.346 22.2603 23.658C21.6843 23.958 21.0423 24.108 20.3343 24.108ZM20.3703 16.89C20.7183 16.89 21.0423 16.818 21.3423 16.674C21.6543 16.53 21.9063 16.314 22.0983 16.026C22.2903 15.738 22.3863 15.384 22.3863 14.964C22.3863 14.616 22.2963 14.298 22.1163 14.01C21.9363 13.71 21.6903 13.476 21.3783 13.308C21.0663 13.128 20.7183 13.038 20.3343 13.038C19.9623 13.038 19.6203 13.128 19.3083 13.308C19.0083 13.476 18.7623 13.71 18.5703 14.01C18.3903 14.298 18.3003 14.616 18.3003 14.964C18.3003 15.372 18.4023 15.72 18.6063 16.008C18.8103 16.296 19.0683 16.512 19.3803 16.656C19.6923 16.8 20.0223 16.878 20.3703 16.89ZM20.3343 22.92C20.8383 22.92 21.2823 22.818 21.6663 22.614C22.0623 22.398 22.3743 22.116 22.6023 21.768C22.8423 21.42 22.9623 21.042 22.9623 20.634C22.9623 20.106 22.8363 19.662 22.5843 19.302C22.3443 18.942 22.0263 18.666 21.6303 18.474C21.2463 18.282 20.8323 18.18 20.3883 18.168C19.9443 18.168 19.5183 18.264 19.1103 18.456C18.7143 18.636 18.3903 18.912 18.1383 19.284C17.8863 19.644 17.7603 20.094 17.7603 20.634C17.7603 21.042 17.8743 21.42 18.1023 21.768C18.3303 22.116 18.6363 22.398 19.0203 22.614C19.4163 22.818 19.8543 22.92 20.3343 22.92Z" fill="black"/>
</svg>
