<svg width="36" height="36" viewBox="0 0 36 36" fill="none" xmlns="http://www.w3.org/2000/svg">
<circle cx="18" cy="18" r="18" fill="#EDEDED"/>
<path d="M18.294 24C18.198 24 18.15 23.958 18.15 23.874V13.524C18.15 13.404 18.096 13.374 17.988 13.434L15.9 14.64C15.792 14.7 15.72 14.688 15.684 14.604L15.27 13.92C15.222 13.824 15.246 13.752 15.342 13.704L18.294 11.994C18.366 11.946 18.42 11.916 18.456 11.904C18.504 11.892 18.558 11.886 18.618 11.886H19.302C19.41 11.886 19.464 11.94 19.464 12.048V23.874C19.464 23.958 19.422 24 19.338 24H18.294Z" fill="black"/>
</svg>
