<svg width="36" height="36" viewBox="0 0 36 36" fill="none" xmlns="http://www.w3.org/2000/svg">
<circle cx="18" cy="18" r="18" fill="#EDEDED"/>
<path d="M13.816 24.09C13.432 24.09 13.042 24.042 12.646 23.946C12.25 23.838 11.878 23.694 11.53 23.514C11.194 23.322 10.912 23.094 10.684 22.83C10.648 22.782 10.63 22.74 10.63 22.704C10.63 22.656 10.648 22.608 10.684 22.56L11.152 21.966C11.236 21.87 11.32 21.864 11.404 21.948C11.74 22.284 12.112 22.536 12.52 22.704C12.928 22.872 13.348 22.956 13.78 22.956C14.332 22.956 14.794 22.836 15.166 22.596C15.55 22.344 15.838 22.038 16.03 21.678C16.222 21.306 16.318 20.94 16.318 20.58C16.318 20.196 16.216 19.824 16.012 19.464C15.82 19.092 15.52 18.786 15.112 18.546C14.704 18.294 14.194 18.168 13.582 18.168C13.51 18.168 13.444 18.168 13.384 18.168C13.324 18.168 13.258 18.168 13.186 18.168C13.138 18.168 13.096 18.156 13.06 18.132C13.036 18.108 13.024 18.06 13.024 17.988V17.25C13.024 17.13 13.078 17.07 13.186 17.07C13.246 17.07 13.324 17.07 13.42 17.07C13.516 17.07 13.63 17.07 13.762 17.07C14.266 17.046 14.692 16.926 15.04 16.71C15.388 16.494 15.652 16.224 15.832 15.9C16.012 15.564 16.102 15.228 16.102 14.892C16.102 14.544 16.018 14.226 15.85 13.938C15.682 13.638 15.43 13.392 15.094 13.2C14.758 13.008 14.338 12.912 13.834 12.912C13.438 12.912 13.012 13.002 12.556 13.182C12.112 13.35 11.74 13.56 11.44 13.812C11.32 13.932 11.218 13.926 11.134 13.794L10.738 13.074C10.714 13.026 10.708 12.978 10.72 12.93C10.732 12.882 10.75 12.852 10.774 12.84C11.086 12.6 11.422 12.402 11.782 12.246C12.154 12.09 12.52 11.976 12.88 11.904C13.252 11.832 13.594 11.796 13.906 11.796C14.65 11.796 15.274 11.94 15.778 12.228C16.282 12.504 16.66 12.87 16.912 13.326C17.176 13.782 17.308 14.262 17.308 14.766C17.308 15.342 17.158 15.876 16.858 16.368C16.57 16.86 16.15 17.238 15.598 17.502C15.466 17.55 15.4 17.586 15.4 17.61C15.4 17.622 15.484 17.658 15.652 17.718C16.264 17.97 16.738 18.336 17.074 18.816C17.422 19.296 17.596 19.872 17.596 20.544C17.596 21.132 17.446 21.702 17.146 22.254C16.846 22.794 16.414 23.238 15.85 23.586C15.298 23.922 14.62 24.09 13.816 24.09ZM19.4053 24C19.3333 24 19.2853 23.994 19.2613 23.982C19.2373 23.958 19.2253 23.916 19.2253 23.856V23.064C19.2253 22.944 19.2673 22.866 19.3513 22.83C19.9753 22.41 20.6233 21.942 21.2953 21.426C21.9673 20.898 22.5913 20.322 23.1673 19.698C23.7553 19.074 24.2293 18.414 24.5893 17.718C24.9613 17.01 25.1473 16.266 25.1473 15.486C25.1473 14.922 25.0273 14.454 24.7873 14.082C24.5593 13.71 24.2473 13.434 23.8513 13.254C23.4553 13.062 23.0053 12.966 22.5013 12.966C22.0813 12.966 21.6913 13.026 21.3313 13.146C20.9833 13.254 20.6833 13.374 20.4313 13.506C20.1793 13.626 19.9873 13.71 19.8553 13.758C19.6753 13.842 19.5853 13.83 19.5853 13.722V12.858C19.5853 12.786 19.5973 12.738 19.6213 12.714C19.6453 12.678 19.6933 12.636 19.7653 12.588C19.9213 12.504 20.1433 12.402 20.4313 12.282C20.7193 12.15 21.0553 12.036 21.4393 11.94C21.8233 11.844 22.2193 11.796 22.6273 11.796C23.2513 11.796 23.8513 11.922 24.4273 12.174C25.0033 12.414 25.4773 12.804 25.8493 13.344C26.2333 13.884 26.4253 14.592 26.4253 15.468C26.4253 16.236 26.2753 16.968 25.9753 17.664C25.6873 18.348 25.2913 18.996 24.7873 19.608C24.2953 20.22 23.7433 20.796 23.1313 21.336C22.5193 21.864 21.9013 22.356 21.2773 22.812C21.2413 22.836 21.2293 22.86 21.2413 22.884C21.2533 22.908 21.2773 22.92 21.3133 22.92H26.3533C26.4373 22.92 26.4793 22.956 26.4793 23.028V23.856C26.4793 23.916 26.4673 23.958 26.4433 23.982C26.4313 23.994 26.3893 24 26.3173 24H19.4053Z" fill="black"/>
</svg>
