<svg width="36" height="36" viewBox="0 0 36 36" fill="none" xmlns="http://www.w3.org/2000/svg">
<circle cx="18" cy="18" r="18" fill="#EDEDED"/>
<path d="M10.792 24C10.72 24 10.672 23.994 10.648 23.982C10.624 23.958 10.612 23.916 10.612 23.856V23.064C10.612 22.944 10.654 22.866 10.738 22.83C11.362 22.41 12.01 21.942 12.682 21.426C13.354 20.898 13.978 20.322 14.554 19.698C15.142 19.074 15.616 18.414 15.976 17.718C16.348 17.01 16.534 16.266 16.534 15.486C16.534 14.922 16.414 14.454 16.174 14.082C15.946 13.71 15.634 13.434 15.238 13.254C14.842 13.062 14.392 12.966 13.888 12.966C13.468 12.966 13.078 13.026 12.718 13.146C12.37 13.254 12.07 13.374 11.818 13.506C11.566 13.626 11.374 13.71 11.242 13.758C11.062 13.842 10.972 13.83 10.972 13.722V12.858C10.972 12.786 10.984 12.738 11.008 12.714C11.032 12.678 11.08 12.636 11.152 12.588C11.308 12.504 11.53 12.402 11.818 12.282C12.106 12.15 12.442 12.036 12.826 11.94C13.21 11.844 13.606 11.796 14.014 11.796C14.638 11.796 15.238 11.922 15.814 12.174C16.39 12.414 16.864 12.804 17.236 13.344C17.62 13.884 17.812 14.592 17.812 15.468C17.812 16.236 17.662 16.968 17.362 17.664C17.074 18.348 16.678 18.996 16.174 19.608C15.682 20.22 15.13 20.796 14.518 21.336C13.906 21.864 13.288 22.356 12.664 22.812C12.628 22.836 12.616 22.86 12.628 22.884C12.64 22.908 12.664 22.92 12.7 22.92H17.74C17.824 22.92 17.866 22.956 17.866 23.028V23.856C17.866 23.916 17.854 23.958 17.83 23.982C17.818 23.994 17.776 24 17.704 24H10.792ZM22.6578 24.09C22.2738 24.09 21.8838 24.042 21.4878 23.946C21.0918 23.838 20.7198 23.694 20.3718 23.514C20.0358 23.322 19.7538 23.094 19.5258 22.83C19.4898 22.782 19.4718 22.74 19.4718 22.704C19.4718 22.656 19.4898 22.608 19.5258 22.56L19.9938 21.966C20.0778 21.87 20.1618 21.864 20.2458 21.948C20.5818 22.284 20.9538 22.536 21.3618 22.704C21.7698 22.872 22.1898 22.956 22.6218 22.956C23.1738 22.956 23.6358 22.836 24.0078 22.596C24.3918 22.344 24.6798 22.038 24.8718 21.678C25.0638 21.306 25.1598 20.94 25.1598 20.58C25.1598 20.196 25.0578 19.824 24.8538 19.464C24.6618 19.092 24.3618 18.786 23.9538 18.546C23.5458 18.294 23.0358 18.168 22.4238 18.168C22.3518 18.168 22.2858 18.168 22.2258 18.168C22.1658 18.168 22.0998 18.168 22.0278 18.168C21.9798 18.168 21.9378 18.156 21.9018 18.132C21.8778 18.108 21.8658 18.06 21.8658 17.988V17.25C21.8658 17.13 21.9198 17.07 22.0278 17.07C22.0878 17.07 22.1658 17.07 22.2618 17.07C22.3578 17.07 22.4718 17.07 22.6038 17.07C23.1078 17.046 23.5338 16.926 23.8818 16.71C24.2298 16.494 24.4938 16.224 24.6738 15.9C24.8538 15.564 24.9438 15.228 24.9438 14.892C24.9438 14.544 24.8598 14.226 24.6918 13.938C24.5238 13.638 24.2718 13.392 23.9358 13.2C23.5998 13.008 23.1798 12.912 22.6758 12.912C22.2798 12.912 21.8538 13.002 21.3978 13.182C20.9538 13.35 20.5818 13.56 20.2818 13.812C20.1618 13.932 20.0598 13.926 19.9758 13.794L19.5798 13.074C19.5558 13.026 19.5498 12.978 19.5618 12.93C19.5738 12.882 19.5918 12.852 19.6158 12.84C19.9278 12.6 20.2638 12.402 20.6238 12.246C20.9958 12.09 21.3618 11.976 21.7218 11.904C22.0938 11.832 22.4358 11.796 22.7478 11.796C23.4918 11.796 24.1158 11.94 24.6198 12.228C25.1238 12.504 25.5018 12.87 25.7538 13.326C26.0178 13.782 26.1498 14.262 26.1498 14.766C26.1498 15.342 25.9998 15.876 25.6998 16.368C25.4118 16.86 24.9918 17.238 24.4398 17.502C24.3078 17.55 24.2418 17.586 24.2418 17.61C24.2418 17.622 24.3258 17.658 24.4938 17.718C25.1058 17.97 25.5798 18.336 25.9158 18.816C26.2638 19.296 26.4378 19.872 26.4378 20.544C26.4378 21.132 26.2878 21.702 25.9878 22.254C25.6878 22.794 25.2558 23.238 24.6918 23.586C24.1398 23.922 23.4618 24.09 22.6578 24.09Z" fill="black"/>
</svg>
