<svg width="36" height="36" viewBox="0 0 36 36" fill="none" xmlns="http://www.w3.org/2000/svg">
<circle cx="18" cy="18" r="18" fill="#EDEDED"/>
<path d="M9.792 24C9.72 24 9.672 23.994 9.648 23.982C9.624 23.958 9.612 23.916 9.612 23.856V23.064C9.612 22.944 9.654 22.866 9.738 22.83C10.362 22.41 11.01 21.942 11.682 21.426C12.354 20.898 12.978 20.322 13.554 19.698C14.142 19.074 14.616 18.414 14.976 17.718C15.348 17.01 15.534 16.266 15.534 15.486C15.534 14.922 15.414 14.454 15.174 14.082C14.946 13.71 14.634 13.434 14.238 13.254C13.842 13.062 13.392 12.966 12.888 12.966C12.468 12.966 12.078 13.026 11.718 13.146C11.37 13.254 11.07 13.374 10.818 13.506C10.566 13.626 10.374 13.71 10.242 13.758C10.062 13.842 9.972 13.83 9.972 13.722V12.858C9.972 12.786 9.984 12.738 10.008 12.714C10.032 12.678 10.08 12.636 10.152 12.588C10.308 12.504 10.53 12.402 10.818 12.282C11.106 12.15 11.442 12.036 11.826 11.94C12.21 11.844 12.606 11.796 13.014 11.796C13.638 11.796 14.238 11.922 14.814 12.174C15.39 12.414 15.864 12.804 16.236 13.344C16.62 13.884 16.812 14.592 16.812 15.468C16.812 16.236 16.662 16.968 16.362 17.664C16.074 18.348 15.678 18.996 15.174 19.608C14.682 20.22 14.13 20.796 13.518 21.336C12.906 21.864 12.288 22.356 11.664 22.812C11.628 22.836 11.616 22.86 11.628 22.884C11.64 22.908 11.664 22.92 11.7 22.92H16.74C16.824 22.92 16.866 22.956 16.866 23.028V23.856C16.866 23.916 16.854 23.958 16.83 23.982C16.818 23.994 16.776 24 16.704 24H9.792ZM26.6978 17.952C26.6978 18.816 26.6258 19.626 26.4818 20.382C26.3498 21.138 26.1278 21.798 25.8158 22.362C25.5038 22.914 25.0958 23.346 24.5918 23.658C24.0878 23.97 23.4638 24.126 22.7198 24.126C21.9758 24.126 21.3458 23.97 20.8298 23.658C20.3258 23.346 19.9178 22.914 19.6058 22.362C19.3058 21.81 19.0838 21.156 18.9398 20.4C18.8078 19.644 18.7418 18.828 18.7418 17.952C18.7418 17.064 18.8078 16.248 18.9398 15.504C19.0838 14.748 19.3058 14.094 19.6058 13.542C19.9178 12.978 20.3258 12.54 20.8298 12.228C21.3458 11.916 21.9758 11.76 22.7198 11.76C23.4638 11.76 24.0878 11.922 24.5918 12.246C25.0958 12.558 25.5038 12.996 25.8158 13.56C26.1278 14.112 26.3498 14.766 26.4818 15.522C26.6258 16.266 26.6978 17.076 26.6978 17.952ZM25.3298 17.952C25.3298 16.32 25.1138 15.06 24.6818 14.172C24.2618 13.284 23.6018 12.84 22.7018 12.84C21.8018 12.84 21.1418 13.278 20.7218 14.154C20.3018 15.03 20.0918 16.296 20.0918 17.952C20.0918 19.596 20.3018 20.862 20.7218 21.75C21.1418 22.626 21.8018 23.064 22.7018 23.064C23.6018 23.064 24.2618 22.62 24.6818 21.732C25.1138 20.844 25.3298 19.584 25.3298 17.952Z" fill="black"/>
</svg>
