<svg width="36" height="36" viewBox="0 0 36 36" fill="none" xmlns="http://www.w3.org/2000/svg">
<circle cx="18" cy="18" r="18" fill="#EDEDED"/>
<path d="M14.294 24C14.198 24 14.15 23.958 14.15 23.874V13.524C14.15 13.404 14.096 13.374 13.988 13.434L11.9 14.64C11.792 14.7 11.72 14.688 11.684 14.604L11.27 13.92C11.222 13.824 11.246 13.752 11.342 13.704L14.294 11.994C14.366 11.946 14.42 11.916 14.456 11.904C14.504 11.892 14.558 11.886 14.618 11.886H15.302C15.41 11.886 15.464 11.94 15.464 12.048V23.874C15.464 23.958 15.422 24 15.338 24H14.294ZM22.6123 24C22.5283 24 22.4863 23.958 22.4863 23.874V20.85C22.4863 20.73 22.4263 20.67 22.3063 20.67H17.4463C17.3623 20.67 17.3203 20.628 17.3203 20.544V19.878C17.3203 19.806 17.3383 19.74 17.3743 19.68C17.4103 19.62 17.4403 19.572 17.4643 19.536L22.4863 12.066C22.5223 11.994 22.5583 11.946 22.5943 11.922C22.6423 11.898 22.6843 11.886 22.7203 11.886H23.5843C23.6803 11.886 23.7283 11.934 23.7283 12.03V19.464C23.7283 19.584 23.7883 19.644 23.9083 19.644H25.1143C25.1863 19.644 25.2223 19.68 25.2223 19.752V20.562C25.2223 20.634 25.1863 20.67 25.1143 20.67H23.9083C23.7883 20.67 23.7283 20.73 23.7283 20.85V23.874C23.7283 23.958 23.6863 24 23.6023 24H22.6123ZM18.9223 19.644H22.3063C22.4263 19.644 22.4863 19.584 22.4863 19.464V14.082C22.4863 14.034 22.4743 14.01 22.4503 14.01C22.4263 13.998 22.4023 14.016 22.3783 14.064L18.8323 19.428C18.7843 19.5 18.7663 19.554 18.7783 19.59C18.8023 19.626 18.8503 19.644 18.9223 19.644Z" fill="black"/>
</svg>
