<svg width="36" height="36" viewBox="0 0 36 36" fill="none" xmlns="http://www.w3.org/2000/svg">
<circle cx="18" cy="18" r="18" fill="#EDEDED"/>
<path d="M14.792 24C14.72 24 14.672 23.994 14.648 23.982C14.624 23.958 14.612 23.916 14.612 23.856V23.064C14.612 22.944 14.654 22.866 14.738 22.83C15.362 22.41 16.01 21.942 16.682 21.426C17.354 20.898 17.978 20.322 18.554 19.698C19.142 19.074 19.616 18.414 19.976 17.718C20.348 17.01 20.534 16.266 20.534 15.486C20.534 14.922 20.414 14.454 20.174 14.082C19.946 13.71 19.634 13.434 19.238 13.254C18.842 13.062 18.392 12.966 17.888 12.966C17.468 12.966 17.078 13.026 16.718 13.146C16.37 13.254 16.07 13.374 15.818 13.506C15.566 13.626 15.374 13.71 15.242 13.758C15.062 13.842 14.972 13.83 14.972 13.722V12.858C14.972 12.786 14.984 12.738 15.008 12.714C15.032 12.678 15.08 12.636 15.152 12.588C15.308 12.504 15.53 12.402 15.818 12.282C16.106 12.15 16.442 12.036 16.826 11.94C17.21 11.844 17.606 11.796 18.014 11.796C18.638 11.796 19.238 11.922 19.814 12.174C20.39 12.414 20.864 12.804 21.236 13.344C21.62 13.884 21.812 14.592 21.812 15.468C21.812 16.236 21.662 16.968 21.362 17.664C21.074 18.348 20.678 18.996 20.174 19.608C19.682 20.22 19.13 20.796 18.518 21.336C17.906 21.864 17.288 22.356 16.664 22.812C16.628 22.836 16.616 22.86 16.628 22.884C16.64 22.908 16.664 22.92 16.7 22.92H21.74C21.824 22.92 21.866 22.956 21.866 23.028V23.856C21.866 23.916 21.854 23.958 21.83 23.982C21.818 23.994 21.776 24 21.704 24H14.792Z" fill="black"/>
</svg>
