<svg width="36" height="36" viewBox="0 0 36 36" fill="none" xmlns="http://www.w3.org/2000/svg">
<circle cx="18" cy="18" r="18" fill="#EDEDED"/>
<path d="M13.294 24C13.198 24 13.15 23.958 13.15 23.874V13.524C13.15 13.404 13.096 13.374 12.988 13.434L10.9 14.64C10.792 14.7 10.72 14.688 10.684 14.604L10.27 13.92C10.222 13.824 10.246 13.752 10.342 13.704L13.294 11.994C13.366 11.946 13.42 11.916 13.456 11.904C13.504 11.892 13.558 11.886 13.618 11.886H14.302C14.41 11.886 14.464 11.94 14.464 12.048V23.874C14.464 23.958 14.422 24 14.338 24H13.294ZM24.7623 17.952C24.7623 18.816 24.6903 19.626 24.5463 20.382C24.4143 21.138 24.1923 21.798 23.8803 22.362C23.5683 22.914 23.1603 23.346 22.6563 23.658C22.1523 23.97 21.5283 24.126 20.7843 24.126C20.0403 24.126 19.4103 23.97 18.8943 23.658C18.3903 23.346 17.9823 22.914 17.6703 22.362C17.3703 21.81 17.1483 21.156 17.0043 20.4C16.8723 19.644 16.8063 18.828 16.8063 17.952C16.8063 17.064 16.8723 16.248 17.0043 15.504C17.1483 14.748 17.3703 14.094 17.6703 13.542C17.9823 12.978 18.3903 12.54 18.8943 12.228C19.4103 11.916 20.0403 11.76 20.7843 11.76C21.5283 11.76 22.1523 11.922 22.6563 12.246C23.1603 12.558 23.5683 12.996 23.8803 13.56C24.1923 14.112 24.4143 14.766 24.5463 15.522C24.6903 16.266 24.7623 17.076 24.7623 17.952ZM23.3943 17.952C23.3943 16.32 23.1783 15.06 22.7463 14.172C22.3263 13.284 21.6663 12.84 20.7663 12.84C19.8663 12.84 19.2063 13.278 18.7863 14.154C18.3663 15.03 18.1562 16.296 18.1562 17.952C18.1562 19.596 18.3663 20.862 18.7863 21.75C19.2063 22.626 19.8663 23.064 20.7663 23.064C21.6663 23.064 22.3263 22.62 22.7463 21.732C23.1783 20.844 23.3943 19.584 23.3943 17.952Z" fill="black"/>
</svg>
