<svg width="36" height="36" viewBox="0 0 36 36" fill="none" xmlns="http://www.w3.org/2000/svg">
<circle cx="18" cy="18" r="18" fill="#EDEDED"/>
<path d="M18.816 24.09C18.432 24.09 18.042 24.042 17.646 23.946C17.25 23.838 16.878 23.694 16.53 23.514C16.194 23.322 15.912 23.094 15.684 22.83C15.648 22.782 15.63 22.74 15.63 22.704C15.63 22.656 15.648 22.608 15.684 22.56L16.152 21.966C16.236 21.87 16.32 21.864 16.404 21.948C16.74 22.284 17.112 22.536 17.52 22.704C17.928 22.872 18.348 22.956 18.78 22.956C19.332 22.956 19.794 22.836 20.166 22.596C20.55 22.344 20.838 22.038 21.03 21.678C21.222 21.306 21.318 20.94 21.318 20.58C21.318 20.196 21.216 19.824 21.012 19.464C20.82 19.092 20.52 18.786 20.112 18.546C19.704 18.294 19.194 18.168 18.582 18.168C18.51 18.168 18.444 18.168 18.384 18.168C18.324 18.168 18.258 18.168 18.186 18.168C18.138 18.168 18.096 18.156 18.06 18.132C18.036 18.108 18.024 18.06 18.024 17.988V17.25C18.024 17.13 18.078 17.07 18.186 17.07C18.246 17.07 18.324 17.07 18.42 17.07C18.516 17.07 18.63 17.07 18.762 17.07C19.266 17.046 19.692 16.926 20.04 16.71C20.388 16.494 20.652 16.224 20.832 15.9C21.012 15.564 21.102 15.228 21.102 14.892C21.102 14.544 21.018 14.226 20.85 13.938C20.682 13.638 20.43 13.392 20.094 13.2C19.758 13.008 19.338 12.912 18.834 12.912C18.438 12.912 18.012 13.002 17.556 13.182C17.112 13.35 16.74 13.56 16.44 13.812C16.32 13.932 16.218 13.926 16.134 13.794L15.738 13.074C15.714 13.026 15.708 12.978 15.72 12.93C15.732 12.882 15.75 12.852 15.774 12.84C16.086 12.6 16.422 12.402 16.782 12.246C17.154 12.09 17.52 11.976 17.88 11.904C18.252 11.832 18.594 11.796 18.906 11.796C19.65 11.796 20.274 11.94 20.778 12.228C21.282 12.504 21.66 12.87 21.912 13.326C22.176 13.782 22.308 14.262 22.308 14.766C22.308 15.342 22.158 15.876 21.858 16.368C21.57 16.86 21.15 17.238 20.598 17.502C20.466 17.55 20.4 17.586 20.4 17.61C20.4 17.622 20.484 17.658 20.652 17.718C21.264 17.97 21.738 18.336 22.074 18.816C22.422 19.296 22.596 19.872 22.596 20.544C22.596 21.132 22.446 21.702 22.146 22.254C21.846 22.794 21.414 23.238 20.85 23.586C20.298 23.922 19.62 24.09 18.816 24.09Z" fill="black"/>
</svg>
