<svg width="36" height="36" viewBox="0 0 36 36" fill="none" xmlns="http://www.w3.org/2000/svg">
<circle cx="18" cy="18" r="18" fill="#EDEDED"/>
<path d="M14.294 24C14.198 24 14.15 23.958 14.15 23.874V13.524C14.15 13.404 14.096 13.374 13.988 13.434L11.9 14.64C11.792 14.7 11.72 14.688 11.684 14.604L11.27 13.92C11.222 13.824 11.246 13.752 11.342 13.704L14.294 11.994C14.366 11.946 14.42 11.916 14.456 11.904C14.504 11.892 14.558 11.886 14.618 11.886H15.302C15.41 11.886 15.464 11.94 15.464 12.048V23.874C15.464 23.958 15.422 24 15.338 24H14.294ZM20.7223 24.09C20.3383 24.09 19.9483 24.042 19.5522 23.946C19.1563 23.838 18.7843 23.694 18.4363 23.514C18.1003 23.322 17.8183 23.094 17.5903 22.83C17.5543 22.782 17.5363 22.74 17.5363 22.704C17.5363 22.656 17.5543 22.608 17.5903 22.56L18.0583 21.966C18.1423 21.87 18.2263 21.864 18.3103 21.948C18.6463 22.284 19.0183 22.536 19.4263 22.704C19.8343 22.872 20.2543 22.956 20.6863 22.956C21.2383 22.956 21.7003 22.836 22.0723 22.596C22.4563 22.344 22.7443 22.038 22.9363 21.678C23.1283 21.306 23.2243 20.94 23.2243 20.58C23.2243 20.196 23.1223 19.824 22.9183 19.464C22.7263 19.092 22.4263 18.786 22.0183 18.546C21.6103 18.294 21.1003 18.168 20.4883 18.168C20.4163 18.168 20.3503 18.168 20.2903 18.168C20.2303 18.168 20.1643 18.168 20.0923 18.168C20.0443 18.168 20.0023 18.156 19.9663 18.132C19.9423 18.108 19.9303 18.06 19.9303 17.988V17.25C19.9303 17.13 19.9843 17.07 20.0923 17.07C20.1523 17.07 20.2303 17.07 20.3263 17.07C20.4223 17.07 20.5363 17.07 20.6683 17.07C21.1723 17.046 21.5983 16.926 21.9463 16.71C22.2943 16.494 22.5583 16.224 22.7383 15.9C22.9183 15.564 23.0083 15.228 23.0083 14.892C23.0083 14.544 22.9243 14.226 22.7563 13.938C22.5883 13.638 22.3363 13.392 22.0003 13.2C21.6643 13.008 21.2443 12.912 20.7403 12.912C20.3443 12.912 19.9183 13.002 19.4623 13.182C19.0183 13.35 18.6463 13.56 18.3463 13.812C18.2263 13.932 18.1243 13.926 18.0403 13.794L17.6443 13.074C17.6203 13.026 17.6143 12.978 17.6263 12.93C17.6383 12.882 17.6563 12.852 17.6803 12.84C17.9923 12.6 18.3283 12.402 18.6883 12.246C19.0603 12.09 19.4263 11.976 19.7863 11.904C20.1583 11.832 20.5003 11.796 20.8123 11.796C21.5563 11.796 22.1803 11.94 22.6843 12.228C23.1883 12.504 23.5663 12.87 23.8183 13.326C24.0823 13.782 24.2143 14.262 24.2143 14.766C24.2143 15.342 24.0643 15.876 23.7643 16.368C23.4763 16.86 23.0563 17.238 22.5043 17.502C22.3723 17.55 22.3063 17.586 22.3063 17.61C22.3063 17.622 22.3903 17.658 22.5583 17.718C23.1703 17.97 23.6443 18.336 23.9803 18.816C24.3283 19.296 24.5023 19.872 24.5023 20.544C24.5023 21.132 24.3523 21.702 24.0523 22.254C23.7523 22.794 23.3203 23.238 22.7563 23.586C22.2043 23.922 21.5263 24.09 20.7223 24.09Z" fill="black"/>
</svg>
