<svg width="36" height="36" viewBox="0 0 36 36" fill="none" xmlns="http://www.w3.org/2000/svg">
<circle cx="18" cy="18" r="18" fill="#EDEDED"/>
<path d="M9.792 24C9.72 24 9.672 23.994 9.648 23.982C9.624 23.958 9.612 23.916 9.612 23.856V23.064C9.612 22.944 9.654 22.866 9.738 22.83C10.362 22.41 11.01 21.942 11.682 21.426C12.354 20.898 12.978 20.322 13.554 19.698C14.142 19.074 14.616 18.414 14.976 17.718C15.348 17.01 15.534 16.266 15.534 15.486C15.534 14.922 15.414 14.454 15.174 14.082C14.946 13.71 14.634 13.434 14.238 13.254C13.842 13.062 13.392 12.966 12.888 12.966C12.468 12.966 12.078 13.026 11.718 13.146C11.37 13.254 11.07 13.374 10.818 13.506C10.566 13.626 10.374 13.71 10.242 13.758C10.062 13.842 9.972 13.83 9.972 13.722V12.858C9.972 12.786 9.984 12.738 10.008 12.714C10.032 12.678 10.08 12.636 10.152 12.588C10.308 12.504 10.53 12.402 10.818 12.282C11.106 12.15 11.442 12.036 11.826 11.94C12.21 11.844 12.606 11.796 13.014 11.796C13.638 11.796 14.238 11.922 14.814 12.174C15.39 12.414 15.864 12.804 16.236 13.344C16.62 13.884 16.812 14.592 16.812 15.468C16.812 16.236 16.662 16.968 16.362 17.664C16.074 18.348 15.678 18.996 15.174 19.608C14.682 20.22 14.13 20.796 13.518 21.336C12.906 21.864 12.288 22.356 11.664 22.812C11.628 22.836 11.616 22.86 11.628 22.884C11.64 22.908 11.664 22.92 11.7 22.92H16.74C16.824 22.92 16.866 22.956 16.866 23.028V23.856C16.866 23.916 16.854 23.958 16.83 23.982C16.818 23.994 16.776 24 16.704 24H9.792ZM22.2698 24.108C21.5858 24.108 20.9498 23.958 20.3618 23.658C19.7858 23.346 19.3178 22.932 18.9578 22.416C18.6098 21.888 18.4358 21.3 18.4358 20.652C18.4358 19.908 18.6098 19.284 18.9578 18.78C19.3178 18.264 19.7678 17.88 20.3078 17.628C20.4038 17.592 20.4578 17.55 20.4698 17.502C20.4938 17.442 20.4758 17.394 20.4158 17.358C19.9838 17.178 19.6418 16.89 19.3898 16.494C19.1378 16.098 19.0118 15.588 19.0118 14.964C19.0118 14.376 19.1618 13.848 19.4618 13.38C19.7618 12.9 20.1578 12.522 20.6498 12.246C21.1538 11.958 21.6938 11.814 22.2698 11.814C22.8818 11.814 23.4338 11.958 23.9258 12.246C24.4298 12.522 24.8258 12.9 25.1138 13.38C25.4138 13.848 25.5638 14.376 25.5638 14.964C25.5638 15.636 25.4378 16.17 25.1858 16.566C24.9338 16.95 24.5918 17.238 24.1598 17.43C24.1358 17.454 24.1298 17.49 24.1418 17.538C24.1538 17.586 24.2018 17.622 24.2858 17.646C24.8498 17.91 25.2998 18.288 25.6358 18.78C25.9718 19.26 26.1398 19.884 26.1398 20.652C26.1398 21.3 25.9598 21.888 25.5998 22.416C25.2518 22.932 24.7838 23.346 24.1958 23.658C23.6198 23.958 22.9778 24.108 22.2698 24.108ZM22.3058 16.89C22.6538 16.89 22.9778 16.818 23.2778 16.674C23.5898 16.53 23.8418 16.314 24.0338 16.026C24.2258 15.738 24.3218 15.384 24.3218 14.964C24.3218 14.616 24.2318 14.298 24.0518 14.01C23.8718 13.71 23.6258 13.476 23.3138 13.308C23.0018 13.128 22.6538 13.038 22.2698 13.038C21.8978 13.038 21.5558 13.128 21.2438 13.308C20.9438 13.476 20.6978 13.71 20.5058 14.01C20.3258 14.298 20.2358 14.616 20.2358 14.964C20.2358 15.372 20.3378 15.72 20.5418 16.008C20.7458 16.296 21.0038 16.512 21.3158 16.656C21.6278 16.8 21.9578 16.878 22.3058 16.89ZM22.2698 22.92C22.7738 22.92 23.2178 22.818 23.6018 22.614C23.9978 22.398 24.3098 22.116 24.5378 21.768C24.7778 21.42 24.8978 21.042 24.8978 20.634C24.8978 20.106 24.7718 19.662 24.5198 19.302C24.2798 18.942 23.9618 18.666 23.5658 18.474C23.1818 18.282 22.7678 18.18 22.3238 18.168C21.8798 18.168 21.4538 18.264 21.0458 18.456C20.6498 18.636 20.3258 18.912 20.0738 19.284C19.8218 19.644 19.6958 20.094 19.6958 20.634C19.6958 21.042 19.8098 21.42 20.0378 21.768C20.2658 22.116 20.5718 22.398 20.9558 22.614C21.3518 22.818 21.7898 22.92 22.2698 22.92Z" fill="black"/>
</svg>
