<svg width="36" height="36" viewBox="0 0 36 36" fill="none" xmlns="http://www.w3.org/2000/svg">
<circle cx="18" cy="18" r="18" fill="#EDEDED"/>
<path d="M10.792 24C10.72 24 10.672 23.994 10.648 23.982C10.624 23.958 10.612 23.916 10.612 23.856V23.064C10.612 22.944 10.654 22.866 10.738 22.83C11.362 22.41 12.01 21.942 12.682 21.426C13.354 20.898 13.978 20.322 14.554 19.698C15.142 19.074 15.616 18.414 15.976 17.718C16.348 17.01 16.534 16.266 16.534 15.486C16.534 14.922 16.414 14.454 16.174 14.082C15.946 13.71 15.634 13.434 15.238 13.254C14.842 13.062 14.392 12.966 13.888 12.966C13.468 12.966 13.078 13.026 12.718 13.146C12.37 13.254 12.07 13.374 11.818 13.506C11.566 13.626 11.374 13.71 11.242 13.758C11.062 13.842 10.972 13.83 10.972 13.722V12.858C10.972 12.786 10.984 12.738 11.008 12.714C11.032 12.678 11.08 12.636 11.152 12.588C11.308 12.504 11.53 12.402 11.818 12.282C12.106 12.15 12.442 12.036 12.826 11.94C13.21 11.844 13.606 11.796 14.014 11.796C14.638 11.796 15.238 11.922 15.814 12.174C16.39 12.414 16.864 12.804 17.236 13.344C17.62 13.884 17.812 14.592 17.812 15.468C17.812 16.236 17.662 16.968 17.362 17.664C17.074 18.348 16.678 18.996 16.174 19.608C15.682 20.22 15.13 20.796 14.518 21.336C13.906 21.864 13.288 22.356 12.664 22.812C12.628 22.836 12.616 22.86 12.628 22.884C12.64 22.908 12.664 22.92 12.7 22.92H17.74C17.824 22.92 17.866 22.956 17.866 23.028V23.856C17.866 23.916 17.854 23.958 17.83 23.982C17.818 23.994 17.776 24 17.704 24H10.792ZM21.1458 24C21.0738 24 21.0258 23.994 21.0018 23.982C20.9778 23.97 20.9658 23.928 20.9658 23.856C21.0018 23.508 21.0978 23.034 21.2538 22.434C21.4218 21.822 21.6258 21.156 21.8658 20.436C22.1178 19.704 22.3758 18.978 22.6398 18.258C22.9038 17.55 23.1798 16.866 23.4678 16.206C23.7558 15.546 24.0198 14.952 24.2598 14.424C24.4998 13.884 24.6978 13.458 24.8538 13.146C24.8778 13.074 24.8778 13.026 24.8538 13.002C24.8298 12.978 24.7638 12.96 24.6558 12.948H19.3278C19.2798 12.948 19.2438 12.942 19.2198 12.93C19.2078 12.918 19.2018 12.888 19.2018 12.84V12.012C19.2018 11.952 19.2138 11.916 19.2378 11.904C19.2618 11.892 19.2978 11.886 19.3458 11.886H26.4378C26.4738 11.886 26.4978 11.892 26.5098 11.904C26.5338 11.916 26.5458 11.952 26.5458 12.012V12.498C26.5458 12.582 26.5158 12.672 26.4558 12.768C26.2758 13.068 26.0418 13.506 25.7538 14.082C25.4778 14.646 25.1718 15.312 24.8358 16.08C24.5118 16.836 24.1818 17.646 23.8458 18.51C23.5938 19.194 23.3538 19.878 23.1258 20.562C22.8978 21.234 22.7058 21.858 22.5498 22.434C22.4058 23.01 22.3218 23.49 22.2978 23.874C22.2978 23.922 22.2738 23.958 22.2258 23.982C22.1898 23.994 22.1478 24 22.0998 24H21.1458Z" fill="black"/>
</svg>
