<svg width="36" height="36" viewBox="0 0 36 36" fill="none" xmlns="http://www.w3.org/2000/svg">
<circle cx="18" cy="18" r="18" fill="#EDEDED"/>
<path d="M9.792 24C9.72 24 9.672 23.994 9.648 23.982C9.624 23.958 9.612 23.916 9.612 23.856V23.064C9.612 22.944 9.654 22.866 9.738 22.83C10.362 22.41 11.01 21.942 11.682 21.426C12.354 20.898 12.978 20.322 13.554 19.698C14.142 19.074 14.616 18.414 14.976 17.718C15.348 17.01 15.534 16.266 15.534 15.486C15.534 14.922 15.414 14.454 15.174 14.082C14.946 13.71 14.634 13.434 14.238 13.254C13.842 13.062 13.392 12.966 12.888 12.966C12.468 12.966 12.078 13.026 11.718 13.146C11.37 13.254 11.07 13.374 10.818 13.506C10.566 13.626 10.374 13.71 10.242 13.758C10.062 13.842 9.972 13.83 9.972 13.722V12.858C9.972 12.786 9.984 12.738 10.008 12.714C10.032 12.678 10.08 12.636 10.152 12.588C10.308 12.504 10.53 12.402 10.818 12.282C11.106 12.15 11.442 12.036 11.826 11.94C12.21 11.844 12.606 11.796 13.014 11.796C13.638 11.796 14.238 11.922 14.814 12.174C15.39 12.414 15.864 12.804 16.236 13.344C16.62 13.884 16.812 14.592 16.812 15.468C16.812 16.236 16.662 16.968 16.362 17.664C16.074 18.348 15.678 18.996 15.174 19.608C14.682 20.22 14.13 20.796 13.518 21.336C12.906 21.864 12.288 22.356 11.664 22.812C11.628 22.836 11.616 22.86 11.628 22.884C11.64 22.908 11.664 22.92 11.7 22.92H16.74C16.824 22.92 16.866 22.956 16.866 23.028V23.856C16.866 23.916 16.854 23.958 16.83 23.982C16.818 23.994 16.776 24 16.704 24H9.792ZM21.2978 24.09C21.0578 24.09 20.7878 24.06 20.4878 24C20.1878 23.952 19.8878 23.874 19.5878 23.766C19.2998 23.646 19.0238 23.502 18.7598 23.334C18.7238 23.298 18.6938 23.262 18.6698 23.226C18.6578 23.19 18.6638 23.154 18.6878 23.118L19.1558 22.326C19.1918 22.278 19.2278 22.26 19.2638 22.272C19.3118 22.272 19.3538 22.284 19.3898 22.308C19.7258 22.5 20.0438 22.644 20.3438 22.74C20.6438 22.824 20.9618 22.866 21.2978 22.866C21.6578 22.866 22.0118 22.806 22.3598 22.686C22.7078 22.566 23.0258 22.392 23.3138 22.164C23.6018 21.924 23.8298 21.624 23.9978 21.264C24.1778 20.892 24.2678 20.472 24.2678 20.004C24.2678 19.5 24.1538 19.05 23.9258 18.654C23.7098 18.258 23.3798 17.946 22.9358 17.718C22.5038 17.478 21.9698 17.358 21.3338 17.358C21.1538 17.358 20.9558 17.364 20.7398 17.376C20.5358 17.388 20.3318 17.412 20.1278 17.448C19.9238 17.472 19.7318 17.52 19.5518 17.592C19.4318 17.628 19.3478 17.634 19.2998 17.61C19.2638 17.586 19.2458 17.532 19.2458 17.448V12.102C19.2458 12.03 19.2578 11.976 19.2818 11.94C19.3058 11.904 19.3658 11.886 19.4618 11.886H24.4118C24.4718 11.886 24.5138 11.898 24.5378 11.922C24.5618 11.934 24.5738 11.964 24.5738 12.012V12.858C24.5738 12.942 24.5198 12.984 24.4118 12.984H20.5418C20.4458 12.984 20.3978 13.032 20.3978 13.128V16.242C20.3978 16.29 20.4098 16.332 20.4338 16.368C20.4578 16.392 20.5058 16.398 20.5778 16.386C20.7338 16.362 20.8898 16.35 21.0458 16.35C21.2018 16.35 21.3338 16.35 21.4418 16.35C22.3658 16.35 23.1278 16.512 23.7278 16.836C24.3398 17.16 24.7898 17.592 25.0778 18.132C25.3778 18.66 25.5278 19.26 25.5278 19.932C25.5398 20.772 25.3478 21.51 24.9518 22.146C24.5558 22.77 24.0338 23.256 23.3858 23.604C22.7378 23.94 22.0418 24.102 21.2978 24.09Z" fill="black"/>
</svg>
