<svg width="36" height="36" viewBox="0 0 36 36" fill="none" xmlns="http://www.w3.org/2000/svg">
<circle cx="18" cy="18" r="18" fill="#EDEDED"/>
<path d="M15.294 24C15.198 24 15.15 23.958 15.15 23.874V13.524C15.15 13.404 15.096 13.374 14.988 13.434L12.9 14.64C12.792 14.7 12.72 14.688 12.684 14.604L12.27 13.92C12.222 13.824 12.246 13.752 12.342 13.704L15.294 11.994C15.366 11.946 15.42 11.916 15.456 11.904C15.504 11.892 15.558 11.886 15.618 11.886H16.302C16.41 11.886 16.464 11.94 16.464 12.048V23.874C16.464 23.958 16.422 24 16.338 24H15.294ZM21.2003 24C21.1043 24 21.0563 23.958 21.0563 23.874V13.524C21.0563 13.404 21.0023 13.374 20.8943 13.434L18.8063 14.64C18.6983 14.7 18.6263 14.688 18.5903 14.604L18.1763 13.92C18.1283 13.824 18.1523 13.752 18.2483 13.704L21.2003 11.994C21.2723 11.946 21.3263 11.916 21.3623 11.904C21.4103 11.892 21.4643 11.886 21.5243 11.886H22.2083C22.3163 11.886 22.3703 11.94 22.3703 12.048V23.874C22.3703 23.958 22.3283 24 22.2443 24H21.2003Z" fill="black"/>
</svg>
