<svg width="36" height="36" viewBox="0 0 36 36" fill="none" xmlns="http://www.w3.org/2000/svg">
<circle cx="18" cy="18" r="18" fill="#EDEDED"/>
<path d="M13.294 24C13.198 24 13.15 23.958 13.15 23.874V13.524C13.15 13.404 13.096 13.374 12.988 13.434L10.9 14.64C10.792 14.7 10.72 14.688 10.684 14.604L10.27 13.92C10.222 13.824 10.246 13.752 10.342 13.704L13.294 11.994C13.366 11.946 13.42 11.916 13.456 11.904C13.504 11.892 13.558 11.886 13.618 11.886H14.302C14.41 11.886 14.464 11.94 14.464 12.048V23.874C14.464 23.958 14.422 24 14.338 24H13.294ZM20.8923 24.216C20.1843 24.204 19.5063 24.012 18.8583 23.64C18.2223 23.256 17.7003 22.656 17.2923 21.84C16.8843 21.012 16.6803 19.932 16.6803 18.6C16.6803 17.808 16.8063 17.01 17.0583 16.206C17.3103 15.402 17.6763 14.664 18.1562 13.992C18.6483 13.32 19.2603 12.786 19.9923 12.39C20.7363 11.982 21.6003 11.778 22.5843 11.778C22.6803 11.778 22.8183 11.784 22.9983 11.796C23.1903 11.808 23.3583 11.832 23.5023 11.868C23.5503 11.868 23.5983 11.886 23.6463 11.922C23.6943 11.958 23.7183 12.024 23.7183 12.12C23.7183 12.228 23.7183 12.342 23.7183 12.462C23.7183 12.582 23.7183 12.702 23.7183 12.822C23.7183 12.894 23.7063 12.942 23.6823 12.966C23.6583 12.978 23.6103 12.972 23.5383 12.948C23.4663 12.936 23.3703 12.924 23.2503 12.912C23.1303 12.9 22.9923 12.894 22.8363 12.894C22.6923 12.882 22.5423 12.888 22.3863 12.912C22.2423 12.936 22.1043 12.984 21.9723 13.056C21.3723 13.092 20.8323 13.26 20.3523 13.56C19.8723 13.848 19.4583 14.22 19.1103 14.676C18.7743 15.132 18.5043 15.642 18.3003 16.206C18.1083 16.758 17.9943 17.316 17.9583 17.88C17.9463 17.976 17.9523 18.042 17.9763 18.078C18.0123 18.102 18.0663 18.06 18.1383 17.952C18.4623 17.508 18.9003 17.148 19.4523 16.872C20.0163 16.596 20.6103 16.458 21.2343 16.458C21.9063 16.458 22.4823 16.56 22.9623 16.764C23.4543 16.968 23.8503 17.25 24.1503 17.61C24.4503 17.958 24.6723 18.354 24.8163 18.798C24.9603 19.23 25.0323 19.68 25.0323 20.148C25.0323 20.82 24.8703 21.468 24.5463 22.092C24.2223 22.716 23.7483 23.226 23.1243 23.622C22.5123 24.018 21.7683 24.216 20.8923 24.216ZM20.8923 23.082C21.5163 23.082 22.0383 22.938 22.4583 22.65C22.8903 22.35 23.2143 21.978 23.4303 21.534C23.6463 21.078 23.7603 20.61 23.7723 20.13C23.7723 19.698 23.6703 19.29 23.4663 18.906C23.2623 18.522 22.9623 18.21 22.5663 17.97C22.1823 17.718 21.6843 17.592 21.0723 17.592C20.6403 17.592 20.2203 17.694 19.8123 17.898C19.4163 18.102 19.0563 18.354 18.7323 18.654C18.4203 18.954 18.1803 19.266 18.0123 19.59C18.0003 20.01 18.0663 20.43 18.2103 20.85C18.3543 21.27 18.5523 21.648 18.8043 21.984C19.0683 22.32 19.3743 22.59 19.7223 22.794C20.0823 22.986 20.4723 23.082 20.8923 23.082Z" fill="black"/>
</svg>
