<svg width="36" height="36" viewBox="0 0 36 36" fill="none" xmlns="http://www.w3.org/2000/svg">
<circle cx="18" cy="18" r="18" fill="#EDEDED"/>
<path d="M18.428 24.108C17.744 24.108 17.108 23.958 16.52 23.658C15.944 23.346 15.476 22.932 15.116 22.416C14.768 21.888 14.594 21.3 14.594 20.652C14.594 19.908 14.768 19.284 15.116 18.78C15.476 18.264 15.926 17.88 16.466 17.628C16.562 17.592 16.616 17.55 16.628 17.502C16.652 17.442 16.634 17.394 16.574 17.358C16.142 17.178 15.8 16.89 15.548 16.494C15.296 16.098 15.17 15.588 15.17 14.964C15.17 14.376 15.32 13.848 15.62 13.38C15.92 12.9 16.316 12.522 16.808 12.246C17.312 11.958 17.852 11.814 18.428 11.814C19.04 11.814 19.592 11.958 20.084 12.246C20.588 12.522 20.984 12.9 21.272 13.38C21.572 13.848 21.722 14.376 21.722 14.964C21.722 15.636 21.596 16.17 21.344 16.566C21.092 16.95 20.75 17.238 20.318 17.43C20.294 17.454 20.288 17.49 20.3 17.538C20.312 17.586 20.36 17.622 20.444 17.646C21.008 17.91 21.458 18.288 21.794 18.78C22.13 19.26 22.298 19.884 22.298 20.652C22.298 21.3 22.118 21.888 21.758 22.416C21.41 22.932 20.942 23.346 20.354 23.658C19.778 23.958 19.136 24.108 18.428 24.108ZM18.464 16.89C18.812 16.89 19.136 16.818 19.436 16.674C19.748 16.53 20 16.314 20.192 16.026C20.384 15.738 20.48 15.384 20.48 14.964C20.48 14.616 20.39 14.298 20.21 14.01C20.03 13.71 19.784 13.476 19.472 13.308C19.16 13.128 18.812 13.038 18.428 13.038C18.056 13.038 17.714 13.128 17.402 13.308C17.102 13.476 16.856 13.71 16.664 14.01C16.484 14.298 16.394 14.616 16.394 14.964C16.394 15.372 16.496 15.72 16.7 16.008C16.904 16.296 17.162 16.512 17.474 16.656C17.786 16.8 18.116 16.878 18.464 16.89ZM18.428 22.92C18.932 22.92 19.376 22.818 19.76 22.614C20.156 22.398 20.468 22.116 20.696 21.768C20.936 21.42 21.056 21.042 21.056 20.634C21.056 20.106 20.93 19.662 20.678 19.302C20.438 18.942 20.12 18.666 19.724 18.474C19.34 18.282 18.926 18.18 18.482 18.168C18.038 18.168 17.612 18.264 17.204 18.456C16.808 18.636 16.484 18.912 16.232 19.284C15.98 19.644 15.854 20.094 15.854 20.634C15.854 21.042 15.968 21.42 16.196 21.768C16.424 22.116 16.73 22.398 17.114 22.614C17.51 22.818 17.948 22.92 18.428 22.92Z" fill="black"/>
</svg>
