<svg width="36" height="36" viewBox="0 0 36 36" fill="none" xmlns="http://www.w3.org/2000/svg">
<circle cx="18" cy="18" r="18" fill="#EDEDED"/>
<path d="M10.792 24C10.72 24 10.672 23.994 10.648 23.982C10.624 23.958 10.612 23.916 10.612 23.856V23.064C10.612 22.944 10.654 22.866 10.738 22.83C11.362 22.41 12.01 21.942 12.682 21.426C13.354 20.898 13.978 20.322 14.554 19.698C15.142 19.074 15.616 18.414 15.976 17.718C16.348 17.01 16.534 16.266 16.534 15.486C16.534 14.922 16.414 14.454 16.174 14.082C15.946 13.71 15.634 13.434 15.238 13.254C14.842 13.062 14.392 12.966 13.888 12.966C13.468 12.966 13.078 13.026 12.718 13.146C12.37 13.254 12.07 13.374 11.818 13.506C11.566 13.626 11.374 13.71 11.242 13.758C11.062 13.842 10.972 13.83 10.972 13.722V12.858C10.972 12.786 10.984 12.738 11.008 12.714C11.032 12.678 11.08 12.636 11.152 12.588C11.308 12.504 11.53 12.402 11.818 12.282C12.106 12.15 12.442 12.036 12.826 11.94C13.21 11.844 13.606 11.796 14.014 11.796C14.638 11.796 15.238 11.922 15.814 12.174C16.39 12.414 16.864 12.804 17.236 13.344C17.62 13.884 17.812 14.592 17.812 15.468C17.812 16.236 17.662 16.968 17.362 17.664C17.074 18.348 16.678 18.996 16.174 19.608C15.682 20.22 15.13 20.796 14.518 21.336C13.906 21.864 13.288 22.356 12.664 22.812C12.628 22.836 12.616 22.86 12.628 22.884C12.64 22.908 12.664 22.92 12.7 22.92H17.74C17.824 22.92 17.866 22.956 17.866 23.028V23.856C17.866 23.916 17.854 23.958 17.83 23.982C17.818 23.994 17.776 24 17.704 24H10.792ZM19.6338 24C19.5618 24 19.5138 23.994 19.4898 23.982C19.4658 23.958 19.4538 23.916 19.4538 23.856V23.064C19.4538 22.944 19.4958 22.866 19.5798 22.83C20.2038 22.41 20.8518 21.942 21.5238 21.426C22.1958 20.898 22.8198 20.322 23.3958 19.698C23.9838 19.074 24.4578 18.414 24.8178 17.718C25.1898 17.01 25.3758 16.266 25.3758 15.486C25.3758 14.922 25.2558 14.454 25.0158 14.082C24.7878 13.71 24.4758 13.434 24.0798 13.254C23.6838 13.062 23.2338 12.966 22.7298 12.966C22.3098 12.966 21.9198 13.026 21.5598 13.146C21.2118 13.254 20.9118 13.374 20.6598 13.506C20.4078 13.626 20.2158 13.71 20.0838 13.758C19.9038 13.842 19.8138 13.83 19.8138 13.722V12.858C19.8138 12.786 19.8258 12.738 19.8498 12.714C19.8738 12.678 19.9218 12.636 19.9938 12.588C20.1498 12.504 20.3718 12.402 20.6598 12.282C20.9478 12.15 21.2838 12.036 21.6678 11.94C22.0518 11.844 22.4478 11.796 22.8558 11.796C23.4798 11.796 24.0798 11.922 24.6558 12.174C25.2318 12.414 25.7058 12.804 26.0778 13.344C26.4618 13.884 26.6538 14.592 26.6538 15.468C26.6538 16.236 26.5038 16.968 26.2038 17.664C25.9158 18.348 25.5198 18.996 25.0158 19.608C24.5238 20.22 23.9718 20.796 23.3598 21.336C22.7478 21.864 22.1298 22.356 21.5058 22.812C21.4698 22.836 21.4578 22.86 21.4698 22.884C21.4818 22.908 21.5058 22.92 21.5418 22.92H26.5818C26.6658 22.92 26.7078 22.956 26.7078 23.028V23.856C26.7078 23.916 26.6958 23.958 26.6718 23.982C26.6598 23.994 26.6178 24 26.5458 24H19.6338Z" fill="black"/>
</svg>
