<svg width="36" height="36" viewBox="0 0 36 36" fill="none" xmlns="http://www.w3.org/2000/svg">
<circle cx="18" cy="18" r="18" fill="#EDEDED"/>
<path d="M10.792 24C10.72 24 10.672 23.994 10.648 23.982C10.624 23.958 10.612 23.916 10.612 23.856V23.064C10.612 22.944 10.654 22.866 10.738 22.83C11.362 22.41 12.01 21.942 12.682 21.426C13.354 20.898 13.978 20.322 14.554 19.698C15.142 19.074 15.616 18.414 15.976 17.718C16.348 17.01 16.534 16.266 16.534 15.486C16.534 14.922 16.414 14.454 16.174 14.082C15.946 13.71 15.634 13.434 15.238 13.254C14.842 13.062 14.392 12.966 13.888 12.966C13.468 12.966 13.078 13.026 12.718 13.146C12.37 13.254 12.07 13.374 11.818 13.506C11.566 13.626 11.374 13.71 11.242 13.758C11.062 13.842 10.972 13.83 10.972 13.722V12.858C10.972 12.786 10.984 12.738 11.008 12.714C11.032 12.678 11.08 12.636 11.152 12.588C11.308 12.504 11.53 12.402 11.818 12.282C12.106 12.15 12.442 12.036 12.826 11.94C13.21 11.844 13.606 11.796 14.014 11.796C14.638 11.796 15.238 11.922 15.814 12.174C16.39 12.414 16.864 12.804 17.236 13.344C17.62 13.884 17.812 14.592 17.812 15.468C17.812 16.236 17.662 16.968 17.362 17.664C17.074 18.348 16.678 18.996 16.174 19.608C15.682 20.22 15.13 20.796 14.518 21.336C13.906 21.864 13.288 22.356 12.664 22.812C12.628 22.836 12.616 22.86 12.628 22.884C12.64 22.908 12.664 22.92 12.7 22.92H17.74C17.824 22.92 17.866 22.956 17.866 23.028V23.856C17.866 23.916 17.854 23.958 17.83 23.982C17.818 23.994 17.776 24 17.704 24H10.792ZM23.8278 24.216C23.1198 24.204 22.4418 24.012 21.7938 23.64C21.1578 23.256 20.6358 22.656 20.2278 21.84C19.8198 21.012 19.6158 19.932 19.6158 18.6C19.6158 17.808 19.7418 17.01 19.9938 16.206C20.2458 15.402 20.6118 14.664 21.0918 13.992C21.5838 13.32 22.1958 12.786 22.9278 12.39C23.6718 11.982 24.5358 11.778 25.5198 11.778C25.6158 11.778 25.7538 11.784 25.9338 11.796C26.1258 11.808 26.2938 11.832 26.4378 11.868C26.4858 11.868 26.5338 11.886 26.5818 11.922C26.6298 11.958 26.6538 12.024 26.6538 12.12C26.6538 12.228 26.6538 12.342 26.6538 12.462C26.6538 12.582 26.6538 12.702 26.6538 12.822C26.6538 12.894 26.6418 12.942 26.6178 12.966C26.5938 12.978 26.5458 12.972 26.4738 12.948C26.4018 12.936 26.3058 12.924 26.1858 12.912C26.0658 12.9 25.9278 12.894 25.7718 12.894C25.6278 12.882 25.4778 12.888 25.3218 12.912C25.1778 12.936 25.0398 12.984 24.9078 13.056C24.3078 13.092 23.7678 13.26 23.2878 13.56C22.8078 13.848 22.3938 14.22 22.0458 14.676C21.7098 15.132 21.4398 15.642 21.2358 16.206C21.0438 16.758 20.9298 17.316 20.8938 17.88C20.8818 17.976 20.8878 18.042 20.9118 18.078C20.9478 18.102 21.0018 18.06 21.0738 17.952C21.3978 17.508 21.8358 17.148 22.3878 16.872C22.9518 16.596 23.5458 16.458 24.1698 16.458C24.8418 16.458 25.4178 16.56 25.8978 16.764C26.3898 16.968 26.7858 17.25 27.0858 17.61C27.3858 17.958 27.6078 18.354 27.7518 18.798C27.8958 19.23 27.9678 19.68 27.9678 20.148C27.9678 20.82 27.8058 21.468 27.4818 22.092C27.1578 22.716 26.6838 23.226 26.0598 23.622C25.4478 24.018 24.7038 24.216 23.8278 24.216ZM23.8278 23.082C24.4518 23.082 24.9738 22.938 25.3938 22.65C25.8258 22.35 26.1498 21.978 26.3658 21.534C26.5818 21.078 26.6958 20.61 26.7078 20.13C26.7078 19.698 26.6058 19.29 26.4018 18.906C26.1978 18.522 25.8978 18.21 25.5018 17.97C25.1178 17.718 24.6198 17.592 24.0078 17.592C23.5758 17.592 23.1558 17.694 22.7478 17.898C22.3518 18.102 21.9918 18.354 21.6678 18.654C21.3558 18.954 21.1158 19.266 20.9478 19.59C20.9358 20.01 21.0018 20.43 21.1458 20.85C21.2898 21.27 21.4878 21.648 21.7398 21.984C22.0038 22.32 22.3098 22.59 22.6578 22.794C23.0178 22.986 23.4078 23.082 23.8278 23.082Z" fill="black"/>
</svg>
