<svg width="36" height="36" viewBox="0 0 36 36" fill="none" xmlns="http://www.w3.org/2000/svg">
<circle cx="18" cy="18" r="18" fill="#EDEDED"/>
<path d="M16.304 24C16.232 24 16.184 23.994 16.16 23.982C16.136 23.97 16.124 23.928 16.124 23.856C16.16 23.508 16.256 23.034 16.412 22.434C16.58 21.822 16.784 21.156 17.024 20.436C17.276 19.704 17.534 18.978 17.798 18.258C18.062 17.55 18.338 16.866 18.626 16.206C18.914 15.546 19.178 14.952 19.418 14.424C19.658 13.884 19.856 13.458 20.012 13.146C20.036 13.074 20.036 13.026 20.012 13.002C19.988 12.978 19.922 12.96 19.814 12.948H14.486C14.438 12.948 14.402 12.942 14.378 12.93C14.366 12.918 14.36 12.888 14.36 12.84V12.012C14.36 11.952 14.372 11.916 14.396 11.904C14.42 11.892 14.456 11.886 14.504 11.886H21.596C21.632 11.886 21.656 11.892 21.668 11.904C21.692 11.916 21.704 11.952 21.704 12.012V12.498C21.704 12.582 21.674 12.672 21.614 12.768C21.434 13.068 21.2 13.506 20.912 14.082C20.636 14.646 20.33 15.312 19.994 16.08C19.67 16.836 19.34 17.646 19.004 18.51C18.752 19.194 18.512 19.878 18.284 20.562C18.056 21.234 17.864 21.858 17.708 22.434C17.564 23.01 17.48 23.49 17.456 23.874C17.456 23.922 17.432 23.958 17.384 23.982C17.348 23.994 17.306 24 17.258 24H16.304Z" fill="black"/>
</svg>
