<svg width="36" height="36" viewBox="0 0 36 36" fill="none" xmlns="http://www.w3.org/2000/svg">
<circle cx="18" cy="18" r="18" fill="#EDEDED"/>
<path d="M17.986 24.216C17.278 24.204 16.6 24.012 15.952 23.64C15.316 23.256 14.794 22.656 14.386 21.84C13.978 21.012 13.774 19.932 13.774 18.6C13.774 17.808 13.9 17.01 14.152 16.206C14.404 15.402 14.77 14.664 15.25 13.992C15.742 13.32 16.354 12.786 17.086 12.39C17.83 11.982 18.694 11.778 19.678 11.778C19.774 11.778 19.912 11.784 20.092 11.796C20.284 11.808 20.452 11.832 20.596 11.868C20.644 11.868 20.692 11.886 20.74 11.922C20.788 11.958 20.812 12.024 20.812 12.12C20.812 12.228 20.812 12.342 20.812 12.462C20.812 12.582 20.812 12.702 20.812 12.822C20.812 12.894 20.8 12.942 20.776 12.966C20.752 12.978 20.704 12.972 20.632 12.948C20.56 12.936 20.464 12.924 20.344 12.912C20.224 12.9 20.086 12.894 19.93 12.894C19.786 12.882 19.636 12.888 19.48 12.912C19.336 12.936 19.198 12.984 19.066 13.056C18.466 13.092 17.926 13.26 17.446 13.56C16.966 13.848 16.552 14.22 16.204 14.676C15.868 15.132 15.598 15.642 15.394 16.206C15.202 16.758 15.088 17.316 15.052 17.88C15.04 17.976 15.046 18.042 15.07 18.078C15.106 18.102 15.16 18.06 15.232 17.952C15.556 17.508 15.994 17.148 16.546 16.872C17.11 16.596 17.704 16.458 18.328 16.458C19 16.458 19.576 16.56 20.056 16.764C20.548 16.968 20.944 17.25 21.244 17.61C21.544 17.958 21.766 18.354 21.91 18.798C22.054 19.23 22.126 19.68 22.126 20.148C22.126 20.82 21.964 21.468 21.64 22.092C21.316 22.716 20.842 23.226 20.218 23.622C19.606 24.018 18.862 24.216 17.986 24.216ZM17.986 23.082C18.61 23.082 19.132 22.938 19.552 22.65C19.984 22.35 20.308 21.978 20.524 21.534C20.74 21.078 20.854 20.61 20.866 20.13C20.866 19.698 20.764 19.29 20.56 18.906C20.356 18.522 20.056 18.21 19.66 17.97C19.276 17.718 18.778 17.592 18.166 17.592C17.734 17.592 17.314 17.694 16.906 17.898C16.51 18.102 16.15 18.354 15.826 18.654C15.514 18.954 15.274 19.266 15.106 19.59C15.094 20.01 15.16 20.43 15.304 20.85C15.448 21.27 15.646 21.648 15.898 21.984C16.162 22.32 16.468 22.59 16.816 22.794C17.176 22.986 17.566 23.082 17.986 23.082Z" fill="black"/>
</svg>
