<svg width="36" height="36" viewBox="0 0 36 36" fill="none" xmlns="http://www.w3.org/2000/svg">
<circle cx="18" cy="18" r="18" fill="#EDEDED"/>
<path d="M13.816 24.09C13.432 24.09 13.042 24.042 12.646 23.946C12.25 23.838 11.878 23.694 11.53 23.514C11.194 23.322 10.912 23.094 10.684 22.83C10.648 22.782 10.63 22.74 10.63 22.704C10.63 22.656 10.648 22.608 10.684 22.56L11.152 21.966C11.236 21.87 11.32 21.864 11.404 21.948C11.74 22.284 12.112 22.536 12.52 22.704C12.928 22.872 13.348 22.956 13.78 22.956C14.332 22.956 14.794 22.836 15.166 22.596C15.55 22.344 15.838 22.038 16.03 21.678C16.222 21.306 16.318 20.94 16.318 20.58C16.318 20.196 16.216 19.824 16.012 19.464C15.82 19.092 15.52 18.786 15.112 18.546C14.704 18.294 14.194 18.168 13.582 18.168C13.51 18.168 13.444 18.168 13.384 18.168C13.324 18.168 13.258 18.168 13.186 18.168C13.138 18.168 13.096 18.156 13.06 18.132C13.036 18.108 13.024 18.06 13.024 17.988V17.25C13.024 17.13 13.078 17.07 13.186 17.07C13.246 17.07 13.324 17.07 13.42 17.07C13.516 17.07 13.63 17.07 13.762 17.07C14.266 17.046 14.692 16.926 15.04 16.71C15.388 16.494 15.652 16.224 15.832 15.9C16.012 15.564 16.102 15.228 16.102 14.892C16.102 14.544 16.018 14.226 15.85 13.938C15.682 13.638 15.43 13.392 15.094 13.2C14.758 13.008 14.338 12.912 13.834 12.912C13.438 12.912 13.012 13.002 12.556 13.182C12.112 13.35 11.74 13.56 11.44 13.812C11.32 13.932 11.218 13.926 11.134 13.794L10.738 13.074C10.714 13.026 10.708 12.978 10.72 12.93C10.732 12.882 10.75 12.852 10.774 12.84C11.086 12.6 11.422 12.402 11.782 12.246C12.154 12.09 12.52 11.976 12.88 11.904C13.252 11.832 13.594 11.796 13.906 11.796C14.65 11.796 15.274 11.94 15.778 12.228C16.282 12.504 16.66 12.87 16.912 13.326C17.176 13.782 17.308 14.262 17.308 14.766C17.308 15.342 17.158 15.876 16.858 16.368C16.57 16.86 16.15 17.238 15.598 17.502C15.466 17.55 15.4 17.586 15.4 17.61C15.4 17.622 15.484 17.658 15.652 17.718C16.264 17.97 16.738 18.336 17.074 18.816C17.422 19.296 17.596 19.872 17.596 20.544C17.596 21.132 17.446 21.702 17.146 22.254C16.846 22.794 16.414 23.238 15.85 23.586C15.298 23.922 14.62 24.09 13.816 24.09ZM22.4293 24.09C22.0453 24.09 21.6553 24.042 21.2593 23.946C20.8633 23.838 20.4913 23.694 20.1433 23.514C19.8073 23.322 19.5253 23.094 19.2973 22.83C19.2613 22.782 19.2433 22.74 19.2433 22.704C19.2433 22.656 19.2613 22.608 19.2973 22.56L19.7653 21.966C19.8493 21.87 19.9333 21.864 20.0173 21.948C20.3533 22.284 20.7253 22.536 21.1333 22.704C21.5413 22.872 21.9613 22.956 22.3933 22.956C22.9453 22.956 23.4073 22.836 23.7793 22.596C24.1633 22.344 24.4513 22.038 24.6433 21.678C24.8353 21.306 24.9313 20.94 24.9313 20.58C24.9313 20.196 24.8293 19.824 24.6253 19.464C24.4333 19.092 24.1333 18.786 23.7253 18.546C23.3173 18.294 22.8073 18.168 22.1953 18.168C22.1233 18.168 22.0573 18.168 21.9973 18.168C21.9373 18.168 21.8713 18.168 21.7993 18.168C21.7513 18.168 21.7093 18.156 21.6733 18.132C21.6493 18.108 21.6373 18.06 21.6373 17.988V17.25C21.6373 17.13 21.6913 17.07 21.7993 17.07C21.8593 17.07 21.9373 17.07 22.0333 17.07C22.1293 17.07 22.2433 17.07 22.3753 17.07C22.8793 17.046 23.3053 16.926 23.6533 16.71C24.0013 16.494 24.2653 16.224 24.4453 15.9C24.6253 15.564 24.7153 15.228 24.7153 14.892C24.7153 14.544 24.6313 14.226 24.4633 13.938C24.2953 13.638 24.0433 13.392 23.7073 13.2C23.3713 13.008 22.9513 12.912 22.4473 12.912C22.0513 12.912 21.6253 13.002 21.1693 13.182C20.7253 13.35 20.3533 13.56 20.0533 13.812C19.9333 13.932 19.8313 13.926 19.7473 13.794L19.3513 13.074C19.3273 13.026 19.3213 12.978 19.3333 12.93C19.3453 12.882 19.3633 12.852 19.3873 12.84C19.6993 12.6 20.0353 12.402 20.3953 12.246C20.7673 12.09 21.1333 11.976 21.4933 11.904C21.8653 11.832 22.2073 11.796 22.5193 11.796C23.2633 11.796 23.8873 11.94 24.3913 12.228C24.8953 12.504 25.2733 12.87 25.5253 13.326C25.7893 13.782 25.9213 14.262 25.9213 14.766C25.9213 15.342 25.7713 15.876 25.4713 16.368C25.1833 16.86 24.7633 17.238 24.2113 17.502C24.0793 17.55 24.0133 17.586 24.0133 17.61C24.0133 17.622 24.0973 17.658 24.2653 17.718C24.8773 17.97 25.3513 18.336 25.6873 18.816C26.0353 19.296 26.2093 19.872 26.2093 20.544C26.2093 21.132 26.0593 21.702 25.7593 22.254C25.4593 22.794 25.0273 23.238 24.4633 23.586C23.9113 23.922 23.2333 24.09 22.4293 24.09Z" fill="black"/>
</svg>
