<svg width="14" height="14" viewBox="0 0 14 14" fill="none" xmlns="http://www.w3.org/2000/svg">
	<g clip-path="url(#clip0_1018_9505)">
	<path d="M11.9375 5.34372C11.8395 4.91161 12.3496 4.26781 12.1615 3.87681C11.9699 3.48057 11.1465 3.47882 10.8744 3.13855C10.6005 2.79653 10.7816 1.99354 10.4395 1.71975C10.0991 1.44772 9.35627 1.8011 8.95989 1.61041C8.56964 1.42235 8.38502 0.619357 7.95189 0.521388C7.53277 0.426044 7.01914 1.06721 6.57115 1.06721C6.12315 1.06721 5.60952 0.426044 5.1904 0.521388C4.75815 0.619357 4.57265 1.42235 4.1824 1.61041C3.78603 1.80198 3.04315 1.44772 2.70278 1.71975C2.36066 1.99354 2.54091 2.79566 2.26791 3.13855C1.99578 3.47882 1.17241 3.48057 0.980785 3.87681C0.79266 4.26694 1.30278 4.91073 1.20478 5.34372C1.10941 5.76271 0.368286 6.12134 0.368286 6.56833C0.368286 7.01531 1.11028 7.37394 1.20478 7.79293C1.30278 8.22505 0.79266 8.86884 0.980785 9.25984C1.17241 9.65609 1.99578 9.65784 2.26791 9.9981C2.54178 10.3401 2.36066 11.1431 2.70278 11.4169C3.04315 11.6889 3.78603 11.3356 4.1824 11.5262C4.57265 11.7143 4.75727 12.5173 5.1904 12.6153C5.60952 12.7106 6.12315 12.0694 6.57115 12.0694C7.01914 12.0694 7.53277 12.7106 7.95189 12.6153C8.38414 12.5173 8.56964 11.7143 8.95989 11.5262C9.35627 11.3347 10.0991 11.6889 10.4395 11.4169C10.7816 11.1431 10.6014 10.341 10.8744 9.9981C11.1465 9.65784 11.9699 9.65609 12.1615 9.25984C12.3496 8.86971 11.8395 8.22592 11.9375 7.79293C12.0329 7.37394 12.774 7.01531 12.774 6.56833C12.774 6.12047 12.0329 5.76271 11.9375 5.34372ZM6.57115 11.2131C4.00565 11.2131 1.92491 9.13388 1.92491 6.56833C1.92491 4.00365 4.00478 1.92356 6.57115 1.92356C9.13751 1.92356 11.2174 4.00277 11.2174 6.56833C11.2165 9.13388 9.13664 11.2131 6.57115 11.2131Z" fill="#ACACAC" stroke="#262E30" stroke-width="0.5" stroke-miterlimit="10"/>
	<path d="M9.85607 9.85267C11.6705 8.0388 11.6705 5.09792 9.85607 3.28405C8.04162 1.47017 5.09981 1.47017 3.28536 3.28405C1.4709 5.09792 1.4709 8.0388 3.28536 9.85267C5.09981 11.6665 8.04162 11.6665 9.85607 9.85267Z" stroke="#262E30" stroke-width="0.5" stroke-miterlimit="10"/>
	</g>
	<defs>
	<clipPath id="clip0_1018_9505">
	<rect width="14" height="14" fill="white" transform="translate(0 14) rotate(-90)"/>
	</clipPath>
	</defs>
	</svg>
	