<svg width="40" height="40" viewBox="0 0 40 40" fill="none" xmlns="http://www.w3.org/2000/svg">
<path d="M28.1475 8.56239V6.71684L24.4325 3H5V31.4596H10.9439V8.56239H28.1475Z" stroke="#2B3436" stroke-width="0.6" stroke-miterlimit="10" stroke-linecap="round" stroke-linejoin="round"/>
<path d="M28.1474 8.56348H10.9438V31.4607V37.0232H34.0913V12.0387L30.7653 8.56348H28.1474Z" stroke="#2B3436" stroke-width="0.6" stroke-miterlimit="10" stroke-linejoin="round"/>
<path d="M24.3876 3.05371L24.2878 6.74997L28.1225 6.79107L24.3876 3.05371Z" fill="#B9C7CE" stroke="#2B3436" stroke-width="0.6" stroke-miterlimit="10" stroke-linecap="round" stroke-linejoin="round"/>
<path d="M30.5856 8.56738L30.4958 12.0734L34.1261 12.1094L30.5856 8.56738Z" fill="#B9C7CE" stroke="#2B3436" stroke-width="0.6" stroke-miterlimit="10" stroke-linecap="round" stroke-linejoin="round"/>
<path fill-rule="evenodd" clip-rule="evenodd" d="M26.661 17.072C27.1937 16.5394 26.9497 15.655 26.1969 15.6813C24.9888 15.7237 23.7933 16.2059 22.8712 17.1281C21.5248 18.4745 21.1161 20.4035 21.6452 22.1035C21.7711 22.5081 21.7027 22.9616 21.4031 23.2612L17.2703 27.394C16.6259 28.0383 16.6259 29.083 17.2703 29.7274C17.9147 30.3718 18.9594 30.3718 19.6038 29.7274L23.7355 25.5956C24.0353 25.2959 24.489 25.2275 24.8938 25.3537C26.5944 25.8839 28.5245 25.4755 29.8715 24.1285C30.7936 23.2064 31.2758 22.0112 31.3183 20.8033C31.3447 20.0504 30.4603 19.8064 29.9276 20.3391L28.9375 21.3292C28.0354 22.2313 26.5728 22.2313 25.6707 21.3292C24.7686 20.4271 24.7686 18.9645 25.6707 18.0623L26.661 17.072Z" fill="#B9C7CE"/>
<path d="M31.3183 20.8033L31.0185 20.7927L31.3183 20.8033ZM24.8938 25.3537L24.983 25.0673L24.8938 25.3537ZM21.6452 22.1035L21.3588 22.1927L21.6452 22.1035ZM26.1864 15.3815C24.9055 15.4264 23.637 15.938 22.659 16.916L23.0833 17.3402C23.9497 16.4738 25.0722 16.0209 26.2074 15.9812L26.1864 15.3815ZM22.659 16.916C21.2308 18.3443 20.7979 20.3904 21.3588 22.1927L21.9317 22.0144C21.4344 20.4166 21.8188 18.6047 23.0833 17.3402L22.659 16.916ZM21.1909 23.049L17.0582 27.1818L17.4824 27.6061L21.6152 23.4733L21.1909 23.049ZM17.0582 27.1818C16.2966 27.9433 16.2966 29.178 17.0582 29.9395L17.4824 29.5153C16.9552 28.9881 16.9552 28.1333 17.4824 27.6061L17.0582 27.1818ZM17.0582 29.9395C17.8197 30.7011 19.0544 30.7011 19.8159 29.9395L19.3916 29.5153C18.8644 30.0425 18.0096 30.0425 17.4824 29.5153L17.0582 29.9395ZM19.8159 29.9395L23.9477 25.8078L23.5234 25.3835L19.3916 29.5153L19.8159 29.9395ZM24.8045 25.6401C26.6073 26.2022 28.6547 25.7695 30.0837 24.3406L29.6594 23.9163C28.3943 25.1814 26.5814 25.5656 24.983 25.0673L24.8045 25.6401ZM30.0837 24.3406C31.0615 23.3628 31.5731 22.0946 31.6181 20.8138L31.0185 20.7927C30.9786 21.9278 30.5257 23.0501 29.6594 23.9163L30.0837 24.3406ZM29.7155 20.127L28.7254 21.1171L29.1497 21.5413L30.1398 20.5512L29.7155 20.127ZM28.7254 21.1171C27.9405 21.902 26.6678 21.902 25.8828 21.1171L25.4586 21.5413C26.4778 22.5606 28.1304 22.5606 29.1497 21.5413L28.7254 21.1171ZM25.8828 21.1171C25.0979 20.3321 25.0979 19.0594 25.8828 18.2745L25.4586 17.8502C24.4393 18.8695 24.4393 20.522 25.4586 21.5413L25.8828 21.1171ZM25.8828 18.2745L26.8732 17.2841L26.4489 16.8599L25.4586 17.8502L25.8828 18.2745ZM31.6181 20.8138C31.6363 20.2965 31.3297 19.9297 30.9218 19.8027C30.5272 19.6798 30.0578 19.7847 29.7155 20.127L30.1398 20.5512C30.3302 20.3608 30.5693 20.3214 30.7435 20.3756C30.9043 20.4256 31.0267 20.5572 31.0185 20.7927L31.6181 20.8138ZM23.9477 25.8078C24.1523 25.6031 24.4823 25.5397 24.8045 25.6401L24.983 25.0673C24.4958 24.9154 23.9183 24.9886 23.5234 25.3835L23.9477 25.8078ZM21.3588 22.1927C21.459 22.5147 21.3955 22.8445 21.1909 23.049L21.6152 23.4733C22.0099 23.0786 22.0833 22.5015 21.9317 22.0144L21.3588 22.1927ZM26.2074 15.9812C26.4429 15.9729 26.5745 16.0954 26.6246 16.2562C26.6788 16.4303 26.6393 16.6695 26.4489 16.8599L26.8732 17.2841C27.2155 16.9419 27.3203 16.4725 27.1975 16.0779C27.0705 15.67 26.7037 15.3634 26.1864 15.3815L26.2074 15.9812Z" fill="#323A3D"/>
<path d="M31.3183 20.8033L31.0185 20.7927L31.3183 20.8033ZM24.8938 25.3537L24.983 25.0673L24.8938 25.3537ZM21.6452 22.1035L21.3588 22.1927L21.6452 22.1035ZM26.1864 15.3815C24.9055 15.4264 23.637 15.938 22.659 16.916L23.0833 17.3402C23.9497 16.4738 25.0722 16.0209 26.2074 15.9812L26.1864 15.3815ZM22.659 16.916C21.2308 18.3443 20.7979 20.3904 21.3588 22.1927L21.9317 22.0144C21.4344 20.4166 21.8188 18.6047 23.0833 17.3402L22.659 16.916ZM21.1909 23.049L17.0582 27.1818L17.4824 27.6061L21.6152 23.4733L21.1909 23.049ZM17.0582 27.1818C16.2966 27.9433 16.2966 29.178 17.0582 29.9395L17.4824 29.5153C16.9552 28.9881 16.9552 28.1333 17.4824 27.6061L17.0582 27.1818ZM17.0582 29.9395C17.8197 30.7011 19.0544 30.7011 19.8159 29.9395L19.3916 29.5153C18.8644 30.0425 18.0096 30.0425 17.4824 29.5153L17.0582 29.9395ZM19.8159 29.9395L23.9477 25.8078L23.5234 25.3835L19.3916 29.5153L19.8159 29.9395ZM24.8045 25.6401C26.6073 26.2022 28.6547 25.7695 30.0837 24.3406L29.6594 23.9163C28.3943 25.1814 26.5814 25.5656 24.983 25.0673L24.8045 25.6401ZM30.0837 24.3406C31.0615 23.3628 31.5731 22.0946 31.6181 20.8138L31.0185 20.7927C30.9786 21.9278 30.5257 23.0501 29.6594 23.9163L30.0837 24.3406ZM29.7155 20.127L28.7254 21.1171L29.1497 21.5413L30.1398 20.5512L29.7155 20.127ZM28.7254 21.1171C27.9405 21.902 26.6678 21.902 25.8828 21.1171L25.4586 21.5413C26.4778 22.5606 28.1304 22.5606 29.1497 21.5413L28.7254 21.1171ZM25.8828 21.1171C25.0979 20.3321 25.0979 19.0594 25.8828 18.2745L25.4586 17.8502C24.4393 18.8695 24.4393 20.522 25.4586 21.5413L25.8828 21.1171ZM25.8828 18.2745L26.8732 17.2841L26.4489 16.8599L25.4586 17.8502L25.8828 18.2745ZM31.6181 20.8138C31.6363 20.2965 31.3297 19.9297 30.9218 19.8027C30.5272 19.6798 30.0578 19.7847 29.7155 20.127L30.1398 20.5512C30.3302 20.3608 30.5693 20.3214 30.7435 20.3756C30.9043 20.4256 31.0267 20.5572 31.0185 20.7927L31.6181 20.8138ZM23.9477 25.8078C24.1523 25.6031 24.4823 25.5397 24.8045 25.6401L24.983 25.0673C24.4958 24.9154 23.9183 24.9886 23.5234 25.3835L23.9477 25.8078ZM21.3588 22.1927C21.459 22.5147 21.3955 22.8445 21.1909 23.049L21.6152 23.4733C22.0099 23.0786 22.0833 22.5015 21.9317 22.0144L21.3588 22.1927ZM26.2074 15.9812C26.4429 15.9729 26.5745 16.0954 26.6246 16.2562C26.6788 16.4303 26.6393 16.6695 26.4489 16.8599L26.8732 17.2841C27.2155 16.9419 27.3203 16.4725 27.1975 16.0779C27.0705 15.67 26.7037 15.3634 26.1864 15.3815L26.2074 15.9812Z" fill="black" fill-opacity="0.2"/>
</svg>
