<svg width="40" height="40" viewBox="0 0 40 40" fill="none" xmlns="http://www.w3.org/2000/svg">
<line x1="3" y1="8.1459" x2="32" y2="8.1459" stroke="#B9C7CE" stroke-width="0.3"/>
<line x1="3" y1="13.517" x2="32" y2="13.517" stroke="#B9C7CE" stroke-width="0.3"/>
<line x1="3" y1="18.8871" x2="32" y2="18.8871" stroke="#B9C7CE" stroke-width="0.3"/>
<line x1="3" y1="24.2572" x2="32" y2="24.2572" stroke="#B9C7CE" stroke-width="0.3"/>
<line x1="3" y1="29.6273" x2="32" y2="29.6273" stroke="#B9C7CE" stroke-width="0.3"/>
<line x1="28.9278" y1="4" x2="28.9278" y2="33" stroke="#B9C7CE" stroke-width="0.3"/>
<line x1="23.5575" y1="4" x2="23.5575" y2="33" stroke="#B9C7CE" stroke-width="0.3"/>
<line x1="18.1871" y1="4" x2="18.1871" y2="33" stroke="#B9C7CE" stroke-width="0.3"/>
<line x1="12.8167" y1="4" x2="12.8167" y2="33" stroke="#B9C7CE" stroke-width="0.3"/>
<line x1="7.44639" y1="4" x2="7.44639" y2="33" stroke="#B9C7CE" stroke-width="0.3"/>
<path d="M32 4H3V33H32V4Z" stroke="#2B3436" stroke-width="0.6" stroke-miterlimit="10" stroke-linecap="round" stroke-linejoin="round"/>
<path d="M29.594 35.9602C33.6842 35.9602 37 32.6112 37 28.4801C37 24.3489 33.6842 21 29.594 21C25.5038 21 22.188 24.3489 22.188 28.4801C22.188 32.6112 25.5038 35.9602 29.594 35.9602Z" fill="#B9C7CE" stroke="#2B3436" stroke-width="0.6" stroke-miterlimit="10"/>
<path d="M24.511 28.4795H34.6719" stroke="#2B3436" stroke-width="0.6" stroke-miterlimit="10" stroke-linecap="round"/>
<path d="M29.5938 33.6116V23.3438" stroke="#2B3436" stroke-width="0.6" stroke-miterlimit="10" stroke-linecap="round"/>
</svg>
