<svg width="40" height="40" viewBox="0 0 40 40" fill="none" xmlns="http://www.w3.org/2000/svg">
<path d="M34.4942 4H5.43604V17.66H34.4942V4Z" fill="#B9C7CE" stroke="#4C4C4C" stroke-width="0.6" stroke-miterlimit="10" stroke-linejoin="round"/>
<path d="M34.4942 21.7686H5.43604V35.4285H34.4942V21.7686Z" fill="#B9C7CE" stroke="#4C4C4C" stroke-width="0.6" stroke-miterlimit="10" stroke-linejoin="round"/>
<path d="M5.48832 20.0578C5.65401 20.0578 5.78832 19.9235 5.78832 19.7578C5.78832 19.5921 5.65401 19.4578 5.48832 19.4578V20.0578ZM7.4416 19.4578C7.27592 19.4578 7.1416 19.5921 7.1416 19.7578C7.1416 19.9235 7.27592 20.0578 7.4416 20.0578V19.4578ZM8.41825 20.0578C8.58393 20.0578 8.71825 19.9235 8.71825 19.7578C8.71825 19.5921 8.58393 19.4578 8.41825 19.4578V20.0578ZM10.3715 19.4578C10.2058 19.4578 10.0715 19.5921 10.0715 19.7578C10.0715 19.9235 10.2058 20.0578 10.3715 20.0578V19.4578ZM11.3482 20.0578C11.5139 20.0578 11.6482 19.9235 11.6482 19.7578C11.6482 19.5921 11.5139 19.4578 11.3482 19.4578V20.0578ZM13.3015 19.4578C13.1358 19.4578 13.0015 19.5921 13.0015 19.7578C13.0015 19.9235 13.1358 20.0578 13.3015 20.0578V19.4578ZM14.2781 20.0578C14.4438 20.0578 14.5781 19.9235 14.5781 19.7578C14.5781 19.5921 14.4438 19.4578 14.2781 19.4578V20.0578ZM16.2314 19.4578C16.0657 19.4578 15.9314 19.5921 15.9314 19.7578C15.9314 19.9235 16.0657 20.0578 16.2314 20.0578V19.4578ZM17.208 20.0578C17.3737 20.0578 17.508 19.9235 17.508 19.7578C17.508 19.5921 17.3737 19.4578 17.208 19.4578V20.0578ZM19.1613 19.4578C18.9956 19.4578 18.8613 19.5921 18.8613 19.7578C18.8613 19.9235 18.9956 20.0578 19.1613 20.0578V19.4578ZM20.1379 20.0578C20.3036 20.0578 20.4379 19.9235 20.4379 19.7578C20.4379 19.5921 20.3036 19.4578 20.1379 19.4578V20.0578ZM22.0912 19.4578C21.9255 19.4578 21.7912 19.5921 21.7912 19.7578C21.7912 19.9235 21.9255 20.0578 22.0912 20.0578V19.4578ZM23.0679 20.0578C23.2336 20.0578 23.3679 19.9235 23.3679 19.7578C23.3679 19.5921 23.2336 19.4578 23.0679 19.4578V20.0578ZM25.0211 19.4578C24.8555 19.4578 24.7211 19.5921 24.7211 19.7578C24.7211 19.9235 24.8555 20.0578 25.0211 20.0578V19.4578ZM25.9978 20.0578C26.1635 20.0578 26.2978 19.9235 26.2978 19.7578C26.2978 19.5921 26.1635 19.4578 25.9978 19.4578V20.0578ZM27.9511 19.4578C27.7854 19.4578 27.6511 19.5921 27.6511 19.7578C27.6511 19.9235 27.7854 20.0578 27.9511 20.0578V19.4578ZM28.9277 20.0578C29.0934 20.0578 29.2277 19.9235 29.2277 19.7578C29.2277 19.5921 29.0934 19.4578 28.9277 19.4578V20.0578ZM30.881 19.4578C30.7153 19.4578 30.581 19.5921 30.581 19.7578C30.581 19.9235 30.7153 20.0578 30.881 20.0578V19.4578ZM31.8576 20.0578C32.0233 20.0578 32.1576 19.9235 32.1576 19.7578C32.1576 19.5921 32.0233 19.4578 31.8576 19.4578V20.0578ZM33.8109 19.4578C33.6452 19.4578 33.5109 19.5921 33.5109 19.7578C33.5109 19.9235 33.6452 20.0578 33.8109 20.0578V19.4578ZM5 20.0578H5.48832V19.4578H5V20.0578ZM7.4416 20.0578H8.41825V19.4578H7.4416V20.0578ZM10.3715 20.0578H11.3482V19.4578H10.3715V20.0578ZM13.3015 20.0578H14.2781V19.4578H13.3015V20.0578ZM16.2314 20.0578H17.208V19.4578H16.2314V20.0578ZM19.1613 20.0578H20.1379V19.4578H19.1613V20.0578ZM22.0912 20.0578H23.0679V19.4578H22.0912V20.0578ZM25.0211 20.0578H25.9978V19.4578H25.0211V20.0578ZM27.9511 20.0578H28.9277V19.4578H27.9511V20.0578ZM30.881 20.0578H31.8576V19.4578H30.881V20.0578ZM33.8109 20.0578H34.2992V19.4578H33.8109V20.0578Z" fill="#4C4C4C"/>
</svg>
