<svg width="40" height="40" viewBox="0 0 40 40" fill="none" xmlns="http://www.w3.org/2000/svg">
<path d="M4.07495 4.56445V35.6293" stroke="#2B3436" stroke-width="0.6" stroke-miterlimit="10"/>
<path d="M3 4.87827L4.07528 3L5.15055 4.87827H3Z" fill="#2B3436"/>
<path d="M34.8325 35.6268H4.19482L15.1866 23.9375" stroke="#2B3436" stroke-width="0.6" stroke-miterlimit="10"/>
<path d="M34.5208 34.542L36.3804 35.628L34.5208 36.7088V34.542Z" fill="#2B3436"/>
<path d="M15.7478 24.9138L16.2517 22.8047L14.1946 23.4185L15.7478 24.9138Z" fill="#2B3436"/>
<path d="M32.23 4.87207H14.8489V22.427H32.23V4.87207Z" stroke="#2B3436" stroke-width="0.6" stroke-miterlimit="10" stroke-linejoin="round"/>
<path d="M23.9722 13.2141H6.59106L14.8505 4.87207H32.2264L23.9722 13.2141Z" stroke="#2B3436" stroke-width="0.6" stroke-miterlimit="10" stroke-linecap="round" stroke-linejoin="round"/>
<path d="M23.971 30.7688H6.58984L14.8493 22.4268H32.2252L23.971 30.7688Z" fill="#B9C7CE" stroke="#2B3436" stroke-width="0.6" stroke-miterlimit="10" stroke-linejoin="round"/>
<path d="M23.9709 13.2148H6.58984V30.7698H23.9709V13.2148Z" stroke="#2B3436" stroke-width="0.6" stroke-miterlimit="10" stroke-linejoin="round"/>
<path d="M13.0461 31.8564V33.1576" stroke="#2B3436" stroke-width="0.6" stroke-miterlimit="10"/>
<path d="M12.2981 32.9365L13.0461 34.2534L13.7994 32.9365H12.2981Z" fill="#2B3436"/>
<path d="M16.636 31.8564V33.1576" stroke="#2B3436" stroke-width="0.6" stroke-miterlimit="10"/>
<path d="M15.8879 32.9365L16.6359 34.2534L17.3891 32.9365H15.8879Z" fill="#2B3436"/>
<path d="M20.2256 31.8564V33.1576" stroke="#2B3436" stroke-width="0.6" stroke-miterlimit="10"/>
<path d="M19.4775 32.9365L20.2256 34.2534L20.9788 32.9365H19.4775Z" fill="#2B3436"/>
</svg>
