<svg width="14" height="14" viewBox="0 0 14 14" fill="none" xmlns="http://www.w3.org/2000/svg">
	<g clip-path="url(#clip0_1018_9527)">
	<path d="M12.9993 11.9629C12.9995 11.9629 13 11.9628 12.9999 11.9629C12.9871 11.9693 11.9255 12.4935 9.78567 12.4935C7.63282 12.4935 4.87579 11.2795 3.27402 11.2795C2.7972 11.2795 2.40275 11.34 2.08388 11.4251C1.65156 11.5404 1 11.189 1 10.7416V2.8355C1 2.65941 1.09298 2.4966 1.25258 2.42217C1.66842 2.22827 2.5658 1.88477 3.70475 1.88477C5.29158 1.88477 8.3059 3.33541 9.94668 3.33541C10.8354 3.33541 11.6569 3.10545 12.2233 2.89464C12.5805 2.76167 12.9992 3.01989 12.9992 3.40108V11.9627C12.9992 11.9628 12.9992 11.9629 12.9993 11.9629V11.9629Z" stroke="#262E30" stroke-width="0.5" stroke-miterlimit="10"/>
	<path d="M3.15259 5.57148C3.15259 5.57148 3.8157 5.48097 4.62738 5.57148C5.43905 5.66199 6.59432 6.18262 6.59432 6.18262" stroke="#ACACAC" stroke-width="0.5" stroke-miterlimit="10" stroke-linecap="round"/>
	<path d="M5.35437 6.99609C5.35437 6.99609 6.8939 7.51673 7.66324 7.58399C8.43259 7.65125 8.90316 7.58399 8.90316 7.58399" stroke="#ACACAC" stroke-width="0.5" stroke-miterlimit="10" stroke-linecap="round"/>
	</g>
	<defs>
	<clipPath id="clip0_1018_9527">
	<rect width="14" height="14" fill="white" transform="translate(0 14) rotate(-90)"/>
	</clipPath>
	</defs>
	</svg>
	