<svg width="20" height="20" viewBox="0 0 20 20" fill="none" xmlns="http://www.w3.org/2000/svg">
<g clip-path="url(#clip0_34_15470)">
<path d="M10 20C12.6522 20 15.1957 18.9464 17.0711 17.0711C18.9464 15.1957 20 12.6522 20 10C20 7.34784 18.9464 4.8043 17.0711 2.92893C15.1957 1.05357 12.6522 0 10 0C7.34784 0 4.8043 1.05357 2.92893 2.92893C1.05357 4.8043 0 7.34784 0 10C0 12.6522 1.05357 15.1957 2.92893 17.0711C4.8043 18.9464 7.34784 20 10 20ZM9.0625 13.4375V10.9375H6.5625C6.04297 10.9375 5.625 10.5195 5.625 10C5.625 9.48047 6.04297 9.0625 6.5625 9.0625H9.0625V6.5625C9.0625 6.04297 9.48047 5.625 10 5.625C10.5195 5.625 10.9375 6.04297 10.9375 6.5625V9.0625H13.4375C13.957 9.0625 14.375 9.48047 14.375 10C14.375 10.5195 13.957 10.9375 13.4375 10.9375H10.9375V13.4375C10.9375 13.957 10.5195 14.375 10 14.375C9.48047 14.375 9.0625 13.957 9.0625 13.4375Z" fill="#1F1F1F"/>
</g>
<defs>
<clipPath id="clip0_34_15470">
<rect width="20" height="20" fill="white"/>
</clipPath>
</defs>
</svg>
