<svg width="28" height="28" viewBox="0 0 28 28" fill="none" xmlns="http://www.w3.org/2000/svg">
<path d="M13.9997 4.52051C16.5137 4.52051 18.9248 5.5192 20.7025 7.29689C22.4801 9.07458 23.4788 11.4856 23.4788 13.9997C23.4788 16.5137 22.4801 18.9248 20.7025 20.7025C18.9248 22.4801 16.5137 23.4788 13.9997 23.4788C11.4856 23.4788 9.07458 22.4801 7.29689 20.7025C5.5192 18.9248 4.52051 16.5137 4.52051 13.9997C4.52051 11.4856 5.5192 9.07458 7.29689 7.29689C9.07458 5.5192 11.4856 4.52051 13.9997 4.52051ZM13.9997 25.6663C17.0939 25.6663 20.0613 24.4372 22.2493 22.2493C24.4372 20.0613 25.6663 17.0939 25.6663 13.9997C25.6663 10.9055 24.4372 7.93802 22.2493 5.7501C20.0613 3.56217 17.0939 2.33301 13.9997 2.33301C10.9055 2.33301 7.93802 3.56217 5.7501 5.7501C3.56217 7.93802 2.33301 10.9055 2.33301 13.9997C2.33301 17.0939 3.56217 20.0613 5.7501 22.2493C7.93802 24.4372 10.9055 25.6663 13.9997 25.6663ZM12.1768 17.6455C11.5706 17.6455 11.083 18.1331 11.083 18.7393C11.083 19.3454 11.5706 19.833 12.1768 19.833H15.8226C16.4287 19.833 16.9163 19.3454 16.9163 18.7393C16.9163 18.1331 16.4287 17.6455 15.8226 17.6455H15.458V13.6351C15.458 13.029 14.9704 12.5413 14.3643 12.5413H12.1768C11.5706 12.5413 11.083 13.029 11.083 13.6351C11.083 14.2412 11.5706 14.7288 12.1768 14.7288H13.2705V17.6455H12.1768ZM13.9997 11.083C14.3864 11.083 14.7574 10.9294 15.0309 10.6559C15.3044 10.3824 15.458 10.0114 15.458 9.62467C15.458 9.2379 15.3044 8.86697 15.0309 8.59348C14.7574 8.31999 14.3864 8.16634 13.9997 8.16634C13.6129 8.16634 13.242 8.31999 12.9685 8.59348C12.695 8.86697 12.5413 9.2379 12.5413 9.62467C12.5413 10.0114 12.695 10.3824 12.9685 10.6559C13.242 10.9294 13.6129 11.083 13.9997 11.083Z" fill="#262E30"/>
</svg>
