<svg width="20" height="20" viewBox="0 0 20 20" fill="none" xmlns="http://www.w3.org/2000/svg">
<path d="M8.71875 10.8672C8.94887 10.8672 9.13574 11.0541 9.13574 11.2842V17.1172C9.13574 17.3473 8.94887 17.5342 8.71875 17.5342H2.88574C2.65562 17.5342 2.46875 17.3473 2.46875 17.1172V11.2842C2.46875 11.0541 2.65562 10.8672 2.88574 10.8672H8.71875ZM17.1143 10.8672C17.3442 10.8674 17.5303 11.0542 17.5303 11.2842V17.1172C17.5303 17.3472 17.3442 17.5339 17.1143 17.5342H11.2803C11.0502 17.5341 10.8643 17.3472 10.8643 17.1172V11.2842C10.8643 11.0541 11.0502 10.8673 11.2803 10.8672H17.1143ZM3.88574 16.1172H7.71875V12.2842H3.88574V16.1172ZM12.2803 16.1172H16.1143V12.2842H12.2803V16.1172ZM8.71875 2.46875C8.94875 2.46875 9.13554 2.65481 9.13574 2.88477V8.71875C9.13559 8.94874 8.94877 9.13477 8.71875 9.13477H2.88574C2.65572 9.13477 2.4689 8.94874 2.46875 8.71875V2.88477C2.46895 2.65481 2.65575 2.46875 2.88574 2.46875H8.71875ZM17.1143 2.46875C17.344 2.46899 17.5301 2.65496 17.5303 2.88477V8.71875C17.5301 8.94859 17.3441 9.13452 17.1143 9.13477H11.2803C11.0503 9.13466 10.8644 8.94867 10.8643 8.71875V2.88477C10.8645 2.65488 11.0504 2.46886 11.2803 2.46875H17.1143ZM3.88574 7.71875H7.71875V3.88477H3.88574V7.71875ZM12.2803 7.71875H16.1143V3.88477H12.2803V7.71875Z" fill="#5C5C5C"/>
</svg>
