<?xml version="1.0" standalone="no"?><!DOCTYPE svg PUBLIC "-//W3C//DTD SVG 1.1//EN" "http://www.w3.org/Graphics/SVG/1.1/DTD/svg11.dtd"><svg t="1710300425854" class="icon" viewBox="0 0 1025 1024" version="1.1" xmlns="http://www.w3.org/2000/svg" p-id="1613" xmlns:xlink="http://www.w3.org/1999/xlink" width="200.1953125" height="200"><path d="M1024 1023.950928l-478.969727 0L545.030273 545.037598l478.969727 0L1024 1023.950928 1024 1023.950928zM594.578613 974.406738l379.873047 0 0-379.829102-379.873047 0L594.578613 974.406738 594.578613 974.406738z" fill="#272536" p-id="1614"></path><path d="M478.969727 1023.950928l-478.969727 0L0 545.037598l478.969727 0L478.969727 1023.950928 478.969727 1023.950928zM49.550293 974.406738l379.871094 0 0-379.829102-379.871094 0L49.550293 974.406738 49.550293 974.406738z" fill="#272536" p-id="1615"></path><path d="M1024 478.96875l-478.969727 0 0-478.919434 478.969727 0L1024 478.96875 1024 478.96875zM594.578613 429.422363l379.873047 0 0-379.829102-379.873047 0L594.578613 429.422363 594.578613 429.422363z" fill="#272536" p-id="1616"></path><path d="M174.614244 471.151348 5.263144 254.760248 44.285144 224.230448 172.219244 387.695348 433.834944 10.694348 474.553744 38.947748 174.614244 471.151348Z" fill="#272536" p-id="1617"></path></svg>