<?xml version="1.0" standalone="no"?><!DOCTYPE svg PUBLIC "-//W3C//DTD SVG 1.1//EN" "http://www.w3.org/Graphics/SVG/1.1/DTD/svg11.dtd"><svg t="1710300802459" class="icon" viewBox="0 0 1024 1024" version="1.1" xmlns="http://www.w3.org/2000/svg" p-id="2735" xmlns:xlink="http://www.w3.org/1999/xlink" width="200" height="200"><path d="M512 1024C229.229714 1024 0 794.770286 0 512S229.229714 0 512 0s512 229.229714 512 512-229.229714 512-512 512z m0-950.857143C283.087238 73.142857 73.142857 283.087238 73.142857 512s209.944381 438.857143 438.857143 438.857143 438.857143-209.944381 438.857143-438.857143S740.912762 73.142857 512 73.142857z m229.449143 671.963429a48.713143 48.713143 0 0 1-68.949333 0l-155.160381-155.136-155.160381 155.136a48.737524 48.737524 0 1 1-68.973715-68.949334l155.160381-155.160381-155.160381-155.160381a48.761905 48.761905 0 0 1 68.973715-68.949333l155.160381 155.160381 155.160381-155.160381a48.761905 48.761905 0 1 1 68.949333 68.949333l-155.160381 155.160381 155.160381 155.160381a48.761905 48.761905 0 0 1 0 68.949334z" fill="#323232" p-id="2736"></path></svg>