<svg width="14" height="14" viewBox="0 0 14 14" fill="none" xmlns="http://www.w3.org/2000/svg">
<g clip-path="url(#clip0_18273_33564)">
<path fill-rule="evenodd" clip-rule="evenodd" d="M1.46387 3.92552C1.46387 3.64575 1.68122 3.41895 1.94934 3.41895H10.2717C10.5398 3.41895 10.7572 3.64575 10.7572 3.92552V12.6097C10.7572 12.8895 10.5398 13.1163 10.2717 13.1163H1.94934C1.68122 13.1163 1.46387 12.8895 1.46387 12.6097V3.92552ZM2.43481 4.4321V12.1032H9.78623V4.4321H2.43481Z" fill="#595959"/>
<path fill-rule="evenodd" clip-rule="evenodd" d="M4.6844 1.15161C4.76844 1.08584 4.87064 1.05029 4.97569 1.05029H12.5415C12.7378 1.05029 12.9148 1.17372 12.99 1.36301C13.0651 1.55231 13.0236 1.7702 12.8848 1.91508L10.615 4.2835C10.524 4.3785 10.4005 4.43187 10.2717 4.43187H1.94937C1.74041 4.43187 1.55489 4.29234 1.48881 4.08549C1.42273 3.87863 1.49092 3.65086 1.65809 3.52003L4.6844 1.15161ZM5.13751 2.06345L3.40578 3.41871H10.0706L11.3694 2.06345H5.13751Z" fill="#595959"/>
<path d="M6.48921 7.08301H12.5418L10.2721 10.2409H3.46289L6.48921 7.08301Z" fill="#DDDDDD"/>
<path fill-rule="evenodd" clip-rule="evenodd" d="M7.24543 3.37305C7.53792 3.37305 7.77503 3.62047 7.77503 3.92568V6.2941C7.77503 6.59931 7.53792 6.84673 7.24543 6.84673C6.95293 6.84673 6.71582 6.59931 6.71582 6.2941V3.92568C6.71582 3.62047 6.95293 3.37305 7.24543 3.37305Z" fill="#595959"/>
<path d="M10.2715 3.92555L12.5412 1.55713V9.45187L10.2715 12.6098V3.92555Z" fill="#DDDDDD"/>
<path fill-rule="evenodd" clip-rule="evenodd" d="M12.7271 1.08887C12.9085 1.16728 13.0268 1.35199 13.0268 1.55689V9.45162C13.0268 9.56123 12.9927 9.66788 12.9297 9.75557L10.66 12.9135C10.5346 13.0879 10.3163 13.1591 10.1181 13.0901C9.91985 13.0211 9.78613 12.8276 9.78613 12.6095V3.92531C9.78613 3.79095 9.83728 3.6621 9.92832 3.5671L12.1981 1.19868C12.3369 1.0538 12.5457 1.01046 12.7271 1.08887ZM10.7571 4.13514V11.0898L12.0559 9.28276V2.77988L10.7571 4.13514Z" fill="#595959"/>
</g>
<defs>
<clipPath id="clip0_18273_33564">
<rect width="13.4167" height="14" fill="white" transform="translate(0.458008)"/>
</clipPath>
</defs>
</svg>
