<svg width="200" height="160" viewBox="0 0 200 160" fill="none" xmlns="http://www.w3.org/2000/svg">
<rect width="200" height="160" fill="white"/>
<path d="M159.874 79.8081C159.874 96.5711 153.027 111.681 142.048 122.542C131.306 133.285 116.431 139.777 100.023 139.777C83.7317 139.777 68.8574 133.166 57.9969 122.542C47.0183 111.681 40.1714 96.5711 40.1714 79.8081C40.1714 46.6361 66.9686 19.8389 100.023 19.8389C133.076 19.8389 159.874 46.7542 159.874 79.8081Z" fill="#F8F8F8" stroke="#E4E4E4" stroke-width="2" stroke-miterlimit="10"/>
<path d="M154.681 40.4994C157.354 40.4994 159.521 38.3324 159.521 35.6594C159.521 32.9863 157.354 30.8193 154.681 30.8193C152.008 30.8193 149.841 32.9863 149.841 35.6594C149.841 38.3324 152.008 40.4994 154.681 40.4994Z" fill="#E4E4E4"/>
<path d="M161.765 21.6108C163.59 21.6108 165.07 20.1309 165.07 18.3054C165.07 16.4799 163.59 15 161.765 15C159.939 15 158.459 16.4799 158.459 18.3054C158.459 20.1309 159.939 21.6108 161.765 21.6108Z" fill="#E4E4E4"/>
<path d="M42.0603 40.3813C43.8858 40.3813 45.3657 38.9014 45.3657 37.0759C45.3657 35.2504 43.8858 33.7705 42.0603 33.7705C40.2348 33.7705 38.7549 35.2504 38.7549 37.0759C38.7549 38.9014 40.2348 40.3813 42.0603 40.3813Z" fill="#E4E4E4"/>
<path d="M30.1386 104.127C33.5288 104.127 36.2772 101.378 36.2772 97.9882C36.2772 94.5979 33.5288 91.8496 30.1386 91.8496C26.7483 91.8496 24 94.5979 24 97.9882C24 101.378 26.7483 104.127 30.1386 104.127Z" fill="#E4E4E4"/>
<path d="M153.52 45.4365V110.842C153.52 113.564 151.34 115.72 148.669 115.72H50.1509C47.4797 115.72 45.2654 113.529 45.2654 110.842V45.4365C45.2654 42.7496 47.4445 40.5576 50.1509 40.5576H148.669C151.34 40.5576 153.52 42.7496 153.52 45.4365Z" fill="white" stroke="#E4E4E4" stroke-width="2" stroke-miterlimit="10" stroke-linejoin="round"/>
<path d="M153.52 45.4365V52.7548H45.2654V45.4365C45.2654 42.7496 47.4445 40.5576 50.1509 40.5576H148.669C151.34 40.5576 153.52 42.7496 153.52 45.4365Z" fill="#E4E4E4"/>
<path d="M52.0863 48.4757C53.0957 48.4757 53.914 47.6526 53.914 46.6372C53.914 45.6219 53.0957 44.7988 52.0863 44.7988C51.0769 44.7988 50.2587 45.6219 50.2587 46.6372C50.2587 47.6526 51.0769 48.4757 52.0863 48.4757Z" fill="#CCCCCC"/>
<path d="M58.06 48.4757C59.0694 48.4757 59.8876 47.6526 59.8876 46.6372C59.8876 45.6219 59.0694 44.7988 58.06 44.7988C57.0506 44.7988 56.2323 45.6219 56.2323 46.6372C56.2323 47.6526 57.0506 48.4757 58.06 48.4757Z" fill="#CCCCCC"/>
<path d="M64.0008 48.4757C65.0102 48.4757 65.8284 47.6526 65.8284 46.6372C65.8284 45.6219 65.0102 44.7988 64.0008 44.7988C62.9914 44.7988 62.1731 45.6219 62.1731 46.6372C62.1731 47.6526 62.9914 48.4757 64.0008 48.4757Z" fill="#CCCCCC"/>
<path d="M67.8658 97.3008H130.92" stroke="#E4E4E4" stroke-width="2" stroke-miterlimit="10" stroke-linecap="round" stroke-linejoin="round"/>
<path d="M77.8135 104.054H120.975" stroke="#E4E4E4" stroke-width="2" stroke-miterlimit="10" stroke-linecap="round" stroke-linejoin="round"/>
<path d="M88.8509 78.2789V81.9203H86.6366V85.4204H82.4892V81.9203H73.3508V77.7485L81.8214 65.9049H86.6717V78.3142H88.8509V78.2789ZM82.4892 70.7484L77.217 78.2789H82.4892V70.7484Z" fill="#CCCCCC"/>
<path d="M99.2545 85.8093C94.8259 85.8093 90.9245 81.9203 90.9245 75.6273C90.9245 69.3343 94.7908 65.4453 99.2545 65.4453C103.718 65.4453 107.584 69.3343 107.584 75.6273C107.584 81.9203 103.718 85.8093 99.2545 85.8093ZM99.2545 82.0617C101.328 82.0617 103.402 79.9758 103.402 75.6626C103.402 71.3494 101.328 69.2636 99.2545 69.2636C97.1808 69.2636 95.1071 71.3494 95.1071 75.6626C95.1071 79.9758 97.1808 82.0617 99.2545 82.0617Z" fill="#CCCCCC"/>
<path d="M125.475 78.2789V81.9203H123.26V85.4204H119.113V81.9203H109.974V77.7485L118.445 65.9049H123.295V78.3142H125.475V78.2789ZM119.078 70.7484L113.806 78.2789H119.078V70.7484Z" fill="#CCCCCC"/>
<path d="M149.735 130.163L126.188 106.634L131.586 101.236L155.114 124.783L149.735 130.163Z" fill="#E4E4E4" stroke="#CCCCCC" stroke-width="2" stroke-miterlimit="10"/>
<path d="M157.918 138.442L139.863 120.386C138.355 118.878 138.355 116.421 139.863 114.913C141.37 113.405 143.827 113.405 145.335 114.913L163.391 132.969C164.899 134.477 164.899 136.934 163.391 138.442C161.883 139.949 159.426 139.949 157.918 138.442Z" fill="#E4E4E4" stroke="#CCCCCC" stroke-width="2" stroke-miterlimit="10"/>
<path d="M156.636 139.595L133.405 116.365C132.865 115.825 132.865 114.95 133.405 114.392L139.343 108.454C139.883 107.914 140.758 107.914 141.316 108.454L164.547 131.684C165.087 132.224 165.087 133.099 164.547 133.657L158.609 139.595C158.05 140.135 157.175 140.135 156.636 139.595Z" fill="#E4E4E4" stroke="#CCCCCC" stroke-width="2" stroke-miterlimit="10"/>
<path d="M99.5306 30.8184C74.8852 30.8184 54.9121 50.7915 54.9121 75.4368C54.9121 100.064 74.8852 120.055 99.512 120.055C124.157 120.055 144.13 100.082 144.13 75.4368C144.13 50.7915 124.157 30.8184 99.5306 30.8184ZM99.5306 111.791C79.7436 111.791 63.7167 95.503 63.7167 75.4182C63.7167 55.3334 79.7436 39.0645 99.5306 39.0645C119.318 39.0645 135.344 55.352 135.344 75.4368C135.344 95.5217 119.299 111.791 99.5306 111.791Z" fill="#E4E4E4" stroke="#CCCCCC" stroke-width="2" stroke-miterlimit="10"/>
</svg>
