<svg width="33" height="32" viewBox="0 0 33 32" fill="none" xmlns="http://www.w3.org/2000/svg">
<path d="M26.1338 7.5391L21.3216 5.6547L21.0147 5.53467L20.706 5.6547L16.2 7.41739L11.6939 5.6547L11.3887 5.53467L11.0825 5.6547L6.26952 7.5391L5.73633 7.7481V24.2527L6.26952 24.4609L11.0825 26.3453L11.3887 26.4653L11.6948 26.3453L16.2017 24.5826L20.7077 26.3453L21.0147 26.4653L21.3216 26.3453L26.1338 24.4609L26.667 24.2527V7.7481L26.1338 7.5391ZM21.0147 6.43448L25.8277 8.31972V15.1296L21.0147 13.246V6.43448ZM16.5078 15.9093L21.0147 14.1467L25.5216 15.9093L25.7511 15.9992L25.5216 16.089L21.0147 17.8517L16.5078 16.089L16.2782 15.9992L16.5078 15.9093ZM11.3887 6.43448L16.2017 8.31972V15.1296L11.3887 13.2452V6.43448ZM6.8826 15.9093L11.3887 14.1467L15.8955 15.9093L16.1251 15.9992L15.8955 16.089L11.3887 17.8517L6.8826 16.089L6.65301 15.9992L6.8826 15.9093ZM6.57732 23.6794V16.8662L11.3903 18.7498V25.5605L6.57732 23.6794ZM16.2033 23.6794V16.8662L21.0164 18.7498V25.5605L16.2033 23.6794Z" fill="url(#paint0_linear_17339_20754)"/>
<defs>
<linearGradient id="paint0_linear_17339_20754" x1="16.2017" y1="5.53467" x2="16.2017" y2="26.4653" gradientUnits="userSpaceOnUse">
<stop stop-color="#29C865"/>
<stop offset="0.5" stop-color="#78D578"/>
<stop offset="1" stop-color="#00BB00"/>
</linearGradient>
</defs>
</svg>
