<svg width="10" height="10" viewBox="0 0 10 10" fill="none" xmlns="http://www.w3.org/2000/svg">
<path d="M9.93936 0.808459C9.94005 0.611333 9.85937 0.41701 9.71532 0.272961C9.57127 0.128912 9.37913 0.0504131 9.17983 0.0489262L1.80922 0.086108C1.4064 0.0873427 1.09524 0.415955 1.11326 0.816989C1.13128 1.21802 1.46934 1.54346 1.86999 1.54004L7.42585 1.51481L0.268494 8.67216C-0.011402 8.95206 -0.00304711 9.41077 0.287234 9.70105C0.577516 9.99133 1.03623 9.99969 1.31613 9.71979L8.47348 2.56244L8.44396 8.11822C8.44272 8.52105 8.76598 8.85693 9.16701 8.87494C9.56804 8.89296 9.89447 8.57963 9.89789 8.17898L9.93507 0.808381L9.93936 0.808459Z" fill="#6B6B6B"/>
</svg>
