<svg width="20" height="20" viewBox="0 0 20 20" fill="none" xmlns="http://www.w3.org/2000/svg">
<path d="M9.71065 3.71629C9.87449 3.57245 10.1256 3.57242 10.2894 3.71629L16.5324 9.20023C16.8207 9.45396 16.6338 9.91539 16.2426 9.91539H15.5034C15.4482 9.91539 15.4034 9.96016 15.4034 10.0154V16.1161C15.4033 16.5709 15.0193 16.9397 14.5458 16.9399H5.45428C4.98073 16.9398 4.5967 16.5709 4.59664 16.1161V10.0154C4.59664 9.96016 4.55186 9.91539 4.49664 9.91539H3.75742C3.3662 9.91539 3.17922 9.45394 3.46763 9.20023L9.71065 3.71629Z" stroke="#6B6B6B" stroke-width="1.3"/>
<rect x="7.28308" y="8.69238" width="5.43364" height="1.22499" rx="0.2" fill="#6B6B6B"/>
<rect x="7.28296" y="11.281" width="5.43364" height="1.22499" rx="0.2" fill="#6B6B6B"/>
<rect x="7.28308" y="13.8704" width="5.43364" height="1.22499" rx="0.2" fill="#6B6B6B"/>
</svg>
