<svg width="20" height="20" viewBox="0 0 20 20" fill="none" xmlns="http://www.w3.org/2000/svg">
<path d="M16.2983 4.295C16.2632 3.56 15.6319 3 14.8954 3H5.03985C4.30332 3 3.672 3.56 3.63693 4.295L2.97054 15.67C2.93547 16.02 3.07576 16.37 3.32127 16.615C3.56678 16.86 3.88244 17 4.26824 17H15.7371C16.0878 17 16.4386 16.86 16.6841 16.615C16.9296 16.37 17.0348 16.02 17.0348 15.67L16.2983 4.295ZM16.1931 16.16C16.0878 16.265 15.9125 16.335 15.7371 16.335H4.26824C4.09288 16.335 3.95259 16.265 3.81229 16.16C3.70708 16.055 3.63693 15.88 3.63693 15.705L4.30332 4.33C4.33839 3.98 4.65405 3.665 5.03985 3.665H14.8954C15.2812 3.665 15.5968 3.945 15.6319 4.33L16.3333 15.705C16.3684 15.88 16.2983 16.055 16.1931 16.16ZM12.791 5.065C12.6156 5.065 12.4402 5.205 12.4402 5.415C12.4402 6.78 11.353 7.865 9.98514 7.865C8.61729 7.865 7.53003 6.78 7.53003 5.415C7.53003 5.24 7.38974 5.065 7.1793 5.065C7.00393 5.065 6.82857 5.205 6.82857 5.415C6.82857 7.13 8.23149 8.53 9.95006 8.53C11.6686 8.53 13.0716 7.13 13.0716 5.415C13.1066 5.205 12.9663 5.065 12.791 5.065Z" fill="#6B6B6B" stroke="#6B6B6B" stroke-width="0.5"/>
</svg>
