<svg width="24" height="24" viewBox="0 0 24 24" fill="none" xmlns="http://www.w3.org/2000/svg">
<path d="M20.8772 8.72368C21.0537 8.62235 21.1648 8.43278 21.1648 8.22687V7.03714C21.1648 6.83449 21.0537 6.64492 20.8772 6.54033L19.8476 5.94547C19.6711 5.84414 19.4521 5.84414 19.2756 5.94547L18.2853 6.51745L13.595 3.80788V2.66718C13.595 2.46453 13.4839 2.27496 13.3074 2.17037L12.2778 1.5755C12.1013 1.47418 11.8823 1.47418 11.7058 1.5755L10.6762 2.17037C10.4997 2.27169 10.3919 2.46126 10.3919 2.66718V3.81115L5.70162 6.51745L4.71127 5.94547C4.53477 5.84414 4.31578 5.84414 4.13928 5.94547L3.10971 6.54033C2.93321 6.64165 2.82208 6.83122 2.82208 7.03714V8.22687C2.82208 8.42951 2.93321 8.61908 3.10971 8.72368L4.10006 9.29566V14.7115L3.10971 15.2835C2.93321 15.3848 2.82208 15.5744 2.82208 15.7803V16.9701C2.82208 17.1727 2.93321 17.3655 3.10971 17.4636L4.13928 18.0585C4.22753 18.1108 4.32558 18.1336 4.42691 18.1336C4.52823 18.1336 4.62302 18.1075 4.71453 18.0585L5.70488 17.4865L10.3952 20.1928V21.3368C10.3952 21.5394 10.5063 21.7322 10.6828 21.8303L11.7124 22.4252C11.8006 22.4775 11.8987 22.5003 12 22.5003C12.1013 22.5003 12.1961 22.4742 12.2876 22.4252L13.3172 21.8303C13.4937 21.729 13.6048 21.5394 13.6048 21.3335V20.1928L18.2951 17.4832L19.2854 18.0552C19.3737 18.1075 19.4717 18.1304 19.5731 18.1304C19.6744 18.1304 19.7692 18.1042 19.8607 18.0552L20.8903 17.4603C21.0668 17.359 21.1779 17.1694 21.1779 16.9635V15.7738C21.1779 15.5711 21.0668 15.3816 20.8903 15.277L19.8999 14.705V9.28912L20.8903 8.71714L20.8772 8.72368ZM20.6745 15.7771V16.9668C20.6745 16.9962 20.6582 17.0224 20.6353 17.0387L19.6057 17.6336C19.6057 17.6336 19.5796 17.6434 19.5665 17.6434V16.5778C19.5665 16.4504 19.4979 16.3327 19.3868 16.2673L18.465 15.7346C18.465 15.7346 18.4814 15.7117 18.4945 15.7052L19.524 15.1103C19.524 15.1103 19.5502 15.1005 19.5632 15.1005C19.5763 15.1005 19.5927 15.1038 19.6025 15.1103L20.632 15.7052C20.6582 15.7182 20.6713 15.7476 20.6713 15.7771H20.6745ZM13.0655 21.4054L12.0359 22.0003C12.0359 22.0003 12.0098 22.0101 11.9934 22.0101V20.9445C11.9934 20.8171 11.9248 20.6994 11.8137 20.634L10.892 20.1013C10.892 20.1013 10.9083 20.0784 10.9214 20.0718L11.951 19.477C11.951 19.477 11.9771 19.4672 11.9902 19.4672C12.0032 19.4672 12.0196 19.4704 12.0294 19.477L13.059 20.0718C13.0851 20.0849 13.0982 20.1143 13.0982 20.1438V21.3335C13.0982 21.3629 13.0818 21.389 13.059 21.4054H13.0655ZM4.42691 16.5778C4.42691 16.4504 4.35827 16.3327 4.24714 16.2673L3.32543 15.7346C3.32543 15.7346 3.34177 15.7117 3.35485 15.7052L4.38442 15.1103C4.38442 15.1103 4.41057 15.1005 4.42364 15.1005C4.43671 15.1005 4.45306 15.1038 4.46286 15.1103L5.49243 15.7052C5.51858 15.7182 5.53165 15.7476 5.53165 15.7771V16.9668C5.53165 16.9962 5.51531 17.0224 5.49243 17.0387L4.46286 17.6336C4.46286 17.6336 4.43671 17.6434 4.42364 17.6434V16.5778H4.42691ZM4.42691 6.36056C4.42691 6.36056 4.45632 6.36383 4.46613 6.37037L5.4957 6.96523C5.52185 6.97831 5.53492 7.00772 5.53492 7.03714V8.22687C5.53492 8.25628 5.51858 8.28243 5.4957 8.29877L4.46613 8.89364C4.46613 8.89364 4.43998 8.90344 4.42691 8.90344V7.83792C4.42691 7.71045 4.35827 7.59278 4.24714 7.52741L3.32543 6.99465C3.32543 6.99465 3.34177 6.97177 3.35485 6.96523L4.38442 6.37037C4.38442 6.37037 4.41057 6.36056 4.42364 6.36056H4.42691ZM13.2682 19.6273L12.2778 19.0553C12.1896 19.0031 12.0915 18.9802 11.9934 18.9802V14.5546L10.3559 13.6101C10.0127 13.4139 9.80356 13.0479 9.80356 12.6524V11.3548C9.80356 11.1652 9.85259 10.9789 9.94411 10.8188L5.95329 8.51449C6.00232 8.42951 6.03173 8.33146 6.03173 8.23013V7.08943L10.722 4.37986L11.7124 4.95185C11.8006 5.00414 11.8987 5.02702 11.9967 5.02702C12.0948 5.02702 12.1961 5.00087 12.2843 4.95185L13.2747 4.37986L17.965 7.08943V8.18438L13.461 10.7861L12.3236 10.1291C12.2353 10.0768 12.1373 10.0539 12.0359 10.0539C11.9346 10.0539 11.8398 10.0801 11.7516 10.1291L10.5553 10.8188C10.3788 10.9201 10.271 11.1097 10.271 11.3156V12.6982C10.271 12.9008 10.3788 13.0904 10.5586 13.195L11.7548 13.8846C11.8431 13.9369 11.9411 13.9598 12.0392 13.9598C12.1373 13.9598 12.2353 13.9336 12.3268 13.8846L13.5231 13.195C13.6996 13.0936 13.8107 12.9041 13.8107 12.6982V11.3417L18.2983 8.75309L19.2462 9.29893V14.7148L18.2559 15.2868C18.0794 15.3881 17.9682 15.5777 17.9682 15.7836V16.9276L13.278 19.6371L13.2682 19.6273ZM12.0327 2.00368L13.0622 2.59854C13.0884 2.61161 13.1015 2.64103 13.1015 2.67045V3.86017C13.1015 3.88959 13.0851 3.91574 13.0622 3.93208L12.0327 4.52694C12.0327 4.52694 12.0065 4.53675 11.9902 4.53675V3.47122C11.9902 3.34375 11.9215 3.22609 11.8104 3.16072L10.8887 2.62796C10.8887 2.62796 10.905 2.60508 10.9181 2.59854L11.9477 2.00368C11.9477 2.00368 11.9738 1.99387 11.9869 1.99387C12 1.99387 12.0163 1.99714 12.0261 2.00368H12.0327ZM19.56 6.36056C19.56 6.36056 19.5894 6.36383 19.5992 6.37037L20.6288 6.96523C20.6549 6.97831 20.668 7.00772 20.668 7.03714V8.22687C20.668 8.25628 20.6517 8.28243 20.6288 8.29877L19.5992 8.89364C19.5992 8.89364 19.5731 8.90344 19.56 8.90344V7.83792C19.56 7.71045 19.4913 7.59278 19.3802 7.52741L18.4585 6.99465C18.4585 6.99465 18.4748 6.97177 18.4879 6.96523L19.5175 6.37037C19.5175 6.37037 19.5436 6.36056 19.5567 6.36056H19.56ZM12.0294 12.234C12.0294 12.0902 11.9542 11.9595 11.83 11.8876L10.7612 11.2698C10.7612 11.2698 10.7776 11.2469 10.7906 11.2404L11.9869 10.5508C11.9869 10.5508 12.0131 10.541 12.0261 10.541C12.0392 10.541 12.0555 10.5442 12.0654 10.5508L13.2616 11.2404C13.2878 11.2535 13.3008 11.2829 13.3008 11.3123V12.6949C13.3008 12.7243 13.2845 12.7504 13.2616 12.7668L12.0654 13.4564C12.0654 13.4564 12.0392 13.4662 12.0229 13.4662V12.234H12.0294Z" fill="#6B6B6B"/>
<path d="M18.0341 2.15332C18.2983 2.63733 18.697 3.03333 19.1791 3.29733C18.6947 3.56134 18.2983 3.95966 18.0341 4.44135C17.7699 3.95734 17.3712 3.56134 16.8891 3.29733C17.3735 3.03333 17.7699 2.63501 18.0341 2.15332Z" fill="#6B6B6B"/>
<path d="M5.53731 20.147C5.67471 20.3987 5.88081 20.6013 6.12944 20.7386C5.87754 20.8759 5.67471 21.0818 5.53731 21.3302C5.39991 21.0785 5.19382 20.8759 4.94519 20.7386C5.19709 20.6013 5.39991 20.3954 5.53731 20.147Z" fill="#6B6B6B"/>
</svg>
