<svg width="12" height="12" viewBox="0 0 12 12" fill="none" xmlns="http://www.w3.org/2000/svg">
<path d="M7.125 0.5625C7.125 0.874219 7.37578 1.125 7.6875 1.125H10.0805L4.85156 6.35156C4.63125 6.57188 4.63125 6.92812 4.85156 7.14609C5.07187 7.36406 5.42812 7.36641 5.64609 7.14609L10.8727 1.91953V4.3125C10.8727 4.62422 11.1234 4.875 11.4352 4.875C11.7469 4.875 11.9977 4.62422 11.9977 4.3125V0.5625C11.9977 0.250781 11.7469 0 11.4352 0H7.6875C7.37578 0 7.125 0.250781 7.125 0.5625ZM1.6875 0.75C0.754687 0.75 0 1.50469 0 2.4375V10.3125C0 11.2453 0.754687 12 1.6875 12H9.5625C10.4953 12 11.25 11.2453 11.25 10.3125V7.3125C11.25 7.00078 10.9992 6.75 10.6875 6.75C10.3758 6.75 10.125 7.00078 10.125 7.3125V10.3125C10.125 10.6242 9.87422 10.875 9.5625 10.875H1.6875C1.37578 10.875 1.125 10.6242 1.125 10.3125V2.4375C1.125 2.12578 1.37578 1.875 1.6875 1.875H4.6875C4.99922 1.875 5.25 1.62422 5.25 1.3125C5.25 1.00078 4.99922 0.75 4.6875 0.75H1.6875Z" fill="#909090"/>
</svg>
