<svg width="36" height="36" viewBox="0 0 36 36" fill="none" xmlns="http://www.w3.org/2000/svg">
<g clip-path="url(#clip0_375_1284)">
<path d="M18 0C14.4399 0 10.9598 1.05568 7.99974 3.03355C5.03966 5.01141 2.73255 7.82263 1.37018 11.1117C0.00779906 14.4008 -0.348661 18.02 0.345873 21.5116C1.04041 25.0033 2.75474 28.2106 5.27209 30.7279C7.78943 33.2453 10.9967 34.9596 14.4884 35.6541C17.98 36.3487 21.5992 35.9922 24.8883 34.6298C28.1774 33.2675 30.9886 30.9604 32.9665 28.0003C34.9443 25.0402 36 21.5601 36 18C36 13.2261 34.1036 8.64773 30.7279 5.27208C27.3523 1.89642 22.7739 0 18 0ZM7.5 29.25C7.5 26.4652 8.60625 23.7945 10.5754 21.8254C12.5445 19.8562 15.2152 18.75 18 18.75C16.8133 18.75 15.6533 18.3981 14.6666 17.7388C13.6799 17.0795 12.9108 16.1424 12.4567 15.0461C12.0026 13.9497 11.8838 12.7433 12.1153 11.5794C12.3468 10.4155 12.9183 9.34643 13.7574 8.50732C14.5965 7.6682 15.6656 7.09676 16.8295 6.86525C17.9934 6.63374 19.1998 6.75257 20.2961 7.2067C21.3925 7.66083 22.3296 8.42987 22.9889 9.41657C23.6481 10.4033 24 11.5633 24 12.75C24 14.3413 23.3679 15.8674 22.2426 16.9926C21.1174 18.1179 19.5913 18.75 18 18.75C19.3789 18.75 20.7443 19.0216 22.0182 19.5493C23.2921 20.0769 24.4496 20.8504 25.4246 21.8254C26.3997 22.8004 27.1731 23.9579 27.7008 25.2318C28.2284 26.5057 28.5 27.8711 28.5 29.25H7.5Z" fill="#A3A3A3"/>
</g>
<defs>
<clipPath id="clip0_375_1284">
<rect width="36" height="36" fill="white"/>
</clipPath>
</defs>
</svg>
