<svg width="24" height="24" viewBox="0 0 24 24" fill="none" xmlns="http://www.w3.org/2000/svg">
<path d="M21.016 4.31954L16.6477 2.60896L16.3691 2.5L16.0889 2.60896L11.9985 4.20906L7.90807 2.60896L7.63095 2.5L7.35306 2.60896L2.98401 4.31954L2.5 4.50926V19.4915L2.98401 19.6805L7.35306 21.391L7.63095 21.5L7.90883 21.391L12 19.7909L16.0904 21.391L16.3691 21.5L16.6477 21.391L21.016 19.6805L21.5 19.4915V4.50926L21.016 4.31954ZM16.3691 3.31681L20.7381 5.02815V11.2099L16.3691 9.50004V3.31681ZM12.2779 11.9177L16.3691 10.3176L20.4602 11.9177L20.6686 11.9992L20.4602 12.0808L16.3691 13.6809L12.2779 12.0808L12.0695 11.9992L12.2779 11.9177ZM7.63095 3.31681L12 5.02815V11.2099L7.63095 9.49928V3.31681ZM3.54054 11.9177L7.63095 10.3176L11.7221 11.9177L11.9305 11.9992L11.7221 12.0808L7.63095 13.6809L3.54054 12.0808L3.33213 11.9992L3.54054 11.9177ZM3.26342 18.9711V12.7863L7.63247 14.4962V20.6786L3.26342 18.9711ZM12.0015 18.9711V12.7863L16.3706 14.4962V20.6786L12.0015 18.9711Z" fill="#6B6B6B"/>
</svg>
