<svg width="20" height="20" viewBox="0 0 20 20" fill="none" xmlns="http://www.w3.org/2000/svg">
<path d="M17.3977 7.26989C17.5448 7.18546 17.6374 7.02748 17.6374 6.85588V5.86445C17.6374 5.69557 17.5448 5.5376 17.3977 5.45044L16.5397 4.95472C16.3927 4.87028 16.2102 4.87028 16.0631 4.95472L15.2378 5.43137L11.3292 3.17339V2.22281C11.3292 2.05394 11.2366 1.89596 11.0896 1.8088L10.2316 1.31308C10.0845 1.22865 9.902 1.22865 9.75492 1.31308L8.89694 1.8088C8.74986 1.89324 8.65998 2.05122 8.65998 2.22281V3.17612L4.75142 5.43137L3.92613 4.95472C3.77904 4.87028 3.59655 4.87028 3.44947 4.95472L2.5915 5.45044C2.44441 5.53487 2.35181 5.69285 2.35181 5.86445V6.85588C2.35181 7.02476 2.44441 7.18273 2.5915 7.26989L3.41679 7.74655V12.2598L2.5915 12.7364C2.44441 12.8209 2.35181 12.9788 2.35181 13.1504V14.1419C2.35181 14.3107 2.44441 14.4714 2.5915 14.5532L3.44947 15.0489C3.52301 15.0925 3.60472 15.1115 3.68916 15.1115C3.7736 15.1115 3.85258 15.0897 3.92885 15.0489L4.75414 14.5722L8.6627 16.8275V17.7808C8.6627 17.9497 8.75531 18.1104 8.90239 18.1921L9.76037 18.6878C9.83391 18.7314 9.91562 18.7504 10.0001 18.7504C10.0845 18.7504 10.1635 18.7286 10.2397 18.6878L11.0977 18.1921C11.2448 18.1076 11.3374 17.9497 11.3374 17.7781V16.8275L15.246 14.5695L16.0713 15.0462C16.1448 15.0897 16.2265 15.1088 16.311 15.1088C16.3954 15.1088 16.4744 15.087 16.5506 15.0462L17.4086 14.5504C17.5557 14.466 17.6483 14.308 17.6483 14.1364V13.145C17.6483 12.9761 17.5557 12.8181 17.4086 12.731L16.5833 12.2543V7.7411L17.4086 7.26444L17.3977 7.26989ZM17.2288 13.1477V14.1392C17.2288 14.1637 17.2152 14.1855 17.1962 14.1991L16.3382 14.6948C16.3382 14.6948 16.3164 14.703 16.3055 14.703V13.815C16.3055 13.7088 16.2483 13.6107 16.1557 13.5563L15.3876 13.1123C15.3876 13.1123 15.4012 13.0932 15.4121 13.0878L16.2701 12.5921C16.2701 12.5921 16.2919 12.5839 16.3028 12.5839C16.3137 12.5839 16.3273 12.5866 16.3355 12.5921L17.1934 13.0878C17.2152 13.0987 17.2261 13.1232 17.2261 13.1477H17.2288ZM10.888 17.838L10.03 18.3337C10.03 18.3337 10.0082 18.3419 9.99461 18.3419V17.4539C9.99461 17.3477 9.93741 17.2497 9.8448 17.1952L9.07671 16.7512C9.07671 16.7512 9.09033 16.7322 9.10122 16.7267L9.9592 16.231C9.9592 16.231 9.98099 16.2228 9.99188 16.2228C10.0028 16.2228 10.0164 16.2255 10.0246 16.231L10.8825 16.7267C10.9043 16.7376 10.9152 16.7621 10.9152 16.7866V17.7781C10.9152 17.8026 10.9016 17.8244 10.8825 17.838H10.888ZM3.68916 13.815C3.68916 13.7088 3.63196 13.6107 3.53936 13.5563L2.77126 13.1123C2.77126 13.1123 2.78488 13.0932 2.79578 13.0878L3.65375 12.5921C3.65375 12.5921 3.67554 12.5839 3.68644 12.5839C3.69733 12.5839 3.71095 12.5866 3.71912 12.5921L4.5771 13.0878C4.59889 13.0987 4.60978 13.1232 4.60978 13.1477V14.1392C4.60978 14.1637 4.59616 14.1855 4.5771 14.1991L3.71912 14.6948C3.71912 14.6948 3.69733 14.703 3.68644 14.703V13.815H3.68916ZM3.68916 5.30063C3.68916 5.30063 3.71367 5.30336 3.72185 5.3088L4.57982 5.80452C4.60161 5.81542 4.61251 5.83993 4.61251 5.86445V6.85588C4.61251 6.8804 4.59889 6.90219 4.57982 6.91581L3.72185 7.41153C3.72185 7.41153 3.70006 7.4197 3.68916 7.4197V6.53176C3.68916 6.42553 3.63196 6.32748 3.53936 6.27301L2.77126 5.82904C2.77126 5.82904 2.78488 5.80997 2.79578 5.80452L3.65375 5.3088C3.65375 5.3088 3.67554 5.30063 3.68644 5.30063H3.68916ZM11.0569 16.3563L10.2316 15.8796C10.158 15.836 10.0763 15.817 9.99461 15.817V12.129L8.63002 11.3419C8.34402 11.1785 8.16971 10.8734 8.16971 10.5438V9.4625C8.16971 9.30452 8.21056 9.14927 8.28683 9.01581L4.96114 7.09557C5.002 7.02476 5.02651 6.94304 5.02651 6.85861V5.90802L8.93507 3.65005L9.76037 4.1267C9.83391 4.17028 9.91562 4.18935 9.99733 4.18935C10.079 4.18935 10.1635 4.16756 10.237 4.1267L11.0623 3.65005L14.9709 5.90802V6.82048L11.2176 8.98857L10.2697 8.4411C10.1962 8.39752 10.1145 8.37845 10.03 8.37845C9.94558 8.37845 9.86659 8.40024 9.79305 8.4411L8.79616 9.01581C8.64908 9.10024 8.5592 9.25822 8.5592 9.42982V10.582C8.5592 10.7508 8.64908 10.9088 8.79889 10.996L9.79577 11.5707C9.86932 11.6143 9.95103 11.6333 10.0327 11.6333C10.1145 11.6333 10.1962 11.6115 10.2724 11.5707L11.2693 10.996C11.4164 10.9115 11.509 10.7536 11.509 10.582V9.4516L15.2487 7.29441L16.0386 7.74927V12.2625L15.2133 12.7392C15.0662 12.8236 14.9736 12.9816 14.9736 13.1532V14.1065L11.065 16.3644L11.0569 16.3563ZM10.0273 1.66989L10.8853 2.16561C10.9071 2.17651 10.918 2.20102 10.918 2.22553V3.21697C10.918 3.24149 10.9043 3.26328 10.8853 3.2769L10.0273 3.77262C10.0273 3.77262 10.0055 3.78079 9.99188 3.78079V2.89285C9.99188 2.78662 9.93469 2.68857 9.84208 2.63409L9.07399 2.19013C9.07399 2.19013 9.0876 2.17106 9.0985 2.16561L9.95648 1.66989C9.95648 1.66989 9.97827 1.66172 9.98916 1.66172C10.0001 1.66172 10.0137 1.66444 10.0218 1.66989H10.0273ZM16.3001 5.30063C16.3001 5.30063 16.3246 5.30336 16.3327 5.3088L17.1907 5.80452C17.2125 5.81542 17.2234 5.83993 17.2234 5.86445V6.85588C17.2234 6.8804 17.2098 6.90219 17.1907 6.91581L16.3327 7.41153C16.3327 7.41153 16.3109 7.4197 16.3001 7.4197V6.53176C16.3001 6.42553 16.2429 6.32748 16.1502 6.27301L15.3822 5.82904C15.3822 5.82904 15.3958 5.80997 15.4067 5.80452L16.2646 5.3088C16.2646 5.3088 16.2864 5.30063 16.2973 5.30063H16.3001ZM10.0246 10.1952C10.0246 10.0753 9.96192 9.96639 9.85842 9.90647L8.96776 9.39168C8.96776 9.39168 8.98138 9.37262 8.99227 9.36717L9.98916 8.79246C9.98916 8.79246 10.011 8.78429 10.0218 8.78429C10.0327 8.78429 10.0464 8.78701 10.0545 8.79246L11.0514 9.36717C11.0732 9.37806 11.0841 9.40258 11.0841 9.42709V10.5792C11.0841 10.6037 11.0705 10.6255 11.0514 10.6392L10.0545 11.2139C10.0545 11.2139 10.0327 11.222 10.0191 11.222V10.1952H10.0246Z" fill="#6B6B6B"/>
<path d="M15.0285 1.79443C15.2487 2.19777 15.5809 2.52778 15.9827 2.74778C15.579 2.96778 15.2487 3.29971 15.0285 3.70112C14.8083 3.29778 14.4761 2.96778 14.0743 2.74778C14.478 2.52778 14.8083 2.19584 15.0285 1.79443Z" fill="#6B6B6B"/>
<path d="M4.61453 16.7893C4.72903 16.999 4.90078 17.1679 5.10796 17.2823C4.89805 17.3967 4.72903 17.5683 4.61453 17.7753C4.50003 17.5656 4.32828 17.3967 4.12109 17.2823C4.33101 17.1679 4.50003 16.9963 4.61453 16.7893Z" fill="#6B6B6B"/>
</svg>
