<svg width="20" height="20" viewBox="0 0 20 20" fill="none" xmlns="http://www.w3.org/2000/svg">
<path d="M17.5134 3.59966L13.8731 2.17417L13.6409 2.08337L13.4074 2.17417L9.99877 3.50759L6.5901 2.17417L6.35916 2.08337L6.12759 2.17417L2.48671 3.59966L2.08337 3.75776V16.243L2.48671 16.4004L6.12759 17.8259L6.35916 17.9167L6.59073 17.8259L10 16.4925L13.4087 17.8259L13.6409 17.9167L13.8731 17.8259L17.5134 16.4004L17.9167 16.243V3.75776L17.5134 3.59966ZM13.6409 2.76405L17.2818 4.19017V9.34159L13.6409 7.91674V2.76405ZM10.2316 9.93147L13.6409 8.59805L17.0502 9.93147L17.2239 9.99941L17.0502 10.0673L13.6409 11.4008L10.2316 10.0673L10.0579 9.99941L10.2316 9.93147ZM6.35916 2.76405L10 4.19017V9.34159L6.35916 7.91611V2.76405ZM2.95049 9.93147L6.35916 8.59805L9.76847 9.93147L9.94215 9.99941L9.76847 10.0673L6.35916 11.4008L2.95049 10.0673L2.77681 9.99941L2.95049 9.93147ZM2.71956 15.8093V10.6553L6.36044 12.0802V17.2322L2.71956 15.8093ZM10.0013 15.8093V10.6553L13.6422 12.0802V17.2322L10.0013 15.8093Z" fill="#6B6B6B"/>
</svg>
