<svg width="18" height="19" viewBox="0 0 18 19" fill="none" xmlns="http://www.w3.org/2000/svg">
<path d="M2.68044 2.73584C2.1212 2.73584 1.66785 3.18919 1.66785 3.74843V15.2515C1.66785 15.8108 2.1212 16.2641 2.68044 16.2641H14.1835C14.7428 16.2641 15.1961 15.8108 15.1961 15.2515V14.0916C15.1961 13.7395 14.9107 13.4541 14.5586 13.4541C14.2065 13.4541 13.921 13.7395 13.921 14.0916V14.989H2.94296V4.01095H13.921V4.82195C13.921 5.17406 14.2065 5.4595 14.5586 5.4595C14.9107 5.4595 15.1961 5.17406 15.1961 4.82195V3.74843C15.1961 3.18919 14.7428 2.73584 14.1835 2.73584H2.68044Z" fill="#6B6B6B"/>
<path d="M11.7984 5.44684C12.0474 5.19786 12.4511 5.19786 12.7001 5.44683L16.0373 8.78395C16.4327 9.17939 16.4327 9.82053 16.0373 10.216L12.7001 13.5531C12.4511 13.8021 12.0474 13.8021 11.7985 13.5531C11.5495 13.3042 11.5495 12.9005 11.7985 12.6515L14.3999 10.05H7.55037C7.19826 10.05 6.91282 9.76458 6.91282 9.41247C6.91282 9.06036 7.19826 8.77492 7.55037 8.77492H14.2249L11.7985 6.34848C11.5495 6.0995 11.5495 5.69583 11.7984 5.44684Z" fill="#6B6B6B"/>
</svg>
