<svg width="24" height="24" viewBox="0 0 24 24" fill="none" xmlns="http://www.w3.org/2000/svg">
<path fill-rule="evenodd" clip-rule="evenodd" d="M5.40039 4.91553H17.0909C17.3671 4.91553 17.5909 5.13939 17.5909 5.41553V9.8976C18.1143 9.97737 18.617 10.1201 19.0909 10.3179V5.41553C19.0909 4.31096 18.1955 3.41553 17.0909 3.41553H5.40039C4.29582 3.41553 3.40039 4.31096 3.40039 5.41553V19.0272C3.40039 20.1317 4.29582 21.0272 5.40039 21.0272H12.2727C11.7959 20.5923 11.3846 20.0868 11.0554 19.5272H5.40039C5.12425 19.5272 4.90039 19.3033 4.90039 19.0272V5.41553C4.90039 5.13938 5.12425 4.91553 5.40039 4.91553Z" fill="#6B6B6B"/>
<path fill-rule="evenodd" clip-rule="evenodd" d="M16.1221 7.88135C16.1221 8.29556 15.7863 8.63135 15.3721 8.63135L6.90246 8.63135C6.48824 8.63135 6.15246 8.29556 6.15246 7.88135C6.15246 7.46713 6.48824 7.13135 6.90246 7.13135L15.3721 7.13135C15.7863 7.13135 16.1221 7.46713 16.1221 7.88135Z" fill="#6B6B6B"/>
<path fill-rule="evenodd" clip-rule="evenodd" d="M10.667 12.2212C10.667 12.6354 10.3312 12.9712 9.91699 12.9712H6.90238C6.48816 12.9712 6.15238 12.6354 6.15238 12.2212C6.15238 11.807 6.48816 11.4712 6.90238 11.4712H9.91699C10.3312 11.4712 10.667 11.807 10.667 12.2212Z" fill="#6B6B6B"/>
<path fill-rule="evenodd" clip-rule="evenodd" d="M10.667 16.561C10.667 16.9752 10.3312 17.311 9.91699 17.311H6.90238C6.48816 17.311 6.15238 16.9752 6.15238 16.561C6.15238 16.1468 6.48816 15.811 6.90238 15.811H9.91699C10.3312 15.811 10.667 16.1468 10.667 16.561Z" fill="#6B6B6B"/>
<path fill-rule="evenodd" clip-rule="evenodd" d="M16.6118 12.7271C14.6577 12.7271 13.0732 14.3115 13.0732 16.2656C13.0732 18.2198 14.6577 19.8042 16.6118 19.8042C17.4261 19.8042 18.1742 19.5299 18.7723 19.0681C19.1002 18.815 19.5712 18.8756 19.8243 19.2035C20.0774 19.5313 20.0168 20.0023 19.689 20.2555C18.8379 20.9125 17.7698 21.3042 16.6118 21.3042C13.8292 21.3042 11.5732 19.0482 11.5732 16.2656C11.5732 13.483 13.8292 11.2271 16.6118 11.2271C19.3944 11.2271 21.6504 13.483 21.6504 16.2656C21.6504 17.0661 21.4632 17.8243 21.1296 18.4983C20.9459 18.8696 20.496 19.0216 20.1248 18.8379C19.7536 18.6541 19.6015 18.2043 19.7853 17.833C20.0189 17.3609 20.1504 16.8299 20.1504 16.2656C20.1504 14.3115 18.566 12.7271 16.6118 12.7271Z" fill="#6B6B6B"/>
<path fill-rule="evenodd" clip-rule="evenodd" d="M16.2773 12.918C16.6916 12.918 17.0273 13.2538 17.0273 13.668V15.8262H18.8871C19.3013 15.8262 19.6371 16.162 19.6371 16.5762C19.6371 16.9905 19.3013 17.3262 18.8871 17.3262H16.4953C15.9607 17.3262 15.5273 16.8929 15.5273 16.3583V13.668C15.5273 13.2538 15.8631 12.918 16.2773 12.918Z" fill="#6B6B6B"/>
</svg>
