<svg width="20" height="20" viewBox="0 0 20 20" fill="none" xmlns="http://www.w3.org/2000/svg">
<path d="M14.2422 2.84644C15.1627 2.84644 15.9092 3.59295 15.9092 4.51343V8.59839C15.5142 8.43359 15.0953 8.31428 14.6592 8.2478V4.51343C14.6592 4.28331 14.4723 4.09644 14.2422 4.09644H4.5C4.27003 4.09661 4.08398 4.28342 4.08398 4.51343V15.8562C4.08399 16.0862 4.27003 16.273 4.5 16.2732H9.21484C9.48923 16.7394 9.8311 17.1609 10.2285 17.5232H4.5C3.57968 17.523 2.83399 16.7766 2.83398 15.8562V4.51343C2.83398 3.59306 3.57967 2.84661 4.5 2.84644H14.2422Z" fill="#6B6B6B"/>
<path fill-rule="evenodd" clip-rule="evenodd" d="M13.4353 6.56812C13.4353 6.91329 13.1555 7.19312 12.8103 7.19312L5.75229 7.19312C5.40711 7.19312 5.12729 6.91329 5.12729 6.56812C5.12729 6.22294 5.40711 5.94312 5.75229 5.94312L12.8103 5.94312C13.1555 5.94312 13.4353 6.22294 13.4353 6.56812Z" fill="#6B6B6B"/>
<path fill-rule="evenodd" clip-rule="evenodd" d="M8.88953 10.1846C8.88953 10.5297 8.6097 10.8096 8.26453 10.8096H5.75235C5.40717 10.8096 5.12735 10.5297 5.12735 10.1846C5.12735 9.83939 5.40717 9.55957 5.75235 9.55957H8.26453C8.6097 9.55957 8.88953 9.83939 8.88953 10.1846Z" fill="#6B6B6B"/>
<path fill-rule="evenodd" clip-rule="evenodd" d="M8.88953 13.8013C8.88953 14.1464 8.6097 14.4263 8.26453 14.4263H5.75235C5.40717 14.4263 5.12735 14.1464 5.12735 13.8013C5.12735 13.4561 5.40717 13.1763 5.75235 13.1763H8.26453C8.6097 13.1763 8.88953 13.4561 8.88953 13.8013Z" fill="#6B6B6B"/>
<path fill-rule="evenodd" clip-rule="evenodd" d="M13.8435 10.6062C12.215 10.6062 10.8947 11.9266 10.8947 13.555C10.8947 15.1835 12.215 16.5039 13.8435 16.5039C14.5221 16.5039 15.1454 16.2752 15.6439 15.8904C15.9171 15.6795 16.3096 15.73 16.5206 16.0032C16.7315 16.2764 16.681 16.6689 16.4078 16.8799C15.6985 17.4274 14.8084 17.7539 13.8435 17.7539C11.5246 17.7539 9.64465 15.8739 9.64465 13.555C9.64465 11.2362 11.5246 9.3562 13.8435 9.3562C16.1623 9.3562 18.0423 11.2362 18.0423 13.555C18.0423 14.2221 17.8863 14.8539 17.6083 15.4156C17.4552 15.725 17.0803 15.8517 16.7709 15.6986C16.4616 15.5455 16.3349 15.1705 16.488 14.8612C16.6827 14.4678 16.7923 14.0252 16.7923 13.555C16.7923 11.9266 15.472 10.6062 13.8435 10.6062Z" fill="#6B6B6B"/>
<path fill-rule="evenodd" clip-rule="evenodd" d="M13.5648 10.7651C13.91 10.7651 14.1898 11.045 14.1898 11.3901V13.1887H15.7396C16.0848 13.1887 16.3646 13.4685 16.3646 13.8137C16.3646 14.1589 16.0848 14.4387 15.7396 14.4387H13.7464C13.301 14.4387 12.9398 14.0776 12.9398 13.6321V11.3901C12.9398 11.045 13.2196 10.7651 13.5648 10.7651Z" fill="#6B6B6B"/>
</svg>
