<svg width="22" height="26" viewBox="0 0 22 26" fill="none" xmlns="http://www.w3.org/2000/svg">
<path d="M21.3568 9.1777C21.5627 9.05949 21.6923 8.83833 21.6923 8.59809V7.21008C21.6923 6.97366 21.5627 6.75249 21.3568 6.63047L20.1556 5.93646C19.9497 5.81825 19.6942 5.81825 19.4883 5.93646L18.3329 6.60377L12.8609 3.44261V2.11179C12.8609 1.87537 12.7312 1.6542 12.5253 1.53218L11.3242 0.838169C11.1182 0.719959 10.8628 0.719959 10.6568 0.838169L9.45567 1.53218C9.24976 1.65039 9.12392 1.87155 9.12392 2.11179V3.44642L3.65194 6.60377L2.49653 5.93646C2.29061 5.81825 2.03513 5.81825 1.82921 5.93646L0.628045 6.63047C0.42213 6.74868 0.29248 6.96984 0.29248 7.21008V8.59809C0.29248 8.83451 0.42213 9.05568 0.628045 9.1777L1.78345 9.84502V16.1635L0.628045 16.8309C0.42213 16.9491 0.29248 17.1702 0.29248 17.4105V18.7985C0.29248 19.0349 0.42213 19.2599 0.628045 19.3743L1.82921 20.0683C1.93217 20.1293 2.04657 20.156 2.16478 20.156C2.28299 20.156 2.39357 20.1255 2.50034 20.0683L3.65575 19.401L9.12773 22.5583V23.893C9.12773 24.1294 9.25738 24.3544 9.4633 24.4688L10.6645 25.1628C10.7674 25.2238 10.8818 25.2505 11 25.2505C11.1182 25.2505 11.2288 25.22 11.3356 25.1628L12.5368 24.4688C12.7427 24.3505 12.8723 24.1294 12.8723 23.8891V22.5583L18.3443 19.3972L19.4997 20.0645C19.6027 20.1255 19.7171 20.1522 19.8353 20.1522C19.9535 20.1522 20.0641 20.1217 20.1708 20.0645L21.372 19.3705C21.5779 19.2523 21.7076 19.0311 21.7076 18.7909V17.4028C21.7076 17.1664 21.5779 16.9453 21.372 16.8232L20.2166 16.1559V9.83739L21.372 9.17008L21.3568 9.1777ZM21.1203 17.4067V18.7947C21.1203 18.829 21.1013 18.8595 21.0746 18.8786L19.8734 19.5726C19.8734 19.5726 19.8429 19.584 19.8277 19.584V18.3409C19.8277 18.1922 19.7476 18.0549 19.6179 17.9786L18.5426 17.3571C18.5426 17.3571 18.5617 17.3304 18.5769 17.3228L19.7781 16.6288C19.7781 16.6288 19.8086 16.6173 19.8238 16.6173C19.8391 16.6173 19.8582 16.6211 19.8696 16.6288L21.0708 17.3228C21.1013 17.338 21.1165 17.3723 21.1165 17.4067H21.1203ZM12.2431 23.973L11.042 24.667C11.042 24.667 11.0115 24.6785 10.9924 24.6785V23.4354C10.9924 23.2867 10.9123 23.1494 10.7827 23.0731L9.70734 22.4516C9.70734 22.4516 9.72641 22.4249 9.74166 22.4172L10.9428 21.7232C10.9428 21.7232 10.9733 21.7118 10.9886 21.7118C11.0038 21.7118 11.0229 21.7156 11.0343 21.7232L12.2355 22.4172C12.266 22.4325 12.2813 22.4668 12.2813 22.5011V23.8891C12.2813 23.9235 12.2622 23.954 12.2355 23.973H12.2431ZM2.16478 18.3409C2.16478 18.1922 2.0847 18.0549 1.95505 17.9786L0.879718 17.3571C0.879718 17.3571 0.898784 17.3304 0.914037 17.3228L2.1152 16.6288C2.1152 16.6288 2.14571 16.6173 2.16096 16.6173C2.17622 16.6173 2.19528 16.6211 2.20672 16.6288L3.40789 17.3228C3.43839 17.338 3.45365 17.3723 3.45365 17.4067V18.7947C3.45365 18.829 3.43458 18.8595 3.40789 18.8786L2.20672 19.5726C2.20672 19.5726 2.17622 19.584 2.16096 19.584V18.3409H2.16478ZM2.16478 6.42074C2.16478 6.42074 2.1991 6.42455 2.21053 6.43218L3.4117 7.12619C3.44221 7.14144 3.45746 7.17576 3.45746 7.21008V8.59809C3.45746 8.63241 3.4384 8.66292 3.4117 8.68198L2.21053 9.37599C2.21053 9.37599 2.18003 9.38743 2.16478 9.38743V8.14432C2.16478 7.9956 2.0847 7.85833 1.95505 7.78206L0.879718 7.1605C0.879718 7.1605 0.898784 7.13381 0.914037 7.12619L2.1152 6.43218C2.1152 6.43218 2.14571 6.42074 2.16096 6.42074H2.16478ZM12.4796 21.8986L11.3242 21.2313C11.2212 21.1703 11.1068 21.1436 10.9924 21.1436V15.9805L9.08197 14.8785C8.68159 14.6497 8.43754 14.2226 8.43754 13.7612V12.2474C8.43754 12.0262 8.49474 11.8088 8.60151 11.622L3.94555 8.93366C4.00275 8.83451 4.03707 8.72012 4.03707 8.60191V7.27109L9.50906 4.10992L10.6645 4.77724C10.7674 4.83825 10.8818 4.86494 10.9962 4.86494C11.1106 4.86494 11.2288 4.83443 11.3318 4.77724L12.4872 4.10992L17.9592 7.27109V8.54852L12.7045 11.5839L11.3775 10.8174C11.2746 10.7564 11.1602 10.7297 11.042 10.7297C10.9238 10.7297 10.8132 10.7602 10.7102 10.8174L9.31458 11.622C9.10867 11.7402 8.98283 11.9614 8.98283 12.2016V13.8146C8.98283 14.051 9.10867 14.2722 9.31839 14.3942L10.714 15.1988C10.817 15.2598 10.9314 15.2865 11.0458 15.2865C11.1602 15.2865 11.2746 15.256 11.3814 15.1988L12.777 14.3942C12.9829 14.276 13.1126 14.0548 13.1126 13.8146V12.2321L18.3481 9.21202L19.454 9.84883V16.1674L18.2986 16.8347C18.0926 16.9529 17.963 17.174 17.963 17.4143V18.7489L12.491 21.9101L12.4796 21.8986ZM11.0382 1.3377L12.2393 2.03171C12.2698 2.04696 12.2851 2.08128 12.2851 2.1156V3.50362C12.2851 3.53794 12.266 3.56844 12.2393 3.58751L11.0382 4.28152C11.0382 4.28152 11.0077 4.29296 10.9886 4.29296V3.04984C10.9886 2.90113 10.9085 2.76385 10.7789 2.68759L9.70353 2.06603C9.70353 2.06603 9.7226 2.03934 9.73785 2.03171L10.939 1.3377C10.939 1.3377 10.9695 1.32626 10.9848 1.32626C11 1.32626 11.0191 1.33008 11.0305 1.3377H11.0382ZM19.82 6.42074C19.82 6.42074 19.8543 6.42455 19.8658 6.43218L21.067 7.12619C21.0975 7.14144 21.1127 7.17576 21.1127 7.21008V8.59809C21.1127 8.63241 21.0936 8.66292 21.067 8.68198L19.8658 9.37599C19.8658 9.37599 19.8353 9.38743 19.82 9.38743V8.14432C19.82 7.9956 19.74 7.85833 19.6103 7.78206L18.535 7.1605C18.535 7.1605 18.554 7.13381 18.5693 7.12619L19.7705 6.43218C19.7705 6.43218 19.801 6.42074 19.8162 6.42074H19.82ZM11.0343 13.2731C11.0343 13.1053 10.9466 12.9528 10.8017 12.8689L9.55482 12.1482C9.55482 12.1482 9.57388 12.1215 9.58913 12.1139L10.9848 11.3093C10.9848 11.3093 11.0153 11.2979 11.0305 11.2979C11.0458 11.2979 11.0649 11.3017 11.0763 11.3093L12.4719 12.1139C12.5024 12.1291 12.5177 12.1635 12.5177 12.1978V13.8108C12.5177 13.8451 12.4986 13.8756 12.4719 13.8947L11.0763 14.6993C11.0763 14.6993 11.0458 14.7107 11.0267 14.7107V13.2731H11.0343Z" fill="url(#paint0_linear_16174_20765)"/>
<path d="M18.0398 1.51221C18.3481 2.07688 18.8132 2.53889 19.3756 2.84689C18.8105 3.15489 18.3481 3.6196 18.0398 4.18157C17.7315 3.6169 17.2664 3.15489 16.704 2.84689C17.2691 2.53889 17.7315 2.07418 18.0398 1.51221Z" fill="url(#paint1_linear_16174_20765)"/>
<path d="M3.46028 22.5049C3.62058 22.7985 3.86103 23.0349 4.15109 23.1951C3.85721 23.3553 3.62058 23.5955 3.46028 23.8853C3.29998 23.5917 3.05953 23.3553 2.76947 23.1951C3.06335 23.0349 3.29998 22.7947 3.46028 22.5049Z" fill="url(#paint2_linear_16174_20765)"/>
<defs>
<linearGradient id="paint0_linear_16174_20765" x1="11" y1="0.749512" x2="11" y2="25.2505" gradientUnits="userSpaceOnUse">
<stop stop-color="#5E5FFF"/>
<stop offset="1" stop-color="#237DEC"/>
</linearGradient>
<linearGradient id="paint1_linear_16174_20765" x1="18.0398" y1="1.51221" x2="18.0398" y2="4.18157" gradientUnits="userSpaceOnUse">
<stop stop-color="#5962FE"/>
<stop offset="1" stop-color="#277CEE"/>
</linearGradient>
<linearGradient id="paint2_linear_16174_20765" x1="3.46028" y1="22.5049" x2="3.46028" y2="23.8853" gradientUnits="userSpaceOnUse">
<stop stop-color="#5962FE"/>
<stop offset="1" stop-color="#277CEE"/>
</linearGradient>
</defs>
</svg>
