<svg width="24" height="24" viewBox="0 0 24 24" fill="none" xmlns="http://www.w3.org/2000/svg">
<path d="M20.069 10.7578C20.5849 10.7578 21 10.3428 21 9.82681V4.2406C21 3.72466 20.5849 3.30957 20.069 3.30957C19.553 3.30957 19.1379 3.72466 19.1379 4.2406V7.34793L18.3621 6.43629C16.7716 4.52767 14.3703 3.30957 11.6897 3.30957C6.89095 3.30957 3 7.20052 3 11.9992C3 16.7979 6.89095 20.6889 11.6897 20.6889C13.6448 20.6889 15.4526 20.041 16.9034 18.951C17.3147 18.6406 17.3961 18.0587 17.0897 17.6475C16.7832 17.2363 16.1974 17.1548 15.7862 17.4613C14.6457 18.3186 13.2297 18.8268 11.6897 18.8268C7.91897 18.8268 4.86207 15.7699 4.86207 11.9992C4.86207 8.22854 7.91897 5.17164 11.6897 5.17164C13.7961 5.17164 15.6815 6.12595 16.9345 7.63112L16.9384 7.63888L18.0091 8.89578H14.4828C13.9668 8.89578 13.5517 9.31086 13.5517 9.82681C13.5517 10.3428 13.9668 10.7578 14.4828 10.7578H20.069Z" fill="#1F1F1F"/>
</svg>
