<svg width="19" height="20" viewBox="0 0 19 20" fill="none" xmlns="http://www.w3.org/2000/svg">
<path d="M7.90105 15.4647C9.50002 15.4647 10.9745 14.925 12.1809 14.0254L16.7194 18.7629C16.93 18.9828 17.2077 19.0928 17.5045 19.0928C18.1268 19.0928 18.5673 18.593 18.5673 17.9534C18.5673 17.6535 18.4715 17.3637 18.2609 17.1538L13.7512 12.4363C14.6991 11.137 15.264 9.52781 15.264 7.77873C15.264 3.55095 11.9512 0.0927734 7.90105 0.0927734C3.86051 0.0927734 0.538086 3.54096 0.538086 7.77873C0.538086 12.0065 3.85094 15.4647 7.90105 15.4647ZM7.90105 13.8056C4.74139 13.8056 2.12749 11.077 2.12749 7.77873C2.12749 4.48046 4.74139 1.7519 7.90105 1.7519C11.0607 1.7519 13.6746 4.48046 13.6746 7.77873C13.6746 11.077 11.0607 13.8056 7.90105 13.8056Z" fill="white"/>
</svg>
