<svg width="19" height="20" viewBox="0 0 19 20" fill="none" xmlns="http://www.w3.org/2000/svg">
<path d="M7.43718 16.285C9.03616 16.285 10.5107 15.7453 11.7171 14.8458L16.2555 19.5833C16.4661 19.8031 16.7438 19.9131 17.0406 19.9131C17.663 19.9131 18.1034 19.4133 18.1034 18.7737C18.1034 18.4738 18.0077 18.184 17.797 17.9741L13.2873 13.2566C14.2352 11.9573 14.8001 10.3481 14.8001 8.59904C14.8001 4.37127 11.4873 0.913086 7.43718 0.913086C3.39665 0.913086 0.0742188 4.36127 0.0742188 8.59904C0.0742188 12.8268 3.38707 16.285 7.43718 16.285ZM7.43718 14.6259C4.27752 14.6259 1.66362 11.8973 1.66362 8.59904C1.66362 5.30078 4.27752 2.57221 7.43718 2.57221C10.5968 2.57221 13.2107 5.30078 13.2107 8.59904C13.2107 11.8973 10.5968 14.6259 7.43718 14.6259Z" fill="#ACACAC"/>
</svg>
