<?xml version="1.0" standalone="no"?><!DOCTYPE svg PUBLIC "-//W3C//DTD SVG 1.1//EN" "http://www.w3.org/Graphics/SVG/1.1/DTD/svg11.dtd"><svg t="1758367827282" class="icon" viewBox="0 0 1024 1024" version="1.1" xmlns="http://www.w3.org/2000/svg" p-id="7546" xmlns:xlink="http://www.w3.org/1999/xlink" width="200" height="200"><path d="M512 64c249.856 0 448 198.656 448 448s-198.656 448-448 448-448-198.144-448-448S262.656 64 512 64M512 0C230.4 0 0 230.4 0 512s230.4 512 512 512 512-230.4 512-512S793.6 0 512 0z" p-id="7547" fill="#707070"></path><path d="M450.56 291.84c-10.24-10.24-30.72-10.24-46.08 0-10.24 10.24-10.24 30.72 0 46.08l179.2 179.2-184.32 184.32c-10.24 10.24-10.24 30.72 0 46.08 5.12 5.12 15.36 10.24 20.48 10.24s15.36-5.12 20.48-10.24l204.8-204.8c5.12-5.12 10.24-15.36 10.24-20.48 0-10.24-5.12-15.36-10.24-20.48L450.56 291.84z" p-id="7548" fill="#707070"></path></svg>