<svg width="14" height="15" viewBox="0 0 14 15" fill="none" xmlns="http://www.w3.org/2000/svg">
<path d="M12.5778 7.45799C12.5778 4.06393 9.9498 1.3125 6.70801 1.3125V7.45799L10.85 11.8125C11.9172 10.6997 12.5778 9.1596 12.5778 7.45799Z" fill="#DDDDDD"/>
<path fill-rule="evenodd" clip-rule="evenodd" d="M6.70788 1.83809C3.74395 1.83809 1.34121 4.34529 1.34121 7.43809C1.34121 10.5309 3.74395 13.0381 6.70788 13.0381C9.67181 13.0381 12.0745 10.5309 12.0745 7.43809C12.0745 4.34529 9.67181 1.83809 6.70788 1.83809ZM0.334961 7.43809C0.334961 3.76539 3.18821 0.788086 6.70788 0.788086C10.2275 0.788086 13.0808 3.76539 13.0808 7.43809C13.0808 11.1108 10.2275 14.0881 6.70788 14.0881C3.18821 14.0881 0.334961 11.1108 0.334961 7.43809Z" fill="#595959"/>
<path fill-rule="evenodd" clip-rule="evenodd" d="M6.7082 5.16309C6.98607 5.16309 7.21133 5.39814 7.21133 5.68809V7.43809C7.21133 7.72804 6.98607 7.96309 6.7082 7.96309C6.43033 7.96309 6.20508 7.72804 6.20508 7.43809V5.68809C6.20508 5.39814 6.43033 5.16309 6.7082 5.16309Z" fill="#595959"/>
<path fill-rule="evenodd" clip-rule="evenodd" d="M6.35244 7.06685C6.54892 6.86183 6.86748 6.86183 7.06397 7.06685L8.74105 8.81686C8.93753 9.02188 8.93753 9.35429 8.74105 9.55932C8.54457 9.76434 8.22601 9.76434 8.02952 9.55932L6.35244 7.80932C6.15596 7.60429 6.15596 7.27188 6.35244 7.06685Z" fill="#595959"/>
<path fill-rule="evenodd" clip-rule="evenodd" d="M0.418945 7.4375C0.418945 7.19588 0.606659 7 0.838216 7H2.09603C2.32759 7 2.5153 7.19588 2.5153 7.4375C2.5153 7.67912 2.32759 7.875 2.09603 7.875H0.838216C0.606659 7.875 0.418945 7.67912 0.418945 7.4375Z" fill="#595959"/>
<path fill-rule="evenodd" clip-rule="evenodd" d="M10.9004 7.4375C10.9004 7.19588 11.0881 7 11.3197 7H12.5775C12.809 7 12.9967 7.19588 12.9967 7.4375C12.9967 7.67912 12.809 7.875 12.5775 7.875H11.3197C11.0881 7.875 10.9004 7.67912 10.9004 7.4375Z" fill="#595959"/>
<path fill-rule="evenodd" clip-rule="evenodd" d="M6.70833 14C6.47678 14 6.28906 13.8041 6.28906 13.5625L6.28906 12.25C6.28906 12.0084 6.47678 11.8125 6.70833 11.8125C6.93989 11.8125 7.1276 12.0084 7.1276 12.25L7.1276 13.5625C7.1276 13.8041 6.93989 14 6.70833 14Z" fill="#595959"/>
<path fill-rule="evenodd" clip-rule="evenodd" d="M6.70833 3.0625C6.47678 3.0625 6.28906 2.86662 6.28906 2.625L6.28906 1.3125C6.28906 1.07088 6.47678 0.875 6.70833 0.875C6.93989 0.875 7.1276 1.07088 7.1276 1.3125L7.1276 2.625C7.1276 2.86662 6.93989 3.0625 6.70833 3.0625Z" fill="#595959"/>
<path fill-rule="evenodd" clip-rule="evenodd" d="M2.3925 0.565641C2.55623 0.736495 2.55623 1.0135 2.3925 1.18436L1.13469 2.49686C0.97095 2.66771 0.705482 2.66771 0.541747 2.49686C0.378011 2.326 0.378011 2.049 0.541747 1.87814L1.79956 0.565641C1.96329 0.394786 2.22876 0.394786 2.3925 0.565641Z" fill="#595959"/>
<path fill-rule="evenodd" clip-rule="evenodd" d="M11.0235 0.565641C10.8598 0.736495 10.8598 1.0135 11.0235 1.18436L12.2813 2.49686C12.4451 2.66771 12.7105 2.66771 12.8743 2.49686C13.038 2.326 13.038 2.049 12.8743 1.87814L11.6165 0.565641C11.4527 0.394786 11.1873 0.394786 11.0235 0.565641Z" fill="#595959"/>
</svg>
