<svg width="14" height="14" viewBox="0 0 14 14" fill="none" xmlns="http://www.w3.org/2000/svg">
<path fill-rule="evenodd" clip-rule="evenodd" d="M7.00168 2.83838C7.23263 2.83838 7.41986 3.02449 7.41986 3.25407V9.60403C7.41986 9.83361 7.23263 10.0197 7.00168 10.0197C6.77072 10.0197 6.5835 9.83361 6.5835 9.60403V3.25407C6.5835 3.02449 6.77072 2.83838 7.00168 2.83838Z" fill="#333333"/>
<path fill-rule="evenodd" clip-rule="evenodd" d="M4.31487 6.95476C4.47818 6.79242 4.74295 6.79242 4.90626 6.95476L7.00017 9.03619L9.09408 6.95476C9.25739 6.79242 9.52217 6.79242 9.68548 6.95476C9.84878 7.1171 9.84878 7.3803 9.68548 7.54263L7.29587 9.918C7.13256 10.0803 6.86778 10.0803 6.70447 9.918L4.31487 7.54263C4.15156 7.3803 4.15156 7.1171 4.31487 6.95476Z" fill="#333333"/>
<path fill-rule="evenodd" clip-rule="evenodd" d="M4.19238 11.2077C4.19238 10.9781 4.37961 10.792 4.61056 10.792H9.38978C9.62073 10.792 9.80796 10.9781 9.80796 11.2077C9.80796 11.4373 9.62073 11.6234 9.38978 11.6234H4.61056C4.37961 11.6234 4.19238 11.4373 4.19238 11.2077Z" fill="#333333"/>
</svg>
