<svg width="14" height="14" viewBox="0 0 14 14" fill="none" xmlns="http://www.w3.org/2000/svg">
<path fill-rule="evenodd" clip-rule="evenodd" d="M5.95276 2.86133C6.01688 2.71791 6.15995 2.62549 6.31783 2.62549C7.20041 2.62549 7.91584 3.33668 7.91584 4.21398V5.40535H9.91133C10.262 5.40211 10.5966 5.55179 10.8268 5.8149C11.0575 6.07866 11.1601 6.42986 11.1073 6.77545L10.556 10.3495C10.556 10.3496 10.5561 10.3493 10.556 10.3495C10.4664 10.9358 9.95645 11.3676 9.36007 11.3622H4.71982C4.49918 11.3622 4.32031 11.1844 4.32031 10.9651V6.59672C4.32031 6.54116 4.33204 6.48621 4.35474 6.43543L5.95276 2.86133ZM6.56075 3.4571L5.11932 6.681V10.5679H9.36657C9.56579 10.5702 9.73619 10.4262 9.76607 10.2304L10.3174 6.65626C10.3174 6.65615 10.3174 6.65638 10.3174 6.65626C10.3349 6.54118 10.3007 6.42392 10.2239 6.33609C10.147 6.24815 10.0351 6.19825 9.91788 6.19957L9.91336 6.19962L7.51634 6.19959C7.29571 6.19959 7.11683 6.0218 7.11683 5.80247V4.21398C7.11683 3.85952 6.88326 3.55929 6.56075 3.4571Z" fill="#333333"/>
<path fill-rule="evenodd" clip-rule="evenodd" d="M3.6563 6.15492H4.71977C4.94041 6.15492 5.11928 6.33272 5.11928 6.55204V10.9644C5.11928 11.1837 4.94041 11.3615 4.71977 11.3615H3.65634C2.98737 11.3713 2.41609 10.8828 2.32636 10.2233C2.32396 10.2057 2.32275 10.1879 2.32275 10.1701V7.39026C2.32275 7.37247 2.32396 7.35468 2.32636 7.33705C2.41249 6.70407 2.96166 6.14481 3.6563 6.15492ZM3.12176 7.42044V10.1396C3.16703 10.3895 3.38838 10.5718 3.64604 10.5673L3.6531 10.5672L4.32027 10.5672V6.94916H3.64603C3.41291 6.94507 3.17072 7.14432 3.12176 7.42044Z" fill="#333333"/>
</svg>
