<svg width="20" height="20" viewBox="0 0 20 20" fill="none" xmlns="http://www.w3.org/2000/svg">
<path d="M13.2802 8.59479C13.2802 7.35138 12.7864 6.15889 11.9074 5.27966C11.0284 4.40043 9.83624 3.90649 8.59315 3.90649C7.35007 3.90649 6.15791 4.40043 5.27892 5.27966C4.39992 6.15889 3.90611 7.35138 3.90611 8.59479C3.90611 9.8382 4.39992 11.0307 5.27892 11.9099C6.15791 12.7891 7.35007 13.2831 8.59315 13.2831C9.83624 13.2831 11.0284 12.7891 11.9074 11.9099C12.7864 11.0307 13.2802 9.8382 13.2802 8.59479ZM12.375 13.3739C11.338 14.1973 10.0227 14.6896 8.59315 14.6896C5.22727 14.6896 2.5 11.9616 2.5 8.59479C2.5 5.228 5.22727 2.5 8.59315 2.5C11.959 2.5 14.6863 5.228 14.6863 8.59479C14.6863 10.0247 14.1942 11.3404 13.371 12.3777L17.2935 16.3012C17.5688 16.5766 17.5688 17.022 17.2935 17.2945C17.0181 17.567 16.5728 17.57 16.3004 17.2945L12.375 13.3739Z" fill="#5C5C5C"/>
</svg>
