<svg width="19" height="18" viewBox="0 0 19 18" fill="none" xmlns="http://www.w3.org/2000/svg">
<path d="M3.42287 13.8943L3.96193 11.9562C4.06037 11.6063 4.23849 11.2861 4.48224 11.0281L11.6096 3.47898C12.1955 2.85857 13.1447 2.85857 13.7307 3.47898L14.6541 4.45673C14.7268 4.53366 14.7924 4.61804 14.8463 4.70489C15.2307 5.32034 15.1674 6.15912 14.6541 6.7026L7.52677 14.2517C7.49631 14.2839 7.46584 14.3162 7.43302 14.346C7.20802 14.5569 6.94084 14.7133 6.65021 14.8026L4.81974 15.3734L3.83068 15.6811C3.63381 15.7431 3.42052 15.6861 3.27521 15.5297C3.1299 15.3734 3.07365 15.1525 3.13224 14.9416L3.42287 13.8943ZM4.88068 12.8719L4.50099 14.2318L5.78537 13.8323L6.33381 13.6611C6.48381 13.6139 6.62209 13.527 6.73224 13.4104L12.0854 7.73991L10.6322 6.20131L5.27677 11.8693C5.26271 11.8842 5.24865 11.8991 5.23693 11.914C5.14552 12.0232 5.0799 12.1522 5.04006 12.2912L4.87834 12.8719H4.88068ZM8.92131 14.5147H16.0463C16.358 14.5147 16.6088 14.7803 16.6088 15.1103C16.6088 15.4404 16.358 15.7059 16.0463 15.7059H8.92131C8.60959 15.7059 8.35881 15.4404 8.35881 15.1103C8.35881 14.7803 8.60959 14.5147 8.92131 14.5147Z" fill="black"/>
</svg>
