<svg width="18" height="18" viewBox="0 0 18 18" fill="none" xmlns="http://www.w3.org/2000/svg">
<path d="M8.99983 4.875C7.49057 4.875 6.24983 5.56875 5.29844 6.46172C4.40724 7.30078 3.7915 8.29688 3.47668 9C3.7915 9.70312 4.40724 10.6992 5.29612 11.5383C6.24983 12.4312 7.49057 13.125 8.99983 13.125C10.5091 13.125 11.7498 12.4312 12.7012 11.5383C13.5924 10.6992 14.2082 9.70312 14.523 9C14.2082 8.29688 13.5924 7.30078 12.7035 6.46172C11.7498 5.56875 10.5091 4.875 8.99983 4.875ZM4.5415 5.63906C5.63177 4.6125 7.12946 3.75 8.99983 3.75C10.8702 3.75 12.3679 4.6125 13.4582 5.63906C14.5415 6.65859 15.266 7.875 15.6109 8.71172C15.6873 8.89687 15.6873 9.10312 15.6109 9.28828C15.266 10.125 14.5415 11.3437 13.4582 12.3609C12.3679 13.3875 10.8702 14.25 8.99983 14.25C7.12946 14.25 5.63177 13.3875 4.5415 12.3609C3.45816 11.3437 2.73362 10.125 2.39103 9.28828C2.31464 9.10312 2.31464 8.89687 2.39103 8.71172C2.73362 7.875 3.45816 6.65625 4.5415 5.63906ZM8.99983 10.875C10.023 10.875 10.8517 10.0359 10.8517 9C10.8517 7.96406 10.023 7.125 8.99983 7.125C8.98363 7.125 8.96974 7.125 8.95353 7.125C8.98363 7.24453 8.99983 7.37109 8.99983 7.5C8.99983 8.32734 8.33548 9 7.51835 9C7.39103 9 7.26603 8.98359 7.14798 8.95312C7.14798 8.96953 7.14798 8.98359 7.14798 9C7.14798 10.0359 7.97668 10.875 8.99983 10.875ZM8.99983 6C9.78566 6 10.5393 6.31607 11.095 6.87868C11.6506 7.44129 11.9628 8.20435 11.9628 9C11.9628 9.79565 11.6506 10.5587 11.095 11.1213C10.5393 11.6839 9.78566 12 8.99983 12C8.214 12 7.46036 11.6839 6.9047 11.1213C6.34903 10.5587 6.03687 9.79565 6.03687 9C6.03687 8.20435 6.34903 7.44129 6.9047 6.87868C7.46036 6.31607 8.214 6 8.99983 6Z" fill="#5C5C5C"/>
</svg>
