<svg width="20" height="20" viewBox="0 0 20 20" fill="none" xmlns="http://www.w3.org/2000/svg">
<path d="M9.99867 9.58343C11.8494 9.58343 13.5368 10.2726 14.8003 11.4026C15.081 11.6537 15.5136 11.6342 15.7715 11.3608C16.0293 11.0873 16.0092 10.666 15.7285 10.4149C14.2215 9.06724 12.2075 8.24414 9.99867 8.24414C7.78983 8.24414 5.7758 9.06724 4.26599 10.4177C3.98523 10.6688 3.96804 11.0901 4.22302 11.3636C4.47799 11.637 4.91346 11.6537 5.19422 11.4054C6.46051 10.2726 8.14794 9.58343 9.99867 9.58343Z" fill="black"/>
<path d="M11.4811 13.6726C11.5617 13.8621 11.6032 14.0653 11.6032 14.2705C11.6032 14.4757 11.5617 14.6789 11.4811 14.8685C11.4005 15.058 11.2823 15.2303 11.1333 15.3754C10.9843 15.5205 10.8075 15.6355 10.6128 15.7141C10.4182 15.7926 10.2096 15.833 9.99888 15.833C9.78819 15.833 9.57957 15.7926 9.38492 15.7141C9.19027 15.6355 9.01341 15.5205 8.86443 15.3754C8.71546 15.2303 8.59728 15.058 8.51666 14.8685C8.43603 14.6789 8.39453 14.4757 8.39453 14.2705C8.39453 14.0653 8.43603 13.8621 8.51666 13.6726C8.59728 13.483 8.71546 13.3107 8.86443 13.1657C9.01341 13.0206 9.19027 12.9055 9.38492 12.8269C9.57957 12.7484 9.78819 12.708 9.99888 12.708C10.2096 12.708 10.4182 12.7484 10.6128 12.8269C10.8075 12.9055 10.9843 13.0206 11.1333 13.1657C11.2823 13.3107 11.4005 13.483 11.4811 13.6726Z" fill="black"/>
<path d="M9.99861 4.67229C6.9217 4.67229 4.11409 5.78557 1.974 7.62151C1.68751 7.86426 1.25204 7.83915 1.0028 7.56013C0.753551 7.28111 0.7822 6.85979 1.06583 6.61426C3.44656 4.57185 6.57504 3.33301 9.99861 3.33301C13.4222 3.33301 16.5506 4.57185 18.9314 6.61426C19.2179 6.85979 19.2465 7.28111 18.9944 7.56013C18.7423 7.83915 18.3068 7.86705 18.0232 7.62151C15.8831 5.78557 13.0755 4.67229 9.99861 4.67229Z" fill="#DBDBDB"/>
</svg>
