<?xml version="1.0" standalone="no"?><!DOCTYPE svg PUBLIC "-//W3C//DTD SVG 1.1//EN" "http://www.w3.org/Graphics/SVG/1.1/DTD/svg11.dtd"><svg t="1710300842871" class="icon" viewBox="0 0 1024 1024" version="1.1" xmlns="http://www.w3.org/2000/svg" p-id="6290" xmlns:xlink="http://www.w3.org/1999/xlink" width="200" height="200"><path d="M876.564398 512.149985h30.697002c7.699248 0 15.398496 0 22.997754-2.599746 33.296748-8.999121 46.095498-43.495752 37.096378-104.889757-3.799629-28.197246-24.297627-46.095498-54.99463-46.095498H614.290011v-24.297627c0-65.293624-3.799629-130.487257 0-195.780881C616.889757 75.792598 589.992384 18.198223 537.49751 2.899717c-15.398496-3.799629-38.39625-3.799629-51.195 0C458.105263 13.098721 421.008886 39.996094 413.409628 79.692218c-2.599746 12.79875-3.799629 24.297627-3.799629 35.796504v243.076262H113.938873c-40.896006 0-60.094131 19.198125-60.094131 61.394004v7.699249c0 72.892882 7.699248 80.59213 80.592129 84.491748 2.599746 0 6.399375 1.299873 10.199004 1.299873-28.197246 145.885753-56.294502 290.471634-86.991504 435.057514-7.699248 35.796504 0 62.693878 30.697002 75.492628h844.417537c29.397129-12.79875 38.39625-38.39625 31.996876-72.892882-30.597012-145.985744-58.794258-290.571624-88.191388-438.957133zM509.300264 54.094717c31.996875 0 52.494874 22.997754 52.494873 61.394005 0 74.192755 1.299873 147.185626 1.299873 221.378381v21.797871H459.405136V115.488722c0-37.096377 19.198125-60.194122 49.895128-61.394005zM102.439996 460.954985v-51.195001h818.820037V460.954985H102.439996z m200.880383 511.750024c8.999121-63.993751 17.898252-133.087003 26.897373-199.580509 1.299873-11.498877 2.599746-21.797871 3.799629-31.996876 1.299873-15.398496-3.799629-28.197246-19.198125-30.697002-17.898252-2.599746-28.197246 6.399375-30.697002 22.997754-6.399375 42.195879-11.498877 83.191876-17.898252 125.387755-3.799629 37.096377-8.999121 75.492628-14.098624 113.888878H103.739869c33.296748-153.585001 66.493506-307.070013 101.090128-460.655014h610.340397c33.296748 153.585001 66.493506 307.070013 101.090127 460.655014h-612.940142z" p-id="6291"></path></svg>