<?xml version="1.0" standalone="no"?><!DOCTYPE svg PUBLIC "-//W3C//DTD SVG 1.1//EN" "http://www.w3.org/Graphics/SVG/1.1/DTD/svg11.dtd"><svg t="1710300760113" class="icon" viewBox="0 0 1024 1024" version="1.1" xmlns="http://www.w3.org/2000/svg" p-id="1754" xmlns:xlink="http://www.w3.org/1999/xlink" width="200" height="200"><path d="M901.78839 187.42834H711.384091C707.955184 84.013425 623.257795 1.105764 519.008365 1.105764c-104.320811 0-189.0182 82.906362-192.374428 186.322576H120.911169c-28.23203 0-46.020299 12.521612-46.0203 42.943107s17.788269 49.040385 46.021597 49.040386h16.55921v556.16438c0 103.414915 70.033034 187.270003 156.335858 187.270002h440.264192c86.228847 0 156.263179-83.855087 156.263179-187.270002v-556.165678h24.010139c28.230733 0 34.717364-20.869354 34.717364-49.039088 0-28.171032-19.114667-42.943108-47.274018-42.943107zM518.852624 86.962129c72.951888 0 96.167747 55.781394 96.167746 100.466211H422.683579c0-35.646621 23.217156-100.46621 96.169045-100.466211z m284.306007 195.155711v590.805171c0 34.36435-26.242433 62.345896-58.688568 62.345896H278.145136c-32.446134 0-58.604208-27.981546-58.604208-62.344598V282.11784c0-1.227762 0.08436-2.455523 0.16872-3.681987h583.277668c0 1.226464 0.16872 2.454226 0.168719 3.681987zM362.088477 761.792406c22.543574 0 40.853577-18.246408 40.853576-40.796472V487.379873c0-22.624041-18.3113-40.869151-40.853576-40.869151-22.614956 0-40.924958 18.24511-40.924959 40.869151v233.614763c0.072679 22.550063 18.382682 40.796471 40.924959 40.796472z m148.239898 0c22.540978 0 40.778302-18.246408 40.778302-40.796472V487.379873c0-22.624041-18.237323-40.869151-40.778302-40.869151-22.616253 0-40.927554 18.24511-40.927554 40.869151v233.614763c0.072679 22.550063 18.38398 40.796471 40.926256 40.796472z m155.605171 0c22.614956 0 40.853577-18.246408 40.853577-40.796472V487.379873c0-22.624041-18.238621-40.869151-40.853577-40.869151s-40.779599 18.24511-40.779599 40.869151v233.614763c0.072679 22.550063 18.237323 40.796471 40.779599 40.796472z" fill="#000000" p-id="1755"></path></svg>