<svg width="28" height="29" viewBox="0 0 28 29" fill="none" xmlns="http://www.w3.org/2000/svg">
<path fill-rule="evenodd" clip-rule="evenodd" d="M14.0006 26.1909C9.03926 26.1909 4.66724 22.6909 4.66724 16.8576C4.66724 14.4774 5.44501 11.3663 7.00057 7.52425C7.77835 9.46869 8.36168 11.0243 8.75057 12.1909C9.13946 13.3576 9.72279 14.1354 10.5006 14.5243C10.0008 13.079 10.0008 11.5234 10.5006 9.85758C11.6672 5.96869 13.6117 3.63536 16.3339 2.85758C16.0448 5.67959 16.8226 8.01292 18.6672 9.85758C19.8339 11.0243 23.3339 13.3576 23.3339 18.0243C23.3339 22.6909 18.9619 26.1909 14.0006 26.1909Z" fill="url(#paint0_linear_15292_10438)"/>
<path d="M19.7265 14.6689C20.5291 15.6181 21.0004 16.7758 21.0004 18.0251C21.0004 21.2468 17.8664 23.8585 14.0004 23.8585C10.5532 23.8585 7.68793 21.7819 7.10767 19.048C8.37462 20.5463 10.4669 21.5251 12.8336 21.5251C16.4615 21.5251 20.5778 18.68 19.7265 14.6689Z" fill="url(#paint1_linear_15292_10438)"/>
<defs>
<linearGradient id="paint0_linear_15292_10438" x1="14.0003" y1="26.1909" x2="14.0003" y2="2.85758" gradientUnits="userSpaceOnUse">
<stop offset="0.427" stop-color="#FF5F5F"/>
<stop offset="1" stop-color="#FF5F5F"/>
</linearGradient>
<linearGradient id="paint1_linear_15292_10438" x1="14.054" y1="17.3209" x2="14.054" y2="25.065" gradientUnits="userSpaceOnUse">
<stop stop-color="#FFD600"/>
<stop offset="1" stop-color="#FFD800" stop-opacity="0.6"/>
</linearGradient>
</defs>
</svg>
