<svg width="24" height="25" viewBox="0 0 24 25" fill="none" xmlns="http://www.w3.org/2000/svg">
<path d="M10.8959 19.4245L11.8796 17.1823C12.755 15.187 14.3307 13.5986 16.2962 12.7303L19.0039 11.5342C19.8647 11.154 19.8647 9.90766 19.0039 9.5274L16.3808 8.36864C14.3647 7.47805 12.7608 5.83087 11.9003 3.76745L10.9039 1.37794C10.5341 0.491206 9.30294 0.491208 8.93318 1.37794L7.93672 3.76743C7.07624 5.83087 5.47227 7.47805 3.45623 8.36864L0.833144 9.5274C-0.0277141 9.90766 -0.0277152 11.154 0.833144 11.5342L3.54079 12.7303C5.5063 13.5986 7.08201 15.187 7.95743 17.1823L8.94114 19.4245C9.31927 20.2863 10.5177 20.2863 10.8959 19.4245ZM19.8481 23.9915L20.1247 23.3605C20.6179 22.2354 21.5062 21.3396 22.6145 20.8496L23.4667 20.4727C23.9278 20.2689 23.9278 19.6022 23.4667 19.3984L22.6622 19.0426C21.5253 18.54 20.6211 17.611 20.1364 16.4477L19.8524 15.7659C19.6543 15.2907 18.9941 15.2907 18.7961 15.7659L18.512 16.4477C18.0274 17.611 17.1232 18.54 15.9863 19.0426L15.1817 19.3984C14.7208 19.6022 14.7208 20.2689 15.1817 20.4727L16.034 20.8496C17.1424 21.3396 18.0305 22.2354 18.5237 23.3605L18.8004 23.9915C19.0029 24.4534 19.6456 24.4534 19.8481 23.9915Z" fill="url(#paint0_linear_15338_49166)"/>
<defs>
<linearGradient id="paint0_linear_15338_49166" x1="12.448" y1="0.712891" x2="12.448" y2="25.2302" gradientUnits="userSpaceOnUse">
<stop offset="0.375" stop-color="#5FB2FF"/>
<stop offset="0.765" stop-color="#5F8CFF"/>
</linearGradient>
</defs>
</svg>
