<svg width="24" height="24" viewBox="0 0 24 24" fill="none" xmlns="http://www.w3.org/2000/svg">
<path d="M12.5385 3.19792C12.226 2.93403 11.7712 2.93403 11.4587 3.19792L2.29201 10.9757C1.94131 11.2743 1.89965 11.7986 2.19479 12.1493C2.48992 12.5 3.0177 12.5417 3.3684 12.2465L4.22256 11.5243V18C4.22256 19.5347 5.46562 20.7778 7.00034 20.7778H17.0003C18.5351 20.7778 19.7781 19.5347 19.7781 18V11.5243L20.6288 12.2465C20.9795 12.5451 21.5073 12.5 21.8024 12.1493C22.0976 11.7986 22.0559 11.2708 21.7052 10.9757L12.5385 3.19792ZM5.88923 18V10.1111L12.0003 4.92708L18.1115 10.1111V18C18.1115 18.6146 17.6149 19.1111 17.0003 19.1111H15.3337V13.8333C15.3337 13.066 14.7121 12.4444 13.9448 12.4444H10.0559C9.28853 12.4444 8.66701 13.066 8.66701 13.8333V19.1111H7.00034C6.38576 19.1111 5.88923 18.6146 5.88923 18ZM10.3337 19.1111V14.1111H13.667V19.1111H10.3337Z" fill="#6B6B6B"/>
</svg>
