<svg width="24" height="24" viewBox="0 0 24 24" fill="none" xmlns="http://www.w3.org/2000/svg">
<path d="M4.77354 7.93554L11.5978 10.6327C11.8544 10.7342 12.1416 10.725 12.3913 10.6075L19.0006 7.49613M12 11.8902V19.3602M4.03951 17.8569L11.5745 20.9435C11.8446 21.0542 12.1495 21.0413 12.4093 20.9083L20.0372 17.0024C20.3713 16.8314 20.5814 16.4876 20.5814 16.1123V7.06862C20.5814 6.66273 20.3361 6.2971 19.9605 6.14325L12.4141 3.05195C12.1506 2.94402 11.8536 2.95352 11.5976 3.07807L3.98114 6.78306C3.637 6.95047 3.41858 7.29961 3.41858 7.68231V16.9316C3.41858 17.3374 3.66392 17.7031 4.03951 17.8569Z" stroke="#6B6B6B" stroke-width="1.5" stroke-linecap="round"/>
</svg>
