<svg width="19" height="18" viewBox="0 0 19 18" fill="none" xmlns="http://www.w3.org/2000/svg">
<g clip-path="url(#clip0_15338_48708)">
<path d="M0.361206 2.74391C5.4629 -1.65474 8.87444 1.21112 11.3272 5.56635L13.5079 4.27671C13.664 4.18987 13.8468 4.18987 13.9806 4.29842C14.1144 4.40698 14.1813 4.58067 14.1367 4.7587L13.0798 11.411C13.0129 11.6498 12.7631 11.7844 12.5402 11.741L6.43062 9.31367C6.31913 9.29196 6.22994 9.20512 6.16305 9.11827C6.14075 9.07485 6.11845 9.00972 6.11845 8.96629C6.09615 8.79261 6.18534 8.61458 6.34143 8.52773L8.47754 7.25981C6.08723 2.96102 3.79504 1.47599 0.361206 3.2259V2.74391Z" fill="#323A3D"/>
<path d="M12 1.3335H15.6C16.7046 1.3335 17.6 2.22893 17.6 3.3335V14.5335C17.6 15.6381 16.7046 16.5335 15.6 16.5335H2.80005C1.69548 16.5335 0.800049 15.6381 0.800049 14.5335V7.3335" stroke="#323A3D" stroke-width="1.5" stroke-linecap="round"/>
</g>
<defs>
<clipPath id="clip0_15338_48708">
<rect width="18.4" height="16.8" fill="white" transform="translate(0 0.533691)"/>
</clipPath>
</defs>
</svg>
