<svg width="20" height="20" viewBox="0 0 20 20" fill="none" xmlns="http://www.w3.org/2000/svg">
<path d="M14.9974 5.83398C15.4258 5.83398 15.7793 6.15586 15.8275 6.57031L15.8334 6.66699V15.834C15.8332 16.7543 15.085 17.5 14.1625 17.5H5.83728C4.91474 17.5 4.16651 16.7543 4.16638 15.834V6.66699L4.17224 6.57031C4.22047 6.15601 4.57318 5.83421 5.00134 5.83398C5.4297 5.83398 5.78317 6.15586 5.83142 6.57031L5.83728 6.66699V15.834H14.1625V6.66699L14.1683 6.57031C14.2166 6.15601 14.5693 5.83421 14.9974 5.83398ZM10.7455 2.5C11.0745 2.50001 11.3965 2.59777 11.6703 2.78027L12.5004 3.33301H15.8334C16.2936 3.33301 16.6664 3.70675 16.6664 4.16699C16.6662 4.62708 16.2935 5 15.8334 5H4.16638C3.7064 4.99982 3.33355 4.62697 3.33337 4.16699C3.33337 3.70686 3.70629 3.33318 4.16638 3.33301H7.50037L8.33044 2.78027C8.60411 2.59784 8.92538 2.50008 9.25427 2.5H10.7455Z" fill="#E14747"/>
</svg>
