<svg width="200" height="160" viewBox="0 0 200 160" fill="none" xmlns="http://www.w3.org/2000/svg">
<path d="M101.955 141.053C135.47 141.053 162.649 114.432 162.649 81.5597C162.649 48.6871 135.47 22.0664 101.955 22.0664C68.4409 22.0664 41.2615 48.6871 41.2615 81.5597C41.2615 114.432 68.4409 141.053 101.955 141.053Z" fill="#F8F8F8"/>
<path fill-rule="evenodd" clip-rule="evenodd" d="M39.9509 81.4977C39.9509 48.0616 67.5946 20.9961 101.667 20.9961C135.739 20.9961 163.382 48.0616 163.382 81.4977C163.382 114.934 135.739 141.999 101.667 141.999C67.5946 141.999 39.9509 114.934 39.9509 81.4977ZM101.667 23.0128C68.7097 23.0128 41.9945 49.1887 41.9945 81.4977C41.9945 113.807 68.7097 139.983 101.667 139.983C134.624 139.983 161.339 113.807 161.339 81.4977C161.339 49.1887 134.624 23.0128 101.667 23.0128Z" fill="#E4E4E4"/>
<path d="M148.157 73.7338V110.136C148.157 117.698 141.924 123.849 134.158 123.849H69.3773C61.714 123.849 55.4811 117.799 55.3789 110.236C55.3789 110.136 55.3789 110.136 55.3789 110.035V73.7338C55.3789 73.633 55.3789 73.633 55.3789 73.5322C55.3789 73.3305 55.3789 73.1288 55.4811 72.9272C55.5833 72.6246 55.6854 72.423 55.7876 72.1205L73.1579 39.3488C73.771 38.0379 75.0993 37.332 76.5298 37.332H126.904C128.334 37.332 129.56 38.0379 130.276 39.3488L147.646 72.1205C147.748 72.3221 147.85 72.6246 147.953 72.9272C148.157 73.1288 148.157 73.4313 148.157 73.7338Z" fill="#EEEEEE"/>
<path fill-rule="evenodd" clip-rule="evenodd" d="M76.5301 38.3409C75.4342 38.3409 74.5068 38.8721 74.0859 39.7719L74.0753 39.7945L56.7295 72.5201C56.6783 72.6644 56.6285 72.7875 56.5861 72.8921L56.5833 72.8989C56.5317 73.0261 56.4911 73.1269 56.4507 73.2466L56.4277 73.3146L56.4054 73.3586C56.4043 73.369 56.4029 73.3858 56.402 73.413C56.401 73.445 56.401 73.4797 56.401 73.5327V110.23C56.4992 117.236 62.2736 122.842 69.3776 122.842H134.159C141.365 122.842 147.135 117.137 147.135 110.136V73.7344C147.135 73.6549 147.135 73.6009 147.133 73.552C147.133 73.5494 147.133 73.5469 147.133 73.5445L147.06 73.4724L146.983 73.2466C146.874 72.922 146.797 72.7027 146.736 72.5789L129.376 39.8274C129.375 39.8256 129.374 39.8239 129.373 39.8222C128.835 38.8386 127.954 38.3409 126.904 38.3409H76.5301ZM72.2418 38.9027C73.052 37.1966 74.7733 36.3242 76.5301 36.3242H126.904C128.714 36.3242 130.284 37.2365 131.176 38.8712L131.181 38.8819L148.556 71.6618L148.56 71.6701C148.675 71.8972 148.78 72.1915 148.865 72.4408C149.025 72.6723 149.1 72.9139 149.137 73.1128C149.179 73.3435 149.179 73.5755 149.179 73.711L149.179 110.136C149.179 118.261 142.484 124.858 134.159 124.858H69.3776C61.1571 124.858 54.4671 118.367 54.3575 110.25L54.3574 110.237V73.5327C54.3574 73.5231 54.3573 73.5128 54.3573 73.5017C54.3565 73.3205 54.3549 72.945 54.5316 72.5518C54.5856 72.3974 54.6385 72.2668 54.6832 72.1566L54.6859 72.1499C54.7375 72.0226 54.7781 71.9218 54.8185 71.8021L54.8445 71.7254L72.2418 38.9027Z" fill="#CCCCCC"/>
<path fill-rule="evenodd" clip-rule="evenodd" d="M128.04 23.9961C128.102 24.6618 128.163 25.3039 128.221 25.9244L126.187 26.1117C126.128 25.4905 126.067 24.8473 126.005 24.1801L128.04 23.9961ZM128.584 29.7679C128.712 31.1557 128.825 32.4324 128.916 33.6317L126.879 33.7828C126.788 32.5994 126.677 31.3351 126.549 29.9515L128.584 29.7679ZM129.139 37.5267C129.182 38.8694 129.182 40.1574 129.128 41.4607L127.086 41.3779C127.138 40.1304 127.138 38.8921 127.096 37.5914L129.139 37.5267ZM128.803 45.3853C128.654 46.6018 128.457 47.8778 128.205 49.2599L126.193 48.9022C126.44 47.5527 126.631 46.3158 126.774 45.1437L128.803 45.3853ZM102.597 48.2539C103.369 47.7752 104.215 47.4497 105.084 47.2651L105.514 49.2367C104.871 49.3733 104.26 49.6092 103.712 49.9448C103.193 50.317 102.748 50.776 102.38 51.2989L100.702 50.1478C101.199 49.4419 101.813 48.8074 102.545 48.2888L102.57 48.2705L102.597 48.2539ZM112.512 49.1765C111.856 48.5778 111.096 48.106 110.283 47.7632L109.48 49.6176C110.102 49.8798 110.666 50.2348 111.14 50.6714L111.162 50.6915L111.185 50.7103C111.729 51.1555 112.192 51.6589 112.581 52.2059L114.254 51.0489C113.771 50.3672 113.192 49.7361 112.512 49.1765ZM127.43 53.078C127.296 53.6896 127.153 54.3228 127 54.9801L126.989 55.0283L126.973 55.0753C126.915 55.2462 126.856 55.4195 126.797 55.5944C126.611 56.1476 126.418 56.7173 126.217 57.2833L124.289 56.6146C124.484 56.0658 124.669 55.5181 124.855 54.9685C124.909 54.8064 124.964 54.6442 125.019 54.4817C125.166 53.8485 125.304 53.2389 125.433 52.6505L127.43 53.078ZM99.3349 57.4395C99.1405 56.625 99.065 55.7782 99.103 54.9362L101.145 55.026C101.114 55.699 101.176 56.3674 101.329 56.9996L101.337 57.0287L101.342 57.0582C101.436 57.5808 101.568 58.0926 101.735 58.5905L99.7957 59.2255C99.6009 58.646 99.446 58.0495 99.3349 57.4395ZM116.099 55.7483C116.224 56.5782 116.263 57.4173 116.224 58.2444C116.187 59.0603 116.083 59.8721 115.923 60.6726L113.918 60.2835C114.06 59.573 114.15 58.8607 114.183 58.1524C114.216 57.4489 114.182 56.7397 114.078 56.0438L116.099 55.7483ZM122.699 63.6907C123.284 63.0752 123.782 62.4002 124.216 61.6934L122.469 60.648C122.091 61.2635 121.67 61.8275 121.193 62.3278L121.174 62.3479L121.156 62.3689C120.821 62.76 120.451 63.1255 120.049 63.4636L121.377 64.9971C121.851 64.5971 122.295 64.1614 122.699 63.6907ZM104.022 65.3134C103.054 64.5224 102.195 63.5946 101.478 62.5626L103.163 61.4218C103.773 62.3001 104.504 63.089 105.325 63.7601L104.022 65.3134ZM113.291 67.3675C112.992 67.9185 112.707 68.4245 112.431 68.8956L110.932 68.0411L110.919 68.175C110.29 68.1135 109.669 68.0072 109.062 67.8537C108.443 67.7015 107.839 67.5015 107.256 67.2583L108.051 65.4004C108.54 65.6042 109.044 65.771 109.559 65.8975L109.567 65.8993C110.069 66.0267 110.589 66.1162 111.12 66.1681L111.008 67.2847C111.167 67.0043 111.33 66.7102 111.497 66.4004L111.506 66.3845L111.515 66.3689C111.886 65.7399 112.231 65.0871 112.541 64.417L114.4 65.2556C114.063 65.983 113.69 66.689 113.291 67.3675ZM118.206 66.9662C117.074 67.4704 115.87 67.8304 114.648 68.0361L114.304 66.0481C115.358 65.8707 116.394 65.5604 117.366 65.1279L118.206 66.9662ZM110.495 71.8871C109.813 72.8372 109.122 73.7086 108.347 74.6812L106.741 73.4342C107.518 72.4587 108.179 71.6246 108.828 70.7215L110.495 71.8871ZM106.21 77.3977C105.596 78.1977 104.917 79.1048 104.149 80.1657L102.486 78.9943C103.265 77.9169 103.956 76.9943 104.581 76.1802L106.21 77.3977ZM102.164 82.9812C101.851 83.4363 101.525 83.9137 101.186 84.4153L99.4856 83.2967C99.8278 82.7901 100.157 82.3076 100.474 81.8472L102.164 82.9812Z" fill="#D6D6D6"/>
<path d="M134.841 18.7405C134.308 20.6602 132.176 21.3583 130.043 20.1366C127.733 19.0895 126.133 18.2169 126.489 16.4717C127.022 14.7265 129.154 14.552 131.642 14.3775C134.664 14.0284 135.197 16.8207 134.841 18.7405Z" fill="#E4E4E4"/>
<path d="M117.605 20.4854C118.493 22.056 120.981 23.1032 122.759 21.5325C124.714 19.7873 126.313 18.5656 125.424 16.8204C124.536 15.2498 123.114 15.7733 120.093 16.1224C117.605 16.6459 116.539 18.7402 117.605 20.4854Z" fill="#E4E4E4"/>
<path d="M125.423 14.0267C126.667 13.8522 127.911 14.5503 128.267 15.5974C128.445 15.9464 128.622 16.47 128.622 16.819C128.978 19.2623 128.089 21.3565 126.667 21.5311C125.068 21.8801 123.468 20.1349 123.291 17.8662C123.291 17.1681 123.291 16.819 123.291 16.2955C123.468 15.0738 124.179 14.2012 125.423 14.0267C125.601 14.0267 125.423 14.0267 125.423 14.0267Z" fill="#CCCCCC"/>
<path d="M148.157 73.7325V113.865C148.157 119.411 143.661 123.848 137.939 123.848H65.5965C59.9767 123.848 55.3787 119.411 55.3787 113.865V73.5308C55.3787 73.3291 55.3787 73.1275 55.4808 72.9258H78.7775C82.2516 72.9258 85.1126 75.6484 85.1126 79.1776C85.1126 80.8918 85.8278 82.5052 86.9518 83.6144C88.1779 84.8244 89.6084 85.4295 91.4476 85.4295H112.19C115.664 85.4295 118.525 82.7069 118.525 79.1776C118.525 77.4634 119.24 75.85 120.364 74.7408C121.59 73.5308 123.021 72.9258 124.758 72.9258H147.952C148.157 73.1275 148.157 73.43 148.157 73.7325Z" fill="white"/>
<path fill-rule="evenodd" clip-rule="evenodd" d="M54.8498 71.918H78.778C82.8056 71.918 86.1349 75.0814 86.1349 79.1782C86.1349 80.6219 86.7403 81.9797 87.6748 82.9019C88.709 83.9225 89.8794 84.4216 91.4481 84.4216H112.19C115.111 84.4216 117.504 82.1399 117.504 79.1782C117.504 77.1935 118.329 75.3245 119.642 74.0284C121.054 72.6353 122.742 71.918 124.758 71.918H148.376L148.675 72.2133C148.971 72.5052 149.088 72.8462 149.137 73.1115C149.179 73.3422 149.179 73.5742 149.179 73.7097L149.179 113.866C149.179 119.975 144.219 124.857 137.939 124.857H65.597C59.4263 124.857 54.3574 119.982 54.3574 113.866V73.5313C54.3574 73.5217 54.3573 73.5114 54.3573 73.5003C54.3565 73.3076 54.3547 72.8952 54.5674 72.4754L54.8498 71.918ZM56.401 73.9347V113.866C56.401 118.842 60.5281 122.84 65.597 122.84H137.939C143.104 122.84 147.135 118.848 147.135 113.866V73.9347H124.758C123.301 73.9347 122.128 74.4274 121.087 75.4544C120.153 76.3766 119.547 77.7344 119.547 79.1782C119.547 83.2749 116.218 86.4384 112.19 86.4384H91.4481C89.3385 86.4384 87.6479 85.7275 86.2298 84.328C84.9164 83.0318 84.0913 81.1628 84.0913 79.1782C84.0913 76.2164 81.6986 73.9347 78.778 73.9347H56.401Z" fill="#CCCCCC"/>
<path d="M90.1099 98.9004C91.4046 98.9004 92.4542 97.8646 92.4542 96.5869C92.4542 95.3092 91.4046 94.2734 90.1099 94.2734C88.8152 94.2734 87.7656 95.3092 87.7656 96.5869C87.7656 97.8646 88.8152 98.9004 90.1099 98.9004Z" fill="#CCCCCC"/>
<path d="M113.426 98.9004C114.721 98.9004 115.771 97.8646 115.771 96.5869C115.771 95.3092 114.721 94.2734 113.426 94.2734C112.132 94.2734 111.082 95.3092 111.082 96.5869C111.082 97.8646 112.132 98.9004 113.426 98.9004Z" fill="#CCCCCC"/>
<path d="M105.569 114.095H98.2197C97.0793 114.095 96.1289 113.158 96.1289 112.032C96.1289 110.907 97.0793 109.969 98.2197 109.969H105.506C106.646 109.969 107.597 110.907 107.597 112.032C107.66 113.158 106.71 114.095 105.569 114.095Z" fill="#CCCCCC"/>
<path d="M160.81 53.0615C163.124 53.0615 165 51.2105 165 48.9272C165 46.6439 163.124 44.793 160.81 44.793C158.497 44.793 156.621 46.6439 156.621 48.9272C156.621 51.2105 158.497 53.0615 160.81 53.0615Z" fill="#E4E4E4"/>
<path d="M156.621 39.6507C158.201 39.6507 159.482 38.3866 159.482 36.8273C159.482 35.268 158.201 34.0039 156.621 34.0039C155.041 34.0039 153.76 35.268 153.76 36.8273C153.76 38.3866 155.041 39.6507 156.621 39.6507Z" fill="#E4E4E4"/>
<path d="M40.7497 48.9281C42.3298 48.9281 43.6107 47.664 43.6107 46.1047C43.6107 44.5453 42.3298 43.2812 40.7497 43.2812C39.1696 43.2812 37.8887 44.5453 37.8887 46.1047C37.8887 47.664 39.1696 48.9281 40.7497 48.9281Z" fill="#E4E4E4"/>
<path d="M34.3133 111.042C37.2477 111.042 39.6266 108.694 39.6266 105.798C39.6266 102.902 37.2477 100.555 34.3133 100.555C31.3788 100.555 29 102.902 29 105.798C29 108.694 31.3788 111.042 34.3133 111.042Z" fill="#E4E4E4"/>
</svg>
