<svg width="42" height="42" viewBox="0 0 42 42" fill="none" xmlns="http://www.w3.org/2000/svg">
<rect width="34.9563" height="42" rx="1.5" fill="#E8E8E8"/>
<rect x="4" y="26.4336" width="3.86037" height="3.86037" fill="#D3D3D3"/>
<rect x="11.72" y="26.4336" width="3.86037" height="3.86037" fill="#D3D3D3"/>
<rect x="7.86389" y="30.2939" width="3.86037" height="3.86037" fill="#D3D3D3"/>
<rect x="19.4398" y="26.4336" width="3.86037" height="3.86037" fill="#D3D3D3"/>
<rect x="27.1595" y="26.4336" width="3.86037" height="3.86037" fill="#D3D3D3"/>
<rect x="15.5836" y="30.2939" width="3.86037" height="3.86037" fill="#D3D3D3"/>
<rect x="23.3035" y="30.2939" width="3.86037" height="3.86037" fill="#D3D3D3"/>
<rect x="4" y="18.7129" width="3.86037" height="3.86037" fill="#D3D3D3"/>
<rect x="11.72" y="18.7129" width="3.86037" height="3.86037" fill="#D3D3D3"/>
<rect x="7.85596" y="22.5723" width="3.86037" height="3.86037" fill="#D3D3D3"/>
<rect x="19.4398" y="18.7129" width="3.86037" height="3.86037" fill="#D3D3D3"/>
<rect x="27.1595" y="18.7129" width="3.86037" height="3.86037" fill="#D3D3D3"/>
<rect x="15.5836" y="22.5723" width="3.86037" height="3.86037" fill="#D3D3D3"/>
<rect x="23.3035" y="22.5723" width="3.86037" height="3.86037" fill="#D3D3D3"/>
<rect x="4" y="10.9912" width="3.86037" height="3.86037" fill="#D3D3D3"/>
<rect x="11.72" y="10.9912" width="3.86037" height="3.86037" fill="#D3D3D3"/>
<rect x="7.86389" y="14.8516" width="3.86037" height="3.86037" fill="#D3D3D3"/>
<rect x="19.4398" y="10.9912" width="3.86037" height="3.86037" fill="#D3D3D3"/>
<rect x="27.1595" y="10.9912" width="3.86037" height="3.86037" fill="#D3D3D3"/>
<rect x="15.5836" y="14.8516" width="3.86037" height="3.86037" fill="#D3D3D3"/>
<rect x="23.3035" y="14.8516" width="3.86037" height="3.86037" fill="#D3D3D3"/>
<rect x="4" y="34.1533" width="3.86037" height="3.86037" fill="#D3D3D3"/>
<rect x="11.72" y="34.1533" width="3.86037" height="3.86037" fill="#D3D3D3"/>
<rect x="19.4398" y="34.1533" width="3.86037" height="3.86037" fill="#D3D3D3"/>
<rect x="27.1595" y="34.1533" width="3.86037" height="3.86037" fill="#D3D3D3"/>
<rect x="16.1711" y="6.86035" width="25.8289" height="12.9144" rx="0.45" fill="#00AE42"/>
<path d="M35.5525 12.497H38.1204V15.7038C37.8138 15.8097 37.4625 15.8965 37.0664 15.9643C36.6703 16.0294 36.2552 16.062 35.8211 16.062C35.2486 16.062 34.7467 15.9507 34.3153 15.7283C33.8839 15.5058 33.5475 15.168 33.306 14.7149C33.0646 14.2591 32.9438 13.684 32.9438 12.9894C32.9438 12.3654 33.0632 11.8268 33.302 11.3738C33.5407 10.918 33.8921 10.5666 34.356 10.3197C34.8227 10.0701 35.3938 9.94531 36.0693 9.94531C36.441 9.94531 36.7937 9.98058 37.1274 10.0511C37.4611 10.1217 37.7514 10.2112 37.9983 10.3197L37.4896 11.5813C37.2753 11.4755 37.0528 11.3968 36.8222 11.3453C36.5916 11.291 36.3434 11.2639 36.0775 11.2639C35.7221 11.2639 35.4358 11.3439 35.2188 11.504C35.0044 11.6641 34.8484 11.8784 34.7508 12.147C34.6531 12.4129 34.6043 12.7072 34.6043 13.0301C34.6043 13.3991 34.6558 13.7111 34.7589 13.9661C34.8647 14.2184 35.018 14.4111 35.2188 14.544C35.4223 14.6742 35.6678 14.7393 35.9554 14.7393C36.0503 14.7393 36.1656 14.7326 36.3013 14.719C36.4397 14.7054 36.5441 14.6892 36.6147 14.6702V13.7382H35.5525V12.497Z" fill="white"/>
<path d="M31.8788 15.9801H29.7707L27.5975 11.7884H27.5609C27.5745 11.9159 27.5867 12.0692 27.5975 12.2482C27.6084 12.4273 27.6179 12.6104 27.626 12.7976C27.6342 12.9821 27.6382 13.149 27.6382 13.2982V15.9801H26.2139V10.0303H28.3138L30.4788 14.165H30.5033C30.4951 14.0348 30.487 13.8842 30.4788 13.7133C30.4707 13.5397 30.4626 13.3647 30.4544 13.1883C30.449 13.012 30.4463 12.856 30.4463 12.7203V10.0303H31.8788V15.9801Z" fill="white"/>
<path d="M23.0042 10.0303C23.7584 10.0303 24.3227 10.1944 24.6972 10.5227C25.0743 10.851 25.2628 11.3176 25.2628 11.9227C25.2628 12.194 25.2235 12.4544 25.1448 12.704C25.0688 12.9536 24.9427 13.1761 24.7663 13.3714C24.5927 13.5668 24.3607 13.7214 24.0704 13.8354C23.7828 13.9493 23.4274 14.0063 23.0042 14.0063H22.5525V15.9801H20.9449V10.0303H23.0042ZM22.9676 11.3285H22.5525V12.6959H22.8699C23.0083 12.6959 23.1371 12.6728 23.2565 12.6267C23.3759 12.5779 23.4708 12.5005 23.5414 12.3947C23.6146 12.2862 23.6513 12.1424 23.6513 11.9634C23.6513 11.7761 23.5956 11.6242 23.4844 11.5076C23.3732 11.3882 23.2009 11.3285 22.9676 11.3285Z" fill="white"/>
</svg>
