<svg width="42" height="43" viewBox="0 0 42 43" fill="none" xmlns="http://www.w3.org/2000/svg">
<rect x="0.000366211" width="34.955" height="41.9994" rx="1.5" fill="#E8E8E8"/>
<path fill-rule="evenodd" clip-rule="evenodd" d="M6.94183 16.0193C8.39636 16.0193 9.57542 14.8402 9.57542 13.3856C9.57542 11.931 8.39636 10.752 6.94183 10.752C5.48729 10.752 4.30823 11.931 4.30823 13.3856C4.30823 14.8402 5.48729 16.0193 6.94183 16.0193Z" fill="#BBBBBB"/>
<path d="M28.582 28.4344L34.4745 33.8935C34.7809 34.1774 34.9551 34.5761 34.9551 34.9938V40.4998C34.9551 41.3283 34.2835 41.9998 33.4551 41.9998L1.5 41.9998C0.671574 41.9998 0 41.3283 0 40.4998L0 35.1107C0 34.6262 0.233987 34.1716 0.628236 33.89L5.21502 30.6143C5.71198 30.2594 6.3745 30.2412 6.8902 30.5683L10.2548 32.7023C10.746 33.0138 11.3729 33.0134 11.8635 32.7011L16.9004 29.4959L23.3 24.9249C23.8967 24.4987 24.714 24.5664 25.2325 25.0849L28.582 28.4344Z" fill="#D3D3D3"/>
<path d="M14.9572 8.7305C14.9572 8.35241 15.2637 8.0459 15.6418 8.0459L39.7315 8.0459C40.1096 8.0459 40.4161 8.35241 40.4161 8.7305V20.0908C40.4161 20.4689 40.1096 20.7754 39.7315 20.7754L15.6418 20.7754C15.2637 20.7754 14.9572 20.4689 14.9572 20.0908L14.9572 8.7305Z" fill="#00AE42"/>
<path d="M32.0808 13.602H34.612V16.763C34.3098 16.8673 33.9635 16.9529 33.573 17.0197C33.1826 17.0839 32.7734 17.116 32.3456 17.116C31.7813 17.116 31.2866 17.0063 30.8613 16.7871C30.4361 16.5678 30.1045 16.2348 29.8665 15.7882C29.6285 15.339 29.5095 14.772 29.5095 14.0874C29.5095 13.4723 29.6272 12.9415 29.8625 12.4949C30.0979 12.0456 30.4442 11.6993 30.9015 11.456C31.3614 11.2099 31.9244 11.0869 32.5902 11.0869C32.9566 11.0869 33.3043 11.1217 33.6332 11.1912C33.9621 11.2607 34.2483 11.349 34.4916 11.456L33.9902 12.6995C33.7789 12.5952 33.5597 12.5176 33.3323 12.4668C33.105 12.4133 32.8603 12.3866 32.5983 12.3866C32.2479 12.3866 31.9658 12.4655 31.7519 12.6233C31.5406 12.781 31.3868 12.9923 31.2906 13.2571C31.1943 13.5191 31.1462 13.8093 31.1462 14.1275C31.1462 14.4912 31.197 14.7988 31.2986 15.0501C31.4029 15.2988 31.554 15.4887 31.7519 15.6197C31.9524 15.7481 32.1945 15.8123 32.4779 15.8123C32.5715 15.8123 32.6852 15.8056 32.8189 15.7922C32.9553 15.7789 33.0582 15.7628 33.1278 15.7441V14.8255H32.0808V13.602Z" fill="white"/>
<path d="M26.5655 11.1699C27.309 11.1699 27.8652 11.3317 28.2342 11.6553C28.606 11.9789 28.7918 12.4388 28.7918 13.0352C28.7918 13.3026 28.753 13.5594 28.6755 13.8054C28.6006 14.0514 28.4763 14.2707 28.3024 14.4632C28.1313 14.6558 27.9026 14.8082 27.6165 14.9205C27.333 15.0329 26.9827 15.089 26.5655 15.089H26.1203V17.0345H24.5358V11.1699H26.5655ZM26.5294 12.4495H26.1203V13.7974H26.4331C26.5695 13.7974 26.6966 13.7746 26.8142 13.7292C26.9319 13.681 27.0255 13.6048 27.095 13.5005C27.1672 13.3936 27.2033 13.2518 27.2033 13.0753C27.2033 12.8908 27.1485 12.741 27.0389 12.626C26.9292 12.5084 26.7594 12.4495 26.5294 12.4495Z" fill="white"/>
<path d="M21.1798 18.8757C21.0006 18.8757 20.8441 18.8664 20.7104 18.8477C20.574 18.8316 20.4564 18.8129 20.3574 18.7915V17.56C20.443 17.5761 20.5339 17.5934 20.6302 17.6122C20.7265 17.6336 20.8308 17.6443 20.9431 17.6443C21.133 17.6443 21.28 17.6055 21.3843 17.5279C21.4913 17.4504 21.5662 17.334 21.609 17.1789C21.6518 17.0238 21.6731 16.8299 21.6731 16.5973V11.1699H23.2657V16.4609C23.2657 17.0492 23.1774 17.5199 23.0009 17.8729C22.8244 18.2259 22.5797 18.4813 22.2668 18.6391C21.9539 18.7969 21.5916 18.8757 21.1798 18.8757Z" fill="white"/>
</svg>
