<svg width="24" height="24" viewBox="0 0 24 24" xmlns="http://www.w3.org/2000/svg">
<path d="M4.26429 12.6471C4.09643 12.4767 4 12.2471 4 12.0026C4 11.7581 4.09643 11.5285 4.26429 11.3581L10.55 5.13549C10.8929 4.79473 11.4357 4.80955 11.7607 5.16513C12.0857 5.5207 12.075 6.0837 11.7321 6.42076L6.99643 11.1136H19.1429C19.6179 11.1136 20 11.51 20 12.0026C20 12.4952 19.6179 12.8915 19.1429 12.8915H6.99643L11.7357 17.5807C12.0786 17.9215 12.0893 18.4808 11.7643 18.8364C11.4393 19.1919 10.8964 19.203 10.5536 18.866L4.26786 12.6434L4.26429 12.6471Z" fill="#1F1F1F"/>
</svg>
