<?xml version="1.0" encoding="UTF-8"?>
<svg width="518px" height="672px" viewBox="0 0 518 672" version="1.1" xmlns="http://www.w3.org/2000/svg" xmlns:xlink="http://www.w3.org/1999/xlink">
    <title>Logo</title>
    <g id="Page-1" stroke="none" stroke-width="1" fill="none" fill-rule="evenodd">
        <g id="Frame" transform="translate(-253, -176)" fill="#FFFFFF">
            <g id="Logo" transform="translate(253, 176)">
                <path d="M12,0 L227,-1.77635684e-15 C233.627417,-3.55271368e-15 239,5.372583 239,12 L239,319.649796 C239,324.579107 235.985561,329.007029 231.39948,330.81423 L16.3994803,415.537586 C10.233534,417.967352 3.2653325,414.938579 0.835566609,408.772633 C0.283456899,407.37156 -1.77635684e-14,405.879084 -1.77635684e-14,404.373153 L0,12 C0,5.372583 5.372583,0 12,0 Z" id="Path"></path>
                <path d="M292,0 L506,0 C512.627417,-1.77635684e-15 518,5.372583 518,12 L518,288.289505 C518,294.916922 512.627417,300.289505 506,300.289505 C504.476307,300.289505 502.966555,299.999323 501.55143,299.434469 L287.55143,214.01527 C282.991242,212.195047 280,207.780349 280,202.870306 L280,12 C280,5.372583 285.372583,1.77635684e-15 292,1.77635684e-15 Z" id="Path"></path>
                <path d="M222.616338,375.429386 L7.61633783,459.801114 C3.021927,461.604083 -1.42108547e-14,466.036253 -1.24344979e-14,470.971768 L0,660 C0,666.627417 5.372583,672 12,672 L227,672 C233.627417,672 239,666.627417 239,660 L239,386.600039 C239,379.972622 233.627417,374.600039 227,374.600039 C225.499784,374.600039 224.01287,374.881349 222.616338,375.429386 Z" id="Path"></path>
                <path d="M280,271.56326 L280,660 C280,666.627417 285.372583,672 292,672 L506,672 C512.627417,672 518,666.627417 518,660 L518,355.061842 C518,350.117792 514.967758,345.679788 510.361893,343.88267 L296.361893,260.384088 C290.187806,257.975081 283.229835,261.027281 280.820828,267.201368 C280.27837,268.591642 280,270.070905 280,271.56326 Z" id="Path"></path>
            </g>
        </g>
    </g>
</svg>